<svg width="1440" height="280" viewBox="0 0 1440 280" fill="none" xmlns="http://www.w3.org/2000/svg">
<rect width="1440" height="280" fill="#F4F4F4"/>
<line x1="272" y1="96.5" x2="1170" y2="96.4999" stroke="#C0C0C0" stroke-dasharray="5 5"/>
<path d="M420.544 95.6859L400.116 86.2575C399.791 86.1098 399.403 86.1978 399.177 86.4775C399.066 86.613 399.004 86.7818 399 86.9567C398.997 87.1316 399.052 87.3027 399.158 87.4424L405.875 96.3993L399.158 105.356C398.941 105.644 398.949 106.043 399.175 106.321C399.327 106.511 399.555 106.613 399.786 106.613C399.898 106.613 400.009 106.59 400.115 106.541L420.543 97.1127C420.822 96.9839 421 96.7057 421 96.3993C421 96.0929 420.822 95.8147 420.544 95.6859Z" fill="#C0C0C0"/>
<path d="M1042.54 95.6859L1022.12 86.2575C1021.79 86.1098 1021.4 86.1978 1021.18 86.4775C1021.07 86.613 1021 86.7818 1021 86.9567C1021 87.1316 1021.05 87.3027 1021.16 87.4424L1027.88 96.3993L1021.16 105.356C1020.94 105.644 1020.95 106.043 1021.17 106.321C1021.33 106.511 1021.56 106.613 1021.79 106.613C1021.9 106.613 1022.01 106.59 1022.11 106.541L1042.54 97.1127C1042.82 96.9839 1043 96.7057 1043 96.3993C1043 96.0929 1042.82 95.8147 1042.54 95.6859Z" fill="#C0C0C0"/>
<path d="M147.838 207.24H144.958C144.847 206.625 144.641 206.083 144.339 205.615C144.037 205.147 143.668 204.75 143.231 204.424C142.794 204.098 142.305 203.852 141.763 203.685C141.228 203.519 140.658 203.436 140.055 203.436C138.965 203.436 137.99 203.71 137.128 204.258C136.273 204.806 135.595 205.609 135.097 206.668C134.604 207.726 134.358 209.019 134.358 210.545C134.358 212.084 134.604 213.383 135.097 214.442C135.595 215.5 136.276 216.301 137.137 216.842C137.999 217.384 138.969 217.655 140.046 217.655C140.643 217.655 141.209 217.575 141.745 217.415C142.286 217.249 142.776 217.005 143.213 216.685C143.65 216.365 144.019 215.974 144.321 215.513C144.628 215.045 144.841 214.509 144.958 213.906L147.838 213.915C147.684 214.845 147.386 215.701 146.943 216.482C146.506 217.258 145.943 217.929 145.253 218.495C144.57 219.055 143.788 219.489 142.908 219.797C142.028 220.105 141.068 220.259 140.027 220.259C138.39 220.259 136.931 219.871 135.651 219.095C134.371 218.313 133.361 217.196 132.622 215.744C131.89 214.291 131.524 212.558 131.524 210.545C131.524 208.527 131.893 206.794 132.632 205.347C133.37 203.895 134.38 202.781 135.66 202.005C136.94 201.223 138.396 200.832 140.027 200.832C141.031 200.832 141.966 200.977 142.834 201.266C143.708 201.549 144.493 201.968 145.188 202.522C145.884 203.07 146.46 203.741 146.915 204.535C147.371 205.323 147.678 206.224 147.838 207.24ZM151.031 220V205.818H153.699V208.071H153.847C154.105 207.308 154.561 206.708 155.213 206.271C155.872 205.827 156.617 205.606 157.448 205.606C157.62 205.606 157.823 205.612 158.057 205.624C158.297 205.637 158.485 205.652 158.62 205.67V208.311C158.509 208.28 158.312 208.246 158.029 208.21C157.746 208.166 157.463 208.145 157.18 208.145C156.527 208.145 155.946 208.283 155.435 208.56C154.93 208.831 154.53 209.21 154.234 209.696C153.939 210.176 153.791 210.724 153.791 211.339V220H151.031ZM166.614 220.286C165.216 220.286 164.013 219.988 163.003 219.391C162 218.787 161.225 217.941 160.677 216.852C160.135 215.756 159.864 214.473 159.864 213.001C159.864 211.549 160.135 210.268 160.677 209.161C161.225 208.053 161.988 207.188 162.967 206.566C163.951 205.944 165.102 205.634 166.42 205.634C167.22 205.634 167.995 205.766 168.746 206.031C169.497 206.295 170.171 206.711 170.768 207.277C171.365 207.843 171.836 208.579 172.181 209.484C172.526 210.382 172.698 211.475 172.698 212.761V213.74H161.425V211.672H169.993C169.993 210.946 169.845 210.302 169.55 209.742C169.254 209.176 168.839 208.73 168.303 208.403C167.774 208.077 167.152 207.914 166.438 207.914C165.663 207.914 164.985 208.105 164.407 208.487C163.834 208.862 163.391 209.354 163.077 209.964C162.77 210.567 162.616 211.223 162.616 211.93V213.546C162.616 214.494 162.782 215.3 163.114 215.965C163.453 216.63 163.924 217.138 164.527 217.489C165.13 217.833 165.835 218.006 166.641 218.006C167.164 218.006 167.641 217.932 168.072 217.784C168.503 217.63 168.876 217.402 169.19 217.101C169.503 216.799 169.744 216.427 169.91 215.984L172.523 216.455C172.313 217.224 171.938 217.898 171.396 218.477C170.861 219.049 170.187 219.495 169.374 219.815C168.568 220.129 167.648 220.286 166.614 220.286ZM179.888 220.314C178.99 220.314 178.177 220.148 177.451 219.815C176.724 219.477 176.149 218.987 175.724 218.347C175.306 217.707 175.096 216.922 175.096 215.993C175.096 215.193 175.25 214.534 175.558 214.017C175.866 213.5 176.281 213.091 176.804 212.789C177.328 212.487 177.912 212.26 178.559 212.106C179.205 211.952 179.864 211.835 180.535 211.755C181.384 211.656 182.073 211.576 182.603 211.515C183.132 211.447 183.517 211.339 183.757 211.192C183.997 211.044 184.117 210.804 184.117 210.472V210.407C184.117 209.601 183.889 208.976 183.434 208.533C182.984 208.089 182.313 207.868 181.421 207.868C180.491 207.868 179.759 208.074 179.223 208.487C178.694 208.893 178.328 209.345 178.125 209.844L175.53 209.253C175.838 208.391 176.287 207.696 176.878 207.166C177.475 206.631 178.162 206.243 178.937 206.003C179.713 205.757 180.528 205.634 181.384 205.634C181.95 205.634 182.55 205.701 183.184 205.837C183.825 205.966 184.422 206.206 184.976 206.557C185.536 206.908 185.994 207.409 186.351 208.062C186.708 208.708 186.887 209.548 186.887 210.582V220H184.191V218.061H184.08C183.901 218.418 183.634 218.769 183.277 219.114C182.92 219.458 182.461 219.745 181.901 219.972C181.341 220.2 180.67 220.314 179.888 220.314ZM180.488 218.098C181.252 218.098 181.904 217.947 182.446 217.646C182.994 217.344 183.409 216.95 183.692 216.464C183.982 215.971 184.126 215.445 184.126 214.885V213.057C184.028 213.155 183.837 213.248 183.554 213.334C183.277 213.414 182.96 213.485 182.603 213.546C182.246 213.602 181.898 213.654 181.559 213.703C181.221 213.746 180.938 213.783 180.71 213.814C180.174 213.882 179.685 213.996 179.242 214.156C178.805 214.316 178.454 214.546 178.189 214.848C177.931 215.143 177.802 215.537 177.802 216.03C177.802 216.713 178.054 217.23 178.559 217.581C179.063 217.926 179.707 218.098 180.488 218.098ZM197.184 205.818V208.034H189.437V205.818H197.184ZM191.515 202.42H194.275V215.836C194.275 216.371 194.355 216.775 194.516 217.045C194.676 217.31 194.882 217.492 195.134 217.59C195.393 217.683 195.673 217.729 195.974 217.729C196.196 217.729 196.39 217.713 196.556 217.683C196.722 217.652 196.851 217.627 196.944 217.609L197.442 219.889C197.282 219.951 197.055 220.012 196.759 220.074C196.464 220.142 196.094 220.179 195.651 220.185C194.925 220.197 194.248 220.068 193.62 219.797C192.992 219.526 192.484 219.107 192.097 218.541C191.709 217.975 191.515 217.264 191.515 216.408V202.42ZM206.198 220.286C204.8 220.286 203.597 219.988 202.587 219.391C201.584 218.787 200.809 217.941 200.261 216.852C199.719 215.756 199.448 214.473 199.448 213.001C199.448 211.549 199.719 210.268 200.261 209.161C200.809 208.053 201.572 207.188 202.551 206.566C203.535 205.944 204.686 205.634 206.004 205.634C206.804 205.634 207.579 205.766 208.33 206.031C209.081 206.295 209.755 206.711 210.352 207.277C210.949 207.843 211.42 208.579 211.765 209.484C212.11 210.382 212.282 211.475 212.282 212.761V213.74H201.009V211.672H209.577C209.577 210.946 209.429 210.302 209.134 209.742C208.838 209.176 208.423 208.73 207.887 208.403C207.358 208.077 206.736 207.914 206.022 207.914C205.247 207.914 204.569 208.105 203.991 208.487C203.418 208.862 202.975 209.354 202.661 209.964C202.354 210.567 202.2 211.223 202.2 211.93V213.546C202.2 214.494 202.366 215.3 202.698 215.965C203.037 216.63 203.508 217.138 204.111 217.489C204.714 217.833 205.419 218.006 206.225 218.006C206.748 218.006 207.225 217.932 207.656 217.784C208.087 217.63 208.46 217.402 208.774 217.101C209.087 216.799 209.328 216.427 209.494 215.984L212.107 216.455C211.897 217.224 211.522 217.898 210.98 218.477C210.445 219.049 209.771 219.495 208.958 219.815C208.152 220.129 207.232 220.286 206.198 220.286ZM222.448 220V201.091H229.188C230.659 201.091 231.877 201.359 232.844 201.894C233.81 202.43 234.533 203.162 235.014 204.092C235.494 205.015 235.734 206.055 235.734 207.212C235.734 208.376 235.491 209.422 235.004 210.352C234.524 211.275 233.798 212.007 232.825 212.549C231.859 213.085 230.643 213.352 229.178 213.352H224.543V210.933H228.92C229.849 210.933 230.603 210.773 231.182 210.453C231.761 210.127 232.185 209.684 232.456 209.124C232.727 208.563 232.862 207.926 232.862 207.212C232.862 206.498 232.727 205.864 232.456 205.31C232.185 204.756 231.757 204.322 231.173 204.009C230.594 203.695 229.831 203.538 228.883 203.538H225.301V220H222.448ZM238.857 220V205.818H241.525V208.071H241.673C241.931 207.308 242.387 206.708 243.039 206.271C243.698 205.827 244.443 205.606 245.274 205.606C245.446 205.606 245.649 205.612 245.883 205.624C246.123 205.637 246.311 205.652 246.446 205.67V208.311C246.335 208.28 246.139 208.246 245.855 208.21C245.572 208.166 245.289 208.145 245.006 208.145C244.353 208.145 243.772 208.283 243.261 208.56C242.756 208.831 242.356 209.21 242.061 209.696C241.765 210.176 241.617 210.724 241.617 211.339V220H238.857ZM254.301 220.286C252.972 220.286 251.811 219.982 250.82 219.372C249.829 218.763 249.06 217.91 248.512 216.815C247.964 215.719 247.69 214.439 247.69 212.974C247.69 211.503 247.964 210.216 248.512 209.114C249.06 208.013 249.829 207.157 250.82 206.548C251.811 205.938 252.972 205.634 254.301 205.634C255.631 205.634 256.791 205.938 257.782 206.548C258.773 207.157 259.542 208.013 260.09 209.114C260.638 210.216 260.912 211.503 260.912 212.974C260.912 214.439 260.638 215.719 260.09 216.815C259.542 217.91 258.773 218.763 257.782 219.372C256.791 219.982 255.631 220.286 254.301 220.286ZM254.31 217.969C255.172 217.969 255.886 217.741 256.453 217.286C257.019 216.83 257.437 216.224 257.708 215.467C257.985 214.71 258.124 213.875 258.124 212.964C258.124 212.06 257.985 211.229 257.708 210.472C257.437 209.708 257.019 209.096 256.453 208.634C255.886 208.173 255.172 207.942 254.31 207.942C253.443 207.942 252.722 208.173 252.15 208.634C251.584 209.096 251.162 209.708 250.885 210.472C250.614 211.229 250.479 212.06 250.479 212.964C250.479 213.875 250.614 214.71 250.885 215.467C251.162 216.224 251.584 216.83 252.15 217.286C252.722 217.741 253.443 217.969 254.31 217.969ZM270.743 205.818V208.034H262.729V205.818H270.743ZM264.926 220V204.175C264.926 203.288 265.12 202.553 265.508 201.968C265.896 201.377 266.409 200.937 267.05 200.648C267.69 200.352 268.385 200.205 269.136 200.205C269.69 200.205 270.164 200.251 270.558 200.343C270.952 200.429 271.244 200.509 271.435 200.583L270.789 202.817C270.66 202.781 270.494 202.737 270.29 202.688C270.087 202.633 269.841 202.605 269.552 202.605C268.881 202.605 268.401 202.771 268.111 203.104C267.828 203.436 267.687 203.916 267.687 204.544V220H264.926ZM273.591 220V205.818H276.352V220H273.591ZM274.985 203.63C274.505 203.63 274.093 203.47 273.748 203.15C273.41 202.824 273.24 202.436 273.24 201.987C273.24 201.531 273.41 201.143 273.748 200.823C274.093 200.497 274.505 200.334 274.985 200.334C275.465 200.334 275.875 200.497 276.213 200.823C276.558 201.143 276.73 201.531 276.73 201.987C276.73 202.436 276.558 202.824 276.213 203.15C275.875 203.47 275.465 203.63 274.985 203.63ZM282.826 201.091V220H280.066V201.091H282.826ZM292.653 220.286C291.255 220.286 290.052 219.988 289.043 219.391C288.039 218.787 287.264 217.941 286.716 216.852C286.174 215.756 285.903 214.473 285.903 213.001C285.903 211.549 286.174 210.268 286.716 209.161C287.264 208.053 288.027 207.188 289.006 206.566C289.99 205.944 291.141 205.634 292.459 205.634C293.259 205.634 294.034 205.766 294.785 206.031C295.536 206.295 296.21 206.711 296.807 207.277C297.405 207.843 297.875 208.579 298.22 209.484C298.565 210.382 298.737 211.475 298.737 212.761V213.74H287.464V211.672H296.032C296.032 210.946 295.884 210.302 295.589 209.742C295.293 209.176 294.878 208.73 294.342 208.403C293.813 208.077 293.191 207.914 292.477 207.914C291.702 207.914 291.025 208.105 290.446 208.487C289.873 208.862 289.43 209.354 289.116 209.964C288.809 210.567 288.655 211.223 288.655 211.93V213.546C288.655 214.494 288.821 215.3 289.153 215.965C289.492 216.63 289.963 217.138 290.566 217.489C291.169 217.833 291.874 218.006 292.68 218.006C293.204 218.006 293.681 217.932 294.111 217.784C294.542 217.63 294.915 217.402 295.229 217.101C295.543 216.799 295.783 216.427 295.949 215.984L298.562 216.455C298.352 217.224 297.977 217.898 297.435 218.477C296.9 219.049 296.226 219.495 295.413 219.815C294.607 220.129 293.687 220.286 292.653 220.286Z" fill="#212427"/>
<circle cx="215.5" cy="102.5" r="67.5" fill="white"/>
<path d="M209.506 134.995C205.677 134.995 201.854 135.012 198.026 134.989C195.952 134.977 193.931 134.624 192.037 133.732C188.851 132.232 186.98 129.66 186.383 126.26C185.3 120.034 186.459 114.282 190.542 109.33C193.357 105.912 197.157 104.18 201.484 103.618C203.331 103.375 205.22 103.352 207.091 103.335C211.151 103.294 215.211 103.288 219.272 103.317C223.506 103.346 227.352 104.603 230.781 107.117C231.661 107.766 232.055 108.635 231.841 109.7C231.632 110.731 230.972 111.49 229.923 111.6C229.28 111.67 228.464 111.548 227.954 111.183C225.035 109.121 221.826 108.246 218.264 108.299C213.63 108.368 208.996 108.316 204.362 108.287C196.769 108.241 190.757 114.328 190.953 121.922C190.982 122.959 191.04 124.007 191.226 125.026C191.735 127.859 193.444 129.457 196.305 129.828C197.157 129.938 198.014 129.99 198.871 129.99C206.448 130.002 214.024 129.996 221.6 130.002C223.477 130.002 224.687 131.496 224.218 133.188C223.905 134.311 222.932 134.995 221.606 134.995C217.574 135.006 213.537 135.001 209.506 134.995C209.506 135.001 209.506 135.001 209.506 134.995Z" fill="#0077B5" fill-opacity="0.45"/>
<path d="M226.008 84.1395C226.089 91.8721 219.81 98.2146 211.962 98.3188C204.229 98.4231 197.759 92.0922 197.684 84.3539C197.603 76.5633 203.887 70.0819 211.591 70.0008C219.573 69.9197 225.921 76.1463 226.008 84.1395ZM221.009 84.1859C221.021 79.1119 216.92 75.0052 211.834 74.9995C206.859 74.9937 202.712 79.1003 202.677 84.0642C202.642 89.144 206.731 93.297 211.788 93.3144C216.908 93.3318 220.997 89.2772 221.009 84.1859Z" fill="#0077B5" fill-opacity="0.45"/>
<path d="M233.862 128.31C232.408 128.31 231.012 128.339 229.617 128.299C228.464 128.27 227.502 127.407 227.305 126.335C227.097 125.188 227.612 124.065 228.649 123.613C229.089 123.422 229.599 123.347 230.086 123.329C231.325 123.289 232.571 123.318 233.909 123.318C233.909 121.922 233.891 120.601 233.914 119.286C233.943 117.832 234.887 116.784 236.196 116.691C237.673 116.587 238.849 117.606 238.89 119.083C238.93 120.456 238.896 121.829 238.896 123.318C239.585 123.318 240.199 123.312 240.813 123.318C241.722 123.335 242.643 123.277 243.535 123.404C244.815 123.584 245.678 124.777 245.568 126.04C245.464 127.274 244.462 128.258 243.193 128.299C242.076 128.339 240.958 128.31 239.84 128.316C239.562 128.316 239.284 128.316 238.89 128.316C238.89 129.799 238.907 131.195 238.884 132.591C238.867 133.668 238.287 134.41 237.32 134.815C236.364 135.215 235.397 135.064 234.743 134.3C234.308 133.79 234.019 133.043 233.932 132.365C233.798 131.317 233.897 130.233 233.897 129.168C233.897 128.913 233.88 128.658 233.862 128.31Z" fill="#0077B5" fill-opacity="0.45"/>
<path d="M637.163 220V201.091H648.889V203.547H640.016V209.308H648.049V211.755H640.016V220H637.163ZM651.998 220V205.818H654.667V208.071H654.814C655.073 207.308 655.528 206.708 656.181 206.271C656.84 205.827 657.584 205.606 658.415 205.606C658.588 205.606 658.791 205.612 659.025 205.624C659.265 205.637 659.452 205.652 659.588 205.67V208.311C659.477 208.28 659.28 208.246 658.997 208.21C658.714 208.166 658.431 208.145 658.148 208.145C657.495 208.145 656.913 208.283 656.403 208.56C655.898 208.831 655.498 209.21 655.202 209.696C654.907 210.176 654.759 210.724 654.759 211.339V220H651.998ZM667.581 220.286C666.184 220.286 664.981 219.988 663.971 219.391C662.968 218.787 662.192 217.941 661.645 216.852C661.103 215.756 660.832 214.473 660.832 213.001C660.832 211.549 661.103 210.268 661.645 209.161C662.192 208.053 662.956 207.188 663.934 206.566C664.919 205.944 666.07 205.634 667.387 205.634C668.188 205.634 668.963 205.766 669.714 206.031C670.465 206.295 671.139 206.711 671.736 207.277C672.333 207.843 672.804 208.579 673.149 209.484C673.493 210.382 673.666 211.475 673.666 212.761V213.74H662.392V211.672H670.961C670.961 210.946 670.813 210.302 670.517 209.742C670.222 209.176 669.806 208.73 669.271 208.403C668.742 208.077 668.12 207.914 667.406 207.914C666.63 207.914 665.953 208.105 665.375 208.487C664.802 208.862 664.359 209.354 664.045 209.964C663.737 210.567 663.583 211.223 663.583 211.93V213.546C663.583 214.494 663.75 215.3 664.082 215.965C664.421 216.63 664.891 217.138 665.495 217.489C666.098 217.833 666.803 218.006 667.609 218.006C668.132 218.006 668.609 217.932 669.04 217.784C669.471 217.63 669.843 217.402 670.157 217.101C670.471 216.799 670.711 216.427 670.877 215.984L673.49 216.455C673.281 217.224 672.906 217.898 672.364 218.477C671.828 219.049 671.154 219.495 670.342 219.815C669.536 220.129 668.615 220.286 667.581 220.286ZM682.841 220.286C681.444 220.286 680.24 219.988 679.231 219.391C678.228 218.787 677.452 217.941 676.904 216.852C676.363 215.756 676.092 214.473 676.092 213.001C676.092 211.549 676.363 210.268 676.904 209.161C677.452 208.053 678.215 207.188 679.194 206.566C680.179 205.944 681.33 205.634 682.647 205.634C683.447 205.634 684.223 205.766 684.974 206.031C685.725 206.295 686.399 206.711 686.996 207.277C687.593 207.843 688.064 208.579 688.409 209.484C688.753 210.382 688.926 211.475 688.926 212.761V213.74H677.652V211.672H686.22C686.22 210.946 686.073 210.302 685.777 209.742C685.482 209.176 685.066 208.73 684.531 208.403C684.001 208.077 683.38 207.914 682.666 207.914C681.89 207.914 681.213 208.105 680.634 208.487C680.062 208.862 679.619 209.354 679.305 209.964C678.997 210.567 678.843 211.223 678.843 211.93V213.546C678.843 214.494 679.009 215.3 679.342 215.965C679.68 216.63 680.151 217.138 680.754 217.489C681.358 217.833 682.062 218.006 682.869 218.006C683.392 218.006 683.869 217.932 684.3 217.784C684.731 217.63 685.103 217.402 685.417 217.101C685.731 216.799 685.971 216.427 686.137 215.984L688.75 216.455C688.541 217.224 688.165 217.898 687.624 218.477C687.088 219.049 686.414 219.495 685.602 219.815C684.795 220.129 683.875 220.286 682.841 220.286ZM706.441 201.091H709.284V214.497C709.284 215.71 709.044 216.747 708.564 217.609C708.09 218.47 707.422 219.129 706.561 219.585C705.699 220.034 704.689 220.259 703.532 220.259C702.467 220.259 701.51 220.065 700.661 219.677C699.817 219.289 699.15 218.726 698.657 217.987C698.171 217.242 697.928 216.338 697.928 215.273H700.762C700.762 215.796 700.882 216.248 701.122 216.63C701.369 217.012 701.704 217.31 702.129 217.526C702.56 217.735 703.052 217.839 703.606 217.839C704.209 217.839 704.72 217.713 705.139 217.461C705.563 217.202 705.887 216.824 706.108 216.325C706.33 215.827 706.441 215.217 706.441 214.497V201.091ZM719.189 220.286C717.859 220.286 716.699 219.982 715.708 219.372C714.717 218.763 713.948 217.91 713.4 216.815C712.852 215.719 712.578 214.439 712.578 212.974C712.578 211.503 712.852 210.216 713.4 209.114C713.948 208.013 714.717 207.157 715.708 206.548C716.699 205.938 717.859 205.634 719.189 205.634C720.518 205.634 721.679 205.938 722.67 206.548C723.661 207.157 724.43 208.013 724.978 209.114C725.526 210.216 725.8 211.503 725.8 212.974C725.8 214.439 725.526 215.719 724.978 216.815C724.43 217.91 723.661 218.763 722.67 219.372C721.679 219.982 720.518 220.286 719.189 220.286ZM719.198 217.969C720.06 217.969 720.774 217.741 721.34 217.286C721.906 216.83 722.325 216.224 722.596 215.467C722.873 214.71 723.011 213.875 723.011 212.964C723.011 212.06 722.873 211.229 722.596 210.472C722.325 209.708 721.906 209.096 721.34 208.634C720.774 208.173 720.06 207.942 719.198 207.942C718.33 207.942 717.61 208.173 717.038 208.634C716.471 209.096 716.05 209.708 715.773 210.472C715.502 211.229 715.366 212.06 715.366 212.964C715.366 213.875 715.502 214.71 715.773 215.467C716.05 216.224 716.471 216.83 717.038 217.286C717.61 217.741 718.33 217.969 719.198 217.969ZM729.103 220V201.091H731.863V208.117H732.03C732.19 207.822 732.421 207.48 732.722 207.092C733.024 206.705 733.442 206.366 733.978 206.077C734.513 205.781 735.221 205.634 736.101 205.634C737.246 205.634 738.268 205.923 739.167 206.501C740.065 207.08 740.77 207.914 741.281 209.004C741.798 210.093 742.057 211.404 742.057 212.937C742.057 214.469 741.801 215.784 741.29 216.879C740.779 217.969 740.078 218.809 739.185 219.4C738.293 219.985 737.274 220.277 736.129 220.277C735.267 220.277 734.563 220.132 734.015 219.843C733.473 219.554 733.048 219.215 732.741 218.827C732.433 218.44 732.196 218.095 732.03 217.793H731.799V220H729.103ZM731.808 212.909C731.808 213.906 731.953 214.78 732.242 215.531C732.531 216.282 732.95 216.87 733.498 217.295C734.046 217.713 734.716 217.923 735.51 217.923C736.335 217.923 737.025 217.704 737.579 217.267C738.133 216.824 738.551 216.224 738.834 215.467C739.124 214.71 739.268 213.857 739.268 212.909C739.268 211.973 739.127 211.133 738.844 210.388C738.567 209.644 738.148 209.056 737.588 208.625C737.034 208.194 736.341 207.979 735.51 207.979C734.71 207.979 734.033 208.185 733.479 208.597C732.931 209.01 732.516 209.585 732.233 210.324C731.95 211.062 731.808 211.924 731.808 212.909ZM752.259 220V201.091H758.999C760.47 201.091 761.689 201.359 762.655 201.894C763.622 202.43 764.345 203.162 764.825 204.092C765.305 205.015 765.545 206.055 765.545 207.212C765.545 208.376 765.302 209.422 764.816 210.352C764.336 211.275 763.609 212.007 762.637 212.549C761.671 213.085 760.455 213.352 758.99 213.352H754.355V210.933H758.731C759.661 210.933 760.415 210.773 760.993 210.453C761.572 210.127 761.997 209.684 762.268 209.124C762.538 208.563 762.674 207.926 762.674 207.212C762.674 206.498 762.538 205.864 762.268 205.31C761.997 204.756 761.569 204.322 760.984 204.009C760.406 203.695 759.642 203.538 758.694 203.538H755.112V220H752.259ZM774.464 220.286C773.135 220.286 771.974 219.982 770.983 219.372C769.992 218.763 769.223 217.91 768.675 216.815C768.127 215.719 767.854 214.439 767.854 212.974C767.854 211.503 768.127 210.216 768.675 209.114C769.223 208.013 769.992 207.157 770.983 206.548C771.974 205.938 773.135 205.634 774.464 205.634C775.794 205.634 776.954 205.938 777.945 206.548C778.936 207.157 779.706 208.013 780.253 209.114C780.801 210.216 781.075 211.503 781.075 212.974C781.075 214.439 780.801 215.719 780.253 216.815C779.706 217.91 778.936 218.763 777.945 219.372C776.954 219.982 775.794 220.286 774.464 220.286ZM774.474 217.969C775.335 217.969 776.049 217.741 776.616 217.286C777.182 216.83 777.6 216.224 777.871 215.467C778.148 214.71 778.287 213.875 778.287 212.964C778.287 212.06 778.148 211.229 777.871 210.472C777.6 209.708 777.182 209.096 776.616 208.634C776.049 208.173 775.335 207.942 774.474 207.942C773.606 207.942 772.885 208.173 772.313 208.634C771.747 209.096 771.325 209.708 771.048 210.472C770.777 211.229 770.642 212.06 770.642 212.964C770.642 213.875 770.777 214.71 771.048 215.467C771.325 216.224 771.747 216.83 772.313 217.286C772.885 217.741 773.606 217.969 774.474 217.969ZM794.784 209.281L792.282 209.724C792.177 209.404 792.011 209.099 791.783 208.81C791.561 208.52 791.26 208.283 790.878 208.099C790.497 207.914 790.02 207.822 789.447 207.822C788.665 207.822 788.013 207.997 787.49 208.348C786.967 208.693 786.705 209.139 786.705 209.687C786.705 210.161 786.88 210.542 787.231 210.832C787.582 211.121 788.148 211.358 788.93 211.543L791.183 212.06C792.488 212.361 793.46 212.826 794.1 213.454C794.741 214.082 795.061 214.897 795.061 215.901C795.061 216.75 794.815 217.507 794.322 218.172C793.836 218.83 793.156 219.348 792.282 219.723C791.414 220.098 790.407 220.286 789.262 220.286C787.674 220.286 786.379 219.948 785.375 219.271C784.372 218.587 783.757 217.618 783.529 216.362L786.197 215.956C786.363 216.652 786.705 217.178 787.222 217.535C787.739 217.886 788.413 218.061 789.244 218.061C790.149 218.061 790.872 217.873 791.414 217.498C791.955 217.116 792.226 216.652 792.226 216.104C792.226 215.661 792.06 215.288 791.728 214.987C791.401 214.685 790.9 214.457 790.223 214.303L787.822 213.777C786.499 213.475 785.52 212.995 784.886 212.337C784.258 211.678 783.944 210.844 783.944 209.835C783.944 208.997 784.178 208.265 784.646 207.637C785.114 207.009 785.76 206.52 786.585 206.169C787.41 205.812 788.355 205.634 789.419 205.634C790.952 205.634 792.158 205.966 793.039 206.631C793.919 207.289 794.501 208.173 794.784 209.281ZM804.716 205.818V208.034H796.97V205.818H804.716ZM799.047 202.42H801.808V215.836C801.808 216.371 801.888 216.775 802.048 217.045C802.208 217.31 802.414 217.492 802.666 217.59C802.925 217.683 803.205 217.729 803.507 217.729C803.728 217.729 803.922 217.713 804.088 217.683C804.254 217.652 804.384 217.627 804.476 217.609L804.975 219.889C804.815 219.951 804.587 220.012 804.291 220.074C803.996 220.142 803.627 220.179 803.183 220.185C802.457 220.197 801.78 220.068 801.152 219.797C800.524 219.526 800.017 219.107 799.629 218.541C799.241 217.975 799.047 217.264 799.047 216.408V202.42Z" fill="#212427"/>
<circle cx="720.5" cy="102.5" r="67.5" fill="white"/>
<g opacity="0.45">
<path d="M752.419 79.5929C752.065 81.682 750.747 83.1433 749.307 84.5767C741.322 92.5218 733.349 100.482 725.419 108.485C724.326 109.588 723.083 110.008 721.635 110.171C720.242 110.33 718.858 110.548 717.469 110.743C715.318 111.045 713.426 109.263 713.679 107.103C713.9 105.219 714.215 103.349 714.48 101.472C714.589 100.707 714.937 100.068 715.477 99.5284C723.968 91.0369 732.453 82.5412 740.955 74.0583C742.776 72.2413 744.975 71.5299 747.471 72.3185C750.049 73.1327 751.649 74.939 752.288 77.5787C752.32 77.7159 752.374 77.8487 752.416 77.9837C752.419 78.5194 752.419 79.055 752.419 79.5929ZM716.991 107.443C718.588 107.221 720.075 106.983 721.57 106.816C722.252 106.741 722.732 106.436 723.203 105.961C730.533 98.607 737.88 91.2683 745.221 83.9254C746.185 82.9612 747.15 82.0012 748.103 81.0263C748.684 80.4328 749.061 79.7364 749.078 78.8836C749.106 77.5573 748.2 76.216 746.886 75.631C745.605 75.0611 744.401 75.3225 743.235 76.486C734.838 84.8746 726.445 93.2675 718.056 101.665C717.93 101.791 717.782 101.952 717.759 102.112C717.493 103.863 717.251 105.614 716.991 107.443Z" fill="#0077B5"/>
<path d="M692.366 78.6844C692.366 95.3759 692.366 111.984 692.366 128.63C711.23 128.63 730.066 128.63 748.986 128.63C748.986 128.354 748.986 128.092 748.986 127.833C748.986 118.875 748.986 109.914 748.988 100.955C748.988 100.647 748.99 100.334 749.046 100.032C749.198 99.2113 749.916 98.6478 750.724 98.6799C751.568 98.7142 752.234 99.3591 752.305 100.214C752.318 100.379 752.318 100.544 752.318 100.709C752.318 109.938 752.32 119.164 752.318 128.392C752.318 130.246 751.379 131.529 749.736 131.913C749.438 131.984 749.123 131.996 748.817 131.996C730.051 132.001 711.288 132.001 692.522 131.999C690.392 131.999 689.002 130.604 689.002 128.465C688.999 111.95 688.999 95.4359 689.002 78.9201C689.002 76.7367 690.373 75.3632 692.556 75.3632C701.826 75.3611 711.095 75.3611 720.364 75.3632C721.59 75.3632 722.325 75.991 722.322 77.0174C722.32 77.793 721.795 78.4658 721.035 78.618C720.735 78.678 720.42 78.6844 720.111 78.6865C711.131 78.6908 702.151 78.6887 693.171 78.6887C692.923 78.6844 692.676 78.6844 692.366 78.6844Z" fill="#0077B5"/>
<path d="M752.419 79.5929C752.065 81.682 750.747 83.1433 749.307 84.5767C741.322 92.5218 733.349 100.482 725.419 108.485C724.326 109.588 723.083 110.008 721.635 110.171C720.242 110.33 718.858 110.548 717.469 110.743C715.318 111.045 713.426 109.263 713.679 107.103C713.9 105.219 714.215 103.349 714.48 101.472C714.589 100.707 714.937 100.068 715.477 99.5284C723.968 91.0369 732.453 82.5412 740.955 74.0583C742.776 72.2413 744.975 71.5299 747.471 72.3185C750.049 73.1327 751.649 74.939 752.288 77.5787C752.32 77.7159 752.374 77.8487 752.416 77.9837C752.419 78.5194 752.419 79.055 752.419 79.5929ZM716.991 107.443C718.588 107.221 720.075 106.983 721.57 106.816C722.252 106.741 722.732 106.436 723.203 105.961C730.533 98.607 737.88 91.2683 745.221 83.9254C746.185 82.9612 747.15 82.0012 748.103 81.0263C748.684 80.4328 749.061 79.7364 749.078 78.8836C749.106 77.5573 748.2 76.216 746.886 75.631C745.605 75.0611 744.401 75.3225 743.235 76.486C734.838 84.8746 726.445 93.2675 718.056 101.665C717.93 101.791 717.782 101.952 717.759 102.112C717.493 103.863 717.251 105.614 716.991 107.443Z" stroke="#0077B5" stroke-width="1.1" stroke-miterlimit="10"/>
<path d="M692.366 78.6844C692.366 95.3759 692.366 111.984 692.366 128.63C711.23 128.63 730.066 128.63 748.986 128.63C748.986 128.354 748.986 128.092 748.986 127.833C748.986 118.875 748.986 109.914 748.988 100.955C748.988 100.647 748.99 100.334 749.046 100.032C749.198 99.2113 749.916 98.6478 750.724 98.6799C751.568 98.7142 752.234 99.3591 752.305 100.214C752.318 100.379 752.318 100.544 752.318 100.709C752.318 109.938 752.32 119.164 752.318 128.392C752.318 130.246 751.379 131.529 749.736 131.913C749.438 131.984 749.123 131.996 748.817 131.996C730.051 132.001 711.288 132.001 692.522 131.999C690.392 131.999 689.002 130.604 689.002 128.465C688.999 111.95 688.999 95.4359 689.002 78.9201C689.002 76.7367 690.373 75.3632 692.556 75.3632C701.826 75.3611 711.095 75.3611 720.364 75.3632C721.59 75.3632 722.325 75.991 722.322 77.0174C722.32 77.793 721.795 78.4658 721.035 78.618C720.735 78.678 720.42 78.6844 720.111 78.6865C711.131 78.6908 702.151 78.6887 693.171 78.6887C692.923 78.6844 692.676 78.6844 692.366 78.6844Z" stroke="#0077B5" stroke-width="1.1" stroke-miterlimit="10"/>
</g>
<path d="M1086.03 207.065C1085.85 206.504 1085.61 206.003 1085.31 205.56C1085.02 205.11 1084.66 204.729 1084.25 204.415C1083.84 204.095 1083.37 203.852 1082.84 203.685C1082.31 203.519 1081.74 203.436 1081.11 203.436C1080.05 203.436 1079.09 203.71 1078.23 204.258C1077.38 204.806 1076.7 205.609 1076.2 206.668C1075.71 207.72 1075.46 209.01 1075.46 210.536C1075.46 212.069 1075.71 213.365 1076.21 214.423C1076.71 215.482 1077.39 216.285 1078.26 216.833C1079.13 217.381 1080.11 217.655 1081.22 217.655C1082.25 217.655 1083.15 217.446 1083.91 217.027C1084.68 216.608 1085.27 216.018 1085.69 215.254C1086.12 214.485 1086.33 213.58 1086.33 212.54L1087.07 212.678H1081.66V210.324H1089.09V212.475C1089.09 214.063 1088.75 215.442 1088.07 216.612C1087.4 217.775 1086.47 218.674 1085.28 219.308C1084.1 219.942 1082.75 220.259 1081.22 220.259C1079.51 220.259 1078.01 219.865 1076.72 219.077C1075.43 218.289 1074.43 217.172 1073.71 215.725C1072.99 214.272 1072.63 212.549 1072.63 210.555C1072.63 209.047 1072.84 207.692 1073.25 206.492C1073.67 205.292 1074.26 204.273 1075.02 203.436C1075.78 202.593 1076.68 201.95 1077.7 201.506C1078.74 201.057 1079.87 200.832 1081.09 200.832C1082.11 200.832 1083.07 200.983 1083.95 201.285C1084.83 201.586 1085.62 202.014 1086.31 202.568C1087.01 203.122 1087.58 203.781 1088.04 204.544C1088.49 205.301 1088.8 206.141 1088.96 207.065H1086.03ZM1098.6 220.286C1097.2 220.286 1096 219.988 1094.99 219.391C1093.99 218.787 1093.21 217.941 1092.66 216.852C1092.12 215.756 1091.85 214.473 1091.85 213.001C1091.85 211.549 1092.12 210.268 1092.66 209.161C1093.21 208.053 1093.98 207.188 1094.95 206.566C1095.94 205.944 1097.09 205.634 1098.41 205.634C1099.21 205.634 1099.98 205.766 1100.73 206.031C1101.48 206.295 1102.16 206.711 1102.76 207.277C1103.35 207.843 1103.82 208.579 1104.17 209.484C1104.51 210.382 1104.69 211.475 1104.69 212.761V213.74H1093.41V211.672H1101.98C1101.98 210.946 1101.83 210.302 1101.54 209.742C1101.24 209.176 1100.83 208.73 1100.29 208.403C1099.76 208.077 1099.14 207.914 1098.43 207.914C1097.65 207.914 1096.97 208.105 1096.39 208.487C1095.82 208.862 1095.38 209.354 1095.06 209.964C1094.76 210.567 1094.6 211.223 1094.6 211.93V213.546C1094.6 214.494 1094.77 215.3 1095.1 215.965C1095.44 216.63 1095.91 217.138 1096.51 217.489C1097.12 217.833 1097.82 218.006 1098.63 218.006C1099.15 218.006 1099.63 217.932 1100.06 217.784C1100.49 217.63 1100.86 217.402 1101.18 217.101C1101.49 216.799 1101.73 216.427 1101.9 215.984L1104.51 216.455C1104.3 217.224 1103.93 217.898 1103.38 218.477C1102.85 219.049 1102.17 219.495 1101.36 219.815C1100.56 220.129 1099.63 220.286 1098.6 220.286ZM1114.37 205.818V208.034H1106.62V205.818H1114.37ZM1108.7 202.42H1111.46V215.836C1111.46 216.371 1111.54 216.775 1111.7 217.045C1111.86 217.31 1112.07 217.492 1112.32 217.59C1112.58 217.683 1112.86 217.729 1113.16 217.729C1113.38 217.729 1113.57 217.713 1113.74 217.683C1113.91 217.652 1114.04 217.627 1114.13 217.609L1114.63 219.889C1114.47 219.951 1114.24 220.012 1113.94 220.074C1113.65 220.142 1113.28 220.179 1112.84 220.185C1112.11 220.197 1111.43 220.068 1110.8 219.797C1110.18 219.526 1109.67 219.107 1109.28 218.541C1108.89 217.975 1108.7 217.264 1108.7 216.408V202.42ZM1124.52 220V201.091H1131.26C1132.73 201.091 1133.95 201.343 1134.91 201.848C1135.88 202.353 1136.61 203.051 1137.09 203.944C1137.57 204.83 1137.81 205.855 1137.81 207.018C1137.81 208.176 1137.57 209.194 1137.08 210.075C1136.6 210.949 1135.88 211.629 1134.9 212.115C1133.94 212.601 1132.72 212.844 1131.26 212.844H1126.15V210.388H1131C1131.92 210.388 1132.67 210.256 1133.25 209.991C1133.83 209.727 1134.26 209.342 1134.53 208.837C1134.8 208.333 1134.94 207.726 1134.94 207.018C1134.94 206.304 1134.8 205.686 1134.52 205.163C1134.25 204.639 1133.83 204.239 1133.24 203.962C1132.66 203.679 1131.9 203.538 1130.96 203.538H1127.38V220H1124.52ZM1133.86 211.469L1138.53 220H1135.28L1130.7 211.469H1133.86ZM1147 220.286C1145.6 220.286 1144.39 219.988 1143.39 219.391C1142.38 218.787 1141.61 217.941 1141.06 216.852C1140.52 215.756 1140.25 214.473 1140.25 213.001C1140.25 211.549 1140.52 210.268 1141.06 209.161C1141.61 208.053 1142.37 207.188 1143.35 206.566C1144.33 205.944 1145.48 205.634 1146.8 205.634C1147.6 205.634 1148.38 205.766 1149.13 206.031C1149.88 206.295 1150.55 206.711 1151.15 207.277C1151.75 207.843 1152.22 208.579 1152.56 209.484C1152.91 210.382 1153.08 211.475 1153.08 212.761V213.74H1141.81V211.672H1150.37C1150.37 210.946 1150.23 210.302 1149.93 209.742C1149.64 209.176 1149.22 208.73 1148.69 208.403C1148.16 208.077 1147.53 207.914 1146.82 207.914C1146.04 207.914 1145.37 208.105 1144.79 208.487C1144.22 208.862 1143.77 209.354 1143.46 209.964C1143.15 210.567 1143 211.223 1143 211.93V213.546C1143 214.494 1143.16 215.3 1143.5 215.965C1143.83 216.63 1144.31 217.138 1144.91 217.489C1145.51 217.833 1146.22 218.006 1147.02 218.006C1147.55 218.006 1148.02 217.932 1148.45 217.784C1148.89 217.63 1149.26 217.402 1149.57 217.101C1149.89 216.799 1150.13 216.427 1150.29 215.984L1152.9 216.455C1152.7 217.224 1152.32 217.898 1151.78 218.477C1151.24 219.049 1150.57 219.495 1149.76 219.815C1148.95 220.129 1148.03 220.286 1147 220.286ZM1158.9 201.091V220H1156.14V201.091H1158.9ZM1168.73 220.286C1167.33 220.286 1166.13 219.988 1165.12 219.391C1164.12 218.787 1163.34 217.941 1162.79 216.852C1162.25 215.756 1161.98 214.473 1161.98 213.001C1161.98 211.549 1162.25 210.268 1162.79 209.161C1163.34 208.053 1164.1 207.188 1165.08 206.566C1166.07 205.944 1167.22 205.634 1168.54 205.634C1169.34 205.634 1170.11 205.766 1170.86 206.031C1171.61 206.295 1172.29 206.711 1172.88 207.277C1173.48 207.843 1173.95 208.579 1174.3 209.484C1174.64 210.382 1174.81 211.475 1174.81 212.761V213.74H1163.54V211.672H1172.11C1172.11 210.946 1171.96 210.302 1171.67 209.742C1171.37 209.176 1170.95 208.73 1170.42 208.403C1169.89 208.077 1169.27 207.914 1168.55 207.914C1167.78 207.914 1167.1 208.105 1166.52 208.487C1165.95 208.862 1165.51 209.354 1165.19 209.964C1164.89 210.567 1164.73 211.223 1164.73 211.93V213.546C1164.73 214.494 1164.9 215.3 1165.23 215.965C1165.57 216.63 1166.04 217.138 1166.64 217.489C1167.25 217.833 1167.95 218.006 1168.76 218.006C1169.28 218.006 1169.76 217.932 1170.19 217.784C1170.62 217.63 1170.99 217.402 1171.31 217.101C1171.62 216.799 1171.86 216.427 1172.03 215.984L1174.64 216.455C1174.43 217.224 1174.05 217.898 1173.51 218.477C1172.98 219.049 1172.3 219.495 1171.49 219.815C1170.68 220.129 1169.76 220.286 1168.73 220.286ZM1189.6 205.818L1184.46 220H1181.51L1176.35 205.818H1179.32L1182.91 216.732H1183.06L1186.64 205.818H1189.6ZM1195.92 220.314C1195.02 220.314 1194.21 220.148 1193.48 219.815C1192.75 219.477 1192.18 218.987 1191.75 218.347C1191.34 217.707 1191.13 216.922 1191.13 215.993C1191.13 215.193 1191.28 214.534 1191.59 214.017C1191.9 213.5 1192.31 213.091 1192.83 212.789C1193.36 212.487 1193.94 212.26 1194.59 212.106C1195.24 211.952 1195.89 211.835 1196.56 211.755C1197.41 211.656 1198.1 211.576 1198.63 211.515C1199.16 211.447 1199.55 211.339 1199.79 211.192C1200.03 211.044 1200.15 210.804 1200.15 210.472V210.407C1200.15 209.601 1199.92 208.976 1199.46 208.533C1199.01 208.089 1198.34 207.868 1197.45 207.868C1196.52 207.868 1195.79 208.074 1195.25 208.487C1194.72 208.893 1194.36 209.345 1194.16 209.844L1191.56 209.253C1191.87 208.391 1192.32 207.696 1192.91 207.166C1193.51 206.631 1194.19 206.243 1194.97 206.003C1195.74 205.757 1196.56 205.634 1197.41 205.634C1197.98 205.634 1198.58 205.701 1199.21 205.837C1199.85 205.966 1200.45 206.206 1201.01 206.557C1201.57 206.908 1202.02 207.409 1202.38 208.062C1202.74 208.708 1202.92 209.548 1202.92 210.582V220H1200.22V218.061H1200.11C1199.93 218.418 1199.66 218.769 1199.31 219.114C1198.95 219.458 1198.49 219.745 1197.93 219.972C1197.37 220.2 1196.7 220.314 1195.92 220.314ZM1196.52 218.098C1197.28 218.098 1197.93 217.947 1198.48 217.646C1199.02 217.344 1199.44 216.95 1199.72 216.464C1200.01 215.971 1200.16 215.445 1200.16 214.885V213.057C1200.06 213.155 1199.87 213.248 1199.58 213.334C1199.31 213.414 1198.99 213.485 1198.63 213.546C1198.28 213.602 1197.93 213.654 1197.59 213.703C1197.25 213.746 1196.97 213.783 1196.74 213.814C1196.2 213.882 1195.72 213.996 1195.27 214.156C1194.84 214.316 1194.48 214.546 1194.22 214.848C1193.96 215.143 1193.83 215.537 1193.83 216.03C1193.83 216.713 1194.08 217.23 1194.59 217.581C1195.09 217.926 1195.74 218.098 1196.52 218.098ZM1209.35 211.58V220H1206.59V205.818H1209.24V208.126H1209.42C1209.75 207.375 1210.26 206.772 1210.95 206.317C1211.65 205.861 1212.54 205.634 1213.6 205.634C1214.57 205.634 1215.41 205.837 1216.14 206.243C1216.87 206.643 1217.43 207.24 1217.83 208.034C1218.23 208.828 1218.43 209.81 1218.43 210.979V220H1215.67V211.312C1215.67 210.284 1215.4 209.481 1214.87 208.902C1214.33 208.317 1213.6 208.025 1212.66 208.025C1212.02 208.025 1211.45 208.163 1210.95 208.44C1210.46 208.717 1210.07 209.124 1209.78 209.659C1209.5 210.188 1209.35 210.829 1209.35 211.58ZM1228.75 205.818V208.034H1221.01V205.818H1228.75ZM1223.08 202.42H1225.84V215.836C1225.84 216.371 1225.92 216.775 1226.08 217.045C1226.24 217.31 1226.45 217.492 1226.7 217.59C1226.96 217.683 1227.24 217.729 1227.54 217.729C1227.77 217.729 1227.96 217.713 1228.13 217.683C1228.29 217.652 1228.42 217.627 1228.51 217.609L1229.01 219.889C1228.85 219.951 1228.62 220.012 1228.33 220.074C1228.03 220.142 1227.66 220.179 1227.22 220.185C1226.49 220.197 1225.82 220.068 1225.19 219.797C1224.56 219.526 1224.05 219.107 1223.67 218.541C1223.28 217.975 1223.08 217.264 1223.08 216.408V202.42ZM1254.61 207.24H1251.73C1251.62 206.625 1251.42 206.083 1251.12 205.615C1250.81 205.147 1250.44 204.75 1250.01 204.424C1249.57 204.098 1249.08 203.852 1248.54 203.685C1248 203.519 1247.43 203.436 1246.83 203.436C1245.74 203.436 1244.77 203.71 1243.9 204.258C1243.05 204.806 1242.37 205.609 1241.87 206.668C1241.38 207.726 1241.13 209.019 1241.13 210.545C1241.13 212.084 1241.38 213.383 1241.87 214.442C1242.37 215.5 1243.05 216.301 1243.91 216.842C1244.78 217.384 1245.74 217.655 1246.82 217.655C1247.42 217.655 1247.99 217.575 1248.52 217.415C1249.06 217.249 1249.55 217.005 1249.99 216.685C1250.43 216.365 1250.8 215.974 1251.1 215.513C1251.4 215.045 1251.62 214.509 1251.73 213.906L1254.61 213.915C1254.46 214.845 1254.16 215.701 1253.72 216.482C1253.28 217.258 1252.72 217.929 1252.03 218.495C1251.35 219.055 1250.56 219.489 1249.68 219.797C1248.8 220.105 1247.84 220.259 1246.8 220.259C1245.17 220.259 1243.71 219.871 1242.43 219.095C1241.15 218.313 1240.14 217.196 1239.4 215.744C1238.67 214.291 1238.3 212.558 1238.3 210.545C1238.3 208.527 1238.67 206.794 1239.41 205.347C1240.15 203.895 1241.16 202.781 1242.44 202.005C1243.72 201.223 1245.17 200.832 1246.8 200.832C1247.81 200.832 1248.74 200.977 1249.61 201.266C1250.48 201.549 1251.27 201.968 1251.96 202.522C1252.66 203.07 1253.24 203.741 1253.69 204.535C1254.15 205.323 1254.45 206.224 1254.61 207.24ZM1261.93 220.314C1261.04 220.314 1260.22 220.148 1259.5 219.815C1258.77 219.477 1258.19 218.987 1257.77 218.347C1257.35 217.707 1257.14 216.922 1257.14 215.993C1257.14 215.193 1257.3 214.534 1257.6 214.017C1257.91 213.5 1258.33 213.091 1258.85 212.789C1259.37 212.487 1259.96 212.26 1260.6 212.106C1261.25 211.952 1261.91 211.835 1262.58 211.755C1263.43 211.656 1264.12 211.576 1264.65 211.515C1265.18 211.447 1265.56 211.339 1265.8 211.192C1266.04 211.044 1266.16 210.804 1266.16 210.472V210.407C1266.16 209.601 1265.94 208.976 1265.48 208.533C1265.03 208.089 1264.36 207.868 1263.47 207.868C1262.54 207.868 1261.8 208.074 1261.27 208.487C1260.74 208.893 1260.37 209.345 1260.17 209.844L1257.58 209.253C1257.88 208.391 1258.33 207.696 1258.92 207.166C1259.52 206.631 1260.21 206.243 1260.98 206.003C1261.76 205.757 1262.57 205.634 1263.43 205.634C1264 205.634 1264.6 205.701 1265.23 205.837C1265.87 205.966 1266.47 206.206 1267.02 206.557C1267.58 206.908 1268.04 207.409 1268.4 208.062C1268.75 208.708 1268.93 209.548 1268.93 210.582V220H1266.24V218.061H1266.13C1265.95 218.418 1265.68 218.769 1265.32 219.114C1264.97 219.458 1264.51 219.745 1263.95 219.972C1263.39 220.2 1262.72 220.314 1261.93 220.314ZM1262.53 218.098C1263.3 218.098 1263.95 217.947 1264.49 217.646C1265.04 217.344 1265.45 216.95 1265.74 216.464C1266.03 215.971 1266.17 215.445 1266.17 214.885V213.057C1266.07 213.155 1265.88 213.248 1265.6 213.334C1265.32 213.414 1265.01 213.485 1264.65 213.546C1264.29 213.602 1263.94 213.654 1263.61 213.703C1263.27 213.746 1262.98 213.783 1262.76 213.814C1262.22 213.882 1261.73 213.996 1261.29 214.156C1260.85 214.316 1260.5 214.546 1260.24 214.848C1259.98 215.143 1259.85 215.537 1259.85 216.03C1259.85 216.713 1260.1 217.23 1260.6 217.581C1261.11 217.926 1261.75 218.098 1262.53 218.098ZM1275.37 211.58V220H1272.61V205.818H1275.26V208.126H1275.44C1275.76 207.375 1276.27 206.772 1276.97 206.317C1277.67 205.861 1278.55 205.634 1279.62 205.634C1280.58 205.634 1281.43 205.837 1282.16 206.243C1282.88 206.643 1283.45 207.24 1283.85 208.034C1284.25 208.828 1284.45 209.81 1284.45 210.979V220H1281.69V211.312C1281.69 210.284 1281.42 209.481 1280.88 208.902C1280.35 208.317 1279.61 208.025 1278.68 208.025C1278.04 208.025 1277.47 208.163 1276.97 208.44C1276.48 208.717 1276.08 209.124 1275.8 209.659C1275.51 210.188 1275.37 210.829 1275.37 211.58ZM1293.46 220.277C1292.31 220.277 1291.29 219.985 1290.39 219.4C1289.5 218.809 1288.8 217.969 1288.29 216.879C1287.78 215.784 1287.53 214.469 1287.53 212.937C1287.53 211.404 1287.79 210.093 1288.3 209.004C1288.81 207.914 1289.52 207.08 1290.42 206.501C1291.32 205.923 1292.34 205.634 1293.48 205.634C1294.36 205.634 1295.06 205.781 1295.6 206.077C1296.14 206.366 1296.56 206.705 1296.86 207.092C1297.16 207.48 1297.39 207.822 1297.56 208.117H1297.72V201.091H1300.48V220H1297.79V217.793H1297.56C1297.39 218.095 1297.15 218.44 1296.84 218.827C1296.53 219.215 1296.1 219.554 1295.56 219.843C1295.02 220.132 1294.32 220.277 1293.46 220.277ZM1294.07 217.923C1294.86 217.923 1295.53 217.713 1296.08 217.295C1296.63 216.87 1297.05 216.282 1297.34 215.531C1297.62 214.78 1297.77 213.906 1297.77 212.909C1297.77 211.924 1297.63 211.062 1297.34 210.324C1297.06 209.585 1296.65 209.01 1296.1 208.597C1295.55 208.185 1294.87 207.979 1294.07 207.979C1293.24 207.979 1292.54 208.194 1291.99 208.625C1291.44 209.056 1291.02 209.644 1290.73 210.388C1290.46 211.133 1290.32 211.973 1290.32 212.909C1290.32 213.857 1290.46 214.71 1290.74 215.467C1291.03 216.224 1291.44 216.824 1292 217.267C1292.56 217.704 1293.25 217.923 1294.07 217.923ZM1304.42 220V205.818H1307.18V220H1304.42ZM1305.82 203.63C1305.34 203.63 1304.93 203.47 1304.58 203.15C1304.24 202.824 1304.07 202.436 1304.07 201.987C1304.07 201.531 1304.24 201.143 1304.58 200.823C1304.93 200.497 1305.34 200.334 1305.82 200.334C1306.3 200.334 1306.71 200.497 1307.05 200.823C1307.39 201.143 1307.56 201.531 1307.56 201.987C1307.56 202.436 1307.39 202.824 1307.05 203.15C1306.71 203.47 1306.3 203.63 1305.82 203.63ZM1316.21 220.277C1315.06 220.277 1314.04 219.985 1313.14 219.4C1312.25 218.809 1311.55 217.969 1311.04 216.879C1310.53 215.784 1310.28 214.469 1310.28 212.937C1310.28 211.404 1310.54 210.093 1311.05 209.004C1311.56 207.914 1312.27 207.08 1313.17 206.501C1314.07 205.923 1315.09 205.634 1316.23 205.634C1317.11 205.634 1317.81 205.781 1318.35 206.077C1318.89 206.366 1319.31 206.705 1319.61 207.092C1319.91 207.48 1320.14 207.822 1320.31 208.117H1320.47V201.091H1323.23V220H1320.54V217.793H1320.31C1320.14 218.095 1319.9 218.44 1319.59 218.827C1319.28 219.215 1318.85 219.554 1318.31 219.843C1317.77 220.132 1317.07 220.277 1316.21 220.277ZM1316.82 217.923C1317.61 217.923 1318.28 217.713 1318.83 217.295C1319.38 216.87 1319.8 216.282 1320.09 215.531C1320.37 214.78 1320.52 213.906 1320.52 212.909C1320.52 211.924 1320.38 211.062 1320.09 210.324C1319.81 209.585 1319.4 209.01 1318.85 208.597C1318.3 208.185 1317.62 207.979 1316.82 207.979C1315.99 207.979 1315.29 208.194 1314.74 208.625C1314.19 209.056 1313.77 209.644 1313.48 210.388C1313.21 211.133 1313.07 211.973 1313.07 212.909C1313.07 213.857 1313.21 214.71 1313.49 215.467C1313.78 216.224 1314.19 216.824 1314.75 217.267C1315.31 217.704 1316 217.923 1316.82 217.923ZM1331.3 220.314C1330.4 220.314 1329.59 220.148 1328.86 219.815C1328.14 219.477 1327.56 218.987 1327.14 218.347C1326.72 217.707 1326.51 216.922 1326.51 215.993C1326.51 215.193 1326.66 214.534 1326.97 214.017C1327.28 213.5 1327.69 213.091 1328.22 212.789C1328.74 212.487 1329.33 212.26 1329.97 212.106C1330.62 211.952 1331.28 211.835 1331.95 211.755C1332.8 211.656 1333.49 211.576 1334.02 211.515C1334.55 211.447 1334.93 211.339 1335.17 211.192C1335.41 211.044 1335.53 210.804 1335.53 210.472V210.407C1335.53 209.601 1335.3 208.976 1334.85 208.533C1334.4 208.089 1333.73 207.868 1332.83 207.868C1331.9 207.868 1331.17 208.074 1330.64 208.487C1330.11 208.893 1329.74 209.345 1329.54 209.844L1326.94 209.253C1327.25 208.391 1327.7 207.696 1328.29 207.166C1328.89 206.631 1329.57 206.243 1330.35 206.003C1331.13 205.757 1331.94 205.634 1332.8 205.634C1333.36 205.634 1333.96 205.701 1334.6 205.837C1335.24 205.966 1335.83 206.206 1336.39 206.557C1336.95 206.908 1337.41 207.409 1337.76 208.062C1338.12 208.708 1338.3 209.548 1338.3 210.582V220H1335.6V218.061H1335.49C1335.31 218.418 1335.05 218.769 1334.69 219.114C1334.33 219.458 1333.87 219.745 1333.31 219.972C1332.75 220.2 1332.08 220.314 1331.3 220.314ZM1331.9 218.098C1332.66 218.098 1333.32 217.947 1333.86 217.646C1334.41 217.344 1334.82 216.95 1335.11 216.464C1335.39 215.971 1335.54 215.445 1335.54 214.885V213.057C1335.44 213.155 1335.25 213.248 1334.97 213.334C1334.69 213.414 1334.37 213.485 1334.02 213.546C1333.66 213.602 1333.31 213.654 1332.97 213.703C1332.63 213.746 1332.35 213.783 1332.12 213.814C1331.59 213.882 1331.1 213.996 1330.66 214.156C1330.22 214.316 1329.87 214.546 1329.6 214.848C1329.34 215.143 1329.21 215.537 1329.21 216.03C1329.21 216.713 1329.47 217.23 1329.97 217.581C1330.48 217.926 1331.12 218.098 1331.9 218.098ZM1348.6 205.818V208.034H1340.85V205.818H1348.6ZM1342.93 202.42H1345.69V215.836C1345.69 216.371 1345.77 216.775 1345.93 217.045C1346.09 217.31 1346.29 217.492 1346.55 217.59C1346.81 217.683 1347.09 217.729 1347.39 217.729C1347.61 217.729 1347.8 217.713 1347.97 217.683C1348.14 217.652 1348.26 217.627 1348.36 217.609L1348.86 219.889C1348.7 219.951 1348.47 220.012 1348.17 220.074C1347.88 220.142 1347.51 220.179 1347.06 220.185C1346.34 220.197 1345.66 220.068 1345.03 219.797C1344.41 219.526 1343.9 219.107 1343.51 218.541C1343.12 217.975 1342.93 217.264 1342.93 216.408V202.42ZM1357.61 220.286C1356.21 220.286 1355.01 219.988 1354 219.391C1353 218.787 1352.22 217.941 1351.67 216.852C1351.13 215.756 1350.86 214.473 1350.86 213.001C1350.86 211.549 1351.13 210.268 1351.67 209.161C1352.22 208.053 1352.98 207.188 1353.96 206.566C1354.95 205.944 1356.1 205.634 1357.42 205.634C1358.22 205.634 1358.99 205.766 1359.74 206.031C1360.49 206.295 1361.17 206.711 1361.77 207.277C1362.36 207.843 1362.83 208.579 1363.18 209.484C1363.52 210.382 1363.7 211.475 1363.7 212.761V213.74H1352.42V211.672H1360.99C1360.99 210.946 1360.84 210.302 1360.55 209.742C1360.25 209.176 1359.84 208.73 1359.3 208.403C1358.77 208.077 1358.15 207.914 1357.44 207.914C1356.66 207.914 1355.98 208.105 1355.4 208.487C1354.83 208.862 1354.39 209.354 1354.07 209.964C1353.77 210.567 1353.61 211.223 1353.61 211.93V213.546C1353.61 214.494 1353.78 215.3 1354.11 215.965C1354.45 216.63 1354.92 217.138 1355.52 217.489C1356.13 217.833 1356.83 218.006 1357.64 218.006C1358.16 218.006 1358.64 217.932 1359.07 217.784C1359.5 217.63 1359.87 217.402 1360.19 217.101C1360.5 216.799 1360.74 216.427 1360.91 215.984L1363.52 216.455C1363.31 217.224 1362.93 217.898 1362.39 218.477C1361.86 219.049 1361.18 219.495 1360.37 219.815C1359.56 220.129 1358.64 220.286 1357.61 220.286ZM1377.39 209.281L1374.88 209.724C1374.78 209.404 1374.61 209.099 1374.38 208.81C1374.16 208.52 1373.86 208.283 1373.48 208.099C1373.1 207.914 1372.62 207.822 1372.05 207.822C1371.27 207.822 1370.61 207.997 1370.09 208.348C1369.57 208.693 1369.31 209.139 1369.31 209.687C1369.31 210.161 1369.48 210.542 1369.83 210.832C1370.18 211.121 1370.75 211.358 1371.53 211.543L1373.78 212.06C1375.09 212.361 1376.06 212.826 1376.7 213.454C1377.34 214.082 1377.66 214.897 1377.66 215.901C1377.66 216.75 1377.42 217.507 1376.92 218.172C1376.44 218.83 1375.76 219.348 1374.88 219.723C1374.02 220.098 1373.01 220.286 1371.86 220.286C1370.28 220.286 1368.98 219.948 1367.98 219.271C1366.97 218.587 1366.36 217.618 1366.13 216.362L1368.8 215.956C1368.96 216.652 1369.31 217.178 1369.82 217.535C1370.34 217.886 1371.01 218.061 1371.85 218.061C1372.75 218.061 1373.47 217.873 1374.02 217.498C1374.56 217.116 1374.83 216.652 1374.83 216.104C1374.83 215.661 1374.66 215.288 1374.33 214.987C1374 214.685 1373.5 214.457 1372.82 214.303L1370.42 213.777C1369.1 213.475 1368.12 212.995 1367.49 212.337C1366.86 211.678 1366.55 210.844 1366.55 209.835C1366.55 208.997 1366.78 208.265 1367.25 207.637C1367.72 207.009 1368.36 206.52 1369.19 206.169C1370.01 205.812 1370.96 205.634 1372.02 205.634C1373.55 205.634 1374.76 205.966 1375.64 206.631C1376.52 207.289 1377.1 208.173 1377.39 209.281Z" fill="#212427"/>
<circle cx="1225.5" cy="102.5" r="67.5" fill="white"/>
<g clip-path="url(#clip0_2816_1558)">
<path d="M1233.85 110.788C1241.1 106.023 1243.12 96.2789 1238.36 89.0239C1233.59 81.768 1223.85 79.7493 1216.59 84.5142C1209.34 89.279 1207.32 99.023 1212.08 106.278C1213.26 108.074 1214.8 109.609 1216.59 110.788C1209.94 113.497 1205.59 119.96 1205.58 127.144V131.073C1205.58 132.158 1206.45 133.037 1207.54 133.037H1242.9C1243.99 133.037 1244.87 132.158 1244.87 131.073V127.144C1244.86 119.96 1240.5 113.497 1233.85 110.788ZM1213.43 97.6751C1213.43 91.1651 1218.71 85.8873 1225.22 85.8873C1231.73 85.8873 1237.01 91.1645 1237.01 97.6751C1237.01 104.185 1231.73 109.462 1225.22 109.462C1218.71 109.455 1213.44 104.182 1213.43 97.6751ZM1240.94 129.109H1209.5V127.144C1209.51 119.553 1215.66 113.401 1223.26 113.392H1227.19C1234.78 113.401 1240.93 119.553 1240.94 127.144V129.109L1240.94 129.109Z" fill="#0077B5" fill-opacity="0.45"/>
<path d="M1257.42 99.0001C1264.68 94.266 1266.73 84.5444 1261.99 77.2874C1257.26 70.0303 1247.54 67.9851 1240.28 72.7198C1238.06 74.1663 1236.25 76.1506 1235 78.4878C1234.49 79.4433 1234.85 80.6353 1235.8 81.1489C1236.76 81.6626 1237.95 81.3045 1238.46 80.349C1241.54 74.6273 1248.67 72.4804 1254.39 75.5543C1260.11 78.6282 1262.26 85.7588 1259.18 91.48C1258.17 93.3565 1256.68 94.924 1254.85 96.0151C1253.02 97.1062 1250.93 97.68 1248.8 97.6753C1248.23 97.66 1247.66 97.6016 1247.1 97.5005L1247.03 97.4892C1245.97 97.344 1244.99 98.0828 1244.84 99.1446C1244.69 100.227 1245.44 101.226 1246.52 101.385C1247.27 101.516 1248.03 101.589 1248.8 101.604H1250.76C1258.35 101.614 1264.5 107.765 1264.51 115.356V117.321H1249.39C1248.3 117.321 1247.42 118.201 1247.42 119.286C1247.42 120.371 1248.3 121.25 1249.39 121.25H1266.48C1267.56 121.25 1268.44 120.371 1268.44 119.286V115.356C1268.43 108.173 1264.08 101.71 1257.42 99.0001ZM1203.41 97.489L1203.34 97.5003C1202.78 97.6018 1202.21 97.6599 1201.65 97.6751C1195.14 97.7146 1189.83 92.469 1189.79 85.959C1189.75 79.4491 1194.99 74.1397 1201.5 74.1009C1203.65 74.0877 1205.77 74.6629 1207.61 75.7642C1209.46 76.8656 1210.97 78.451 1211.98 80.349C1212.49 81.3045 1213.68 81.6626 1214.64 81.1489C1215.6 80.6344 1215.95 79.4435 1215.44 78.4878C1211.36 70.8502 1201.85 67.9696 1194.22 72.0538C1186.58 76.1375 1183.7 85.6401 1187.78 93.2777C1189.02 95.5935 1190.82 97.5611 1193.02 99.0002C1186.37 101.71 1182.01 108.173 1182 115.356V119.285C1182 120.37 1182.88 121.25 1183.96 121.25H1201.05C1202.14 121.25 1203.02 120.37 1203.02 119.285C1203.02 118.201 1202.14 117.321 1201.05 117.321H1185.93V115.356C1185.94 107.765 1192.09 101.614 1199.68 101.604H1201.65C1202.41 101.589 1203.17 101.516 1203.92 101.385C1205 101.226 1205.75 100.227 1205.61 99.1444C1205.45 98.0825 1204.47 97.344 1203.41 97.489Z" fill="#0077B5" fill-opacity="0.45"/>
</g>
<defs>
<clipPath id="clip0_2816_1558">
<rect width="86.4416" height="65" fill="white" transform="translate(1182 70)"/>
</clipPath>
</defs>
</svg>
