<svg width="360" height="476" viewBox="0 0 360 476" fill="none" xmlns="http://www.w3.org/2000/svg">
<rect width="360" height="476" rx="3" fill="#F4F4F4"/>
<path d="M128.837 129.185H126.621C126.536 128.711 126.377 128.295 126.145 127.935C125.913 127.575 125.629 127.269 125.293 127.018C124.957 126.768 124.581 126.578 124.164 126.45C123.752 126.322 123.314 126.259 122.85 126.259C122.012 126.259 121.261 126.469 120.599 126.891C119.94 127.312 119.42 127.93 119.036 128.744C118.657 129.559 118.468 130.553 118.468 131.727C118.468 132.911 118.657 133.91 119.036 134.724C119.42 135.539 119.943 136.154 120.606 136.571C121.269 136.988 122.014 137.196 122.843 137.196C123.302 137.196 123.738 137.134 124.15 137.011C124.566 136.884 124.943 136.696 125.279 136.45C125.615 136.204 125.899 135.903 126.131 135.548C126.368 135.188 126.531 134.777 126.621 134.312L128.837 134.32C128.719 135.035 128.489 135.693 128.148 136.294C127.812 136.891 127.379 137.407 126.849 137.842C126.323 138.273 125.722 138.607 125.045 138.844C124.367 139.08 123.629 139.199 122.829 139.199C121.569 139.199 120.447 138.901 119.462 138.304C118.477 137.703 117.701 136.843 117.133 135.726C116.569 134.608 116.287 133.276 116.287 131.727C116.287 130.174 116.572 128.841 117.14 127.729C117.708 126.611 118.484 125.754 119.469 125.158C120.454 124.556 121.574 124.256 122.829 124.256C123.6 124.256 124.32 124.367 124.988 124.589C125.66 124.807 126.264 125.129 126.799 125.555C127.334 125.977 127.777 126.493 128.127 127.104C128.477 127.71 128.714 128.403 128.837 129.185ZM131.293 139V128.091H133.345V129.824H133.459C133.658 129.237 134.008 128.775 134.51 128.439C135.017 128.098 135.59 127.928 136.229 127.928C136.361 127.928 136.518 127.932 136.698 127.942C136.882 127.951 137.027 127.963 137.131 127.977V130.009C137.046 129.985 136.894 129.959 136.676 129.93C136.459 129.897 136.241 129.881 136.023 129.881C135.521 129.881 135.074 129.987 134.681 130.2C134.292 130.409 133.985 130.7 133.757 131.074C133.53 131.443 133.416 131.865 133.416 132.338V139H131.293ZM143.28 139.22C142.205 139.22 141.279 138.991 140.503 138.531C139.731 138.067 139.134 137.416 138.713 136.578C138.296 135.735 138.088 134.748 138.088 133.616C138.088 132.499 138.296 131.514 138.713 130.662C139.134 129.81 139.721 129.144 140.474 128.666C141.232 128.188 142.117 127.949 143.131 127.949C143.746 127.949 144.343 128.051 144.92 128.254C145.498 128.458 146.016 128.777 146.476 129.213C146.935 129.649 147.297 130.214 147.562 130.911C147.827 131.602 147.96 132.442 147.96 133.432V134.185H139.288V132.594H145.879C145.879 132.035 145.765 131.54 145.538 131.109C145.311 130.674 144.991 130.33 144.579 130.08C144.172 129.829 143.694 129.703 143.145 129.703C142.548 129.703 142.027 129.85 141.582 130.143C141.142 130.432 140.801 130.811 140.559 131.28C140.323 131.744 140.204 132.248 140.204 132.793V134.036C140.204 134.765 140.332 135.385 140.588 135.896C140.848 136.408 141.211 136.798 141.675 137.068C142.139 137.333 142.681 137.466 143.301 137.466C143.703 137.466 144.07 137.409 144.402 137.295C144.733 137.177 145.02 137.002 145.261 136.77C145.503 136.538 145.687 136.251 145.815 135.911L147.825 136.273C147.664 136.865 147.375 137.383 146.959 137.828C146.547 138.268 146.028 138.612 145.403 138.858C144.783 139.099 144.075 139.22 143.28 139.22ZM153.491 139.241C152.8 139.241 152.175 139.114 151.616 138.858C151.057 138.598 150.615 138.221 150.288 137.729C149.966 137.236 149.805 136.633 149.805 135.918C149.805 135.302 149.923 134.795 150.16 134.398C150.397 134 150.716 133.685 151.119 133.453C151.521 133.221 151.971 133.046 152.468 132.928C152.965 132.809 153.472 132.719 153.988 132.658C154.642 132.582 155.172 132.52 155.579 132.473C155.986 132.421 156.282 132.338 156.467 132.224C156.651 132.111 156.744 131.926 156.744 131.67V131.621C156.744 131 156.569 130.52 156.218 130.179C155.873 129.838 155.356 129.668 154.67 129.668C153.955 129.668 153.392 129.826 152.98 130.143C152.572 130.456 152.291 130.804 152.134 131.188L150.139 130.733C150.375 130.07 150.721 129.535 151.176 129.128C151.635 128.716 152.163 128.418 152.759 128.233C153.356 128.044 153.983 127.949 154.642 127.949C155.077 127.949 155.539 128.001 156.026 128.105C156.519 128.205 156.978 128.389 157.404 128.659C157.835 128.929 158.188 129.315 158.463 129.817C158.737 130.314 158.874 130.96 158.874 131.756V139H156.801V137.509H156.715C156.578 137.783 156.372 138.053 156.097 138.318C155.823 138.583 155.47 138.804 155.039 138.979C154.608 139.154 154.092 139.241 153.491 139.241ZM153.953 137.537C154.54 137.537 155.042 137.421 155.458 137.189C155.88 136.957 156.199 136.654 156.417 136.28C156.64 135.901 156.751 135.496 156.751 135.065V133.659C156.675 133.735 156.528 133.806 156.311 133.872C156.097 133.934 155.854 133.988 155.579 134.036C155.304 134.078 155.037 134.118 154.776 134.156C154.516 134.189 154.298 134.218 154.123 134.241C153.711 134.294 153.335 134.381 152.994 134.504C152.658 134.627 152.388 134.805 152.184 135.037C151.985 135.264 151.886 135.567 151.886 135.946C151.886 136.472 152.08 136.869 152.468 137.139C152.856 137.404 153.351 137.537 153.953 137.537ZM166.795 128.091V129.795H160.836V128.091H166.795ZM162.434 125.477H164.558V135.797C164.558 136.209 164.62 136.519 164.743 136.727C164.866 136.931 165.024 137.071 165.219 137.146C165.417 137.217 165.633 137.253 165.865 137.253C166.035 137.253 166.184 137.241 166.312 137.217C166.44 137.194 166.54 137.175 166.611 137.161L166.994 138.915C166.871 138.962 166.696 139.009 166.469 139.057C166.241 139.109 165.957 139.137 165.616 139.142C165.058 139.152 164.537 139.052 164.054 138.844C163.571 138.635 163.18 138.313 162.882 137.878C162.584 137.442 162.434 136.895 162.434 136.237V125.477ZM173.729 139.22C172.654 139.22 171.728 138.991 170.952 138.531C170.18 138.067 169.584 137.416 169.162 136.578C168.745 135.735 168.537 134.748 168.537 133.616C168.537 132.499 168.745 131.514 169.162 130.662C169.584 129.81 170.171 129.144 170.923 128.666C171.681 128.188 172.566 127.949 173.58 127.949C174.195 127.949 174.792 128.051 175.369 128.254C175.947 128.458 176.466 128.777 176.925 129.213C177.384 129.649 177.746 130.214 178.012 130.911C178.277 131.602 178.409 132.442 178.409 133.432V134.185H169.737V132.594H176.328C176.328 132.035 176.215 131.54 175.987 131.109C175.76 130.674 175.441 130.33 175.029 130.08C174.621 129.829 174.143 129.703 173.594 129.703C172.997 129.703 172.477 129.85 172.031 130.143C171.591 130.432 171.25 130.811 171.009 131.28C170.772 131.744 170.654 132.248 170.654 132.793V134.036C170.654 134.765 170.781 135.385 171.037 135.896C171.298 136.408 171.66 136.798 172.124 137.068C172.588 137.333 173.13 137.466 173.75 137.466C174.153 137.466 174.52 137.409 174.851 137.295C175.182 137.177 175.469 137.002 175.71 136.77C175.952 136.538 176.137 136.251 176.264 135.911L178.274 136.273C178.113 136.865 177.825 137.383 177.408 137.828C176.996 138.268 176.477 138.612 175.852 138.858C175.232 139.099 174.524 139.22 173.729 139.22ZM186.229 139V124.455H191.414C192.545 124.455 193.483 124.661 194.226 125.072C194.969 125.484 195.526 126.048 195.895 126.763C196.264 127.473 196.449 128.273 196.449 129.163C196.449 130.058 196.262 130.863 195.888 131.578C195.519 132.288 194.96 132.852 194.212 133.268C193.468 133.68 192.533 133.886 191.406 133.886H187.841V132.026H191.208C191.923 132.026 192.503 131.902 192.948 131.656C193.393 131.405 193.719 131.064 193.928 130.634C194.136 130.203 194.24 129.713 194.24 129.163C194.24 128.614 194.136 128.126 193.928 127.7C193.719 127.274 193.39 126.94 192.941 126.699C192.495 126.457 191.908 126.337 191.179 126.337H188.423V139H186.229ZM198.851 139V128.091H200.904V129.824H201.018C201.216 129.237 201.567 128.775 202.069 128.439C202.575 128.098 203.148 127.928 203.787 127.928C203.92 127.928 204.076 127.932 204.256 127.942C204.441 127.951 204.585 127.963 204.689 127.977V130.009C204.604 129.985 204.453 129.959 204.235 129.93C204.017 129.897 203.799 129.881 203.581 129.881C203.08 129.881 202.632 129.987 202.239 130.2C201.851 130.409 201.543 130.7 201.316 131.074C201.089 131.443 200.975 131.865 200.975 132.338V139H198.851ZM210.732 139.22C209.709 139.22 208.816 138.986 208.054 138.517C207.292 138.048 206.7 137.393 206.279 136.55C205.857 135.707 205.646 134.722 205.646 133.595C205.646 132.464 205.857 131.474 206.279 130.626C206.7 129.779 207.292 129.121 208.054 128.652C208.816 128.183 209.709 127.949 210.732 127.949C211.754 127.949 212.647 128.183 213.409 128.652C214.172 129.121 214.763 129.779 215.185 130.626C215.606 131.474 215.817 132.464 215.817 133.595C215.817 134.722 215.606 135.707 215.185 136.55C214.763 137.393 214.172 138.048 213.409 138.517C212.647 138.986 211.754 139.22 210.732 139.22ZM210.739 137.438C211.402 137.438 211.951 137.262 212.387 136.912C212.822 136.562 213.144 136.095 213.352 135.513C213.566 134.93 213.672 134.289 213.672 133.588C213.672 132.892 213.566 132.253 213.352 131.67C213.144 131.083 212.822 130.612 212.387 130.257C211.951 129.902 211.402 129.724 210.739 129.724C210.071 129.724 209.517 129.902 209.077 130.257C208.641 130.612 208.317 131.083 208.104 131.67C207.896 132.253 207.791 132.892 207.791 133.588C207.791 134.289 207.896 134.93 208.104 135.513C208.317 136.095 208.641 136.562 209.077 136.912C209.517 137.262 210.071 137.438 210.739 137.438ZM223.379 128.091V129.795H217.214V128.091H223.379ZM218.905 139V126.827C218.905 126.145 219.054 125.579 219.352 125.129C219.65 124.675 220.046 124.336 220.538 124.114C221.031 123.886 221.566 123.773 222.143 123.773C222.569 123.773 222.934 123.808 223.237 123.879C223.54 123.946 223.765 124.007 223.912 124.064L223.415 125.783C223.315 125.754 223.187 125.721 223.031 125.683C222.875 125.641 222.685 125.619 222.463 125.619C221.947 125.619 221.577 125.747 221.355 126.003C221.137 126.259 221.028 126.628 221.028 127.111V139H218.905ZM225.57 139V128.091H227.694V139H225.57ZM226.643 126.408C226.273 126.408 225.956 126.285 225.691 126.038C225.43 125.787 225.3 125.489 225.3 125.143C225.3 124.793 225.43 124.495 225.691 124.249C225.956 123.998 226.273 123.872 226.643 123.872C227.012 123.872 227.327 123.998 227.587 124.249C227.852 124.495 227.985 124.793 227.985 125.143C227.985 125.489 227.852 125.787 227.587 126.038C227.327 126.285 227.012 126.408 226.643 126.408ZM232.674 124.455V139H230.551V124.455H232.674ZM240.233 139.22C239.158 139.22 238.232 138.991 237.456 138.531C236.684 138.067 236.087 137.416 235.666 136.578C235.249 135.735 235.041 134.748 235.041 133.616C235.041 132.499 235.249 131.514 235.666 130.662C236.087 129.81 236.675 129.144 237.427 128.666C238.185 128.188 239.07 127.949 240.084 127.949C240.699 127.949 241.296 128.051 241.873 128.254C242.451 128.458 242.97 128.777 243.429 129.213C243.888 129.649 244.25 130.214 244.515 130.911C244.781 131.602 244.913 132.442 244.913 133.432V134.185H236.241V132.594H242.832C242.832 132.035 242.719 131.54 242.491 131.109C242.264 130.674 241.944 130.33 241.532 130.08C241.125 129.829 240.647 129.703 240.098 129.703C239.501 129.703 238.98 129.85 238.535 130.143C238.095 130.432 237.754 130.811 237.513 131.28C237.276 131.744 237.157 132.248 237.157 132.793V134.036C237.157 134.765 237.285 135.385 237.541 135.896C237.801 136.408 238.164 136.798 238.628 137.068C239.092 137.333 239.634 137.466 240.254 137.466C240.657 137.466 241.023 137.409 241.355 137.295C241.686 137.177 241.973 137.002 242.214 136.77C242.456 136.538 242.64 136.251 242.768 135.911L244.778 136.273C244.617 136.865 244.328 137.383 243.912 137.828C243.5 138.268 242.981 138.612 242.356 138.858C241.736 139.099 241.028 139.22 240.233 139.22Z" fill="#212427"/>
<circle cx="181" cy="65" r="45" fill="white"/>
<path d="M177.004 86.6631C174.452 86.6631 171.903 86.6747 169.351 86.6593C167.968 86.6516 166.621 86.416 165.358 85.8213C163.234 84.8212 161.987 83.1067 161.589 80.8401C160.867 76.689 161.639 72.8545 164.362 69.553C166.238 67.2747 168.771 66.1201 171.656 65.7456C172.888 65.5834 174.147 65.568 175.394 65.5564C178.101 65.5293 180.808 65.5255 183.515 65.5448C186.337 65.5641 188.901 66.402 191.187 68.0779C191.774 68.5104 192.037 69.0896 191.894 69.8001C191.755 70.4875 191.315 70.9933 190.616 71.0667C190.187 71.113 189.643 71.0319 189.303 70.7887C187.357 69.414 185.217 68.8309 182.843 68.8656C179.753 68.912 176.664 68.8772 173.575 68.8579C168.513 68.827 164.504 72.8854 164.636 77.9478C164.655 78.639 164.694 79.3379 164.817 80.0176C165.157 81.9058 166.296 82.9716 168.204 83.2187C168.771 83.2921 169.343 83.3268 169.914 83.3268C174.965 83.3346 180.016 83.3307 185.067 83.3346C186.318 83.3346 187.125 84.3308 186.812 85.4584C186.604 86.2075 185.955 86.6631 185.071 86.6631C182.383 86.6709 179.692 86.667 177.004 86.6631C177.004 86.667 177.004 86.667 177.004 86.6631Z" fill="#0077B5" fill-opacity="0.45"/>
<path d="M188.005 52.7599C188.059 57.9149 183.873 62.1432 178.641 62.2127C173.486 62.2822 169.173 58.0617 169.123 52.9027C169.069 47.7091 173.258 43.3881 178.394 43.334C183.715 43.28 187.947 47.431 188.005 52.7599ZM184.673 52.7908C184.68 49.4081 181.947 46.6703 178.556 46.6665C175.239 46.6626 172.474 49.4004 172.451 52.7097C172.428 56.0962 175.154 58.8648 178.525 58.8764C181.939 58.888 184.665 56.185 184.673 52.7908Z" fill="#0077B5" fill-opacity="0.45"/>
<path d="M193.241 82.207C192.272 82.207 191.342 82.2263 190.411 82.1993C189.643 82.18 189.002 81.6047 188.87 80.8903C188.731 80.1257 189.075 79.3766 189.766 79.0754C190.06 78.948 190.399 78.8978 190.724 78.8862C191.55 78.8591 192.38 78.8785 193.272 78.8785C193.272 77.9478 193.261 77.0674 193.276 76.1909C193.296 75.2216 193.925 74.5227 194.798 74.4609C195.782 74.3914 196.566 75.071 196.593 76.0557C196.62 76.9709 196.597 77.8861 196.597 78.8785C197.057 78.8785 197.466 78.8746 197.875 78.8785C198.481 78.89 199.095 78.8514 199.69 78.9364C200.544 79.0561 201.119 79.8515 201.045 80.6933C200.976 81.5158 200.308 82.1723 199.462 82.1993C198.717 82.2263 197.972 82.207 197.227 82.2109C197.041 82.2109 196.856 82.2109 196.593 82.2109C196.593 83.1994 196.605 84.1301 196.589 85.0607C196.578 85.7789 196.192 86.2732 195.547 86.5435C194.91 86.8099 194.265 86.7095 193.828 86.1998C193.539 85.86 193.346 85.3619 193.288 84.9101C193.199 84.2111 193.265 83.489 193.265 82.7785C193.265 82.6086 193.253 82.4387 193.241 82.207Z" fill="#0077B5" fill-opacity="0.45"/>
<path d="M115.895 288V273.455H124.915V275.344H118.089V279.776H124.268V281.658H118.089V288H115.895ZM127.306 288V277.091H129.359V278.824H129.473C129.672 278.237 130.022 277.775 130.524 277.439C131.03 277.098 131.603 276.928 132.243 276.928C132.375 276.928 132.531 276.932 132.711 276.942C132.896 276.951 133.04 276.963 133.145 276.977V279.009C133.059 278.985 132.908 278.959 132.69 278.93C132.472 278.897 132.254 278.881 132.037 278.881C131.535 278.881 131.087 278.987 130.694 279.2C130.306 279.409 129.998 279.7 129.771 280.074C129.544 280.443 129.43 280.865 129.43 281.338V288H127.306ZM139.293 288.22C138.219 288.22 137.293 287.991 136.516 287.531C135.745 287.067 135.148 286.416 134.727 285.578C134.31 284.735 134.102 283.748 134.102 282.616C134.102 281.499 134.31 280.514 134.727 279.662C135.148 278.81 135.735 278.144 136.488 277.666C137.246 277.188 138.131 276.949 139.144 276.949C139.76 276.949 140.356 277.051 140.934 277.254C141.512 277.458 142.03 277.777 142.489 278.213C142.949 278.649 143.311 279.214 143.576 279.911C143.841 280.602 143.974 281.442 143.974 282.432V283.185H135.302V281.594H141.893C141.893 281.035 141.779 280.54 141.552 280.109C141.325 279.674 141.005 279.33 140.593 279.08C140.186 278.829 139.708 278.703 139.158 278.703C138.562 278.703 138.041 278.85 137.596 279.143C137.156 279.432 136.815 279.811 136.573 280.28C136.336 280.744 136.218 281.248 136.218 281.793V283.036C136.218 283.765 136.346 284.385 136.602 284.896C136.862 285.408 137.224 285.798 137.688 286.068C138.152 286.333 138.694 286.466 139.315 286.466C139.717 286.466 140.084 286.409 140.415 286.295C140.747 286.177 141.033 286.002 141.275 285.77C141.516 285.538 141.701 285.251 141.829 284.911L143.839 285.273C143.678 285.865 143.389 286.383 142.972 286.828C142.56 287.268 142.042 287.612 141.417 287.858C140.797 288.099 140.089 288.22 139.293 288.22ZM151.032 288.22C149.957 288.22 149.031 287.991 148.255 287.531C147.483 287.067 146.886 286.416 146.465 285.578C146.048 284.735 145.84 283.748 145.84 282.616C145.84 281.499 146.048 280.514 146.465 279.662C146.886 278.81 147.473 278.144 148.226 277.666C148.984 277.188 149.869 276.949 150.882 276.949C151.498 276.949 152.095 277.051 152.672 277.254C153.25 277.458 153.768 277.777 154.228 278.213C154.687 278.649 155.049 279.214 155.314 279.911C155.579 280.602 155.712 281.442 155.712 282.432V283.185H147.04V281.594H153.631C153.631 281.035 153.517 280.54 153.29 280.109C153.063 279.674 152.743 279.33 152.331 279.08C151.924 278.829 151.446 278.703 150.897 278.703C150.3 278.703 149.779 278.85 149.334 279.143C148.894 279.432 148.553 279.811 148.311 280.28C148.075 280.744 147.956 281.248 147.956 281.793V283.036C147.956 283.765 148.084 284.385 148.34 284.896C148.6 285.408 148.962 285.798 149.426 286.068C149.891 286.333 150.433 286.466 151.053 286.466C151.455 286.466 151.822 286.409 152.154 286.295C152.485 286.177 152.772 286.002 153.013 285.77C153.255 285.538 153.439 285.251 153.567 284.911L155.577 285.273C155.416 285.865 155.127 286.383 154.711 286.828C154.299 287.268 153.78 287.612 153.155 287.858C152.535 288.099 151.827 288.22 151.032 288.22ZM169.185 273.455H171.373V283.767C171.373 284.7 171.188 285.498 170.819 286.161C170.454 286.823 169.94 287.33 169.277 287.68C168.614 288.026 167.838 288.199 166.948 288.199C166.129 288.199 165.392 288.05 164.739 287.751C164.09 287.453 163.577 287.02 163.198 286.452C162.824 285.879 162.637 285.183 162.637 284.364H164.817C164.817 284.766 164.909 285.114 165.094 285.408C165.283 285.701 165.542 285.931 165.868 286.097C166.2 286.258 166.578 286.338 167.005 286.338C167.469 286.338 167.862 286.241 168.184 286.047C168.51 285.848 168.759 285.557 168.929 285.173C169.1 284.79 169.185 284.321 169.185 283.767V273.455ZM178.991 288.22C177.969 288.22 177.076 287.986 176.314 287.517C175.552 287.048 174.96 286.393 174.538 285.55C174.117 284.707 173.906 283.722 173.906 282.595C173.906 281.464 174.117 280.474 174.538 279.626C174.96 278.779 175.552 278.121 176.314 277.652C177.076 277.183 177.969 276.949 178.991 276.949C180.014 276.949 180.907 277.183 181.669 277.652C182.431 278.121 183.023 278.779 183.445 279.626C183.866 280.474 184.077 281.464 184.077 282.595C184.077 283.722 183.866 284.707 183.445 285.55C183.023 286.393 182.431 287.048 181.669 287.517C180.907 287.986 180.014 288.22 178.991 288.22ZM178.999 286.438C179.661 286.438 180.211 286.262 180.646 285.912C181.082 285.562 181.404 285.095 181.612 284.513C181.825 283.93 181.932 283.289 181.932 282.588C181.932 281.892 181.825 281.253 181.612 280.67C181.404 280.083 181.082 279.612 180.646 279.257C180.211 278.902 179.661 278.724 178.999 278.724C178.331 278.724 177.777 278.902 177.337 279.257C176.901 279.612 176.577 280.083 176.364 280.67C176.155 281.253 176.051 281.892 176.051 282.588C176.051 283.289 176.155 283.93 176.364 284.513C176.577 285.095 176.901 285.562 177.337 285.912C177.777 286.262 178.331 286.438 178.999 286.438ZM186.618 288V273.455H188.741V278.859H188.869C188.992 278.632 189.17 278.369 189.402 278.071C189.634 277.773 189.956 277.512 190.368 277.29C190.779 277.062 191.324 276.949 192.001 276.949C192.882 276.949 193.668 277.171 194.359 277.616C195.05 278.062 195.592 278.703 195.985 279.541C196.383 280.379 196.582 281.388 196.582 282.567C196.582 283.746 196.386 284.757 195.993 285.599C195.6 286.437 195.06 287.084 194.373 287.538C193.687 287.988 192.903 288.213 192.022 288.213C191.359 288.213 190.817 288.102 190.396 287.879C189.979 287.657 189.653 287.396 189.416 287.098C189.179 286.8 188.997 286.535 188.869 286.303H188.691V288H186.618ZM188.699 282.545C188.699 283.312 188.81 283.985 189.032 284.562C189.255 285.14 189.577 285.592 189.998 285.919C190.42 286.241 190.936 286.402 191.547 286.402C192.181 286.402 192.711 286.234 193.137 285.898C193.564 285.557 193.886 285.095 194.103 284.513C194.326 283.93 194.437 283.275 194.437 282.545C194.437 281.826 194.328 281.179 194.11 280.607C193.897 280.034 193.575 279.581 193.145 279.25C192.718 278.919 192.186 278.753 191.547 278.753C190.931 278.753 190.41 278.911 189.984 279.229C189.563 279.546 189.243 279.989 189.025 280.557C188.807 281.125 188.699 281.788 188.699 282.545ZM204.43 288V273.455H209.615C210.746 273.455 211.684 273.661 212.427 274.072C213.171 274.484 213.727 275.048 214.096 275.763C214.466 276.473 214.65 277.273 214.65 278.163C214.65 279.058 214.463 279.863 214.089 280.578C213.72 281.288 213.161 281.852 212.413 282.268C211.67 282.68 210.734 282.886 209.608 282.886H206.042V281.026H209.409C210.124 281.026 210.704 280.902 211.149 280.656C211.594 280.405 211.921 280.064 212.129 279.634C212.337 279.203 212.441 278.713 212.441 278.163C212.441 277.614 212.337 277.126 212.129 276.7C211.921 276.274 211.592 275.94 211.142 275.699C210.697 275.457 210.109 275.337 209.38 275.337H206.625V288H204.43ZM221.511 288.22C220.488 288.22 219.596 287.986 218.833 287.517C218.071 287.048 217.479 286.393 217.058 285.55C216.636 284.707 216.426 283.722 216.426 282.595C216.426 281.464 216.636 280.474 217.058 279.626C217.479 278.779 218.071 278.121 218.833 277.652C219.596 277.183 220.488 276.949 221.511 276.949C222.534 276.949 223.426 277.183 224.189 277.652C224.951 278.121 225.543 278.779 225.964 279.626C226.386 280.474 226.596 281.464 226.596 282.595C226.596 283.722 226.386 284.707 225.964 285.55C225.543 286.393 224.951 287.048 224.189 287.517C223.426 287.986 222.534 288.22 221.511 288.22ZM221.518 286.438C222.181 286.438 222.73 286.262 223.166 285.912C223.601 285.562 223.923 285.095 224.132 284.513C224.345 283.93 224.451 283.289 224.451 282.588C224.451 281.892 224.345 281.253 224.132 280.67C223.923 280.083 223.601 279.612 223.166 279.257C222.73 278.902 222.181 278.724 221.518 278.724C220.85 278.724 220.297 278.902 219.856 279.257C219.421 279.612 219.096 280.083 218.883 280.67C218.675 281.253 218.571 281.892 218.571 282.588C218.571 283.289 218.675 283.93 218.883 284.513C219.096 285.095 219.421 285.562 219.856 285.912C220.297 286.262 220.85 286.438 221.518 286.438ZM237.141 279.754L235.217 280.095C235.136 279.849 235.008 279.615 234.833 279.392C234.663 279.17 234.431 278.987 234.137 278.845C233.844 278.703 233.477 278.632 233.036 278.632C232.435 278.632 231.933 278.767 231.531 279.037C231.128 279.302 230.927 279.645 230.927 280.067C230.927 280.431 231.062 280.725 231.332 280.947C231.602 281.17 232.037 281.352 232.638 281.494L234.371 281.892C235.375 282.124 236.123 282.482 236.616 282.964C237.108 283.447 237.354 284.075 237.354 284.847C237.354 285.5 237.165 286.082 236.786 286.594C236.412 287.1 235.889 287.498 235.217 287.787C234.549 288.076 233.775 288.22 232.894 288.22C231.673 288.22 230.676 287.96 229.904 287.439C229.132 286.913 228.659 286.168 228.484 285.202L230.536 284.889C230.664 285.424 230.927 285.829 231.325 286.104C231.722 286.374 232.241 286.509 232.88 286.509C233.576 286.509 234.132 286.364 234.549 286.075C234.966 285.782 235.174 285.424 235.174 285.003C235.174 284.662 235.046 284.375 234.79 284.143C234.54 283.911 234.154 283.736 233.633 283.618L231.786 283.213C230.768 282.981 230.015 282.612 229.528 282.105C229.045 281.598 228.803 280.957 228.803 280.18C228.803 279.536 228.983 278.973 229.343 278.49C229.703 278.007 230.2 277.631 230.835 277.361C231.469 277.086 232.196 276.949 233.015 276.949C234.194 276.949 235.122 277.205 235.799 277.716C236.476 278.223 236.924 278.902 237.141 279.754ZM244.782 277.091V278.795H238.823V277.091H244.782ZM240.421 274.477H242.544V284.797C242.544 285.209 242.606 285.519 242.729 285.727C242.852 285.931 243.011 286.071 243.205 286.146C243.404 286.217 243.619 286.253 243.851 286.253C244.022 286.253 244.171 286.241 244.299 286.217C244.426 286.194 244.526 286.175 244.597 286.161L244.98 287.915C244.857 287.962 244.682 288.009 244.455 288.057C244.228 288.109 243.944 288.137 243.603 288.142C243.044 288.152 242.523 288.052 242.04 287.844C241.557 287.635 241.167 287.313 240.868 286.878C240.57 286.442 240.421 285.895 240.421 285.237V274.477Z" fill="#212427"/>
<circle cx="180" cy="214" r="45" fill="white"/>
<g opacity="0.45">
<path d="M201.279 198.729C201.043 200.121 200.165 201.096 199.205 202.051C193.881 207.348 188.566 212.655 183.279 217.99C182.551 218.726 181.722 219.006 180.756 219.114C179.828 219.22 178.905 219.366 177.98 219.496C176.545 219.697 175.284 218.508 175.453 217.069C175.6 215.813 175.81 214.566 175.987 213.315C176.06 212.805 176.291 212.379 176.651 212.019C182.312 206.358 187.969 200.694 193.637 195.039C194.851 193.828 196.317 193.353 197.981 193.879C199.699 194.422 200.766 195.626 201.192 197.386C201.213 197.477 201.249 197.566 201.278 197.656C201.279 198.013 201.279 198.37 201.279 198.729ZM177.661 217.296C178.725 217.147 179.717 216.989 180.714 216.877C181.168 216.827 181.488 216.624 181.802 216.307C186.689 211.405 191.587 206.512 196.481 201.617C197.124 200.974 197.766 200.334 198.402 199.684C198.789 199.289 199.041 198.824 199.052 198.256C199.071 197.372 198.466 196.477 197.591 196.087C196.737 195.707 195.934 195.882 195.157 196.657C189.559 202.25 183.963 207.845 178.371 213.443C178.287 213.527 178.188 213.635 178.172 213.742C177.995 214.909 177.834 216.076 177.661 217.296Z" fill="#0077B5"/>
<path d="M161.244 198.123C161.244 209.251 161.244 220.323 161.244 231.42C173.82 231.42 186.377 231.42 198.991 231.42C198.991 231.236 198.991 231.062 198.991 230.889C198.991 224.917 198.991 218.943 198.992 212.97C198.992 212.765 198.994 212.556 199.031 212.355C199.132 211.808 199.611 211.432 200.149 211.453C200.712 211.476 201.156 211.906 201.203 212.476C201.212 212.586 201.212 212.696 201.212 212.806C201.212 218.958 201.213 225.109 201.212 231.262C201.212 232.497 200.586 233.353 199.491 233.609C199.292 233.656 199.082 233.664 198.878 233.664C186.367 233.667 173.858 233.667 161.348 233.666C159.928 233.666 159.001 232.736 159.001 231.31C159 220.3 159 209.291 159.001 198.28C159.001 196.825 159.915 195.909 161.371 195.909C167.55 195.907 173.73 195.907 179.909 195.909C180.726 195.909 181.216 196.327 181.215 197.012C181.214 197.529 180.864 197.977 180.356 198.079C180.156 198.119 179.947 198.123 179.741 198.124C173.754 198.127 167.767 198.126 161.781 198.126C161.615 198.123 161.451 198.123 161.244 198.123Z" fill="#0077B5"/>
<path d="M201.279 198.729C201.043 200.121 200.165 201.096 199.205 202.051C193.881 207.348 188.566 212.655 183.279 217.99C182.551 218.726 181.722 219.006 180.756 219.114C179.828 219.22 178.905 219.366 177.98 219.496C176.545 219.697 175.284 218.508 175.453 217.069C175.6 215.813 175.81 214.566 175.987 213.315C176.06 212.805 176.291 212.379 176.651 212.019C182.312 206.358 187.969 200.694 193.637 195.039C194.851 193.828 196.317 193.353 197.981 193.879C199.699 194.422 200.766 195.626 201.192 197.386C201.213 197.477 201.249 197.566 201.278 197.656C201.279 198.013 201.279 198.37 201.279 198.729ZM177.661 217.296C178.725 217.147 179.717 216.989 180.714 216.877C181.168 216.827 181.488 216.624 181.802 216.307C186.689 211.405 191.587 206.512 196.481 201.617C197.124 200.974 197.766 200.334 198.402 199.684C198.789 199.289 199.041 198.824 199.052 198.256C199.071 197.372 198.466 196.477 197.591 196.087C196.737 195.707 195.934 195.882 195.157 196.657C189.559 202.25 183.963 207.845 178.371 213.443C178.287 213.527 178.188 213.635 178.172 213.742C177.995 214.909 177.834 216.076 177.661 217.296Z" stroke="#0077B5" stroke-width="1.1" stroke-miterlimit="10"/>
<path d="M161.244 198.123C161.244 209.251 161.244 220.323 161.244 231.42C173.82 231.42 186.377 231.42 198.991 231.42C198.991 231.236 198.991 231.062 198.991 230.889C198.991 224.917 198.991 218.943 198.992 212.97C198.992 212.765 198.994 212.556 199.031 212.355C199.132 211.808 199.611 211.432 200.149 211.453C200.712 211.476 201.156 211.906 201.203 212.476C201.212 212.586 201.212 212.696 201.212 212.806C201.212 218.958 201.213 225.109 201.212 231.262C201.212 232.497 200.586 233.353 199.491 233.609C199.292 233.656 199.082 233.664 198.878 233.664C186.367 233.667 173.858 233.667 161.348 233.666C159.928 233.666 159.001 232.736 159.001 231.31C159 220.3 159 209.291 159.001 198.28C159.001 196.825 159.915 195.909 161.371 195.909C167.55 195.907 173.73 195.907 179.909 195.909C180.726 195.909 181.216 196.327 181.215 197.012C181.214 197.529 180.864 197.977 180.356 198.079C180.156 198.119 179.947 198.123 179.741 198.124C173.754 198.127 167.767 198.126 161.781 198.126C161.615 198.123 161.451 198.123 161.244 198.123Z" stroke="#0077B5" stroke-width="1.1" stroke-miterlimit="10"/>
</g>
<path d="M73.6019 427.05C73.4646 426.619 73.2799 426.233 73.0479 425.892C72.8207 425.546 72.5484 425.253 72.2312 425.011C71.9139 424.765 71.5517 424.578 71.1445 424.45C70.7421 424.322 70.2994 424.259 69.8164 424.259C68.9973 424.259 68.2586 424.469 67.6005 424.891C66.9424 425.312 66.4215 425.93 66.038 426.744C65.6592 427.554 65.4698 428.546 65.4698 429.72C65.4698 430.899 65.6616 431.896 66.0451 432.71C66.4286 433.525 66.9542 434.143 67.6218 434.564C68.2894 434.985 69.0494 435.196 69.9016 435.196C70.6924 435.196 71.3813 435.035 71.9684 434.713C72.5603 434.391 73.0172 433.937 73.3391 433.349C73.6658 432.758 73.8292 432.062 73.8292 431.261L74.3974 431.368H70.2354V429.557H75.9528V431.212C75.9528 432.433 75.6924 433.494 75.1715 434.393C74.6554 435.288 73.9405 435.98 73.0266 436.467C72.1175 436.955 71.0759 437.199 69.9016 437.199C68.5853 437.199 67.43 436.896 66.4357 436.29C65.4461 435.684 64.6744 434.824 64.1204 433.712C63.5664 432.594 63.2894 431.268 63.2894 429.734C63.2894 428.574 63.4504 427.533 63.7724 426.609C64.0943 425.686 64.5465 424.902 65.1289 424.259C65.716 423.61 66.4049 423.115 67.1957 422.774C67.9911 422.429 68.86 422.256 69.8022 422.256C70.5882 422.256 71.3197 422.372 71.9968 422.604C72.6786 422.836 73.2847 423.165 73.815 423.591C74.35 424.017 74.7927 424.524 75.1431 425.111C75.4935 425.693 75.7302 426.339 75.8533 427.05H73.6019ZM83.2699 437.22C82.1951 437.22 81.2694 436.991 80.4929 436.531C79.7211 436.067 79.1245 435.416 78.7031 434.578C78.2865 433.735 78.0781 432.748 78.0781 431.616C78.0781 430.499 78.2865 429.514 78.7031 428.662C79.1245 427.81 79.7116 427.144 80.4645 426.666C81.2221 426.188 82.1075 425.949 83.1207 425.949C83.7363 425.949 84.3329 426.051 84.9105 426.254C85.4882 426.458 86.0066 426.777 86.4659 427.213C86.9252 427.649 87.2874 428.214 87.5526 428.911C87.8177 429.602 87.9503 430.442 87.9503 431.432V432.185H79.2784V430.594H85.8693C85.8693 430.035 85.7557 429.54 85.5284 429.109C85.3011 428.674 84.9815 428.33 84.5696 428.08C84.1624 427.829 83.6842 427.703 83.1349 427.703C82.5384 427.703 82.0175 427.85 81.5724 428.143C81.1321 428.432 80.7912 428.811 80.5497 429.28C80.313 429.744 80.1946 430.248 80.1946 430.793V432.036C80.1946 432.765 80.3224 433.385 80.5781 433.896C80.8385 434.408 81.2008 434.798 81.6648 435.068C82.1288 435.333 82.6709 435.466 83.2912 435.466C83.6937 435.466 84.0606 435.409 84.392 435.295C84.7235 435.177 85.0099 435.002 85.2514 434.77C85.4929 434.538 85.6776 434.251 85.8054 433.911L87.8153 434.273C87.6544 434.865 87.3655 435.383 86.9489 435.828C86.5369 436.268 86.0185 436.612 85.3935 436.858C84.7732 437.099 84.0653 437.22 83.2699 437.22ZM95.3988 426.091V427.795H89.44V426.091H95.3988ZM91.038 423.477H93.1616V433.797C93.1616 434.209 93.2231 434.519 93.3462 434.727C93.4693 434.931 93.628 435.071 93.8221 435.146C94.021 435.217 94.2364 435.253 94.4684 435.253C94.6388 435.253 94.788 435.241 94.9158 435.217C95.0437 435.194 95.1431 435.175 95.2141 435.161L95.5977 436.915C95.4746 436.962 95.2994 437.009 95.0721 437.057C94.8448 437.109 94.5607 437.137 94.2198 437.142C93.6611 437.152 93.1403 437.052 92.6573 436.844C92.1744 436.635 91.7837 436.313 91.4854 435.878C91.1871 435.442 91.038 434.895 91.038 434.237V423.477ZM103.211 437V422.455H108.396C109.523 422.455 110.458 422.649 111.201 423.037C111.949 423.425 112.508 423.963 112.877 424.649C113.247 425.331 113.431 426.119 113.431 427.014C113.431 427.904 113.244 428.688 112.87 429.365C112.501 430.037 111.942 430.561 111.194 430.935C110.451 431.309 109.516 431.496 108.389 431.496H104.461V429.607H108.19C108.9 429.607 109.478 429.505 109.923 429.301C110.373 429.098 110.702 428.802 110.91 428.413C111.118 428.025 111.223 427.559 111.223 427.014C111.223 426.465 111.116 425.989 110.903 425.587C110.695 425.184 110.366 424.876 109.916 424.663C109.471 424.446 108.886 424.337 108.162 424.337H105.406V437H103.211ZM110.392 430.438L113.985 437H111.485L107.963 430.438H110.392ZM120.496 437.22C119.422 437.22 118.496 436.991 117.719 436.531C116.948 436.067 116.351 435.416 115.93 434.578C115.513 433.735 115.305 432.748 115.305 431.616C115.305 430.499 115.513 429.514 115.93 428.662C116.351 427.81 116.938 427.144 117.691 426.666C118.449 426.188 119.334 425.949 120.347 425.949C120.963 425.949 121.559 426.051 122.137 426.254C122.715 426.458 123.233 426.777 123.692 427.213C124.152 427.649 124.514 428.214 124.779 428.911C125.044 429.602 125.177 430.442 125.177 431.432V432.185H116.505V430.594H123.096C123.096 430.035 122.982 429.54 122.755 429.109C122.528 428.674 122.208 428.33 121.796 428.08C121.389 427.829 120.911 427.703 120.362 427.703C119.765 427.703 119.244 427.85 118.799 428.143C118.359 428.432 118.018 428.811 117.776 429.28C117.54 429.744 117.421 430.248 117.421 430.793V432.036C117.421 432.765 117.549 433.385 117.805 433.896C118.065 434.408 118.427 434.798 118.891 435.068C119.355 435.333 119.897 435.466 120.518 435.466C120.92 435.466 121.287 435.409 121.619 435.295C121.95 435.177 122.237 435.002 122.478 434.77C122.719 434.538 122.904 434.251 123.032 433.911L125.042 434.273C124.881 434.865 124.592 435.383 124.175 435.828C123.763 436.268 123.245 436.612 122.62 436.858C122 437.099 121.292 437.22 120.496 437.22ZM129.657 422.455V437H127.533V422.455H129.657ZM137.215 437.22C136.14 437.22 135.215 436.991 134.438 436.531C133.666 436.067 133.07 435.416 132.648 434.578C132.232 433.735 132.023 432.748 132.023 431.616C132.023 430.499 132.232 429.514 132.648 428.662C133.07 427.81 133.657 427.144 134.41 426.666C135.167 426.188 136.053 425.949 137.066 425.949C137.682 425.949 138.278 426.051 138.856 426.254C139.433 426.458 139.952 426.777 140.411 427.213C140.871 427.649 141.233 428.214 141.498 428.911C141.763 429.602 141.896 430.442 141.896 431.432V432.185H133.224V430.594H139.815C139.815 430.035 139.701 429.54 139.474 429.109C139.246 428.674 138.927 428.33 138.515 428.08C138.108 427.829 137.629 427.703 137.08 427.703C136.484 427.703 135.963 427.85 135.518 428.143C135.077 428.432 134.737 428.811 134.495 429.28C134.258 429.744 134.14 430.248 134.14 430.793V432.036C134.14 432.765 134.268 433.385 134.523 433.896C134.784 434.408 135.146 434.798 135.61 435.068C136.074 435.333 136.616 435.466 137.237 435.466C137.639 435.466 138.006 435.409 138.337 435.295C138.669 435.177 138.955 435.002 139.197 434.77C139.438 434.538 139.623 434.251 139.751 433.911L141.761 434.273C141.6 434.865 141.311 435.383 140.894 435.828C140.482 436.268 139.964 436.612 139.339 436.858C138.719 437.099 138.011 437.22 137.215 437.22ZM153.272 426.091L149.316 437H147.043L143.08 426.091H145.36L148.123 434.486H148.236L150.992 426.091H153.272ZM158.13 437.241C157.438 437.241 156.813 437.114 156.255 436.858C155.696 436.598 155.253 436.221 154.926 435.729C154.605 435.236 154.444 434.633 154.444 433.918C154.444 433.302 154.562 432.795 154.799 432.398C155.035 432 155.355 431.685 155.757 431.453C156.16 431.221 156.61 431.046 157.107 430.928C157.604 430.809 158.111 430.719 158.627 430.658C159.28 430.582 159.81 430.52 160.218 430.473C160.625 430.421 160.921 430.338 161.105 430.224C161.29 430.111 161.382 429.926 161.382 429.67V429.621C161.382 429 161.207 428.52 160.857 428.179C160.511 427.838 159.995 427.668 159.309 427.668C158.594 427.668 158.03 427.826 157.618 428.143C157.211 428.456 156.929 428.804 156.773 429.188L154.777 428.733C155.014 428.07 155.36 427.535 155.814 427.128C156.274 426.716 156.801 426.418 157.398 426.233C157.995 426.044 158.622 425.949 159.28 425.949C159.716 425.949 160.177 426.001 160.665 426.105C161.158 426.205 161.617 426.389 162.043 426.659C162.474 426.929 162.827 427.315 163.101 427.817C163.376 428.314 163.513 428.96 163.513 429.756V437H161.439V435.509H161.354C161.217 435.783 161.011 436.053 160.736 436.318C160.462 436.583 160.109 436.804 159.678 436.979C159.247 437.154 158.731 437.241 158.13 437.241ZM158.591 435.537C159.178 435.537 159.68 435.421 160.097 435.189C160.518 434.957 160.838 434.654 161.056 434.28C161.278 433.901 161.39 433.496 161.39 433.065V431.659C161.314 431.735 161.167 431.806 160.949 431.872C160.736 431.934 160.492 431.988 160.218 432.036C159.943 432.078 159.676 432.118 159.415 432.156C159.155 432.189 158.937 432.218 158.762 432.241C158.35 432.294 157.973 432.381 157.632 432.504C157.296 432.627 157.026 432.805 156.823 433.037C156.624 433.264 156.525 433.567 156.525 433.946C156.525 434.472 156.719 434.869 157.107 435.139C157.495 435.404 157.99 435.537 158.591 435.537ZM168.465 430.523V437H166.342V426.091H168.38V427.866H168.515C168.766 427.289 169.159 426.825 169.694 426.474C170.234 426.124 170.913 425.949 171.732 425.949C172.476 425.949 173.127 426.105 173.685 426.418C174.244 426.725 174.677 427.185 174.985 427.795C175.293 428.406 175.447 429.161 175.447 430.061V437H173.323V430.317C173.323 429.526 173.117 428.908 172.705 428.463C172.293 428.013 171.728 427.788 171.008 427.788C170.515 427.788 170.077 427.895 169.694 428.108C169.315 428.321 169.014 428.634 168.792 429.045C168.574 429.453 168.465 429.945 168.465 430.523ZM183.387 426.091V427.795H177.428V426.091H183.387ZM179.026 423.477H181.15V433.797C181.15 434.209 181.211 434.519 181.335 434.727C181.458 434.931 181.616 435.071 181.81 435.146C182.009 435.217 182.225 435.253 182.457 435.253C182.627 435.253 182.776 435.241 182.904 435.217C183.032 435.194 183.131 435.175 183.202 435.161L183.586 436.915C183.463 436.962 183.288 437.009 183.06 437.057C182.833 437.109 182.549 437.137 182.208 437.142C181.649 437.152 181.129 437.052 180.646 436.844C180.163 436.635 179.772 436.313 179.474 435.878C179.175 435.442 179.026 434.895 179.026 434.237V423.477ZM203.281 427.185H201.065C200.979 426.711 200.821 426.295 200.589 425.935C200.357 425.575 200.073 425.269 199.737 425.018C199.4 424.768 199.024 424.578 198.607 424.45C198.195 424.322 197.757 424.259 197.293 424.259C196.455 424.259 195.705 424.469 195.042 424.891C194.384 425.312 193.863 425.93 193.479 426.744C193.101 427.559 192.911 428.553 192.911 429.727C192.911 430.911 193.101 431.91 193.479 432.724C193.863 433.539 194.386 434.154 195.049 434.571C195.712 434.988 196.458 435.196 197.286 435.196C197.746 435.196 198.181 435.134 198.593 435.011C199.01 434.884 199.386 434.696 199.722 434.45C200.058 434.204 200.343 433.903 200.575 433.548C200.811 433.188 200.975 432.777 201.065 432.312L203.281 432.32C203.162 433.035 202.933 433.693 202.592 434.294C202.255 434.891 201.822 435.407 201.292 435.842C200.766 436.273 200.165 436.607 199.488 436.844C198.811 437.08 198.072 437.199 197.272 437.199C196.013 437.199 194.89 436.901 193.906 436.304C192.921 435.703 192.144 434.843 191.576 433.726C191.013 432.608 190.731 431.276 190.731 429.727C190.731 428.174 191.015 426.841 191.583 425.729C192.151 424.611 192.928 423.754 193.913 423.158C194.897 422.556 196.017 422.256 197.272 422.256C198.044 422.256 198.763 422.367 199.431 422.589C200.103 422.807 200.707 423.129 201.242 423.555C201.777 423.977 202.22 424.493 202.57 425.104C202.921 425.71 203.157 426.403 203.281 427.185ZM208.911 437.241C208.22 437.241 207.595 437.114 207.036 436.858C206.477 436.598 206.034 436.221 205.708 435.729C205.386 435.236 205.225 434.633 205.225 433.918C205.225 433.302 205.343 432.795 205.58 432.398C205.817 432 206.136 431.685 206.539 431.453C206.941 431.221 207.391 431.046 207.888 430.928C208.385 430.809 208.892 430.719 209.408 430.658C210.061 430.582 210.592 430.52 210.999 430.473C211.406 430.421 211.702 430.338 211.887 430.224C212.071 430.111 212.164 429.926 212.164 429.67V429.621C212.164 429 211.989 428.52 211.638 428.179C211.292 427.838 210.776 427.668 210.09 427.668C209.375 427.668 208.811 427.826 208.4 428.143C207.992 428.456 207.711 428.804 207.554 429.188L205.559 428.733C205.795 428.07 206.141 427.535 206.596 427.128C207.055 426.716 207.583 426.418 208.179 426.233C208.776 426.044 209.403 425.949 210.061 425.949C210.497 425.949 210.959 426.001 211.446 426.105C211.939 426.205 212.398 426.389 212.824 426.659C213.255 426.929 213.608 427.315 213.882 427.817C214.157 428.314 214.294 428.96 214.294 429.756V437H212.221V435.509H212.135C211.998 435.783 211.792 436.053 211.517 436.318C211.243 436.583 210.89 436.804 210.459 436.979C210.028 437.154 209.512 437.241 208.911 437.241ZM209.373 435.537C209.96 435.537 210.462 435.421 210.878 435.189C211.3 434.957 211.619 434.654 211.837 434.28C212.06 433.901 212.171 433.496 212.171 433.065V431.659C212.095 431.735 211.948 431.806 211.73 431.872C211.517 431.934 211.274 431.988 210.999 432.036C210.724 432.078 210.457 432.118 210.196 432.156C209.936 432.189 209.718 432.218 209.543 432.241C209.131 432.294 208.755 432.381 208.414 432.504C208.078 432.627 207.808 432.805 207.604 433.037C207.405 433.264 207.306 433.567 207.306 433.946C207.306 434.472 207.5 434.869 207.888 435.139C208.276 435.404 208.771 435.537 209.373 435.537ZM219.246 430.523V437H217.123V426.091H219.161V427.866H219.296C219.547 427.289 219.94 426.825 220.475 426.474C221.015 426.124 221.694 425.949 222.513 425.949C223.257 425.949 223.908 426.105 224.467 426.418C225.025 426.725 225.459 427.185 225.766 427.795C226.074 428.406 226.228 429.161 226.228 430.061V437H224.104V430.317C224.104 429.526 223.898 428.908 223.487 428.463C223.075 428.013 222.509 427.788 221.789 427.788C221.297 427.788 220.859 427.895 220.475 428.108C220.096 428.321 219.796 428.634 219.573 429.045C219.355 429.453 219.246 429.945 219.246 430.523ZM233.16 437.213C232.279 437.213 231.493 436.988 230.802 436.538C230.115 436.084 229.576 435.437 229.183 434.599C228.794 433.757 228.6 432.746 228.6 431.567C228.6 430.388 228.797 429.379 229.19 428.541C229.587 427.703 230.132 427.062 230.823 426.616C231.514 426.171 232.298 425.949 233.174 425.949C233.851 425.949 234.396 426.062 234.808 426.29C235.224 426.512 235.546 426.773 235.773 427.071C236.005 427.369 236.185 427.632 236.313 427.859H236.441V422.455H238.565V437H236.491V435.303H236.313C236.185 435.535 236.001 435.8 235.759 436.098C235.522 436.396 235.196 436.657 234.779 436.879C234.362 437.102 233.823 437.213 233.16 437.213ZM233.629 435.402C234.239 435.402 234.755 435.241 235.177 434.919C235.603 434.592 235.925 434.14 236.143 433.562C236.365 432.985 236.477 432.312 236.477 431.545C236.477 430.788 236.368 430.125 236.15 429.557C235.932 428.989 235.612 428.546 235.191 428.229C234.77 427.911 234.249 427.753 233.629 427.753C232.989 427.753 232.457 427.919 232.031 428.25C231.604 428.581 231.282 429.034 231.065 429.607C230.852 430.179 230.745 430.826 230.745 431.545C230.745 432.275 230.854 432.93 231.072 433.513C231.29 434.095 231.612 434.557 232.038 434.898C232.469 435.234 232.999 435.402 233.629 435.402ZM241.596 437V426.091H243.719V437H241.596ZM242.668 424.408C242.299 424.408 241.981 424.285 241.716 424.038C241.456 423.787 241.326 423.489 241.326 423.143C241.326 422.793 241.456 422.495 241.716 422.249C241.981 421.998 242.299 421.872 242.668 421.872C243.037 421.872 243.352 421.998 243.613 422.249C243.878 422.495 244.01 422.793 244.01 423.143C244.01 423.489 243.878 423.787 243.613 424.038C243.352 424.285 243.037 424.408 242.668 424.408ZM250.66 437.213C249.779 437.213 248.993 436.988 248.302 436.538C247.615 436.084 247.076 435.437 246.683 434.599C246.294 433.757 246.1 432.746 246.1 431.567C246.1 430.388 246.297 429.379 246.69 428.541C247.087 427.703 247.632 427.062 248.323 426.616C249.014 426.171 249.798 425.949 250.674 425.949C251.351 425.949 251.896 426.062 252.308 426.29C252.724 426.512 253.046 426.773 253.273 427.071C253.505 427.369 253.685 427.632 253.813 427.859H253.941V422.455H256.065V437H253.991V435.303H253.813C253.685 435.535 253.501 435.8 253.259 436.098C253.022 436.396 252.696 436.657 252.279 436.879C251.862 437.102 251.323 437.213 250.66 437.213ZM251.129 435.402C251.739 435.402 252.255 435.241 252.677 434.919C253.103 434.592 253.425 434.14 253.643 433.562C253.865 432.985 253.977 432.312 253.977 431.545C253.977 430.788 253.868 430.125 253.65 429.557C253.432 428.989 253.112 428.546 252.691 428.229C252.27 427.911 251.749 427.753 251.129 427.753C250.489 427.753 249.957 427.919 249.531 428.25C249.104 428.581 248.782 429.034 248.565 429.607C248.352 430.179 248.245 430.826 248.245 431.545C248.245 432.275 248.354 432.93 248.572 433.513C248.79 434.095 249.112 434.557 249.538 434.898C249.969 435.234 250.499 435.402 251.129 435.402ZM262.27 437.241C261.579 437.241 260.954 437.114 260.395 436.858C259.837 436.598 259.394 436.221 259.067 435.729C258.745 435.236 258.584 434.633 258.584 433.918C258.584 433.302 258.703 432.795 258.939 432.398C259.176 432 259.496 431.685 259.898 431.453C260.301 431.221 260.75 431.046 261.248 430.928C261.745 430.809 262.251 430.719 262.767 430.658C263.421 430.582 263.951 430.52 264.358 430.473C264.766 430.421 265.061 430.338 265.246 430.224C265.431 430.111 265.523 429.926 265.523 429.67V429.621C265.523 429 265.348 428.52 264.998 428.179C264.652 427.838 264.136 427.668 263.449 427.668C262.734 427.668 262.171 427.826 261.759 428.143C261.352 428.456 261.07 428.804 260.914 429.188L258.918 428.733C259.155 428.07 259.5 427.535 259.955 427.128C260.414 426.716 260.942 426.418 261.539 426.233C262.135 426.044 262.763 425.949 263.421 425.949C263.856 425.949 264.318 426.001 264.806 426.105C265.298 426.205 265.757 426.389 266.184 426.659C266.614 426.929 266.967 427.315 267.242 427.817C267.516 428.314 267.654 428.96 267.654 429.756V437H265.58V435.509H265.495C265.357 435.783 265.151 436.053 264.877 436.318C264.602 436.583 264.249 436.804 263.819 436.979C263.388 437.154 262.872 437.241 262.27 437.241ZM262.732 435.537C263.319 435.537 263.821 435.421 264.238 435.189C264.659 434.957 264.979 434.654 265.196 434.28C265.419 433.901 265.53 433.496 265.53 433.065V431.659C265.454 431.735 265.308 431.806 265.09 431.872C264.877 431.934 264.633 431.988 264.358 432.036C264.084 432.078 263.816 432.118 263.556 432.156C263.295 432.189 263.078 432.218 262.902 432.241C262.49 432.294 262.114 432.381 261.773 432.504C261.437 432.627 261.167 432.805 260.963 433.037C260.765 433.264 260.665 433.567 260.665 433.946C260.665 434.472 260.859 434.869 261.248 435.139C261.636 435.404 262.131 435.537 262.732 435.537ZM275.575 426.091V427.795H269.616V426.091H275.575ZM271.214 423.477H273.337V433.797C273.337 434.209 273.399 434.519 273.522 434.727C273.645 434.931 273.804 435.071 273.998 435.146C274.197 435.217 274.412 435.253 274.644 435.253C274.815 435.253 274.964 435.241 275.092 435.217C275.219 435.194 275.319 435.175 275.39 435.161L275.773 436.915C275.65 436.962 275.475 437.009 275.248 437.057C275.021 437.109 274.737 437.137 274.396 437.142C273.837 437.152 273.316 437.052 272.833 436.844C272.35 436.635 271.96 436.313 271.661 435.878C271.363 435.442 271.214 434.895 271.214 434.237V423.477ZM282.508 437.22C281.433 437.22 280.508 436.991 279.731 436.531C278.959 436.067 278.363 435.416 277.941 434.578C277.525 433.735 277.316 432.748 277.316 431.616C277.316 430.499 277.525 429.514 277.941 428.662C278.363 427.81 278.95 427.144 279.703 426.666C280.46 426.188 281.346 425.949 282.359 425.949C282.975 425.949 283.571 426.051 284.149 426.254C284.726 426.458 285.245 426.777 285.704 427.213C286.163 427.649 286.526 428.214 286.791 428.911C287.056 429.602 287.189 430.442 287.189 431.432V432.185H278.517V430.594H285.108C285.108 430.035 284.994 429.54 284.767 429.109C284.539 428.674 284.22 428.33 283.808 428.08C283.401 427.829 282.922 427.703 282.373 427.703C281.777 427.703 281.256 427.85 280.811 428.143C280.37 428.432 280.029 428.811 279.788 429.28C279.551 429.744 279.433 430.248 279.433 430.793V432.036C279.433 432.765 279.561 433.385 279.816 433.896C280.077 434.408 280.439 434.798 280.903 435.068C281.367 435.333 281.909 435.466 282.529 435.466C282.932 435.466 283.299 435.409 283.63 435.295C283.962 435.177 284.248 435.002 284.49 434.77C284.731 434.538 284.916 434.251 285.044 433.911L287.054 434.273C286.893 434.865 286.604 435.383 286.187 435.828C285.775 436.268 285.257 436.612 284.632 436.858C284.011 437.099 283.304 437.22 282.508 437.22ZM297.719 428.754L295.795 429.095C295.714 428.849 295.586 428.615 295.411 428.392C295.241 428.17 295.009 427.987 294.715 427.845C294.422 427.703 294.055 427.632 293.614 427.632C293.013 427.632 292.511 427.767 292.109 428.037C291.706 428.302 291.505 428.645 291.505 429.067C291.505 429.431 291.64 429.725 291.91 429.947C292.18 430.17 292.615 430.352 293.217 430.494L294.95 430.892C295.953 431.124 296.701 431.482 297.194 431.964C297.686 432.447 297.933 433.075 297.933 433.847C297.933 434.5 297.743 435.082 297.364 435.594C296.99 436.1 296.467 436.498 295.795 436.787C295.127 437.076 294.353 437.22 293.472 437.22C292.251 437.22 291.254 436.96 290.482 436.439C289.71 435.913 289.237 435.168 289.062 434.202L291.114 433.889C291.242 434.424 291.505 434.829 291.903 435.104C292.3 435.374 292.819 435.509 293.458 435.509C294.154 435.509 294.71 435.364 295.127 435.075C295.544 434.782 295.752 434.424 295.752 434.003C295.752 433.662 295.624 433.375 295.369 433.143C295.118 432.911 294.732 432.736 294.211 432.618L292.364 432.213C291.346 431.981 290.594 431.612 290.106 431.105C289.623 430.598 289.381 429.957 289.381 429.18C289.381 428.536 289.561 427.973 289.921 427.49C290.281 427.007 290.778 426.631 291.413 426.361C292.047 426.086 292.774 425.949 293.593 425.949C294.772 425.949 295.7 426.205 296.377 426.716C297.054 427.223 297.502 427.902 297.719 428.754Z" fill="#212427"/>
<circle cx="180" cy="363" r="45" fill="white"/>
<g clip-path="url(#clip0_2946_1426)">
<path d="M185.566 368.525C190.402 365.349 191.748 358.852 188.572 354.016C185.395 349.179 178.899 347.833 174.062 351.009C169.226 354.186 167.879 360.682 171.056 365.519C171.842 366.716 172.865 367.739 174.062 368.525C169.627 370.331 166.724 374.64 166.717 379.429V382.049C166.717 382.772 167.303 383.358 168.026 383.358H191.601C192.325 383.358 192.911 382.772 192.911 382.049V379.429C192.904 374.64 190.001 370.331 185.566 368.525ZM171.955 359.783C171.955 355.443 175.474 351.925 179.814 351.925C184.154 351.925 187.672 355.443 187.672 359.783C187.672 364.123 184.154 367.641 179.814 367.641C175.476 367.637 171.96 364.121 171.955 359.783ZM190.292 380.739H169.336V379.429C169.342 374.368 173.443 370.267 178.504 370.261H181.124C186.185 370.267 190.286 374.368 190.292 379.429V380.739L190.292 380.739Z" fill="#0077B5" fill-opacity="0.45"/>
<path d="M201.282 360.667C206.12 357.511 207.484 351.03 204.327 346.191C201.171 341.353 194.69 339.99 189.852 343.146C188.374 344.111 187.164 345.434 186.335 346.992C185.992 347.629 186.23 348.423 186.867 348.766C187.505 349.108 188.299 348.87 188.641 348.233C190.691 344.418 195.444 342.987 199.259 345.036C203.073 347.085 204.505 351.839 202.455 355.653C201.783 356.904 200.784 357.949 199.564 358.677C198.345 359.404 196.951 359.787 195.531 359.783C195.152 359.773 194.775 359.734 194.402 359.667L194.356 359.659C193.647 359.563 192.994 360.055 192.891 360.763C192.793 361.484 193.294 362.151 194.014 362.257C194.515 362.344 195.022 362.393 195.531 362.403H196.84C201.901 362.409 206.002 366.51 206.008 371.571V372.881H195.925C195.201 372.881 194.615 373.467 194.615 374.19C194.615 374.914 195.201 375.5 195.925 375.5H207.318C208.041 375.5 208.628 374.914 208.628 374.19V371.571C208.62 366.782 205.718 362.473 201.282 360.667ZM165.272 359.659L165.225 359.667C164.853 359.734 164.476 359.773 164.097 359.783C159.757 359.81 156.218 356.313 156.192 351.973C156.165 347.633 159.662 344.093 164.002 344.067C165.436 344.058 166.844 344.442 168.075 345.176C169.306 345.91 170.313 346.967 170.986 348.233C171.329 348.87 172.123 349.108 172.76 348.766C173.397 348.423 173.636 347.629 173.294 346.992C170.571 341.9 164.236 339.98 159.144 342.702C154.053 345.425 152.133 351.76 154.855 356.852C155.681 358.396 156.881 359.707 158.346 360.667C153.91 362.473 151.007 366.782 151 371.571V374.19C151 374.914 151.586 375.5 152.31 375.5H163.703C164.426 375.5 165.013 374.914 165.013 374.19C165.013 373.467 164.427 372.88 163.703 372.88H153.619V371.571C153.626 366.51 157.727 362.409 162.787 362.403H164.097C164.606 362.393 165.113 362.344 165.614 362.257C166.334 362.15 166.835 361.484 166.737 360.763C166.634 360.055 165.98 359.563 165.272 359.659Z" fill="#0077B5" fill-opacity="0.45"/>
</g>
<defs>
<clipPath id="clip0_2946_1426">
<rect width="57.6277" height="43.3333" fill="white" transform="translate(151 341.333)"/>
</clipPath>
</defs>
</svg>
