<svg width="30" height="30" viewBox="0 0 30 30" fill="none" xmlns="http://www.w3.org/2000/svg">
<circle cx="15" cy="15" r="15" fill="#E60000"/>
<path d="M23.7937 10.6104C23.4225 9.47349 22.194 8.78497 21.0634 8.62712C16.9969 8.19721 12.8961 8.19721 8.82962 8.62712C7.69904 8.78497 6.46722 9.46678 6.09937 10.6104C5.52059 13.5453 5.52059 16.5641 6.09937 19.499C6.4706 20.6342 7.69904 21.3244 8.82962 21.4823C12.8961 21.9122 16.9969 21.9122 21.0634 21.4823C22.194 21.3244 23.4258 20.6426 23.7937 19.499C24.3725 16.5641 24.3725 13.5453 23.7937 10.6104ZM12.7259 18.5938V11.5139L18.5171 15.0538C16.5648 16.2478 14.6698 17.4049 12.7259 18.5938Z" fill="white"/>
</svg>
