<svg width="70" height="70" viewBox="0 0 70 70" fill="none" xmlns="http://www.w3.org/2000/svg">
<path d="M35 70C54.33 70 70 54.33 70 35C70 15.67 54.33 0 35 0C15.67 0 0 15.67 0 35C0 54.33 15.67 70 35 70Z" fill="#FFCA4F"/>
<path fill-rule="evenodd" clip-rule="evenodd" d="M30.5454 35.3134H39.4539L40.1758 42.8214L41.4574 43.8499L44.1605 45.571L35 67.21L25.8391 45.571L28.5424 43.8499L29.8245 42.8219L30.5454 35.3134Z" fill="#F0BA7D"/>
<path fill-rule="evenodd" clip-rule="evenodd" d="M27.6064 44.4051L20.2227 46.7619L35.0001 67.2098L47.5726 46.0755L42.3558 44.4221L37.7618 47.6652H32.2544L27.6064 44.4051Z" fill="#ECF0F1"/>
<path fill-rule="evenodd" clip-rule="evenodd" d="M33.3517 47.3677L33.983 48.9246L32.5801 66.6696L35.0005 68.5221L37.4208 66.6696L36.0181 48.9246L36.6493 47.3677L35.0005 47.3019L33.3517 47.3677Z" fill="#FF5B62"/>
<path fill-rule="evenodd" clip-rule="evenodd" d="M27.7332 44.365L14.6731 48.5335C14.6731 48.5335 12.9826 49.4123 12.4722 52.0861C11.9832 54.6461 11.7302 57.2628 11.3442 60.7935C17.5739 66.5099 25.8788 70 35.0002 70C44.1214 70 52.4267 66.5099 58.6562 60.7931C58.2699 57.2625 58.0171 54.6461 57.528 52.0861C57.0176 49.4123 55.3272 48.5335 55.3272 48.5335L42.3559 44.422L35.0001 65.994L27.7332 44.365Z" fill="#15BDB2"/>
<path fill-rule="evenodd" clip-rule="evenodd" d="M27.733 44.365L24.9158 45.2643L24.3745 52.4123C24.3745 52.4123 24.5237 52.9995 24.9711 52.9467L27.5134 53.9025C27.5134 53.9025 27.6799 54.0693 27.531 54.2796L25.3552 55.7704L32.8729 69.9389C33.577 69.9794 34.2859 70 35 70C35.7139 70 36.4229 69.9794 37.127 69.9389L44.6447 55.7704L42.4689 54.2796C42.32 54.0693 42.4865 53.9025 42.4865 53.9025L45.0287 52.9467C45.4761 52.9995 45.6254 52.4123 45.6254 52.4123L45.0856 45.2875L42.3558 44.422L35 65.994L27.7331 44.365H27.733Z" fill="#21D0C3"/>
<path fill-rule="evenodd" clip-rule="evenodd" d="M24.6249 20.0449C24.6249 20.7426 24.3705 21.4256 24.3895 22.0952C22.0023 21.652 23.155 28.743 24.5057 29.7178C24.6127 29.7952 24.8771 29.6224 25.0995 29.4804C25.5682 32.0883 29.5665 39.0574 32.1089 41.9905C32.8151 42.805 37.1326 42.7913 37.8317 42.0216C40.4355 39.1549 44.4292 32.1034 44.9 29.4804C45.1231 29.6224 45.3869 29.7951 45.4941 29.7178C46.8449 28.743 47.9977 21.652 45.6104 22.0952C45.6294 21.4256 45.375 20.7426 45.375 20.0449C45.2428 14.5386 40.2535 11.7898 34.9999 11.7663C29.7464 11.7898 24.7571 14.5387 24.6249 20.0449H24.6249Z" fill="#FED298"/>
<path fill-rule="evenodd" clip-rule="evenodd" d="M42.5737 12.9865C43.3264 12.8988 46.046 13.7319 46.3723 16.609C46.6988 19.4865 46.5428 22.1374 46.5428 22.1374C46.5428 22.1374 44.9498 22.5396 44.7491 24.1726C44.5488 25.806 44.6916 25.806 44.6916 25.806L44.1145 25.6764L43.7035 22.8766C41.3198 21.3828 43.7215 19.1704 41.3372 18.6526C34.8988 23.2414 29.2176 22.4561 26.6559 20.2974C26.6559 20.2974 27.2541 22.5552 26.7929 23.3604C26.3319 24.1654 26.607 25.4342 26.607 25.4342L26.0082 25.4053C26.0082 25.4053 26.1166 22.0801 24.7872 22.0949C19.7359 13.755 35.7271 3.39542 42.5736 12.9865L42.5737 12.9865Z" fill="#666666"/>
<path fill-rule="evenodd" clip-rule="evenodd" d="M29.7626 41.7495C29.9495 41.7626 27.5823 44.4328 27.5823 44.4328L29.5976 51.3333L35.0002 47.3019C32.0283 45.8436 30.2549 43.9548 29.7626 41.7495Z" fill="white"/>
<path fill-rule="evenodd" clip-rule="evenodd" d="M40.2382 41.7496C40.0512 41.7626 42.4181 44.4329 42.4181 44.4329L40.4028 51.3333L35 47.302C37.9719 45.8436 39.7458 43.9548 40.2381 41.7496H40.2382Z" fill="white"/>
</svg>
