<svg width="70" height="70" viewBox="0 0 70 70" fill="none" xmlns="http://www.w3.org/2000/svg">
<path d="M35 70C54.33 70 70 54.33 70 35C70 15.6701 54.33 3.05176e-05 35 3.05176e-05C15.67 3.05176e-05 0 15.6701 0 35C0 54.33 15.67 70 35 70Z" fill="#EE4B68"/>
<path d="M70 35C70 48.0703 62.8359 59.4453 52.2812 65.461C50.8047 66.2813 49.2734 67.0469 47.6328 67.6485C47.25 67.8125 46.8672 67.9219 46.4844 68.086C42.875 69.3438 39.0469 70 35 70C34.3438 70 33.6875 70 33.0312 69.9453C32.8125 69.9453 32.5938 69.8907 32.375 69.8907C31.9375 69.8907 31.5547 69.836 31.1719 69.7813H31.1172C30.5156 69.7266 29.9141 69.6172 29.3672 69.5625C27.5078 69.2344 25.6484 68.7969 23.8984 68.1953C23.4062 68.0313 22.9141 67.8672 22.4219 67.6485C22.3672 67.6485 22.3125 67.5938 22.2578 67.5938C21.875 67.4297 21.5469 67.3203 21.1641 67.1563C20.3984 66.8282 19.6328 66.4453 18.8672 66.0625C11.9766 62.4532 6.39844 56.6563 3.17188 49.5469C1.09375 45.1172 0 40.1953 0 35C0 15.6953 15.6953 3.05176e-05 35 3.05176e-05C54.3047 3.05176e-05 70 15.6953 70 35Z" fill="#EE4B68"/>
<path d="M55.6716 49.8203C40.9607 61.5781 28.9841 61.5781 14.3279 49.8203C19.7419 40.25 20.1794 29.6953 21.4373 18.2657C22.0388 10.8282 27.3982 6.17971 34.8357 6.17971H35.1091C42.6013 6.2344 47.906 10.8282 48.5076 18.2657C49.8201 29.6953 50.2576 40.25 55.6716 49.8203Z" fill="#343843"/>
<path d="M24.531 30.0879C25.7678 29.806 26.3406 27.6916 25.8103 25.3652C25.2801 23.0388 23.8476 21.3815 22.6108 21.6634C21.374 21.9453 20.8012 24.0597 21.3314 26.3861C21.8617 28.7125 23.2942 30.3698 24.531 30.0879Z" fill="#F8CFA3"/>
<path d="M24.2813 29.1485C23.7344 29.1485 22.6954 28.0547 22.2579 26.1407C21.8204 24.1719 22.3126 22.6407 22.8594 22.5313H22.9141C23.461 22.5313 24.5001 23.625 24.9376 25.5391C25.1563 26.5235 25.1563 27.5078 24.9923 28.2188C24.8282 28.711 24.6094 29.0938 24.3907 29.1485H24.2813Z" fill="#F1B97C"/>
<path d="M48.6711 26.3382C49.2009 24.0117 48.6278 21.8974 47.3909 21.6157C46.1541 21.334 44.7219 22.9916 44.192 25.3181C43.6622 27.6446 44.2353 29.7589 45.4722 30.0406C46.7091 30.3223 48.1412 28.6646 48.6711 26.3382Z" fill="#F8CFA3"/>
<path d="M45.7186 29.1485H45.6639C45.4452 29.0938 45.1717 28.711 45.0624 28.2188C44.8436 27.4532 44.8983 26.5235 45.117 25.5391C45.5545 23.5703 46.703 22.4219 47.2499 22.5313C47.7967 22.6407 48.2889 24.1719 47.8514 26.1407C47.3045 28.1094 46.2655 29.1485 45.7186 29.1485Z" fill="#F1B97C"/>
<path d="M27.5623 42.6016L28.3279 39.1563L29.5857 38.5L40.4685 38.3907L42.8748 41.6172L42.2732 42.6016H27.5623Z" fill="#E7E7E8"/>
<path d="M59.3357 54.9063V60.1016C53.0466 66.2266 44.4607 70 34.9998 70C25.5388 70 16.9529 66.2266 10.6638 60.1563V54.961C11.3201 47.7422 15.7498 46.7579 17.7732 46.7032C18.9216 46.6485 20.0154 46.5391 21.1091 46.2657C29.6951 44.1329 29.7498 38.9375 29.7498 38.9375V34.0157H40.2498V38.9375C40.2498 38.9375 40.3044 44.1329 48.8904 46.2657C49.9841 46.5391 51.0779 46.6485 52.2263 46.7032C54.2498 46.7579 58.6794 47.7422 59.3357 54.9063Z" fill="#F1B97C"/>
<path d="M59.3357 54.9063V60.1016C53.0466 66.2266 44.4607 70 34.9998 70C25.5388 70 16.9529 66.2266 10.6638 60.1563V54.961C11.3201 47.7422 15.7498 46.7578 17.7732 46.7032C18.9216 46.6485 20.0154 46.5391 21.1091 46.2657C24.7732 45.336 26.906 43.8594 28.1091 42.4922L30.2966 47.086L34.9998 58.5157L40.4685 45.9922L42.3279 42.9297C43.5857 44.1875 45.6638 45.4453 48.9451 46.2657C50.0388 46.5391 51.1326 46.6485 52.281 46.7032C54.2498 46.7578 58.6794 47.7422 59.3357 54.9063Z" fill="#E9BB06"/>
<path d="M46.5935 24.4453C46.5935 31.4453 41.3982 39.8672 34.9998 39.8672C28.6013 39.8672 23.406 31.4453 23.406 24.4453C23.406 17.4453 28.6013 11.8125 34.9998 11.8125C41.3982 11.8125 46.5935 17.4453 46.5935 24.4453Z" fill="#F8CFA3"/>
<path d="M41.5623 43.9141C40.3044 51.7344 35.6013 59.7188 35.0544 60.6485C35.0544 60.7032 34.9998 60.7032 34.9451 60.6485C34.3982 59.7188 29.6951 51.7344 28.4373 43.9141L29.1482 43.6954L30.1873 44.5157L31.1169 45.8829C31.1169 45.8829 33.1404 51.8438 34.9451 56.2188C36.8044 51.8438 38.7732 45.8829 38.7732 45.8829L39.7029 44.5157L40.7419 43.6954L41.5623 43.9141Z" fill="#E7E7E8"/>
<path d="M46.5935 46.0469L47.1404 50.2579C47.1404 50.2579 45.281 47.4688 43.3123 45.5C42.0544 44.1875 39.9216 44.2969 38.8279 45.7735C38.8279 45.7735 38.8279 45.8282 38.7732 45.8282C38.7732 45.8282 39.0466 44.8438 40.5232 43.0391C40.906 42.6016 41.1248 42.1094 41.1794 41.6172C41.3435 40.5782 41.0154 39.4844 40.1404 38.8282V38.1172C40.9607 38.336 41.9998 38.7735 43.0935 39.7032C45.0623 41.3438 46.2654 43.6407 46.5935 46.0469ZM31.1716 45.8282C31.1716 45.8282 31.1716 45.7735 31.1169 45.7735C30.0232 44.2969 27.8904 44.1875 26.6326 45.5C24.7185 47.5235 22.8044 50.2579 22.8044 50.2579L23.3513 46.0469C23.6794 43.586 24.8826 41.3438 26.7419 39.7032C27.8357 38.7735 28.8201 38.336 29.6951 38.1172V38.8282C28.8748 39.4844 28.4919 40.5782 28.656 41.6172C28.7654 42.1094 28.9841 42.6016 29.3123 43.0391C30.8982 44.8438 31.1716 45.8282 31.1716 45.8282Z" fill="#FCFCFC"/>
<path d="M49.0544 26.6328L49.3826 26.3047C49.1638 24.3907 48.9998 22.4766 48.781 20.5625C48.2341 19.8516 47.6873 19.1953 47.3044 18.5938L45.5544 15.5313L40.2498 9.02347L35.4919 6.12503H34.8357C27.3982 6.17972 22.0388 10.7735 21.4373 18.211C21.2185 20.3438 20.9998 22.4766 20.781 24.5547C24.4998 22.6953 28.4919 19.25 30.6794 12.7422C35.4919 27.0703 49.0544 26.6328 49.0544 26.6328Z" fill="#343843"/>
<path d="M43.0388 22.6407C43.5857 22.9141 44.9529 23.625 47.7419 24.1719C47.031 23.8985 45.1716 23.3516 42.9841 22.1485C45.0076 23.0782 46.1013 23.2969 47.3591 23.5703C46.7029 23.3516 44.9529 22.8047 42.9294 21.6563C44.8982 22.586 45.9919 22.75 46.9763 22.9141C46.3748 22.6953 44.7341 22.2032 42.8748 21.1641C44.7341 22.0391 45.8279 22.2032 46.5935 22.3125C45.8826 22.0391 44.3513 21.6016 42.2185 20.2891C44.0779 21.3282 45.4998 21.6016 46.6482 21.8203C45.9373 21.5469 44.4607 21.1094 42.4373 19.8516C44.406 20.9453 45.9919 21.1641 46.6482 21.3282C45.7732 21 44.5154 20.6172 42.656 19.4688C44.406 20.3985 45.8279 20.6719 46.6482 20.836C45.3904 20.3438 44.6248 20.125 42.8201 19.0313C44.5154 19.961 45.6091 20.125 46.6482 20.3438C42.5466 18.7032 39.3201 16.3516 37.406 12.1953C37.3513 12.0313 37.2419 11.9219 37.2419 11.8125C37.5701 13.2891 38.4998 14.9297 38.9373 15.4766C38.281 14.711 37.0779 12.7422 36.7498 11.7032C36.8591 12.5782 37.5154 14.2735 38.5544 15.75C37.4607 14.3828 36.531 12.5782 36.2029 11.7032C36.3669 12.5782 36.9685 14.2188 38.1169 15.9688C36.9138 14.3828 35.9841 12.6328 35.656 11.7578C35.7654 12.5235 36.3669 14.3282 37.6794 16.2422C36.3669 14.4922 35.4919 12.8516 35.1091 11.8125C35.2185 12.5782 35.7654 14.0547 36.4763 15.2578C35.4919 13.836 34.781 12.3047 34.5076 11.4844C34.6716 12.3047 35.2185 13.8907 35.9841 15.2032C34.9451 13.6719 34.1794 12.0313 33.8513 11.1563C34.0154 12.0313 34.6716 13.7813 35.4919 15.2032C34.6716 13.9453 33.6873 12.1407 33.2498 10.8282C33.4138 11.7032 34.0701 13.6172 35.0544 15.2032C34.1794 13.8907 33.1404 11.9766 32.6482 10.5547C33.1951 13.5625 37.1873 22.586 48.1248 24.7735C47.0857 24.4453 45.3357 23.9532 43.0388 22.6407ZM28.0544 15.4766C28.5466 14.2735 28.7654 13.3438 28.8748 12.086C28.4919 13.5078 28.3279 14.1094 27.7263 15.3672C28.2185 14.2188 28.3826 13.3438 28.4919 12.1407C28.1091 13.5625 27.9998 14 27.3982 15.2578C27.8357 14.1641 27.9998 13.3985 28.1091 12.1407C27.1248 15.5313 25.6482 18.5391 22.0388 20.2344C22.7498 20.0703 24.0623 19.3594 24.8826 18.5938C24.2263 19.25 22.8044 20.2891 22.0935 20.6172C22.7498 20.4532 23.9529 19.8516 25.1013 18.8672C24.0623 19.9063 22.7498 20.7266 22.1482 21C22.8591 20.836 24.0623 20.2344 25.3201 19.1407C24.2263 20.1797 22.9685 21.0547 22.2029 21.3828C22.9685 21.1641 24.2263 20.5625 25.5388 19.4141C24.9919 19.9063 28.7107 17.3907 29.2029 12.0313C28.8748 13.6719 28.656 14.2735 28.0544 15.4766Z" fill="#454652"/>
</svg>
