<svg width="70" height="70" viewBox="0 0 70 70" fill="none" xmlns="http://www.w3.org/2000/svg">
<path d="M35 70C54.33 70 70 54.33 70 35C70 15.67 54.33 0 35 0C15.67 0 0 15.67 0 35C0 54.33 15.67 70 35 70Z" fill="#90DFAA"/>
<path d="M35.1653 50.0472C35.1102 50.0472 35.0551 50.1024 34.9448 50.1024C34.8897 50.1024 34.8346 50.0472 34.7244 50.0472H35.1653Z" fill="#E6E9EE"/>
<path d="M63.1653 55.6693C56.8267 64.3228 46.5196 70 34.9448 70C23.37 70 13.1181 64.378 6.72437 55.6693C11.685 50.378 18.4094 47.5669 24.0315 46.1339C23.5354 50.1575 25.6299 55.5591 25.685 55.3937C27.7795 50.5433 34.8897 50.1024 34.8897 50.1024C34.8897 50.1024 42 50.4882 44.1496 55.3937C44.2047 55.5039 46.2992 50.1575 45.8031 46.1339C51.4803 47.5669 58.2047 50.378 63.1653 55.6693Z" fill="#E6E9EE"/>
<path d="M43.6537 42.4409C43.6537 43.1575 43.2127 46.9606 35.1655 50.0472H34.7245C26.6773 46.9606 26.2363 43.1575 26.2363 42.4409C26.2914 41.0079 26.6222 39.5748 27.2285 38.252C29.4332 40.7323 32.0788 42.3858 34.945 42.3858C37.756 42.3858 40.4568 40.7874 42.6615 38.252C43.2678 39.5748 43.6537 41.0079 43.6537 42.4409Z" fill="#FFD05B"/>
<path d="M39.74 51.3149L37.9762 54.8425H31.9132L30.1494 51.3149C32.5746 50.2677 34.9447 50.1023 34.9447 50.1023C34.9447 50.1023 37.3699 50.2677 39.74 51.3149Z" fill="#F1543F"/>
<path d="M30.0396 69.6693C31.638 69.8898 33.2915 70 35.0002 70C36.6537 70 38.3073 69.8898 39.9608 69.6693L38.0317 54.8977H31.9687L30.0396 69.6693Z" fill="#FF7058"/>
<path d="M43.6532 42.3307C43.6532 42.3307 44.0391 46.7402 34.9446 50.1024C34.9446 50.1024 42.0548 50.4882 44.2044 55.3937C44.2595 55.6142 48.3934 44.9213 43.6532 42.3307Z" fill="white"/>
<path d="M26.2364 42.3307C21.5513 44.9213 25.6301 55.5591 25.7403 55.3937C27.8348 50.5433 35.0002 50.1024 35.0002 50.1024C25.8506 46.7402 26.2364 42.3307 26.2364 42.3307Z" fill="white"/>
<path d="M43.1021 39.3543C40.7871 41.8346 38.0312 43.4331 34.9446 43.4331C31.858 43.4331 29.1021 41.8346 26.7871 39.3543C26.8973 38.9685 27.0627 38.5827 27.2281 38.252C29.4328 40.7323 32.0784 42.3858 34.9446 42.3858C37.8107 42.3858 40.4564 40.7874 42.6611 38.252C42.8265 38.5827 42.9918 38.9685 43.1021 39.3543Z" fill="#F9B54C"/>
<path d="M49.992 30.9213C48.8345 32.8504 47.0707 34.0079 45.7479 33.7874C43.1022 38.6929 39.2439 42.3307 34.9447 42.3307C30.6455 42.3307 26.7872 38.6378 24.1416 33.7874C22.8187 33.9528 21.055 32.8504 19.8975 30.9213C18.5195 28.6614 18.4644 26.1811 19.7872 25.3543C20.1179 25.189 20.4487 25.0787 20.8345 25.1339C21.7164 27.3937 22.929 28.7717 22.929 28.7717C21.6613 21.7717 26.8424 21 25.9605 14.2756C25.9605 14.2756 29.2124 21.4961 38.5274 16.4252L37.8109 17.8031C50.8187 14.8819 46.4644 30.2047 46.3542 30.5906C47.8424 28.7165 48.7794 26.8425 49.3305 25.1339C49.551 25.1339 49.8266 25.2441 49.992 25.3543C51.425 26.126 51.3699 28.6614 49.992 30.9213Z" fill="#FFD05B"/>
<path d="M42.441 7.00001C43.4882 6.88978 45.1969 7.82678 45.1969 7.82678C40.5119 2.48033 32.8504 5.89765 32.8504 5.89765C35.441 3.69293 37.7559 3.9134 37.7559 3.9134C26.7874 2.25985 24.9134 8.81891 24.9134 8.81891C24.4174 8.04726 24.4174 6.94489 24.4725 6.39371C23.7008 7.71655 24.5276 10.3622 24.5276 10.3622C23.7559 8.43308 21.0552 8.76379 21.0552 8.76379C23.3701 9.14962 23.7559 10.5827 23.7559 10.5827C17.9685 12.7323 18.9607 18.7402 18.9607 18.7402L20.3386 17.0866C18.63 23.6457 22.9843 28.7165 22.9843 28.7165C21.7166 21.7165 26.8977 20.9449 26.0158 14.2205C26.0158 14.2205 29.2678 21.441 38.5827 16.3701L37.8662 17.748C51.0394 14.7717 46.4095 30.5906 46.4095 30.5906C51.0945 24.6378 50.378 18.5197 50.378 18.5197L50.9292 20.7244C52.4174 10.8032 42.441 7.00001 42.441 7.00001Z" fill="#324A5E"/>
</svg>
