<svg width="70" height="70" viewBox="0 0 70 70" fill="none" xmlns="http://www.w3.org/2000/svg">
<path d="M35 69.9996C54.2771 69.9996 70 54.2771 70 35C70 15.7225 54.2775 0 35 0C15.7225 0 0 15.7225 0 34.9999C0 54.2769 15.7225 69.9996 35 69.9996Z" fill="#2CC5FF"/>
<path d="M23.3122 41.2885C20.3936 33.9251 14.2627 27.2612 21.9775 13.838C25.1548 8.30964 30.0082 4.66362 35.0219 5.89806C40.0357 4.66376 44.8891 8.30978 48.0664 13.838C55.7809 27.2612 49.6504 33.9251 46.7313 41.2885L35.0223 41.3175L23.3127 41.2885H23.3122Z" fill="#666666"/>
<path d="M15.3 52.7995C14.9339 53.3906 14.0205 58.4168 13.0103 62.2274C19.0201 67.0869 26.6694 69.9992 34.9995 69.9992C43.3301 69.9992 50.9792 67.0869 56.9891 62.2274C55.9785 58.4172 55.0652 53.3902 54.6991 52.7995C49.0764 43.7206 40.4095 47.6839 39.8186 37.2947C39.8186 37.2947 37.0304 39.3754 34.9014 39.3944C32.7723 39.4134 30.1778 37.4259 30.1778 37.4259C29.5882 47.8062 20.9187 43.7274 15.3 52.7995Z" fill="#FED198"/>
<path d="M39.9694 38.7621C39.8957 38.2757 39.8453 37.7861 39.8185 37.2949C39.8185 37.2949 37.0302 39.3757 34.9012 39.3947C32.7721 39.4137 30.1776 37.4262 30.1776 37.4262C30.1475 37.9605 30.0948 38.4547 30.0227 38.9162C30.0773 38.9592 30.1314 39.003 30.1869 39.0456L30.1862 39.0532C30.3501 39.1959 32.8424 41.339 34.9008 41.3173C36.9593 41.3388 39.4512 39.1955 39.6154 39.0532L39.615 39.0456C39.7347 38.9533 39.8527 38.8589 39.969 38.7623L39.9694 38.7621Z" fill="#F0B97D"/>
<path d="M30.1866 37.4328C30.3505 37.5565 32.8428 39.413 34.9012 39.3944C36.9597 39.413 39.4516 37.5562 39.6158 37.4328C42.7271 35.6189 45.2801 30.271 44.7038 24.4751C44.2319 19.7274 39.0959 26.6889 35.5188 16.893C30.4559 27.4985 25.6473 21.225 25.099 25.2443C24.4947 29.6728 26.981 35.2449 30.1866 37.4331V37.4328Z" fill="#FED198"/>
<path d="M26.1017 44.8588C23.0377 46.4955 17.4327 46.5449 15.3 49.9737C14.9285 50.5708 13.9961 57.8854 12.9705 62.1956C18.9858 67.0741 26.6507 69.9993 34.9991 69.9993C43.3483 69.9993 51.0124 67.0745 57.0282 62.1956C56.0025 57.8854 54.958 50.6275 54.6987 49.9737C53.2825 46.4019 46.7271 46.2528 43.66 44.6057C38.8912 61.9069 31.7835 63.0864 26.102 44.8603L26.1009 44.8589H26.1017V44.8588Z" fill="#FBB429"/>
<path d="M28.1446 43.1393C27.9456 48.522 28.8608 56.1478 34.9005 58.0966C29.2143 58.3343 25.5246 50.1415 21.3213 47.9957L28.1445 43.1397L28.1446 43.1393ZM41.9949 43.1393C42.2037 48.522 41.243 56.1478 34.9006 58.0966C40.8715 58.3343 44.7463 50.1415 49.1593 47.9957L41.9947 43.1397L41.9949 43.1393Z" fill="white"/>
</svg>
