<svg width="70" height="70" viewBox="0 0 70 70" fill="none" xmlns="http://www.w3.org/2000/svg">
<path d="M35 70C54.33 70 70 54.33 70 35C70 15.6701 54.33 3.05176e-05 35 3.05176e-05C15.67 3.05176e-05 0 15.6701 0 35C0 54.33 15.67 70 35 70Z" fill="#F1582E"/>
<path d="M58.5156 60.9219C56 63.2188 53.2109 65.1328 50.0938 66.5547C49.3281 66.9375 48.5078 67.2657 47.6875 67.5938C43.75 69.125 39.4844 70 35 70C30.5156 70 26.25 69.1797 22.3125 67.5938C21.4922 67.2657 20.6719 66.9375 19.9063 66.5547C16.8438 65.0782 14 63.1641 11.4844 60.9219C11.7578 57.8594 12.0859 55.3438 12.0859 55.3438C12.0859 55.2344 12.0859 55.125 12.1406 55.0703C12.6328 50.4219 16.0234 46.5938 20.5625 45.4453C21.9844 45.0625 23.5703 44.5703 24.0078 44.4063C30.5703 42.3282 29.5312 42.875 29.5312 35.0547H40.5234V40.9063C40.5234 41.2344 40.6875 41.6719 40.9063 42C41.2344 42.4922 41.7812 42.875 41.8359 42.875C42.9844 43.4219 48.2344 45.1172 48.3438 45.1172C48.8906 45.336 56.9297 46.6485 57.8594 55.0703C57.8594 55.1797 57.8594 55.2891 57.9141 55.3438C57.9141 55.3438 58.2422 57.8594 58.5156 60.9219Z" fill="#4C5AA5"/>
<path d="M47.7422 44.8985C45.5 51.1875 41.8906 57.0391 36.8594 62.0703L35 63.9297L33.1406 62.0703C28.1094 57.0391 24.5 51.1328 22.2578 44.8985C30.8984 42.2735 29.4766 42.8203 29.4766 35H40.4688C40.4688 42.1641 39.9766 42.1641 43.1484 43.3672C44.6797 43.9141 46.2109 44.461 47.7422 44.8985Z" fill="#F1B97C"/>
<path d="M48.3438 45.0625C48.2891 45.0625 46.9766 44.6797 46.9219 44.625C45.8281 47.6328 44.4609 50.5313 42.7656 53.211C40.9062 56.1641 38.7188 58.9531 36.2031 61.4688L34.9453 62.7266L33.6875 61.4688C28.8203 56.6016 25.2109 50.8594 22.9688 44.625C22.5859 44.7344 21.875 44.9531 21.3828 45.1172C23.7344 51.625 27.3984 57.586 32.4844 62.6719L35 65.0781L37.4063 62.6719C40.0313 60.0469 42.3281 57.1485 44.2422 54.0313L44.8984 52.8828C46.3203 50.4219 47.5234 47.8516 48.4531 45.1172C48.4531 45.1172 48.3984 45.1172 48.3438 45.0625Z" fill="#FCFCFC"/>
<path d="M50.1484 60.7032V66.5547C49.3828 66.9375 48.5625 67.2657 47.7422 67.5938L50.1484 60.7032ZM22.3125 67.5938C21.4922 67.2657 20.6719 66.9375 19.9062 66.5547V60.7032L22.3125 67.5938Z" fill="#42539B"/>
<path d="M48.3439 45.1172C46.9221 46.4844 45.1721 49.1094 44.8986 51.3516C44.8439 51.8985 44.8439 52.3906 44.9533 52.9375C45.0627 53.4844 45.3361 54.0313 45.7189 54.5781C45.7189 54.5781 45.1174 54.4141 44.2424 54.0859C44.0236 53.9766 43.7502 53.8672 43.4767 53.7578C43.258 53.6485 42.9846 53.4844 42.7658 53.375C40.1955 51.8438 37.4611 48.6719 41.7814 42.9297C40.9611 42.4922 40.4689 41.6719 40.4689 40.7422V35H29.4767C29.4767 43.2031 30.4064 42.2735 23.4611 44.5156C23.1877 43.2578 22.3674 40.5234 20.0158 34.7813C20.0158 34.7813 16.2971 25.2656 21.4924 12.5781C21.4924 12.5781 23.1877 4.64845 27.3439 5.7422C27.3439 5.7422 38.6642 -0.328108 46.3752 8.53127C46.3752 8.53127 52.7736 14.8203 50.3127 22.75C53.3205 27.7813 53.5939 37.2422 48.3439 45.1172Z" fill="#343843"/>
<path d="M21.2538 20.1124C19.9006 20.4272 19.231 22.5188 19.7581 24.7839C20.2852 27.049 21.8094 28.63 23.1626 28.3151C24.5158 28.0002 25.1855 25.9087 24.6584 23.6435C24.1313 21.3784 22.607 19.7975 21.2538 20.1124Z" fill="#F1B97C"/>
<path d="M21.8203 27.4531C22.1223 27.4531 22.3672 27.2083 22.3672 26.9063C22.3672 26.6042 22.1223 26.3594 21.8203 26.3594C21.5183 26.3594 21.2734 26.6042 21.2734 26.9063C21.2734 27.2083 21.5183 27.4531 21.8203 27.4531Z" fill="#FCFCFC"/>
<path d="M48.0156 19.7969C48.0156 27.2891 41.4531 39.8125 34.8906 39.8125C28.3281 39.8125 21.7656 27.2891 21.7656 19.7969C21.7656 12.3047 27.6719 6.72659 34.8906 6.72659C42.1094 6.78128 48.0156 12.3594 48.0156 19.7969Z" fill="#F8CFA3"/>
<path d="M26.0859 11.6485C26.0859 11.6485 27.5078 17.4453 37.4609 19.9063C39.6484 20.4532 41.6172 21.5469 43.2031 23.0782C44.4609 24.336 45.6641 26.0313 46.0469 28.1641L48.3438 29.3672L49.3281 15.586C49.3281 15.586 43.1484 6.72659 43.2578 6.45315C43.3672 6.17971 33.6328 5.74221 33.3594 5.63284C33.0859 5.52346 26.0312 6.72659 26.0312 6.72659L23.2969 10.0078L21.7109 15.1485L21.4922 20.0157C21.6016 20.0703 24.6094 19.1407 26.0859 11.6485Z" fill="#343843"/>
</svg>
