<svg width="70" height="70" viewBox="0 0 70 70" fill="none" xmlns="http://www.w3.org/2000/svg">
<path d="M35 70C54.33 70 70 54.33 70 35C70 15.6701 54.33 3.05176e-05 35 3.05176e-05C15.67 3.05176e-05 0 15.6701 0 35C0 54.33 15.67 70 35 70Z" fill="#E9BB06"/>
<path d="M47.4688 9.73441C41.0703 1.03909 28.9297 1.03909 22.5313 9.73441C20.7266 12.1953 19.4688 15.1485 19.3047 18.2657C18.9766 26.961 19.5234 35.6563 20.9453 44.3516C30.2969 47.8516 39.7031 47.8516 49.0547 44.3516C50.5312 35.6563 51.0781 26.961 50.6953 18.2657C50.5312 15.1485 49.3281 12.1953 47.4688 9.73441Z" fill="#343843"/>
<path d="M59.3359 53.1563V60.1563C56.7656 62.6172 53.8672 64.6954 50.6406 66.336L50.3125 66.5C47.4141 67.9219 44.2422 68.961 40.9609 69.5079C39.0469 69.836 37.0234 70 35 70C32.9766 70 30.9531 69.836 29.0391 69.5079C25.7578 68.961 22.5859 67.9219 19.6875 66.5L19.3594 66.336C16.1328 64.75 13.2344 62.6719 10.6641 60.1563V53.1563C11.3203 45.9375 15.75 45.0079 17.7734 44.8985C18.8672 44.8438 20.0156 44.7344 21.1094 44.461C29.6953 42.3282 29.75 37.1329 29.75 37.1329V32.211H40.25V37.1329C40.25 37.1329 40.3594 42.3282 48.8906 44.461C49.9844 44.7344 51.0781 44.8438 52.2266 44.8985C54.25 44.9532 58.6797 45.9375 59.3359 53.1563Z" fill="#F1B97C"/>
<path d="M59.3359 53.1563V60.1563C56.7656 62.6172 53.8672 64.6953 50.6406 66.336L50.3125 66.5C47.4141 67.9219 44.2422 68.9609 40.9609 69.5078C39.0469 69.8359 37.0234 70 35 70C32.9766 70 30.9531 69.8359 29.0391 69.5078C25.7578 68.9609 22.5859 67.9219 19.6875 66.5L19.3594 66.336C16.1328 64.75 13.2344 62.6719 10.6641 60.1563V53.1563C11.3203 45.9375 15.75 45.0078 17.7734 44.8984H17.8828C20.0156 52.3359 26.8516 57.8047 35 57.8047C43.1484 57.8047 49.9844 52.3359 52.1172 44.8984H52.2266C54.25 44.9531 58.6797 45.9375 59.3359 53.1563Z" fill="#FCFCFC"/>
<path d="M29.0391 69.5078C25.7578 68.961 22.5859 67.9219 19.6875 66.5L19.3594 66.336C16.1328 64.75 13.2344 62.6719 10.6641 60.1563V53.1563C11.3203 45.9375 15.75 45.0078 17.7734 44.8985C18.8672 44.8438 20.0156 44.7344 21.1094 44.461C22.6953 44.0782 24.0078 43.586 25.0469 43.0391L29.0391 69.5078ZM59.3359 53.1563V60.1563C56.7656 62.6172 53.8672 64.6953 50.6406 66.336L50.3125 66.5C47.4141 67.9219 44.2422 68.961 40.9609 69.5078L45.0078 43.0391C46.0469 43.586 47.3594 44.0782 48.9453 44.461C50.0391 44.7344 51.1328 44.8438 52.2812 44.8985C54.25 44.9532 58.6797 45.9375 59.3359 53.1563Z" fill="#DC8C01"/>
<path d="M50.6406 66.336L50.3125 66.5L50.5859 65.1875L50.6406 66.336ZM19.6875 66.5L19.3594 66.336L19.4687 65.2422L19.6875 66.5Z" fill="#D17D02"/>
<path d="M48.7333 24.579C49.2632 22.2525 48.69 20.1382 47.4532 19.8565C46.2163 19.5748 44.7841 21.2324 44.2543 23.5589C43.7244 25.8853 44.2976 27.9997 45.5345 28.2814C46.7713 28.5631 48.2035 26.9054 48.7333 24.579Z" fill="#F8CFA3"/>
<path d="M45.828 27.3985H45.7733C45.5545 27.3438 45.2811 26.961 45.1717 26.4688C44.953 25.7032 45.0077 24.7735 45.2264 23.7891C45.6639 21.8203 46.703 20.7813 47.2499 20.7813H47.3045C47.8514 20.8907 48.3436 22.4219 47.9061 24.3907C47.4139 26.3047 46.3749 27.3985 45.828 27.3985Z" fill="#F1B97C"/>
<path d="M24.4719 28.277C25.7087 27.9951 26.2815 25.8806 25.7512 23.5543C25.221 21.2279 23.7885 19.5705 22.5517 19.8524C21.3149 20.1343 20.7421 22.2487 21.2724 24.5751C21.8026 26.9015 23.2351 28.5589 24.4719 28.277Z" fill="#F8CFA3"/>
<path d="M24.1717 27.3985H24.2264C24.4451 27.3438 24.7186 26.961 24.8279 26.4688C25.0467 25.7032 24.992 24.7735 24.7733 23.7891C24.3358 21.8203 23.2967 20.7813 22.7498 20.7813H22.6951C22.1483 20.8907 21.6561 22.4219 22.0936 24.3907C22.5858 26.3047 23.6248 27.3985 24.1717 27.3985Z" fill="#F1B97C"/>
<path d="M46.5937 22.6953C46.5937 29.6953 41.3984 38.1172 35 38.1172C28.6016 38.1172 23.4062 29.6407 23.4062 22.6953C23.4062 15.75 28.6016 10.0078 35 10.0078C41.3984 10.0078 46.5937 15.6953 46.5937 22.6953Z" fill="#F8CFA3"/>
<path d="M46.4296 24.8282C46.5389 22.6953 46.1561 22.0938 45.5546 20.6719C44.4608 18.1016 42.2733 16.1875 39.6483 15.3125C35.4374 13.8907 35.0546 11.1016 35.0546 10.5547C35.0546 11.1016 34.6718 13.8907 30.4608 15.3125C27.8358 16.1875 25.5936 18.1016 24.5546 20.6719C23.953 22.0938 23.5702 22.6953 23.6796 24.8282C21.2733 23.0235 20.3983 19.8516 21.6014 17.0625L24.5546 10.336L31.2811 5.19534L35.0546 5.63284L38.828 5.19534L45.5546 10.336L48.5077 17.0625C49.7108 19.7969 48.8358 23.0235 46.4296 24.8282Z" fill="#343843"/>
<path d="M46.9219 12.0313C41.7266 3.39067 28.3281 3.39067 23.1328 12.0313C21.875 14.1094 21.2734 16.461 21.2734 18.8672V21.3829C23.9531 5.96098 46.0469 5.96098 48.7812 21.3829V18.8672C48.7266 16.461 48.125 14.1094 46.9219 12.0313Z" fill="#DC8C01"/>
</svg>
