<svg width="19" height="19" viewBox="0 0 19 19" fill="none" xmlns="http://www.w3.org/2000/svg">
<path d="M14.8431 10.5984V14.2499C14.8431 14.4102 14.7778 14.5587 14.6709 14.6715C14.5878 14.7487 12.6759 16.6249 9.49938 16.6249C6.32282 16.6249 4.41095 14.7487 4.32782 14.6715C4.22095 14.5587 4.15564 14.4102 4.15564 14.2499V10.5984L8.70376 12.8724C8.95045 12.9971 9.22298 13.062 9.49938 13.062C9.77579 13.062 10.0483 12.9971 10.295 12.8724L14.8431 10.5984ZM17.8119 12.04V7.78875L18.0773 7.65575C18.1763 7.60676 18.2596 7.53107 18.3179 7.43722C18.3762 7.34337 18.4071 7.23511 18.4071 7.12464C18.4071 7.01417 18.3762 6.9059 18.3179 6.81206C18.2596 6.71821 18.1763 6.64252 18.0773 6.59353L9.76479 2.43728C9.6823 2.396 9.59133 2.37451 9.49909 2.37451C9.40685 2.37451 9.31587 2.396 9.23338 2.43728L0.920887 6.59353C0.822471 6.64314 0.73977 6.71911 0.682006 6.81298C0.624243 6.90684 0.593689 7.01491 0.59375 7.12512C0.593812 7.23533 0.624487 7.34336 0.682355 7.43716C0.740223 7.53096 0.823009 7.60684 0.921481 7.65634L9.23398 11.8126C9.3164 11.8537 9.40726 11.8751 9.49938 11.8751C9.59151 11.8751 9.68237 11.8537 9.76479 11.8126L16.6244 8.3825V12.04C16.2711 12.246 16.0306 12.6242 16.0306 13.0624C16.0306 13.7173 16.5632 14.2499 17.2181 14.2499C17.873 14.2499 18.4056 13.7173 18.4056 13.0624C18.4056 12.6248 18.1652 12.246 17.8119 12.04Z" fill="#C4C4C4"/>
</svg>
