<svg width="20" height="22" viewBox="0 0 20 22" fill="none" xmlns="http://www.w3.org/2000/svg">
<path d="M5.79408 10.5804L5.79403 10.5803C5.78706 10.5694 5.77978 10.5587 5.77218 10.5482L5.77216 10.5482C5.1126 9.64084 4.77656 8.56547 4.77656 7.48438C4.77656 4.58122 7.11416 2.22187 10 2.22187C12.8798 2.22187 15.2234 4.5823 15.2234 7.48438C15.2234 8.56697 14.894 9.6055 14.2704 10.4889C14.2672 10.493 14.2651 10.4956 14.2631 10.498C14.247 10.5177 14.2416 10.5242 13.7978 11.2201C13.5464 11.6144 13.154 12.2301 12.5393 13.195C11.9342 14.1446 11.1137 15.4324 10 17.18L5.79408 10.5804ZM6.57776 14.1767C5.57453 14.3357 4.24651 14.6429 3.15767 15.1571C2.04522 15.6825 1.16094 16.4348 1.16094 17.4844C1.16094 17.8674 1.28635 18.3291 1.70413 18.7986C2.12101 19.267 2.82718 19.7411 3.98561 20.1549C5.60343 20.7326 7.73939 21.05 10 21.05C12.1137 21.05 14.3169 20.752 15.9935 20.1613C16.8317 19.8661 17.5414 19.4966 18.0424 19.0521C18.5439 18.607 18.8391 18.084 18.8391 17.4844C18.8391 16.4346 17.9558 15.6825 16.8438 15.1572C15.7554 14.6431 14.4273 14.336 13.4222 14.1767C15.2567 11.2978 15.2715 11.2723 15.2896 11.2495C15.2921 11.2464 15.2946 11.2433 15.3017 11.2332C16.0826 10.1318 16.4953 8.83543 16.4953 7.48438C16.4953 3.90171 13.5881 0.95 10 0.95C6.42354 0.95 3.50469 3.89584 3.50469 7.48438C3.50469 8.83414 3.92576 10.1639 4.73166 11.2799L6.57776 14.1767ZM10 19.7781C7.69993 19.7781 5.80134 19.44 4.47942 18.9799C3.81819 18.7497 3.30334 18.4897 2.95488 18.2278C2.60373 17.9639 2.43281 17.7068 2.43281 17.4844C2.43281 17.3371 2.51919 17.1561 2.71355 16.9577C2.90694 16.7602 3.2021 16.5509 3.60621 16.3477C4.40925 15.9439 5.63579 15.5675 7.32827 15.3543L9.46369 18.7051C9.52114 18.7952 9.60039 18.8695 9.69413 18.9209C9.78786 18.9723 9.89305 18.9993 9.99996 18.9993C10.1069 18.9993 10.2121 18.9723 10.3058 18.9209C10.3995 18.8695 10.4788 18.7952 10.5362 18.7051L12.6716 15.3543C14.3641 15.5675 15.5907 15.9439 16.3938 16.3477C16.7979 16.5509 17.093 16.7602 17.2864 16.9577C17.4808 17.1561 17.5672 17.3371 17.5672 17.4844C17.5672 17.7048 17.3979 17.9608 17.0488 18.2243C16.7025 18.4858 16.1902 18.7461 15.5307 18.9768C14.2122 19.4379 12.3136 19.7781 10 19.7781Z" fill="white" stroke="white" stroke-width="0.1"/>
<path d="M10 4.50469C8.35696 4.50469 7.02031 5.84133 7.02031 7.48438C7.02031 9.12742 8.35696 10.4641 10 10.4641C11.643 10.4641 12.9797 9.12742 12.9797 7.48438C12.9797 5.84133 11.643 4.50469 10 4.50469ZM10 9.19219C9.05836 9.19219 8.29219 8.42602 8.29219 7.48438C8.29219 6.54273 9.05836 5.77656 10 5.77656C10.9416 5.77656 11.7078 6.54273 11.7078 7.48438C11.7078 8.42602 10.9416 9.19219 10 9.19219Z" fill="white" stroke="white" stroke-width="0.1"/>
</svg>
