<svg width="646" height="599" viewBox="0 0 646 599" fill="none" xmlns="http://www.w3.org/2000/svg">
<g clip-path="url(#clip0_3435_3176)">
<path d="M305.2 599H8.76562C3.92994 599 0 595.069 0 590.232V8.76795C0 3.93099 3.92994 0 8.76562 0H305.2C310.036 0 313.966 3.93099 313.966 8.76795V590.247C313.95 595.069 310.02 599 305.2 599ZM8.76562 0.383886C4.14486 0.383886 0.383784 4.14597 0.383784 8.76795V590.247C0.383784 594.869 4.14486 598.631 8.76562 598.631H305.2C309.821 598.631 313.582 594.869 313.582 590.247V8.76795C313.582 4.14597 309.821 0.383886 305.2 0.383886H8.76562Z" fill="#EBEBEB"/>
<path d="M637.234 599H340.8C335.964 599 332.034 595.069 332.034 590.232V8.76795C332.05 3.93099 335.98 0 340.8 0H637.234C642.07 0 646 3.93099 646 8.76795V590.247C646 595.069 642.07 599 637.234 599ZM340.8 0.383886C336.179 0.383886 332.418 4.14597 332.418 8.76795V590.247C332.418 594.869 336.179 598.631 340.8 598.631H637.234C641.855 598.631 645.616 594.869 645.616 590.247V8.76795C645.616 4.14597 641.855 0.383886 637.234 0.383886H340.8Z" fill="#EBEBEB"/>
<path d="M112.771 173.962L115.258 178.998L120.8 179.812L116.793 183.728L117.729 189.256L112.771 186.646L107.812 189.256L108.749 183.728L104.742 179.812L110.284 178.998L112.771 173.962Z" fill="#EBEBEB"/>
<path d="M609.617 410.804L612.104 415.84L617.646 416.639L613.639 420.554L614.576 426.082L609.617 423.472L604.659 426.082L605.595 420.554L601.589 416.639L607.13 415.84L609.617 410.804Z" fill="#F5F5F5"/>
<path d="M511.2 556.803L513.687 561.84L519.244 562.638L515.222 566.569L516.174 572.097L511.2 569.487L506.241 572.097L507.193 566.569L503.171 562.638L508.728 561.84L511.2 556.803Z" fill="#F5F5F5"/>
<path d="M286.072 84.762L286.993 86.6354L289.05 86.9271C289.572 87.0039 289.772 87.6335 289.403 88.002L287.914 89.4608L288.267 91.5184C288.36 92.0251 287.822 92.4244 287.362 92.1787L285.52 91.2113L283.677 92.1787C283.217 92.4244 282.68 92.0251 282.772 91.5184L283.125 89.4608L281.636 88.002C281.267 87.6335 281.467 87.0039 281.989 86.9271L284.046 86.6354L284.967 84.762C285.182 84.3013 285.842 84.3013 286.072 84.762Z" fill="#EBEBEB"/>
<path d="M32.5141 532.91L33.4352 534.784L35.4923 535.076C35.9989 535.152 36.2138 535.782 35.8453 536.15L34.3563 537.609L34.7093 539.667C34.8015 540.174 34.2642 540.573 33.8036 540.327L31.9615 539.36L30.1193 540.327C29.6588 540.573 29.1215 540.174 29.2136 539.667L29.5666 537.609L28.0776 536.15C27.7091 535.782 27.9087 535.152 28.4306 535.076L30.4877 534.784L31.4088 532.91C31.6237 532.45 32.2838 532.45 32.5141 532.91Z" fill="#F5F5F5"/>
<path d="M73.9321 65.0304L74.8531 66.9037L76.9102 67.1955C77.4168 67.2722 77.6317 67.9018 77.2633 68.2704L75.7742 69.7291L76.1273 71.7867C76.2194 72.2935 75.6821 72.6927 75.2216 72.447L73.3794 71.4796L71.5373 72.447C71.0767 72.6927 70.5394 72.2935 70.6315 71.7867L70.9846 69.7291L69.4955 68.2704C69.1271 67.9018 69.3267 67.2722 69.8486 67.1955L71.9057 66.9037L72.8268 65.0304C73.0417 64.5543 73.7018 64.5543 73.9321 65.0304Z" fill="#EBEBEB"/>
<path d="M71.445 435.127C71.445 436.248 70.5393 437.17 69.4033 437.17C68.2826 437.17 67.3616 436.264 67.3616 435.127C67.3616 434.006 68.2673 433.085 69.4033 433.085C70.5239 433.085 71.445 433.991 71.445 435.127Z" fill="#EBEBEB"/>
<path d="M362.415 179.567C362.415 180.688 361.509 181.609 360.373 181.609C359.252 181.609 358.331 180.703 358.331 179.567C358.331 178.446 359.237 177.524 360.373 177.524C361.493 177.524 362.415 178.446 362.415 179.567Z" fill="#EBEBEB"/>
<path d="M256.536 66.7195C256.536 67.8405 255.631 68.7618 254.495 68.7618C253.374 68.7618 252.453 67.8558 252.453 66.7195C252.453 65.5986 253.359 64.6772 254.495 64.6772C255.631 64.6772 256.536 65.5832 256.536 66.7195Z" fill="#F5F5F5"/>
<path d="M259.817 564.384C265.882 562.952 269.637 556.873 268.205 550.807C266.773 544.741 260.696 540.984 254.631 542.417C248.567 543.849 244.811 549.928 246.243 555.994C247.675 562.06 253.752 565.817 259.817 564.384Z" fill="#F0F0F0"/>
<path d="M253.297 546.869C250.902 546.869 248.676 547.636 246.865 548.957C246.266 550.339 245.928 551.859 245.928 553.456C245.928 559.69 250.979 564.727 257.212 564.727C259.315 564.727 261.295 564.144 262.984 563.13C262.968 563.115 262.968 563.115 262.984 563.115C263.828 561.548 264.304 559.767 264.304 557.863C264.304 551.798 259.376 546.869 253.297 546.869Z" fill="#E6E6E6"/>
<path d="M165.933 357.306H72.5044V315.124L165.917 204.043H210.62V317.52H233.786V357.321H210.62V391.825H165.917V357.306H165.933ZM165.933 317.52V259.415L116.563 317.52H165.933Z" fill="#00A0DC"/>
<path d="M249.782 298.755C249.782 263.668 256.091 239.099 268.725 225.08C281.359 211.06 300.595 204.043 326.446 204.043C338.866 204.043 349.059 205.578 357.042 208.634C365.009 211.705 371.518 215.682 376.553 220.596C381.588 225.51 385.549 230.669 388.45 236.09C391.352 241.51 393.67 247.821 395.435 255.038C398.874 268.812 400.593 283.17 400.593 298.11C400.593 331.616 394.929 356.123 383.599 371.663C372.27 387.203 352.759 394.957 325.049 394.957C309.514 394.957 296.972 392.485 287.408 387.525C277.844 382.565 269.984 375.317 263.859 365.736C259.407 358.933 255.953 349.643 253.466 337.835C251.01 326.057 249.782 313.02 249.782 298.755ZM300.641 298.878C300.641 322.387 302.713 338.449 306.873 347.048C311.034 355.647 317.051 359.962 324.942 359.962C330.146 359.962 334.659 358.135 338.482 354.48C342.304 350.826 345.114 345.052 346.925 337.159C348.737 329.267 349.627 316.967 349.627 300.26C349.627 275.753 347.554 259.276 343.394 250.831C339.234 242.385 333.001 238.178 324.696 238.178C316.222 238.178 310.097 242.478 306.321 251.092C302.529 259.691 300.641 275.615 300.641 298.878Z" fill="#00A0DC"/>
<path d="M509.895 357.306H416.467V315.124L509.895 204.043H554.598V317.52H577.763V357.321H554.598V391.825H509.895V357.306ZM509.895 317.52V259.415L460.525 317.52H509.895Z" fill="#00A0DC"/>
<g opacity="0.3">
<path d="M247.709 139.227C247.709 140.809 246.42 142.099 244.839 142.099C243.258 142.099 241.968 140.809 241.968 139.227C241.968 137.646 243.258 136.356 244.839 136.356C246.42 136.356 247.709 137.646 247.709 139.227Z" fill="#00A0DC"/>
<path d="M51.2275 249.526C52.3467 249.526 53.2539 248.618 53.2539 247.499C53.2539 246.379 52.3467 245.472 51.2275 245.472C50.1084 245.472 49.2012 246.379 49.2012 247.499C49.2012 248.618 50.1084 249.526 51.2275 249.526Z" fill="#00A0DC"/>
<path d="M386.025 545.532C387.627 545.532 388.926 544.233 388.926 542.63C388.926 541.027 387.627 539.728 386.025 539.728C384.423 539.728 383.124 541.027 383.124 542.63C383.124 544.233 384.423 545.532 386.025 545.532Z" fill="#00A0DC"/>
<path d="M455.782 427.449C456.901 427.449 457.808 426.541 457.808 425.422C457.808 424.302 456.901 423.395 455.782 423.395C454.662 423.395 453.755 424.302 453.755 425.422C453.755 426.541 454.662 427.449 455.782 427.449Z" fill="#00A0DC"/>
<path d="M590.382 62.4504C590.382 63.5714 589.477 64.4774 588.356 64.4774C587.235 64.4774 586.329 63.5714 586.329 62.4504C586.329 61.3295 587.235 60.4235 588.356 60.4235C589.477 60.4082 590.382 61.3295 590.382 62.4504Z" fill="#00A0DC"/>
<path d="M204.419 21.5128C204.419 22.6337 203.513 23.5397 202.392 23.5397C201.272 23.5397 200.366 22.6337 200.366 21.5128C200.366 20.3918 201.272 19.4858 202.392 19.4858C203.513 19.4858 204.419 20.3918 204.419 21.5128Z" fill="#00A0DC"/>
<path d="M365.516 127.926C366.635 127.926 367.542 127.018 367.542 125.899C367.542 124.78 366.635 123.872 365.516 123.872C364.397 123.872 363.489 124.78 363.489 125.899C363.489 127.018 364.397 127.926 365.516 127.926Z" fill="#00A0DC"/>
</g>
<path d="M156.031 127.941C174.607 127.941 189.666 112.878 189.666 94.2976C189.666 75.7166 174.607 60.6538 156.031 60.6538C137.455 60.6538 122.396 75.7166 122.396 94.2976C122.396 112.878 137.455 127.941 156.031 127.941Z" fill="#00A0DC"/>
<path opacity="0.7" d="M156.031 127.941C174.607 127.941 189.666 112.878 189.666 94.2976C189.666 75.7166 174.607 60.6538 156.031 60.6538C137.455 60.6538 122.396 75.7166 122.396 94.2976C122.396 112.878 137.455 127.941 156.031 127.941Z" fill="white"/>
<path opacity="0.2" d="M144.441 68.915C139.728 68.915 135.246 69.8824 131.177 71.633C125.728 77.6062 122.396 85.5757 122.396 94.2976C122.396 112.878 137.456 127.926 156.016 127.926C160.744 127.926 165.257 126.959 169.341 125.193C169.341 125.193 169.341 125.193 169.341 125.177C174.76 119.204 178.06 111.265 178.06 102.559C178.076 83.9634 163.031 68.915 144.441 68.915Z" fill="#00A0DC"/>
<path opacity="0.2" d="M141.094 77.8059C141.094 79.5104 139.713 80.877 138.024 80.877C136.32 80.877 134.954 79.495 134.954 77.8059C134.954 76.1015 136.335 74.7349 138.024 74.7349C139.713 74.7349 141.094 76.1015 141.094 77.8059Z" fill="#00A0DC"/>
<path opacity="0.2" d="M177.262 74.7348C177.262 76.4392 175.88 77.8059 174.192 77.8059C172.488 77.8059 171.122 76.4239 171.122 74.7348C171.122 73.0303 172.503 71.6637 174.192 71.6637C175.88 71.6483 177.262 73.0303 177.262 74.7348Z" fill="#00A0DC"/>
<path opacity="0.2" d="M171.106 96.6621C171.106 99.4414 168.85 101.699 166.071 101.699C163.293 101.699 161.036 99.4414 161.036 96.6621C161.036 93.8827 163.293 91.6255 166.071 91.6255C168.865 91.6255 171.106 93.8827 171.106 96.6621Z" fill="#00A0DC"/>
<path opacity="0.2" d="M155.126 111.004C155.126 114.72 152.117 117.73 148.402 117.73C144.687 117.73 141.678 114.72 141.678 111.004C141.678 107.288 144.687 104.279 148.402 104.279C152.117 104.279 155.126 107.288 155.126 111.004Z" fill="#00A0DC"/>
<path d="M554.676 500.204C558.422 484.333 548.597 468.429 532.73 464.682C516.863 460.934 500.963 470.762 497.217 486.633C493.47 502.504 503.295 518.408 519.162 522.156C535.029 525.903 550.929 516.075 554.676 500.204Z" fill="#00A0DC"/>
<path opacity="0.3" d="M554.676 500.204C558.422 484.333 548.597 468.429 532.73 464.682C516.863 460.934 500.963 470.762 497.217 486.633C493.47 502.504 503.295 518.408 519.162 522.156C535.029 525.903 550.929 516.075 554.676 500.204Z" fill="white"/>
<path opacity="0.4" d="M544.574 470.475C541.887 469.661 539.032 469.231 536.069 469.231C519.766 469.231 506.548 482.452 506.548 498.759C506.548 508.003 510.785 516.234 517.433 521.654C520.119 522.468 522.974 522.898 525.937 522.898C542.24 522.898 555.458 509.677 555.458 493.37C555.458 484.126 551.221 475.88 544.574 470.475Z" fill="#00A0DC"/>
<path d="M497.752 502.122C466.236 516.956 489.739 528.395 534.15 512.426C575.261 497.638 590.904 478.997 554.184 484.771C556.072 492.617 504.583 512.687 497.752 502.122Z" fill="#00A0DC"/>
<path opacity="0.2" d="M544.205 204.043C502.925 231.944 449.487 268.735 434.735 357.306H431.588C445.941 269.81 497.43 232.051 538.725 204.043H544.205Z" fill="black"/>
<path d="M330.699 481.101C304.647 481.101 278.796 469.339 266.238 450.098C258.486 438.213 249.475 413.322 276.309 380.108L278.704 382.043C259.729 405.537 256.214 429.107 268.817 448.425C284.153 471.934 320.398 483.757 351.3 475.343C382.97 466.728 402.19 439.165 404.047 399.748C410.387 264.912 482.001 223.391 534.303 193.064C566.787 174.223 590.259 160.602 585.101 131.888C584.38 127.911 582.798 125.147 580.25 123.473C573.572 119.066 560.524 122.106 545.418 125.638C515.774 132.548 475.186 142.007 451.007 100.87L453.648 99.3188C476.69 138.506 514.408 129.723 544.712 122.659C560.508 118.974 574.156 115.795 581.939 120.924C585.224 123.089 587.25 126.513 588.125 131.366C593.667 162.199 568.153 177.002 535.839 195.736C484.166 225.709 413.381 266.754 407.118 399.917C405.199 440.762 385.15 469.339 352.114 478.322C345.144 480.21 337.914 481.101 330.699 481.101Z" fill="#00A0DC"/>
<path opacity="0.2" d="M330.699 481.101C304.647 481.101 278.796 469.339 266.238 450.098C258.486 438.213 249.475 413.322 276.309 380.108L278.704 382.043C259.729 405.537 256.214 429.107 268.817 448.425C284.153 471.934 320.398 483.757 351.3 475.343C382.97 466.728 402.19 439.165 404.047 399.748C410.387 264.912 482.001 223.391 534.303 193.064C566.787 174.223 590.259 160.602 585.101 131.888C584.38 127.911 582.798 125.147 580.25 123.473C573.572 119.066 560.524 122.106 545.418 125.638C515.774 132.548 475.186 142.007 451.007 100.87L453.648 99.3188C476.69 138.506 514.408 129.723 544.712 122.659C560.508 118.974 574.156 115.795 581.939 120.924C585.224 123.089 587.25 126.513 588.125 131.366C593.667 162.199 568.153 177.002 535.839 195.736C484.166 225.709 413.381 266.754 407.118 399.917C405.199 440.762 385.15 469.339 352.114 478.322C345.144 480.21 337.914 481.101 330.699 481.101Z" fill="white"/>
<path d="M419.337 64.493C429.868 64.3087 440.184 67.7637 440.184 67.7637C440.184 67.7637 457.009 96.5858 459.067 103.189C458.36 109.699 447.369 120.371 447.369 120.371L419.337 64.493Z" fill="#00A0DC"/>
<path opacity="0.3" d="M419.337 64.493C429.868 64.3087 440.184 67.7637 440.184 67.7637C440.184 67.7637 457.009 96.5858 459.067 103.189C458.36 109.699 447.369 120.371 447.369 120.371L419.337 64.493Z" fill="white"/>
<path d="M469.367 204.504C463.012 196.442 456.779 188.242 451.621 179.336C450.332 177.109 449.103 174.852 447.952 172.549C447.292 171.244 446.663 169.923 446.049 168.603C445.511 167.451 444.314 165.746 444.206 164.487C442.364 145.032 449.027 130.705 442.625 115.089L417.342 124.978C417.342 124.978 419.491 152.802 424.403 169.447C427.443 179.781 434.336 188.718 440.983 196.995C443.055 199.59 445.066 202.231 447.139 204.826C449.103 207.283 451.299 209.525 453.264 211.966C456.257 215.667 457.24 219.214 454.968 223.575C454.845 223.805 454.722 224.036 454.584 224.266C453.939 225.402 456.963 226.692 458.852 224.297C461.983 220.335 461.492 220.581 464.163 217.202C465.79 215.145 467.648 212.934 469.26 211.014C470.841 209.141 470.872 206.423 469.367 204.504Z" fill="#00A0DC"/>
<path opacity="0.7" d="M469.367 204.504C463.012 196.442 456.779 188.242 451.621 179.336C450.332 177.109 449.103 174.852 447.952 172.549C447.292 171.244 446.663 169.923 446.049 168.603C445.511 167.451 444.314 165.746 444.206 164.487C442.364 145.032 449.027 130.705 442.625 115.089L417.342 124.978C417.342 124.978 419.491 152.802 424.403 169.447C427.443 179.781 434.336 188.718 440.983 196.995C443.055 199.59 445.066 202.231 447.139 204.826C449.103 207.283 451.299 209.525 453.264 211.966C456.257 215.667 457.24 219.214 454.968 223.575C454.845 223.805 454.722 224.036 454.584 224.266C453.939 225.402 456.963 226.692 458.852 224.297C461.983 220.335 461.492 220.581 464.163 217.202C465.79 215.145 467.648 212.934 469.26 211.014C470.841 209.141 470.872 206.423 469.367 204.504Z" fill="white"/>
<path opacity="0.3" d="M463.181 196.503C459.788 200.603 452.911 205.901 449.886 208.051C450.547 208.788 451.207 209.54 451.851 210.293C458.099 206.208 463.027 200.926 464.9 198.776C464.317 198.024 463.749 197.256 463.181 196.503Z" fill="#00A0DC"/>
<path opacity="0.3" d="M469.352 204.504C469.29 204.427 469.229 204.366 469.168 204.273C468.108 205.379 467.356 207.16 467.233 209.141C467.126 210.508 467.356 211.767 467.817 212.75C468.323 212.151 468.799 211.567 469.275 211.014C470.841 209.141 470.872 206.423 469.352 204.504Z" fill="#00A0DC"/>
<path d="M413.335 82.9194C410.694 86.7736 407.578 90.5664 403.541 93.96C401.545 95.6644 399.258 97.2153 396.755 98.5359C395.497 99.1808 394.161 99.7336 392.795 100.194L391.766 100.532L391.428 100.64C391.183 100.716 390.937 100.778 390.692 100.839C390.231 100.947 389.771 101.008 389.356 101.054C387.698 101.177 386.485 100.947 385.503 100.701C383.538 100.164 382.233 99.4572 380.99 98.7662C379.761 98.0599 378.702 97.3381 377.689 96.6011C375.693 95.0809 373.882 93.5454 372.193 91.9177C368.801 88.6777 365.792 85.3148 362.998 81.5681C361.724 79.8637 362.077 77.4529 363.781 76.1784C365.101 75.1956 366.836 75.1803 368.14 76.0095L368.263 76.0862C371.886 78.3895 375.54 80.8157 379.101 82.9808C380.897 84.0403 382.663 85.1152 384.398 85.9444C385.242 86.3744 386.086 86.7736 386.838 87.05C387.575 87.3418 388.297 87.4953 388.496 87.4646C388.573 87.4646 388.481 87.3571 387.913 87.3725C387.775 87.3725 387.575 87.4032 387.391 87.4339C387.284 87.4492 387.161 87.48 387.053 87.526C386.946 87.5567 387.099 87.4953 387.099 87.4953L387.606 87.2343C388.281 86.8965 388.926 86.4665 389.586 86.0212C390.907 85.1306 392.15 84.0096 393.424 82.7658C395.957 80.2629 398.383 77.1304 400.946 73.875L400.977 73.829C403.602 70.4969 408.438 69.9287 411.769 72.5698C414.947 75.0574 415.591 79.618 413.335 82.9194Z" fill="#00A0DC"/>
<path opacity="0.7" d="M413.335 82.9194C410.694 86.7736 407.578 90.5664 403.541 93.96C401.545 95.6644 399.258 97.2153 396.755 98.5359C395.497 99.1808 394.161 99.7336 392.795 100.194L391.766 100.532L391.428 100.64C391.183 100.716 390.937 100.778 390.692 100.839C390.231 100.947 389.771 101.008 389.356 101.054C387.698 101.177 386.485 100.947 385.503 100.701C383.538 100.164 382.233 99.4572 380.99 98.7662C379.761 98.0599 378.702 97.3381 377.689 96.6011C375.693 95.0809 373.882 93.5454 372.193 91.9177C368.801 88.6777 365.792 85.3148 362.998 81.5681C361.724 79.8637 362.077 77.4529 363.781 76.1784C365.101 75.1956 366.836 75.1803 368.14 76.0095L368.263 76.0862C371.886 78.3895 375.54 80.8157 379.101 82.9808C380.897 84.0403 382.663 85.1152 384.398 85.9444C385.242 86.3744 386.086 86.7736 386.838 87.05C387.575 87.3418 388.297 87.4953 388.496 87.4646C388.573 87.4646 388.481 87.3571 387.913 87.3725C387.775 87.3725 387.575 87.4032 387.391 87.4339C387.284 87.4492 387.161 87.48 387.053 87.526C386.946 87.5567 387.099 87.4953 387.099 87.4953L387.606 87.2343C388.281 86.8965 388.926 86.4665 389.586 86.0212C390.907 85.1306 392.15 84.0096 393.424 82.7658C395.957 80.2629 398.383 77.1304 400.946 73.875L400.977 73.829C403.602 70.4969 408.438 69.9287 411.769 72.5698C414.947 75.0574 415.591 79.618 413.335 82.9194Z" fill="white"/>
<path d="M357.21 72.8769L359.006 75.9019C359.006 75.9019 360.388 79.925 363.136 80.6621L370.581 78.2513L370.213 77.6217C370.213 77.6217 370.213 77.6217 370.228 77.6217C369.277 76.1629 369.384 73.3683 369.706 71.0342C370.044 68.7002 368.831 68.6234 367.941 69.1916C367.419 69.5294 367.066 70.5889 366.636 71.7406C366.268 71.2339 365.884 70.7425 365.439 70.3125L363.167 68.0399C362.184 67.0572 360.603 67.0111 359.574 67.9324L357.732 69.5755C356.781 70.42 356.566 71.802 357.21 72.8769Z" fill="#00A0DC"/>
<path opacity="0.7" d="M357.21 72.8769L359.006 75.9019C359.006 75.9019 360.388 79.925 363.136 80.6621L370.581 78.2513L370.213 77.6217C370.213 77.6217 370.213 77.6217 370.228 77.6217C369.277 76.1629 369.384 73.3683 369.706 71.0342C370.044 68.7002 368.831 68.6234 367.941 69.1916C367.419 69.5294 367.066 70.5889 366.636 71.7406C366.268 71.2339 365.884 70.7425 365.439 70.3125L363.167 68.0399C362.184 67.0572 360.603 67.0111 359.574 67.9324L357.732 69.5755C356.781 70.42 356.566 71.802 357.21 72.8769Z" fill="white"/>
<path d="M426.89 61.8361C419.752 63.5713 409.942 67.6405 403.326 71.7711C400.977 73.2299 399.81 76.0092 400.363 78.7117C403.31 93.2073 410.05 112.617 417.326 124.978L451.268 110.927C451.498 104.939 443.255 85.5603 434.873 66.8266C433.368 63.4792 430.482 60.9762 426.89 61.8361Z" fill="#00A0DC"/>
<path opacity="0.8" d="M426.89 61.8361C419.752 63.5713 409.942 67.6405 403.326 71.7711C400.977 73.2299 399.81 76.0092 400.363 78.7117C403.31 93.2073 410.05 112.617 417.326 124.978L451.268 110.927C451.498 104.939 443.255 85.5603 434.873 66.8266C433.368 63.4792 430.482 60.9762 426.89 61.8361Z" fill="white"/>
<path opacity="0.3" d="M440.123 78.7118L433.384 76.4546C434.888 80.4009 440.338 85.3914 444.176 88.3243C442.917 85.2533 441.551 82.0286 440.123 78.7118Z" fill="#00A0DC"/>
<path d="M424.649 46.6345C421.855 41.2908 415.791 38.6036 408.499 39.2025C402.359 39.7092 396.924 45.9896 397.569 49.3678C398.214 52.7613 403.372 54.1894 404.308 55.3717L400.056 58.4582C397.938 59.9937 397.523 62.988 399.135 65.0456C400.931 67.3182 403.28 69.6983 404.661 71.3721C416.421 71.065 425.125 66.5812 428.256 62.251C427.151 56.7537 427.443 51.9475 424.649 46.6345Z" fill="#00A0DC"/>
<path opacity="0.8" d="M424.649 46.6345C421.855 41.2908 415.791 38.6036 408.499 39.2025C402.359 39.7092 396.924 45.9896 397.569 49.3678C398.214 52.7613 403.372 54.1894 404.308 55.3717L400.056 58.4582C397.938 59.9937 397.523 62.988 399.135 65.0456C400.931 67.3182 403.28 69.6983 404.661 71.3721C416.421 71.065 425.125 66.5812 428.256 62.251C427.151 56.7537 427.443 51.9475 424.649 46.6345Z" fill="white"/>
<path d="M418.892 49.9361C421.225 55.9247 418.278 62.6658 412.291 64.9998C406.304 67.3338 399.565 64.3856 397.231 58.397C394.898 52.4083 397.845 45.6673 403.832 43.3333C409.804 40.9993 416.543 43.9629 418.892 49.9361Z" fill="#263238"/>
<path d="M518.553 188.319C518.384 183.267 518.169 183.774 518.016 179.474C517.924 176.864 517.908 173.962 517.893 171.459C517.877 169.017 516.143 166.913 513.748 166.422C511.706 166.007 509.68 165.624 507.638 165.178C504.982 164.61 502.373 164.011 499.763 163.243C497.752 162.66 495.741 162.015 493.776 161.293C491.657 160.525 489.57 159.696 487.497 158.806C485.072 157.762 482.692 156.656 480.313 155.52C477.657 154.245 475.032 152.94 472.422 151.604C462.321 134.867 462.106 123.857 451.253 110.912L427.995 121.461C427.995 121.461 445.097 151.804 456.748 164.671C463.457 172.073 473.973 175.42 483.352 177.831C490.122 179.582 496.984 180.918 503.846 182.177C506.518 182.668 509.419 182.852 511.722 184.449C513.533 185.708 514.47 187.674 515.007 189.747C515.114 190.177 515.206 190.607 515.283 191.037C515.529 192.342 518.66 191.375 518.553 188.319Z" fill="#00A0DC"/>
<path opacity="0.8" d="M518.553 188.319C518.384 183.267 518.169 183.774 518.016 179.474C517.924 176.864 517.908 173.962 517.893 171.459C517.877 169.017 516.143 166.913 513.748 166.422C511.706 166.007 509.68 165.624 507.638 165.178C504.982 164.61 502.373 164.011 499.763 163.243C497.752 162.66 495.741 162.015 493.776 161.293C491.657 160.525 489.57 159.696 487.497 158.806C485.072 157.762 482.692 156.656 480.313 155.52C477.657 154.245 475.032 152.94 472.422 151.604C462.321 134.867 462.106 123.857 451.253 110.912L427.995 121.461C427.995 121.461 445.097 151.804 456.748 164.671C463.457 172.073 473.973 175.42 483.352 177.831C490.122 179.582 496.984 180.918 503.846 182.177C506.518 182.668 509.419 182.852 511.722 184.449C513.533 185.708 514.47 187.674 515.007 189.747C515.114 190.177 515.206 190.607 515.283 191.037C515.529 192.342 518.66 191.375 518.553 188.319Z" fill="white"/>
<path opacity="0.3" d="M506.763 164.994C505.842 164.794 504.921 164.595 503.985 164.364C504.061 169.662 501.574 178.829 500.653 181.593C501.62 181.777 502.603 181.962 503.57 182.146C506.272 174.867 506.702 167.159 506.763 164.994Z" fill="#00A0DC"/>
<path opacity="0.3" d="M517.908 171.459C517.893 169.002 516.173 166.913 513.779 166.422C513.303 166.33 512.796 166.223 512.32 166.13C512.428 167.574 513.318 169.248 514.823 170.583C515.805 171.474 516.926 172.058 517.939 172.334C517.908 172.027 517.908 171.735 517.908 171.459Z" fill="#00A0DC"/>
<path d="M416.712 50.0435C417.326 52.3775 414.732 54.8191 412.644 52.8075C410.955 51.1798 408.407 48.4312 406.319 47.1413C404.186 45.8054 407.026 43.4714 410.387 44.3774C413.534 45.2066 416.098 47.7095 416.712 50.0435Z" fill="white"/>
<path d="M416.896 124.241C415.822 124.64 417.787 126.483 417.787 126.483C417.787 126.483 439.233 119.127 452.327 111.557C452.435 109.975 451.283 109.131 451.283 109.131C451.283 109.131 435.349 117.423 416.896 124.241Z" fill="#00A0DC"/>
<path opacity="0.5" d="M416.896 124.241C415.822 124.64 417.787 126.483 417.787 126.483C417.787 126.483 439.233 119.127 452.327 111.557C452.435 109.975 451.283 109.131 451.283 109.131C451.283 109.131 435.349 117.423 416.896 124.241Z" fill="white"/>
<path d="M432.708 60.8228C436.945 62.9572 440.921 65.2298 444.913 67.7328C446.893 68.9765 448.873 70.2664 450.808 71.6484C452.773 72.9997 454.691 74.4277 456.641 76.04L457.363 76.6389L458.268 77.4527C458.913 78.0209 459.389 78.543 459.865 79.0651C460.356 79.6025 460.771 80.1246 461.17 80.6467C461.584 81.1688 461.983 81.6908 462.352 82.1976C463.872 84.2398 465.115 86.3128 466.328 88.3705C468.692 92.5471 470.734 96.7085 472.422 101.192C473.174 103.188 472.161 105.415 470.166 106.167C468.661 106.736 467.034 106.306 465.99 105.2L465.913 105.123C462.828 101.853 459.865 98.4129 456.887 95.2036C453.97 92.0097 450.884 88.739 448.382 87.3109C444.897 85.1305 441.013 82.9807 437.16 80.8463L425.555 74.397L425.524 74.3817C421.809 72.324 420.473 67.656 422.53 63.94C424.541 60.3314 429.039 58.9802 432.708 60.8228Z" fill="#00A0DC"/>
<path opacity="0.8" d="M432.708 60.8228C436.945 62.9572 440.921 65.2298 444.913 67.7328C446.893 68.9765 448.873 70.2664 450.808 71.6484C452.773 72.9997 454.691 74.4277 456.641 76.04L457.363 76.6389L458.268 77.4527C458.913 78.0209 459.389 78.543 459.865 79.0651C460.356 79.6025 460.771 80.1246 461.17 80.6467C461.584 81.1688 461.983 81.6908 462.352 82.1976C463.872 84.2398 465.115 86.3128 466.328 88.3705C468.692 92.5471 470.734 96.7085 472.422 101.192C473.174 103.188 472.161 105.415 470.166 106.167C468.661 106.736 467.034 106.306 465.99 105.2L465.913 105.123C462.828 101.853 459.865 98.4129 456.887 95.2036C453.97 92.0097 450.884 88.739 448.382 87.3109C444.897 85.1305 441.013 82.9807 437.16 80.8463L425.555 74.397L425.524 74.3817C421.809 72.324 420.473 67.656 422.53 63.94C424.541 60.3314 429.039 58.9802 432.708 60.8228Z" fill="white"/>
<path d="M476.107 108.701L474.802 105.43C474.802 105.43 474.08 101.253 471.47 100.086L463.733 101.3L464.01 101.975C464.01 101.975 464.01 101.975 463.994 101.975C464.716 103.557 464.163 106.321 463.472 108.563C462.782 110.82 463.964 111.081 464.931 110.651C465.499 110.405 466.021 109.407 466.619 108.332C466.896 108.885 467.218 109.438 467.587 109.945L469.475 112.54C470.288 113.661 471.839 113.952 473.006 113.2L475.078 111.864C476.137 111.204 476.567 109.868 476.107 108.701Z" fill="#00A0DC"/>
<path opacity="0.8" d="M476.107 108.701L474.802 105.43C474.802 105.43 474.08 101.253 471.47 100.086L463.733 101.3L464.01 101.975C464.01 101.975 464.01 101.975 463.994 101.975C464.716 103.557 464.163 106.321 463.472 108.563C462.782 110.82 463.964 111.081 464.931 110.651C465.499 110.405 466.021 109.407 466.619 108.332C466.896 108.885 467.218 109.438 467.587 109.945L469.475 112.54C470.288 113.661 471.839 113.952 473.006 113.2L475.078 111.864C476.137 111.204 476.567 109.868 476.107 108.701Z" fill="white"/>
<path opacity="0.3" d="M426.215 78.4663L424.342 78.6199L412.844 106.382C413.519 106.429 414.133 106.367 414.716 106.229C414.716 106.229 429.699 100.64 434.228 98.5973C431.188 92.2862 426.215 78.4663 426.215 78.4663Z" fill="#00A0DC"/>
<path d="M405.229 85.7602C405.874 90.766 409.62 101.392 412.844 106.398C418.462 104.463 427.827 100.808 432.355 98.7662C429.3 92.4398 426.092 83.7179 424.326 78.6353C419.506 78.9424 408.975 82.9194 405.229 85.7602Z" fill="white"/>
<path opacity="0.3" d="M416.651 91.7639C416.021 93.8522 413.811 95.05 411.723 94.4204C409.635 93.7908 408.438 91.5796 409.067 89.4913C409.697 87.403 411.907 86.2052 413.995 86.8348C416.083 87.4644 417.265 89.6756 416.651 91.7639Z" fill="#00A0DC"/>
<path opacity="0.6" d="M419.583 86.4819C419.383 87.1729 418.662 87.5568 417.971 87.3572C417.28 87.1575 416.896 86.4358 417.096 85.7448C417.296 85.0539 418.032 84.67 418.708 84.8696C419.399 85.0692 419.782 85.7909 419.583 86.4819Z" fill="#00A0DC"/>
<path opacity="0.6" d="M423.006 85.146C422.807 85.837 422.085 86.2208 421.394 86.0212C420.704 85.8216 420.32 85.0999 420.519 84.4089C420.719 83.7179 421.44 83.334 422.131 83.5337C422.822 83.7333 423.206 84.455 423.006 85.146Z" fill="#00A0DC"/>
<path opacity="0.5" d="M427.842 97.0923L413.642 102.712L412.782 99.9177L426.982 94.313L427.842 97.0923Z" fill="#00A0DC"/>
<path opacity="0.2" d="M349.489 310.517C349.182 322.095 348.322 330.986 346.91 337.159C345.098 345.052 342.289 350.825 338.467 354.48C334.659 358.134 330.146 359.962 324.942 359.962C317.051 359.962 311.018 355.662 306.873 347.048C306.198 345.65 305.584 344.054 305.016 342.272C296.25 349.812 288.083 358.042 280.577 366.887L272.425 376.5C276.831 380.968 281.835 384.638 287.423 387.54C296.987 392.485 309.529 394.972 325.065 394.972C327.797 394.972 330.438 394.895 333.001 394.742C342.396 380.83 350.18 365.874 356.182 350.18L378.979 290.724L349.489 310.517Z" fill="black"/>
<path d="M143.98 391.579C152.577 400.178 170.845 418.451 170.845 418.451L246.082 347.555C220.2 337.712 169.724 365.828 143.98 391.579Z" fill="#263238"/>
<path d="M237.685 485.293C229.088 476.694 210.82 458.421 210.82 458.421L281.697 383.164C291.522 409.053 263.429 459.542 237.685 485.293Z" fill="#263238"/>
<path d="M340.493 315.938L369.799 259.415L313.29 288.728C295.13 298.141 278.381 310.041 263.491 324.061L167.161 414.765L214.489 462.106L305.169 365.751C319.201 350.856 331.083 334.088 340.493 315.938Z" fill="#00A0DC"/>
<path opacity="0.6" d="M340.493 315.938L369.799 259.415L313.29 288.728C295.13 298.141 278.381 310.041 263.491 324.061L167.161 414.765L214.489 462.106L305.169 365.751C319.201 350.856 331.083 334.088 340.493 315.938Z" fill="white"/>
<path d="M280.316 368.73C291.253 368.73 300.119 359.861 300.119 348.921C300.119 337.981 291.253 329.113 280.316 329.113C269.379 329.113 260.512 337.981 260.512 348.921C260.512 359.861 269.379 368.73 280.316 368.73Z" fill="white"/>
<path d="M280.316 361.651C287.344 361.651 293.042 355.952 293.042 348.922C293.042 341.891 287.344 336.192 280.316 336.192C273.287 336.192 267.589 341.891 267.589 348.922C267.589 355.952 273.287 361.651 280.316 361.651Z" fill="#00A0DC"/>
<path opacity="0.3" d="M230.501 445.093L184.17 398.75L222.103 363.033L266.208 407.149L230.501 445.093Z" fill="#00A0DC"/>
<path d="M154.481 434.037C119.787 436.862 108.288 459.081 104.358 488.61C102.363 503.674 101.472 518.906 88.8229 527.735C85.3074 530.177 87.0575 535.643 91.3252 535.505C137.901 534.047 159.623 511.244 162.356 501.693C161.419 507.727 160.053 512.503 158.533 516.234C156.968 520.088 161.204 523.651 164.72 521.44C177.799 513.24 194.195 498.176 195.284 473.715C185.613 460.125 154.481 434.037 154.481 434.037Z" fill="#00A0DC"/>
<path opacity="0.2" d="M154.481 434.037C119.787 436.862 108.288 459.081 104.358 488.61C102.363 503.674 101.472 518.906 88.8229 527.735C85.3074 530.177 87.0575 535.643 91.3252 535.505C137.901 534.047 159.623 511.244 162.356 501.693C161.419 507.727 160.053 512.503 158.533 516.234C156.968 520.088 161.204 523.651 164.72 521.44C177.799 513.24 194.195 498.176 195.284 473.715C185.613 460.125 154.481 434.037 154.481 434.037Z" fill="white"/>
<path d="M200.611 484.234L145.055 428.647L174.652 422.244L207.013 454.613L200.611 484.234Z" fill="#00A0DC"/>
</g>
<defs>
<clipPath id="clip0_3435_3176">
<rect width="646" height="599" fill="white"/>
</clipPath>
</defs>
</svg>
