<svg width="223" height="259" viewBox="0 0 223 259" fill="none" xmlns="http://www.w3.org/2000/svg">
<g opacity="0.5">
<path d="M7.88339 250.961C24.8728 250.205 82.669 251.485 100.247 251.984C117.824 252.483 138.228 251.326 148.826 249.624C159.425 247.922 220.688 249.769 217.908 254.345C215.128 258.921 190.613 256.392 162.811 258.231C135.01 260.07 72.4845 258.002 58.3812 258.231C44.2771 258.461 31.3445 257.771 13.1689 256.852C-5.00677 255.933 -1.96538 251.398 7.88339 250.961Z" fill="#CCE2FF"/>
<path d="M132.181 134.734C132.032 135.958 131.974 137.178 132.012 138.372C132.162 142.905 134.261 148.315 138.523 150.515C143.834 153.257 150.506 150.41 156.082 152.224C164.719 155.034 171.899 166.443 181.711 160.17C188.946 155.544 191.569 144.462 190.036 136.488C187.344 122.48 174.633 111.839 160.414 111.313C151.294 110.975 142.303 114.307 137.051 121.892C134.522 125.543 132.733 130.173 132.181 134.734Z" fill="#F4F7FD"/>
<path d="M1.06793 252.781H214.071H214.415C220.925 229.735 223.513 204.048 221.392 179.099C220.298 166.237 217.843 153.076 212.111 143.638C208.477 137.656 203.732 133.533 198.79 130.576C186.669 123.324 172.93 122.789 160.59 129.092C152.479 133.236 144.311 140.329 135.939 137.715C132.291 136.576 128.981 133.644 125.909 130.387C109.484 112.976 96.9108 84.4804 77.4778 77.9215C64.9104 73.6797 51.5164 79.9539 41.0551 91.5713C30.5938 103.189 22.7661 119.703 16.4719 137.119C3.76061 172.295 -2.70167 212.874 1.06793 252.781Z" fill="#F4F7FD"/>
<mask id="mask0_3536_3249" style="mask-type:luminance" maskUnits="userSpaceOnUse" x="0" y="76" width="223" height="177">
<path d="M1.06793 252.781H214.071H214.415C220.925 229.735 223.513 204.048 221.392 179.099C220.298 166.237 217.843 153.076 212.111 143.638C208.477 137.656 203.732 133.533 198.79 130.576C186.669 123.324 172.93 122.789 160.59 129.092C152.479 133.236 144.311 140.329 135.939 137.715C132.291 136.576 128.981 133.644 125.909 130.387C109.484 112.976 96.9108 84.4804 77.4778 77.9215C64.9104 73.6797 51.5164 79.9539 41.0551 91.5713C30.5938 103.189 22.7661 119.703 16.4719 137.119C3.76061 172.295 -2.70167 212.874 1.06793 252.781Z" fill="white"/>
</mask>
<g mask="url(#mask0_3536_3249)">
<path opacity="0.1" d="M180.418 160.251C169.65 170.595 160.774 184.954 151.837 198.884C146.321 207.481 140.486 216.221 133.122 220.286C127.657 223.302 121.722 223.515 115.93 223.037C105.898 222.21 95.9348 219.402 86.3556 214.704C74.6671 208.97 63.5805 200.452 51.7668 195.375C34.3479 187.888 15.5702 188.196 -1.74359 196.251C-2.28083 217.386 -2.89806 238.571 -3.4353 259.707C11.7166 261.517 26.9235 259.04 42.0924 257.623C96.0358 252.586 150.025 260.962 203.99 258.053C211.027 257.675 218.237 257.604 225.229 256.254C225.478 254.444 225.359 252.336 225.391 250.48C225.428 248.384 225.455 246.289 225.472 244.194C225.507 240.004 225.503 235.812 225.46 231.622C225.374 223.241 225.134 214.863 224.741 206.504C224.087 192.627 223.008 178.798 221.508 165.08C221.097 161.324 220.635 157.545 219.764 153.97C219.209 151.687 218.498 148.66 216.85 147.835C215.383 147.099 213.518 147.328 211.993 147.094C209.628 146.734 207.244 146.722 204.876 147.015C196.181 148.091 187.796 153.164 180.418 160.251Z" fill="#3C94F8"/>
</g>
<g opacity="0.5">
<path d="M208.101 75.4547H107.423C106.332 75.4547 105.447 74.5714 105.447 73.4819V6.91102C105.447 5.82153 106.332 4.93823 107.423 4.93823H208.101C209.192 4.93823 210.077 5.82153 210.077 6.91102V73.4827C210.077 74.5722 209.192 75.4547 208.101 75.4547Z" fill="#CCE6FF"/>
<mask id="mask1_3536_3249" style="mask-type:luminance" maskUnits="userSpaceOnUse" x="105" y="4" width="106" height="72">
<path d="M208.101 75.4547H107.423C106.332 75.4547 105.447 74.5714 105.447 73.4819V6.91102C105.447 5.82153 106.332 4.93823 107.423 4.93823H208.101C209.192 4.93823 210.077 5.82153 210.077 6.91102V73.4827C210.077 74.5722 209.192 75.4547 208.101 75.4547Z" fill="white"/>
</mask>
<g mask="url(#mask1_3536_3249)">
<path d="M214.819 0.929199H100.299V12.6356H214.819V0.929199Z" fill="#102A54"/>
</g>
<path d="M110.985 10.5429C111.776 10.5429 112.417 9.90298 112.417 9.11361C112.417 8.32424 111.776 7.68433 110.985 7.68433C110.195 7.68433 109.554 8.32424 109.554 9.11361C109.554 9.90298 110.195 10.5429 110.985 10.5429Z" fill="#3C94F8"/>
<path d="M116.184 10.5429C116.974 10.5429 117.615 9.90298 117.615 9.11361C117.615 8.32424 116.974 7.68433 116.184 7.68433C115.393 7.68433 114.752 8.32424 114.752 9.11361C114.752 9.90298 115.393 10.5429 116.184 10.5429Z" fill="white"/>
<path d="M121.381 10.5429C122.171 10.5429 122.812 9.90298 122.812 9.11361C122.812 8.32424 122.171 7.68433 121.381 7.68433C120.59 7.68433 119.95 8.32424 119.95 9.11361C119.95 9.90298 120.59 10.5429 121.381 10.5429Z" fill="white"/>
<path d="M206.748 74.7807H107.105C105.661 74.7807 104.488 73.6079 104.488 72.1671V6.6296C104.488 5.18795 105.662 4.01599 107.105 4.01599H206.748C208.192 4.01599 209.365 5.18878 209.365 6.6296V72.1662C209.365 73.6079 208.191 74.7807 206.748 74.7807ZM107.105 4.26341C105.798 4.26341 104.735 5.32486 104.735 6.6296V72.1662C104.735 73.471 105.798 74.5324 107.105 74.5324H206.748C208.054 74.5324 209.117 73.471 209.117 72.1662V6.6296C209.117 5.32486 208.054 4.26341 206.748 4.26341H107.105Z" fill="#102A54"/>
<path d="M137.249 68.6296H111.116C110.553 68.6296 110.098 68.1743 110.098 67.6135V19.9623C110.098 19.4006 110.554 18.9462 111.116 18.9462H137.249C137.811 18.9462 138.267 19.4014 138.267 19.9623V67.6126C138.267 68.1743 137.811 68.6296 137.249 68.6296Z" fill="#F4F7FD"/>
<path d="M122.284 35.181H112.266C112.008 35.181 111.798 34.9723 111.798 34.7142V21.6997C111.798 21.4424 112.007 21.2329 112.266 21.2329H122.283C122.541 21.2329 122.75 21.4416 122.75 21.6997V34.715C122.75 34.9723 122.541 35.181 122.284 35.181Z" fill="#CCE6FF"/>
<path d="M125.549 22.9805C126.032 22.9805 126.423 22.5894 126.423 22.107C126.423 21.6247 126.032 21.2336 125.549 21.2336C125.066 21.2336 124.674 21.6247 124.674 22.107C124.674 22.5894 125.066 22.9805 125.549 22.9805Z" fill="#CCE6FF"/>
<path d="M136.586 21.7927H128.19C128.087 21.7927 128.003 21.7094 128.003 21.6063C128.003 21.5032 128.087 21.4199 128.19 21.4199H136.586C136.69 21.4199 136.773 21.5032 136.773 21.6063C136.773 21.7094 136.689 21.7927 136.586 21.7927Z" fill="#CCE6FF"/>
<path d="M136.586 22.7939H128.19C128.087 22.7939 128.003 22.7106 128.003 22.6075C128.003 22.5044 128.087 22.4211 128.19 22.4211H136.586C136.69 22.4211 136.773 22.5044 136.773 22.6075C136.773 22.7106 136.689 22.7939 136.586 22.7939Z" fill="#CCE6FF"/>
<path d="M136.586 23.7937H128.19C128.087 23.7937 128.003 23.7104 128.003 23.6073C128.003 23.5042 128.087 23.4209 128.19 23.4209H136.586C136.69 23.4209 136.773 23.5042 136.773 23.6073C136.773 23.7104 136.689 23.7937 136.586 23.7937Z" fill="#CCE6FF"/>
<path d="M126.409 25.9053C126.498 25.4314 126.186 24.9745 125.712 24.885C125.237 24.7955 124.779 25.1072 124.69 25.5811C124.6 26.0551 124.912 26.5119 125.387 26.6014C125.862 26.691 126.319 26.3793 126.409 25.9053Z" fill="#CCE6FF"/>
<path d="M136.586 25.4267H128.19C128.087 25.4267 128.003 25.3434 128.003 25.2403C128.003 25.1373 128.087 25.054 128.19 25.054H136.586C136.69 25.054 136.773 25.1373 136.773 25.2403C136.773 25.3434 136.689 25.4267 136.586 25.4267Z" fill="#CCE6FF"/>
<path d="M136.586 26.4277H128.19C128.087 26.4277 128.003 26.3444 128.003 26.2413C128.003 26.1382 128.087 26.0549 128.19 26.0549H136.586C136.69 26.0549 136.773 26.1382 136.773 26.2413C136.773 26.3444 136.689 26.4277 136.586 26.4277Z" fill="#CCE6FF"/>
<path d="M136.586 27.4277H128.19C128.087 27.4277 128.003 27.3444 128.003 27.2413C128.003 27.1382 128.087 27.0549 128.19 27.0549H136.586C136.69 27.0549 136.773 27.1382 136.773 27.2413C136.773 27.3444 136.689 27.4277 136.586 27.4277Z" fill="#CCE6FF"/>
<path d="M126.409 29.5391C126.498 29.0651 126.186 28.6083 125.712 28.5188C125.237 28.4293 124.78 28.7409 124.69 29.2149C124.6 29.6889 124.912 30.1457 125.387 30.2352C125.862 30.3248 126.319 30.0131 126.409 29.5391Z" fill="#CCE6FF"/>
<path d="M136.586 29.0607H128.19C128.087 29.0607 128.003 28.9774 128.003 28.8743C128.003 28.7712 128.087 28.6879 128.19 28.6879H136.586C136.69 28.6879 136.773 28.7712 136.773 28.8743C136.773 28.9765 136.689 29.0607 136.586 29.0607Z" fill="#CCE6FF"/>
<path d="M136.586 30.0607H128.19C128.087 30.0607 128.003 29.9774 128.003 29.8743C128.003 29.7712 128.087 29.6879 128.19 29.6879H136.586C136.69 29.6879 136.773 29.7712 136.773 29.8743C136.773 29.9765 136.689 30.0607 136.586 30.0607Z" fill="#CCE6FF"/>
<path d="M136.586 31.0616H128.19C128.087 31.0616 128.003 30.9783 128.003 30.8752C128.003 30.7721 128.087 30.6888 128.19 30.6888H136.586C136.69 30.6888 136.773 30.7721 136.773 30.8752C136.773 30.9775 136.689 31.0616 136.586 31.0616Z" fill="#CCE6FF"/>
<path d="M125.996 33.7608C126.412 33.5158 126.551 32.9803 126.305 32.5648C126.06 32.1493 125.524 32.0111 125.108 32.2561C124.692 32.5012 124.553 33.0367 124.799 33.4522C125.044 33.8677 125.58 34.0059 125.996 33.7608Z" fill="#CCE6FF"/>
<path d="M136.586 32.694H128.19C128.087 32.694 128.003 32.6107 128.003 32.5076C128.003 32.4045 128.087 32.3212 128.19 32.3212H136.586C136.69 32.3212 136.773 32.4045 136.773 32.5076C136.773 32.6107 136.689 32.694 136.586 32.694Z" fill="#CCE6FF"/>
<path d="M136.586 33.6938H128.19C128.087 33.6938 128.003 33.6105 128.003 33.5074C128.003 33.4043 128.087 33.321 128.19 33.321H136.586C136.69 33.321 136.773 33.4043 136.773 33.5074C136.773 33.6105 136.689 33.6938 136.586 33.6938Z" fill="#CCE6FF"/>
<path d="M136.586 34.6948H128.19C128.087 34.6948 128.003 34.6115 128.003 34.5084C128.003 34.4053 128.087 34.322 128.19 34.322H136.586C136.69 34.322 136.773 34.4053 136.773 34.5084C136.773 34.6115 136.689 34.6948 136.586 34.6948Z" fill="#CCE6FF"/>
<path d="M122.18 50.5937H112.162C111.905 50.5937 111.695 50.385 111.695 50.1269V37.1124C111.695 36.8551 111.904 36.6456 112.162 36.6456H122.179C122.437 36.6456 122.647 36.8543 122.647 37.1124V50.1277C122.647 50.385 122.438 50.5937 122.18 50.5937Z" fill="#CCE6FF"/>
<path d="M125.445 38.3924C125.928 38.3924 126.319 38.0014 126.319 37.519C126.319 37.0367 125.928 36.6456 125.445 36.6456C124.961 36.6456 124.57 37.0367 124.57 37.519C124.57 38.0014 124.961 38.3924 125.445 38.3924Z" fill="#CCE6FF"/>
<path d="M136.481 37.2055H128.086C127.983 37.2055 127.899 37.1222 127.899 37.0192C127.899 36.9161 127.983 36.8328 128.086 36.8328H136.482C136.585 36.8328 136.669 36.9161 136.669 37.0192C136.669 37.1222 136.585 37.2055 136.481 37.2055Z" fill="#CCE6FF"/>
<path d="M136.481 38.2065H128.086C127.983 38.2065 127.899 38.1232 127.899 38.0201C127.899 37.917 127.983 37.8337 128.086 37.8337H136.482C136.585 37.8337 136.669 37.917 136.669 38.0201C136.669 38.1232 136.585 38.2065 136.481 38.2065Z" fill="#CCE6FF"/>
<path d="M136.481 39.2064H128.086C127.983 39.2064 127.899 39.1231 127.899 39.02C127.899 38.9169 127.983 38.8336 128.086 38.8336H136.482C136.585 38.8336 136.669 38.9169 136.669 39.02C136.669 39.1231 136.585 39.2064 136.481 39.2064Z" fill="#CCE6FF"/>
<path d="M126.296 41.3522C126.406 40.8826 126.115 40.4125 125.644 40.3022C125.174 40.1919 124.703 40.4831 124.593 40.9527C124.482 41.4223 124.774 41.8924 125.244 42.0027C125.715 42.113 126.185 41.8218 126.296 41.3522Z" fill="#CCE6FF"/>
<path d="M136.481 40.8396H128.086C127.983 40.8396 127.899 40.7563 127.899 40.6532C127.899 40.5501 127.983 40.4668 128.086 40.4668H136.482C136.586 40.4668 136.669 40.5501 136.669 40.6532C136.669 40.7555 136.585 40.8396 136.481 40.8396Z" fill="#CCE6FF"/>
<path d="M136.481 41.8403H128.086C127.983 41.8403 127.899 41.757 127.899 41.6539C127.899 41.5508 127.983 41.4675 128.086 41.4675H136.482C136.586 41.4675 136.669 41.5508 136.669 41.6539C136.669 41.7562 136.585 41.8403 136.481 41.8403Z" fill="#CCE6FF"/>
<path d="M136.481 42.8404H128.086C127.983 42.8404 127.899 42.7571 127.899 42.654C127.899 42.551 127.983 42.4677 128.086 42.4677H136.482C136.586 42.4677 136.669 42.551 136.669 42.654C136.669 42.7563 136.585 42.8404 136.481 42.8404Z" fill="#CCE6FF"/>
<path d="M126.296 44.986C126.407 44.5164 126.115 44.0463 125.645 43.936C125.174 43.8257 124.704 44.1169 124.593 44.5865C124.483 45.0561 124.774 45.5262 125.245 45.6365C125.715 45.7468 126.186 45.4556 126.296 44.986Z" fill="#CCE6FF"/>
<path d="M136.481 44.4728H128.086C127.983 44.4728 127.899 44.3895 127.899 44.2864C127.899 44.1833 127.983 44.1 128.086 44.1H136.482C136.586 44.1 136.669 44.1833 136.669 44.2864C136.669 44.3895 136.585 44.4728 136.481 44.4728Z" fill="#CCE6FF"/>
<path d="M136.481 45.4736H128.086C127.983 45.4736 127.899 45.3903 127.899 45.2872C127.899 45.1841 127.983 45.1008 128.086 45.1008H136.482C136.586 45.1008 136.669 45.1841 136.669 45.2872C136.669 45.3903 136.585 45.4736 136.481 45.4736Z" fill="#CCE6FF"/>
<path d="M136.481 46.4735H128.086C127.983 46.4735 127.899 46.3902 127.899 46.2871C127.899 46.184 127.983 46.1007 128.086 46.1007H136.482C136.586 46.1007 136.669 46.184 136.669 46.2871C136.669 46.3902 136.585 46.4735 136.481 46.4735Z" fill="#CCE6FF"/>
<path d="M126.062 49.0374C126.404 48.6963 126.404 48.1433 126.062 47.8022C125.721 47.4611 125.167 47.4611 124.826 47.8022C124.484 48.1433 124.484 48.6963 124.826 49.0374C125.167 49.3785 125.721 49.3785 126.062 49.0374Z" fill="#CCE6FF"/>
<path d="M136.481 48.1063H128.086C127.983 48.1063 127.899 48.023 127.899 47.9199C127.899 47.8168 127.983 47.7335 128.086 47.7335H136.482C136.585 47.7335 136.669 47.8168 136.669 47.9199C136.669 48.023 136.585 48.1063 136.481 48.1063Z" fill="#CCE6FF"/>
<path d="M136.481 49.1074H128.086C127.983 49.1074 127.899 49.0241 127.899 48.921C127.899 48.8179 127.983 48.7346 128.086 48.7346H136.482C136.585 48.7346 136.669 48.8179 136.669 48.921C136.669 49.0241 136.585 49.1074 136.481 49.1074Z" fill="#CCE6FF"/>
<path d="M136.481 50.1073H128.086C127.983 50.1073 127.899 50.024 127.899 49.9209C127.899 49.8178 127.983 49.7345 128.086 49.7345H136.482C136.585 49.7345 136.669 49.8178 136.669 49.9209C136.669 50.024 136.585 50.1073 136.481 50.1073Z" fill="#CCE6FF"/>
<path d="M122.076 66.0054H112.058C111.8 66.0054 111.591 65.7968 111.591 65.5386V52.5242C111.591 52.2669 111.8 52.0574 112.058 52.0574H122.075C122.333 52.0574 122.542 52.266 122.542 52.5242V65.5395C122.542 65.7968 122.334 66.0054 122.076 66.0054Z" fill="#CCE6FF"/>
<path d="M125.341 53.8049C125.824 53.8049 126.216 53.4139 126.216 52.9315C126.216 52.4491 125.824 52.0581 125.341 52.0581C124.858 52.0581 124.466 52.4491 124.466 52.9315C124.466 53.4139 124.858 53.8049 125.341 53.8049Z" fill="#CCE6FF"/>
<path d="M136.378 52.6192H127.982C127.879 52.6192 127.796 52.5359 127.796 52.4329C127.796 52.3298 127.879 52.2465 127.982 52.2465H136.379C136.482 52.2465 136.565 52.3298 136.565 52.4329C136.565 52.5351 136.481 52.6192 136.378 52.6192Z" fill="#CCE6FF"/>
<path d="M136.378 53.619H127.982C127.879 53.619 127.796 53.5357 127.796 53.4326C127.796 53.3295 127.879 53.2462 127.982 53.2462H136.379C136.482 53.2462 136.565 53.3295 136.565 53.4326C136.565 53.5349 136.481 53.619 136.378 53.619Z" fill="#CCE6FF"/>
<path d="M136.378 54.619H127.982C127.879 54.619 127.796 54.5357 127.796 54.4326C127.796 54.3295 127.879 54.2462 127.982 54.2462H136.379C136.482 54.2462 136.565 54.3295 136.565 54.4326C136.565 54.5349 136.481 54.619 136.378 54.619Z" fill="#CCE6FF"/>
<path d="M126.192 56.7643C126.302 56.2947 126.011 55.8246 125.54 55.7143C125.07 55.604 124.599 55.8952 124.489 56.3648C124.378 56.8344 124.67 57.3045 125.14 57.4148C125.611 57.5252 126.081 57.2339 126.192 56.7643Z" fill="#CCE6FF"/>
<path d="M136.378 56.2512H127.982C127.879 56.2512 127.796 56.1679 127.796 56.0648C127.796 55.9617 127.879 55.8784 127.982 55.8784H136.379C136.482 55.8784 136.565 55.9617 136.565 56.0648C136.565 56.1679 136.481 56.2512 136.378 56.2512Z" fill="#CCE6FF"/>
<path d="M136.378 57.2523H127.982C127.879 57.2523 127.796 57.169 127.796 57.0659C127.796 56.9628 127.879 56.8795 127.982 56.8795H136.379C136.482 56.8795 136.565 56.9628 136.565 57.0659C136.565 57.169 136.481 57.2523 136.378 57.2523Z" fill="#CCE6FF"/>
<path d="M136.378 58.2522H127.982C127.879 58.2522 127.796 58.1689 127.796 58.0658C127.796 57.9627 127.879 57.8794 127.982 57.8794H136.379C136.482 57.8794 136.565 57.9627 136.565 58.0658C136.565 58.1689 136.481 58.2522 136.378 58.2522Z" fill="#CCE6FF"/>
<path d="M126.191 60.3979C126.302 59.9283 126.01 59.4582 125.54 59.3479C125.07 59.2375 124.599 59.5288 124.488 59.9984C124.378 60.468 124.67 60.9381 125.14 61.0484C125.61 61.1587 126.081 60.8675 126.191 60.3979Z" fill="#CCE6FF"/>
<path d="M136.378 59.8855H127.982C127.879 59.8855 127.796 59.8022 127.796 59.6991C127.796 59.596 127.879 59.5127 127.982 59.5127H136.379C136.482 59.5127 136.565 59.596 136.565 59.6991C136.565 59.8022 136.481 59.8855 136.378 59.8855Z" fill="#CCE6FF"/>
<path d="M136.378 60.8861H127.982C127.879 60.8861 127.796 60.8028 127.796 60.6997C127.796 60.5966 127.879 60.5133 127.982 60.5133H136.379C136.482 60.5133 136.565 60.5966 136.565 60.6997C136.565 60.8028 136.481 60.8861 136.378 60.8861Z" fill="#CCE6FF"/>
<path d="M136.378 61.8861H127.982C127.879 61.8861 127.796 61.8028 127.796 61.6997C127.796 61.5966 127.879 61.5133 127.982 61.5133H136.379C136.482 61.5133 136.565 61.5966 136.565 61.6997C136.565 61.8028 136.481 61.8861 136.378 61.8861Z" fill="#CCE6FF"/>
<path d="M125.958 64.451C126.3 64.1099 126.3 63.5569 125.958 63.2158C125.617 62.8747 125.063 62.8747 124.721 63.2158C124.38 63.5569 124.38 64.1099 124.721 64.451C125.063 64.792 125.617 64.792 125.958 64.451Z" fill="#CCE6FF"/>
<path d="M136.378 63.5194H127.982C127.879 63.5194 127.796 63.4361 127.796 63.333C127.796 63.2299 127.879 63.1466 127.982 63.1466H136.379C136.482 63.1466 136.565 63.2299 136.565 63.333C136.565 63.4353 136.481 63.5194 136.378 63.5194Z" fill="#CCE6FF"/>
<path d="M136.378 64.5202H127.982C127.879 64.5202 127.796 64.4369 127.796 64.3339C127.796 64.2308 127.879 64.1475 127.982 64.1475H136.379C136.482 64.1475 136.565 64.2308 136.565 64.3339C136.565 64.4361 136.481 64.5202 136.378 64.5202Z" fill="#CCE6FF"/>
<path d="M136.378 65.5202H127.982C127.879 65.5202 127.796 65.4369 127.796 65.3339C127.796 65.2308 127.879 65.1475 127.982 65.1475H136.379C136.482 65.1475 136.565 65.2308 136.565 65.3339C136.565 65.4361 136.481 65.5202 136.378 65.5202Z" fill="#CCE6FF"/>
<path d="M120.578 28.4676H113.806C113.591 28.4676 113.416 28.2936 113.416 28.0783V22.7769C113.416 22.5616 113.591 22.3876 113.806 22.3876H120.578C120.794 22.3876 120.968 22.5616 120.968 22.7769V28.0783C120.968 28.2936 120.794 28.4676 120.578 28.4676Z" fill="#F4F7FD"/>
<path d="M120.736 29.8736H113.649C113.521 29.8736 113.416 29.7697 113.416 29.6418V29.6055C113.416 29.4777 113.521 29.3738 113.649 29.3738H120.736C120.864 29.3738 120.968 29.4777 120.968 29.6055V29.6418C120.968 29.7705 120.864 29.8736 120.736 29.8736Z" fill="#F4F7FD"/>
<path d="M120.736 30.9381H113.649C113.521 30.9381 113.416 30.8342 113.416 30.7064V30.6701C113.416 30.5423 113.521 30.4384 113.649 30.4384H120.736C120.864 30.4384 120.968 30.5423 120.968 30.6701V30.7064C120.968 30.8351 120.864 30.9381 120.736 30.9381Z" fill="#F4F7FD"/>
<path d="M120.736 32.0021H113.649C113.521 32.0021 113.416 31.8982 113.416 31.7704V31.7341C113.416 31.6062 113.521 31.5023 113.649 31.5023H120.736C120.864 31.5023 120.968 31.6062 120.968 31.7341V31.7704C120.968 31.8982 120.864 32.0021 120.736 32.0021Z" fill="#F4F7FD"/>
<path d="M120.736 33.0667H113.649C113.521 33.0667 113.416 32.9628 113.416 32.8349V32.7986C113.416 32.6708 113.521 32.5669 113.649 32.5669H120.736C120.864 32.5669 120.968 32.6708 120.968 32.7986V32.8349C120.968 32.9628 120.864 33.0667 120.736 33.0667Z" fill="#F4F7FD"/>
<path d="M120.736 34.1299H113.649C113.521 34.1299 113.416 34.026 113.416 33.8982V33.8619C113.416 33.734 113.521 33.6301 113.649 33.6301H120.736C120.864 33.6301 120.968 33.734 120.968 33.8619V33.8982C120.968 34.026 120.864 34.1299 120.736 34.1299Z" fill="#F4F7FD"/>
<path d="M120.578 43.8284H113.806C113.591 43.8284 113.416 43.6544 113.416 43.4391V38.1377C113.416 37.9224 113.591 37.7484 113.806 37.7484H120.578C120.794 37.7484 120.968 37.9224 120.968 38.1377V43.4391C120.968 43.6536 120.794 43.8284 120.578 43.8284Z" fill="#F4F7FD"/>
<path d="M120.736 45.2358H113.649C113.521 45.2358 113.416 45.1318 113.416 45.004V44.9677C113.416 44.8399 113.521 44.736 113.649 44.736H120.736C120.864 44.736 120.968 44.8399 120.968 44.9677V45.004C120.968 45.1318 120.864 45.2358 120.736 45.2358Z" fill="#F4F7FD"/>
<path d="M120.736 46.2991H113.649C113.521 46.2991 113.416 46.1952 113.416 46.0674V46.0311C113.416 45.9032 113.521 45.7993 113.649 45.7993H120.736C120.864 45.7993 120.968 45.9032 120.968 46.0311V46.0674C120.968 46.1952 120.864 46.2991 120.736 46.2991Z" fill="#F4F7FD"/>
<path d="M120.736 47.3636H113.649C113.521 47.3636 113.416 47.2596 113.416 47.1318V47.0955C113.416 46.9677 113.521 46.8638 113.649 46.8638H120.736C120.864 46.8638 120.968 46.9677 120.968 47.0955V47.1318C120.968 47.2596 120.864 47.3636 120.736 47.3636Z" fill="#F4F7FD"/>
<path d="M120.736 48.4269H113.649C113.521 48.4269 113.416 48.323 113.416 48.1952V48.1589C113.416 48.031 113.521 47.9271 113.649 47.9271H120.736C120.864 47.9271 120.968 48.031 120.968 48.1589V48.1952C120.968 48.323 120.864 48.4269 120.736 48.4269Z" fill="#F4F7FD"/>
<path d="M120.736 49.4914H113.649C113.521 49.4914 113.416 49.3875 113.416 49.2596V49.2233C113.416 49.0955 113.521 48.9916 113.649 48.9916H120.736C120.864 48.9916 120.968 49.0955 120.968 49.2233V49.2596C120.968 49.3875 120.864 49.4914 120.736 49.4914Z" fill="#F4F7FD"/>
<path d="M120.578 59.19H113.806C113.591 59.19 113.416 59.016 113.416 58.8007V53.4993C113.416 53.284 113.591 53.11 113.806 53.11H120.578C120.794 53.11 120.968 53.284 120.968 53.4993V58.8007C120.968 59.016 120.794 59.19 120.578 59.19Z" fill="#F4F7FD"/>
<path d="M120.736 60.597H113.649C113.521 60.597 113.416 60.493 113.416 60.3652V60.3289C113.416 60.2011 113.521 60.0972 113.649 60.0972H120.736C120.864 60.0972 120.968 60.2011 120.968 60.3289V60.3652C120.968 60.493 120.864 60.597 120.736 60.597Z" fill="#F4F7FD"/>
<path d="M120.736 61.6613H113.649C113.521 61.6613 113.416 61.5574 113.416 61.4295V61.3933C113.416 61.2654 113.521 61.1615 113.649 61.1615H120.736C120.864 61.1615 120.968 61.2654 120.968 61.3933V61.4295C120.968 61.5574 120.864 61.6613 120.736 61.6613Z" fill="#F4F7FD"/>
<path d="M120.736 62.7246H113.649C113.521 62.7246 113.416 62.6207 113.416 62.4929V62.4566C113.416 62.3288 113.521 62.2249 113.649 62.2249H120.736C120.864 62.2249 120.968 62.3288 120.968 62.4566V62.4929C120.968 62.6207 120.864 62.7246 120.736 62.7246Z" fill="#F4F7FD"/>
<path d="M120.736 63.7891H113.649C113.521 63.7891 113.416 63.6852 113.416 63.5573V63.5211C113.416 63.3932 113.521 63.2893 113.649 63.2893H120.736C120.864 63.2893 120.968 63.3932 120.968 63.5211V63.5573C120.968 63.6852 120.864 63.7891 120.736 63.7891Z" fill="#F4F7FD"/>
<path d="M120.736 64.8523H113.649C113.521 64.8523 113.416 64.7484 113.416 64.6206V64.5843C113.416 64.4565 113.521 64.3525 113.649 64.3525H120.736C120.864 64.3525 120.968 64.4565 120.968 64.5843V64.6206C120.968 64.7484 120.864 64.8523 120.736 64.8523Z" fill="#F4F7FD"/>
<path d="M202.737 68.6296H176.604C176.042 68.6296 175.586 68.1743 175.586 67.6135V19.9623C175.586 19.4006 176.042 18.9462 176.604 18.9462H202.737C203.3 18.9462 203.755 19.4014 203.755 19.9623V67.6126C203.756 68.1743 203.3 68.6296 202.737 68.6296Z" fill="#F4F7FD"/>
<path d="M201.266 21.236H193.09C192.941 21.236 192.82 21.1156 192.82 20.9663C192.82 20.8171 192.941 20.6967 193.09 20.6967H201.266C201.415 20.6967 201.536 20.8171 201.536 20.9663C201.537 21.1148 201.415 21.236 201.266 21.236Z" fill="#CCE6FF"/>
<path d="M201.266 22.4698H193.09C192.941 22.4698 192.82 22.3494 192.82 22.2001C192.82 22.0508 192.941 21.9304 193.09 21.9304H201.266C201.415 21.9304 201.536 22.0508 201.536 22.2001C201.537 22.3486 201.415 22.4698 201.266 22.4698Z" fill="#CCE6FF"/>
<path d="M201.266 23.7036H193.09C192.941 23.7036 192.82 23.5832 192.82 23.4339C192.82 23.2846 192.941 23.1642 193.09 23.1642H201.266C201.415 23.1642 201.536 23.2846 201.536 23.4339C201.537 23.5823 201.415 23.7036 201.266 23.7036Z" fill="#CCE6FF"/>
<path d="M201.266 24.9373H193.09C192.941 24.9373 192.82 24.8169 192.82 24.6676C192.82 24.5184 192.941 24.3979 193.09 24.3979H201.266C201.415 24.3979 201.536 24.5184 201.536 24.6676C201.537 24.8161 201.415 24.9373 201.266 24.9373Z" fill="#CCE6FF"/>
<path d="M201.266 26.1704H193.09C192.941 26.1704 192.82 26.05 192.82 25.9007C192.82 25.7514 192.941 25.631 193.09 25.631H201.266C201.415 25.631 201.536 25.7514 201.536 25.9007C201.537 26.05 201.415 26.1704 201.266 26.1704Z" fill="#CCE6FF"/>
<path d="M201.266 27.404H193.09C192.941 27.404 192.82 27.2836 192.82 27.1343C192.82 26.985 192.941 26.8646 193.09 26.8646H201.266C201.415 26.8646 201.536 26.985 201.536 27.1343C201.537 27.2836 201.415 27.404 201.266 27.404Z" fill="#CCE6FF"/>
<path d="M201.266 28.6378H193.09C192.941 28.6378 192.82 28.5174 192.82 28.3681C192.82 28.2188 192.941 28.0984 193.09 28.0984H201.266C201.415 28.0984 201.536 28.2188 201.536 28.3681C201.537 28.5174 201.415 28.6378 201.266 28.6378Z" fill="#CCE6FF"/>
<path d="M201.266 52.0958H193.09C192.941 52.0958 192.82 51.9754 192.82 51.8261C192.82 51.6768 192.941 51.5564 193.09 51.5564H201.266C201.415 51.5564 201.536 51.6768 201.536 51.8261C201.537 51.9754 201.415 52.0958 201.266 52.0958Z" fill="#CCE6FF"/>
<path d="M201.266 53.3294H193.09C192.941 53.3294 192.82 53.209 192.82 53.0597C192.82 52.9105 192.941 52.79 193.09 52.79H201.266C201.415 52.79 201.536 52.9105 201.536 53.0597C201.537 53.209 201.415 53.3294 201.266 53.3294Z" fill="#CCE6FF"/>
<path d="M201.266 54.5632H193.09C192.941 54.5632 192.82 54.4428 192.82 54.2935C192.82 54.1442 192.941 54.0238 193.09 54.0238H201.266C201.415 54.0238 201.536 54.1442 201.536 54.2935C201.537 54.4428 201.415 54.5632 201.266 54.5632Z" fill="#CCE6FF"/>
<path d="M201.266 55.7969H193.09C192.941 55.7969 192.82 55.6765 192.82 55.5273C192.82 55.378 192.941 55.2576 193.09 55.2576H201.266C201.415 55.2576 201.536 55.378 201.536 55.5273C201.537 55.6765 201.415 55.7969 201.266 55.7969Z" fill="#CCE6FF"/>
<path d="M201.266 57.0307H193.09C192.941 57.0307 192.82 56.9103 192.82 56.761C192.82 56.6117 192.941 56.4913 193.09 56.4913H201.266C201.415 56.4913 201.536 56.6117 201.536 56.761C201.537 56.9103 201.415 57.0307 201.266 57.0307Z" fill="#CCE6FF"/>
<path d="M201.266 58.2646H193.09C192.941 58.2646 192.82 58.1442 192.82 57.9949C192.82 57.8456 192.941 57.7252 193.09 57.7252H201.266C201.415 57.7252 201.536 57.8456 201.536 57.9949C201.537 58.1442 201.415 58.2646 201.266 58.2646Z" fill="#CCE6FF"/>
<path d="M201.266 59.4984H193.09C192.941 59.4984 192.82 59.378 192.82 59.2287C192.82 59.0794 192.941 58.959 193.09 58.959H201.266C201.415 58.959 201.536 59.0794 201.536 59.2287C201.537 59.378 201.415 59.4984 201.266 59.4984Z" fill="#CCE6FF"/>
<path d="M201.266 60.8831H193.09C192.941 60.8831 192.82 60.7627 192.82 60.6134C192.82 60.4642 192.941 60.3438 193.09 60.3438H201.266C201.415 60.3438 201.536 60.4642 201.536 60.6134C201.537 60.7627 201.415 60.8831 201.266 60.8831Z" fill="#CCE6FF"/>
<path d="M201.266 62.1169H193.09C192.941 62.1169 192.82 61.9965 192.82 61.8472C192.82 61.6979 192.941 61.5775 193.09 61.5775H201.266C201.415 61.5775 201.536 61.6979 201.536 61.8472C201.537 61.9965 201.415 62.1169 201.266 62.1169Z" fill="#CCE6FF"/>
<path d="M201.266 63.3507H193.09C192.941 63.3507 192.82 63.2303 192.82 63.081C192.82 62.9317 192.941 62.8113 193.09 62.8113H201.266C201.415 62.8113 201.536 62.9317 201.536 63.081C201.537 63.2303 201.415 63.3507 201.266 63.3507Z" fill="#CCE6FF"/>
<path d="M201.266 64.5844H193.09C192.941 64.5844 192.82 64.464 192.82 64.3147C192.82 64.1655 192.941 64.045 193.09 64.045H201.266C201.415 64.045 201.536 64.1655 201.536 64.3147C201.537 64.464 201.415 64.5844 201.266 64.5844Z" fill="#CCE6FF"/>
<path d="M201.266 65.8182H193.09C192.941 65.8182 192.82 65.6978 192.82 65.5485C192.82 65.3992 192.941 65.2788 193.09 65.2788H201.266C201.415 65.2788 201.536 65.3992 201.536 65.5485C201.537 65.6978 201.415 65.8182 201.266 65.8182Z" fill="#CCE6FF"/>
<path d="M201.266 67.0532H193.09C192.941 67.0532 192.82 66.9328 192.82 66.7835C192.82 66.6342 192.941 66.5138 193.09 66.5138H201.266C201.415 66.5138 201.536 66.6342 201.536 66.7835C201.537 66.9328 201.415 67.0532 201.266 67.0532Z" fill="#CCE6FF"/>
<path d="M201.266 29.8715H193.09C192.941 29.8715 192.82 29.7511 192.82 29.6018C192.82 29.4526 192.941 29.3322 193.09 29.3322H201.266C201.415 29.3322 201.536 29.4526 201.536 29.6018C201.537 29.7511 201.415 29.8715 201.266 29.8715Z" fill="#CCE6FF"/>
<path d="M201.266 31.1053H193.09C192.941 31.1053 192.82 30.9849 192.82 30.8356C192.82 30.6863 192.941 30.5659 193.09 30.5659H201.266C201.415 30.5659 201.536 30.6863 201.536 30.8356C201.537 30.9849 201.415 31.1053 201.266 31.1053Z" fill="#CCE6FF"/>
<path d="M201.266 32.3391H193.09C192.941 32.3391 192.82 32.2187 192.82 32.0694C192.82 31.9201 192.941 31.7997 193.09 31.7997H201.266C201.415 31.7997 201.536 31.9201 201.536 32.0694C201.537 32.2187 201.415 32.3391 201.266 32.3391Z" fill="#CCE6FF"/>
<path d="M201.266 33.5728H193.09C192.941 33.5728 192.82 33.4524 192.82 33.3031C192.82 33.1539 192.941 33.0334 193.09 33.0334H201.266C201.415 33.0334 201.536 33.1539 201.536 33.3031C201.537 33.4524 201.415 33.5728 201.266 33.5728Z" fill="#CCE6FF"/>
<path d="M201.266 34.8067H193.09C192.941 34.8067 192.82 34.6863 192.82 34.537C192.82 34.3877 192.941 34.2673 193.09 34.2673H201.266C201.415 34.2673 201.536 34.3877 201.536 34.537C201.537 34.6863 201.415 34.8067 201.266 34.8067Z" fill="#CCE6FF"/>
<path d="M201.266 36.0405H193.09C192.941 36.0405 192.82 35.9201 192.82 35.7708C192.82 35.6215 192.941 35.5011 193.09 35.5011H201.266C201.415 35.5011 201.536 35.6215 201.536 35.7708C201.537 35.9201 201.415 36.0405 201.266 36.0405Z" fill="#CCE6FF"/>
<path d="M201.266 37.2741H193.09C192.941 37.2741 192.82 37.1537 192.82 37.0044C192.82 36.8552 192.941 36.7347 193.09 36.7347H201.266C201.415 36.7347 201.536 36.8552 201.536 37.0044C201.537 37.1537 201.415 37.2741 201.266 37.2741Z" fill="#CCE6FF"/>
<path d="M201.266 38.5079H193.09C192.941 38.5079 192.82 38.3875 192.82 38.2382C192.82 38.0889 192.941 37.9685 193.09 37.9685H201.266C201.415 37.9685 201.536 38.0889 201.536 38.2382C201.537 38.3875 201.415 38.5079 201.266 38.5079Z" fill="#CCE6FF"/>
<path d="M201.266 39.7418H193.09C192.941 39.7418 192.82 39.6214 192.82 39.4721C192.82 39.3228 192.941 39.2024 193.09 39.2024H201.266C201.415 39.2024 201.536 39.3228 201.536 39.4721C201.537 39.6205 201.415 39.7418 201.266 39.7418Z" fill="#CCE6FF"/>
<path d="M190.216 42.5363H178.076C177.926 42.5363 177.806 42.4159 177.806 42.2666C177.806 42.1174 177.926 41.9969 178.076 41.9969H190.216C190.366 41.9969 190.486 42.1174 190.486 42.2666C190.486 42.4159 190.365 42.5363 190.216 42.5363Z" fill="#CCE6FF"/>
<path d="M190.216 43.7701H178.076C177.926 43.7701 177.806 43.6497 177.806 43.5004C177.806 43.3511 177.926 43.2307 178.076 43.2307H190.216C190.366 43.2307 190.486 43.3511 190.486 43.5004C190.486 43.6497 190.365 43.7701 190.216 43.7701Z" fill="#CCE6FF"/>
<path d="M190.216 45.0039H178.076C177.926 45.0039 177.806 44.8834 177.806 44.7342C177.806 44.5849 177.926 44.4645 178.076 44.4645H190.216C190.366 44.4645 190.486 44.5849 190.486 44.7342C190.486 44.8834 190.365 45.0039 190.216 45.0039Z" fill="#CCE6FF"/>
<path d="M190.216 46.2376H178.076C177.926 46.2376 177.806 46.1172 177.806 45.9679C177.806 45.8187 177.926 45.6982 178.076 45.6982H190.216C190.366 45.6982 190.486 45.8187 190.486 45.9679C190.486 46.1172 190.365 46.2376 190.216 46.2376Z" fill="#CCE6FF"/>
<path d="M190.216 47.4714H178.076C177.926 47.4714 177.806 47.351 177.806 47.2017C177.806 47.0524 177.926 46.932 178.076 46.932H190.216C190.366 46.932 190.486 47.0524 190.486 47.2017C190.486 47.351 190.365 47.4714 190.216 47.4714Z" fill="#CCE6FF"/>
<path d="M190.216 48.7052H178.076C177.926 48.7052 177.806 48.5847 177.806 48.4355C177.806 48.2862 177.926 48.1658 178.076 48.1658H190.216C190.366 48.1658 190.486 48.2862 190.486 48.4355C190.486 48.5847 190.365 48.7052 190.216 48.7052Z" fill="#CCE6FF"/>
<path d="M190.216 49.939H178.076C177.926 49.939 177.806 49.8186 177.806 49.6694C177.806 49.5201 177.926 49.3997 178.076 49.3997H190.216C190.366 49.3997 190.486 49.5201 190.486 49.6694C190.486 49.8178 190.365 49.939 190.216 49.939Z" fill="#CCE6FF"/>
<path d="M190.216 51.1728H178.076C177.926 51.1728 177.806 51.0524 177.806 50.9031C177.806 50.7538 177.926 50.6334 178.076 50.6334H190.216C190.366 50.6334 190.486 50.7538 190.486 50.9031C190.486 51.0516 190.365 51.1728 190.216 51.1728Z" fill="#CCE6FF"/>
<path d="M190.216 52.4066H178.076C177.926 52.4066 177.806 52.2862 177.806 52.1369C177.806 51.9876 177.926 51.8672 178.076 51.8672H190.216C190.366 51.8672 190.486 51.9876 190.486 52.1369C190.486 52.2853 190.365 52.4066 190.216 52.4066Z" fill="#CCE6FF"/>
<path d="M190.216 53.6402H178.076C177.926 53.6402 177.806 53.5198 177.806 53.3705C177.806 53.2212 177.926 53.1008 178.076 53.1008H190.216C190.366 53.1008 190.486 53.2212 190.486 53.3705C190.486 53.519 190.365 53.6402 190.216 53.6402Z" fill="#CCE6FF"/>
<path d="M190.216 54.874H178.076C177.926 54.874 177.806 54.7536 177.806 54.6043C177.806 54.455 177.926 54.3346 178.076 54.3346H190.216C190.366 54.3346 190.486 54.455 190.486 54.6043C190.486 54.7527 190.365 54.874 190.216 54.874Z" fill="#CCE6FF"/>
<path d="M190.216 56.1077H178.076C177.926 56.1077 177.806 55.9873 177.806 55.8381C177.806 55.6888 177.926 55.5684 178.076 55.5684H190.216C190.366 55.5684 190.486 55.6888 190.486 55.8381C190.486 55.9865 190.365 56.1077 190.216 56.1077Z" fill="#CCE6FF"/>
<path d="M190.216 57.3416H178.076C177.926 57.3416 177.806 57.2212 177.806 57.0719C177.806 56.9227 177.926 56.8022 178.076 56.8022H190.216C190.366 56.8022 190.486 56.9227 190.486 57.0719C190.486 57.2204 190.365 57.3416 190.216 57.3416Z" fill="#CCE6FF"/>
<path d="M190.216 58.5745H178.076C177.926 58.5745 177.806 58.4541 177.806 58.3048C177.806 58.1556 177.926 58.0352 178.076 58.0352H190.216C190.366 58.0352 190.486 58.1556 190.486 58.3048C190.486 58.4541 190.365 58.5745 190.216 58.5745Z" fill="#CCE6FF"/>
<path d="M190.216 59.8083H178.076C177.926 59.8083 177.806 59.6879 177.806 59.5386C177.806 59.3893 177.926 59.2689 178.076 59.2689H190.216C190.366 59.2689 190.486 59.3893 190.486 59.5386C190.486 59.6879 190.365 59.8083 190.216 59.8083Z" fill="#CCE6FF"/>
<path d="M190.216 61.0421H178.076C177.926 61.0421 177.806 60.9217 177.806 60.7724C177.806 60.6231 177.926 60.5027 178.076 60.5027H190.216C190.366 60.5027 190.486 60.6231 190.486 60.7724C190.486 60.9217 190.365 61.0421 190.216 61.0421Z" fill="#CCE6FF"/>
<path d="M190.216 62.1958H178.076C177.926 62.1958 177.806 62.0753 177.806 61.9261C177.806 61.7768 177.926 61.6564 178.076 61.6564H190.216C190.366 61.6564 190.486 61.7768 190.486 61.9261C190.486 62.0745 190.365 62.1958 190.216 62.1958Z" fill="#CCE6FF"/>
<path d="M190.216 63.4287H178.076C177.926 63.4287 177.806 63.3083 177.806 63.159C177.806 63.0097 177.926 62.8893 178.076 62.8893H190.216C190.366 62.8893 190.486 63.0097 190.486 63.159C190.486 63.3083 190.365 63.4287 190.216 63.4287Z" fill="#CCE6FF"/>
<path d="M190.216 64.6625H178.076C177.926 64.6625 177.806 64.5421 177.806 64.3929C177.806 64.2436 177.926 64.1232 178.076 64.1232H190.216C190.366 64.1232 190.486 64.2436 190.486 64.3929C190.486 64.5421 190.365 64.6625 190.216 64.6625Z" fill="#CCE6FF"/>
<path d="M190.216 65.8964H178.076C177.926 65.8964 177.806 65.776 177.806 65.6267C177.806 65.4775 177.926 65.3571 178.076 65.3571H190.216C190.366 65.3571 190.486 65.4775 190.486 65.6267C190.486 65.776 190.365 65.8964 190.216 65.8964Z" fill="#CCE6FF"/>
<path d="M190.216 67.1302H178.076C177.926 67.1302 177.806 67.0098 177.806 66.8605C177.806 66.7112 177.926 66.5908 178.076 66.5908H190.216C190.366 66.5908 190.486 66.7112 190.486 66.8605C190.486 67.0098 190.365 67.1302 190.216 67.1302Z" fill="#CCE6FF"/>
<path d="M201.305 50.0062H193.052C192.924 50.0062 192.821 49.9023 192.821 49.7753V42.1612C192.821 42.0334 192.925 41.9303 193.052 41.9303H201.305C201.433 41.9303 201.536 42.0342 201.536 42.1612V49.7753C201.537 49.9023 201.433 50.0062 201.305 50.0062Z" fill="#CCE6FF"/>
<path d="M190.173 39.7425H178.117C177.944 39.7425 177.805 39.6031 177.805 39.4307V21.0084C177.805 20.836 177.944 20.6967 178.117 20.6967H190.173C190.346 20.6967 190.485 20.836 190.485 21.0084V39.4299C190.486 39.6023 190.346 39.7425 190.173 39.7425Z" fill="#CCE6FF"/>
<path d="M189.105 27.4035H179.187C179.083 27.4035 178.998 27.3194 178.998 27.2155V22.0707C178.998 21.9668 179.083 21.8827 179.187 21.8827H189.105C189.209 21.8827 189.294 21.9668 189.294 22.0707V27.2155C189.294 27.3194 189.209 27.4035 189.105 27.4035Z" fill="#F4F7FD"/>
<path d="M189.105 33.5959H179.186C179.082 33.5959 178.998 33.5118 178.998 33.4079V28.2631C178.998 28.1592 179.082 28.0751 179.186 28.0751H189.105C189.209 28.0751 189.293 28.1592 189.293 28.2631V33.4079C189.293 33.5118 189.209 33.5959 189.105 33.5959Z" fill="#F4F7FD"/>
<path d="M183.68 38.8512H179.16C179.07 38.8512 178.997 38.7778 178.997 38.6879V34.4314C178.997 34.3415 179.07 34.2681 179.16 34.2681H183.68C183.77 34.2681 183.843 34.3415 183.843 34.4314V38.6879C183.844 38.7778 183.77 38.8512 183.68 38.8512Z" fill="#F4F7FD"/>
<path d="M189.127 38.8512H184.494C184.402 38.8512 184.328 38.777 184.328 38.6855V34.4323C184.328 34.3407 184.402 34.2665 184.494 34.2665H189.127C189.219 34.2665 189.293 34.3407 189.293 34.4323V38.6855C189.293 38.777 189.219 38.8512 189.127 38.8512Z" fill="#F4F7FD"/>
<path d="M169.993 68.6296H143.86C143.297 68.6296 142.842 68.1743 142.842 67.6135V19.9623C142.842 19.4006 143.298 18.9462 143.86 18.9462H169.993C170.555 18.9462 171.01 19.4014 171.01 19.9623V67.6126C171.01 68.1743 170.555 68.6296 169.993 68.6296Z" fill="#F4F7FD"/>
<path d="M155.707 32.3207H145.544C145.284 32.3207 145.075 32.1112 145.075 31.8522V21.703C145.075 21.444 145.284 21.2345 145.544 21.2345H155.707C155.966 21.2345 156.176 21.444 156.176 21.703V31.8522C156.176 32.1112 155.966 32.3207 155.707 32.3207Z" fill="#CCE6FF"/>
<path d="M168.833 21.9083H160.955C160.819 21.9083 160.71 21.7986 160.71 21.6634V21.4794C160.71 21.3442 160.819 21.2345 160.955 21.2345H168.833C168.968 21.2345 169.078 21.3442 169.078 21.4794V21.6634C169.077 21.7994 168.967 21.9083 168.833 21.9083Z" fill="#CCE6FF"/>
<path d="M168.833 23.0834H160.955C160.819 23.0834 160.71 22.9737 160.71 22.8384V22.6545C160.71 22.5192 160.819 22.4095 160.955 22.4095H168.833C168.968 22.4095 169.078 22.5192 169.078 22.6545V22.8384C169.077 22.9737 168.967 23.0834 168.833 23.0834Z" fill="#CCE6FF"/>
<path d="M168.833 24.2578H160.955C160.819 24.2578 160.71 24.1481 160.71 24.0129V23.8289C160.71 23.6937 160.819 23.584 160.955 23.584H168.833C168.968 23.584 169.078 23.6937 169.078 23.8289V24.0129C169.077 24.1481 168.967 24.2578 168.833 24.2578Z" fill="#CCE6FF"/>
<path d="M168.833 25.4341H160.955C160.819 25.4341 160.71 25.3244 160.71 25.1891V25.0052C160.71 24.8699 160.819 24.7603 160.955 24.7603H168.833C168.968 24.7603 169.078 24.8699 169.078 25.0052V25.1891C169.077 25.3244 168.967 25.4341 168.833 25.4341Z" fill="#CCE6FF"/>
<path d="M168.833 26.6084H160.955C160.819 26.6084 160.71 26.4987 160.71 26.3634V26.1795C160.71 26.0443 160.819 25.9346 160.955 25.9346H168.833C168.968 25.9346 169.078 26.0443 169.078 26.1795V26.3634C169.077 26.4987 168.967 26.6084 168.833 26.6084Z" fill="#CCE6FF"/>
<path d="M168.833 27.7826H160.955C160.819 27.7826 160.71 27.6729 160.71 27.5376V27.3537C160.71 27.2185 160.819 27.1088 160.955 27.1088H168.833C168.968 27.1088 169.078 27.2185 169.078 27.3537V27.5376C169.077 27.6737 168.967 27.7826 168.833 27.7826Z" fill="#CCE6FF"/>
<path d="M168.833 28.9578H160.955C160.819 28.9578 160.71 28.8481 160.71 28.7128V28.5289C160.71 28.3936 160.819 28.2839 160.955 28.2839H168.833C168.968 28.2839 169.078 28.3936 169.078 28.5289V28.7128C169.077 28.8481 168.967 28.9578 168.833 28.9578Z" fill="#CCE6FF"/>
<path d="M168.833 30.1319H160.955C160.819 30.1319 160.71 30.0223 160.71 29.887V29.7031C160.71 29.5678 160.819 29.4581 160.955 29.4581H168.833C168.968 29.4581 169.078 29.5678 169.078 29.7031V29.887C169.077 30.0223 168.967 30.1319 168.833 30.1319Z" fill="#CCE6FF"/>
<path d="M168.833 31.3071H160.955C160.819 31.3071 160.71 31.1974 160.71 31.0622V30.8782C160.71 30.743 160.819 30.6333 160.955 30.6333H168.833C168.968 30.6333 169.078 30.743 169.078 30.8782V31.0622C169.077 31.1974 168.967 31.3071 168.833 31.3071Z" fill="#CCE6FF"/>
<path d="M168.833 32.4813H160.955C160.819 32.4813 160.71 32.3716 160.71 32.2364V32.0524C160.71 31.9172 160.819 31.8075 160.955 31.8075H168.833C168.968 31.8075 169.078 31.9172 169.078 32.0524V32.2364C169.077 32.3716 168.967 32.4813 168.833 32.4813Z" fill="#CCE6FF"/>
<path d="M158.295 22.9077C158.62 22.9077 158.883 22.6448 158.883 22.3205C158.883 21.9962 158.62 21.7333 158.295 21.7333C157.97 21.7333 157.707 21.9962 157.707 22.3205C157.707 22.6448 157.97 22.9077 158.295 22.9077Z" fill="#CCE6FF"/>
<path d="M158.295 27.5264C158.62 27.5264 158.883 27.2635 158.883 26.9391C158.883 26.6148 158.62 26.3519 158.295 26.3519C157.97 26.3519 157.707 26.6148 157.707 26.9391C157.707 27.2635 157.97 27.5264 158.295 27.5264Z" fill="#CCE6FF"/>
<path d="M158.884 31.5578C158.884 31.8819 158.621 32.145 158.296 32.145C157.971 32.145 157.708 31.8819 157.708 31.5578C157.708 31.2337 157.971 30.9706 158.296 30.9706C158.621 30.9698 158.884 31.2329 158.884 31.5578Z" fill="#CCE6FF"/>
<path d="M169.077 34.1309H145.075V35.5016H169.077V34.1309Z" fill="#CCE6FF"/>
<path d="M169.077 36.5076H145.075V37.8783H169.077V36.5076Z" fill="#CCE6FF"/>
<path d="M157.707 38.8851H145.075V40.2559H157.707V38.8851Z" fill="#CCE6FF"/>
<path d="M168.894 42.8406H145.257C145.156 42.8406 145.075 42.759 145.075 42.6584V42.2089C145.075 42.1083 145.156 42.0266 145.257 42.0266H168.894C168.995 42.0266 169.077 42.1083 169.077 42.2089V42.6584C169.077 42.759 168.995 42.8406 168.894 42.8406Z" fill="#CCE6FF"/>
<path d="M168.894 44.5065H145.257C145.156 44.5065 145.075 44.4249 145.075 44.3243V43.8748C145.075 43.7742 145.156 43.6925 145.257 43.6925H168.894C168.995 43.6925 169.077 43.7742 169.077 43.8748V44.3243C169.077 44.4249 168.995 44.5065 168.894 44.5065Z" fill="#CCE6FF"/>
<path d="M168.894 46.1724H145.257C145.156 46.1724 145.075 46.0908 145.075 45.9902V45.5407C145.075 45.44 145.156 45.3584 145.257 45.3584H168.894C168.995 45.3584 169.077 45.44 169.077 45.5407V45.9902C169.077 46.0908 168.995 46.1724 168.894 46.1724Z" fill="#CCE6FF"/>
<path d="M168.894 47.8392H145.257C145.156 47.8392 145.075 47.7575 145.075 47.6569V47.2074C145.075 47.1068 145.156 47.0251 145.257 47.0251H168.894C168.995 47.0251 169.077 47.1068 169.077 47.2074V47.6569C169.077 47.7575 168.995 47.8392 168.894 47.8392Z" fill="#CCE6FF"/>
<path d="M168.894 49.5052H145.257C145.156 49.5052 145.075 49.4235 145.075 49.3229V48.8734C145.075 48.7728 145.156 48.6912 145.257 48.6912H168.894C168.995 48.6912 169.077 48.7728 169.077 48.8734V49.3229C169.077 49.4235 168.995 49.5052 168.894 49.5052Z" fill="#CCE6FF"/>
<path d="M168.894 51.1718H145.257C145.156 51.1718 145.075 51.0902 145.075 50.9895V50.5401C145.075 50.4394 145.156 50.3578 145.257 50.3578H168.894C168.995 50.3578 169.077 50.4394 169.077 50.5401V50.9895C169.077 51.0902 168.995 51.1718 168.894 51.1718Z" fill="#CCE6FF"/>
<path d="M157.089 52.8377H145.204C145.132 52.8377 145.075 52.78 145.075 52.7082V52.154C145.075 52.0823 145.132 52.0245 145.204 52.0245H157.089C157.161 52.0245 157.219 52.0823 157.219 52.154V52.7082C157.219 52.78 157.161 52.8377 157.089 52.8377Z" fill="#CCE6FF"/>
<path d="M151.524 62.7224H145.729C145.368 62.7224 145.075 62.4297 145.075 62.0684V55.9084C145.075 55.5472 145.368 55.2544 145.729 55.2544H151.524C151.886 55.2544 152.179 55.5472 152.179 55.9084V62.0684C152.178 62.4297 151.885 62.7224 151.524 62.7224Z" fill="#CCE6FF"/>
<path d="M159.974 62.6928H154.179C153.817 62.6928 153.524 62.4 153.524 62.0388V55.8788C153.524 55.5175 153.817 55.2247 154.179 55.2247H159.974C160.336 55.2247 160.629 55.5175 160.629 55.8788V62.0388C160.628 62.4 160.335 62.6928 159.974 62.6928Z" fill="#CCE6FF"/>
<path d="M168.423 62.6607H162.628C162.266 62.6607 161.973 62.3679 161.973 62.0067V55.8466C161.973 55.4854 162.266 55.1926 162.628 55.1926H168.423C168.785 55.1926 169.078 55.4854 169.078 55.8466V62.0067C169.077 62.3679 168.784 62.6607 168.423 62.6607Z" fill="#CCE6FF"/>
<path d="M168.97 64.8533H145.182C145.122 64.8533 145.075 64.8055 145.075 64.7461V64.2546C145.075 64.1952 145.122 64.1473 145.182 64.1473H168.97C169.029 64.1473 169.077 64.1952 169.077 64.2546V64.7461C169.077 64.8055 169.029 64.8533 168.97 64.8533Z" fill="#CCE6FF"/>
<path d="M168.97 66.173H145.182C145.122 66.173 145.075 66.1252 145.075 66.0658V65.5743C145.075 65.5149 145.122 65.467 145.182 65.467H168.97C169.029 65.467 169.077 65.5149 169.077 65.5743V66.0658C169.077 66.1244 169.029 66.173 168.97 66.173Z" fill="#CCE6FF"/>
<path d="M159.348 67.491H145.158C145.112 67.491 145.075 67.4539 145.075 67.4077V66.8675C145.075 66.8213 145.112 66.7842 145.158 66.7842H159.348C159.395 66.7842 159.432 66.8213 159.432 66.8675V67.4077C159.431 67.4539 159.394 67.491 159.348 67.491Z" fill="#CCE6FF"/>
<path d="M114.795 39.563H96.0992C95.5797 39.563 95.1584 39.1424 95.1584 38.6237V26.391C95.1584 25.8723 95.5797 25.4517 96.0992 25.4517H114.795C115.314 25.4517 115.736 25.8723 115.736 26.391V38.6237C115.736 39.1424 115.314 39.563 114.795 39.563Z" fill="#3C94F8"/>
<path d="M100.458 33.7424C100.458 34.2364 100.384 34.6207 100.238 34.8946C99.9664 35.3943 99.4494 35.6442 98.6879 35.6442C98.2485 35.6442 97.8727 35.5255 97.5605 35.2871C97.2491 35.0496 97.093 34.6265 97.093 34.0179V33.5997H97.8397V34.0179C97.8397 34.337 97.9107 34.5762 98.0536 34.737C98.1965 34.8979 98.4186 34.9779 98.7201 34.9779C99.1438 34.9779 99.4213 34.8327 99.5518 34.5432C99.6319 34.3651 99.6716 34.0294 99.6716 33.5346V29.6327H100.458V33.7424Z" fill="#102A54"/>
<path d="M106.494 30.4689C106.882 30.9869 107.077 31.65 107.077 32.4582C107.077 33.3324 106.855 34.059 106.41 34.6388C105.888 35.3192 105.145 35.659 104.179 35.659C103.277 35.659 102.567 35.3613 102.051 34.7658C101.591 34.1918 101.361 33.466 101.361 32.5893C101.361 31.7976 101.557 31.1196 101.951 30.5563C102.457 29.8339 103.205 29.4718 104.194 29.4718C105.229 29.4726 105.996 29.8042 106.494 30.4689ZM105.793 34.2009C106.106 33.6994 106.262 33.1229 106.262 32.4714C106.262 31.7827 106.082 31.2277 105.721 30.8079C105.36 30.3873 104.868 30.1778 104.242 30.1778C103.634 30.1778 103.14 30.3856 102.756 30.8021C102.373 31.2186 102.182 31.8322 102.182 32.6429C102.182 33.292 102.346 33.8388 102.675 34.2842C103.003 34.7295 103.536 34.9522 104.274 34.9522C104.974 34.9531 105.48 34.7023 105.793 34.2009Z" fill="#102A54"/>
<path d="M108.002 29.6327H110.538C111.229 29.6327 111.72 29.8372 112.012 30.2463C112.183 30.488 112.269 30.7675 112.269 31.0834C112.269 31.4529 112.164 31.7556 111.953 31.9923C111.844 32.1168 111.687 32.2315 111.482 32.3354C111.783 32.45 112.008 32.5787 112.157 32.7222C112.421 32.977 112.552 33.3292 112.552 33.7787C112.552 34.1564 112.433 34.4979 112.194 34.803C111.838 35.2599 111.272 35.4884 110.495 35.4884H108.001V29.6327H108.002ZM110.241 32.1077C110.58 32.1077 110.843 32.0616 111.031 31.9684C111.327 31.8224 111.475 31.5593 111.475 31.1791C111.475 30.7964 111.318 30.5391 111.003 30.4055C110.826 30.3312 110.562 30.2941 110.213 30.2941H108.781V32.1077H110.241ZM110.509 34.8104C111.001 34.8104 111.352 34.6694 111.561 34.3882C111.692 34.21 111.758 33.9948 111.758 33.7424C111.758 33.3176 111.566 33.0273 111.182 32.8731C110.978 32.7906 110.708 32.7494 110.372 32.7494H108.78V34.8104H110.509Z" fill="#102A54"/>
<path d="M113.151 43.0514C113.033 43.0514 112.922 42.9978 112.846 42.8988L109.995 39.1817H95.5551C94.9679 39.1817 94.4905 38.705 94.4905 38.1186V25.886C94.4905 25.2996 94.9679 24.8229 95.5551 24.8229H114.251C114.838 24.8229 115.315 25.2996 115.315 25.886V38.1186C115.315 38.705 114.838 39.1817 114.251 39.1817H113.541V42.6637C113.541 42.832 113.437 42.9755 113.278 43.0299C113.236 43.0448 113.193 43.0514 113.151 43.0514ZM95.5551 25.0711C95.105 25.0711 94.7383 25.4373 94.7383 25.8868V38.1194C94.7383 38.5689 95.105 38.9351 95.5551 38.9351H110.118L113.043 42.7495C113.1 42.8229 113.176 42.8039 113.199 42.7965C113.221 42.7891 113.294 42.7569 113.294 42.6646V38.9351H114.252C114.702 38.9351 115.069 38.5689 115.069 38.1194V25.886C115.069 25.4365 114.702 25.0703 114.252 25.0703H95.5551V25.0711Z" fill="#102A54"/>
<path d="M158.247 14.7393H139.551C139.032 14.7393 138.61 14.3187 138.61 13.7999V1.56731C138.61 1.04855 139.032 0.62793 139.551 0.62793H158.247C158.766 0.62793 159.188 1.04855 159.188 1.56731V13.7999C159.188 14.3195 158.766 14.7393 158.247 14.7393Z" fill="#3C94F8"/>
<path d="M143.909 8.91863C143.909 9.41265 143.836 9.79698 143.689 10.0708C143.418 10.5706 142.901 10.8205 142.139 10.8205C141.7 10.8205 141.324 10.7017 141.012 10.4634C140.7 10.2258 140.544 9.80276 140.544 9.19409V8.77595H141.291V9.19409C141.291 9.51327 141.362 9.75245 141.505 9.91327C141.648 10.0741 141.87 10.1541 142.171 10.1541C142.595 10.1541 142.873 10.0089 143.003 9.71946C143.083 9.54131 143.123 9.20564 143.123 8.71079V4.80811H143.909V8.91863Z" fill="#102A54"/>
<path d="M149.945 5.64629C150.333 6.16422 150.528 6.82732 150.528 7.63557C150.528 8.5098 150.306 9.2364 149.862 9.81619C149.34 10.4966 148.596 10.8364 147.63 10.8364C146.728 10.8364 146.019 10.5387 145.502 9.9432C145.042 9.36918 144.812 8.64341 144.812 7.7667C144.812 6.97495 145.008 6.29701 145.402 5.73371C145.908 5.01123 146.656 4.64917 147.646 4.64917C148.681 4.64999 149.447 4.98237 149.945 5.64629ZM149.245 9.37908C149.558 8.87763 149.714 8.30114 149.714 7.64959C149.714 6.96093 149.534 6.40587 149.173 5.98608C148.812 5.56546 148.32 5.35598 147.694 5.35598C147.087 5.35598 146.592 5.56381 146.209 5.98031C145.825 6.3968 145.634 7.01041 145.634 7.82114C145.634 8.47021 145.798 9.01702 146.127 9.46238C146.455 9.90774 146.988 10.1304 147.726 10.1304C148.425 10.1304 148.932 9.88052 149.245 9.37908Z" fill="#102A54"/>
<path d="M151.454 4.80884H153.99C154.681 4.80884 155.172 5.01337 155.464 5.42245C155.635 5.6641 155.721 5.94369 155.721 6.25956C155.721 6.62905 155.616 6.93173 155.405 7.16843C155.296 7.29297 155.139 7.4076 154.935 7.51152C155.235 7.62616 155.46 7.75482 155.609 7.89833C155.873 8.15317 156.004 8.50534 156.004 8.95482C156.004 9.33256 155.885 9.674 155.646 9.97916C155.291 10.4361 154.724 10.6645 153.948 10.6645H151.453V4.80884H151.454ZM153.692 7.28472C154.031 7.28472 154.294 7.23853 154.483 7.14534C154.778 6.99936 154.926 6.73626 154.926 6.35606C154.926 5.97338 154.769 5.71606 154.455 5.58245C154.277 5.50822 154.014 5.47111 153.664 5.47111H152.232V7.28472H153.692ZM153.961 9.98658C154.452 9.98658 154.803 9.84555 155.012 9.56431C155.144 9.38617 155.21 9.17091 155.21 8.91854C155.21 8.49379 155.017 8.20348 154.633 8.04926C154.429 7.96678 154.159 7.92554 153.823 7.92554H152.231V9.98658H153.961Z" fill="#102A54"/>
<path d="M156.602 18.2285C156.485 18.2285 156.373 18.1749 156.297 18.0759L153.446 14.3588H139.006C138.419 14.3588 137.942 13.8821 137.942 13.2957V1.06309C137.942 0.476702 138.419 0 139.006 0H157.702C158.289 0 158.767 0.476702 158.767 1.06309V13.2957C158.767 13.8821 158.289 14.3588 157.702 14.3588H156.992V17.8409C156.992 18.0091 156.889 18.1526 156.729 18.2071C156.687 18.2211 156.644 18.2285 156.602 18.2285ZM139.006 0.247423C138.556 0.247423 138.19 0.61361 138.19 1.06309V13.2957C138.19 13.7452 138.556 14.1114 139.006 14.1114H153.569L156.495 17.9258C156.551 17.9992 156.628 17.9802 156.65 17.9728C156.672 17.9654 156.745 17.9332 156.745 17.8409V14.1114H157.703C158.153 14.1114 158.52 13.7452 158.52 13.2957V1.06309C158.52 0.61361 158.153 0.247423 157.703 0.247423H139.006Z" fill="#102A54"/>
<path d="M198.739 22.5433H217.434C217.954 22.5433 218.375 22.1226 218.375 21.6039V9.37127C218.375 8.8525 217.954 8.43188 217.434 8.43188H198.739C198.219 8.43188 197.798 8.8525 197.798 9.37127V21.6039C197.798 22.1226 198.219 22.5433 198.739 22.5433Z" fill="#3C94F8"/>
<path d="M204.347 16.7212C204.347 17.2153 204.273 17.5996 204.127 17.8734C203.855 18.3732 203.338 18.6231 202.577 18.6231C202.137 18.6231 201.762 18.5043 201.449 18.266C201.138 18.0285 200.982 17.6054 200.982 16.9967V16.5786H201.729V16.9967C201.729 17.3159 201.8 17.5551 201.943 17.7159C202.085 17.8767 202.308 17.9567 202.609 17.9567C203.033 17.9567 203.31 17.8116 203.441 17.5221C203.521 17.3439 203.561 17.0083 203.561 16.5134V12.6107H204.347V16.7212Z" fill="#102A54"/>
<path d="M210.382 13.4489C210.77 13.9668 210.965 14.6299 210.965 15.4382C210.965 16.3124 210.743 17.039 210.298 17.6188C209.776 18.2992 209.033 18.639 208.067 18.639C207.165 18.639 206.455 18.3413 205.939 17.7458C205.479 17.1718 205.249 16.446 205.249 15.5693C205.249 14.7776 205.445 14.0996 205.839 13.5363C206.345 12.8138 207.093 12.4518 208.082 12.4518C209.118 12.4526 209.884 12.785 210.382 13.4489ZM209.681 17.1809C209.995 16.6794 210.151 16.1029 210.151 15.4514C210.151 14.7627 209.971 14.2077 209.61 13.7879C209.249 13.3672 208.756 13.1578 208.13 13.1578C207.523 13.1578 207.029 13.3656 206.645 13.7821C206.262 14.1986 206.071 14.8122 206.071 15.6229C206.071 16.272 206.235 16.8188 206.564 17.2642C206.892 17.7095 207.425 17.9322 208.163 17.9322C208.862 17.933 209.368 17.6823 209.681 17.1809Z" fill="#102A54"/>
<path d="M211.891 12.6115H214.426C215.118 12.6115 215.609 12.816 215.901 13.2251C216.072 13.4667 216.158 13.7463 216.158 14.0622C216.158 14.4317 216.053 14.7343 215.842 14.971C215.733 15.0956 215.576 15.2102 215.371 15.3141C215.672 15.4288 215.897 15.5574 216.046 15.7009C216.31 15.9558 216.441 16.308 216.441 16.7574C216.441 17.1352 216.322 17.4766 216.083 17.7818C215.727 18.2387 215.161 18.4671 214.384 18.4671H211.89V12.6115H211.891ZM214.129 15.0865C214.468 15.0865 214.731 15.0403 214.92 14.9471C215.215 14.8011 215.363 14.5381 215.363 14.1578C215.363 13.7752 215.206 13.5178 214.891 13.3842C214.714 13.31 214.45 13.2729 214.101 13.2729H212.669V15.0865H214.129ZM214.398 17.7892C214.889 17.7892 215.24 17.6482 215.449 17.3669C215.58 17.1888 215.646 16.9735 215.646 16.7211C215.646 16.2964 215.454 16.0061 215.07 15.8519C214.866 15.7694 214.596 15.7282 214.26 15.7282H212.668V17.7892H214.398Z" fill="#102A54"/>
<path d="M200.383 26.0301C200.341 26.0301 200.298 26.0236 200.256 26.0087C200.097 25.9543 199.994 25.8108 199.994 25.6425V22.1605H199.283C198.696 22.1605 198.219 21.6838 198.219 21.0974V8.86558C198.219 8.27919 198.696 7.80249 199.283 7.80249H217.979C218.566 7.80249 219.044 8.27919 219.044 8.86558V21.0982C219.044 21.6846 218.566 22.1613 217.979 22.1613H203.539L200.688 25.8784C200.613 25.9765 200.502 26.0301 200.383 26.0301ZM199.284 8.04991C198.834 8.04991 198.467 8.4161 198.467 8.86558V21.0982C198.467 21.5477 198.834 21.9139 199.284 21.9139H200.242V25.6433C200.242 25.7357 200.315 25.7679 200.336 25.7753C200.359 25.7827 200.435 25.8017 200.492 25.7283L203.417 21.9139H217.979C218.429 21.9139 218.796 21.5477 218.796 21.0982V8.86558C218.796 8.4161 218.429 8.04991 217.979 8.04991H199.284Z" fill="#102A54"/>
<path d="M165.863 81.2058C168.884 75.9926 169.691 69.9167 168.136 64.0973C166.579 58.2779 162.848 53.4119 157.627 50.3958C152.407 47.3798 146.322 46.574 140.494 48.127C134.666 49.6808 129.793 53.407 126.773 58.6202C123.753 63.8334 122.946 69.9093 124.501 75.7287C125.777 80.5015 128.517 84.6326 132.342 87.6281C131.961 87.6495 131.596 87.8557 131.391 88.2112L115.104 116.318C114.78 116.879 114.971 117.597 115.533 117.922L119.979 120.491C120.54 120.815 121.259 120.624 121.584 120.063L137.871 91.9555C138.077 91.6 138.075 91.1819 137.903 90.8405C142.41 92.659 147.363 92.9724 152.143 91.699C157.969 90.1452 162.842 86.419 165.863 81.2058ZM136.54 86.7893C132.025 84.1815 128.798 79.9736 127.453 74.9419C126.108 69.9101 126.806 64.6565 129.418 60.1484C132.03 55.6404 136.244 52.4181 141.283 51.0754C146.322 49.7319 151.583 50.4288 156.098 53.0375C160.612 55.6453 163.839 59.8532 165.184 64.8849C166.529 69.9167 165.831 75.1703 163.219 79.6784C160.607 84.1864 156.393 87.4087 151.354 88.7514C146.314 90.0941 141.053 89.3972 136.54 86.7893Z" fill="#102A54"/>
<path d="M159.513 84.0499C166.996 76.5779 166.996 64.4636 159.513 56.9916C152.03 49.5197 139.899 49.5197 132.416 56.9916C124.933 64.4636 124.933 76.5779 132.416 84.0499C139.899 91.5218 152.03 91.5218 159.513 84.0499Z" fill="white"/>
<path opacity="0.61" d="M159.513 84.0502C166.996 76.5783 166.996 64.4639 159.513 56.992C152.03 49.5201 139.898 49.5201 132.416 56.992C124.933 64.4639 124.933 76.5783 132.416 84.0502C139.898 91.5221 152.03 91.5221 159.513 84.0502Z" fill="#CCE6FF"/>
<mask id="mask2_3536_3249" style="mask-type:luminance" maskUnits="userSpaceOnUse" x="126" y="51" width="40" height="39">
<path d="M159.513 84.0502C166.996 76.5783 166.996 64.4639 159.513 56.992C152.03 49.5201 139.898 49.5201 132.416 56.992C124.933 64.4639 124.933 76.5783 132.416 84.0502C139.898 91.5221 152.03 91.5221 159.513 84.0502Z" fill="white"/>
</mask>
<g mask="url(#mask2_3536_3249)">
<path opacity="0.26" d="M155.195 51.5468L123.087 64.9802L123.599 74.2387L163.42 58.6494L155.195 51.5468Z" fill="#3C94F8"/>
</g>
<mask id="mask3_3536_3249" style="mask-type:luminance" maskUnits="userSpaceOnUse" x="126" y="51" width="40" height="39">
<path d="M159.513 84.0502C166.996 76.5783 166.996 64.4639 159.513 56.992C152.03 49.5201 139.898 49.5201 132.416 56.992C124.933 64.4639 124.933 76.5783 132.416 84.0502C139.898 91.5221 152.03 91.5221 159.513 84.0502Z" fill="white"/>
</mask>
<g mask="url(#mask3_3536_3249)">
<path opacity="0.18" d="M168.785 59.8829L125.733 77.097L129.602 84.8875L171.771 68.3795L168.785 59.8829Z" fill="#3C94F8"/>
</g>
<mask id="mask4_3536_3249" style="mask-type:luminance" maskUnits="userSpaceOnUse" x="126" y="51" width="40" height="39">
<path d="M159.513 84.0502C166.996 76.5783 166.996 64.4639 159.513 56.992C152.03 49.5201 139.898 49.5201 132.416 56.992C124.933 64.4639 124.933 76.5783 132.416 84.0502C139.898 91.5221 152.03 91.5221 159.513 84.0502Z" fill="white"/>
</mask>
<g mask="url(#mask4_3536_3249)">
<path opacity="0.1" d="M172.235 70.8993L129.182 88.1134L132.742 92.2024L174.04 76.0383L172.235 70.8993Z" fill="#3C94F8"/>
</g>
<path opacity="0.14" d="M167.692 83.1844C170.712 77.9712 171.519 71.8953 169.964 66.076C168.409 60.2566 164.676 55.3906 159.456 52.3745C154.235 49.3584 148.15 48.5526 142.322 50.1056C136.495 51.6594 131.622 55.3856 128.601 60.5988C125.581 65.812 124.774 71.8879 126.329 77.7073C127.605 82.4801 130.346 86.6112 134.17 89.6067C133.789 89.6282 133.425 89.8343 133.219 90.1898L116.932 118.297C116.608 118.858 116.8 119.575 117.361 119.9L121.807 122.469C122.369 122.794 123.087 122.602 123.413 122.041L139.699 93.9341C139.905 93.5787 139.903 93.1605 139.731 92.8191C144.239 94.6376 149.191 94.9511 153.971 93.6777C159.798 92.1247 164.671 88.3976 167.692 83.1844ZM138.368 88.7679C133.853 86.1601 130.626 81.9523 129.282 76.9205C127.936 71.8887 128.634 66.6351 131.247 62.1271C133.858 57.619 138.072 54.3968 143.111 53.0541C148.15 51.7106 153.411 52.4075 157.926 55.0161C162.44 57.624 165.667 61.8318 167.012 66.8636C168.357 71.8953 167.66 77.149 165.047 81.657C162.435 86.1651 158.222 89.3873 153.183 90.73C148.144 92.0727 142.882 91.3758 138.368 88.7679Z" fill="#3C94F8"/>
</g>
<path d="M141.675 144.867H77.7135C73.2444 144.867 69.621 141.249 69.621 136.786C69.621 132.323 73.2444 128.705 77.7135 128.705H141.675C146.144 128.705 149.768 132.323 149.768 136.786C149.767 141.249 146.144 144.867 141.675 144.867Z" fill="#F4F7FD"/>
<path d="M140.545 144.744H76.5833C71.9845 144.744 68.243 141.008 68.243 136.416C68.243 131.823 71.9845 128.087 76.5833 128.087H140.545C145.144 128.087 148.885 131.823 148.885 136.416C148.885 141.008 145.144 144.744 140.545 144.744ZM76.5833 128.583C72.2579 128.583 68.7386 132.097 68.7386 136.416C68.7386 140.736 72.2579 144.25 76.5833 144.25H140.545C144.87 144.25 148.39 140.736 148.39 136.416C148.39 132.097 144.87 128.583 140.545 128.583H76.5833Z" fill="#102A54"/>
<path d="M77.9304 136.906H77.1565C76.9129 136.906 76.7155 136.709 76.7155 136.465V135.692C76.7155 135.449 76.9129 135.252 77.1565 135.252H77.9304C78.1741 135.252 78.3714 135.449 78.3714 135.692V136.465C78.3714 136.709 78.1741 136.906 77.9304 136.906Z" fill="#102A54"/>
<path d="M80.8331 136.906H80.0592C79.8156 136.906 79.6182 136.709 79.6182 136.465V135.692C79.6182 135.449 79.8156 135.252 80.0592 135.252H80.8331C81.0768 135.252 81.2742 135.449 81.2742 135.692V136.465C81.2733 136.709 81.0759 136.906 80.8331 136.906Z" fill="#102A54"/>
<path d="M83.7344 136.906H82.9605C82.7169 136.906 82.5195 136.709 82.5195 136.465V135.692C82.5195 135.449 82.7169 135.252 82.9605 135.252H83.7344C83.9781 135.252 84.1755 135.449 84.1755 135.692V136.465C84.1755 136.709 83.9781 136.906 83.7344 136.906Z" fill="#102A54"/>
<path d="M86.6366 136.906H85.8627C85.619 136.906 85.4216 136.709 85.4216 136.465V135.692C85.4216 135.449 85.619 135.252 85.8627 135.252H86.6366C86.8802 135.252 87.0776 135.449 87.0776 135.692V136.465C87.0768 136.709 86.8794 136.906 86.6366 136.906Z" fill="#102A54"/>
<path d="M89.5384 136.906H88.7645C88.5208 136.906 88.3234 136.709 88.3234 136.465V135.692C88.3234 135.449 88.5208 135.252 88.7645 135.252H89.5384C89.782 135.252 89.9794 135.449 89.9794 135.692V136.465C89.9794 136.709 89.782 136.906 89.5384 136.906Z" fill="#102A54"/>
<path d="M92.4405 136.906H91.6666C91.423 136.906 91.2256 136.709 91.2256 136.465V135.692C91.2256 135.449 91.423 135.252 91.6666 135.252H92.4405C92.6842 135.252 92.8816 135.449 92.8816 135.692V136.465C92.8807 136.709 92.6834 136.906 92.4405 136.906Z" fill="#102A54"/>
<path d="M95.3418 136.906H94.5679C94.3242 136.906 94.1268 136.709 94.1268 136.465V135.692C94.1268 135.449 94.3242 135.252 94.5679 135.252H95.3418C95.5854 135.252 95.7828 135.449 95.7828 135.692V136.465C95.7828 136.709 95.5854 136.906 95.3418 136.906Z" fill="#102A54"/>
<path d="M98.2445 136.906H97.4706C97.2269 136.906 97.0295 136.709 97.0295 136.465V135.692C97.0295 135.449 97.2269 135.252 97.4706 135.252H98.2445C98.4881 135.252 98.6855 135.449 98.6855 135.692V136.465C98.6847 136.709 98.4873 136.906 98.2445 136.906Z" fill="#102A54"/>
<path d="M101.146 136.906H100.372C100.128 136.906 99.9309 136.709 99.9309 136.465V135.692C99.9309 135.449 100.128 135.252 100.372 135.252H101.146C101.389 135.252 101.587 135.449 101.587 135.692V136.465C101.587 136.709 101.389 136.906 101.146 136.906Z" fill="#102A54"/>
<path d="M104.048 136.906H103.274C103.03 136.906 102.833 136.709 102.833 136.465V135.692C102.833 135.449 103.03 135.252 103.274 135.252H104.048C104.292 135.252 104.489 135.449 104.489 135.692V136.465C104.488 136.709 104.291 136.906 104.048 136.906Z" fill="#102A54"/>
<path d="M106.95 136.906H106.176C105.932 136.906 105.735 136.709 105.735 136.465V135.692C105.735 135.449 105.932 135.252 106.176 135.252H106.95C107.193 135.252 107.391 135.449 107.391 135.692V136.465C107.391 136.709 107.193 136.906 106.95 136.906Z" fill="#102A54"/>
<path d="M109.852 136.906H109.078C108.834 136.906 108.637 136.709 108.637 136.465V135.692C108.637 135.449 108.834 135.252 109.078 135.252H109.852C110.096 135.252 110.293 135.449 110.293 135.692V136.465C110.292 136.709 110.095 136.906 109.852 136.906Z" fill="#102A54"/>
<path d="M112.754 136.906H111.98C111.736 136.906 111.539 136.709 111.539 136.465V135.692C111.539 135.449 111.736 135.252 111.98 135.252H112.754C112.997 135.252 113.195 135.449 113.195 135.692V136.465C113.195 136.709 112.997 136.906 112.754 136.906Z" fill="#102A54"/>
<path d="M115.656 136.906H114.882C114.638 136.906 114.441 136.709 114.441 136.465V135.692C114.441 135.449 114.638 135.252 114.882 135.252H115.656C115.9 135.252 116.097 135.449 116.097 135.692V136.465C116.096 136.709 115.899 136.906 115.656 136.906Z" fill="#102A54"/>
<path d="M118.557 136.906H117.783C117.54 136.906 117.342 136.709 117.342 136.465V135.692C117.342 135.449 117.54 135.252 117.783 135.252H118.557C118.801 135.252 118.998 135.449 118.998 135.692V136.465C118.998 136.709 118.801 136.906 118.557 136.906Z" fill="#102A54"/>
<path d="M121.46 136.906H120.686C120.442 136.906 120.245 136.709 120.245 136.465V135.692C120.245 135.449 120.442 135.252 120.686 135.252H121.46C121.704 135.252 121.901 135.449 121.901 135.692V136.465C121.9 136.709 121.703 136.906 121.46 136.906Z" fill="#102A54"/>
<path d="M124.361 136.906H123.587C123.344 136.906 123.146 136.709 123.146 136.465V135.692C123.146 135.449 123.344 135.252 123.587 135.252H124.361C124.605 135.252 124.802 135.449 124.802 135.692V136.465C124.802 136.709 124.605 136.906 124.361 136.906Z" fill="#102A54"/>
<path d="M127.263 136.906H126.489C126.246 136.906 126.048 136.709 126.048 136.465V135.692C126.048 135.449 126.246 135.252 126.489 135.252H127.263C127.507 135.252 127.704 135.449 127.704 135.692V136.465C127.703 136.709 127.506 136.906 127.263 136.906Z" fill="#102A54"/>
<path d="M130.165 136.906H129.391C129.148 136.906 128.95 136.709 128.95 136.465V135.692C128.95 135.449 129.148 135.252 129.391 135.252H130.165C130.409 135.252 130.606 135.449 130.606 135.692V136.465C130.606 136.709 130.409 136.906 130.165 136.906Z" fill="#102A54"/>
<path d="M133.066 136.906H132.293C132.049 136.906 131.852 136.709 131.852 136.465V135.692C131.852 135.449 132.049 135.252 132.293 135.252H133.066C133.31 135.252 133.507 135.449 133.507 135.692V136.465C133.507 136.709 133.31 136.906 133.066 136.906Z" fill="#102A54"/>
<path d="M135.969 136.906H135.195C134.951 136.906 134.754 136.709 134.754 136.465V135.692C134.754 135.449 134.951 135.252 135.195 135.252H135.969C136.212 135.252 136.41 135.449 136.41 135.692V136.465C136.41 136.709 136.212 136.906 135.969 136.906Z" fill="#102A54"/>
<path d="M138.87 136.906H138.097C137.853 136.906 137.656 136.709 137.656 136.465V135.692C137.656 135.449 137.853 135.252 138.097 135.252H138.87C139.114 135.252 139.312 135.449 139.312 135.692V136.465C139.312 136.709 139.114 136.906 138.87 136.906Z" fill="#102A54"/>
<path d="M141.772 136.906H140.999C140.755 136.906 140.558 136.709 140.558 136.465V135.692C140.558 135.449 140.755 135.252 140.999 135.252H141.772C142.016 135.252 142.214 135.449 142.214 135.692V136.465C142.214 136.709 142.016 136.906 141.772 136.906Z" fill="#102A54"/>
<path d="M53.5626 242.234H51.7761H47.16C46.8742 242.234 46.6686 242.51 46.7503 242.784L49.5511 252.126C49.6056 252.306 49.7716 252.43 49.9607 252.43H51.7761H53.5626H55.378C55.5671 252.43 55.7332 252.306 55.7877 252.126L58.5884 242.784C58.6702 242.51 58.4653 242.234 58.1787 242.234H53.5626Z" fill="#102A54"/>
<path d="M57.1821 237.682C57.358 237.217 57.586 236.753 57.9675 236.434C58.3483 236.115 58.9149 235.973 59.3551 236.204C59.6789 236.374 60.0142 236.734 60.333 236.556C60.5321 236.445 60.5758 236.183 60.5891 235.956C60.6337 235.217 60.6237 234.384 61.1515 233.863C61.6718 233.35 62.5135 233.361 63.2213 233.541C63.5558 233.626 63.925 233.739 64.2298 233.576C64.3925 233.49 64.5081 233.336 64.6047 233.179C64.9442 232.625 65.1598 231.916 65.7536 231.651C66.7092 231.226 67.8226 232.302 68.8054 231.944C69.1895 231.804 69.519 231.451 69.9262 231.49C70.1277 231.508 70.3086 231.626 70.4482 231.772C70.9223 232.268 70.9272 233.138 70.4548 233.636C69.8279 234.298 68.6774 234.205 68.0431 234.86C67.4335 235.49 67.4839 236.63 66.7406 237.094C66.1145 237.484 65.2696 237.164 64.5733 237.41C64.015 237.607 63.6508 238.129 63.289 238.597C62.9273 239.066 62.468 239.543 61.8767 239.579C61.5661 239.598 61.2572 239.49 60.9475 239.518C60.0563 239.599 59.5599 240.724 58.6754 240.857C58.0815 240.946 57.5736 240.552 57.1623 240.175C56.9987 240.026 56.8468 239.857 56.7881 239.638C56.7171 239.376 56.7766 239.091 56.8344 238.832C56.9236 238.441 57.04 238.057 57.1821 237.682Z" fill="#6CB597"/>
<path d="M50.7927 235.839C50.307 235.478 50.013 234.784 50.3004 234.252C50.44 233.993 50.6894 233.815 50.886 233.595C51.0826 233.377 51.2337 233.063 51.1173 232.794C51.0595 232.66 50.9455 232.56 50.8348 232.465C50.4375 232.121 50.0337 231.763 49.7834 231.301C49.5331 230.839 49.4621 230.244 49.7396 229.797C49.9486 229.46 50.3136 229.26 50.6308 229.021C50.948 228.783 51.2486 228.442 51.2222 228.046C51.1891 227.553 50.6564 227.105 50.8546 226.652C51.0595 226.182 51.8788 226.208 52.0126 225.714C52.0795 225.468 51.9308 225.222 51.8697 224.975C51.7334 224.425 52.1067 223.8 52.6568 223.658C53.2069 223.516 53.8362 223.881 53.9849 224.429C54.0873 224.808 53.9833 225.229 54.1336 225.592C54.3285 226.063 54.8868 226.288 55.1313 226.735C55.5814 227.557 54.7638 228.531 54.8323 229.466C54.905 230.454 55.9622 231.295 55.6896 232.248C55.5831 232.62 55.2824 232.916 55.1784 233.29C55.0545 233.736 55.2288 234.202 55.3535 234.648C55.4782 235.095 55.5377 235.622 55.2378 235.975C55.0165 236.237 54.6556 236.328 54.3169 236.381C53.377 236.527 52.4429 236.484 51.5344 236.201C51.2717 236.118 51.0157 236.004 50.7927 235.839Z" fill="#6CB597"/>
<path d="M52.6482 244.584C52.6267 244.584 52.6044 244.579 52.5846 244.566C52.5284 244.532 52.5111 244.457 52.5466 244.401C53.4097 243.017 54.4801 241.783 55.7297 240.732C57.1057 239.575 58.68 238.66 60.2022 237.777L70.5403 231.774C70.5973 231.741 70.6708 231.76 70.7039 231.817C70.7369 231.874 70.7179 231.948 70.6601 231.981L60.3219 237.983C58.8088 238.861 57.2437 239.77 55.8834 240.914C54.6536 241.948 53.5988 243.164 52.7498 244.527C52.7275 244.564 52.6878 244.584 52.6482 244.584Z" fill="#102A54"/>
<path d="M52.9801 244.075C52.9157 244.075 52.862 244.024 52.8604 243.959C52.6836 237.955 52.8158 229.714 52.9578 223.857C52.9595 223.791 53.0132 223.739 53.0809 223.74C53.147 223.742 53.199 223.796 53.1982 223.863C53.0561 229.717 52.924 237.954 53.1007 243.951C53.1024 244.017 53.0503 244.072 52.9843 244.074C52.9826 244.075 52.981 244.075 52.9801 244.075Z" fill="#102A54"/>
<path d="M47.0186 240.836C46.3207 240.761 45.6121 240.299 45.4865 239.609C45.3866 239.059 45.6121 238.35 45.1545 238.027C44.9943 237.914 44.7878 237.89 44.5921 237.88C43.8818 237.847 43.1037 237.94 42.5231 237.529C41.679 236.932 41.7632 235.694 41.6947 234.664C41.6773 234.399 41.6327 234.114 41.4411 233.93C41.2363 233.734 40.9274 233.712 40.6515 233.65C39.6439 233.423 38.8568 232.449 38.8461 231.418C38.8428 231.103 38.9121 230.772 39.1227 230.536C39.2656 230.376 39.463 230.273 39.6687 230.209C40.3236 230.008 41.0868 230.227 41.5361 230.743C41.8169 231.065 41.978 231.485 42.2943 231.773C43.188 232.586 44.6557 231.918 45.8053 232.294C46.4479 232.504 46.9617 233.068 47.1103 233.727C47.2392 234.298 47.1144 234.934 47.3944 235.449C47.8751 236.333 49.1372 236.284 50.0663 236.672C50.2902 236.765 50.509 236.898 50.6354 237.104C50.7337 237.264 50.7675 237.455 50.7832 237.641C50.846 238.396 50.6065 239.162 50.1588 239.769C49.9581 240.041 49.6905 240.356 49.3734 240.495C49.1322 240.6 48.8497 240.562 48.5962 240.623C48.0701 240.75 47.5662 240.896 47.0186 240.836Z" fill="#6CB597"/>
<path d="M52.3479 244.756C52.3049 244.756 52.2636 244.733 52.2422 244.693C50.5886 241.604 47.0082 237.525 45.2878 235.565C44.7724 234.977 44.2389 234.37 43.6178 233.879C43.1074 233.476 42.5185 233.137 41.9486 232.808C40.9038 232.206 39.8235 231.584 39.1809 230.543C39.1462 230.487 39.1635 230.412 39.2197 230.378C39.2759 230.343 39.3502 230.361 39.3849 230.417C39.9953 231.407 41.0021 231.987 42.0683 232.601C42.6457 232.933 43.242 233.277 43.7665 233.69C44.4049 234.194 44.9451 234.81 45.4679 235.405C47.1941 237.372 50.7869 241.466 52.4536 244.579C52.485 244.638 52.4627 244.709 52.404 244.741C52.3867 244.751 52.3669 244.756 52.3479 244.756Z" fill="#102A54"/>
<path d="M163.925 173.645C163.925 173.645 157.375 185.907 156.323 186.896C155.271 187.885 140.429 191.964 140.429 191.964L141.015 194.112C141.015 194.112 159.402 194.538 160.339 194.112C161.276 193.686 166.673 188.901 166.673 188.901L163.925 173.645Z" fill="#3C94F8"/>
<path d="M154.879 247.199L155.328 249.893H158.742L158.545 246.807L154.879 247.199Z" fill="#FFC0B1"/>
<path d="M142.602 246.655L142.79 250.324L145.836 250.089L146.289 246.683L142.602 246.655Z" fill="#FFC0B1"/>
<path d="M168.998 202.307C168.998 202.307 147.318 209.554 144.087 212.78C140.856 216.007 142.139 246.781 142.139 246.781H146.776L153.303 221.458C153.303 221.458 179.58 220.875 182.42 215.893C186.166 209.32 183.305 200.763 183.305 200.763L168.998 202.307Z" fill="#0C203F"/>
<path d="M170.327 204.014C170.327 204.014 152.299 214.499 150.009 217.98C147.72 221.461 154.547 247.234 154.547 247.234L158.77 246.784L159.854 224.031C159.854 224.031 183.227 218.65 184.841 213.672C186.969 207.105 182.826 199.989 182.826 199.989L170.327 204.014Z" fill="#102A54"/>
<path d="M146.345 249.376C146.345 249.376 143.585 250.142 142.308 249.376L136.779 252.259C136.03 252.65 135.561 253.423 135.561 254.267V254.327H146.439C146.767 254.327 147.019 254.037 146.972 253.712L146.345 249.376Z" fill="#0C203F"/>
<path d="M158.892 249.376C158.892 249.376 156.132 250.142 154.854 249.376L149.325 252.259C148.576 252.65 148.107 253.423 148.107 254.267V254.327H158.986C159.314 254.327 159.565 254.037 159.518 253.712L158.892 249.376Z" fill="#102A54"/>
<path d="M169.24 170.367L167.159 161.898C167.156 160.302 166.843 158.393 166.048 156.156C165.521 154.673 163.828 153.966 162.396 154.622L158.36 156.467C157.261 156.97 156.673 158.18 156.96 159.353C157.3 160.742 157.706 162.552 157.835 163.763C157.948 164.82 158.241 166.053 158.94 166.97C160.162 168.573 162.315 169.117 164.087 168.306L164.59 173.802L169.24 170.367Z" fill="#FFC0B1"/>
<path d="M159.265 163.232C159.138 163.232 159.014 163.185 158.919 163.096C158.801 162.987 158.742 162.832 158.758 162.672L159.079 159.383C159.085 159.32 159.143 159.273 159.206 159.279C159.27 159.285 159.317 159.341 159.311 159.406L158.989 162.695C158.981 162.783 159.013 162.867 159.078 162.927C159.143 162.986 159.229 163.012 159.316 162.997L160.319 162.822C160.382 162.811 160.442 162.853 160.453 162.917C160.464 162.98 160.422 163.04 160.359 163.051L159.355 163.225C159.325 163.229 159.295 163.232 159.265 163.232Z" fill="#102A54"/>
<path d="M161.715 163.225C161.715 163.225 160.489 164.34 158.921 164.736C158.92 164.736 161.198 166.125 161.715 163.225Z" fill="white"/>
<path d="M159.794 164.551C159.748 164.551 159.705 164.524 159.686 164.48C159.662 164.42 159.69 164.352 159.749 164.329C160.972 163.825 161.71 162.992 161.718 162.984C161.761 162.937 161.833 162.931 161.882 162.973C161.931 163.015 161.935 163.089 161.893 163.137C161.862 163.173 161.114 164.018 159.838 164.543C159.824 164.548 159.809 164.551 159.794 164.551Z" fill="#102A54"/>
<path d="M158.424 160.013C158.424 160.289 158.244 160.512 158.022 160.512C157.799 160.512 157.619 160.289 157.619 160.013C157.619 159.737 157.799 159.514 158.022 159.514C158.243 159.514 158.424 159.738 158.424 160.013Z" fill="#102A54"/>
<path d="M160.721 159.693C160.943 159.693 161.123 159.469 161.123 159.193C161.123 158.918 160.943 158.694 160.721 158.694C160.498 158.694 160.318 158.918 160.318 159.193C160.318 159.469 160.498 159.693 160.721 159.693Z" fill="#102A54"/>
<path d="M156.887 158.203C156.887 158.203 161.347 158.577 163.299 157.083C163.299 157.083 163.34 160.045 164.046 160.513C164.752 160.98 166.917 160.505 167.592 163.497C167.592 163.497 168.78 160.235 168.24 156.42C167.7 152.606 165.292 150.781 162.967 150.988C160.641 151.196 152.064 154.378 156.887 158.203Z" fill="#102A54"/>
<path d="M166.518 159.788C166.785 158.676 166.471 157.649 165.818 157.493C165.165 157.336 164.419 158.111 164.153 159.223C163.886 160.335 164.2 161.363 164.853 161.519C165.506 161.675 166.252 160.9 166.518 159.788Z" fill="#FFC0B1"/>
<path d="M164.783 160.367C164.722 160.367 164.67 160.319 164.667 160.257C164.604 158.946 165.654 157.871 165.699 157.827C165.744 157.781 165.817 157.781 165.863 157.826C165.909 157.87 165.909 157.944 165.864 157.99C165.854 157.999 164.841 159.037 164.899 160.245C164.902 160.309 164.852 160.363 164.788 160.366C164.787 160.367 164.785 160.367 164.783 160.367Z" fill="#102A54"/>
<path d="M169.244 169.11C169.244 169.11 182.161 174.553 184.523 202.656C184.523 202.656 178.954 206.028 165.327 204.07C165.327 204.07 165.692 201.035 165.565 199.787C165.438 198.54 161.388 179.483 163.925 173.645L169.244 169.11Z" fill="#3C94F8"/>
<path d="M164.086 168.422C164.041 168.422 163.998 168.395 163.979 168.351C163.954 168.293 163.982 168.224 164.041 168.2C164.059 168.192 165.345 167.621 166.083 165.614C166.105 165.554 166.171 165.523 166.232 165.546C166.293 165.567 166.324 165.634 166.301 165.695C165.523 167.806 164.187 168.39 164.13 168.414C164.117 168.419 164.101 168.422 164.086 168.422Z" fill="#102A54"/>
<path d="M168.911 175.664C168.911 175.664 164.853 186.034 163.649 187.616C162.446 189.198 144.106 192.174 144.106 192.174L145.19 195.152C145.19 195.152 164 196.234 166.295 195.152C168.59 194.069 173.74 190.37 175.186 185.137C176.632 179.904 173.478 173.318 168.911 175.664Z" fill="#3C94F8"/>
<path d="M159.756 195.75C153.685 195.75 145.689 195.296 145.184 195.266C145.12 195.262 145.07 195.208 145.074 195.144C145.078 195.081 145.13 195.032 145.197 195.035C145.385 195.046 164.004 196.103 166.247 195.046C168.191 194.129 173.569 190.553 175.075 185.106C175.092 185.044 175.156 185.007 175.218 185.024C175.28 185.041 175.316 185.105 175.299 185.167C173.771 190.699 168.319 194.325 166.347 195.255C165.559 195.627 162.919 195.75 159.756 195.75Z" fill="#102A54"/>
<path d="M144.106 192.29C144.051 192.29 144.001 192.249 143.992 192.193C143.982 192.129 144.025 192.07 144.087 192.06C150.415 191.032 162.629 188.768 163.557 187.545C164.736 185.995 168.762 175.725 168.803 175.621C168.827 175.562 168.894 175.532 168.953 175.556C169.013 175.58 169.043 175.646 169.019 175.706C168.853 176.13 164.94 186.11 163.741 187.685C162.524 189.285 144.875 192.166 144.123 192.288C144.118 192.289 144.112 192.29 144.106 192.29Z" fill="#102A54"/>
<path d="M164.086 187.017C164.025 187.017 163.973 186.968 163.97 186.907C163.966 186.825 163.586 178.748 163.971 175.649C163.979 175.585 164.037 175.541 164.1 175.548C164.164 175.556 164.209 175.613 164.202 175.677C163.82 178.756 164.199 186.814 164.203 186.895C164.206 186.959 164.156 187.013 164.092 187.016C164.09 187.017 164.088 187.017 164.086 187.017Z" fill="#102A54"/>
<path d="M144.445 192.674C144.445 192.674 142.23 192.161 141.266 192.54C140.918 192.676 137.012 195.825 137.012 195.825H137.913H142.785L145.018 194.677L144.445 192.674Z" fill="#FFC0B1"/>
<path d="M140.547 192.401C140.547 192.401 138.702 192.262 138.104 192.401C137.504 192.54 134.437 193.939 134.437 194.112C134.437 194.286 134.748 194.525 135.156 194.429C135.563 194.334 139.014 193.394 139.014 193.394C139.014 193.394 137.049 194.357 136.761 194.764C136.473 195.171 136.21 195.824 136.21 195.824H139.828L141.013 194.112L140.547 192.401Z" fill="#FFC0B1"/>
<path d="M137.163 195.924C137.153 195.924 137.143 195.923 137.133 195.919C137.08 195.902 137.052 195.847 137.067 195.795C137.072 195.78 137.185 195.431 137.533 195.082C137.871 194.745 140.522 192.928 140.635 192.85C140.681 192.82 140.742 192.831 140.773 192.876C140.804 192.922 140.793 192.983 140.747 193.014C140.719 193.033 137.998 194.899 137.674 195.223C137.36 195.537 137.258 195.852 137.257 195.855C137.244 195.896 137.206 195.924 137.163 195.924Z" fill="#102A54"/>
<path d="M173.886 222.854L166.296 254.328H166.926L176.594 222.685L173.886 222.854Z" fill="#102A54"/>
<path d="M184.547 222.854L192.137 254.328H191.507L181.839 222.685L184.547 222.854Z" fill="#102A54"/>
<path d="M167.25 221.575C167.25 221.575 178.394 215.973 183.703 207.594C186.487 203.198 186.813 191.703 189.111 191.527C191.41 191.351 193.532 195.059 194.239 199.12C194.946 203.18 194.946 218.784 189.818 221.576C184.691 224.368 166.96 225.604 165.747 225.074C164.534 224.544 164.13 223.374 167.25 221.575Z" fill="#7FC0FF"/>
<path d="M172.135 198.968H93.2907C92.7936 198.968 92.3909 198.566 92.3909 198.069C92.3909 197.573 92.7936 197.171 93.2907 197.171H172.135C172.632 197.171 173.035 197.573 173.035 198.069C173.035 198.566 172.632 198.968 172.135 198.968Z" fill="#7FC0FF"/>
<path d="M97.9077 254.328H96.5147L107.236 198.967H108.629L97.9077 254.328Z" fill="#7FC0FF"/>
<path d="M167.518 254.328H168.911L158.189 198.967H156.797L167.518 254.328Z" fill="#7FC0FF"/>
<path d="M121.967 195.825L112.855 174.593C112.762 174.374 112.546 174.232 112.307 174.232C111.879 174.232 111.59 174.669 111.759 175.062L121.247 197.171H121.967H122.544H143.772C144.144 197.171 144.446 196.869 144.446 196.498C144.446 196.126 144.144 195.825 143.772 195.825H121.967Z" fill="#102A54"/>
<path d="M86.3925 188.142C86.3925 183.499 82.6229 179.734 77.9721 179.734C73.3213 179.734 69.5518 183.498 69.5518 188.142C69.5518 190.663 70.6635 192.925 72.4235 194.466C72.5771 192.045 74.2835 190.045 76.5606 189.45C75.5117 188.93 74.7906 187.851 74.7906 186.602C74.7906 184.847 76.2154 183.425 77.9721 183.425C79.7289 183.425 81.1536 184.848 81.1536 186.602C81.1536 187.851 80.4326 188.93 79.3836 189.45C81.6607 190.045 83.3671 192.045 83.5207 194.466C85.2808 192.925 86.3925 190.663 86.3925 188.142Z" fill="#80C0FF"/>
<path d="M79.384 189.45C80.4329 188.931 81.154 187.851 81.154 186.602C81.154 184.847 79.7292 183.426 77.9725 183.426C76.2157 183.426 74.791 184.848 74.791 186.602C74.791 187.851 75.512 188.931 76.561 189.45C74.2839 190.045 72.5775 192.045 72.4239 194.466C73.9056 195.764 75.8465 196.551 77.9725 196.551C80.0984 196.551 82.0394 195.764 83.5211 194.466C83.3675 192.045 81.6611 190.045 79.384 189.45Z" fill="#3C94F8"/>
<path d="M168.77 132.197C167.167 132.008 165.715 133.152 165.525 134.753C165.715 133.152 164.569 131.701 162.966 131.511C161.363 131.322 159.91 132.466 159.72 134.066C159.698 134.251 159.694 134.434 159.707 134.613C159.769 139.452 164.733 141.423 164.733 141.423C164.733 141.423 170.022 140.664 171.214 135.974C171.267 135.802 171.307 135.624 171.329 135.44C171.519 133.839 170.374 132.387 168.77 132.197Z" fill="#80C0FF"/>
</g>
</svg>
