<svg width="54" height="54" viewBox="0 0 54 54" fill="none" xmlns="http://www.w3.org/2000/svg">
<path fill-rule="evenodd" clip-rule="evenodd" d="M41.3863 12.915L29.659 7.88903C27.961 7.16134 26.039 7.16134 24.341 7.88903L12.6137 12.915C11.7864 13.2696 11.25 14.0831 11.25 14.9831V26.8021C11.25 31.162 13.3555 35.2534 16.9033 37.7875L24.3844 43.1312C25.9491 44.2488 28.0509 44.2488 29.6156 43.1312L37.0967 37.7875C40.6445 35.2534 42.75 31.162 42.75 26.8021V14.9831C42.75 14.0831 42.2136 13.2696 41.3863 12.915ZM34.5309 20.8747C34.8759 20.4434 34.806 19.8141 34.3747 19.4691C33.9434 19.1241 33.3141 19.194 32.9691 19.6253L24.6671 30.0029L20.9571 26.2929C20.5666 25.9024 19.9334 25.9024 19.5429 26.2929C19.1524 26.6834 19.1524 27.3166 19.5429 27.7071L23.6479 31.8121C24.2801 32.4443 25.3214 32.3866 25.8798 31.6885L34.5309 20.8747Z" fill="#00A0DC"/>
</svg>
