<svg width="29" height="28" viewBox="0 0 29 28" fill="none" xmlns="http://www.w3.org/2000/svg">
<g clip-path="url(#clip0_43_1344)">
<path d="M11.2449 20.9683C11.0486 20.772 11.0486 20.4531 11.2449 20.2568L17.514 13.9999L11.2449 7.73085C11.0486 7.53456 11.0486 7.21558 11.2449 7.01929C11.4412 6.823 11.7601 6.823 11.9564 7.01929L18.569 13.6319C18.6672 13.73 18.7163 13.8527 18.7163 13.9877C18.7163 14.1104 18.6672 14.2453 18.569 14.3435L11.9564 20.9561C11.7601 21.1646 11.4412 21.1646 11.2449 20.9683V20.9683Z" fill="#00A0DC"/>
</g>
<path d="M1.41406 14C1.41406 21.4558 7.45822 27.5 14.9141 27.5C22.3699 27.5 28.4141 21.4558 28.4141 14C28.4141 6.54416 22.3699 0.5 14.9141 0.5C7.45822 0.5 1.41406 6.54416 1.41406 14Z" stroke="#00A0DC"/>
<defs>
<clipPath id="clip0_43_1344">
<rect width="15.8261" height="15.8261" fill="white" transform="matrix(0 1 1 0 7 6.08691)"/>
</clipPath>
</defs>
</svg>
