<svg width="154" height="151" viewBox="0 0 154 151" fill="none" xmlns="http://www.w3.org/2000/svg">
<g opacity="0.7" filter="url(#filter0_d_508_1351)">
<path d="M21.6377 103.935C20.6473 104.898 19.0685 104.891 18.0864 103.92C17.077 102.921 17.084 101.288 18.102 100.298L62.9168 56.7234C63.9395 55.7289 65.5211 55.5922 66.6993 56.3964L83.5942 67.9273C84.6519 68.6492 86.0511 68.6202 87.0779 67.855L110.837 50.1507C111.942 49.3268 113.504 49.5397 114.349 50.6297C115.217 51.7491 114.997 53.3627 113.861 54.209L87.2105 74.0686C86.1837 74.8337 84.7845 74.8628 83.7269 74.1411L67.2759 62.9149C66.0977 62.1109 64.5163 62.2476 63.4936 63.2419L21.6377 103.935Z" fill="#F26678"/>
<path d="M13 122.836C13 121.179 14.3431 119.836 16 119.836H51.0116C52.6684 119.836 54.0115 121.179 54.0115 122.836V130.592C54.0115 132.249 52.6684 133.592 51.0115 133.592H16C14.3431 133.592 13 132.249 13 130.592V122.836Z" fill="#BBCCFF"/>
<path d="M54.0176 113.895C54.0176 112.238 55.3607 110.895 57.0176 110.895H92.0291C93.686 110.895 95.0291 112.238 95.0291 113.895V130.589C95.0291 132.246 93.686 133.589 92.0291 133.589H57.0176C55.3607 133.589 54.0176 132.246 54.0176 130.589V113.895Z" fill="#AABFF2"/>
<path d="M95.0234 104.495C95.0234 102.839 96.3666 101.495 98.0234 101.495H133.035C134.692 101.495 136.035 102.839 136.035 104.495V130.592C136.035 132.249 134.692 133.592 133.035 133.592H98.0234C96.3666 133.592 95.0234 132.249 95.0234 130.592V104.495Z" fill="#99B1E0"/>
<path d="M58.2008 43.3139C58.1736 43.4343 58.2452 43.5549 58.3638 43.5887C60.1846 44.1018 62.0891 44.2603 63.9711 44.059C64.0778 44.0476 64.18 44.0406 64.2872 44.0388C65.431 44.0203 72.5347 43.8628 74.7277 42.7896C77.3193 41.518 81.1547 36.5702 83.3305 33.5541C84.2806 32.2371 83.9404 30.4192 82.6127 29.4842L82.1816 29.1807C80.921 28.293 79.1929 28.5032 78.1374 29.6273C76.2494 31.6382 73.3446 34.5206 71.6614 35.1495C70.0397 35.7554 65.9145 35.2939 63.0873 34.8701C61.4837 34.6297 59.9348 35.6434 59.5773 37.225L58.2008 43.3139Z" fill="#FDDF8C"/>
<path d="M61.3825 65.2564C61.3825 65.2564 62.9167 81.4564 60.4924 86.6749C58.0479 91.9402 46.378 103.006 41.8921 107.146C40.8626 108.096 39.3188 108.18 38.1759 107.37L36.2509 106.006C34.9089 105.054 34.5756 103.206 35.4915 101.839C38.8714 96.7971 46.3393 85.2986 47.7197 80.1466C48.7098 76.449 47.7197 64.8606 47.7197 64.8606" fill="#0077B5"/>
<path d="M56.9584 20.8331C56.9584 21.1969 56.9276 21.5719 56.8738 21.9582C56.6572 23.2762 56.1615 24.5351 55.4185 25.654C54.761 26.6434 53.9325 27.4142 52.9866 27.7572C52.6579 27.8702 52.3176 27.9343 51.9677 27.9343C49.1533 27.9343 46.7637 23.8428 46.7637 20.8331C46.7637 19.1672 47.4634 17.6783 48.5804 16.6889L48.6957 16.5758C48.9726 16.3346 49.2705 16.1273 49.5993 15.9728C50.2145 15.6279 50.9162 15.43 51.6601 15.4074C51.7236 15.3979 51.7966 15.3979 51.862 15.3979C54.6765 15.3979 56.9584 17.8347 56.9584 20.8331Z" fill="#34324C"/>
<path opacity="0.15" d="M56.8738 21.9588C57.6257 22.0439 58.1118 23.0118 57.5859 23.5558C56.8873 24.2784 56.1645 24.9784 55.4185 25.6545C54.7597 26.275 54.0847 26.8663 53.3876 27.435C53.1236 27.6503 52.8245 27.828 52.4892 27.888C52.318 27.9186 52.1441 27.9349 51.9677 27.9349C49.1533 27.9349 46.7637 23.8434 46.7637 20.8337C46.7637 19.1677 47.4634 17.6789 48.5804 16.6895C47.8152 17.4621 47.3058 18.4911 47.3058 19.522C47.3058 21.5725 49.4724 24.5087 51.564 24.5087C52.3438 24.5087 53.05 24.0514 53.6285 23.3708C54.4204 22.4391 55.6571 21.8367 56.8738 21.9588Z" fill="black"/>
<path d="M65.4953 40.4977V62.2539C65.4953 63.9107 64.1522 65.2539 62.4954 65.2539H50.2129C48.556 65.2539 47.2129 63.9107 47.2129 62.2539V35.839C47.2129 34.9871 47.9184 34.2974 48.7855 34.2974H59.1705C60.848 34.2974 62.4567 34.9506 63.6428 36.1134C64.829 37.2762 65.4953 38.8533 65.4953 40.4977Z" fill="#FDDF8C"/>
<path d="M51.9688 28.5083C51.9688 26.8514 53.3119 25.5083 54.9688 25.5083H56.0318C57.6887 25.5083 59.0318 26.8514 59.0318 28.5083V31.2962C59.0318 32.9531 57.6887 34.2962 56.0318 34.2962H54.9688C53.3119 34.2962 51.9688 32.9531 51.9688 31.2962V28.5083Z" fill="#FDC7B4"/>
<path d="M56.0318 25.5083C57.6887 25.5083 59.0318 26.8514 59.0318 28.5083V30.1201C59.0318 31.2506 58.3926 32.2892 57.3039 32.5936C56.5632 32.8007 55.6198 32.995 54.5444 33.0615C53.063 33.1531 51.9688 31.8549 51.9688 30.3707V28.5083C51.9688 26.8514 53.3119 25.5083 54.9688 25.5083H56.0318Z" fill="#EFB5A3"/>
<path d="M58.1475 32.0199C56.5088 32.0199 54.9372 31.3818 53.7785 30.2458C52.6197 29.1099 51.9688 27.5693 51.9688 25.9628V21.7978C51.9687 20.1914 52.6197 18.6507 53.7785 17.5148C54.9372 16.3789 56.5088 15.7407 58.1475 15.7407C59.7862 15.7407 61.3578 16.3789 62.5165 17.5148C63.6753 18.6507 64.3262 20.1914 64.3262 21.7978V25.9628C64.3262 26.7582 64.1664 27.5459 63.8559 28.2808C63.5454 29.0156 63.0903 29.6834 62.5165 30.2458C61.9428 30.8083 61.2616 31.2545 60.512 31.5588C59.7624 31.8632 58.9589 32.0199 58.1475 32.0199Z" fill="#FDC7B4"/>
<path d="M55.2251 19.1163C55.2251 19.8136 55.0444 20.656 54.7253 21.4683C54.1101 23.0513 52.9528 24.5081 51.561 24.5081C49.4693 24.5081 47.3027 21.5719 47.3027 19.5215C47.3027 18.4906 47.8122 17.4597 48.5773 16.6889L48.6927 16.5758C48.958 16.3252 49.2559 16.0953 49.5847 15.92C50.148 15.5958 50.7862 15.3979 51.4225 15.3979C51.4975 15.3979 51.5821 15.3979 51.6571 15.4093C52.6222 15.4636 53.5295 15.878 54.193 16.5673C54.8565 17.2566 55.2257 18.1686 55.2251 19.1163Z" fill="#34324C"/>
<path d="M66.7251 16.5337C66.7266 16.9215 66.6498 17.3058 66.4992 17.6644C66.3486 18.023 66.127 18.3489 65.8474 18.6232C65.5677 18.8975 65.2355 19.1149 64.8697 19.2628C64.504 19.4107 64.1121 19.4862 63.7164 19.4849H50.982C50.0265 19.4849 49.252 18.7104 49.252 17.7549C49.2525 16.6506 49.7003 15.5917 50.497 14.811C51.2937 14.0303 52.3741 13.5918 53.5006 13.5918H63.7164C65.3794 13.5918 66.7251 14.911 66.7251 16.5337Z" fill="#34324C"/>
<path d="M57.8521 24.1842C58.1706 24.1842 58.4289 23.9311 58.4289 23.6188C58.4289 23.3066 58.1706 23.0535 57.8521 23.0535C57.5336 23.0535 57.2754 23.3066 57.2754 23.6188C57.2754 23.9311 57.5336 24.1842 57.8521 24.1842Z" fill="#313131"/>
<path d="M61.9635 24.1845C62.282 24.1845 62.5402 23.9313 62.5402 23.6191C62.5402 23.3068 62.282 23.0537 61.9635 23.0537C61.6449 23.0537 61.3867 23.3068 61.3867 23.6191C61.3867 23.9313 61.6449 24.1845 61.9635 24.1845Z" fill="#313131"/>
<path d="M57.788 27.2205C57.7326 27.2205 57.6777 27.263 57.6777 27.3185C57.6777 27.9277 57.9246 28.5121 58.3641 28.9429C58.8036 29.3737 59.3997 29.6158 60.0212 29.6158C60.6427 29.6158 61.2388 29.3737 61.6783 28.9429C62.1178 28.5121 62.3647 27.9277 62.3647 27.3185C62.3647 27.2632 62.3118 27.2205 62.2565 27.2205H57.788Z" fill="white"/>
<path opacity="0.15" d="M54.7253 21.4682C54.7253 21.4679 54.7249 21.4678 54.7248 21.4681C54.1094 23.0506 52.9524 24.5066 51.561 24.5066C49.4693 24.5066 47.3027 21.5704 47.3027 19.5199C47.3027 18.4891 47.8122 17.4582 48.5773 16.6874L48.6927 16.5743C48.9465 16.3344 49.2303 16.1136 49.5424 15.9414C49.5615 15.9309 49.5836 15.9443 49.5933 15.9639C49.5948 15.9667 49.5965 15.971 49.5971 15.9741C49.7998 17.1181 50.4355 18.1567 51.1995 19.0412C51.709 19.6255 52.2953 20.1437 52.9528 20.5828C53.5044 20.9465 54.0984 21.248 54.7249 21.4685C54.7251 21.4685 54.7253 21.4684 54.7253 21.4682Z" fill="black"/>
<path d="M50.1336 34.4877C50.0697 34.3694 49.9442 34.2974 49.8097 34.2974C47.862 34.2954 45.9336 34.676 44.1385 35.4168C44.1385 35.4168 36.266 37.7085 34.2994 39.4763C32.2037 41.3592 29.3659 47.3219 27.7177 51.0608C26.9854 52.722 27.9436 54.6108 29.7033 55.0572L31.3706 55.4802C32.8577 55.8574 34.3905 55.054 34.9849 53.6396C36.0953 50.9972 37.925 47.0687 39.3881 45.9951C40.2532 45.36 42.8081 44.6815 45.5937 44.0917C49.9909 43.1591 52.2187 38.3524 50.1336 34.4877Z" fill="#FDDF8C"/>
<path d="M47.8356 43.7361C47.6119 43.8654 47.3301 43.7714 47.212 43.5415C47.0912 43.3062 47.188 43.019 47.4153 42.8838C49.6898 41.5309 50.8662 38.8262 50.2936 36.2719C50.2352 36.0112 50.3771 35.7404 50.633 35.6638C50.8846 35.5884 51.1519 35.7295 51.2126 35.985C51.9249 38.9824 50.5325 42.1772 47.8356 43.7361Z" fill="#F2CF77"/>
<path d="M81.4775 97.0343C81.4219 98.5528 80.2052 99.7514 78.6877 99.8288L75.7944 99.9762C74.2618 100.054 72.9149 98.9655 72.6299 97.4575C71.8443 93.2997 70.1416 85.4704 68.0619 82.973C67.4237 82.2022 63.6403 80.8283 59.5205 79.3998C56.4677 78.3416 53.7434 76.5322 51.6088 74.1453C49.4742 71.7584 48.001 68.8739 47.3302 65.7685C47.2729 65.505 47.4737 65.2559 47.7434 65.2559H64.4898C65.1436 65.2559 65.7768 65.4671 66.2934 65.8679C68.9235 67.9081 77.2931 74.5491 79.4928 78.1089C81.7415 81.7386 81.6577 92.1091 81.4775 97.0343Z" fill="#0077B5"/>
<path d="M85.2812 106.293C87.1613 106.293 88.5798 104.516 87.4576 103.007C87.0344 102.438 86.5342 101.922 85.9663 101.475C84.4316 100.264 82.505 99.6336 80.5364 99.697L76.0673 99.8424C74.4101 99.8963 73.1109 101.284 73.1666 102.942L73.1818 103.394C73.2361 105.011 74.5624 106.293 76.1801 106.293H85.2812ZM39.5942 116.69C41.0711 117.812 43.2537 117.292 43.3241 115.438C43.3517 114.712 43.2793 113.981 43.1046 113.263C42.6471 111.386 41.5182 109.731 39.9228 108.6L36.2685 106.008C34.935 105.062 33.0897 105.358 32.119 106.674L31.8234 107.074C30.8491 108.395 31.1163 110.253 32.423 111.245L39.5942 116.69Z" fill="#34324C"/>
<path d="M65.0137 40.3004C65.0137 40.035 65.2288 39.8198 65.4943 39.8198C65.7597 39.8198 65.9749 40.035 65.9749 40.3004V43.3515C65.9749 43.617 65.7597 43.8321 65.4943 43.8321C65.2288 43.8321 65.0137 43.617 65.0137 43.3515V40.3004Z" fill="#F2CF77"/>
<path d="M33.1403 55.9388C33.6185 56.0546 33.9255 56.5208 33.843 57.0058L33.3166 60.1021C33.2969 60.2338 33.2503 60.3602 33.1795 60.4738C33.1087 60.5873 33.0152 60.6857 32.9047 60.7629C32.7942 60.8402 32.6689 60.8948 32.5363 60.9234C32.4037 60.952 32.2666 60.954 32.1332 60.9293C31.9998 60.9047 31.8729 60.8539 31.76 60.7799C31.6472 60.7059 31.5507 60.6104 31.4765 60.499C31.4023 60.3876 31.3518 60.2626 31.328 60.1316C31.3043 60.0005 31.3078 59.8662 31.3384 59.7365L32.0047 56.6512C32.1158 56.1368 32.6288 55.815 33.1403 55.9388Z" fill="#FDC7B4"/>
<path d="M23.7269 61.0378C24.1712 61.1458 24.6195 60.8757 24.7317 60.4325L24.9251 59.6686C24.9787 59.4577 25.1155 59.2763 25.3055 59.1642C25.4955 59.0522 25.7231 59.0187 25.9382 59.0711L34.9122 61.2554C35.1269 61.308 35.3116 61.4418 35.4259 61.6276C35.5401 61.8134 35.5745 62.036 35.5216 62.2467L35.3309 62.9973C35.2168 63.4465 35.4909 63.9025 35.9411 64.0124C36.3858 64.121 36.8348 63.8507 36.947 63.407L37.1403 62.6425C37.3002 62.0105 37.1976 61.3421 36.8552 60.7842C36.5128 60.2262 35.9585 59.8243 35.314 59.6667L26.34 57.4824C25.6956 57.3263 25.0143 57.4271 24.4456 57.7628C23.8769 58.0984 23.4672 58.6414 23.3064 59.2728L23.1159 60.0226C23.0017 60.4721 23.2763 60.9283 23.7269 61.0378ZM39.4569 69.1161L36.4925 80.8195C36.4356 81.0475 36.3332 81.2623 36.1913 81.4514C36.0494 81.6405 35.8708 81.8003 35.6657 81.9215C35.4606 82.0427 35.233 82.123 34.9962 82.1576C34.7593 82.1923 34.5178 82.1808 34.2855 82.1236L15.4878 77.5478C15.2556 77.4913 15.0371 77.3906 14.8446 77.2513C14.6522 77.112 14.4896 76.9368 14.3662 76.7359C14.2429 76.535 14.1611 76.3122 14.1256 76.0803C14.0901 75.8483 14.1016 75.6118 14.1594 75.3843L17.1238 63.6809C17.368 62.7197 18.2196 62.6877 19.1924 62.9252L37.9901 67.501C38.9705 67.7403 39.701 68.1568 39.4569 69.1161Z" fill="#894E57"/>
<path opacity="0.06" d="M39.6668 68.3042L37.8979 75.2865C37.69 76.1074 37.1134 76.9279 36.2812 76.771C36.2472 76.7646 36.2133 76.7573 36.1795 76.7491L16.3783 71.9283C16.3523 71.9219 16.3265 71.915 16.3009 71.9076C15.4816 71.6714 15.3579 70.6645 15.5674 69.838L17.3337 62.8671C17.4505 62.4081 17.7483 62.0134 18.1618 61.7696C18.5752 61.5257 19.0705 61.4528 19.5388 61.5667L38.3384 66.1407C39.3169 66.38 39.911 67.3449 39.6668 68.3042Z" fill="black"/>
<path d="M40.7625 66.4819L38.6478 74.8307C38.5876 75.0706 38.4796 75.2966 38.33 75.4955C38.1805 75.6944 37.9923 75.8624 37.7764 75.9899C37.5604 76.1173 37.3209 76.2018 37.0716 76.2383C36.8223 76.2748 36.5681 76.2627 36.3236 76.2027L16.5186 71.38C16.0248 71.2597 15.5999 70.9522 15.3375 70.5249C15.075 70.0976 14.9964 69.5856 15.119 69.1015L17.2337 60.7527C17.2946 60.513 17.4032 60.2874 17.553 60.0888C17.7029 59.8902 17.8913 59.7225 18.1073 59.5953C18.3233 59.4681 18.5627 59.3838 18.812 59.3473C19.0612 59.3108 19.3154 59.3228 19.5599 59.3826L39.363 64.2034C39.608 64.2625 39.8386 64.3685 40.0417 64.5152C40.2447 64.6619 40.4162 64.8465 40.5463 65.0584C40.6763 65.2703 40.7624 65.5054 40.7995 65.75C40.8366 65.9946 40.824 66.2421 40.7625 66.4819Z" fill="#A06167"/>
<path d="M29.3715 72.2613L28.5699 75.4274C28.5418 75.5311 28.4732 75.6197 28.3789 75.6741C28.2846 75.7284 28.1722 75.7441 28.0662 75.7177L24.0425 74.7377C23.9373 74.7119 23.8468 74.6462 23.7909 74.555C23.735 74.4638 23.7183 74.3547 23.7445 74.2514L24.5462 71.0872C24.5722 70.983 24.639 70.8931 24.7323 70.837C24.8255 70.7809 24.9376 70.7631 25.0441 70.7876L29.0678 71.7675C29.1739 71.7951 29.2649 71.8621 29.3215 71.9542C29.3782 72.0463 29.3961 72.1565 29.3715 72.2613Z" fill="#D7E9F9"/>
<path d="M28.1715 72.6845C28.1721 72.6851 28.1723 72.686 28.1721 72.6868L27.711 74.5003C27.6948 74.5595 27.6554 74.6101 27.6015 74.6411C27.5475 74.6722 27.4833 74.6812 27.4227 74.6662L25.1157 74.1046C25.0556 74.0895 25.0041 74.0516 24.9724 73.9994C24.9407 73.9471 24.9314 73.8846 24.9466 73.8257L25.406 72.0127C25.4207 71.9529 25.4587 71.9012 25.512 71.8687C25.5652 71.8363 25.6294 71.8257 25.6906 71.8393L27.9975 72.4009C28.0581 72.4169 28.1099 72.4553 28.1422 72.508C28.1742 72.5604 28.1845 72.6228 28.1708 72.6823C28.1706 72.6831 28.1709 72.6839 28.1715 72.6845Z" fill="white"/>
<path d="M28.2653 60.3477C27.4246 60.144 26.7007 59.6215 26.2527 58.895C25.8046 58.1685 25.669 57.2974 25.8757 56.4729C26.1758 55.2771 27.3838 54.5468 28.5822 54.8366L30.5993 55.3243C31.7905 55.6124 32.5184 56.8165 32.2197 58.0051C32.012 58.8297 31.4787 59.5396 30.7372 59.9789C29.9956 60.4182 29.1065 60.5508 28.2653 60.3477ZM89.1876 26.2138C89.1876 26.9685 88.8149 27.7342 88.0334 28.3203C87.876 28.4384 87.7183 28.557 87.5762 28.693L86.7813 29.4535C85.7446 30.4453 84.1507 30.5642 82.9783 29.7373L81.2587 28.5245C80.4463 27.9515 79.9705 27.0132 79.9883 26.0192L80.0233 24.0653C80.0159 23.9225 80.0384 23.7798 80.0893 23.6458C80.1401 23.5118 80.2183 23.3894 80.3191 23.286C80.4199 23.1826 80.5411 23.1005 80.6753 23.0446C80.8095 22.9887 80.954 22.9603 81.0998 22.9609C81.6516 22.9609 82.1514 23.3756 82.1764 23.9523C82.2236 24.776 83.1942 25.1887 83.8203 24.6515L84.343 24.2029C84.9352 23.7018 85.7058 23.451 86.4861 23.5053C87.2665 23.5597 87.9931 23.9149 88.507 24.4931C88.9434 24.9963 89.1876 25.5994 89.1876 26.2138Z" fill="#FDC7B4"/>
<path d="M115.75 59.8226C115.554 61.2193 114.268 62.196 112.87 62.0083C111.461 61.8192 110.476 60.5205 110.672 59.1131L111.09 56.1227C111.32 54.4756 110.167 52.9556 108.518 52.7342L105.312 52.3037C103.931 52.1181 102.964 50.8441 103.156 49.4636C103.348 48.0933 104.61 47.1351 105.982 47.3195L114.296 48.437C115.944 48.6586 117.097 50.1785 116.867 51.8255L115.75 59.8226Z" fill="#F26678"/>
</g>
<defs>
<filter id="filter0_d_508_1351" x="0" y="0.591797" width="153.035" height="150" filterUnits="userSpaceOnUse" color-interpolation-filters="sRGB">
<feFlood flood-opacity="0" result="BackgroundImageFix"/>
<feColorMatrix in="SourceAlpha" type="matrix" values="0 0 0 0 0 0 0 0 0 0 0 0 0 0 0 0 0 0 127 0" result="hardAlpha"/>
<feOffset dx="2" dy="2"/>
<feGaussianBlur stdDeviation="7.5"/>
<feComposite in2="hardAlpha" operator="out"/>
<feColorMatrix type="matrix" values="0 0 0 0 0 0 0 0 0 0 0 0 0 0 0 0 0 0 0.07 0"/>
<feBlend mode="normal" in2="BackgroundImageFix" result="effect1_dropShadow_508_1351"/>
<feBlend mode="normal" in="SourceGraphic" in2="effect1_dropShadow_508_1351" result="shape"/>
</filter>
</defs>
</svg>
