<svg width="16" height="13" viewBox="0 0 16 13" fill="none" xmlns="http://www.w3.org/2000/svg">
<rect y="10.9861" width="16" height="1.06667" rx="0.2" fill="#222222"/>
<path d="M1.56616 5.52002C1.56616 4.69159 2.23774 4.02002 3.06616 4.02002H12.9328C13.7613 4.02002 14.4328 4.69159 14.4328 5.52002V11.5534H1.56616V5.52002Z" stroke="#222222"/>
<path d="M4.26636 1.91956C4.26636 1.62501 4.50514 1.38623 4.79969 1.38623C5.09424 1.38623 5.33302 1.62501 5.33302 1.91956V3.51956H4.26636V1.91956Z" fill="#222222"/>
<path d="M4.79969 0L4.91943 0.368524H5.30692L4.99344 0.596285L5.11318 0.964809L4.79969 0.737049L4.48621 0.964809L4.60595 0.596285L4.29246 0.368524H4.67995L4.79969 0Z" fill="#222222"/>
<path d="M7.14673 1.91956C7.14673 1.62501 7.38551 1.38623 7.68006 1.38623C7.97461 1.38623 8.2134 1.62501 8.2134 1.91956V3.51956H7.14673V1.91956Z" fill="#222222"/>
<path d="M7.68006 0L7.7998 0.368524H8.18729L7.87381 0.596285L7.99355 0.964809L7.68006 0.737049L7.36658 0.964809L7.48632 0.596285L7.17283 0.368524H7.56032L7.68006 0Z" fill="#222222"/>
<path d="M10.0266 1.91956C10.0266 1.62501 10.2654 1.38623 10.5599 1.38623C10.8545 1.38623 11.0933 1.62501 11.0933 1.91956V3.51956H10.0266V1.91956Z" fill="#222222"/>
<path d="M10.5599 0L10.6797 0.368524H11.0672L10.7537 0.596285L10.8734 0.964809L10.5599 0.737049L10.2465 0.964809L10.3662 0.596285L10.0527 0.368524H10.4402L10.5599 0Z" fill="#222222"/>
</svg>
