<svg width="18" height="18" viewBox="0 0 18 18" fill="none" xmlns="http://www.w3.org/2000/svg">
<rect width="18" height="18" rx="3" fill="#1C4B81" fill-opacity="0.1"/>
<path d="M12.9595 13.5453H5.05162C4.46893 13.5453 4.01111 13.0203 4.01111 12.3521V6.62482C4.01111 5.95664 4.46893 5.43164 5.05162 5.43164H12.9595C13.5422 5.43164 14 5.95664 14 6.62482V12.3521C14 13.0203 13.5422 13.5453 12.9595 13.5453ZM5.05162 5.90891C4.71866 5.90891 4.42731 6.243 4.42731 6.62482V12.3521C4.42731 12.7339 4.71866 13.068 5.05162 13.068H12.9595C13.2925 13.068 13.5838 12.7339 13.5838 12.3521V6.62482C13.5838 6.243 13.2925 5.90891 12.9595 5.90891H5.05162Z" fill="#212427"/>
<path d="M10.4623 5.90909C10.3374 5.90909 10.2542 5.81364 10.2542 5.67045V4.71591C10.2542 4.57273 10.1709 4.47727 10.0461 4.47727H7.96502C7.84016 4.47727 7.75692 4.57273 7.75692 4.71591V5.67045C7.75692 5.81364 7.67368 5.90909 7.54882 5.90909C7.42396 5.90909 7.34071 5.81364 7.34071 5.67045V4.71591C7.34071 4.33409 7.63206 4 7.96502 4H10.0461C10.379 4 10.6704 4.33409 10.6704 4.71591V5.67045C10.6704 5.81364 10.5871 5.90909 10.4623 5.90909ZM9.00554 9.72727H8.9223L4.13593 7.81818C4.05269 7.77045 3.96945 7.62727 4.01107 7.48409C4.05269 7.38864 4.17755 7.29318 4.30241 7.34091L9.00554 9.25L13.7087 7.34091C13.8335 7.29318 13.9168 7.34091 13.9584 7.48409C14 7.62727 13.9584 7.72273 13.8335 7.77045L9.04716 9.67955C9.04716 9.72727 9.04716 9.72727 9.00554 9.72727Z" fill="#212427"/>
</svg>
