<svg width="131" height="96" viewBox="0 0 131 96" fill="none" xmlns="http://www.w3.org/2000/svg">
<g opacity="0.7">
<path d="M109.145 76.0155C106.794 76.0155 105.528 75.212 105.388 75.119C105.06 74.8994 104.841 74.5506 104.779 74.1605C104.719 73.7704 104.825 73.3725 105.071 73.0625C105.094 73.034 107.572 69.8407 106.745 66.7042C106.207 64.6683 104.355 62.9915 101.241 61.7204C100.518 61.4259 100.172 60.5991 100.466 59.8757C100.761 59.1523 101.588 58.8061 102.311 59.1006C106.303 60.7309 108.719 63.0535 109.486 66.0066C110.22 68.8253 109.233 71.4942 108.354 73.1451C108.602 73.1735 108.884 73.1891 109.199 73.1891C109.969 73.1891 110.62 73.8117 110.626 74.5945C110.631 75.3748 110.003 76.0129 109.22 76.0207C109.197 76.0155 109.171 76.0155 109.145 76.0155Z" fill="#133441"/>
<path d="M64.9189 95.2808C91.8255 95.2808 113.638 92.0755 113.638 88.1216C113.638 84.1677 91.8255 80.9624 64.9189 80.9624C38.0123 80.9624 16.2002 84.1677 16.2002 88.1216C16.2002 92.0755 38.0123 95.2808 64.9189 95.2808Z" fill="#DBDACB"/>
<path d="M56.4966 88.0028C55.7577 88.0028 55.135 87.4292 55.0859 86.6826C55.0342 85.9023 55.6233 85.228 56.4036 85.1763C56.5173 85.1686 56.6232 85.1582 56.7265 85.1479C55.6026 83.9207 54.3624 82.0889 54.0808 79.7817C53.7553 77.1077 54.7707 74.4595 57.096 71.9121C57.6231 71.3359 58.5171 71.2946 59.0958 71.8216C59.672 72.3487 59.7133 73.2426 59.1863 73.8213C57.4474 75.7255 56.6749 77.6115 56.8893 79.4252C57.2485 82.4609 60.2352 84.5175 60.2637 84.5382C60.6383 84.7914 60.8708 85.2099 60.8863 85.662C60.9019 86.1142 60.7029 86.5456 60.3489 86.8247C60.2172 86.928 58.9899 87.8426 56.5922 88.0028C56.5586 88.0028 56.5276 88.0028 56.4966 88.0028Z" fill="#133441"/>
<path d="M117.174 32.3747C114.681 32.3747 111.813 32.1008 108.555 31.5531C107.785 31.4239 107.266 30.6928 107.395 29.9228C107.524 29.1529 108.255 28.631 109.025 28.7628C118.293 30.3207 124.21 29.5198 126.134 26.4479C128.548 22.5957 124.52 15.3409 122.765 12.871C122.313 12.2354 122.46 11.3518 123.099 10.8971C123.734 10.445 124.618 10.5922 125.07 11.2278C125.372 11.6515 132.439 21.7044 128.535 27.9438C126.68 30.9072 122.936 32.3747 117.174 32.3747Z" fill="#133441"/>
<path d="M130.999 7.75299C131.001 6.97274 130.371 6.33459 129.591 6.33201C128.816 6.32942 128.185 6.94949 128.172 7.72458H128.17C128.17 7.74266 128.162 7.87442 128.123 8.06045C128.082 8.25938 128.004 8.51774 127.87 8.78385C127.769 8.98279 127.637 9.1869 127.464 9.38326C127.451 9.39617 127.439 9.4091 127.426 9.42202C127.444 9.05514 127.423 8.70376 127.371 8.37822C127.242 7.56955 126.958 6.91332 126.712 6.44569C126.464 5.97547 126.245 5.69128 126.209 5.64477C125.728 5.02729 124.839 4.91877 124.222 5.39674C123.607 5.87471 123.496 6.75831 123.969 7.37321C123.987 7.39388 124.222 7.722 124.392 8.16121C124.478 8.38082 124.55 8.62367 124.584 8.86653C124.617 9.10939 124.614 9.34968 124.565 9.58478C124.527 9.77081 124.459 9.95423 124.343 10.1558C124.297 10.2333 124.24 10.3159 124.175 10.3986C124.043 10.2539 123.886 10.0472 123.739 9.81213C123.47 9.39358 123.222 8.89754 123.051 8.51775C122.966 8.32656 122.896 8.16637 122.852 8.05527C122.829 7.99843 122.814 7.9571 122.801 7.92868L122.79 7.89768L122.788 7.8925C122.514 7.16134 121.697 6.78931 120.966 7.06317C120.235 7.33704 119.863 8.15346 120.137 8.88462C120.152 8.92337 120.475 9.79663 121.015 10.7655C121.261 11.2021 121.55 11.6594 121.902 12.0883C121.571 12.3312 121.263 12.4423 120.951 12.4939C120.62 12.5456 120.282 12.5198 119.987 12.4578C119.76 12.4113 119.563 12.3415 119.434 12.2898C119.37 12.264 119.323 12.2433 119.297 12.2304L119.274 12.2201C118.589 11.8558 117.739 12.1064 117.367 12.7885C116.993 13.4731 117.243 14.3335 117.93 14.7081C118.013 14.752 118.556 15.0465 119.408 15.2274C120.132 15.3798 121.106 15.447 122.157 15.1085C122.679 14.9406 123.214 14.6667 123.715 14.274C124.031 14.026 124.328 13.7289 124.607 13.3904C124.622 13.3879 124.638 13.3879 124.653 13.3853C124.679 13.3801 124.708 13.3724 124.733 13.3672C125.596 13.3129 126.359 13.1605 127.033 12.928C127.697 12.698 128.268 12.3906 128.748 12.0315C129.469 11.4967 129.971 10.8559 130.301 10.2539C130.635 9.64937 130.805 9.08097 130.898 8.64176C130.991 8.15862 130.996 7.82792 130.999 7.75299Z" fill="#133441"/>
<path d="M18.2199 59.015C16.9202 59.015 15.7059 58.7593 14.5768 58.2477C7.24163 54.9252 6.83081 42.0898 6.81789 41.5472C6.79722 40.767 7.41473 40.1185 8.19502 40.0978C8.97272 40.0797 9.6264 40.6946 9.64707 41.4749C9.64965 41.5911 10.0243 53.0856 15.7472 55.6744C19.0699 57.1755 23.7749 55.4186 29.7355 50.4529C30.3349 49.9517 31.2289 50.0344 31.7276 50.6338C32.2288 51.2332 32.1461 52.1271 31.5467 52.6258C26.4464 56.8784 21.9818 59.015 18.2199 59.015Z" fill="#133441"/>
<path d="M12.6409 40.0491C12.6331 40.0568 12.3954 40.31 12.0389 40.5322C11.8606 40.6433 11.6539 40.7467 11.4369 40.8216C11.2172 40.8939 10.9873 40.9379 10.7393 40.9379C10.5532 40.9379 10.3569 40.912 10.1372 40.8474C10.2354 40.5607 10.3155 40.2739 10.3775 39.9897C10.5274 39.2947 10.5972 38.6229 10.6333 38.1114C10.6695 37.5998 10.6695 37.251 10.6695 37.2252C10.6695 36.4449 10.0365 35.8094 9.25362 35.8094C8.47333 35.8094 7.84032 36.4424 7.83774 37.2226C7.83774 37.2381 7.83515 37.5016 7.81189 37.8788C7.79381 38.163 7.76023 38.5144 7.70597 38.8658C7.66721 39.1293 7.61553 39.3928 7.55352 39.6254C7.51218 39.7907 7.46051 39.9354 7.41401 40.0543C7.30032 39.9845 7.19956 39.9122 7.1143 39.8372C6.83784 39.5944 6.68281 39.3386 6.5743 39.0415C6.46836 38.7469 6.42444 38.4137 6.42444 38.101C6.42444 37.8194 6.45803 37.5611 6.49162 37.3854C6.50712 37.2975 6.52522 37.2304 6.53555 37.189L6.54588 37.1503V37.1477C6.77325 36.4062 6.35984 35.6182 5.61832 35.3831C4.87162 35.148 4.07842 35.5639 3.84589 36.3106C3.82005 36.3984 3.60043 37.0986 3.59784 38.101C3.59784 38.7289 3.69086 39.491 4.02158 40.2713C3.56168 40.0388 3.23613 39.7132 3.02168 39.4264C2.90799 39.274 2.83049 39.1371 2.78398 39.0492C2.76073 39.0053 2.74523 38.9717 2.74006 38.9562L2.73489 38.9459H2.7323C2.45068 38.2276 1.64198 37.8659 0.915954 38.1398C0.184761 38.4162 -0.184712 39.2327 0.0917459 39.9638C0.138253 40.0775 0.445702 40.881 1.27249 41.7284C1.68589 42.1496 2.23622 42.5785 2.939 42.8988C3.63919 43.2192 4.49181 43.4259 5.45554 43.4233C6.21515 43.4233 7.04454 43.2967 7.93851 43.0254C7.97727 43.0203 8.01601 43.0125 8.05476 43.0047C8.3984 43.2037 8.74205 43.3664 9.08568 43.4853C9.6541 43.6817 10.2148 43.7669 10.7393 43.7669C11.3671 43.7669 11.9381 43.6455 12.4264 43.4724C13.1628 43.2089 13.726 42.8342 14.1162 42.5242C14.5063 42.2116 14.7285 41.9584 14.7724 41.9093C15.284 41.3176 15.2168 40.4237 14.6278 39.9147C14.0387 39.4058 13.1524 39.4678 12.6409 40.0491Z" fill="#133441"/>
<path d="M116.7 58.9426C90.1236 66.8691 63.2141 73.4289 35.9739 78.6194C33.9922 78.9966 32.0053 77.9761 31.1424 76.1521C23.5256 60.0226 18.0093 43.5003 15.1439 26.4666C14.7771 24.2808 16.0999 22.1597 18.2212 21.5164C47.1485 12.745 76.4712 5.59612 106.189 0.0749314C108.367 -0.330696 110.519 0.945602 111.199 3.05383C116.49 19.496 119.196 36.7028 119.854 54.5298C119.929 56.545 118.635 58.3639 116.7 58.9426Z" fill="#E8C14D"/>
<path d="M115.217 57.4073C89.3233 65.0987 63.1114 71.488 36.5817 76.5726C34.6517 76.942 32.7242 75.9809 31.8949 74.2473C24.57 58.9187 19.2889 43.2052 16.5889 26.9878C16.2427 24.908 17.5423 22.8799 19.6067 22.2546C47.7925 13.7468 76.3556 6.78395 105.296 1.36869C107.417 0.970817 109.505 2.17479 110.153 4.18226C115.217 19.8209 117.757 36.2036 118.307 53.1831C118.372 55.1053 117.103 56.8467 115.217 57.4073Z" fill="#F4D27A"/>
<path d="M107.468 6.60466C105.98 4.57135 77.037 30.5134 67.5728 32.8206C58.1086 35.1278 20.4767 25.3979 20.0892 27.904C19.9548 28.7721 25.8741 30.1337 34.819 31.7355C39.2914 32.5364 44.5208 33.3993 50.1275 34.2933C50.9078 34.4147 51.6932 34.5387 52.4865 34.6627C53.8145 34.872 54.4863 36.3731 53.7654 37.5073C49.2232 44.6484 36.5604 68.8026 37.8161 69.4795C39.0718 70.159 52.4477 46.7747 55.9383 39.0652C56.9124 36.9105 59.2041 35.6729 61.5424 36.0217C63.9763 36.386 66.5083 36.7064 68.4125 36.2491C70.3141 35.7788 72.5516 34.4483 74.5566 32.9989C76.4711 31.6141 79.0755 31.6606 80.9306 33.1229C87.5786 38.365 108.517 52.5155 109.321 51.3374C110.122 50.1567 89.3148 34.8798 81.9926 30.6271C80.8299 29.9528 80.7369 28.3096 81.8194 27.5139C86.3487 24.1836 91.6815 20.2281 96.1565 16.7841C103.357 11.2448 107.987 7.31515 107.468 6.60466Z" fill="#F0DFAA"/>
<path d="M51.7964 56.4855C57.2993 55.0866 60.6277 49.4973 59.2304 44.0014C57.8331 38.5056 52.2394 35.1845 46.7364 36.5834C41.2335 37.9824 37.9052 43.5717 39.3024 49.0675C40.6997 54.5633 46.2934 57.8845 51.7964 56.4855Z" fill="white"/>
<path d="M56.0053 44.3244C54.8323 40.5988 50.8559 38.5319 47.1276 39.7075C43.3942 40.883 41.322 44.854 42.495 48.5796C43.668 52.3052 47.6444 54.3721 51.3753 53.1965C55.1062 52.021 57.1783 48.0499 56.0053 44.3244ZM48.2257 45.9753C47.4894 47.4609 45.8926 48.1688 44.6602 47.5617C43.4277 46.9519 43.0247 45.2545 43.761 43.7689C44.4974 42.2833 46.0941 41.5754 47.3266 42.1826C48.559 42.7923 48.9621 44.4897 48.2257 45.9753ZM54.7083 49.1092C54.282 49.9696 53.3596 50.3778 52.6439 50.0264C51.9308 49.675 51.6982 48.6907 52.1245 47.8329C52.5509 46.9726 53.4732 46.5644 54.1889 46.9157C54.902 47.2671 55.1346 48.2489 54.7083 49.1092Z" fill="#133441"/>
<path d="M94.5256 44.9556C100.027 43.5521 103.351 37.96 101.949 32.4653C100.548 26.9707 94.9511 23.6541 89.4492 25.0576C83.9474 26.4611 80.6237 32.0532 82.0255 37.5479C83.4273 43.0426 89.0238 46.3591 94.5256 44.9556Z" fill="white"/>
<path d="M98.7224 32.8793C97.5494 29.1537 93.5731 27.0868 89.8448 28.2624C86.1139 29.4379 84.0392 33.4089 85.2148 37.1345C86.3878 40.8601 90.3641 42.927 94.095 41.7514C97.8233 40.5759 99.8955 36.6049 98.7224 32.8793ZM90.93 34.1039C90.0127 35.4836 88.3385 35.9874 87.1913 35.2278C86.0441 34.4682 85.8581 32.7346 86.7753 31.3524C87.6925 29.9727 89.3668 29.4689 90.514 30.2285C91.6585 30.9881 91.8446 32.7243 90.93 34.1039ZM97.8181 37.2921C97.3918 38.1525 96.4694 38.5607 95.7538 38.2093C95.0406 37.8579 94.8081 36.8736 95.2344 36.0158C95.6607 35.1555 96.5831 34.7473 97.2988 35.0986C98.0093 35.45 98.2445 36.4344 97.8181 37.2921Z" fill="#133441"/>
<path d="M83.3253 17.7391C83.3925 19.5554 86.6919 20.067 90.2574 19.8577C93.4509 19.6691 96.5772 19.7724 96.9105 17.38C97.5952 12.4505 83.1238 12.267 83.3253 17.7391Z" fill="#133441"/>
<path d="M36.1676 33.6516C37.6532 35.5583 40.3093 33.9048 43.1669 32.4708C46.3604 30.869 48.9622 28.7789 48.1096 27.1719C45.5491 22.3353 33.1111 29.7296 36.1676 33.6516Z" fill="#133441"/>
<path d="M102.25 47.9466C104.633 47.3081 106.288 45.7582 105.947 44.4847C105.606 43.2112 103.397 42.6964 101.014 43.3349C98.6311 43.9734 96.9758 45.5233 97.3171 46.7968C97.6583 48.0703 99.8668 48.5851 102.25 47.9466Z" fill="#EE927E"/>
<path d="M49.6648 59.5711C50.0058 60.8449 48.3522 62.395 45.97 63.0332C43.5879 63.6713 41.3788 63.1572 41.0377 61.8835C40.6967 60.6098 42.3503 59.0596 44.7324 58.4214C47.1146 57.7807 49.3237 58.2974 49.6648 59.5711Z" fill="#EE927E"/>
<path d="M80.831 45.6511C83.6421 46.8111 82.2624 50.7434 74.5836 52.7999C66.9048 54.8565 64.0575 51.7716 65.6077 49.728C66.4965 48.5576 69.6125 49.8468 73.5139 48.8005C77.4153 47.7593 79.4358 45.0775 80.831 45.6511Z" fill="#133441"/>
<path d="M81.9435 46.4236C81.9435 46.4236 83.3878 50.485 82.8478 51.1206C82.3078 51.7562 81.3802 49.1106 81.1994 49.2423C81.0159 49.3741 82.9149 53.0945 81.8737 53.5931C80.8325 54.0892 79.1582 48.4517 79.1582 48.4517L81.9435 46.4236Z" fill="#133441"/>
</g>
</svg>
