<svg width="62" height="62" viewBox="0 0 62 62" fill="none" xmlns="http://www.w3.org/2000/svg">
<path d="M31 62C48.1208 62 62 48.1208 62 31C62 13.8792 48.1208 0 31 0C13.8792 0 0 13.8792 0 31C0 48.1208 13.8792 62 31 62Z" fill="#FFCA4F"/>
<path fill-rule="evenodd" clip-rule="evenodd" d="M27.0545 31.2776H34.9449L35.5843 37.9276L36.7195 38.8385L39.1137 40.3629L31 59.5288L22.8861 40.3629L25.2804 38.8385L26.4161 37.928L27.0545 31.2776Z" fill="#F0BA7D"/>
<path fill-rule="evenodd" clip-rule="evenodd" d="M24.4514 39.3303L17.9114 41.4178L31 59.5288L42.1357 40.8098L37.5151 39.3453L33.4461 42.2178H28.5681L24.4514 39.3303Z" fill="#ECF0F1"/>
<path fill-rule="evenodd" clip-rule="evenodd" d="M29.54 41.9543L30.0991 43.3333L28.8565 59.0502L31.0004 60.691L33.144 59.0502L31.9016 43.3333L32.4607 41.9543L31.0004 41.896L29.54 41.9543Z" fill="#FF5B62"/>
<path fill-rule="evenodd" clip-rule="evenodd" d="M24.5636 39.2947L12.996 42.9868C12.996 42.9868 11.4987 43.7651 11.0466 46.1334C10.6135 48.4008 10.3895 50.7185 10.0476 53.8456C15.5654 58.9087 22.9211 61.9999 31 61.9999C39.0788 61.9999 46.4349 58.9087 51.9525 53.8453C51.6104 50.7182 51.3864 48.4008 50.9532 46.1334C50.5011 43.7652 49.0039 42.9868 49.0039 42.9868L37.5151 39.3452L31 58.4518L24.5636 39.2947Z" fill="#15BDB2"/>
<path fill-rule="evenodd" clip-rule="evenodd" d="M24.5636 39.2947L22.0684 40.0912L21.5889 46.4223C21.5889 46.4223 21.7211 46.9424 22.1174 46.8956L24.3691 47.7422C24.3691 47.7422 24.5165 47.8899 24.3846 48.0762L22.4575 49.3966L29.1161 61.9459C29.7397 61.9817 30.3676 62 31.0001 62C31.6324 62 32.2603 61.9817 32.884 61.9459L39.5425 49.3966L37.6154 48.0762C37.4835 47.8899 37.631 47.7422 37.631 47.7422L39.8827 46.8956C40.2789 46.9424 40.4111 46.4223 40.4111 46.4223L39.9331 40.1117L37.5152 39.3452L31.0001 58.4518L24.5637 39.2947H24.5636Z" fill="#21D0C3"/>
<path fill-rule="evenodd" clip-rule="evenodd" d="M21.8107 17.7539C21.8107 18.3718 21.5854 18.9768 21.6022 19.5699C19.4878 19.1774 20.5088 25.4579 21.7051 26.3213C21.7999 26.3899 22.0341 26.2368 22.2311 26.1111C22.6462 28.4209 26.1876 34.5935 28.4394 37.1914C29.0649 37.9128 32.8889 37.9007 33.5081 37.219C35.8144 34.6799 39.3516 28.4343 39.7687 26.1111C39.9662 26.2368 40.1999 26.3898 40.2948 26.3213C41.4913 25.4579 42.5123 19.1774 40.3979 19.5699C40.4147 18.9768 40.1893 18.3719 40.1893 17.7539C40.0723 12.8769 35.6532 10.4422 31 10.4214C26.3468 10.4422 21.9278 12.877 21.8107 17.7539H21.8107Z" fill="#FED298"/>
<path fill-rule="evenodd" clip-rule="evenodd" d="M37.7081 11.5023C38.3749 11.4246 40.7836 12.1625 41.0726 14.7108C41.3618 17.2594 41.2236 19.6073 41.2236 19.6073C41.2236 19.6073 39.8127 19.9636 39.6349 21.41C39.4575 22.8566 39.584 22.8566 39.584 22.8566L39.0728 22.7419L38.7088 20.2621C36.5976 18.939 38.7248 16.9795 36.613 16.5208C30.9104 20.5852 25.8785 19.8897 23.6095 17.9776C23.6095 17.9776 24.1393 19.9774 23.7308 20.6906C23.3226 21.4035 23.5662 22.5273 23.5662 22.5273L23.0358 22.5018C23.0358 22.5018 23.1319 19.5566 21.9544 19.5697C17.4804 12.1829 31.644 3.00732 37.7081 11.5022L37.7081 11.5023Z" fill="#666666"/>
<path fill-rule="evenodd" clip-rule="evenodd" d="M26.3612 36.978C26.5268 36.9896 24.4301 39.3547 24.4301 39.3547L26.215 45.4665L31.0002 41.8958C28.368 40.6042 26.7973 38.9313 26.3612 36.978Z" fill="white"/>
<path fill-rule="evenodd" clip-rule="evenodd" d="M35.6396 36.978C35.474 36.9896 37.5705 39.3547 37.5705 39.3547L35.7855 45.4665L31.0001 41.8958C33.6324 40.6042 35.2035 38.9313 35.6396 36.978H35.6396Z" fill="white"/>
</svg>
