<svg width="218" height="102" viewBox="0 0 218 102" fill="none" xmlns="http://www.w3.org/2000/svg">
<path d="M125.598 2.85693H93.2271C87.1644 2.85693 82.2559 7.76547 82.2559 13.8282V46.2057C82.2559 52.2616 87.1644 57.1702 93.2271 57.1702H125.605C131.661 57.1702 136.576 52.2616 136.576 46.1989V13.8282C136.569 7.76547 131.661 2.85693 125.598 2.85693Z" fill="#0077B5"/>
<path fill-rule="evenodd" clip-rule="evenodd" d="M122.889 20.0179C122.889 20.0189 122.888 20.0198 122.887 20.0207L120.624 22.4305C120.518 22.543 120.329 22.4863 120.303 22.3341L118.876 14.0365C118.855 13.9139 118.957 13.8052 119.081 13.8188L127.444 14.7373C127.598 14.7541 127.666 14.9389 127.56 15.0514L125.48 17.2649C125.416 17.3329 125.412 17.4375 125.47 17.5107C128.279 21.0656 129.827 25.4547 129.865 29.9861C129.904 34.5718 128.396 39.0354 125.583 42.6562C122.771 46.2771 118.819 48.8437 114.366 49.9417C109.973 51.0247 105.345 50.6163 101.21 48.784C101.116 48.7421 101.074 48.6311 101.117 48.537L102.444 45.6165C102.487 45.5221 102.598 45.4807 102.693 45.5229C106.058 47.0224 109.825 47.3766 113.412 46.528C117.061 45.6649 120.315 43.6073 122.657 40.6823C125 37.7572 126.297 34.1326 126.341 30.3846C126.385 26.6448 125.18 22.9963 122.917 20.0165C122.91 20.007 122.896 20.0077 122.889 20.0179Z" fill="white"/>
<path fill-rule="evenodd" clip-rule="evenodd" d="M122.898 20.145L120.692 22.4935C120.533 22.6623 120.25 22.5772 120.21 22.3489L118.784 14.0513C118.752 13.8674 118.905 13.7045 119.091 13.7248L127.454 14.6433C127.684 14.6686 127.787 14.9458 127.628 15.1144L125.548 17.328C125.516 17.3618 125.513 17.4145 125.543 17.4517C128.365 21.0229 129.92 25.4321 129.958 29.9843C129.997 34.591 128.482 39.0751 125.657 42.7126C122.832 46.3501 118.862 48.9285 114.388 50.0315C109.975 51.1194 105.326 50.7092 101.172 48.8685C101.03 48.8053 100.967 48.6383 101.031 48.4973L102.358 45.5768C102.423 45.435 102.589 45.3737 102.73 45.4364C106.077 46.9276 109.823 47.2798 113.39 46.4359C117.019 45.5777 120.255 43.5315 122.584 40.6228C124.914 37.7141 126.203 34.1096 126.247 30.3824C126.291 26.694 125.112 23.0947 122.898 20.145ZM122.962 20.0752C122.956 20.0666 122.949 20.0581 122.943 20.0496C122.934 20.0382 122.926 20.0268 122.917 20.0155C122.91 20.006 122.895 20.0067 122.889 20.0169C122.889 20.0175 122.888 20.0182 122.888 20.0188C122.888 20.0191 122.887 20.0194 122.887 20.0197L120.623 22.4295C120.518 22.542 120.329 22.4853 120.303 22.3331L118.876 14.0355C118.855 13.9129 118.957 13.8042 119.081 13.8178L127.444 14.7363C127.598 14.7531 127.666 14.9379 127.56 15.0504L125.479 17.2639C125.416 17.3319 125.412 17.4365 125.469 17.5097C128.279 21.0646 129.826 25.4537 129.865 29.9851C129.904 34.5707 128.395 39.0344 125.583 42.6552C122.771 46.2761 118.819 48.8427 114.366 49.9406C109.973 51.0236 105.345 50.6153 101.21 48.7829C101.116 48.7411 101.074 48.6301 101.117 48.536L102.443 45.6154C102.486 45.5211 102.598 45.4797 102.692 45.5219C106.058 47.0214 109.824 47.3756 113.412 46.5269C117.06 45.6639 120.315 43.6063 122.657 40.6813C125 37.7562 126.296 34.1316 126.341 30.3836C126.385 26.6688 125.196 23.0441 122.962 20.0754C122.962 20.0753 122.962 20.0752 122.962 20.0752Z" fill="white"/>
<path fill-rule="evenodd" clip-rule="evenodd" d="M93.27 42.7124C93.3336 42.6445 93.3375 42.54 93.2797 42.4669C90.4703 38.9119 88.9229 34.5228 88.8843 29.9913C88.8453 25.4056 90.3537 20.942 93.166 17.3212C95.9782 13.7003 99.9301 11.1337 104.384 10.0357C108.776 8.95274 113.404 9.3611 117.539 11.1934C117.634 11.2353 117.675 11.3463 117.632 11.4404L116.306 14.3612C116.263 14.4554 116.151 14.4968 116.057 14.4548C112.691 12.9605 108.927 12.61 105.343 13.4604C101.697 14.3251 98.4459 16.3823 96.1049 19.3054C93.7638 22.2286 92.4671 25.8503 92.4204 29.5958C92.3746 33.2677 93.5327 36.8524 95.7144 39.8037C95.7832 39.8967 95.9193 39.9039 95.9985 39.8196L98.1067 37.578C98.2124 37.4656 98.401 37.5223 98.4273 37.6743L99.8592 45.9634C99.8804 46.086 99.7782 46.1948 99.6545 46.1812L91.2904 45.2627C91.1372 45.2459 91.0689 45.0613 91.1743 44.9488L93.27 42.7124Z" fill="white"/>
<path fill-rule="evenodd" clip-rule="evenodd" d="M93.2061 42.5252C90.3838 38.9539 88.8292 34.5446 88.7905 29.9924C88.7513 25.3857 90.2666 20.9015 93.0918 17.2641C95.917 13.6266 99.887 11.0482 104.361 9.94522C108.774 8.85724 113.423 9.26748 117.577 11.1082C117.719 11.1713 117.781 11.3384 117.717 11.4794L116.39 14.4001C116.326 14.5418 116.16 14.6031 116.019 14.5406C112.672 13.0545 108.929 12.706 105.364 13.5517C101.739 14.4116 98.5056 16.4573 96.1776 19.3642C93.8496 22.2711 92.5601 25.8726 92.5137 29.5973C92.4681 33.2487 93.6198 36.8135 95.7893 39.7483C95.823 39.7938 95.8903 39.7982 95.9301 39.7558L98.0383 37.5142C98.1968 37.3456 98.4798 37.4306 98.5192 37.6587L99.9512 45.9478C99.9829 46.1317 99.8296 46.2948 99.644 46.2745L91.2799 45.356C91.0501 45.3307 90.9477 45.0539 91.1058 44.8851L93.2014 42.6488C93.2331 42.615 93.2355 42.5623 93.2061 42.5252ZM93.2795 42.4672C93.3372 42.5403 93.3334 42.6448 93.2697 42.7127L91.1741 44.9491C91.0687 45.0616 91.1369 45.2461 91.2901 45.263L99.6542 46.1815C99.7779 46.1951 99.8802 46.0863 99.859 45.9637L98.427 37.6746C98.4008 37.5226 98.2121 37.4659 98.1064 37.5783L95.9982 39.8199C95.919 39.9041 95.7829 39.897 95.7141 39.8039C93.5324 36.8527 92.3743 33.268 92.4201 29.5961C92.4668 25.8505 93.7636 22.2289 96.1046 19.3057C98.4456 16.3826 101.697 14.3254 105.342 13.4606C108.927 12.6103 112.691 12.9608 116.057 14.4551C116.151 14.4971 116.262 14.4557 116.305 14.3615L117.632 11.4407C117.675 11.3466 117.633 11.2356 117.539 11.1937C113.404 9.36139 108.776 8.95303 104.383 10.036C99.9299 11.134 95.978 13.7006 93.1657 17.3214C90.3534 20.9423 88.845 25.4059 88.884 29.9916C88.9226 34.523 90.47 38.9122 93.2795 42.4672Z" fill="white"/>
<path d="M114.413 24.1707C114.413 26.9914 112.146 29.278 109.348 29.278C106.551 29.278 104.283 26.9914 104.283 24.1707C104.283 21.3501 106.551 19.0635 109.348 19.0635C112.146 19.0635 114.413 21.3501 114.413 24.1707Z" fill="white"/>
<path d="M99.6797 37.411C99.6797 34.0148 102.433 31.2616 105.829 31.2616H113.003C116.4 31.2616 119.153 34.0148 119.153 37.411V38.8977H99.6797V37.411Z" fill="white"/>
<path d="M1.43821 98V84.9091H6.23224C7.16122 84.9091 7.9304 85.0625 8.53977 85.3693C9.14915 85.6719 9.60511 86.0831 9.90767 86.603C10.2102 87.1186 10.3615 87.7003 10.3615 88.348C10.3615 88.8935 10.2614 89.3537 10.0611 89.7287C9.8608 90.0994 9.59233 90.3977 9.25568 90.6236C8.9233 90.8452 8.55682 91.0071 8.15625 91.1094V91.2372C8.59091 91.2585 9.01491 91.3991 9.42827 91.6591C9.84588 91.9148 10.1911 92.2791 10.4638 92.7521C10.7365 93.2251 10.8729 93.8004 10.8729 94.478C10.8729 95.147 10.7152 95.7479 10.3999 96.2805C10.0888 96.8089 9.60724 97.2287 8.95526 97.5398C8.30327 97.8466 7.47017 98 6.45597 98H1.43821ZM3.41335 96.3061H6.2642C7.21023 96.3061 7.88778 96.1229 8.29688 95.7564C8.70597 95.3899 8.91051 94.9318 8.91051 94.3821C8.91051 93.9687 8.80611 93.5895 8.5973 93.2443C8.38849 92.8991 8.0902 92.6243 7.70241 92.4197C7.31889 92.2152 6.86293 92.1129 6.33452 92.1129H3.41335V96.3061ZM3.41335 90.5724H6.05966C6.50284 90.5724 6.90128 90.4872 7.25497 90.3168C7.61293 90.1463 7.89631 89.9077 8.10511 89.6009C8.31818 89.2898 8.42472 88.9233 8.42472 88.5014C8.42472 87.9602 8.23509 87.5064 7.85582 87.1399C7.47656 86.7734 6.89489 86.5902 6.1108 86.5902H3.41335V90.5724ZM13.0621 98V88.1818H14.9094V89.7415H15.0117C15.1907 89.2131 15.506 88.7976 15.9577 88.495C16.4137 88.1882 16.9293 88.0348 17.5046 88.0348C17.6239 88.0348 17.7646 88.0391 17.9265 88.0476C18.0927 88.0561 18.2227 88.0668 18.3164 88.0795V89.9077C18.2397 89.8864 18.1033 89.8629 17.9073 89.8374C17.7113 89.8075 17.5153 89.7926 17.3192 89.7926C16.8675 89.7926 16.4648 89.8885 16.1112 90.0803C15.7617 90.2678 15.4847 90.5298 15.2802 90.8665C15.0756 91.1989 14.9734 91.5781 14.9734 92.0043V98H13.0621ZM19.9703 98V88.1818H21.8816V98H19.9703ZM20.9355 86.6669C20.6032 86.6669 20.3176 86.5561 20.079 86.3345C19.8446 86.1087 19.7275 85.8402 19.7275 85.5291C19.7275 85.2138 19.8446 84.9453 20.079 84.7237C20.3176 84.4979 20.6032 84.3849 20.9355 84.3849C21.2679 84.3849 21.5513 84.4979 21.7857 84.7237C22.0243 84.9453 22.1436 85.2138 22.1436 85.5291C22.1436 85.8402 22.0243 86.1087 21.7857 86.3345C21.5513 86.5561 21.2679 86.6669 20.9355 86.6669ZM26.364 92.1705V98H24.4528V88.1818H26.2873V89.7798H26.4087C26.6346 89.2599 26.9883 88.8423 27.4698 88.527C27.9556 88.2116 28.5671 88.054 29.3043 88.054C29.9734 88.054 30.5593 88.1946 31.0621 88.4759C31.565 88.7528 31.9549 89.1662 32.2319 89.7159C32.5089 90.2656 32.6474 90.9453 32.6474 91.755V98H30.7362V91.9851C30.7362 91.2734 30.5508 90.7173 30.18 90.3168C29.8093 89.9119 29.3001 89.7095 28.6523 89.7095C28.2092 89.7095 27.815 89.8054 27.4698 89.9972C27.1289 90.1889 26.8583 90.4702 26.658 90.8409C26.462 91.2074 26.364 91.6506 26.364 92.1705ZM39.3271 101.886C38.5472 101.886 37.8761 101.784 37.3136 101.58C36.7553 101.375 36.2994 101.104 35.9457 100.768C35.592 100.431 35.3278 100.063 35.1531 99.6619L36.7958 98.9844C36.9109 99.1719 37.0643 99.37 37.256 99.5788C37.4521 99.7919 37.7163 99.973 38.0487 100.122C38.3853 100.271 38.8178 100.346 39.3462 100.346C40.0707 100.346 40.6694 100.169 41.1424 99.8153C41.6154 99.4659 41.8519 98.9077 41.8519 98.1406V96.2102H41.7305C41.6154 96.419 41.4492 96.6513 41.2319 96.907C41.0188 97.1626 40.7248 97.3842 40.3498 97.5717C39.9748 97.7592 39.4869 97.853 38.886 97.853C38.1104 97.853 37.4116 97.6719 36.7894 97.3097C36.1715 96.9432 35.6815 96.4041 35.3192 95.6925C34.9613 94.9766 34.7823 94.0966 34.7823 93.0526C34.7823 92.0085 34.9592 91.1136 35.3129 90.3679C35.6708 89.6222 36.1609 89.0511 36.783 88.6548C37.4052 88.2543 38.1104 88.054 38.8988 88.054C39.5082 88.054 40.0004 88.1562 40.3754 88.3608C40.7504 88.5611 41.0423 88.7955 41.2511 89.0639C41.4641 89.3324 41.6282 89.5689 41.7433 89.7734H41.8839V88.1818H43.7567V98.2173C43.7567 99.0611 43.5607 99.7536 43.1687 100.295C42.7766 100.836 42.2461 101.237 41.5771 101.496C40.9123 101.756 40.1623 101.886 39.3271 101.886ZM39.3079 96.2678C39.8576 96.2678 40.3221 96.1399 40.7013 95.8842C41.0849 95.6243 41.3746 95.2536 41.5707 94.772C41.771 94.2862 41.8711 93.7045 41.8711 93.027C41.8711 92.3665 41.7731 91.7848 41.5771 91.282C41.381 90.7791 41.0934 90.3871 40.7141 90.1058C40.3349 89.8203 39.8661 89.6776 39.3079 89.6776C38.7326 89.6776 38.2532 89.8267 37.8697 90.125C37.4862 90.419 37.1964 90.8196 37.0004 91.3267C36.8086 91.8338 36.7127 92.4006 36.7127 93.027C36.7127 93.6705 36.8107 94.2351 37.0067 94.7209C37.2028 95.2067 37.4925 95.5859 37.8761 95.8587C38.2638 96.1314 38.7411 96.2678 39.3079 96.2678ZM46.32 98V88.1818H48.2312V98H46.32ZM47.2852 86.6669C46.9528 86.6669 46.6673 86.5561 46.4286 86.3345C46.1942 86.1087 46.0771 85.8402 46.0771 85.5291C46.0771 85.2138 46.1942 84.9453 46.4286 84.7237C46.6673 84.4979 46.9528 84.3849 47.2852 84.3849C47.6175 84.3849 47.9009 84.4979 48.1353 84.7237C48.3739 84.9453 48.4933 85.2138 48.4933 85.5291C48.4933 85.8402 48.3739 86.1087 48.1353 86.3345C47.9009 86.5561 47.6175 86.6669 47.2852 86.6669ZM52.7136 92.1705V98H50.8024V88.1818H52.6369V89.7798H52.7583C52.9842 89.2599 53.3379 88.8423 53.8194 88.527C54.3052 88.2116 54.9167 88.054 55.6539 88.054C56.323 88.054 56.9089 88.1946 57.4118 88.4759C57.9146 88.7528 58.3045 89.1662 58.5815 89.7159C58.8585 90.2656 58.997 90.9453 58.997 91.755V98H57.0858V91.9851C57.0858 91.2734 56.9004 90.7173 56.5297 90.3168C56.1589 89.9119 55.6497 89.7095 55.002 89.7095C54.5588 89.7095 54.1646 89.8054 53.8194 89.9972C53.4785 90.1889 53.2079 90.4702 53.0076 90.8409C52.8116 91.2074 52.7136 91.6506 52.7136 92.1705ZM65.8317 86.6094V84.9091H75.9631V86.6094H71.8786V98H69.9098V86.6094H65.8317ZM80.8562 98.1982C79.8888 98.1982 79.0558 97.9915 78.3569 97.5781C77.6623 97.1605 77.1254 96.5746 76.7461 95.8203C76.3711 95.0618 76.1836 94.1733 76.1836 93.1548C76.1836 92.1491 76.3711 91.2628 76.7461 90.4957C77.1254 89.7287 77.6538 89.13 78.3313 88.6996C79.0131 88.2692 79.81 88.054 80.7219 88.054C81.2759 88.054 81.8129 88.1456 82.3327 88.3288C82.8526 88.5121 83.3192 88.7997 83.7326 89.1918C84.146 89.5838 84.4719 90.093 84.7106 90.7195C84.9492 91.3416 85.0685 92.098 85.0685 92.9886V93.6662H77.2638V92.2344H83.1957C83.1957 91.7315 83.0934 91.2862 82.8888 90.8984C82.6843 90.5064 82.3967 90.1974 82.0259 89.9716C81.6594 89.7457 81.229 89.6328 80.7347 89.6328C80.1978 89.6328 79.729 89.7649 79.3285 90.0291C78.9322 90.2891 78.6254 90.63 78.408 91.0518C78.195 91.4695 78.0884 91.9233 78.0884 92.4134V93.532C78.0884 94.1882 78.2035 94.7464 78.4336 95.2067C78.668 95.6669 78.994 96.0185 79.4116 96.2614C79.8292 96.5 80.3171 96.6193 80.8754 96.6193C81.2376 96.6193 81.5678 96.5682 81.8661 96.4659C82.1644 96.3594 82.4222 96.2017 82.6396 95.9929C82.8569 95.7841 83.0231 95.5263 83.1381 95.2195L84.9471 95.5455C84.8022 96.0781 84.5423 96.5447 84.1673 96.9453C83.7965 97.3416 83.3299 97.6506 82.7674 97.8722C82.2092 98.0895 81.5721 98.1982 80.8562 98.1982ZM91.3248 98.1982C90.3745 98.1982 89.5563 97.983 88.8702 97.5526C88.1884 97.1179 87.6642 96.5192 87.2978 95.7564C86.9313 94.9936 86.748 94.12 86.748 93.1357C86.748 92.1385 86.9355 91.2585 87.3105 90.4957C87.6855 89.7287 88.214 89.13 88.8958 88.6996C89.5776 88.2692 90.3809 88.054 91.3056 88.054C92.0513 88.054 92.7161 88.1925 93.2999 88.4695C93.8837 88.7422 94.3546 89.1257 94.7125 89.62C95.0748 90.1143 95.29 90.6918 95.3581 91.3523H93.498C93.3958 90.892 93.1614 90.4957 92.7949 90.1634C92.4327 89.831 91.9469 89.6648 91.3375 89.6648C90.8049 89.6648 90.3382 89.8054 89.9377 90.0866C89.5414 90.3636 89.2324 90.7599 89.0108 91.2756C88.7892 91.7869 88.6784 92.392 88.6784 93.0909C88.6784 93.8068 88.7871 94.4247 89.0044 94.9446C89.2218 95.4645 89.5286 95.8672 89.9249 96.1527C90.3255 96.4382 90.7963 96.581 91.3375 96.581C91.6998 96.581 92.0279 96.5149 92.3219 96.3828C92.6202 96.2464 92.8695 96.0526 93.0698 95.8011C93.2743 95.5497 93.4171 95.2472 93.498 94.8935H95.3581C95.29 95.5284 95.0833 96.0952 94.7381 96.5938C94.3929 97.0923 93.9306 97.4844 93.351 97.7699C92.7757 98.0554 92.1003 98.1982 91.3248 98.1982ZM99.3132 92.1705V98H97.402V84.9091H99.2876V89.7798H99.4091C99.6392 89.2514 99.9908 88.8317 100.464 88.5206C100.937 88.2095 101.555 88.054 102.317 88.054C102.991 88.054 103.579 88.1925 104.082 88.4695C104.589 88.7464 104.981 89.1598 105.258 89.7095C105.539 90.255 105.68 90.9368 105.68 91.755V98H103.768V91.9851C103.768 91.2649 103.583 90.7067 103.212 90.3104C102.842 89.9098 102.326 89.7095 101.665 89.7095C101.214 89.7095 100.809 89.8054 100.451 89.9972C100.097 90.1889 99.8182 90.4702 99.6136 90.8409C99.4134 91.2074 99.3132 91.6506 99.3132 92.1705ZM110.141 92.1705V98H108.23V88.1818H110.065V89.7798H110.186C110.412 89.2599 110.766 88.8423 111.247 88.527C111.733 88.2116 112.344 88.054 113.082 88.054C113.751 88.054 114.337 88.1946 114.839 88.4759C115.342 88.7528 115.732 89.1662 116.009 89.7159C116.286 90.2656 116.425 90.9453 116.425 91.755V98H114.513V91.9851C114.513 91.2734 114.328 90.7173 113.957 90.3168C113.587 89.9119 113.077 89.7095 112.43 89.7095C111.987 89.7095 111.592 89.8054 111.247 89.9972C110.906 90.1889 110.636 90.4702 110.435 90.8409C110.239 91.2074 110.141 91.6506 110.141 92.1705ZM123.124 98.1982C122.203 98.1982 121.4 97.9872 120.714 97.5653C120.028 97.1435 119.495 96.5533 119.116 95.7947C118.737 95.0362 118.547 94.1499 118.547 93.1357C118.547 92.1172 118.737 91.2266 119.116 90.4638C119.495 89.701 120.028 89.1087 120.714 88.6868C121.4 88.2649 122.203 88.054 123.124 88.054C124.044 88.054 124.847 88.2649 125.533 88.6868C126.219 89.1087 126.752 89.701 127.131 90.4638C127.511 91.2266 127.7 92.1172 127.7 93.1357C127.7 94.1499 127.511 95.0362 127.131 95.7947C126.752 96.5533 126.219 97.1435 125.533 97.5653C124.847 97.9872 124.044 98.1982 123.124 98.1982ZM123.13 96.5938C123.727 96.5938 124.221 96.4361 124.613 96.1207C125.005 95.8054 125.295 95.3857 125.482 94.8615C125.674 94.3374 125.77 93.7599 125.77 93.1293C125.77 92.5028 125.674 91.9276 125.482 91.4034C125.295 90.875 125.005 90.451 124.613 90.1314C124.221 89.8118 123.727 89.652 123.13 89.652C122.529 89.652 122.031 89.8118 121.634 90.1314C121.242 90.451 120.95 90.875 120.759 91.4034C120.571 91.9276 120.477 92.5028 120.477 93.1293C120.477 93.7599 120.571 94.3374 120.759 94.8615C120.95 95.3857 121.242 95.8054 121.634 96.1207C122.031 96.4361 122.529 96.5938 123.13 96.5938ZM131.745 84.9091V98H129.834V84.9091H131.745ZM138.452 98.1982C137.531 98.1982 136.728 97.9872 136.042 97.5653C135.356 97.1435 134.823 96.5533 134.444 95.7947C134.065 95.0362 133.875 94.1499 133.875 93.1357C133.875 92.1172 134.065 91.2266 134.444 90.4638C134.823 89.701 135.356 89.1087 136.042 88.6868C136.728 88.2649 137.531 88.054 138.452 88.054C139.372 88.054 140.175 88.2649 140.862 88.6868C141.548 89.1087 142.08 89.701 142.46 90.4638C142.839 91.2266 143.028 92.1172 143.028 93.1357C143.028 94.1499 142.839 95.0362 142.46 95.7947C142.08 96.5533 141.548 97.1435 140.862 97.5653C140.175 97.9872 139.372 98.1982 138.452 98.1982ZM138.458 96.5938C139.055 96.5938 139.549 96.4361 139.941 96.1207C140.333 95.8054 140.623 95.3857 140.81 94.8615C141.002 94.3374 141.098 93.7599 141.098 93.1293C141.098 92.5028 141.002 91.9276 140.81 91.4034C140.623 90.875 140.333 90.451 139.941 90.1314C139.549 89.8118 139.055 89.652 138.458 89.652C137.857 89.652 137.359 89.8118 136.962 90.1314C136.57 90.451 136.278 90.875 136.087 91.4034C135.899 91.9276 135.805 92.5028 135.805 93.1293C135.805 93.7599 135.899 94.3374 136.087 94.8615C136.278 95.3857 136.57 95.8054 136.962 96.1207C137.359 96.4361 137.857 96.5938 138.458 96.5938ZM149.278 101.886C148.498 101.886 147.827 101.784 147.265 101.58C146.706 101.375 146.251 101.104 145.897 100.768C145.543 100.431 145.279 100.063 145.104 99.6619L146.747 98.9844C146.862 99.1719 147.015 99.37 147.207 99.5788C147.403 99.7919 147.667 99.973 148 100.122C148.336 100.271 148.769 100.346 149.297 100.346C150.022 100.346 150.621 100.169 151.094 99.8153C151.567 99.4659 151.803 98.9077 151.803 98.1406V96.2102H151.682C151.567 96.419 151.4 96.6513 151.183 96.907C150.97 97.1626 150.676 97.3842 150.301 97.5717C149.926 97.7592 149.438 97.853 148.837 97.853C148.062 97.853 147.363 97.6719 146.741 97.3097C146.123 96.9432 145.633 96.4041 145.27 95.6925C144.912 94.9766 144.733 94.0966 144.733 93.0526C144.733 92.0085 144.91 91.1136 145.264 90.3679C145.622 89.6222 146.112 89.0511 146.734 88.6548C147.356 88.2543 148.062 88.054 148.85 88.054C149.459 88.054 149.952 88.1562 150.327 88.3608C150.702 88.5611 150.993 88.7955 151.202 89.0639C151.415 89.3324 151.579 89.5689 151.694 89.7734H151.835V88.1818H153.708V98.2173C153.708 99.0611 153.512 99.7536 153.12 100.295C152.728 100.836 152.197 101.237 151.528 101.496C150.863 101.756 150.113 101.886 149.278 101.886ZM149.259 96.2678C149.809 96.2678 150.273 96.1399 150.653 95.8842C151.036 95.6243 151.326 95.2536 151.522 94.772C151.722 94.2862 151.822 93.7045 151.822 93.027C151.822 92.3665 151.724 91.7848 151.528 91.282C151.332 90.7791 151.045 90.3871 150.665 90.1058C150.286 89.8203 149.817 89.6776 149.259 89.6776C148.684 89.6776 148.204 89.8267 147.821 90.125C147.437 90.419 147.148 90.8196 146.952 91.3267C146.76 91.8338 146.664 92.4006 146.664 93.027C146.664 93.6705 146.762 94.2351 146.958 94.7209C147.154 95.2067 147.444 95.5859 147.827 95.8587C148.215 96.1314 148.692 96.2678 149.259 96.2678ZM156.271 98V88.1818H158.182V98H156.271ZM157.236 86.6669C156.904 86.6669 156.618 86.5561 156.38 86.3345C156.145 86.1087 156.028 85.8402 156.028 85.5291C156.028 85.2138 156.145 84.9453 156.38 84.7237C156.618 84.4979 156.904 84.3849 157.236 84.3849C157.569 84.3849 157.852 84.4979 158.086 84.7237C158.325 84.9453 158.444 85.2138 158.444 85.5291C158.444 85.8402 158.325 86.1087 158.086 86.3345C157.852 86.5561 157.569 86.6669 157.236 86.6669ZM164.985 98.1982C164.018 98.1982 163.185 97.9915 162.486 97.5781C161.791 97.1605 161.254 96.5746 160.875 95.8203C160.5 95.0618 160.312 94.1733 160.312 93.1548C160.312 92.1491 160.5 91.2628 160.875 90.4957C161.254 89.7287 161.783 89.13 162.46 88.6996C163.142 88.2692 163.939 88.054 164.851 88.054C165.405 88.054 165.942 88.1456 166.462 88.3288C166.982 88.5121 167.448 88.7997 167.862 89.1918C168.275 89.5838 168.601 90.093 168.839 90.7195C169.078 91.3416 169.197 92.098 169.197 92.9886V93.6662H161.393V92.2344H167.325C167.325 91.7315 167.222 91.2862 167.018 90.8984C166.813 90.5064 166.526 90.1974 166.155 89.9716C165.788 89.7457 165.358 89.6328 164.864 89.6328C164.327 89.6328 163.858 89.7649 163.457 90.0291C163.061 90.2891 162.754 90.63 162.537 91.0518C162.324 91.4695 162.217 91.9233 162.217 92.4134V93.532C162.217 94.1882 162.332 94.7464 162.562 95.2067C162.797 95.6669 163.123 96.0185 163.54 96.2614C163.958 96.5 164.446 96.6193 165.004 96.6193C165.366 96.6193 165.697 96.5682 165.995 96.4659C166.293 96.3594 166.551 96.2017 166.768 95.9929C166.986 95.7841 167.152 95.5263 167.267 95.2195L169.076 95.5455C168.931 96.0781 168.671 96.5447 168.296 96.9453C167.925 97.3416 167.459 97.6506 166.896 97.8722C166.338 98.0895 165.701 98.1982 164.985 98.1982ZM178.675 90.5788L176.943 90.8857C176.871 90.6641 176.756 90.4531 176.598 90.2528C176.444 90.0526 176.236 89.8885 175.971 89.7607C175.707 89.6328 175.377 89.5689 174.981 89.5689C174.439 89.5689 173.988 89.6903 173.626 89.9332C173.263 90.1719 173.082 90.4808 173.082 90.8601C173.082 91.1882 173.204 91.4524 173.447 91.6527C173.689 91.853 174.081 92.017 174.623 92.1449L176.182 92.5028C177.086 92.7116 177.759 93.0334 178.202 93.468C178.645 93.9027 178.867 94.4673 178.867 95.1619C178.867 95.75 178.697 96.2741 178.356 96.7344C178.019 97.1903 177.548 97.5483 176.943 97.8082C176.342 98.0682 175.645 98.1982 174.853 98.1982C173.753 98.1982 172.856 97.9638 172.162 97.495C171.467 97.022 171.041 96.3509 170.883 95.4815L172.731 95.2003C172.846 95.6818 173.082 96.0462 173.44 96.2933C173.798 96.5362 174.265 96.6577 174.84 96.6577C175.466 96.6577 175.967 96.5277 176.342 96.2678C176.717 96.0036 176.905 95.6818 176.905 95.3026C176.905 94.9957 176.79 94.7379 176.559 94.5291C176.334 94.3203 175.986 94.1626 175.518 94.0561L173.856 93.6918C172.939 93.483 172.262 93.1506 171.823 92.6946C171.388 92.2386 171.171 91.6612 171.171 90.9624C171.171 90.3828 171.333 89.8757 171.657 89.4411C171.981 89.0064 172.428 88.6676 172.999 88.4247C173.57 88.1776 174.224 88.054 174.961 88.054C176.023 88.054 176.858 88.2841 177.467 88.7443C178.077 89.2003 178.479 89.8118 178.675 90.5788ZM185.885 98V84.9091H187.861V96.2997H193.792V98H185.885ZM200.071 88.1818V89.7159H194.708V88.1818H200.071ZM196.146 85.8295H198.058V95.1172C198.058 95.4879 198.113 95.767 198.224 95.9545C198.335 96.1378 198.477 96.2635 198.652 96.3317C198.831 96.3956 199.025 96.4276 199.234 96.4276C199.387 96.4276 199.521 96.4169 199.636 96.3956C199.751 96.3743 199.841 96.3572 199.905 96.3445L200.25 97.9233C200.139 97.9659 199.982 98.0085 199.777 98.0511C199.572 98.098 199.317 98.1236 199.01 98.1278C198.507 98.1364 198.038 98.0469 197.604 97.8594C197.169 97.6719 196.817 97.3821 196.549 96.9901C196.281 96.598 196.146 96.1058 196.146 95.5135V85.8295ZM205.755 98.1918C204.963 98.1918 204.255 97.9893 203.633 97.5845C203.015 97.1754 202.529 96.5937 202.176 95.8395C201.826 95.081 201.651 94.1712 201.651 93.1101C201.651 92.049 201.828 91.1413 202.182 90.3871C202.54 89.6328 203.03 89.0554 203.652 88.6548C204.274 88.2543 204.98 88.054 205.768 88.054C206.377 88.054 206.867 88.1562 207.238 88.3608C207.613 88.5611 207.903 88.7955 208.107 89.0639C208.316 89.3324 208.478 89.5689 208.593 89.7734H208.708V84.9091H210.619V98H208.753V96.4723H208.593C208.478 96.6811 208.312 96.9197 208.095 97.1882C207.882 97.4567 207.588 97.6911 207.213 97.8913C206.838 98.0916 206.352 98.1918 205.755 98.1918ZM206.177 96.5618C206.727 96.5618 207.191 96.4169 207.57 96.1271C207.954 95.8331 208.244 95.4261 208.44 94.9062C208.64 94.3864 208.74 93.7812 208.74 93.0909C208.74 92.4091 208.642 91.8125 208.446 91.3011C208.25 90.7898 207.963 90.3913 207.583 90.1058C207.204 89.8203 206.735 89.6776 206.177 89.6776C205.602 89.6776 205.122 89.8267 204.739 90.125C204.355 90.4233 204.066 90.8303 203.869 91.3459C203.678 91.8615 203.582 92.4432 203.582 93.0909C203.582 93.7472 203.68 94.3374 203.876 94.8615C204.072 95.3857 204.362 95.8011 204.745 96.108C205.133 96.4105 205.61 96.5618 206.177 96.5618ZM214.607 98.1214C214.257 98.1214 213.957 97.9979 213.705 97.7507C213.454 97.4993 213.328 97.1967 213.328 96.843C213.328 96.4936 213.454 96.1953 213.705 95.9482C213.957 95.6967 214.257 95.571 214.607 95.571C214.956 95.571 215.256 95.6967 215.508 95.9482C215.759 96.1953 215.885 96.4936 215.885 96.843C215.885 97.0774 215.825 97.2926 215.706 97.4886C215.591 97.6804 215.438 97.8338 215.246 97.9489C215.054 98.0639 214.841 98.1214 214.607 98.1214Z" fill="#212427" fill-opacity="0.9"/>
</svg>
