<svg width="18" height="18" viewBox="0 0 18 18" fill="none" xmlns="http://www.w3.org/2000/svg">
<rect width="18" height="18" rx="3" fill="#1C4B81" fill-opacity="0.1"/>
<path fill-rule="evenodd" clip-rule="evenodd" d="M5.37932 8.97564V12.4038C5.37932 12.5104 5.41156 12.6248 5.48776 12.7359C5.56276 12.8452 5.68914 12.96 5.86294 13.0673C6.45121 13.4301 7.63535 13.75 9 13.75C10.3647 13.75 11.5488 13.4301 12.1369 13.0673C12.3109 12.96 12.4372 12.8452 12.5122 12.7359C12.5883 12.6248 12.6207 12.5104 12.6207 12.4038V8.97564L13.3103 8.57494V11.8813C13.2095 11.9277 13.1222 12.0137 13.0604 12.1273C12.9986 12.241 12.9655 12.3768 12.9655 12.516V13.4135C12.9655 13.473 12.9837 13.53 13.016 13.5721C13.0483 13.6142 13.0922 13.6378 13.1379 13.6378H13.8276C13.8733 13.6378 13.9172 13.6142 13.9495 13.5721C13.9818 13.53 14 13.473 14 13.4135V12.516C14 12.3768 13.9669 12.241 13.9051 12.1273C13.8433 12.0137 13.756 11.9277 13.6552 11.8813V8.37481L13.8979 8.23369C13.9283 8.21601 13.9541 8.18727 13.9722 8.15092C13.9904 8.11457 14 8.07217 14 8.02885C14 7.98553 13.9904 7.94313 13.9722 7.90678C13.9541 7.87043 13.9283 7.84168 13.8979 7.82401L9.07034 5.01952C9.04821 5.00665 9.02424 5 9 5C8.97576 5 8.95179 5.00665 8.92965 5.01952L4.10208 7.82401C4.07168 7.84168 4.04587 7.87043 4.02775 7.90678C4.00964 7.94313 4 7.98553 4 8.02885C4 8.07217 4.00964 8.11457 4.02775 8.15092C4.04587 8.18727 4.07168 8.21601 4.10208 8.23369L5.37932 8.97564ZM12.2759 9.176L9.07034 11.0382C9.04821 11.051 9.02424 11.0577 9 11.0577C8.97576 11.0577 8.95179 11.051 8.92965 11.0382L5.72414 9.176V12.398C5.72759 12.4047 5.74863 12.444 5.76811 12.4671C5.82363 12.5331 5.90621 12.5975 6.01069 12.6619C6.57087 13.0074 7.70017 13.3013 9 13.3013C10.2998 13.3013 11.4291 13.0074 11.9893 12.6619C12.0938 12.5975 12.1762 12.5331 12.2319 12.4671C12.2483 12.446 12.263 12.4229 12.2759 12.398V9.176ZM13.6552 12.516V13.1891H13.3103V12.516C13.3103 12.4565 13.3285 12.3995 13.3608 12.3574C13.3932 12.3153 13.437 12.2917 13.4828 12.2917C13.5285 12.2917 13.5723 12.3153 13.6047 12.3574C13.637 12.3995 13.6552 12.4565 13.6552 12.516ZM9 10.5877L13.4046 8.02885L9 5.47004L4.59535 8.02885L9 10.5877Z" fill="#212427"/>
</svg>
