<svg width="320" height="241" viewBox="0 0 320 241" fill="none" xmlns="http://www.w3.org/2000/svg">
<rect x="0.5" y="0.5" width="319" height="240" rx="5.5" fill="white"/>
<g opacity="0.7">
<path d="M204.927 48.0633C209.169 48.6107 212.195 52.4674 211.732 56.7377L205.712 110.229C205.249 114.486 201.437 117.561 197.198 117.095C197.113 117.086 197.028 117.075 196.943 117.063H196.551V68.0403C196.551 63.6853 193.035 60.1546 188.698 60.1546H123.261L124.7 47.0118C125.246 42.6791 129.145 39.5819 133.469 40.046L204.927 48.0633Z" fill="#00ACEA"/>
<path d="M196.549 117.063V121.794C196.549 126.149 193.034 129.68 188.697 129.68H116.847C112.51 129.68 108.994 126.149 108.994 121.794V110.754L130.588 94.9824C134.012 92.3737 138.803 92.5949 141.975 95.5082L156.371 108.125C157.843 109.379 159.667 110.141 161.59 110.306C163.514 110.471 165.44 110.03 167.103 109.045L196.549 91.6968V117.063Z" fill="#00CEB4"/>
<path d="M196.549 68.0402V91.6974L167.103 109.046C165.44 110.031 163.514 110.471 161.59 110.307C159.667 110.142 157.843 109.38 156.371 108.126L141.975 95.5088C138.803 92.5957 134.012 92.3743 130.588 94.983L108.994 110.754V68.0402C108.994 63.6852 112.51 60.1545 116.847 60.1545H188.697C193.034 60.1548 196.549 63.6852 196.549 68.0402Z" fill="#00EFD1"/>
<path d="M161.344 90.1214C165.97 90.1214 169.72 86.3555 169.72 81.7099C169.72 77.0644 165.97 73.2985 161.344 73.2985C156.718 73.2985 152.968 77.0644 152.968 81.7099C152.968 86.3555 156.718 90.1214 161.344 90.1214Z" fill="#D4E1F4"/>
</g>
<rect x="108.35" y="160.03" width="103.648" height="33.179" rx="16.5895" stroke="#0077B5" stroke-width="0.7"/>
<path d="M154.136 171.47H155.369V178.211C155.369 178.907 155.205 179.528 154.877 180.075C154.552 180.619 154.093 181.048 153.499 181.363C152.906 181.675 152.21 181.83 151.411 181.83C150.613 181.83 149.917 181.675 149.323 181.363C148.73 181.048 148.269 180.619 147.941 180.075C147.616 179.528 147.454 178.907 147.454 178.211V171.47H148.687V178.112C148.687 178.609 148.796 179.051 149.015 179.439C149.234 179.823 149.545 180.127 149.95 180.349C150.357 180.568 150.845 180.677 151.411 180.677C151.978 180.677 152.465 180.568 152.873 180.349C153.281 180.127 153.592 179.823 153.808 179.439C154.026 179.051 154.136 178.609 154.136 178.112V171.47ZM157.672 184.515V174.015H158.805V175.228H158.945C159.031 175.095 159.15 174.926 159.303 174.721C159.458 174.512 159.68 174.327 159.969 174.164C160.26 173.998 160.655 173.916 161.152 173.916C161.795 173.916 162.362 174.076 162.852 174.398C163.343 174.719 163.726 175.175 164.001 175.765C164.276 176.355 164.413 177.051 164.413 177.853C164.413 178.662 164.276 179.363 164.001 179.956C163.726 180.546 163.344 181.003 162.857 181.328C162.37 181.65 161.808 181.81 161.172 181.81C160.681 181.81 160.289 181.729 159.994 181.567C159.699 181.401 159.472 181.214 159.312 181.005C159.153 180.793 159.031 180.617 158.945 180.478H158.845V184.515H157.672ZM158.825 177.833C158.825 178.41 158.91 178.919 159.079 179.359C159.248 179.797 159.495 180.14 159.82 180.389C160.144 180.634 160.542 180.756 161.013 180.756C161.503 180.756 161.913 180.627 162.241 180.369C162.572 180.107 162.821 179.756 162.986 179.315C163.156 178.871 163.24 178.377 163.24 177.833C163.24 177.296 163.157 176.812 162.991 176.381C162.829 175.947 162.582 175.604 162.251 175.352C161.923 175.097 161.51 174.97 161.013 174.97C160.536 174.97 160.134 175.091 159.81 175.332C159.485 175.571 159.24 175.906 159.074 176.337C158.908 176.764 158.825 177.263 158.825 177.833ZM167.376 171.47V181.651H166.203V171.47H167.376ZM172.628 181.81C171.938 181.81 171.333 181.646 170.813 181.318C170.296 180.99 169.892 180.531 169.6 179.941C169.312 179.351 169.167 178.662 169.167 177.873C169.167 177.078 169.312 176.383 169.6 175.79C169.892 175.197 170.296 174.736 170.813 174.408C171.333 174.08 171.938 173.916 172.628 173.916C173.317 173.916 173.92 174.08 174.437 174.408C174.958 174.736 175.362 175.197 175.65 175.79C175.942 176.383 176.088 177.078 176.088 177.873C176.088 178.662 175.942 179.351 175.65 179.941C175.362 180.531 174.958 180.99 174.437 181.318C173.92 181.646 173.317 181.81 172.628 181.81ZM172.628 180.756C173.151 180.756 173.582 180.622 173.92 180.354C174.258 180.085 174.509 179.732 174.671 179.295C174.833 178.857 174.915 178.383 174.915 177.873C174.915 177.363 174.833 176.887 174.671 176.446C174.509 176.005 174.258 175.649 173.92 175.377C173.582 175.105 173.151 174.97 172.628 174.97C172.104 174.97 171.673 175.105 171.335 175.377C170.997 175.649 170.747 176.005 170.584 176.446C170.422 176.887 170.341 177.363 170.341 177.873C170.341 178.383 170.422 178.857 170.584 179.295C170.747 179.732 170.997 180.085 171.335 180.354C171.673 180.622 172.104 180.756 172.628 180.756ZM180.126 181.83C179.642 181.83 179.203 181.739 178.809 181.557C178.414 181.371 178.101 181.104 177.869 180.756C177.637 180.405 177.521 179.981 177.521 179.484C177.521 179.046 177.607 178.692 177.779 178.42C177.952 178.145 178.182 177.929 178.471 177.774C178.759 177.618 179.077 177.502 179.425 177.426C179.776 177.346 180.129 177.283 180.484 177.237C180.948 177.177 181.324 177.132 181.613 177.102C181.904 177.069 182.116 177.015 182.249 176.938C182.385 176.862 182.453 176.729 182.453 176.541V176.501C182.453 176.01 182.319 175.629 182.05 175.357C181.785 175.086 181.382 174.95 180.842 174.95C180.282 174.95 179.843 175.072 179.524 175.318C179.206 175.563 178.983 175.825 178.853 176.103L177.74 175.705C177.939 175.241 178.204 174.88 178.535 174.622C178.87 174.36 179.234 174.177 179.629 174.075C180.027 173.969 180.418 173.916 180.802 173.916C181.047 173.916 181.329 173.945 181.647 174.005C181.969 174.061 182.279 174.179 182.577 174.358C182.879 174.537 183.129 174.807 183.328 175.168C183.527 175.53 183.626 176.014 183.626 176.62V181.651H182.453V180.617H182.393C182.314 180.783 182.181 180.96 181.995 181.149C181.81 181.338 181.563 181.499 181.255 181.631C180.946 181.764 180.57 181.83 180.126 181.83ZM180.305 180.776C180.769 180.776 181.16 180.685 181.478 180.503C181.8 180.321 182.042 180.085 182.204 179.797C182.37 179.509 182.453 179.205 182.453 178.887V177.813C182.403 177.873 182.294 177.928 182.125 177.977C181.959 178.024 181.767 178.065 181.548 178.102C181.332 178.135 181.122 178.165 180.917 178.191C180.714 178.214 180.55 178.234 180.424 178.251C180.119 178.291 179.834 178.355 179.569 178.445C179.307 178.531 179.095 178.662 178.933 178.837C178.774 179.01 178.694 179.245 178.694 179.543C178.694 179.951 178.845 180.259 179.147 180.468C179.452 180.674 179.838 180.776 180.305 180.776ZM188.651 181.81C188.015 181.81 187.453 181.65 186.966 181.328C186.479 181.003 186.097 180.546 185.822 179.956C185.547 179.363 185.41 178.662 185.41 177.853C185.41 177.051 185.547 176.355 185.822 175.765C186.097 175.175 186.48 174.719 186.971 174.398C187.461 174.076 188.028 173.916 188.671 173.916C189.168 173.916 189.561 173.998 189.849 174.164C190.141 174.327 190.363 174.512 190.515 174.721C190.671 174.926 190.792 175.095 190.878 175.228H190.978V171.47H192.151V181.651H191.018V180.478H190.878C190.792 180.617 190.67 180.793 190.51 181.005C190.351 181.214 190.124 181.401 189.829 181.567C189.534 181.729 189.142 181.81 188.651 181.81ZM188.81 180.756C189.281 180.756 189.679 180.634 190.003 180.389C190.328 180.14 190.575 179.797 190.744 179.359C190.913 178.919 190.998 178.41 190.998 177.833C190.998 177.263 190.915 176.764 190.749 176.337C190.583 175.906 190.338 175.571 190.013 175.332C189.688 175.091 189.287 174.97 188.81 174.97C188.313 174.97 187.899 175.097 187.567 175.352C187.239 175.604 186.992 175.947 186.827 176.381C186.664 176.812 186.583 177.296 186.583 177.833C186.583 178.377 186.666 178.871 186.831 179.315C187.001 179.756 187.249 180.107 187.577 180.369C187.909 180.627 188.32 180.756 188.81 180.756Z" fill="#0077B5"/>
<path d="M135.224 177.688V180.447C135.224 180.666 135.047 180.844 134.829 180.844H127.075C126.857 180.844 126.68 180.666 126.68 180.447V177.688H125.889V180.447C125.889 181.104 126.421 181.638 127.075 181.638H134.829C135.483 181.638 136.015 181.104 136.015 180.447V177.688H135.224Z" fill="#0077B5"/>
<path d="M130.951 171.489L128.493 173.956L129.053 174.517L130.556 173.009V179.197H131.347V173.009L132.85 174.517L133.41 173.956L130.951 171.489Z" fill="#0077B5"/>
<rect x="0.5" y="0.5" width="319" height="240" rx="5.5" stroke="#002994" stroke-dasharray="6 6"/>
</svg>
