<svg width="18" height="18" viewBox="0 0 18 18" fill="none" xmlns="http://www.w3.org/2000/svg">
<rect width="18" height="18" rx="3" fill="#1C4B81" fill-opacity="0.1"/>
<path d="M9 15.0588C8.9502 15.0584 8.90177 15.0433 8.86136 15.0158C8.66364 14.8715 4 11.4627 4 7.73739C4 6.48096 4.52678 5.27598 5.46447 4.38755C6.40215 3.49912 7.67392 3 9 3C10.3261 3 11.5979 3.49912 12.5355 4.38755C13.4732 5.27598 14 6.48096 14 7.73739C14 11.4627 9.33636 14.8715 9.13864 15.0158C9.09823 15.0433 9.0498 15.0584 9 15.0588ZM9 3.43067C7.79447 3.43067 6.63832 3.88441 5.78588 4.69208C4.93344 5.49975 4.45455 6.59518 4.45455 7.73739C4.45455 10.905 8.225 13.9821 9 14.5679C9.775 13.9821 13.5455 10.9028 13.5455 7.73739C13.5455 6.59518 13.0666 5.49975 12.2141 4.69208C11.3617 3.88441 10.2055 3.43067 9 3.43067Z" fill="#212427"/>
<path d="M9 10.5C8.50555 10.5 8.0222 10.3534 7.61108 10.0787C7.19995 9.80397 6.87952 9.41353 6.6903 8.95671C6.50108 8.49989 6.45157 7.99723 6.54804 7.51228C6.6445 7.02732 6.8826 6.58187 7.23223 6.23223C7.58187 5.8826 8.02732 5.6445 8.51227 5.54804C8.99723 5.45157 9.49989 5.50108 9.95671 5.6903C10.4135 5.87952 10.804 6.19995 11.0787 6.61108C11.3534 7.0222 11.5 7.50555 11.5 8C11.5 8.66304 11.2366 9.29893 10.7678 9.76777C10.2989 10.2366 9.66304 10.5 9 10.5ZM9 5.95455C8.59545 5.95455 8.19998 6.07451 7.86361 6.29927C7.52723 6.52403 7.26506 6.84348 7.11025 7.21724C6.95543 7.591 6.91492 8.00227 6.99385 8.39905C7.07277 8.79583 7.26758 9.16029 7.55365 9.44636C7.83971 9.73242 8.20417 9.92723 8.60095 10.0062C8.99773 10.0851 9.409 10.0446 9.78276 9.88976C10.1565 9.73494 10.476 9.47277 10.7007 9.1364C10.9255 8.80002 11.0455 8.40455 11.0455 8C11.0455 7.45751 10.83 6.93724 10.4464 6.55365C10.0628 6.17005 9.54249 5.95455 9 5.95455Z" fill="#212427"/>
</svg>
