<svg width="636" height="40" viewBox="0 0 636 40" fill="none" xmlns="http://www.w3.org/2000/svg">
<rect x="0.25" y="0.25" width="635.5" height="39.5" rx="5.75" fill="white"/>
<path d="M21.9688 24.4453C21.9688 24.5391 21.9635 24.6224 21.9531 24.6953C21.9427 24.763 21.9245 24.8203 21.8984 24.8672C21.8724 24.9141 21.8411 24.9479 21.8047 24.9688C21.7734 24.9896 21.737 25 21.6953 25H16.8438C16.724 25 16.6094 24.9609 16.5 24.8828C16.3958 24.7995 16.3438 24.6562 16.3438 24.4531V15.4375C16.3438 15.2344 16.3958 15.0938 16.5 15.0156C16.6094 14.9323 16.724 14.8906 16.8438 14.8906H21.6406C21.6823 14.8906 21.7188 14.901 21.75 14.9219C21.7865 14.9427 21.8151 14.9766 21.8359 15.0234C21.8568 15.0703 21.8724 15.1302 21.8828 15.2031C21.8984 15.2708 21.9062 15.3568 21.9062 15.4609C21.9062 15.5547 21.8984 15.638 21.8828 15.7109C21.8724 15.7786 21.8568 15.8359 21.8359 15.8828C21.8151 15.9245 21.7865 15.9557 21.75 15.9766C21.7188 15.9974 21.6823 16.0078 21.6406 16.0078H17.6875V19.1797H21.0781C21.1198 19.1797 21.1562 19.1927 21.1875 19.2188C21.224 19.2396 21.2526 19.2708 21.2734 19.3125C21.2995 19.3542 21.3177 19.4115 21.3281 19.4844C21.3385 19.5573 21.3438 19.6432 21.3438 19.7422C21.3438 19.8359 21.3385 19.9167 21.3281 19.9844C21.3177 20.0521 21.2995 20.1068 21.2734 20.1484C21.2526 20.1901 21.224 20.2214 21.1875 20.2422C21.1562 20.2578 21.1198 20.2656 21.0781 20.2656H17.6875V23.8828H21.6953C21.737 23.8828 21.7734 23.8932 21.8047 23.9141C21.8411 23.9349 21.8724 23.9688 21.8984 24.0156C21.9245 24.0573 21.9427 24.1146 21.9531 24.1875C21.9635 24.2552 21.9688 24.3411 21.9688 24.4453ZM30.0625 24.8047C30.0625 24.8464 30.0521 24.8828 30.0312 24.9141C30.0104 24.9401 29.9766 24.9635 29.9297 24.9844C29.8828 25.0052 29.8177 25.0208 29.7344 25.0312C29.651 25.0417 29.5469 25.0469 29.4219 25.0469C29.2917 25.0469 29.1849 25.0417 29.1016 25.0312C29.0182 25.0208 28.9531 25.0052 28.9062 24.9844C28.8594 24.9635 28.8255 24.9401 28.8047 24.9141C28.7839 24.8828 28.7734 24.8464 28.7734 24.8047V20.6875C28.7734 20.2865 28.7422 19.9635 28.6797 19.7188C28.6172 19.474 28.526 19.263 28.4062 19.0859C28.2865 18.9089 28.1302 18.7734 27.9375 18.6797C27.75 18.5859 27.5312 18.5391 27.2812 18.5391C26.9583 18.5391 26.6354 18.6536 26.3125 18.8828C25.9896 19.112 25.651 19.4479 25.2969 19.8906V24.8047C25.2969 24.8464 25.2865 24.8828 25.2656 24.9141C25.2448 24.9401 25.2109 24.9635 25.1641 24.9844C25.1172 25.0052 25.0521 25.0208 24.9688 25.0312C24.8854 25.0417 24.7786 25.0469 24.6484 25.0469C24.5234 25.0469 24.4193 25.0417 24.3359 25.0312C24.2526 25.0208 24.1849 25.0052 24.1328 24.9844C24.0859 24.9635 24.0521 24.9401 24.0312 24.9141C24.0156 24.8828 24.0078 24.8464 24.0078 24.8047V17.7734C24.0078 17.7318 24.0156 17.6979 24.0312 17.6719C24.0469 17.6406 24.0781 17.6146 24.125 17.5938C24.1719 17.5677 24.2318 17.5521 24.3047 17.5469C24.3776 17.5365 24.474 17.5312 24.5938 17.5312C24.7083 17.5312 24.8021 17.5365 24.875 17.5469C24.9531 17.5521 25.013 17.5677 25.0547 17.5938C25.0964 17.6146 25.125 17.6406 25.1406 17.6719C25.1615 17.6979 25.1719 17.7318 25.1719 17.7734V18.7031C25.5677 18.2604 25.9609 17.9375 26.3516 17.7344C26.7474 17.526 27.1458 17.4219 27.5469 17.4219C28.0156 17.4219 28.4089 17.5026 28.7266 17.6641C29.0495 17.8203 29.3099 18.0312 29.5078 18.2969C29.7057 18.5625 29.8464 18.875 29.9297 19.2344C30.0182 19.5885 30.0625 20.0156 30.0625 20.5156V24.8047ZM35.9141 24.2891C35.9141 24.4401 35.9036 24.5599 35.8828 24.6484C35.862 24.737 35.8307 24.8021 35.7891 24.8438C35.7474 24.8854 35.6849 24.9245 35.6016 24.9609C35.5182 24.9974 35.4219 25.026 35.3125 25.0469C35.2083 25.0729 35.0964 25.0938 34.9766 25.1094C34.8568 25.125 34.737 25.1328 34.6172 25.1328C34.2526 25.1328 33.9401 25.0859 33.6797 24.9922C33.4193 24.8932 33.2057 24.7474 33.0391 24.5547C32.8724 24.3568 32.75 24.1094 32.6719 23.8125C32.599 23.5104 32.5625 23.1562 32.5625 22.75V18.6406H31.5781C31.5 18.6406 31.4375 18.599 31.3906 18.5156C31.3438 18.4323 31.3203 18.2969 31.3203 18.1094C31.3203 18.0104 31.3255 17.9271 31.3359 17.8594C31.3516 17.7917 31.3698 17.737 31.3906 17.6953C31.4115 17.6484 31.4375 17.6172 31.4688 17.6016C31.5052 17.5807 31.5443 17.5703 31.5859 17.5703H32.5625V15.8984C32.5625 15.862 32.5703 15.8281 32.5859 15.7969C32.6068 15.7656 32.6406 15.7396 32.6875 15.7188C32.7396 15.6927 32.8073 15.6745 32.8906 15.6641C32.974 15.6536 33.0781 15.6484 33.2031 15.6484C33.3333 15.6484 33.4401 15.6536 33.5234 15.6641C33.6068 15.6745 33.6719 15.6927 33.7188 15.7188C33.7656 15.7396 33.7995 15.7656 33.8203 15.7969C33.8411 15.8281 33.8516 15.862 33.8516 15.8984V17.5703H35.6562C35.6979 17.5703 35.7344 17.5807 35.7656 17.6016C35.7969 17.6172 35.8229 17.6484 35.8438 17.6953C35.8698 17.737 35.888 17.7917 35.8984 17.8594C35.9089 17.9271 35.9141 18.0104 35.9141 18.1094C35.9141 18.2969 35.8906 18.4323 35.8438 18.5156C35.7969 18.599 35.7344 18.6406 35.6562 18.6406H33.8516V22.5625C33.8516 23.0469 33.9219 23.4141 34.0625 23.6641C34.2083 23.9089 34.4661 24.0312 34.8359 24.0312C34.9557 24.0312 35.0625 24.0208 35.1562 24C35.25 23.974 35.3333 23.9479 35.4062 23.9219C35.4792 23.8958 35.5417 23.8724 35.5938 23.8516C35.6458 23.8255 35.6927 23.8125 35.7344 23.8125C35.7604 23.8125 35.7839 23.8203 35.8047 23.8359C35.8307 23.8464 35.849 23.8698 35.8594 23.9062C35.875 23.9427 35.888 23.9922 35.8984 24.0547C35.9089 24.1172 35.9141 24.1953 35.9141 24.2891ZM43.4453 20.9844C43.4453 21.1875 43.3932 21.3333 43.2891 21.4219C43.1901 21.5052 43.0755 21.5469 42.9453 21.5469H38.3359C38.3359 21.9375 38.375 22.2891 38.4531 22.6016C38.5312 22.9141 38.6615 23.1823 38.8438 23.4062C39.026 23.6302 39.263 23.8021 39.5547 23.9219C39.8464 24.0417 40.2031 24.1016 40.625 24.1016C40.9583 24.1016 41.2552 24.0755 41.5156 24.0234C41.776 23.9661 42 23.9036 42.1875 23.8359C42.3802 23.7682 42.5365 23.7083 42.6562 23.6562C42.7812 23.599 42.875 23.5703 42.9375 23.5703C42.974 23.5703 43.0052 23.5807 43.0312 23.6016C43.0625 23.6172 43.0859 23.6432 43.1016 23.6797C43.1172 23.7161 43.1276 23.7682 43.1328 23.8359C43.1432 23.8984 43.1484 23.9766 43.1484 24.0703C43.1484 24.138 43.1458 24.1979 43.1406 24.25C43.1354 24.2969 43.1276 24.3411 43.1172 24.3828C43.112 24.4193 43.099 24.4531 43.0781 24.4844C43.0625 24.5156 43.0391 24.5469 43.0078 24.5781C42.9818 24.6042 42.8984 24.651 42.7578 24.7188C42.6172 24.7812 42.4349 24.8438 42.2109 24.9062C41.987 24.9688 41.7266 25.0234 41.4297 25.0703C41.138 25.1224 40.8255 25.1484 40.4922 25.1484C39.9141 25.1484 39.4062 25.0677 38.9688 24.9062C38.5365 24.7448 38.1719 24.5052 37.875 24.1875C37.5781 23.8698 37.3542 23.4714 37.2031 22.9922C37.0521 22.513 36.9766 21.9557 36.9766 21.3203C36.9766 20.7161 37.0547 20.1745 37.2109 19.6953C37.3672 19.2109 37.5911 18.8021 37.8828 18.4688C38.1797 18.1302 38.5365 17.8724 38.9531 17.6953C39.3698 17.513 39.8359 17.4219 40.3516 17.4219C40.9036 17.4219 41.3724 17.5104 41.7578 17.6875C42.1484 17.8646 42.4688 18.1042 42.7188 18.4062C42.9688 18.7031 43.151 19.0547 43.2656 19.4609C43.3854 19.862 43.4453 20.2917 43.4453 20.75V20.9844ZM42.1484 20.6016C42.1641 19.9245 42.013 19.3932 41.6953 19.0078C41.3828 18.6224 40.9167 18.4297 40.2969 18.4297C39.9792 18.4297 39.7005 18.4896 39.4609 18.6094C39.2214 18.7292 39.0208 18.888 38.8594 19.0859C38.6979 19.2839 38.5729 19.5156 38.4844 19.7812C38.3958 20.0417 38.3464 20.3151 38.3359 20.6016H42.1484ZM49.5234 18.2344C49.5234 18.349 49.5208 18.4453 49.5156 18.5234C49.5104 18.6016 49.5 18.6641 49.4844 18.7109C49.4688 18.7526 49.4479 18.7865 49.4219 18.8125C49.401 18.8333 49.3698 18.8438 49.3281 18.8438C49.2865 18.8438 49.2344 18.8333 49.1719 18.8125C49.1146 18.7865 49.0469 18.763 48.9688 18.7422C48.8958 18.7161 48.8125 18.6927 48.7188 18.6719C48.625 18.651 48.5234 18.6406 48.4141 18.6406C48.2839 18.6406 48.1562 18.6667 48.0312 18.7188C47.9062 18.7708 47.7734 18.8568 47.6328 18.9766C47.4974 19.0964 47.3542 19.2552 47.2031 19.4531C47.0521 19.651 46.8854 19.8932 46.7031 20.1797V24.8047C46.7031 24.8464 46.6927 24.8828 46.6719 24.9141C46.651 24.9401 46.6172 24.9635 46.5703 24.9844C46.5234 25.0052 46.4583 25.0208 46.375 25.0312C46.2917 25.0417 46.1849 25.0469 46.0547 25.0469C45.9297 25.0469 45.8255 25.0417 45.7422 25.0312C45.6589 25.0208 45.5911 25.0052 45.5391 24.9844C45.4922 24.9635 45.4583 24.9401 45.4375 24.9141C45.4219 24.8828 45.4141 24.8464 45.4141 24.8047V17.7734C45.4141 17.7318 45.4219 17.6979 45.4375 17.6719C45.4531 17.6406 45.4844 17.6146 45.5312 17.5938C45.5781 17.5677 45.638 17.5521 45.7109 17.5469C45.7839 17.5365 45.8802 17.5312 46 17.5312C46.1146 17.5312 46.2083 17.5365 46.2812 17.5469C46.3594 17.5521 46.4193 17.5677 46.4609 17.5938C46.5026 17.6146 46.5312 17.6406 46.5469 17.6719C46.5677 17.6979 46.5781 17.7318 46.5781 17.7734V18.7969C46.7708 18.5156 46.9505 18.2865 47.1172 18.1094C47.2891 17.9323 47.4505 17.7943 47.6016 17.6953C47.7526 17.5911 47.901 17.5208 48.0469 17.4844C48.1979 17.4427 48.349 17.4219 48.5 17.4219C48.5677 17.4219 48.6432 17.4271 48.7266 17.4375C48.8151 17.4427 48.9062 17.4557 49 17.4766C49.0938 17.4974 49.1771 17.5208 49.25 17.5469C49.3281 17.5729 49.3828 17.599 49.4141 17.625C49.4453 17.651 49.4661 17.6771 49.4766 17.7031C49.487 17.724 49.4948 17.7526 49.5 17.7891C49.5104 17.8255 49.5156 17.8802 49.5156 17.9531C49.5208 18.0208 49.5234 18.1146 49.5234 18.2344ZM57.8203 25L56.8828 27.5859C56.8516 27.6693 56.7708 27.7318 56.6406 27.7734C56.5156 27.8203 56.3229 27.8438 56.0625 27.8438C55.9271 27.8438 55.8177 27.8359 55.7344 27.8203C55.651 27.8099 55.5859 27.7891 55.5391 27.7578C55.4974 27.7266 55.474 27.6849 55.4688 27.6328C55.4635 27.5807 55.4766 27.5182 55.5078 27.4453L56.4766 25C56.4297 24.9792 56.3854 24.9453 56.3438 24.8984C56.3021 24.8516 56.2734 24.8021 56.2578 24.75L53.75 18.0312C53.7083 17.9219 53.6875 17.8359 53.6875 17.7734C53.6875 17.7109 53.7083 17.6615 53.75 17.625C53.7917 17.5885 53.8594 17.5651 53.9531 17.5547C54.0469 17.5391 54.1719 17.5312 54.3281 17.5312C54.4844 17.5312 54.6068 17.5365 54.6953 17.5469C54.7839 17.5521 54.8542 17.5651 54.9062 17.5859C54.9583 17.6068 54.9948 17.638 55.0156 17.6797C55.0417 17.7161 55.0677 17.7682 55.0938 17.8359L57.1016 23.4766H57.125L59.0625 17.8047C59.0938 17.7057 59.1302 17.6432 59.1719 17.6172C59.2188 17.5859 59.2865 17.5651 59.375 17.5547C59.4635 17.5391 59.5911 17.5312 59.7578 17.5312C59.9036 17.5312 60.0234 17.5391 60.1172 17.5547C60.2109 17.5651 60.2786 17.5885 60.3203 17.625C60.3672 17.6615 60.3906 17.7109 60.3906 17.7734C60.3906 17.8359 60.375 17.9141 60.3438 18.0078L57.8203 25ZM68.2188 21.2109C68.2188 21.7839 68.1432 22.3125 67.9922 22.7969C67.8411 23.276 67.6146 23.6901 67.3125 24.0391C67.0156 24.388 66.6406 24.6615 66.1875 24.8594C65.7396 25.0521 65.2188 25.1484 64.625 25.1484C64.0469 25.1484 63.5417 25.0625 63.1094 24.8906C62.6823 24.7188 62.3255 24.4688 62.0391 24.1406C61.7526 23.8125 61.5391 23.4141 61.3984 22.9453C61.2578 22.4766 61.1875 21.9453 61.1875 21.3516C61.1875 20.7786 61.2604 20.2526 61.4062 19.7734C61.5573 19.2891 61.7812 18.8724 62.0781 18.5234C62.3802 18.1745 62.7552 17.9036 63.2031 17.7109C63.651 17.5182 64.1745 17.4219 64.7734 17.4219C65.3516 17.4219 65.8542 17.5078 66.2812 17.6797C66.7135 17.8516 67.0729 18.1016 67.3594 18.4297C67.6458 18.7578 67.8594 19.1562 68 19.625C68.1458 20.0938 68.2188 20.6224 68.2188 21.2109ZM66.8594 21.2969C66.8594 20.9167 66.8229 20.5573 66.75 20.2188C66.6823 19.8802 66.5677 19.5833 66.4062 19.3281C66.2448 19.0729 66.026 18.8724 65.75 18.7266C65.474 18.5755 65.1302 18.5 64.7188 18.5C64.3385 18.5 64.0104 18.5677 63.7344 18.7031C63.4635 18.8385 63.2396 19.0312 63.0625 19.2812C62.8854 19.526 62.7526 19.8177 62.6641 20.1562C62.5807 20.4948 62.5391 20.8646 62.5391 21.2656C62.5391 21.651 62.5729 22.013 62.6406 22.3516C62.7135 22.6901 62.8307 22.987 62.9922 23.2422C63.1589 23.4922 63.3802 23.6927 63.6562 23.8438C63.9323 23.9896 64.276 24.0625 64.6875 24.0625C65.0625 24.0625 65.388 23.9948 65.6641 23.8594C65.9401 23.724 66.1667 23.5339 66.3438 23.2891C66.5208 23.0443 66.651 22.7526 66.7344 22.4141C66.8177 22.0755 66.8594 21.7031 66.8594 21.2969ZM76.1406 24.8047C76.1406 24.8464 76.1302 24.8828 76.1094 24.9141C76.0938 24.9401 76.0625 24.9635 76.0156 24.9844C75.9688 25.0052 75.9062 25.0208 75.8281 25.0312C75.7552 25.0417 75.6641 25.0469 75.5547 25.0469C75.4349 25.0469 75.3359 25.0417 75.2578 25.0312C75.1849 25.0208 75.125 25.0052 75.0781 24.9844C75.0365 24.9635 75.0078 24.9401 74.9922 24.9141C74.9766 24.8828 74.9688 24.8464 74.9688 24.8047V23.875C74.5677 24.3177 74.1719 24.6406 73.7812 24.8438C73.3906 25.0469 72.9948 25.1484 72.5938 25.1484C72.125 25.1484 71.7292 25.0703 71.4062 24.9141C71.0885 24.7578 70.8307 24.5469 70.6328 24.2812C70.4349 24.0104 70.2917 23.6979 70.2031 23.3438C70.1198 22.9844 70.0781 22.5495 70.0781 22.0391V17.7734C70.0781 17.7318 70.0859 17.6979 70.1016 17.6719C70.1224 17.6406 70.1589 17.6146 70.2109 17.5938C70.263 17.5677 70.3307 17.5521 70.4141 17.5469C70.4974 17.5365 70.6016 17.5312 70.7266 17.5312C70.8516 17.5312 70.9557 17.5365 71.0391 17.5469C71.1224 17.5521 71.1875 17.5677 71.2344 17.5938C71.2865 17.6146 71.3229 17.6406 71.3438 17.6719C71.3646 17.6979 71.375 17.7318 71.375 17.7734V21.8672C71.375 22.2786 71.4036 22.6094 71.4609 22.8594C71.5234 23.1042 71.6146 23.3151 71.7344 23.4922C71.8594 23.6641 72.0156 23.7995 72.2031 23.8984C72.3906 23.9922 72.6094 24.0391 72.8594 24.0391C73.1823 24.0391 73.5026 23.9245 73.8203 23.6953C74.1432 23.4661 74.4844 23.1302 74.8438 22.6875V17.7734C74.8438 17.7318 74.8516 17.6979 74.8672 17.6719C74.888 17.6406 74.9245 17.6146 74.9766 17.5938C75.0286 17.5677 75.0938 17.5521 75.1719 17.5469C75.2552 17.5365 75.362 17.5312 75.4922 17.5312C75.6172 17.5312 75.7214 17.5365 75.8047 17.5469C75.888 17.5521 75.9531 17.5677 76 17.5938C76.0469 17.6146 76.0807 17.6406 76.1016 17.6719C76.1276 17.6979 76.1406 17.7318 76.1406 17.7734V24.8047ZM82.6328 18.2344C82.6328 18.349 82.6302 18.4453 82.625 18.5234C82.6198 18.6016 82.6094 18.6641 82.5938 18.7109C82.5781 18.7526 82.5573 18.7865 82.5312 18.8125C82.5104 18.8333 82.4792 18.8438 82.4375 18.8438C82.3958 18.8438 82.3438 18.8333 82.2812 18.8125C82.224 18.7865 82.1562 18.763 82.0781 18.7422C82.0052 18.7161 81.9219 18.6927 81.8281 18.6719C81.7344 18.651 81.6328 18.6406 81.5234 18.6406C81.3932 18.6406 81.2656 18.6667 81.1406 18.7188C81.0156 18.7708 80.8828 18.8568 80.7422 18.9766C80.6068 19.0964 80.4635 19.2552 80.3125 19.4531C80.1615 19.651 79.9948 19.8932 79.8125 20.1797V24.8047C79.8125 24.8464 79.8021 24.8828 79.7812 24.9141C79.7604 24.9401 79.7266 24.9635 79.6797 24.9844C79.6328 25.0052 79.5677 25.0208 79.4844 25.0312C79.401 25.0417 79.2943 25.0469 79.1641 25.0469C79.0391 25.0469 78.9349 25.0417 78.8516 25.0312C78.7682 25.0208 78.7005 25.0052 78.6484 24.9844C78.6016 24.9635 78.5677 24.9401 78.5469 24.9141C78.5312 24.8828 78.5234 24.8464 78.5234 24.8047V17.7734C78.5234 17.7318 78.5312 17.6979 78.5469 17.6719C78.5625 17.6406 78.5938 17.6146 78.6406 17.5938C78.6875 17.5677 78.7474 17.5521 78.8203 17.5469C78.8932 17.5365 78.9896 17.5312 79.1094 17.5312C79.224 17.5312 79.3177 17.5365 79.3906 17.5469C79.4688 17.5521 79.5286 17.5677 79.5703 17.5938C79.612 17.6146 79.6406 17.6406 79.6562 17.6719C79.6771 17.6979 79.6875 17.7318 79.6875 17.7734V18.7969C79.8802 18.5156 80.0599 18.2865 80.2266 18.1094C80.3984 17.9323 80.5599 17.7943 80.7109 17.6953C80.862 17.5911 81.0104 17.5208 81.1562 17.4844C81.3073 17.4427 81.4583 17.4219 81.6094 17.4219C81.6771 17.4219 81.7526 17.4271 81.8359 17.4375C81.9245 17.4427 82.0156 17.4557 82.1094 17.4766C82.2031 17.4974 82.2865 17.5208 82.3594 17.5469C82.4375 17.5729 82.4922 17.599 82.5234 17.625C82.5547 17.651 82.5755 17.6771 82.5859 17.7031C82.5964 17.724 82.6042 17.7526 82.6094 17.7891C82.6198 17.8255 82.625 17.8802 82.625 17.9531C82.6302 18.0208 82.6328 18.1146 82.6328 18.2344ZM97.5625 17.7578C97.5625 17.7943 97.5573 17.8385 97.5469 17.8906C97.5365 17.9427 97.5182 18.0078 97.4922 18.0859L95.4219 24.7656C95.4062 24.8229 95.3802 24.8698 95.3438 24.9062C95.3125 24.9427 95.2656 24.9714 95.2031 24.9922C95.1458 25.013 95.0651 25.026 94.9609 25.0312C94.8568 25.0417 94.7266 25.0469 94.5703 25.0469C94.4089 25.0469 94.2734 25.0417 94.1641 25.0312C94.0547 25.0208 93.9661 25.0052 93.8984 24.9844C93.8359 24.9635 93.7891 24.9349 93.7578 24.8984C93.7266 24.862 93.7031 24.8177 93.6875 24.7656L92.2109 19.6641L92.1953 19.5938L92.1797 19.6641L90.8125 24.7656C90.7969 24.8229 90.7708 24.8698 90.7344 24.9062C90.7031 24.9427 90.6536 24.9714 90.5859 24.9922C90.5182 25.013 90.4297 25.026 90.3203 25.0312C90.2161 25.0417 90.0859 25.0469 89.9297 25.0469C89.7682 25.0469 89.6354 25.0417 89.5312 25.0312C89.4323 25.0208 89.349 25.0052 89.2812 24.9844C89.2188 24.9635 89.1719 24.9349 89.1406 24.8984C89.1094 24.862 89.0859 24.8177 89.0703 24.7656L87.0156 18.0859C86.9896 18.0078 86.9714 17.9427 86.9609 17.8906C86.9505 17.8385 86.9453 17.7943 86.9453 17.7578C86.9453 17.7109 86.9557 17.6745 86.9766 17.6484C86.9974 17.6172 87.0312 17.5938 87.0781 17.5781C87.1302 17.5573 87.1979 17.5443 87.2812 17.5391C87.3646 17.5339 87.4661 17.5312 87.5859 17.5312C87.7318 17.5312 87.849 17.5365 87.9375 17.5469C88.026 17.5521 88.0938 17.5651 88.1406 17.5859C88.1875 17.6016 88.2214 17.6276 88.2422 17.6641C88.263 17.6953 88.2812 17.7344 88.2969 17.7812L89.9922 23.5781L90.0078 23.6484L90.0234 23.5781L91.5781 17.7812C91.5885 17.7344 91.6042 17.6953 91.625 17.6641C91.651 17.6276 91.6875 17.6016 91.7344 17.5859C91.7812 17.5651 91.8438 17.5521 91.9219 17.5469C92.0052 17.5365 92.112 17.5312 92.2422 17.5312C92.3672 17.5312 92.4688 17.5365 92.5469 17.5469C92.6302 17.5521 92.6953 17.5651 92.7422 17.5859C92.7891 17.6016 92.8229 17.625 92.8438 17.6562C92.8646 17.6875 92.8802 17.724 92.8906 17.7656L94.5703 23.5781L94.5859 23.6484L94.5938 23.5781L96.2656 17.7812C96.276 17.7344 96.2917 17.6953 96.3125 17.6641C96.3385 17.6276 96.375 17.6016 96.4219 17.5859C96.474 17.5651 96.5417 17.5521 96.625 17.5469C96.7135 17.5365 96.8255 17.5312 96.9609 17.5312C97.0859 17.5312 97.1849 17.5339 97.2578 17.5391C97.3359 17.5443 97.3958 17.5573 97.4375 17.5781C97.4844 17.599 97.5156 17.6224 97.5312 17.6484C97.5521 17.6745 97.5625 17.7109 97.5625 17.7578ZM105.547 21.2109C105.547 21.7839 105.471 22.3125 105.32 22.7969C105.169 23.276 104.943 23.6901 104.641 24.0391C104.344 24.388 103.969 24.6615 103.516 24.8594C103.068 25.0521 102.547 25.1484 101.953 25.1484C101.375 25.1484 100.87 25.0625 100.438 24.8906C100.01 24.7188 99.6536 24.4688 99.3672 24.1406C99.0807 23.8125 98.8672 23.4141 98.7266 22.9453C98.5859 22.4766 98.5156 21.9453 98.5156 21.3516C98.5156 20.7786 98.5885 20.2526 98.7344 19.7734C98.8854 19.2891 99.1094 18.8724 99.4062 18.5234C99.7083 18.1745 100.083 17.9036 100.531 17.7109C100.979 17.5182 101.503 17.4219 102.102 17.4219C102.68 17.4219 103.182 17.5078 103.609 17.6797C104.042 17.8516 104.401 18.1016 104.688 18.4297C104.974 18.7578 105.188 19.1562 105.328 19.625C105.474 20.0938 105.547 20.6224 105.547 21.2109ZM104.188 21.2969C104.188 20.9167 104.151 20.5573 104.078 20.2188C104.01 19.8802 103.896 19.5833 103.734 19.3281C103.573 19.0729 103.354 18.8724 103.078 18.7266C102.802 18.5755 102.458 18.5 102.047 18.5C101.667 18.5 101.339 18.5677 101.062 18.7031C100.792 18.8385 100.568 19.0312 100.391 19.2812C100.214 19.526 100.081 19.8177 99.9922 20.1562C99.9089 20.4948 99.8672 20.8646 99.8672 21.2656C99.8672 21.651 99.901 22.013 99.9688 22.3516C100.042 22.6901 100.159 22.987 100.32 23.2422C100.487 23.4922 100.708 23.6927 100.984 23.8438C101.26 23.9896 101.604 24.0625 102.016 24.0625C102.391 24.0625 102.716 23.9948 102.992 23.8594C103.268 23.724 103.495 23.5339 103.672 23.2891C103.849 23.0443 103.979 22.7526 104.062 22.4141C104.146 22.0755 104.188 21.7031 104.188 21.2969ZM111.555 18.2344C111.555 18.349 111.552 18.4453 111.547 18.5234C111.542 18.6016 111.531 18.6641 111.516 18.7109C111.5 18.7526 111.479 18.7865 111.453 18.8125C111.432 18.8333 111.401 18.8438 111.359 18.8438C111.318 18.8438 111.266 18.8333 111.203 18.8125C111.146 18.7865 111.078 18.763 111 18.7422C110.927 18.7161 110.844 18.6927 110.75 18.6719C110.656 18.651 110.555 18.6406 110.445 18.6406C110.315 18.6406 110.188 18.6667 110.062 18.7188C109.938 18.7708 109.805 18.8568 109.664 18.9766C109.529 19.0964 109.385 19.2552 109.234 19.4531C109.083 19.651 108.917 19.8932 108.734 20.1797V24.8047C108.734 24.8464 108.724 24.8828 108.703 24.9141C108.682 24.9401 108.648 24.9635 108.602 24.9844C108.555 25.0052 108.49 25.0208 108.406 25.0312C108.323 25.0417 108.216 25.0469 108.086 25.0469C107.961 25.0469 107.857 25.0417 107.773 25.0312C107.69 25.0208 107.622 25.0052 107.57 24.9844C107.523 24.9635 107.49 24.9401 107.469 24.9141C107.453 24.8828 107.445 24.8464 107.445 24.8047V17.7734C107.445 17.7318 107.453 17.6979 107.469 17.6719C107.484 17.6406 107.516 17.6146 107.562 17.5938C107.609 17.5677 107.669 17.5521 107.742 17.5469C107.815 17.5365 107.911 17.5312 108.031 17.5312C108.146 17.5312 108.24 17.5365 108.312 17.5469C108.391 17.5521 108.451 17.5677 108.492 17.5938C108.534 17.6146 108.562 17.6406 108.578 17.6719C108.599 17.6979 108.609 17.7318 108.609 17.7734V18.7969C108.802 18.5156 108.982 18.2865 109.148 18.1094C109.32 17.9323 109.482 17.7943 109.633 17.6953C109.784 17.5911 109.932 17.5208 110.078 17.4844C110.229 17.4427 110.38 17.4219 110.531 17.4219C110.599 17.4219 110.674 17.4271 110.758 17.4375C110.846 17.4427 110.938 17.4557 111.031 17.4766C111.125 17.4974 111.208 17.5208 111.281 17.5469C111.359 17.5729 111.414 17.599 111.445 17.625C111.477 17.651 111.497 17.6771 111.508 17.7031C111.518 17.724 111.526 17.7526 111.531 17.7891C111.542 17.8255 111.547 17.8802 111.547 17.9531C111.552 18.0208 111.555 18.1146 111.555 18.2344ZM118.797 24.7969C118.797 24.8385 118.786 24.875 118.766 24.9062C118.745 24.9375 118.708 24.9635 118.656 24.9844C118.609 25.0052 118.542 25.0208 118.453 25.0312C118.365 25.0417 118.253 25.0469 118.117 25.0469C117.977 25.0469 117.859 25.0417 117.766 25.0312C117.677 25.026 117.602 25.0156 117.539 25C117.477 24.9792 117.424 24.9531 117.383 24.9219C117.346 24.8854 117.312 24.8438 117.281 24.7969L114.312 20.9062V24.8047C114.312 24.8464 114.302 24.8828 114.281 24.9141C114.26 24.9401 114.227 24.9635 114.18 24.9844C114.133 25.0052 114.068 25.0208 113.984 25.0312C113.901 25.0417 113.794 25.0469 113.664 25.0469C113.539 25.0469 113.435 25.0417 113.352 25.0312C113.268 25.0208 113.201 25.0052 113.148 24.9844C113.102 24.9635 113.068 24.9401 113.047 24.9141C113.031 24.8828 113.023 24.8464 113.023 24.8047V14.3672C113.023 14.3255 113.031 14.2891 113.047 14.2578C113.068 14.2266 113.102 14.2005 113.148 14.1797C113.201 14.1589 113.268 14.1432 113.352 14.1328C113.435 14.1224 113.539 14.1172 113.664 14.1172C113.794 14.1172 113.901 14.1224 113.984 14.1328C114.068 14.1432 114.133 14.1589 114.18 14.1797C114.227 14.2005 114.26 14.2266 114.281 14.2578C114.302 14.2891 114.312 14.3255 114.312 14.3672V20.7266L116.969 17.8047C117.01 17.7526 117.055 17.7109 117.102 17.6797C117.148 17.6432 117.203 17.6146 117.266 17.5938C117.333 17.5677 117.411 17.5521 117.5 17.5469C117.589 17.5365 117.695 17.5312 117.82 17.5312C117.951 17.5312 118.06 17.5365 118.148 17.5469C118.237 17.5521 118.307 17.5651 118.359 17.5859C118.417 17.6016 118.456 17.625 118.477 17.6562C118.503 17.6823 118.516 17.7188 118.516 17.7656C118.516 17.8281 118.497 17.8906 118.461 17.9531C118.43 18.0156 118.375 18.0885 118.297 18.1719L115.75 20.7188L118.609 24.4297C118.677 24.5182 118.724 24.5911 118.75 24.6484C118.781 24.7005 118.797 24.75 118.797 24.7969ZM129.93 20.9844C129.93 21.1875 129.878 21.3333 129.773 21.4219C129.674 21.5052 129.56 21.5469 129.43 21.5469H124.82C124.82 21.9375 124.859 22.2891 124.938 22.6016C125.016 22.9141 125.146 23.1823 125.328 23.4062C125.51 23.6302 125.747 23.8021 126.039 23.9219C126.331 24.0417 126.688 24.1016 127.109 24.1016C127.443 24.1016 127.74 24.0755 128 24.0234C128.26 23.9661 128.484 23.9036 128.672 23.8359C128.865 23.7682 129.021 23.7083 129.141 23.6562C129.266 23.599 129.359 23.5703 129.422 23.5703C129.458 23.5703 129.49 23.5807 129.516 23.6016C129.547 23.6172 129.57 23.6432 129.586 23.6797C129.602 23.7161 129.612 23.7682 129.617 23.8359C129.628 23.8984 129.633 23.9766 129.633 24.0703C129.633 24.138 129.63 24.1979 129.625 24.25C129.62 24.2969 129.612 24.3411 129.602 24.3828C129.596 24.4193 129.583 24.4531 129.562 24.4844C129.547 24.5156 129.523 24.5469 129.492 24.5781C129.466 24.6042 129.383 24.651 129.242 24.7188C129.102 24.7812 128.919 24.8438 128.695 24.9062C128.471 24.9688 128.211 25.0234 127.914 25.0703C127.622 25.1224 127.31 25.1484 126.977 25.1484C126.398 25.1484 125.891 25.0677 125.453 24.9062C125.021 24.7448 124.656 24.5052 124.359 24.1875C124.062 23.8698 123.839 23.4714 123.688 22.9922C123.536 22.513 123.461 21.9557 123.461 21.3203C123.461 20.7161 123.539 20.1745 123.695 19.6953C123.852 19.2109 124.076 18.8021 124.367 18.4688C124.664 18.1302 125.021 17.8724 125.438 17.6953C125.854 17.513 126.32 17.4219 126.836 17.4219C127.388 17.4219 127.857 17.5104 128.242 17.6875C128.633 17.8646 128.953 18.1042 129.203 18.4062C129.453 18.7031 129.635 19.0547 129.75 19.4609C129.87 19.862 129.93 20.2917 129.93 20.75V20.9844ZM128.633 20.6016C128.648 19.9245 128.497 19.3932 128.18 19.0078C127.867 18.6224 127.401 18.4297 126.781 18.4297C126.464 18.4297 126.185 18.4896 125.945 18.6094C125.706 18.7292 125.505 18.888 125.344 19.0859C125.182 19.2839 125.057 19.5156 124.969 19.7812C124.88 20.0417 124.831 20.3151 124.82 20.6016H128.633ZM142.328 24.8047C142.328 24.8464 142.318 24.8828 142.297 24.9141C142.276 24.9401 142.242 24.9635 142.195 24.9844C142.148 25.0052 142.083 25.0208 142 25.0312C141.917 25.0417 141.812 25.0469 141.688 25.0469C141.557 25.0469 141.451 25.0417 141.367 25.0312C141.284 25.0208 141.216 25.0052 141.164 24.9844C141.117 24.9635 141.083 24.9401 141.062 24.9141C141.042 24.8828 141.031 24.8464 141.031 24.8047V20.5312C141.031 20.2344 141.005 19.9635 140.953 19.7188C140.901 19.474 140.818 19.263 140.703 19.0859C140.589 18.9089 140.443 18.7734 140.266 18.6797C140.089 18.5859 139.88 18.5391 139.641 18.5391C139.344 18.5391 139.044 18.6536 138.742 18.8828C138.445 19.112 138.117 19.4479 137.758 19.8906V24.8047C137.758 24.8464 137.747 24.8828 137.727 24.9141C137.706 24.9401 137.669 24.9635 137.617 24.9844C137.57 25.0052 137.505 25.0208 137.422 25.0312C137.339 25.0417 137.234 25.0469 137.109 25.0469C136.99 25.0469 136.885 25.0417 136.797 25.0312C136.714 25.0208 136.646 25.0052 136.594 24.9844C136.547 24.9635 136.513 24.9401 136.492 24.9141C136.477 24.8828 136.469 24.8464 136.469 24.8047V20.5312C136.469 20.2344 136.44 19.9635 136.383 19.7188C136.326 19.474 136.24 19.263 136.125 19.0859C136.01 18.9089 135.865 18.7734 135.688 18.6797C135.516 18.5859 135.31 18.5391 135.07 18.5391C134.773 18.5391 134.474 18.6536 134.172 18.8828C133.87 19.112 133.542 19.4479 133.188 19.8906V24.8047C133.188 24.8464 133.177 24.8828 133.156 24.9141C133.135 24.9401 133.102 24.9635 133.055 24.9844C133.008 25.0052 132.943 25.0208 132.859 25.0312C132.776 25.0417 132.669 25.0469 132.539 25.0469C132.414 25.0469 132.31 25.0417 132.227 25.0312C132.143 25.0208 132.076 25.0052 132.023 24.9844C131.977 24.9635 131.943 24.9401 131.922 24.9141C131.906 24.8828 131.898 24.8464 131.898 24.8047V17.7734C131.898 17.7318 131.906 17.6979 131.922 17.6719C131.938 17.6406 131.969 17.6146 132.016 17.5938C132.062 17.5677 132.122 17.5521 132.195 17.5469C132.268 17.5365 132.365 17.5312 132.484 17.5312C132.599 17.5312 132.693 17.5365 132.766 17.5469C132.844 17.5521 132.904 17.5677 132.945 17.5938C132.987 17.6146 133.016 17.6406 133.031 17.6719C133.052 17.6979 133.062 17.7318 133.062 17.7734V18.7031C133.458 18.2604 133.841 17.9375 134.211 17.7344C134.586 17.526 134.964 17.4219 135.344 17.4219C135.635 17.4219 135.896 17.4557 136.125 17.5234C136.359 17.5911 136.565 17.6875 136.742 17.8125C136.919 17.9323 137.07 18.0781 137.195 18.25C137.32 18.4167 137.424 18.6042 137.508 18.8125C137.742 18.5573 137.964 18.3411 138.172 18.1641C138.385 17.987 138.589 17.8438 138.781 17.7344C138.979 17.625 139.169 17.5469 139.352 17.5C139.539 17.4479 139.727 17.4219 139.914 17.4219C140.367 17.4219 140.747 17.5026 141.055 17.6641C141.362 17.8203 141.609 18.0312 141.797 18.2969C141.99 18.5625 142.125 18.875 142.203 19.2344C142.286 19.5885 142.328 19.9635 142.328 20.3594V24.8047ZM149.977 24.8125C149.977 24.875 149.956 24.9219 149.914 24.9531C149.872 24.9844 149.815 25.0078 149.742 25.0234C149.669 25.0391 149.562 25.0469 149.422 25.0469C149.286 25.0469 149.177 25.0391 149.094 25.0234C149.016 25.0078 148.958 24.9844 148.922 24.9531C148.885 24.9219 148.867 24.875 148.867 24.8125V24.1094C148.56 24.4375 148.216 24.6927 147.836 24.875C147.461 25.0573 147.062 25.1484 146.641 25.1484C146.271 25.1484 145.935 25.099 145.633 25C145.336 24.9062 145.081 24.7682 144.867 24.5859C144.659 24.4036 144.495 24.1797 144.375 23.9141C144.26 23.6484 144.203 23.3464 144.203 23.0078C144.203 22.612 144.284 22.2682 144.445 21.9766C144.607 21.6849 144.839 21.4427 145.141 21.25C145.443 21.0573 145.812 20.9141 146.25 20.8203C146.688 20.7214 147.18 20.6719 147.727 20.6719H148.695V20.125C148.695 19.8542 148.667 19.6146 148.609 19.4062C148.552 19.1979 148.458 19.026 148.328 18.8906C148.203 18.75 148.039 18.6458 147.836 18.5781C147.633 18.5052 147.383 18.4688 147.086 18.4688C146.768 18.4688 146.482 18.5078 146.227 18.5859C145.977 18.6589 145.755 18.7422 145.562 18.8359C145.375 18.9245 145.216 19.0078 145.086 19.0859C144.961 19.1589 144.867 19.1953 144.805 19.1953C144.763 19.1953 144.727 19.1849 144.695 19.1641C144.664 19.1432 144.635 19.112 144.609 19.0703C144.589 19.0286 144.573 18.9766 144.562 18.9141C144.552 18.8464 144.547 18.7734 144.547 18.6953C144.547 18.5651 144.555 18.4635 144.57 18.3906C144.591 18.3125 144.635 18.2396 144.703 18.1719C144.776 18.1042 144.898 18.026 145.07 17.9375C145.242 17.8438 145.44 17.7604 145.664 17.6875C145.888 17.6094 146.133 17.5469 146.398 17.5C146.664 17.4479 146.932 17.4219 147.203 17.4219C147.708 17.4219 148.138 17.4792 148.492 17.5938C148.846 17.7083 149.133 17.8776 149.352 18.1016C149.57 18.3203 149.729 18.5938 149.828 18.9219C149.927 19.25 149.977 19.6328 149.977 20.0703V24.8125ZM148.695 21.6016H147.594C147.24 21.6016 146.932 21.6328 146.672 21.6953C146.411 21.7526 146.195 21.8411 146.023 21.9609C145.852 22.0755 145.724 22.2161 145.641 22.3828C145.562 22.5443 145.523 22.7318 145.523 22.9453C145.523 23.3099 145.638 23.6016 145.867 23.8203C146.102 24.0339 146.427 24.1406 146.844 24.1406C147.182 24.1406 147.495 24.0547 147.781 23.8828C148.073 23.7109 148.378 23.4479 148.695 23.0938V21.6016ZM153.641 24.8047C153.641 24.8464 153.63 24.8828 153.609 24.9141C153.589 24.9401 153.555 24.9635 153.508 24.9844C153.461 25.0052 153.396 25.0208 153.312 25.0312C153.229 25.0417 153.122 25.0469 152.992 25.0469C152.867 25.0469 152.763 25.0417 152.68 25.0312C152.596 25.0208 152.529 25.0052 152.477 24.9844C152.43 24.9635 152.396 24.9401 152.375 24.9141C152.359 24.8828 152.352 24.8464 152.352 24.8047V17.7734C152.352 17.737 152.359 17.7031 152.375 17.6719C152.396 17.6406 152.43 17.6146 152.477 17.5938C152.529 17.5729 152.596 17.5573 152.68 17.5469C152.763 17.5365 152.867 17.5312 152.992 17.5312C153.122 17.5312 153.229 17.5365 153.312 17.5469C153.396 17.5573 153.461 17.5729 153.508 17.5938C153.555 17.6146 153.589 17.6406 153.609 17.6719C153.63 17.7031 153.641 17.737 153.641 17.7734V24.8047ZM153.789 15.3984C153.789 15.7005 153.732 15.9062 153.617 16.0156C153.503 16.125 153.292 16.1797 152.984 16.1797C152.682 16.1797 152.474 16.1276 152.359 16.0234C152.25 15.9141 152.195 15.7109 152.195 15.4141C152.195 15.112 152.253 14.9062 152.367 14.7969C152.482 14.6875 152.693 14.6328 153 14.6328C153.302 14.6328 153.508 14.6875 153.617 14.7969C153.732 14.901 153.789 15.1016 153.789 15.3984ZM157.312 24.8047C157.312 24.8464 157.302 24.8828 157.281 24.9141C157.26 24.9401 157.227 24.9635 157.18 24.9844C157.133 25.0052 157.068 25.0208 156.984 25.0312C156.901 25.0417 156.794 25.0469 156.664 25.0469C156.539 25.0469 156.435 25.0417 156.352 25.0312C156.268 25.0208 156.201 25.0052 156.148 24.9844C156.102 24.9635 156.068 24.9401 156.047 24.9141C156.031 24.8828 156.023 24.8464 156.023 24.8047V14.3672C156.023 14.3255 156.031 14.2891 156.047 14.2578C156.068 14.2266 156.102 14.2005 156.148 14.1797C156.201 14.1589 156.268 14.1432 156.352 14.1328C156.435 14.1224 156.539 14.1172 156.664 14.1172C156.794 14.1172 156.901 14.1224 156.984 14.1328C157.068 14.1432 157.133 14.1589 157.18 14.1797C157.227 14.2005 157.26 14.2266 157.281 14.2578C157.302 14.2891 157.312 14.3255 157.312 14.3672V24.8047Z" fill="#212427" fill-opacity="0.3"/>
<g clip-path="url(#clip0_405_392)">
<path d="M608.149 18.144L608.851 18.8565L605.955 21.71C605.767 21.8963 605.513 22.0006 605.248 22.0001C604.984 21.9996 604.73 21.8944 604.543 21.7075L603.152 20.3595L603.849 19.641L605.245 20.9945L608.149 18.144ZM612 20C612 23.3085 609.309 26 606 26C602.691 26 600 23.3085 600 20C600 16.6915 602.691 14 606 14C609.309 14 612 16.6915 612 20ZM611 20C611 17.243 608.757 15 606 15C603.243 15 601 17.243 601 20C601 22.757 603.243 25 606 25C608.757 25 611 22.757 611 20Z" fill="#54C4FF"/>
</g>
<rect x="0.25" y="0.25" width="635.5" height="39.5" rx="5.75" stroke="#212426" stroke-width="0.5"/>
<defs>
<clipPath id="clip0_405_392">
<rect width="12" height="12" fill="white" transform="translate(600 14)"/>
</clipPath>
</defs>
</svg>
