<svg width="50" height="50" viewBox="0 0 50 50" fill="none" xmlns="http://www.w3.org/2000/svg">
<circle cx="25" cy="25" r="25" fill="white"/>
<circle cx="25" cy="25" r="23.75" stroke="#9DE0AD" stroke-opacity="0.2" stroke-width="2.5"/>
<path d="M18.7227 20.177V20.7864L15.1895 28.7083H14.0469L17.5742 21.0676H12.957V20.177H18.7227ZM25.3145 23.7629V25.0637C25.3145 25.7629 25.252 26.3528 25.127 26.8333C25.002 27.3137 24.8223 27.7004 24.5879 27.9934C24.3535 28.2864 24.0703 28.4993 23.7383 28.6321C23.4102 28.761 23.0391 28.8254 22.625 28.8254C22.2969 28.8254 21.9941 28.7844 21.7168 28.7024C21.4395 28.6204 21.1895 28.4895 20.9668 28.3098C20.748 28.1262 20.5605 27.8879 20.4043 27.595C20.248 27.302 20.1289 26.9465 20.0469 26.5286C19.9648 26.1106 19.9238 25.6223 19.9238 25.0637V23.7629C19.9238 23.0637 19.9863 22.4778 20.1113 22.0051C20.2402 21.5325 20.4219 21.1536 20.6562 20.8684C20.8906 20.5793 21.1719 20.3723 21.5 20.2473C21.832 20.1223 22.2031 20.0598 22.6133 20.0598C22.9453 20.0598 23.25 20.1008 23.5273 20.1829C23.8086 20.261 24.0586 20.3879 24.2773 20.5637C24.4961 20.7356 24.6816 20.9661 24.834 21.2551C24.9902 21.5403 25.1094 21.8899 25.1914 22.304C25.2734 22.718 25.3145 23.2043 25.3145 23.7629ZM24.2246 25.2395V23.5813C24.2246 23.1985 24.2012 22.8625 24.1543 22.5735C24.1113 22.2805 24.0469 22.0305 23.9609 21.8235C23.875 21.6165 23.7656 21.4485 23.6328 21.3196C23.5039 21.1907 23.3535 21.0969 23.1816 21.0383C23.0137 20.9758 22.8242 20.9446 22.6133 20.9446C22.3555 20.9446 22.127 20.9934 21.9277 21.0911C21.7285 21.1848 21.5605 21.3352 21.4238 21.5422C21.291 21.7493 21.1895 22.0208 21.1191 22.3567C21.0488 22.6926 21.0137 23.1008 21.0137 23.5813V25.2395C21.0137 25.6223 21.0352 25.9602 21.0781 26.2532C21.125 26.5461 21.1934 26.8 21.2832 27.0149C21.373 27.2258 21.4824 27.3997 21.6113 27.5364C21.7402 27.6731 21.8887 27.7747 22.0566 27.8411C22.2285 27.9036 22.418 27.9348 22.625 27.9348C22.8906 27.9348 23.123 27.884 23.3223 27.7825C23.5215 27.6809 23.6875 27.5227 23.8203 27.3079C23.957 27.0891 24.0586 26.8098 24.125 26.47C24.1914 26.1262 24.2246 25.7161 24.2246 25.2395ZM26.6152 22.2688V21.8176C26.6152 21.4934 26.6855 21.1985 26.8262 20.9329C26.9668 20.6672 27.168 20.4543 27.4297 20.2942C27.6914 20.134 28.002 20.054 28.3613 20.054C28.7285 20.054 29.041 20.134 29.2988 20.2942C29.5605 20.4543 29.7617 20.6672 29.9023 20.9329C30.043 21.1985 30.1133 21.4934 30.1133 21.8176V22.2688C30.1133 22.5852 30.043 22.8762 29.9023 23.1418C29.7656 23.4075 29.5664 23.6204 29.3047 23.7805C29.0469 23.9407 28.7363 24.0208 28.373 24.0208C28.0098 24.0208 27.6953 23.9407 27.4297 23.7805C27.168 23.6204 26.9668 23.4075 26.8262 23.1418C26.6855 22.8762 26.6152 22.5852 26.6152 22.2688ZM27.4297 21.8176V22.2688C27.4297 22.4485 27.4629 22.6184 27.5293 22.7786C27.5996 22.9387 27.7051 23.0696 27.8457 23.1711C27.9863 23.2688 28.1621 23.3176 28.373 23.3176C28.584 23.3176 28.7578 23.2688 28.8945 23.1711C29.0312 23.0696 29.1328 22.9387 29.1992 22.7786C29.2656 22.6184 29.2988 22.4485 29.2988 22.2688V21.8176C29.2988 21.634 29.2637 21.4622 29.1934 21.302C29.127 21.1379 29.0234 21.0071 28.8828 20.9094C28.7461 20.8079 28.5723 20.7571 28.3613 20.7571C28.1543 20.7571 27.9805 20.8079 27.8398 20.9094C27.7031 21.0071 27.5996 21.1379 27.5293 21.302C27.4629 21.4622 27.4297 21.634 27.4297 21.8176ZM30.7695 27.0735V26.6165C30.7695 26.2961 30.8398 26.0032 30.9805 25.7375C31.1211 25.4719 31.3223 25.259 31.584 25.0989C31.8457 24.9387 32.1562 24.8586 32.5156 24.8586C32.8828 24.8586 33.1953 24.9387 33.4531 25.0989C33.7148 25.259 33.916 25.4719 34.0566 25.7375C34.1973 26.0032 34.2676 26.2961 34.2676 26.6165V27.0735C34.2676 27.3938 34.1973 27.6868 34.0566 27.9524C33.9199 28.218 33.7207 28.4309 33.459 28.5911C33.2012 28.7512 32.8906 28.8313 32.5273 28.8313C32.1641 28.8313 31.8516 28.7512 31.5898 28.5911C31.3281 28.4309 31.125 28.218 30.9805 27.9524C30.8398 27.6868 30.7695 27.3938 30.7695 27.0735ZM31.584 26.6165V27.0735C31.584 27.2532 31.6172 27.425 31.6836 27.5891C31.7539 27.7493 31.8594 27.8801 32 27.9817C32.1406 28.0793 32.3164 28.1282 32.5273 28.1282C32.7383 28.1282 32.9121 28.0793 33.0488 27.9817C33.1895 27.8801 33.293 27.7493 33.3594 27.5891C33.4258 27.429 33.459 27.2571 33.459 27.0735V26.6165C33.459 26.4329 33.4238 26.261 33.3535 26.1008C33.2871 25.9407 33.1836 25.8118 33.043 25.7141C32.9062 25.6125 32.7305 25.5618 32.5156 25.5618C32.3086 25.5618 32.1348 25.6125 31.9941 25.7141C31.8574 25.8118 31.7539 25.9407 31.6836 26.1008C31.6172 26.261 31.584 26.4329 31.584 26.6165ZM32.7852 21.3899L28.6191 28.0579L28.0098 27.6711L32.1758 21.0032L32.7852 21.3899Z" fill="#0077B5"/>
<path d="M25.9946 48.7292C21.8919 48.9011 17.8148 48.0064 14.1611 46.1325C10.5074 44.2585 7.402 41.4692 5.14799 38.0369C2.89398 34.6046 1.56838 30.6465 1.30057 26.549C1.03275 22.4515 1.83188 18.3545 3.61995 14.658C5.40802 10.9615 8.12394 7.79179 11.5026 5.45817C14.8813 3.12454 18.8073 1.70678 22.8974 1.34325C26.9876 0.979729 31.1021 1.68287 34.8394 3.38404C38.5766 5.08521 41.809 7.72629 44.221 11.0495" stroke="#0077B5" stroke-width="2.5"/>
</svg>
