<svg width="127" height="34" viewBox="0 0 127 34" fill="none" xmlns="http://www.w3.org/2000/svg">
<rect x="0.35" y="0.35" width="126.3" height="33.179" rx="16.5895" stroke="#0077B5" stroke-width="0.7"/>
<path d="M40.7129 21.9717V11.7899H44.1532C44.9486 11.7899 45.6016 11.9258 46.112 12.1975C46.6224 12.466 47.0003 12.8356 47.2455 13.3062C47.4908 13.7768 47.6134 14.3121 47.6134 14.912C47.6134 15.5119 47.4908 16.0439 47.2455 16.5079C47.0003 16.9719 46.6241 17.3365 46.117 17.6017C45.6099 17.8635 44.9619 17.9944 44.1731 17.9944H41.389V16.8808H44.1333C44.6769 16.8808 45.1144 16.8012 45.4458 16.6421C45.7806 16.483 46.0225 16.2577 46.1717 15.966C46.3241 15.671 46.4004 15.3197 46.4004 14.912C46.4004 14.5043 46.3241 14.1481 46.1717 13.8431C46.0192 13.5382 45.7756 13.3029 45.4408 13.1372C45.1061 12.9681 44.6636 12.8836 44.1134 12.8836H41.9458V21.9717H40.7129ZM45.5055 17.3978L48.0111 21.9717H46.5793L44.1134 17.3978H45.5055ZM52.6285 22.1308C51.8927 22.1308 51.258 21.9684 50.7244 21.6436C50.1941 21.3154 49.7848 20.858 49.4964 20.2714C49.2114 19.6814 49.0689 18.9954 49.0689 18.2132C49.0689 17.431 49.2114 16.7416 49.4964 16.145C49.7848 15.5451 50.1858 15.0777 50.6995 14.743C51.2166 14.4049 51.8198 14.2359 52.5092 14.2359C52.9069 14.2359 53.2997 14.3022 53.6875 14.4347C54.0752 14.5673 54.4282 14.7828 54.7464 15.0811C55.0646 15.376 55.3181 15.7671 55.5071 16.2544C55.696 16.7416 55.7904 17.3415 55.7904 18.0541V18.5512H49.9041V17.537H54.5973C54.5973 17.1061 54.5111 16.7217 54.3387 16.3836C54.1697 16.0455 53.9278 15.7787 53.6129 15.5832C53.3013 15.3876 52.9334 15.2899 52.5092 15.2899C52.0419 15.2899 51.6375 15.4059 51.2961 15.6379C50.9581 15.8666 50.6979 16.1649 50.5156 16.5328C50.3333 16.9007 50.2421 17.2951 50.2421 17.716V18.3921C50.2421 18.9688 50.3416 19.4577 50.5404 19.8588C50.7426 20.2565 51.0227 20.5597 51.3806 20.7686C51.7386 20.974 52.1546 21.0768 52.6285 21.0768C52.9368 21.0768 53.2152 21.0337 53.4637 20.9475C53.7156 20.858 53.9327 20.7255 54.115 20.5498C54.2973 20.3708 54.4382 20.1488 54.5376 19.8836L55.6711 20.2018C55.5518 20.5863 55.3513 20.9243 55.0696 21.216C54.7878 21.5044 54.4398 21.7297 54.0255 21.8921C53.6112 22.0512 53.1456 22.1308 52.6285 22.1308ZM61.9502 17.0597V18.1535H57.4957V17.0597H61.9502ZM70.8556 11.7899H72.0886V18.5313C72.0886 19.2274 71.9245 19.8488 71.5964 20.3957C71.2716 20.9392 70.8125 21.3685 70.2192 21.6833C69.626 21.9949 68.9299 22.1507 68.1312 22.1507C67.3324 22.1507 66.6364 21.9949 66.0431 21.6833C65.4498 21.3685 64.9891 20.9392 64.661 20.3957C64.3362 19.8488 64.1738 19.2274 64.1738 18.5313V11.7899H65.4067V18.4319C65.4067 18.9291 65.5161 19.3715 65.7349 19.7593C65.9536 20.1438 66.2652 20.4471 66.6695 20.6691C67.0772 20.8879 67.5644 20.9972 68.1312 20.9972C68.6979 20.9972 69.1852 20.8879 69.5928 20.6691C70.0005 20.4471 70.312 20.1438 70.5275 19.7593C70.7462 19.3715 70.8556 18.9291 70.8556 18.4319V11.7899ZM74.3917 24.8353V14.3353H75.5252V15.5484H75.6644C75.7506 15.4158 75.8699 15.2468 76.0223 15.0413C76.1781 14.8325 76.4002 14.6469 76.6885 14.4845C76.9802 14.3187 77.3746 14.2359 77.8718 14.2359C78.5148 14.2359 79.0815 14.3966 79.572 14.7181C80.0626 15.0396 80.4454 15.4954 80.7205 16.0853C80.9956 16.6753 81.1331 17.3713 81.1331 18.1734C81.1331 18.9821 80.9956 19.6831 80.7205 20.2764C80.4454 20.8663 80.0642 21.3237 79.577 21.6485C79.0898 21.97 78.528 22.1308 77.8917 22.1308C77.4011 22.1308 77.0084 22.0496 76.7134 21.8872C76.4184 21.7214 76.1914 21.5342 76.0323 21.3254C75.8732 21.1133 75.7506 20.9376 75.6644 20.7984H75.5649V24.8353H74.3917ZM75.5451 18.1535C75.5451 18.7302 75.6296 19.239 75.7986 19.6798C75.9676 20.1173 76.2146 20.4603 76.5394 20.7089C76.8642 20.9542 77.2619 21.0768 77.7326 21.0768C78.2231 21.0768 78.6324 20.9475 78.9605 20.689C79.292 20.4272 79.5406 20.0758 79.7063 19.635C79.8753 19.1909 79.9598 18.6971 79.9598 18.1535C79.9598 17.6166 79.877 17.1327 79.7113 16.7018C79.5488 16.2676 79.3019 15.9246 78.9705 15.6727C78.6424 15.4175 78.2297 15.2899 77.7326 15.2899C77.2553 15.2899 76.8542 15.4108 76.5294 15.6528C76.2046 15.8914 75.9594 16.2262 75.7936 16.657C75.6279 17.0846 75.5451 17.5834 75.5451 18.1535ZM84.0962 11.7899V21.9717H82.9229V11.7899H84.0962ZM89.3474 22.1308C88.658 22.1308 88.0532 21.9667 87.5328 21.6386C87.0158 21.3105 86.6114 20.8514 86.3197 20.2615C86.0314 19.6715 85.8872 18.9821 85.8872 18.1933C85.8872 17.3978 86.0314 16.7035 86.3197 16.1102C86.6114 15.5169 87.0158 15.0562 87.5328 14.7281C88.0532 14.3999 88.658 14.2359 89.3474 14.2359C90.0368 14.2359 90.6401 14.3999 91.1571 14.7281C91.6775 15.0562 92.0818 15.5169 92.3702 16.1102C92.6618 16.7035 92.8077 17.3978 92.8077 18.1933C92.8077 18.9821 92.6618 19.6715 92.3702 20.2615C92.0818 20.8514 91.6775 21.3105 91.1571 21.6386C90.6401 21.9667 90.0368 22.1308 89.3474 22.1308ZM89.3474 21.0768C89.8711 21.0768 90.302 20.9426 90.6401 20.6741C90.9781 20.4056 91.2284 20.0526 91.3908 19.6151C91.5532 19.1776 91.6344 18.7037 91.6344 18.1933C91.6344 17.6829 91.5532 17.2072 91.3908 16.7664C91.2284 16.3256 90.9781 15.9693 90.6401 15.6975C90.302 15.4258 89.8711 15.2899 89.3474 15.2899C88.8238 15.2899 88.3929 15.4258 88.0548 15.6975C87.7168 15.9693 87.4665 16.3256 87.3041 16.7664C87.1417 17.2072 87.0605 17.6829 87.0605 18.1933C87.0605 18.7037 87.1417 19.1776 87.3041 19.6151C87.4665 20.0526 87.7168 20.4056 88.0548 20.6741C88.3929 20.9426 88.8238 21.0768 89.3474 21.0768ZM96.8458 22.1507C96.3619 22.1507 95.9228 22.0595 95.5284 21.8772C95.134 21.6916 94.8207 21.4248 94.5887 21.0768C94.3567 20.7255 94.2407 20.3012 94.2407 19.8041C94.2407 19.3666 94.3269 19.0119 94.4993 18.7401C94.6716 18.4651 94.9019 18.2496 95.1903 18.0938C95.4787 17.9381 95.7968 17.8221 96.1448 17.7458C96.4962 17.6663 96.8492 17.6033 97.2038 17.5569C97.6678 17.4972 98.044 17.4525 98.3323 17.4227C98.624 17.3895 98.8361 17.3348 98.9687 17.2586C99.1046 17.1824 99.1725 17.0498 99.1725 16.8609V16.8211C99.1725 16.3306 99.0383 15.9494 98.7698 15.6776C98.5047 15.4059 98.102 15.27 97.5618 15.27C97.0016 15.27 96.5625 15.3926 96.2443 15.6379C95.9261 15.8831 95.7024 16.145 95.5731 16.4234L94.4595 16.0257C94.6583 15.5616 94.9235 15.2004 95.2549 14.9419C95.5897 14.68 95.9543 14.4977 96.3487 14.395C96.7464 14.2889 97.1375 14.2359 97.522 14.2359C97.7672 14.2359 98.049 14.2657 98.3671 14.3254C98.6886 14.3817 98.9985 14.4994 99.2968 14.6784C99.5984 14.8573 99.8487 15.1275 100.048 15.4887C100.246 15.85 100.346 16.3339 100.346 16.9404V21.9717H99.1725V20.9376H99.1129C99.0333 21.1033 98.9008 21.2806 98.7152 21.4695C98.5296 21.6585 98.2826 21.8192 97.9744 21.9518C97.6662 22.0844 97.29 22.1507 96.8458 22.1507ZM97.0248 21.0967C97.4888 21.0967 97.8799 21.0055 98.1981 20.8232C98.5196 20.641 98.7616 20.4056 98.924 20.1173C99.0897 19.8289 99.1725 19.5257 99.1725 19.2075V18.1336C99.1228 18.1933 99.0135 18.248 98.8444 18.2977C98.6787 18.3441 98.4865 18.3855 98.2677 18.422C98.0523 18.4551 97.8418 18.4849 97.6363 18.5115C97.4341 18.5347 97.2701 18.5545 97.1441 18.5711C96.8392 18.6109 96.5542 18.6755 96.289 18.765C96.0272 18.8512 95.8151 18.9821 95.6527 19.1578C95.4936 19.3301 95.414 19.5654 95.414 19.8637C95.414 20.2714 95.5648 20.5796 95.8664 20.7884C96.1714 20.9939 96.5575 21.0967 97.0248 21.0967ZM105.371 22.1308C104.735 22.1308 104.173 21.97 103.686 21.6485C103.198 21.3237 102.817 20.8663 102.542 20.2764C102.267 19.6831 102.129 18.9821 102.129 18.1734C102.129 17.3713 102.267 16.6753 102.542 16.0853C102.817 15.4954 103.2 15.0396 103.69 14.7181C104.181 14.3966 104.748 14.2359 105.391 14.2359C105.888 14.2359 106.281 14.3187 106.569 14.4845C106.861 14.6469 107.083 14.8325 107.235 15.0413C107.391 15.2468 107.512 15.4158 107.598 15.5484H107.698V11.7899H108.871V21.9717H107.737V20.7984H107.598C107.512 20.9376 107.389 21.1133 107.23 21.3254C107.071 21.5342 106.844 21.7214 106.549 21.8872C106.254 22.0496 105.861 22.1308 105.371 22.1308ZM105.53 21.0768C106.001 21.0768 106.398 20.9542 106.723 20.7089C107.048 20.4603 107.295 20.1173 107.464 19.6798C107.633 19.239 107.717 18.7302 107.717 18.1535C107.717 17.5834 107.635 17.0846 107.469 16.657C107.303 16.2262 107.058 15.8914 106.733 15.6528C106.408 15.4108 106.007 15.2899 105.53 15.2899C105.033 15.2899 104.619 15.4175 104.287 15.6727C103.959 15.9246 103.712 16.2676 103.546 16.7018C103.384 17.1327 103.303 17.6166 103.303 18.1535C103.303 18.6971 103.386 19.1909 103.551 19.635C103.72 20.0758 103.969 20.4272 104.297 20.689C104.628 20.9475 105.039 21.0768 105.53 21.0768Z" fill="#0077B5"/>
<path d="M33.1336 18.0082V20.7675C33.1336 20.9864 32.9177 21.1645 32.6522 21.1645H23.2158C22.9504 21.1645 22.7344 20.9864 22.7344 20.7675V18.0082H21.7715V20.7675C21.7715 21.4242 22.4194 21.9585 23.2158 21.9585H32.6522C33.4486 21.9585 34.0965 21.4242 34.0965 20.7675V18.0082H33.1336Z" fill="#0077B5"/>
<path d="M27.9332 11.8091L24.9414 14.2762L25.6223 14.8377L27.4518 13.329V19.5169H28.4147V13.329L30.2442 14.8377L30.925 14.2762L27.9332 11.8091Z" fill="#0077B5"/>
</svg>
