<svg width="104" height="20" viewBox="0 0 104 20" fill="none" xmlns="http://www.w3.org/2000/svg">
<g clip-path="url(#clip0_385_440)">
<path d="M14.6915 1.08984C13.7861 1.10393 12.9005 1.35667 12.124 1.82255C11.3475 2.28844 10.7077 2.95096 10.2692 3.74322C9.83074 2.95096 9.19095 2.28844 8.41448 1.82255C7.63801 1.35667 6.75235 1.10393 5.84694 1.08984C4.40362 1.15255 3.04377 1.78395 2.0645 2.84608C1.08522 3.90822 0.566117 5.31476 0.620592 6.75842C0.620592 12.2059 9.42981 18.4976 9.8045 18.7646L10.2692 19.0934L10.734 18.7646C11.1087 18.4992 19.9179 12.2059 19.9179 6.75842C19.9724 5.31476 19.4533 3.90822 18.474 2.84608C17.4947 1.78395 16.1349 1.15255 14.6915 1.08984ZM10.2692 17.1138C7.65365 15.16 2.2287 10.3598 2.2287 6.75842C2.17374 5.74107 2.52328 4.74325 3.20109 3.98259C3.87891 3.22193 4.83 2.76015 5.84694 2.69795C6.86388 2.76015 7.81498 3.22193 8.49279 3.98259C9.17061 4.74325 9.52015 5.74107 9.46519 6.75842H11.0733C11.0183 5.74107 11.3679 4.74325 12.0457 3.98259C12.7235 3.22193 13.6746 2.76015 14.6915 2.69795C15.7085 2.76015 16.6596 3.22193 17.3374 3.98259C18.0152 4.74325 18.3647 5.74107 18.3098 6.75842C18.3098 10.3614 12.8848 15.16 10.2692 17.1138Z" fill="#00A0DC"/>
</g>
<g clip-path="url(#clip1_385_440)">
<path d="M103.629 14.9066L96.0704 2.18642C95.6925 1.54317 95.0251 1.15723 94.2693 1.15723C93.5135 1.15723 92.8462 1.54317 92.4763 2.18642L84.9101 14.9066C84.5322 15.5659 84.5322 16.3458 84.9101 16.9971C85.288 17.6484 85.9634 18.0424 86.7112 18.0424H101.835C102.591 18.0424 103.267 17.6484 103.637 16.9971C104.006 16.3458 104.006 15.5659 103.629 14.9066ZM102.246 16.193C102.205 16.2654 102.085 16.4262 101.835 16.4262H86.7032C86.4539 16.4262 86.3333 16.2574 86.2931 16.193C86.2529 16.1287 86.1725 15.9357 86.2931 15.7186L93.8593 2.99851C93.9799 2.78946 94.1889 2.76533 94.2693 2.76533C94.3497 2.76533 94.5507 2.78946 94.6794 3.00655L102.238 15.7267C102.366 15.9357 102.278 16.1287 102.238 16.2011L102.246 16.193ZM93.4653 6.7856H95.0734V11.6099H93.4653V6.7856ZM93.4653 13.218H95.0734V14.8261H93.4653V13.218Z" fill="#FF0000"/>
</g>
<g clip-path="url(#clip2_385_440)">
<path d="M58.1662 12.1463C57.5583 12.1468 56.9596 12.2952 56.4218 12.5787C55.884 12.8622 55.4233 13.2724 55.0794 13.7737L49.8459 11.4106C50.2176 10.513 50.219 9.50472 49.8499 8.60604L55.0762 6.23086C55.5859 6.96798 56.3429 7.49802 57.2099 7.72483C58.0769 7.95164 58.9964 7.8602 59.8018 7.4671C60.6071 7.07399 61.2449 6.40526 61.5994 5.5822C61.9539 4.75915 62.0017 3.83629 61.7341 2.98101C61.4665 2.12574 60.9012 1.39471 60.1407 0.920531C59.3803 0.446347 58.4751 0.260416 57.5893 0.396465C56.7036 0.532514 55.8959 0.981531 55.3128 1.66207C54.7297 2.34261 54.4099 3.20959 54.4113 4.10575C54.4147 4.31786 54.4362 4.52929 54.4756 4.73773L48.9196 7.26246C48.386 6.76252 47.7179 6.42933 46.9976 6.30384C46.2772 6.17835 45.5358 6.26601 44.8646 6.55607C44.1934 6.84612 43.6215 7.32593 43.2192 7.93655C42.8169 8.54717 42.6017 9.262 42.6001 9.99323C42.5985 10.7245 42.8105 11.4402 43.2101 12.0526C43.6097 12.665 44.1795 13.1473 44.8495 13.4403C45.5194 13.7333 46.2604 13.8242 46.9813 13.7019C47.7022 13.5796 48.3717 13.2493 48.9075 12.7517L54.478 15.2668C54.4393 15.4751 54.4181 15.6862 54.4145 15.898C54.4143 16.6403 54.6343 17.3659 55.0466 17.9831C55.4588 18.6003 56.0449 19.0814 56.7306 19.3655C57.4163 19.6497 58.1709 19.724 58.8989 19.5793C59.6269 19.4345 60.2956 19.0771 60.8204 18.5522C61.3453 18.0274 61.7027 17.3587 61.8475 16.6307C61.9922 15.9027 61.9179 15.1481 61.6337 14.4624C61.3496 13.7767 60.8685 13.1906 60.2513 12.7784C59.6341 12.3661 58.9085 12.1461 58.1662 12.1463ZM58.1662 1.96133C58.5904 1.96118 59.0051 2.08681 59.3578 2.32234C59.7106 2.55788 59.9855 2.89273 60.148 3.28456C60.3104 3.67638 60.353 4.10758 60.2703 4.52361C60.1877 4.93964 59.9835 5.32181 59.6836 5.62179C59.3838 5.92177 59.0017 6.12609 58.5857 6.2089C58.1697 6.2917 57.7385 6.24928 57.3466 6.087C56.9547 5.92472 56.6197 5.64987 56.3841 5.2972C56.1484 4.94454 56.0226 4.52991 56.0226 4.10575C56.023 3.53728 56.249 2.99221 56.6509 2.59017C57.0528 2.18813 57.5977 1.96197 58.1662 1.96133ZM46.374 12.1463C45.9498 12.1464 45.5351 12.0208 45.1824 11.7853C44.8296 11.5497 44.5546 11.2149 44.3922 10.8231C44.2298 10.4312 44.1872 10 44.2699 9.58402C44.3525 9.16799 44.5567 8.78581 44.8565 8.48583C45.1564 8.18585 45.5385 7.98153 45.9545 7.89873C46.3705 7.81592 46.8017 7.85834 47.1936 8.02062C47.5855 8.1829 47.9204 8.45776 48.1561 8.81042C48.3918 9.16308 48.5176 9.57772 48.5176 10.0019C48.5169 10.5703 48.2909 11.1152 47.8891 11.5172C47.4872 11.9192 46.9424 12.1454 46.374 12.1463ZM58.1662 18.0424C57.7421 18.0424 57.3275 17.9167 56.9748 17.681C56.6222 17.4454 56.3473 17.1105 56.185 16.7186C56.0227 16.3268 55.9803 15.8956 56.063 15.4797C56.1457 15.0637 56.35 14.6816 56.6499 14.3817C56.9498 14.0818 57.3319 13.8775 57.7479 13.7948C58.1638 13.7121 58.595 13.7545 58.9868 13.9168C59.3787 14.0791 59.7136 14.354 59.9492 14.7066C60.1849 15.0593 60.3106 15.4739 60.3106 15.898C60.3102 16.4666 60.0841 17.0118 59.6821 17.4139C59.28 17.8159 58.7348 18.042 58.1662 18.0424Z" fill="#00A0DC"/>
</g>
<defs>
<clipPath id="clip0_385_440">
<rect width="19.2973" height="19.2973" fill="white" transform="translate(0.621094 0.352783)"/>
</clipPath>
<clipPath id="clip1_385_440">
<rect width="19.2973" height="19.2973" fill="white" transform="translate(84.6211 0.353027)"/>
</clipPath>
<clipPath id="clip2_385_440">
<rect width="19.2973" height="19.2973" fill="white" transform="translate(42.6211 0.353027)"/>
</clipPath>
</defs>
</svg>
