<svg width="632" height="190" viewBox="0 0 632 190" fill="none" xmlns="http://www.w3.org/2000/svg">
<mask id="path-1-inside-1_651_1458" fill="white">
<path d="M0.732422 0H214.703V38H0.732422V0Z"/>
</mask>
<path d="M0.732422 0H214.703V38H0.732422V0Z" fill="white"/>
<path d="M62.7711 24V14.5455H66.1412C66.8767 14.5455 67.4861 14.6793 67.9693 14.9471C68.4525 15.2148 68.8141 15.5811 69.0542 16.0458C69.2942 16.5075 69.4142 17.0276 69.4142 17.6062C69.4142 18.1879 69.2927 18.7111 69.0495 19.1758C68.8095 19.6374 68.4463 20.0037 67.96 20.2745C67.4769 20.5423 66.869 20.6761 66.1365 20.6761H63.8191V19.4666H66.0073C66.472 19.4666 66.849 19.3866 67.1383 19.2266C67.4276 19.0634 67.64 18.8419 67.7754 18.5618C67.9108 18.2817 67.9785 17.9632 67.9785 17.6062C67.9785 17.2492 67.9108 16.9322 67.7754 16.6552C67.64 16.3782 67.4261 16.1612 67.1337 16.0043C66.8444 15.8473 66.4628 15.7688 65.9888 15.7688H64.1976V24H62.7711ZM72.9759 24.157C72.5265 24.157 72.1203 24.0739 71.7571 23.9077C71.3939 23.7384 71.1062 23.4937 70.8938 23.1737C70.6845 22.8536 70.5799 22.4612 70.5799 21.9964C70.5799 21.5964 70.6568 21.267 70.8107 21.0085C70.9646 20.75 71.1723 20.5453 71.4339 20.3945C71.6955 20.2437 71.9879 20.1299 72.3111 20.0529C72.6342 19.976 72.9635 19.9175 73.299 19.8775C73.7237 19.8282 74.0684 19.7882 74.3331 19.7575C74.5978 19.7236 74.7901 19.6697 74.9102 19.5959C75.0302 19.522 75.0902 19.402 75.0902 19.2358V19.2035C75.0902 18.8003 74.9763 18.4879 74.7486 18.2663C74.5239 18.0447 74.1884 17.9339 73.7422 17.9339C73.2775 17.9339 72.9112 18.037 72.6435 18.2433C72.3788 18.4464 72.1957 18.6726 72.0941 18.9219L70.7969 18.6264C70.9508 18.1955 71.1754 17.8478 71.4709 17.5831C71.7694 17.3153 72.1126 17.1214 72.5004 17.0014C72.8881 16.8783 73.2959 16.8168 73.7237 16.8168C74.0069 16.8168 74.3069 16.8506 74.6239 16.9183C74.944 16.983 75.2425 17.103 75.5195 17.2784C75.7996 17.4538 76.0289 17.7047 76.2074 18.0309C76.3859 18.354 76.4751 18.7741 76.4751 19.2912V24H75.1271V23.0305H75.0717C74.9825 23.209 74.8486 23.3845 74.6701 23.5568C74.4916 23.7292 74.2623 23.8723 73.9822 23.9862C73.7022 24.1 73.3667 24.157 72.9759 24.157ZM73.2759 23.049C73.6576 23.049 73.9838 22.9736 74.2546 22.8228C74.5285 22.672 74.7363 22.475 74.8778 22.2319C75.0225 21.9857 75.0948 21.7225 75.0948 21.4425V20.5284C75.0456 20.5777 74.9502 20.6238 74.8086 20.6669C74.6701 20.7069 74.5116 20.7423 74.3331 20.7731C74.1546 20.8008 73.9807 20.8269 73.8114 20.8516C73.6422 20.8731 73.5006 20.8916 73.3867 20.907C73.119 20.9408 72.8743 20.9978 72.6527 21.0778C72.4342 21.1578 72.2588 21.2732 72.1264 21.424C71.9972 21.5717 71.9325 21.7687 71.9325 22.0149C71.9325 22.3565 72.0587 22.6151 72.3111 22.7905C72.5634 22.9628 72.8851 23.049 73.2759 23.049ZM81.3005 24.1431C80.6142 24.1431 80.0233 23.9877 79.5278 23.6768C79.0354 23.3629 78.6568 22.9305 78.3921 22.3796C78.1275 21.8287 77.9951 21.1978 77.9951 20.4869C77.9951 19.7667 78.1305 19.1312 78.4014 18.5803C78.6722 18.0263 79.0538 17.5939 79.5463 17.283C80.0387 16.9722 80.6188 16.8168 81.2867 16.8168C81.8253 16.8168 82.3054 16.9168 82.727 17.1168C83.1486 17.3138 83.4887 17.5908 83.7472 17.9478C84.0088 18.3048 84.1643 18.7218 84.2135 19.1989H82.8701C82.7963 18.8665 82.627 18.5803 82.3623 18.3402C82.1007 18.1001 81.7499 17.9801 81.3097 17.9801C80.925 17.9801 80.588 18.0817 80.2987 18.2848C80.0125 18.4848 79.7894 18.7711 79.6294 19.1435C79.4693 19.5128 79.3893 19.9498 79.3893 20.4545C79.3893 20.9716 79.4678 21.4179 79.6247 21.7933C79.7817 22.1688 80.0033 22.4596 80.2895 22.6658C80.5788 22.872 80.9189 22.9751 81.3097 22.9751C81.5713 22.9751 81.8083 22.9274 82.0207 22.832C82.2361 22.7335 82.4162 22.5935 82.5608 22.4119C82.7085 22.2304 82.8116 22.0118 82.8701 21.7564H84.2135C84.1643 22.215 84.015 22.6243 83.7657 22.9844C83.5164 23.3445 83.1825 23.6276 82.7639 23.8338C82.3485 24.04 81.8606 24.1431 81.3005 24.1431ZM86.9592 21.5948L86.9499 19.9098H87.19L90.0153 16.9091H91.668L88.4457 20.3253H88.2287L86.9592 21.5948ZM85.6896 24V14.5455H87.07V24H85.6896ZM90.1676 24L87.6286 20.63L88.5795 19.6651L91.8619 24H90.1676ZM94.9895 24.157C94.5402 24.157 94.1339 24.0739 93.7708 23.9077C93.4076 23.7384 93.1199 23.4937 92.9075 23.1737C92.6982 22.8536 92.5936 22.4612 92.5936 21.9964C92.5936 21.5964 92.6705 21.267 92.8244 21.0085C92.9783 20.75 93.186 20.5453 93.4476 20.3945C93.7092 20.2437 94.0016 20.1299 94.3248 20.0529C94.6479 19.976 94.9772 19.9175 95.3127 19.8775C95.7374 19.8282 96.0821 19.7882 96.3468 19.7575C96.6114 19.7236 96.8038 19.6697 96.9238 19.5959C97.0439 19.522 97.1039 19.402 97.1039 19.2358V19.2035C97.1039 18.8003 96.99 18.4879 96.7623 18.2663C96.5376 18.0447 96.2021 17.9339 95.7559 17.9339C95.2911 17.9339 94.9249 18.037 94.6571 18.2433C94.3925 18.4464 94.2093 18.6726 94.1078 18.9219L92.8105 18.6264C92.9644 18.1955 93.1891 17.8478 93.4846 17.5831C93.7831 17.3153 94.1262 17.1214 94.514 17.0014C94.9018 16.8783 95.3096 16.8168 95.7374 16.8168C96.0205 16.8168 96.3206 16.8506 96.6376 16.9183C96.9577 16.983 97.2562 17.103 97.5332 17.2784C97.8133 17.4538 98.0426 17.7047 98.2211 18.0309C98.3996 18.354 98.4888 18.7741 98.4888 19.2912V24H97.1408V23.0305H97.0854C96.9962 23.209 96.8623 23.3845 96.6838 23.5568C96.5053 23.7292 96.276 23.8723 95.9959 23.9862C95.7158 24.1 95.3804 24.157 94.9895 24.157ZM95.2896 23.049C95.6712 23.049 95.9975 22.9736 96.2683 22.8228C96.5422 22.672 96.7499 22.475 96.8915 22.2319C97.0362 21.9857 97.1085 21.7225 97.1085 21.4425V20.5284C97.0592 20.5777 96.9638 20.6238 96.8223 20.6669C96.6838 20.7069 96.5253 20.7423 96.3468 20.7731C96.1683 20.8008 95.9944 20.8269 95.8251 20.8516C95.6558 20.8731 95.5143 20.8916 95.4004 20.907C95.1326 20.9408 94.888 20.9978 94.6664 21.0778C94.4479 21.1578 94.2724 21.2732 94.1401 21.424C94.0108 21.5717 93.9462 21.7687 93.9462 22.0149C93.9462 22.3565 94.0724 22.6151 94.3248 22.7905C94.5771 22.9628 94.8987 23.049 95.2896 23.049ZM103.3 26.8068C102.737 26.8068 102.252 26.733 101.846 26.5852C101.443 26.4375 101.114 26.2421 100.858 25.9989C100.603 25.7558 100.412 25.4896 100.286 25.2003L101.472 24.7109C101.555 24.8464 101.666 24.9895 101.805 25.1403C101.946 25.2942 102.137 25.425 102.377 25.5327C102.62 25.6404 102.933 25.6942 103.314 25.6942C103.837 25.6942 104.27 25.5665 104.611 25.3111C104.953 25.0587 105.124 24.6555 105.124 24.1016V22.7074H105.036C104.953 22.8582 104.833 23.0259 104.676 23.2106C104.522 23.3952 104.31 23.5553 104.039 23.6907C103.768 23.8261 103.416 23.8938 102.982 23.8938C102.422 23.8938 101.917 23.763 101.468 23.5014C101.021 23.2367 100.667 22.8474 100.406 22.3335C100.147 21.8164 100.018 21.1809 100.018 20.4268C100.018 19.6728 100.146 19.0265 100.401 18.4879C100.66 17.9493 101.014 17.5369 101.463 17.2507C101.912 16.9614 102.422 16.8168 102.991 16.8168C103.431 16.8168 103.787 16.8906 104.057 17.0384C104.328 17.183 104.539 17.3523 104.69 17.5462C104.844 17.7401 104.962 17.9109 105.045 18.0586H105.147V16.9091H106.5V24.157C106.5 24.7663 106.358 25.2665 106.075 25.6573C105.792 26.0482 105.409 26.3375 104.925 26.5252C104.445 26.7129 103.904 26.8068 103.3 26.8068ZM103.286 22.7489C103.684 22.7489 104.019 22.6566 104.293 22.4719C104.57 22.2842 104.779 22.0165 104.921 21.6687C105.065 21.3178 105.138 20.8977 105.138 20.4084C105.138 19.9313 105.067 19.5112 104.925 19.1481C104.784 18.7849 104.576 18.5018 104.302 18.2987C104.028 18.0924 103.69 17.9893 103.286 17.9893C102.871 17.9893 102.525 18.0971 102.248 18.3125C101.971 18.5249 101.762 18.8142 101.62 19.1804C101.481 19.5466 101.412 19.956 101.412 20.4084C101.412 20.8731 101.483 21.2809 101.625 21.6317C101.766 21.9826 101.975 22.2565 102.252 22.4535C102.532 22.6504 102.877 22.7489 103.286 22.7489ZM111.407 24.1431C110.708 24.1431 110.107 23.9938 109.602 23.6953C109.1 23.3937 108.712 22.9705 108.438 22.4258C108.168 21.878 108.032 21.2363 108.032 20.5007C108.032 19.7744 108.168 19.1342 108.438 18.5803C108.712 18.0263 109.094 17.5939 109.583 17.283C110.076 16.9722 110.651 16.8168 111.31 16.8168C111.71 16.8168 112.098 16.8829 112.473 17.0153C112.849 17.1476 113.186 17.3554 113.484 17.6385C113.783 17.9216 114.018 18.2894 114.191 18.7418C114.363 19.1912 114.449 19.7375 114.449 20.3807V20.87H108.812V19.8359H113.097C113.097 19.4728 113.023 19.1512 112.875 18.8711C112.727 18.5879 112.519 18.3648 112.252 18.2017C111.987 18.0386 111.676 17.957 111.319 17.957C110.931 17.957 110.593 18.0524 110.304 18.2433C110.017 18.431 109.796 18.6772 109.639 18.9819C109.485 19.2835 109.408 19.6113 109.408 19.9652V20.7731C109.408 21.247 109.491 21.6502 109.657 21.9826C109.826 22.315 110.062 22.5689 110.364 22.7443C110.665 22.9167 111.018 23.0028 111.421 23.0028C111.682 23.0028 111.921 22.9659 112.136 22.892C112.352 22.8151 112.538 22.7012 112.695 22.5504C112.852 22.3996 112.972 22.2134 113.055 21.9918L114.361 22.2273C114.257 22.612 114.069 22.949 113.798 23.2383C113.53 23.5245 113.193 23.7476 112.787 23.9077C112.384 24.0646 111.924 24.1431 111.407 24.1431ZM122.593 24H119.532V14.5455H122.69C123.616 14.5455 124.411 14.7347 125.076 15.1133C125.741 15.4888 126.25 16.0289 126.604 16.7337C126.961 17.4354 127.14 18.2771 127.14 19.2589C127.14 20.2437 126.96 21.0901 126.6 21.7979C126.243 22.5058 125.726 23.0505 125.049 23.4322C124.371 23.8107 123.553 24 122.593 24ZM120.958 22.7536H122.514C123.234 22.7536 123.833 22.6181 124.31 22.3473C124.787 22.0734 125.144 21.6779 125.381 21.1609C125.618 20.6407 125.736 20.0067 125.736 19.2589C125.736 18.5172 125.618 17.8878 125.381 17.3707C125.147 16.8537 124.798 16.4613 124.333 16.1935C123.868 15.9258 123.291 15.7919 122.602 15.7919H120.958V22.7536ZM131.859 24.1431C131.16 24.1431 130.559 23.9938 130.054 23.6953C129.552 23.3937 129.165 22.9705 128.891 22.4258C128.62 21.878 128.484 21.2363 128.484 20.5007C128.484 19.7744 128.62 19.1342 128.891 18.5803C129.165 18.0263 129.546 17.5939 130.036 17.283C130.528 16.9722 131.103 16.8168 131.762 16.8168C132.162 16.8168 132.55 16.8829 132.925 17.0153C133.301 17.1476 133.638 17.3554 133.936 17.6385C134.235 17.9216 134.47 18.2894 134.643 18.7418C134.815 19.1912 134.901 19.7375 134.901 20.3807V20.87H129.265V19.8359H133.549C133.549 19.4728 133.475 19.1512 133.327 18.8711C133.179 18.5879 132.972 18.3648 132.704 18.2017C132.439 18.0386 132.128 17.957 131.771 17.957C131.384 17.957 131.045 18.0524 130.756 18.2433C130.469 18.431 130.248 18.6772 130.091 18.9819C129.937 19.2835 129.86 19.6113 129.86 19.9652V20.7731C129.86 21.247 129.943 21.6502 130.109 21.9826C130.279 22.315 130.514 22.5689 130.816 22.7443C131.117 22.9167 131.47 23.0028 131.873 23.0028C132.134 23.0028 132.373 22.9659 132.588 22.892C132.804 22.8151 132.99 22.7012 133.147 22.5504C133.304 22.3996 133.424 22.2134 133.507 21.9918L134.814 22.2273C134.709 22.612 134.521 22.949 134.25 23.2383C133.983 23.5245 133.646 23.7476 133.239 23.9077C132.836 24.0646 132.376 24.1431 131.859 24.1431ZM138.496 24.157C138.047 24.157 137.641 24.0739 137.278 23.9077C136.914 23.7384 136.627 23.4937 136.414 23.1737C136.205 22.8536 136.1 22.4612 136.1 21.9964C136.1 21.5964 136.177 21.267 136.331 21.0085C136.485 20.75 136.693 20.5453 136.954 20.3945C137.216 20.2437 137.508 20.1299 137.832 20.0529C138.155 19.976 138.484 19.9175 138.82 19.8775C139.244 19.8282 139.589 19.7882 139.854 19.7575C140.118 19.7236 140.311 19.6697 140.431 19.5959C140.551 19.522 140.611 19.402 140.611 19.2358V19.2035C140.611 18.8003 140.497 18.4879 140.269 18.2663C140.044 18.0447 139.709 17.9339 139.263 17.9339C138.798 17.9339 138.432 18.037 138.164 18.2433C137.899 18.4464 137.716 18.6726 137.615 18.9219L136.317 18.6264C136.471 18.1955 136.696 17.8478 136.991 17.5831C137.29 17.3153 137.633 17.1214 138.021 17.0014C138.409 16.8783 138.816 16.8168 139.244 16.8168C139.527 16.8168 139.827 16.8506 140.144 16.9183C140.465 16.983 140.763 17.103 141.04 17.2784C141.32 17.4538 141.549 17.7047 141.728 18.0309C141.906 18.354 141.996 18.7741 141.996 19.2912V24H140.648V23.0305H140.592C140.503 23.209 140.369 23.3845 140.191 23.5568C140.012 23.7292 139.783 23.8723 139.503 23.9862C139.223 24.1 138.887 24.157 138.496 24.157ZM138.796 23.049C139.178 23.049 139.504 22.9736 139.775 22.8228C140.049 22.672 140.257 22.475 140.398 22.2319C140.543 21.9857 140.615 21.7225 140.615 21.4425V20.5284C140.566 20.5777 140.471 20.6238 140.329 20.6669C140.191 20.7069 140.032 20.7423 139.854 20.7731C139.675 20.8008 139.501 20.8269 139.332 20.8516C139.163 20.8731 139.021 20.8916 138.907 20.907C138.639 20.9408 138.395 20.9978 138.173 21.0778C137.955 21.1578 137.779 21.2732 137.647 21.424C137.518 21.5717 137.453 21.7687 137.453 22.0149C137.453 22.3565 137.579 22.6151 137.832 22.7905C138.084 22.9628 138.406 23.049 138.796 23.049ZM145.214 14.5455V24H143.834V14.5455H145.214ZM152.385 18.6403L151.134 18.8619C151.082 18.7018 150.999 18.5495 150.885 18.4048C150.774 18.2602 150.623 18.1417 150.432 18.0494C150.241 17.957 150.003 17.9109 149.717 17.9109C149.326 17.9109 149 17.9986 148.738 18.174C148.476 18.3464 148.346 18.5695 148.346 18.8434C148.346 19.0804 148.433 19.2712 148.609 19.4158C148.784 19.5605 149.067 19.679 149.458 19.7713L150.585 20.0298C151.237 20.1806 151.723 20.413 152.043 20.7269C152.363 21.0408 152.524 21.4486 152.524 21.9503C152.524 22.375 152.4 22.7536 152.154 23.0859C151.911 23.4152 151.571 23.6738 151.134 23.8615C150.7 24.0492 150.197 24.1431 149.624 24.1431C148.83 24.1431 148.182 23.9738 147.681 23.6353C147.179 23.2937 146.871 22.8089 146.758 22.1811L148.092 21.978C148.175 22.3258 148.346 22.5889 148.604 22.7674C148.863 22.9428 149.2 23.0305 149.615 23.0305C150.068 23.0305 150.429 22.9367 150.7 22.7489C150.971 22.5581 151.106 22.3258 151.106 22.0518C151.106 21.8303 151.023 21.6441 150.857 21.4933C150.694 21.3424 150.443 21.2286 150.104 21.1516L148.904 20.8885C148.243 20.7377 147.753 20.4976 147.436 20.1683C147.122 19.839 146.965 19.422 146.965 18.9173C146.965 18.4987 147.082 18.1325 147.316 17.8185C147.55 17.5046 147.873 17.2599 148.286 17.0845C148.698 16.906 149.17 16.8168 149.703 16.8168C150.469 16.8168 151.072 16.983 151.513 17.3153C151.953 17.6446 152.243 18.0863 152.385 18.6403Z" fill="#212427"/>
<path d="M0.732422 0V-0.4H0.332422V0H0.732422ZM0.732422 0.4H214.703V-0.4H0.732422V0.4ZM1.13242 38V0H0.332422V38H1.13242Z" fill="#212427" fill-opacity="0.7" mask="url(#path-1-inside-1_651_1458)"/>
<mask id="path-4-inside-2_651_1458" fill="white">
<path d="M0.732422 38H214.703V76H0.732422V38Z"/>
</mask>
<path d="M0.732422 38H214.703V76H0.732422V38Z" fill="white"/>
<path d="M16.8773 62V52.5455H22.5463V53.5611H18.0222V56.7557H22.1216V57.7713H18.0222V62H16.8773ZM24.2833 62V54.9091H25.3358V55.9801H25.4097C25.539 55.6293 25.7729 55.3446 26.1114 55.1261C26.45 54.9076 26.8316 54.7983 27.2563 54.7983C27.3363 54.7983 27.4363 54.7998 27.5564 54.8029C27.6764 54.806 27.7672 54.8106 27.8287 54.8168V55.9247C27.7918 55.9155 27.7072 55.9016 27.5748 55.8832C27.4456 55.8616 27.3086 55.8509 27.164 55.8509C26.8193 55.8509 26.5115 55.9232 26.2407 56.0678C25.9729 56.2094 25.7606 56.4064 25.6036 56.6587C25.4497 56.908 25.3728 57.1927 25.3728 57.5128V62H24.2833ZM31.8774 62.1477C31.1942 62.1477 30.6048 61.9969 30.1093 61.6953C29.6169 61.3906 29.2368 60.9659 28.969 60.4212C28.7043 59.8733 28.572 59.2363 28.572 58.5099C28.572 57.7836 28.7043 57.1435 28.969 56.5895C29.2368 56.0324 29.6092 55.5985 30.0862 55.2876C30.5663 54.9737 31.1265 54.8168 31.7666 54.8168C32.1359 54.8168 32.5006 54.8783 32.8607 55.0014C33.2208 55.1245 33.5486 55.3246 33.844 55.6016C34.1395 55.8755 34.3749 56.2386 34.5503 56.6911C34.7258 57.1435 34.8135 57.7005 34.8135 58.3622V58.8239H29.3476V57.8821H33.7055C33.7055 57.482 33.6255 57.125 33.4655 56.8111C33.3085 56.4972 33.0838 56.2494 32.7915 56.0678C32.5022 55.8862 32.1605 55.7955 31.7666 55.7955C31.3327 55.7955 30.9572 55.9032 30.6402 56.1186C30.3263 56.331 30.0847 56.608 29.9154 56.9496C29.7461 57.2912 29.6615 57.6574 29.6615 58.0483V58.6761C29.6615 59.2116 29.7538 59.6656 29.9385 60.038C30.1262 60.4073 30.3863 60.6889 30.7187 60.8828C31.051 61.0736 31.4373 61.169 31.8774 61.169C32.1636 61.169 32.4221 61.129 32.653 61.049C32.8869 60.9659 33.0885 60.8428 33.2577 60.6797C33.427 60.5135 33.5578 60.3073 33.6501 60.0611L34.7027 60.3565C34.5919 60.7135 34.4057 61.0275 34.1441 61.2983C33.8825 61.5661 33.5593 61.7753 33.1746 61.9261C32.7899 62.0739 32.3575 62.1477 31.8774 62.1477ZM39.4438 62.1477C38.7606 62.1477 38.1712 61.9969 37.6757 61.6953C37.1833 61.3906 36.8032 60.9659 36.5354 60.4212C36.2707 59.8733 36.1384 59.2363 36.1384 58.5099C36.1384 57.7836 36.2707 57.1435 36.5354 56.5895C36.8032 56.0324 37.1756 55.5985 37.6526 55.2876C38.1327 54.9737 38.6929 54.8168 39.333 54.8168C39.7023 54.8168 40.067 54.8783 40.4271 55.0014C40.7872 55.1245 41.115 55.3246 41.4104 55.6016C41.7059 55.8755 41.9413 56.2386 42.1167 56.6911C42.2922 57.1435 42.3799 57.7005 42.3799 58.3622V58.8239H36.914V57.8821H41.2719C41.2719 57.482 41.1919 57.125 41.0319 56.8111C40.8749 56.4972 40.6502 56.2494 40.3579 56.0678C40.0686 55.8862 39.7269 55.7955 39.333 55.7955C38.8991 55.7955 38.5236 55.9032 38.2066 56.1186C37.8927 56.331 37.6511 56.608 37.4818 56.9496C37.3125 57.2912 37.2279 57.6574 37.2279 58.0483V58.6761C37.2279 59.2116 37.3202 59.6656 37.5049 60.038C37.6926 60.4073 37.9527 60.6889 38.2851 60.8828C38.6175 61.0736 39.0037 61.169 39.4438 61.169C39.73 61.169 39.9885 61.129 40.2194 61.049C40.4533 60.9659 40.6549 60.8428 40.8241 60.6797C40.9934 60.5135 41.1242 60.3073 41.2165 60.0611L42.2691 60.3565C42.1583 60.7135 41.9721 61.0275 41.7105 61.2983C41.4489 61.5661 41.1257 61.7753 40.741 61.9261C40.3563 62.0739 39.9239 62.1477 39.4438 62.1477ZM44.0372 62V54.9091H45.0898V56.017H45.1821C45.3298 55.6385 45.5683 55.3446 45.8976 55.1353C46.2269 54.9229 46.6224 54.8168 47.0841 54.8168C47.5519 54.8168 47.9412 54.9229 48.252 55.1353C48.566 55.3446 48.8106 55.6385 48.9861 56.017H49.0599C49.2415 55.6508 49.5139 55.36 49.877 55.1445C50.2402 54.926 50.6757 54.8168 51.1835 54.8168C51.8175 54.8168 52.3361 55.0153 52.7393 55.4123C53.1424 55.8062 53.344 56.4202 53.344 57.2543V62H52.2545V57.2543C52.2545 56.7311 52.1114 56.3571 51.8252 56.1325C51.539 55.9078 51.202 55.7955 50.8142 55.7955C50.3156 55.7955 49.9294 55.9463 49.6555 56.2479C49.3815 56.5464 49.2446 56.925 49.2446 57.3835V62H48.1366V57.1435C48.1366 56.7403 48.0058 56.4156 47.7442 56.1694C47.4826 55.9201 47.1456 55.7955 46.7332 55.7955C46.4501 55.7955 46.1854 55.8709 45.9392 56.0217C45.6961 56.1725 45.4991 56.3817 45.3483 56.6495C45.2006 56.9142 45.1267 57.2204 45.1267 57.5682V62H44.0372ZM55.336 62V54.9091H56.4255V62H55.336ZM55.89 53.7273C55.6776 53.7273 55.4945 53.6549 55.3406 53.5103C55.1898 53.3656 55.1144 53.1918 55.1144 52.9886C55.1144 52.7855 55.1898 52.6116 55.3406 52.467C55.4945 52.3223 55.6776 52.25 55.89 52.25C56.1024 52.25 56.2839 52.3223 56.4347 52.467C56.5886 52.6116 56.6656 52.7855 56.6656 52.9886C56.6656 53.1918 56.5886 53.3656 56.4347 53.5103C56.2839 53.6549 56.1024 53.7273 55.89 53.7273ZM62.8897 59.1009V54.9091H63.9792V62H62.8897V60.7997H62.8159C62.6497 61.1598 62.3912 61.466 62.0403 61.7184C61.6895 61.9677 61.2463 62.0923 60.7108 62.0923C60.2676 62.0923 59.8736 61.9954 59.5289 61.8015C59.1842 61.6045 58.9134 61.3091 58.7164 60.9151C58.5195 60.5181 58.421 60.018 58.421 59.4148V54.9091H59.5105V59.3409C59.5105 59.858 59.6551 60.2704 59.9444 60.5781C60.2368 60.8859 60.6092 61.0398 61.0616 61.0398C61.3324 61.0398 61.6079 60.9705 61.888 60.832C62.1711 60.6935 62.4081 60.4812 62.5989 60.195C62.7928 59.9087 62.8897 59.544 62.8897 59.1009ZM65.9747 62V54.9091H67.0273V56.017H67.1196C67.2673 55.6385 67.5058 55.3446 67.8351 55.1353C68.1644 54.9229 68.5599 54.8168 69.0216 54.8168C69.4894 54.8168 69.8787 54.9229 70.1895 55.1353C70.5035 55.3446 70.7481 55.6385 70.9236 56.017H70.9974C71.179 55.6508 71.4514 55.36 71.8145 55.1445C72.1777 54.926 72.6132 54.8168 73.121 54.8168C73.755 54.8168 74.2736 55.0153 74.6768 55.4123C75.0799 55.8062 75.2815 56.4202 75.2815 57.2543V62H74.192V57.2543C74.192 56.7311 74.0489 56.3571 73.7627 56.1325C73.4765 55.9078 73.1395 55.7955 72.7517 55.7955C72.2531 55.7955 71.8669 55.9463 71.593 56.2479C71.319 56.5464 71.1821 56.925 71.1821 57.3835V62H70.0741V57.1435C70.0741 56.7403 69.9433 56.4156 69.6817 56.1694C69.4201 55.9201 69.0831 55.7955 68.6707 55.7955C68.3876 55.7955 68.1229 55.8709 67.8767 56.0217C67.6336 56.1725 67.4366 56.3817 67.2858 56.6495C67.1381 56.9142 67.0642 57.2204 67.0642 57.5682V62H65.9747Z" fill="#212427"/>
<path d="M0.732422 38V37.6H0.332422V38H0.732422ZM0.732422 38.4H214.703V37.6H0.732422V38.4ZM1.13242 76V38H0.332422V76H1.13242Z" fill="#212427" fill-opacity="0.7" mask="url(#path-4-inside-2_651_1458)"/>
<mask id="path-7-inside-3_651_1458" fill="white">
<path d="M0.732422 76H214.703V114H0.732422V76Z"/>
</mask>
<path d="M0.732422 76H214.703V114H0.732422V76Z" fill="white"/>
<path d="M22.0478 92.9091C21.9924 92.4413 21.7677 92.0781 21.3738 91.8196C20.9798 91.5611 20.4966 91.4318 19.9242 91.4318C19.5056 91.4318 19.1394 91.4995 18.8255 91.6349C18.5146 91.7704 18.2715 91.9566 18.0961 92.1935C17.9237 92.4305 17.8375 92.6998 17.8375 93.0014C17.8375 93.2538 17.8975 93.4708 18.0176 93.6523C18.1407 93.8308 18.2976 93.9801 18.4885 94.1001C18.6793 94.2171 18.8793 94.314 19.0886 94.391C19.2979 94.4648 19.4902 94.5249 19.6657 94.571L20.6259 94.8295C20.8721 94.8942 21.146 94.9834 21.4476 95.0973C21.7523 95.2112 22.0431 95.3666 22.3201 95.5636C22.6002 95.7575 22.831 96.0067 23.0126 96.3114C23.1942 96.6161 23.285 96.9901 23.285 97.4332C23.285 97.9441 23.1511 98.4058 22.8833 98.8182C22.6187 99.2306 22.2309 99.5584 21.72 99.8015C21.2122 100.045 20.5951 100.166 19.8688 100.166C19.1917 100.166 18.6054 100.057 18.1099 99.8384C17.6175 99.6199 17.2297 99.3152 16.9466 98.9244C16.6665 98.5335 16.508 98.0795 16.4711 97.5625H17.6529C17.6837 97.9195 17.8037 98.215 18.013 98.4489C18.2253 98.6797 18.4931 98.852 18.8162 98.9659C19.1425 99.0767 19.4933 99.1321 19.8688 99.1321C20.3058 99.1321 20.6982 99.0613 21.046 98.9197C21.3938 98.7751 21.6692 98.575 21.8723 98.3196C22.0755 98.0611 22.177 97.7595 22.177 97.4148C22.177 97.1009 22.0893 96.8454 21.9139 96.6484C21.7385 96.4515 21.5076 96.2914 21.2214 96.1683C20.9352 96.0452 20.6259 95.9375 20.2935 95.8452L19.1301 95.5128C18.3915 95.3004 17.8068 94.9973 17.3759 94.6033C16.945 94.2094 16.7296 93.6939 16.7296 93.0568C16.7296 92.5275 16.8727 92.0658 17.1589 91.6719C17.4482 91.2749 17.836 90.9671 18.3223 90.7486C18.8116 90.527 19.3579 90.4162 19.9611 90.4162C20.5705 90.4162 21.1122 90.5254 21.5861 90.744C22.0601 90.9594 22.4355 91.2549 22.7125 91.6303C22.9926 92.0058 23.1403 92.4321 23.1557 92.9091H22.0478ZM25.0196 100V92.9091H26.1091V100H25.0196ZM25.5736 91.7273C25.3612 91.7273 25.1781 91.6549 25.0242 91.5103C24.8734 91.3656 24.798 91.1918 24.798 90.9886C24.798 90.7855 24.8734 90.6116 25.0242 90.467C25.1781 90.3223 25.3612 90.25 25.5736 90.25C25.786 90.25 25.9675 90.3223 26.1183 90.467C26.2722 90.6116 26.3492 90.7855 26.3492 90.9886C26.3492 91.1918 26.2722 91.3656 26.1183 91.5103C25.9675 91.6549 25.786 91.7273 25.5736 91.7273ZM29.1941 90.5455V100H28.1046V90.5455H29.1941ZM36.9878 92.9091L34.3657 100H33.2577L30.6356 92.9091H31.8174L33.7748 98.5597H33.8486L35.806 92.9091H36.9878ZM41.145 100.148C40.4617 100.148 39.8724 99.9969 39.3769 99.6953C38.8844 99.3906 38.5044 98.9659 38.2366 98.4212C37.9719 97.8733 37.8396 97.2363 37.8396 96.5099C37.8396 95.7836 37.9719 95.1435 38.2366 94.5895C38.5044 94.0324 38.8767 93.5985 39.3538 93.2876C39.8339 92.9737 40.394 92.8168 41.0342 92.8168C41.4035 92.8168 41.7682 92.8783 42.1283 93.0014C42.4884 93.1245 42.8161 93.3246 43.1116 93.6016C43.407 93.8755 43.6425 94.2386 43.8179 94.6911C43.9933 95.1435 44.0811 95.7005 44.0811 96.3622V96.8239H38.6151V95.8821H42.9731C42.9731 95.482 42.8931 95.125 42.733 94.8111C42.5761 94.4972 42.3514 94.2494 42.059 94.0678C41.7697 93.8862 41.4281 93.7955 41.0342 93.7955C40.6002 93.7955 40.2248 93.9032 39.9078 94.1186C39.5938 94.331 39.3522 94.608 39.183 94.9496C39.0137 95.2912 38.9291 95.6574 38.9291 96.0483V96.6761C38.9291 97.2116 39.0214 97.6656 39.2061 98.038C39.3938 98.4073 39.6539 98.6889 39.9862 98.8828C40.3186 99.0736 40.7049 99.169 41.145 99.169C41.4312 99.169 41.6897 99.129 41.9205 99.049C42.1544 98.9659 42.356 98.8428 42.5253 98.6797C42.6946 98.5135 42.8254 98.3073 42.9177 98.0611L43.9703 98.3565C43.8595 98.7135 43.6733 99.0275 43.4117 99.2983C43.1501 99.5661 42.8269 99.7753 42.4422 99.9261C42.0575 100.074 41.6251 100.148 41.145 100.148ZM45.7384 100V92.9091H46.7909V93.9801H46.8648C46.9941 93.6293 47.228 93.3446 47.5665 93.1261C47.905 92.9076 48.2867 92.7983 48.7114 92.7983C48.7914 92.7983 48.8914 92.7998 49.0115 92.8029C49.1315 92.806 49.2223 92.8106 49.2838 92.8168V93.9247C49.2469 93.9155 49.1623 93.9016 49.0299 93.8832C48.9007 93.8616 48.7637 93.8509 48.6191 93.8509C48.2744 93.8509 47.9666 93.9232 47.6958 94.0678C47.428 94.2094 47.2156 94.4064 47.0587 94.6587C46.9048 94.908 46.8279 95.1927 46.8279 95.5128V100H45.7384Z" fill="#212427"/>
<path d="M0.732422 76V75.6H0.332422V76H0.732422ZM0.732422 76.4H214.703V75.6H0.732422V76.4ZM1.13242 114V76H0.332422V114H1.13242Z" fill="#212427" fill-opacity="0.7" mask="url(#path-7-inside-3_651_1458)"/>
<mask id="path-10-inside-4_651_1458" fill="white">
<path d="M0.732422 114H214.703V152H0.732422V114Z"/>
</mask>
<path d="M0.732422 114H214.703V152H0.732422V114Z" fill="white"/>
<path d="M23.3404 131.5C23.2388 131.189 23.1049 130.911 22.9387 130.664C22.7756 130.415 22.5802 130.203 22.3525 130.027C22.1278 129.852 21.8723 129.718 21.5861 129.626C21.2999 129.533 20.986 129.487 20.6444 129.487C20.0842 129.487 19.5749 129.632 19.1163 129.921C18.6577 130.21 18.293 130.637 18.0222 131.2C17.7514 131.763 17.6159 132.454 17.6159 133.273C17.6159 134.091 17.7529 134.782 18.0268 135.346C18.3007 135.909 18.6716 136.335 19.1394 136.624C19.6072 136.914 20.1335 137.058 20.7182 137.058C21.2599 137.058 21.7369 136.943 22.1493 136.712C22.5648 136.478 22.888 136.149 23.1188 135.724C23.3527 135.296 23.4696 134.793 23.4696 134.214L23.8205 134.288H20.9767V133.273H24.5776V134.288C24.5776 135.067 24.4114 135.744 24.079 136.32C23.7497 136.895 23.2942 137.341 22.7125 137.658C22.1339 137.972 21.4692 138.129 20.7182 138.129C19.8811 138.129 19.1455 137.932 18.5115 137.538C17.8806 137.144 17.3882 136.584 17.0343 135.858C16.6834 135.132 16.508 134.27 16.508 133.273C16.508 132.525 16.608 131.852 16.8081 131.255C17.0112 130.655 17.2974 130.144 17.6667 129.723C18.036 129.301 18.4731 128.978 18.9778 128.753C19.4825 128.529 20.0381 128.416 20.6444 128.416C21.1429 128.416 21.6077 128.492 22.0385 128.642C22.4725 128.79 22.8587 129.001 23.1973 129.275C23.5389 129.546 23.8236 129.87 24.0513 130.249C24.2791 130.624 24.436 131.041 24.5222 131.5H23.3404ZM29.2714 138.148C28.6312 138.148 28.0696 137.995 27.5864 137.691C27.1063 137.386 26.7308 136.96 26.46 136.412C26.1922 135.864 26.0583 135.224 26.0583 134.491C26.0583 133.753 26.1922 133.108 26.46 132.557C26.7308 132.006 27.1063 131.578 27.5864 131.274C28.0696 130.969 28.6312 130.817 29.2714 130.817C29.9115 130.817 30.4717 130.969 30.9518 131.274C31.435 131.578 31.8105 132.006 32.0782 132.557C32.349 133.108 32.4845 133.753 32.4845 134.491C32.4845 135.224 32.349 135.864 32.0782 136.412C31.8105 136.96 31.435 137.386 30.9518 137.691C30.4717 137.995 29.9115 138.148 29.2714 138.148ZM29.2714 137.169C29.7577 137.169 30.1578 137.044 30.4717 136.795C30.7856 136.546 31.018 136.218 31.1688 135.812C31.3196 135.406 31.395 134.965 31.395 134.491C31.395 134.018 31.3196 133.576 31.1688 133.167C31.018 132.757 30.7856 132.426 30.4717 132.174C30.1578 131.922 29.7577 131.795 29.2714 131.795C28.7851 131.795 28.385 131.922 28.0711 132.174C27.7572 132.426 27.5248 132.757 27.374 133.167C27.2232 133.576 27.1478 134.018 27.1478 134.491C27.1478 134.965 27.2232 135.406 27.374 135.812C27.5248 136.218 27.7572 136.546 28.0711 136.795C28.385 137.044 28.7851 137.169 29.2714 137.169ZM35.237 128.545V138H34.1475V128.545H35.237ZM39.9101 138.148C39.3192 138.148 38.7975 137.998 38.3451 137.7C37.8927 137.398 37.5387 136.974 37.2833 136.426C37.0278 135.875 36.9001 135.224 36.9001 134.473C36.9001 133.728 37.0278 133.082 37.2833 132.534C37.5387 131.986 37.8942 131.563 38.3497 131.265C38.8052 130.966 39.3315 130.817 39.9285 130.817C40.3902 130.817 40.7549 130.894 41.0226 131.048C41.2935 131.198 41.4997 131.371 41.6412 131.565C41.7859 131.755 41.8982 131.912 41.9782 132.036H42.0706V128.545H43.1601V138H42.1075V136.911H41.9782C41.8982 137.04 41.7844 137.203 41.6366 137.4C41.4889 137.594 41.2781 137.768 41.0042 137.922C40.7303 138.072 40.3656 138.148 39.9101 138.148ZM40.0578 137.169C40.4948 137.169 40.8641 137.055 41.1657 136.827C41.4674 136.597 41.6966 136.278 41.8536 135.872C42.0106 135.462 42.089 134.99 42.089 134.455C42.089 133.925 42.0121 133.462 41.8582 133.065C41.7043 132.665 41.4766 132.354 41.175 132.132C40.8734 131.908 40.501 131.795 40.0578 131.795C39.5961 131.795 39.2114 131.914 38.9037 132.151C38.599 132.385 38.3697 132.703 38.2158 133.107C38.065 133.507 37.9896 133.956 37.9896 134.455C37.9896 134.959 38.0666 135.418 38.2204 135.83C38.3774 136.24 38.6082 136.566 38.9129 136.809C39.2207 137.049 39.6023 137.169 40.0578 137.169Z" fill="#212427"/>
<path d="M0.732422 114V113.6H0.332422V114H0.732422ZM0.732422 114.4H214.703V113.6H0.732422V114.4ZM1.13242 152V114H0.332422V152H1.13242Z" fill="#212427" fill-opacity="0.7" mask="url(#path-10-inside-4_651_1458)"/>
<mask id="path-13-inside-5_651_1458" fill="white">
<path d="M0.732422 152H214.703V190H0.732422V152Z"/>
</mask>
<path d="M0.732422 152H214.703V190H0.732422V152Z" fill="white"/>
<path d="M16.8773 176V166.545H20.0719C20.8136 166.545 21.4199 166.679 21.8908 166.947C22.3648 167.212 22.7156 167.57 22.9434 168.023C23.1711 168.475 23.285 168.98 23.285 169.537C23.285 170.094 23.1711 170.6 22.9434 171.056C22.7187 171.511 22.3709 171.874 21.9 172.145C21.4292 172.413 20.8259 172.547 20.0904 172.547H17.8006V171.531H20.0534C20.5613 171.531 20.969 171.444 21.2768 171.268C21.5846 171.093 21.8077 170.856 21.9462 170.557C22.0878 170.256 22.1586 169.915 22.1586 169.537C22.1586 169.158 22.0878 168.82 21.9462 168.521C21.8077 168.223 21.583 167.989 21.2722 167.82C20.9614 167.647 20.5489 167.561 20.035 167.561H18.0222V176H16.8773ZM26.071 166.545V176H24.9815V166.545H26.071ZM30.1531 176.166C29.7038 176.166 29.296 176.082 28.9298 175.912C28.5635 175.74 28.2727 175.492 28.0573 175.169C27.8418 174.843 27.7341 174.449 27.7341 173.987C27.7341 173.581 27.8141 173.252 27.9742 172.999C28.1342 172.744 28.3481 172.544 28.6159 172.399C28.8836 172.254 29.1791 172.147 29.5022 172.076C29.8285 172.002 30.1562 171.944 30.4855 171.901C30.9164 171.845 31.2657 171.804 31.5335 171.776C31.8043 171.745 32.0013 171.694 32.1244 171.624C32.2506 171.553 32.3137 171.43 32.3137 171.254V171.217C32.3137 170.762 32.189 170.408 31.9397 170.156C31.6935 169.903 31.3196 169.777 30.8179 169.777C30.2978 169.777 29.89 169.891 29.5945 170.119C29.2991 170.346 29.0914 170.589 28.9713 170.848L27.9372 170.479C28.1219 170.048 28.3681 169.712 28.6759 169.472C28.9867 169.229 29.3253 169.06 29.6915 168.964C30.0608 168.866 30.424 168.817 30.781 168.817C31.0087 168.817 31.2703 168.844 31.5658 168.9C31.8643 168.952 32.1521 169.061 32.4291 169.228C32.7091 169.394 32.9415 169.645 33.1262 169.98C33.3108 170.316 33.4031 170.765 33.4031 171.328V176H32.3137V175.04H32.2583C32.1844 175.194 32.0613 175.358 31.8889 175.534C31.7166 175.709 31.4873 175.858 31.2011 175.982C30.9149 176.105 30.5655 176.166 30.1531 176.166ZM30.3193 175.188C30.7502 175.188 31.1134 175.103 31.4088 174.934C31.7074 174.764 31.932 174.546 32.0828 174.278C32.2367 174.01 32.3137 173.729 32.3137 173.433V172.436C32.2675 172.491 32.1659 172.542 32.009 172.588C31.8551 172.632 31.6766 172.67 31.4735 172.704C31.2734 172.735 31.078 172.762 30.8872 172.787C30.6994 172.808 30.5471 172.827 30.4301 172.842C30.147 172.879 29.8823 172.939 29.6361 173.022C29.393 173.102 29.196 173.224 29.0452 173.387C28.8975 173.547 28.8236 173.766 28.8236 174.043C28.8236 174.421 28.9636 174.707 29.2437 174.901C29.5268 175.092 29.8854 175.188 30.3193 175.188ZM38.4755 168.909V169.832H34.8008V168.909H38.4755ZM35.8718 167.21H36.9613V173.969C36.9613 174.277 37.0059 174.507 37.0952 174.661C37.1875 174.812 37.3045 174.914 37.446 174.966C37.5907 175.015 37.743 175.04 37.9031 175.04C38.0231 175.04 38.1216 175.034 38.1985 175.021C38.2755 175.006 38.337 174.994 38.3832 174.984L38.6048 175.963C38.5309 175.991 38.4278 176.018 38.2955 176.046C38.1631 176.077 37.9954 176.092 37.7923 176.092C37.4845 176.092 37.1829 176.026 36.8874 175.894C36.5951 175.761 36.3519 175.56 36.158 175.289C35.9672 175.018 35.8718 174.677 35.8718 174.264V167.21ZM40.1143 176V168.909H41.2038V176H40.1143ZM40.6683 167.727C40.456 167.727 40.2728 167.655 40.119 167.51C39.9682 167.366 39.8928 167.192 39.8928 166.989C39.8928 166.786 39.9682 166.612 40.119 166.467C40.2728 166.322 40.456 166.25 40.6683 166.25C40.8807 166.25 41.0623 166.322 41.2131 166.467C41.367 166.612 41.4439 166.786 41.4439 166.989C41.4439 167.192 41.367 167.366 41.2131 167.51C41.0623 167.655 40.8807 167.727 40.6683 167.727ZM44.2888 171.734V176H43.1993V168.909H44.2519V170.017H44.3442C44.5104 169.657 44.7628 169.368 45.1013 169.149C45.4398 168.928 45.8769 168.817 46.4124 168.817C46.8925 168.817 47.3126 168.915 47.6727 169.112C48.0328 169.306 48.3128 169.602 48.5129 169.999C48.7129 170.393 48.8129 170.891 48.8129 171.494V176H47.7235V171.568C47.7235 171.011 47.5788 170.577 47.2895 170.266C47.0002 169.952 46.6032 169.795 46.0985 169.795C45.7507 169.795 45.4398 169.871 45.1659 170.022C44.8951 170.172 44.6812 170.393 44.5242 170.682C44.3673 170.971 44.2888 171.322 44.2888 171.734ZM55.2725 173.101V168.909H56.362V176H55.2725V174.8H55.1987C55.0325 175.16 54.774 175.466 54.4231 175.718C54.0723 175.968 53.6291 176.092 53.0936 176.092C52.6504 176.092 52.2565 175.995 51.9118 175.801C51.5671 175.605 51.2962 175.309 51.0993 174.915C50.9023 174.518 50.8038 174.018 50.8038 173.415V168.909H51.8933V173.341C51.8933 173.858 52.0379 174.27 52.3272 174.578C52.6196 174.886 52.992 175.04 53.4444 175.04C53.7153 175.04 53.9907 174.971 54.2708 174.832C54.5539 174.694 54.7909 174.481 54.9817 174.195C55.1756 173.909 55.2725 173.544 55.2725 173.101ZM58.3575 176V168.909H59.4101V170.017H59.5024C59.6501 169.638 59.8886 169.345 60.218 169.135C60.5473 168.923 60.9427 168.817 61.4044 168.817C61.8722 168.817 62.2615 168.923 62.5724 169.135C62.8863 169.345 63.1309 169.638 63.3064 170.017H63.3802C63.5618 169.651 63.8342 169.36 64.1974 169.145C64.5605 168.926 64.996 168.817 65.5038 168.817C66.1378 168.817 66.6564 169.015 67.0596 169.412C67.4627 169.806 67.6643 170.42 67.6643 171.254V176H66.5748V171.254C66.5748 170.731 66.4317 170.357 66.1455 170.132C65.8593 169.908 65.5223 169.795 65.1345 169.795C64.6359 169.795 64.2497 169.946 63.9758 170.248C63.7019 170.546 63.5649 170.925 63.5649 171.384V176H62.4569V171.143C62.4569 170.74 62.3261 170.416 62.0645 170.169C61.8029 169.92 61.4659 169.795 61.0535 169.795C60.7704 169.795 60.5057 169.871 60.2595 170.022C60.0164 170.172 59.8194 170.382 59.6686 170.65C59.5209 170.914 59.447 171.22 59.447 171.568V176H58.3575Z" fill="#212427"/>
<path d="M0.732422 152V151.6H0.332422V152H0.732422ZM0.732422 190H0.332422V190.4H0.732422V190ZM0.732422 152.4H214.703V151.6H0.732422V152.4ZM214.703 189.6H0.732422V190.4H214.703V189.6ZM1.13242 190V152H0.332422V190H1.13242Z" fill="#212427" fill-opacity="0.7" mask="url(#path-13-inside-5_651_1458)"/>
<mask id="path-16-inside-6_651_1458" fill="white">
<path d="M214.701 0H434.403V38H214.701V0Z"/>
</mask>
<path d="M214.701 0H434.403V38H214.701V0Z" fill="white"/>
<path d="M288.593 17.62H287.152C287.097 17.3123 286.994 17.0414 286.843 16.8075C286.692 16.5736 286.507 16.3751 286.289 16.212C286.07 16.0489 285.826 15.9258 285.555 15.8427C285.287 15.7596 285.002 15.718 284.701 15.718C284.156 15.718 283.668 15.855 283.237 16.1289C282.81 16.4028 282.471 16.8045 282.222 17.3338C281.976 17.8632 281.852 18.5095 281.852 19.2727C281.852 20.0421 281.976 20.6915 282.222 21.2209C282.471 21.7502 282.811 22.1503 283.242 22.4212C283.673 22.692 284.158 22.8274 284.696 22.8274C284.995 22.8274 285.278 22.7874 285.546 22.7074C285.816 22.6243 286.061 22.5027 286.28 22.3427C286.498 22.1826 286.683 21.9872 286.834 21.7564C286.988 21.5225 287.094 21.2547 287.152 20.9531L288.593 20.9577C288.516 21.4225 288.366 21.8503 288.145 22.2411C287.926 22.6289 287.645 22.9644 287.3 23.2475C286.958 23.5276 286.567 23.7446 286.127 23.8984C285.687 24.0523 285.207 24.1293 284.687 24.1293C283.868 24.1293 283.139 23.9354 282.499 23.5476C281.859 23.1567 281.354 22.5981 280.985 21.8718C280.618 21.1455 280.435 20.2791 280.435 19.2727C280.435 18.2633 280.62 17.3969 280.989 16.6737C281.358 15.9473 281.863 15.3903 282.503 15.0025C283.144 14.6116 283.871 14.4162 284.687 14.4162C285.189 14.4162 285.656 14.4885 286.09 14.6332C286.527 14.7747 286.92 14.984 287.268 15.261C287.615 15.5349 287.903 15.8704 288.131 16.2674C288.359 16.6613 288.512 17.1122 288.593 17.62ZM291.569 19.7898V24H290.189V14.5455H291.551V18.0632H291.638C291.804 17.6816 292.058 17.3784 292.4 17.1538C292.742 16.9291 293.188 16.8168 293.739 16.8168C294.225 16.8168 294.65 16.9168 295.013 17.1168C295.379 17.3169 295.662 17.6154 295.862 18.0124C296.065 18.4064 296.167 18.8988 296.167 19.4897V24H294.787V19.6559C294.787 19.1358 294.653 18.7326 294.385 18.4464C294.117 18.1571 293.745 18.0124 293.268 18.0124C292.942 18.0124 292.649 18.0817 292.391 18.2202C292.135 18.3587 291.934 18.5618 291.786 18.8295C291.641 19.0942 291.569 19.4143 291.569 19.7898ZM300.073 24.157C299.623 24.157 299.217 24.0739 298.854 23.9077C298.491 23.7384 298.203 23.4937 297.991 23.1737C297.781 22.8536 297.677 22.4612 297.677 21.9964C297.677 21.5964 297.754 21.267 297.907 21.0085C298.061 20.75 298.269 20.5453 298.531 20.3945C298.792 20.2437 299.085 20.1299 299.408 20.0529C299.731 19.976 300.06 19.9175 300.396 19.8775C300.82 19.8282 301.165 19.7882 301.43 19.7575C301.694 19.7236 301.887 19.6697 302.007 19.5959C302.127 19.522 302.187 19.402 302.187 19.2358V19.2035C302.187 18.8003 302.073 18.4879 301.845 18.2663C301.621 18.0447 301.285 17.9339 300.839 17.9339C300.374 17.9339 300.008 18.037 299.74 18.2433C299.475 18.4464 299.292 18.6726 299.191 18.9219L297.894 18.6264C298.047 18.1955 298.272 17.8478 298.568 17.5831C298.866 17.3153 299.209 17.1214 299.597 17.0014C299.985 16.8783 300.393 16.8168 300.82 16.8168C301.104 16.8168 301.404 16.8506 301.721 16.9183C302.041 16.983 302.339 17.103 302.616 17.2784C302.896 17.4538 303.126 17.7047 303.304 18.0309C303.483 18.354 303.572 18.7741 303.572 19.2912V24H302.224V23.0305H302.168C302.079 23.209 301.945 23.3845 301.767 23.5568C301.588 23.7292 301.359 23.8723 301.079 23.9862C300.799 24.1 300.463 24.157 300.073 24.157ZM300.373 23.049C300.754 23.049 301.08 22.9736 301.351 22.8228C301.625 22.672 301.833 22.475 301.975 22.2319C302.119 21.9857 302.191 21.7225 302.191 21.4425V20.5284C302.142 20.5777 302.047 20.6238 301.905 20.6669C301.767 20.7069 301.608 20.7423 301.43 20.7731C301.251 20.8008 301.077 20.8269 300.908 20.8516C300.739 20.8731 300.597 20.8916 300.483 20.907C300.216 20.9408 299.971 20.9978 299.749 21.0778C299.531 21.1578 299.355 21.2732 299.223 21.424C299.094 21.5717 299.029 21.7687 299.029 22.0149C299.029 22.3565 299.155 22.6151 299.408 22.7905C299.66 22.9628 299.982 23.049 300.373 23.049ZM308.72 16.9091V18.017H304.847V16.9091H308.72ZM305.886 15.2102H307.266V21.918C307.266 22.1857 307.306 22.3873 307.386 22.5227C307.466 22.6551 307.569 22.7459 307.695 22.7951C307.825 22.8413 307.965 22.8643 308.116 22.8643C308.226 22.8643 308.323 22.8567 308.406 22.8413C308.49 22.8259 308.554 22.8136 308.6 22.8043L308.85 23.9446C308.77 23.9754 308.656 24.0062 308.508 24.0369C308.36 24.0708 308.176 24.0893 307.954 24.0923C307.591 24.0985 307.252 24.0339 306.938 23.8984C306.624 23.763 306.371 23.5537 306.177 23.2706C305.983 22.9875 305.886 22.632 305.886 22.2042V15.2102ZM315.447 18.6403L314.195 18.8619C314.143 18.7018 314.06 18.5495 313.946 18.4048C313.835 18.2602 313.685 18.1417 313.494 18.0494C313.303 17.957 313.064 17.9109 312.778 17.9109C312.387 17.9109 312.061 17.9986 311.8 18.174C311.538 18.3464 311.407 18.5695 311.407 18.8434C311.407 19.0804 311.495 19.2712 311.67 19.4158C311.846 19.5605 312.129 19.679 312.52 19.7713L313.646 20.0298C314.299 20.1806 314.785 20.413 315.105 20.7269C315.425 21.0408 315.585 21.4486 315.585 21.9503C315.585 22.375 315.462 22.7536 315.216 23.0859C314.973 23.4152 314.633 23.6738 314.195 23.8615C313.762 24.0492 313.258 24.1431 312.686 24.1431C311.892 24.1431 311.244 23.9738 310.742 23.6353C310.241 23.2937 309.933 22.8089 309.819 22.1811L311.153 21.978C311.236 22.3258 311.407 22.5889 311.666 22.7674C311.924 22.9428 312.261 23.0305 312.677 23.0305C313.129 23.0305 313.491 22.9367 313.762 22.7489C314.032 22.5581 314.168 22.3258 314.168 22.0518C314.168 21.8303 314.085 21.6441 313.919 21.4933C313.755 21.3424 313.505 21.2286 313.166 21.1516L311.966 20.8885C311.304 20.7377 310.815 20.4976 310.498 20.1683C310.184 19.839 310.027 19.422 310.027 18.9173C310.027 18.4987 310.144 18.1325 310.378 17.8185C310.612 17.5046 310.935 17.2599 311.347 17.0845C311.76 16.906 312.232 16.8168 312.764 16.8168C313.531 16.8168 314.134 16.983 314.574 17.3153C315.014 17.6446 315.305 18.0863 315.447 18.6403ZM320.654 24V14.5455H324.024C324.76 14.5455 325.369 14.6793 325.852 14.9471C326.335 15.2148 326.697 15.5811 326.937 16.0458C327.177 16.5075 327.297 17.0276 327.297 17.6062C327.297 18.1879 327.175 18.7111 326.932 19.1758C326.692 19.6374 326.329 20.0037 325.843 20.2745C325.36 20.5423 324.752 20.6761 324.019 20.6761H321.702V19.4666H323.89C324.355 19.4666 324.732 19.3866 325.021 19.2266C325.31 19.0634 325.523 18.8419 325.658 18.5618C325.794 18.2817 325.861 17.9632 325.861 17.6062C325.861 17.2492 325.794 16.9322 325.658 16.6552C325.523 16.3782 325.309 16.1612 325.017 16.0043C324.727 15.8473 324.346 15.7688 323.872 15.7688H322.08V24H320.654ZM331.826 24.1431C331.127 24.1431 330.526 23.9938 330.021 23.6953C329.519 23.3937 329.131 22.9705 328.857 22.4258C328.587 21.878 328.451 21.2363 328.451 20.5007C328.451 19.7744 328.587 19.1342 328.857 18.5803C329.131 18.0263 329.513 17.5939 330.002 17.283C330.495 16.9722 331.07 16.8168 331.729 16.8168C332.129 16.8168 332.517 16.8829 332.892 17.0153C333.268 17.1476 333.605 17.3554 333.903 17.6385C334.202 17.9216 334.437 18.2894 334.61 18.7418C334.782 19.1912 334.868 19.7375 334.868 20.3807V20.87H329.231V19.8359H333.515C333.515 19.4728 333.442 19.1512 333.294 18.8711C333.146 18.5879 332.938 18.3648 332.671 18.2017C332.406 18.0386 332.095 17.957 331.738 17.957C331.35 17.957 331.012 18.0524 330.722 18.2433C330.436 18.431 330.215 18.6772 330.058 18.9819C329.904 19.2835 329.827 19.6113 329.827 19.9652V20.7731C329.827 21.247 329.91 21.6502 330.076 21.9826C330.245 22.315 330.481 22.5689 330.782 22.7443C331.084 22.9167 331.436 23.0028 331.84 23.0028C332.101 23.0028 332.34 22.9659 332.555 22.892C332.771 22.8151 332.957 22.7012 333.114 22.5504C333.271 22.3996 333.391 22.2134 333.474 21.9918L334.78 22.2273C334.676 22.612 334.488 22.949 334.217 23.2383C333.949 23.5245 333.612 23.7476 333.206 23.9077C332.803 24.0646 332.343 24.1431 331.826 24.1431ZM336.4 24V16.9091H337.734V18.0355H337.808C337.937 17.6539 338.165 17.3538 338.491 17.1353C338.82 16.9137 339.193 16.8029 339.608 16.8029C339.694 16.8029 339.796 16.806 339.913 16.8121C340.033 16.8183 340.127 16.826 340.194 16.8352V18.1555C340.139 18.1402 340.04 18.1232 339.899 18.1048C339.757 18.0832 339.616 18.0724 339.474 18.0724C339.148 18.0724 338.857 18.1417 338.602 18.2802C338.349 18.4156 338.149 18.6049 338.002 18.848C337.854 19.0881 337.78 19.362 337.78 19.6697V24H336.4ZM348.001 24H344.94V14.5455H348.098C349.024 14.5455 349.82 14.7347 350.484 15.1133C351.149 15.4888 351.659 16.0289 352.013 16.7337C352.37 17.4354 352.548 18.2771 352.548 19.2589C352.548 20.2437 352.368 21.0901 352.008 21.7979C351.651 22.5058 351.134 23.0505 350.457 23.4322C349.78 23.8107 348.961 24 348.001 24ZM346.367 22.7536H347.922C348.642 22.7536 349.241 22.6181 349.718 22.3473C350.195 22.0734 350.552 21.6779 350.789 21.1609C351.026 20.6407 351.145 20.0067 351.145 19.2589C351.145 18.5172 351.026 17.8878 350.789 17.3707C350.555 16.8537 350.206 16.4613 349.741 16.1935C349.276 15.9258 348.699 15.7919 348.01 15.7919H346.367V22.7536ZM356.275 24.157C355.825 24.157 355.419 24.0739 355.056 23.9077C354.693 23.7384 354.405 23.4937 354.193 23.1737C353.983 22.8536 353.879 22.4612 353.879 21.9964C353.879 21.5964 353.956 21.267 354.11 21.0085C354.263 20.75 354.471 20.5453 354.733 20.3945C354.994 20.2437 355.287 20.1299 355.61 20.0529C355.933 19.976 356.262 19.9175 356.598 19.8775C357.023 19.8282 357.367 19.7882 357.632 19.7575C357.897 19.7236 358.089 19.6697 358.209 19.5959C358.329 19.522 358.389 19.402 358.389 19.2358V19.2035C358.389 18.8003 358.275 18.4879 358.047 18.2663C357.823 18.0447 357.487 17.9339 357.041 17.9339C356.576 17.9339 356.21 18.037 355.942 18.2433C355.678 18.4464 355.494 18.6726 355.393 18.9219L354.096 18.6264C354.25 18.1955 354.474 17.8478 354.77 17.5831C355.068 17.3153 355.411 17.1214 355.799 17.0014C356.187 16.8783 356.595 16.8168 357.023 16.8168C357.306 16.8168 357.606 16.8506 357.923 16.9183C358.243 16.983 358.541 17.103 358.818 17.2784C359.098 17.4538 359.328 17.7047 359.506 18.0309C359.685 18.354 359.774 18.7741 359.774 19.2912V24H358.426V23.0305H358.371C358.281 23.209 358.147 23.3845 357.969 23.5568C357.79 23.7292 357.561 23.8723 357.281 23.9862C357.001 24.1 356.666 24.157 356.275 24.157ZM356.575 23.049C356.956 23.049 357.283 22.9736 357.553 22.8228C357.827 22.672 358.035 22.475 358.177 22.2319C358.321 21.9857 358.394 21.7225 358.394 21.4425V20.5284C358.344 20.5777 358.249 20.6238 358.107 20.6669C357.969 20.7069 357.81 20.7423 357.632 20.7731C357.453 20.8008 357.28 20.8269 357.11 20.8516C356.941 20.8731 356.799 20.8916 356.686 20.907C356.418 20.9408 356.173 20.9978 355.952 21.0778C355.733 21.1578 355.558 21.2732 355.425 21.424C355.296 21.5717 355.231 21.7687 355.231 22.0149C355.231 22.3565 355.358 22.6151 355.61 22.7905C355.862 22.9628 356.184 23.049 356.575 23.049ZM362.231 26.6591C362.025 26.6591 361.837 26.6422 361.668 26.6083C361.499 26.5775 361.372 26.5437 361.289 26.5067L361.622 25.3757C361.874 25.4434 362.099 25.4727 362.296 25.4634C362.493 25.4542 362.667 25.3803 362.817 25.2418C362.971 25.1033 363.107 24.8771 363.224 24.5632L363.394 24.0923L360.8 16.9091H362.277L364.073 22.4119H364.147L365.943 16.9091H367.425L364.502 24.9464C364.367 25.3157 364.195 25.6281 363.985 25.8835C363.776 26.142 363.527 26.3359 363.237 26.4652C362.948 26.5945 362.613 26.6591 362.231 26.6591Z" fill="#212427"/>
<path d="M214.701 0V-0.4H214.301V0H214.701ZM214.701 0.4H434.403V-0.4H214.701V0.4ZM215.101 38V0H214.301V38H215.101Z" fill="#212427" fill-opacity="0.7" mask="url(#path-16-inside-6_651_1458)"/>
<mask id="path-19-inside-7_651_1458" fill="white">
<path d="M214.701 38H434.403V76H214.701V38Z"/>
</mask>
<path d="M214.701 38H434.403V76H214.701V38Z" fill="white"/>
<path d="M319.764 62.1293C319.068 62.1293 318.476 61.94 317.986 61.5614C317.497 61.1798 317.123 60.6274 316.865 59.9041C316.606 59.1778 316.477 58.3007 316.477 57.2727C316.477 56.2509 316.606 55.3784 316.865 54.6552C317.126 53.9289 317.502 53.3749 317.991 52.9933C318.483 52.6085 319.074 52.4162 319.764 52.4162C320.453 52.4162 321.042 52.6085 321.532 52.9933C322.024 53.3749 322.4 53.9289 322.658 54.6552C322.92 55.3784 323.051 56.2509 323.051 57.2727C323.051 58.3007 322.921 59.1778 322.663 59.9041C322.404 60.6274 322.03 61.1798 321.541 61.5614C321.052 61.94 320.459 62.1293 319.764 62.1293ZM319.764 61.1136C320.453 61.1136 320.989 60.7812 321.37 60.1165C321.752 59.4517 321.943 58.5038 321.943 57.2727C321.943 56.4541 321.855 55.757 321.68 55.1815C321.507 54.6059 321.258 54.1674 320.932 53.8658C320.608 53.5642 320.219 53.4134 319.764 53.4134C319.08 53.4134 318.546 53.7504 318.162 54.4244C317.777 55.0953 317.585 56.0447 317.585 57.2727C317.585 58.0914 317.671 58.7869 317.843 59.3594C318.016 59.9318 318.263 60.3673 318.586 60.6658C318.913 60.9644 319.305 61.1136 319.764 61.1136ZM324.583 60.0611V59.1193L328.738 52.5455H329.421V54.0043H328.96L325.82 58.9716V59.0455H331.416V60.0611H324.583ZM329.034 62V59.7749V59.3363V52.5455H330.123V62H329.034Z" fill="#212427"/>
<path d="M214.701 38V37.6H214.301V38H214.701ZM214.701 38.4H434.403V37.6H214.701V38.4ZM215.101 76V38H214.301V76H215.101Z" fill="#212427" fill-opacity="0.7" mask="url(#path-19-inside-7_651_1458)"/>
<mask id="path-22-inside-8_651_1458" fill="white">
<path d="M214.701 76H434.403V114H214.701V76Z"/>
</mask>
<path d="M214.701 76H434.403V114H214.701V76Z" fill="white"/>
<path d="M317.68 100V99.169L320.801 95.7528C321.167 95.3527 321.468 95.005 321.705 94.7095C321.942 94.411 322.118 94.1309 322.232 93.8693C322.349 93.6046 322.407 93.3277 322.407 93.0384C322.407 92.706 322.327 92.4182 322.167 92.1751C322.01 91.9319 321.795 91.7442 321.521 91.6119C321.247 91.4795 320.939 91.4134 320.597 91.4134C320.234 91.4134 319.917 91.4888 319.646 91.6396C319.379 91.7873 319.171 91.995 319.023 92.2628C318.879 92.5305 318.806 92.8445 318.806 93.2045H317.717C317.717 92.6506 317.845 92.1643 318.1 91.7457C318.355 91.3272 318.703 91.0009 319.143 90.767C319.586 90.5331 320.084 90.4162 320.634 90.4162C321.188 90.4162 321.679 90.5331 322.107 90.767C322.535 91.0009 322.87 91.3164 323.113 91.7134C323.357 92.1104 323.478 92.5521 323.478 93.0384C323.478 93.3861 323.415 93.7262 323.289 94.0586C323.166 94.3879 322.95 94.7557 322.643 95.1619C322.338 95.5651 321.915 96.0575 321.373 96.6392L319.249 98.9105V98.9844H323.644V100H317.68ZM328.635 100.129C327.939 100.129 327.347 99.94 326.857 99.5614C326.368 99.1798 325.994 98.6274 325.736 97.9041C325.477 97.1778 325.348 96.3007 325.348 95.2727C325.348 94.2509 325.477 93.3784 325.736 92.6552C325.997 91.9289 326.373 91.3749 326.862 90.9933C327.354 90.6085 327.945 90.4162 328.635 90.4162C329.324 90.4162 329.914 90.6085 330.403 90.9933C330.895 91.3749 331.271 91.9289 331.529 92.6552C331.791 93.3784 331.922 94.2509 331.922 95.2727C331.922 96.3007 331.792 97.1778 331.534 97.9041C331.275 98.6274 330.901 99.1798 330.412 99.5614C329.923 99.94 329.33 100.129 328.635 100.129ZM328.635 99.1136C329.324 99.1136 329.86 98.7812 330.241 98.1165C330.623 97.4517 330.814 96.5038 330.814 95.2727C330.814 94.4541 330.726 93.757 330.551 93.1815C330.378 92.6059 330.129 92.1674 329.803 91.8658C329.48 91.5642 329.09 91.4134 328.635 91.4134C327.952 91.4134 327.418 91.7504 327.033 92.4244C326.648 93.0953 326.456 94.0447 326.456 95.2727C326.456 96.0914 326.542 96.7869 326.714 97.3594C326.887 97.9318 327.134 98.3673 327.458 98.6658C327.784 98.9644 328.176 99.1136 328.635 99.1136Z" fill="#212427"/>
<path d="M214.701 76V75.6H214.301V76H214.701ZM214.701 76.4H434.403V75.6H214.701V76.4ZM215.101 114V76H214.301V114H215.101Z" fill="#212427" fill-opacity="0.7" mask="url(#path-22-inside-8_651_1458)"/>
<mask id="path-25-inside-9_651_1458" fill="white">
<path d="M214.701 114H434.403V152H214.701V114Z"/>
</mask>
<path d="M214.701 114H434.403V152H214.701V114Z" fill="white"/>
<path d="M316.458 136.061V135.119L320.613 128.545H321.296V130.004H320.835L317.695 134.972V135.045H323.291V136.061H316.458ZM320.909 138V135.775V135.336V128.545H321.998V138H320.909ZM327.975 138.129C327.434 138.129 326.946 138.022 326.512 137.806C326.078 137.591 325.73 137.295 325.468 136.92C325.207 136.544 325.064 136.116 325.039 135.636H326.147C326.19 136.064 326.384 136.418 326.729 136.698C327.077 136.975 327.492 137.114 327.975 137.114C328.363 137.114 328.708 137.023 329.009 136.841C329.314 136.66 329.553 136.41 329.725 136.093C329.9 135.773 329.988 135.412 329.988 135.009C329.988 134.596 329.897 134.228 329.716 133.905C329.537 133.579 329.291 133.322 328.977 133.134C328.663 132.946 328.305 132.851 327.901 132.848C327.612 132.845 327.315 132.89 327.01 132.982C326.706 133.071 326.455 133.187 326.258 133.328L325.187 133.199L325.759 128.545H330.671V129.561H326.72L326.387 132.349H326.443C326.636 132.196 326.88 132.068 327.172 131.966C327.464 131.865 327.769 131.814 328.086 131.814C328.665 131.814 329.18 131.952 329.633 132.229C330.088 132.503 330.445 132.879 330.704 133.356C330.965 133.833 331.096 134.378 331.096 134.99C331.096 135.593 330.961 136.132 330.69 136.606C330.422 137.077 330.053 137.449 329.582 137.723C329.111 137.994 328.575 138.129 327.975 138.129Z" fill="#212427"/>
<path d="M214.701 114V113.6H214.301V114H214.701ZM214.701 114.4H434.403V113.6H214.701V114.4ZM215.101 152V114H214.301V152H215.101Z" fill="#212427" fill-opacity="0.7" mask="url(#path-25-inside-9_651_1458)"/>
<mask id="path-28-inside-10_651_1458" fill="white">
<path d="M214.701 152H434.403V190H214.701V152Z"/>
</mask>
<path d="M214.701 152H434.403V190H214.701V152Z" fill="white"/>
<path d="M317.004 166.545V176H315.859V167.746H315.803L313.495 169.278V168.115L315.859 166.545H317.004ZM322.807 176.129C322.111 176.129 321.519 175.94 321.029 175.561C320.54 175.18 320.166 174.627 319.907 173.904C319.649 173.178 319.52 172.301 319.52 171.273C319.52 170.251 319.649 169.378 319.907 168.655C320.169 167.929 320.545 167.375 321.034 166.993C321.526 166.609 322.117 166.416 322.807 166.416C323.496 166.416 324.085 166.609 324.575 166.993C325.067 167.375 325.443 167.929 325.701 168.655C325.963 169.378 326.094 170.251 326.094 171.273C326.094 172.301 325.964 173.178 325.706 173.904C325.447 174.627 325.073 175.18 324.584 175.561C324.095 175.94 323.502 176.129 322.807 176.129ZM322.807 175.114C323.496 175.114 324.032 174.781 324.413 174.116C324.795 173.452 324.986 172.504 324.986 171.273C324.986 170.454 324.898 169.757 324.722 169.181C324.55 168.606 324.301 168.167 323.975 167.866C323.651 167.564 323.262 167.413 322.807 167.413C322.123 167.413 321.589 167.75 321.205 168.424C320.82 169.095 320.628 170.045 320.628 171.273C320.628 172.091 320.714 172.787 320.886 173.359C321.059 173.932 321.306 174.367 321.629 174.666C321.956 174.964 322.348 175.114 322.807 175.114ZM330.932 176.129C330.236 176.129 329.644 175.94 329.154 175.561C328.665 175.18 328.291 174.627 328.032 173.904C327.774 173.178 327.645 172.301 327.645 171.273C327.645 170.251 327.774 169.378 328.032 168.655C328.294 167.929 328.67 167.375 329.159 166.993C329.651 166.609 330.242 166.416 330.932 166.416C331.621 166.416 332.21 166.609 332.7 166.993C333.192 167.375 333.568 167.929 333.826 168.655C334.088 169.378 334.219 170.251 334.219 171.273C334.219 172.301 334.089 173.178 333.831 173.904C333.572 174.627 333.198 175.18 332.709 175.561C332.22 175.94 331.627 176.129 330.932 176.129ZM330.932 175.114C331.621 175.114 332.157 174.781 332.538 174.116C332.92 173.452 333.111 172.504 333.111 171.273C333.111 170.454 333.023 169.757 332.847 169.181C332.675 168.606 332.426 168.167 332.1 167.866C331.776 167.564 331.387 167.413 330.932 167.413C330.248 167.413 329.714 167.75 329.33 168.424C328.945 169.095 328.753 170.045 328.753 171.273C328.753 172.091 328.839 172.787 329.011 173.359C329.184 173.932 329.431 174.367 329.754 174.666C330.081 174.964 330.473 175.114 330.932 175.114Z" fill="#212427"/>
<path d="M214.701 152V151.6H214.301V152H214.701ZM214.701 190H214.301V190.4H214.701V190ZM214.701 152.4H434.403V151.6H214.701V152.4ZM434.403 189.6H214.701V190.4H434.403V189.6ZM215.101 190V152H214.301V190H215.101Z" fill="#212427" fill-opacity="0.7" mask="url(#path-28-inside-10_651_1458)"/>
<mask id="path-31-inside-11_651_1458" fill="white">
<path d="M434.402 0H631.178V38H434.402V0Z"/>
</mask>
<path d="M434.402 0H631.178V38H434.402V0Z" fill="white"/>
<path d="M490.607 14.5455H492.338L495.348 21.8949H495.459L498.469 14.5455H500.2V24H498.843V17.1584H498.755L495.967 23.9862H494.84L492.052 17.1538H491.964V24H490.607V14.5455ZM505.15 24.1431C504.485 24.1431 503.905 23.9908 503.41 23.6861C502.914 23.3814 502.53 22.9551 502.256 22.4073C501.982 21.8595 501.845 21.2193 501.845 20.4869C501.845 19.7513 501.982 19.1081 502.256 18.5572C502.53 18.0063 502.914 17.5785 503.41 17.2738C503.905 16.9691 504.485 16.8168 505.15 16.8168C505.815 16.8168 506.395 16.9691 506.891 17.2738C507.386 17.5785 507.771 18.0063 508.045 18.5572C508.319 19.1081 508.456 19.7513 508.456 20.4869C508.456 21.2193 508.319 21.8595 508.045 22.4073C507.771 22.9551 507.386 23.3814 506.891 23.6861C506.395 23.9908 505.815 24.1431 505.15 24.1431ZM505.155 22.9844C505.586 22.9844 505.943 22.8705 506.226 22.6428C506.509 22.415 506.718 22.1119 506.854 21.7333C506.992 21.3548 507.061 20.9377 507.061 20.4822C507.061 20.0298 506.992 19.6143 506.854 19.2358C506.718 18.8542 506.509 18.5479 506.226 18.3171C505.943 18.0863 505.586 17.9709 505.155 17.9709C504.721 17.9709 504.361 18.0863 504.074 18.3171C503.791 18.5479 503.581 18.8542 503.442 19.2358C503.307 19.6143 503.239 20.0298 503.239 20.4822C503.239 20.9377 503.307 21.3548 503.442 21.7333C503.581 22.1119 503.791 22.415 504.074 22.6428C504.361 22.8705 504.721 22.9844 505.155 22.9844ZM511.377 19.7898V24H509.996V16.9091H511.321V18.0632H511.409C511.572 17.6877 511.827 17.3861 512.175 17.1584C512.526 16.9306 512.968 16.8168 513.5 16.8168C513.983 16.8168 514.407 16.9183 514.77 17.1214C515.133 17.3215 515.414 17.62 515.615 18.017C515.815 18.4141 515.915 18.9049 515.915 19.4897V24H514.534V19.6559C514.534 19.1419 514.4 18.7403 514.133 18.451C513.865 18.1586 513.497 18.0124 513.029 18.0124C512.709 18.0124 512.425 18.0817 512.175 18.2202C511.929 18.3587 511.734 18.5618 511.589 18.8295C511.447 19.0942 511.377 19.4143 511.377 19.7898ZM521.076 16.9091V18.017H517.203V16.9091H521.076ZM518.241 15.2102H519.622V21.918C519.622 22.1857 519.662 22.3873 519.742 22.5227C519.822 22.6551 519.925 22.7459 520.051 22.7951C520.18 22.8413 520.32 22.8643 520.471 22.8643C520.582 22.8643 520.679 22.8567 520.762 22.8413C520.845 22.8259 520.91 22.8136 520.956 22.8043L521.205 23.9446C521.125 23.9754 521.011 24.0062 520.863 24.0369C520.716 24.0708 520.531 24.0893 520.309 24.0923C519.946 24.0985 519.608 24.0339 519.294 23.8984C518.98 23.763 518.726 23.5537 518.532 23.2706C518.338 22.9875 518.241 22.632 518.241 22.2042V15.2102ZM524.135 19.7898V24H522.755V14.5455H524.117V18.0632H524.205C524.371 17.6816 524.625 17.3784 524.966 17.1538C525.308 16.9291 525.754 16.8168 526.305 16.8168C526.791 16.8168 527.216 16.9168 527.579 17.1168C527.946 17.3169 528.229 17.6154 528.429 18.0124C528.632 18.4064 528.733 18.8988 528.733 19.4897V24H527.353V19.6559C527.353 19.1358 527.219 18.7326 526.951 18.4464C526.684 18.1571 526.311 18.0124 525.834 18.0124C525.508 18.0124 525.216 18.0817 524.957 18.2202C524.702 18.3587 524.5 18.5618 524.352 18.8295C524.208 19.0942 524.135 19.4143 524.135 19.7898ZM531.956 14.5455V24H530.575V14.5455H531.956ZM534.685 26.6591C534.479 26.6591 534.291 26.6422 534.122 26.6083C533.953 26.5775 533.827 26.5437 533.743 26.5067L534.076 25.3757C534.328 25.4434 534.553 25.4727 534.75 25.4634C534.947 25.4542 535.121 25.3803 535.271 25.2418C535.425 25.1033 535.561 24.8771 535.678 24.5632L535.849 24.0923L533.254 16.9091H534.731L536.527 22.4119H536.601L538.397 16.9091H539.879L536.956 24.9464C536.821 25.3157 536.649 25.6281 536.439 25.8835C536.23 26.142 535.981 26.3359 535.692 26.4652C535.402 26.5945 535.067 26.6591 534.685 26.6591ZM544.727 24V14.5455H548.097C548.833 14.5455 549.442 14.6793 549.925 14.9471C550.409 15.2148 550.77 15.5811 551.01 16.0458C551.25 16.5075 551.37 17.0276 551.37 17.6062C551.37 18.1879 551.249 18.7111 551.006 19.1758C550.766 19.6374 550.402 20.0037 549.916 20.2745C549.433 20.5423 548.825 20.6761 548.093 20.6761H545.775V19.4666H547.963C548.428 19.4666 548.805 19.3866 549.094 19.2266C549.384 19.0634 549.596 18.8419 549.731 18.5618C549.867 18.2817 549.935 17.9632 549.935 17.6062C549.935 17.2492 549.867 16.9322 549.731 16.6552C549.596 16.3782 549.382 16.1612 549.09 16.0043C548.8 15.8473 548.419 15.7688 547.945 15.7688H546.154V24H544.727ZM552.932 24V16.9091H554.266V18.0355H554.34C554.469 17.6539 554.697 17.3538 555.023 17.1353C555.352 16.9137 555.725 16.8029 556.14 16.8029C556.226 16.8029 556.328 16.806 556.445 16.8121C556.565 16.8183 556.659 16.826 556.727 16.8352V18.1555C556.671 18.1402 556.573 18.1232 556.431 18.1048C556.29 18.0832 556.148 18.0724 556.006 18.0724C555.68 18.0724 555.389 18.1417 555.134 18.2802C554.882 18.4156 554.681 18.6049 554.534 18.848C554.386 19.0881 554.312 19.362 554.312 19.6697V24H552.932ZM557.921 24V16.9091H559.301V24H557.921ZM558.618 15.815C558.378 15.815 558.172 15.735 558 15.5749C557.83 15.4118 557.746 15.2179 557.746 14.9933C557.746 14.7655 557.83 14.5716 558 14.4116C558.172 14.2485 558.378 14.1669 558.618 14.1669C558.858 14.1669 559.063 14.2485 559.232 14.4116C559.405 14.5716 559.491 14.7655 559.491 14.9933C559.491 15.2179 559.405 15.4118 559.232 15.5749C559.063 15.735 558.858 15.815 558.618 15.815ZM564.145 24.1431C563.459 24.1431 562.868 23.9877 562.373 23.6768C561.88 23.3629 561.502 22.9305 561.237 22.3796C560.972 21.8287 560.84 21.1978 560.84 20.4869C560.84 19.7667 560.975 19.1312 561.246 18.5803C561.517 18.0263 561.899 17.5939 562.391 17.283C562.883 16.9722 563.464 16.8168 564.131 16.8168C564.67 16.8168 565.15 16.9168 565.572 17.1168C565.993 17.3138 566.333 17.5908 566.592 17.9478C566.854 18.3048 567.009 18.7218 567.058 19.1989H565.715C565.641 18.8665 565.472 18.5803 565.207 18.3402C564.945 18.1001 564.595 17.9801 564.154 17.9801C563.77 17.9801 563.433 18.0817 563.143 18.2848C562.857 18.4848 562.634 18.7711 562.474 19.1435C562.314 19.5128 562.234 19.9498 562.234 20.4545C562.234 20.9716 562.313 21.4179 562.469 21.7933C562.626 22.1688 562.848 22.4596 563.134 22.6658C563.424 22.872 563.764 22.9751 564.154 22.9751C564.416 22.9751 564.653 22.9274 564.865 22.832C565.081 22.7335 565.261 22.5935 565.406 22.4119C565.553 22.2304 565.656 22.0118 565.715 21.7564H567.058C567.009 22.215 566.86 22.6243 566.61 22.9844C566.361 23.3445 566.027 23.6276 565.609 23.8338C565.193 24.04 564.705 24.1431 564.145 24.1431ZM571.59 24.1431C570.892 24.1431 570.29 23.9938 569.785 23.6953C569.284 23.3937 568.896 22.9705 568.622 22.4258C568.351 21.878 568.216 21.2363 568.216 20.5007C568.216 19.7744 568.351 19.1342 568.622 18.5803C568.896 18.0263 569.278 17.5939 569.767 17.283C570.259 16.9722 570.835 16.8168 571.494 16.8168C571.894 16.8168 572.281 16.8829 572.657 17.0153C573.032 17.1476 573.369 17.3554 573.668 17.6385C573.966 17.9216 574.202 18.2894 574.374 18.7418C574.547 19.1912 574.633 19.7375 574.633 20.3807V20.87H568.996V19.8359H573.28C573.28 19.4728 573.206 19.1512 573.059 18.8711C572.911 18.5879 572.703 18.3648 572.435 18.2017C572.171 18.0386 571.86 17.957 571.503 17.957C571.115 17.957 570.776 18.0524 570.487 18.2433C570.201 18.431 569.979 18.6772 569.822 18.9819C569.668 19.2835 569.592 19.6113 569.592 19.9652V20.7731C569.592 21.247 569.675 21.6502 569.841 21.9826C570.01 22.315 570.246 22.5689 570.547 22.7443C570.849 22.9167 571.201 23.0028 571.604 23.0028C571.866 23.0028 572.104 22.9659 572.32 22.892C572.535 22.8151 572.722 22.7012 572.878 22.5504C573.035 22.3996 573.155 22.2134 573.239 21.9918L574.545 22.2273C574.44 22.612 574.253 22.949 573.982 23.2383C573.714 23.5245 573.377 23.7476 572.971 23.9077C572.568 24.0646 572.108 24.1431 571.59 24.1431Z" fill="#212427"/>
<path d="M434.402 0V-0.4H434.002V0H434.402ZM631.178 0H631.578V-0.4H631.178V0ZM434.402 0.4H631.178V-0.4H434.402V0.4ZM630.778 0V38H631.578V0H630.778ZM434.802 38V0H434.002V38H434.802Z" fill="#212427" fill-opacity="0.7" mask="url(#path-31-inside-11_651_1458)"/>
<mask id="path-34-inside-12_651_1458" fill="white">
<path d="M434.402 38H631.178V76H434.402V38Z"/>
</mask>
<path d="M434.402 38H631.178V76H434.402V38Z" fill="white"/>
<path d="M507.465 62.1293C506.769 62.1293 506.177 61.94 505.688 61.5614C505.198 61.1798 504.824 60.6274 504.566 59.9041C504.307 59.1778 504.178 58.3007 504.178 57.2727C504.178 56.2509 504.307 55.3784 504.566 54.6552C504.827 53.9289 505.203 53.3749 505.692 52.9933C506.185 52.6085 506.775 52.4162 507.465 52.4162C508.154 52.4162 508.744 52.6085 509.233 52.9933C509.725 53.3749 510.101 53.9289 510.359 54.6552C510.621 55.3784 510.752 56.2509 510.752 57.2727C510.752 58.3007 510.623 59.1778 510.364 59.9041C510.105 60.6274 509.732 61.1798 509.242 61.5614C508.753 61.94 508.16 62.1293 507.465 62.1293ZM507.465 61.1136C508.154 61.1136 508.69 60.7812 509.071 60.1165C509.453 59.4517 509.644 58.5038 509.644 57.2727C509.644 56.4541 509.556 55.757 509.381 55.1815C509.208 54.6059 508.959 54.1674 508.633 53.8658C508.31 53.5642 507.92 53.4134 507.465 53.4134C506.782 53.4134 506.248 53.7504 505.863 54.4244C505.478 55.0953 505.286 56.0447 505.286 57.2727C505.286 58.0914 505.372 58.7869 505.544 59.3594C505.717 59.9318 505.964 60.3673 506.288 60.6658C506.614 60.9644 507.006 61.1136 507.465 61.1136ZM512.988 62.0739C512.761 62.0739 512.565 61.9923 512.402 61.8292C512.239 61.6661 512.157 61.4706 512.157 61.2429C512.157 61.0152 512.239 60.8197 512.402 60.6566C512.565 60.4935 512.761 60.4119 512.988 60.4119C513.216 60.4119 513.412 60.4935 513.575 60.6566C513.738 60.8197 513.819 61.0152 513.819 61.2429C513.819 61.3937 513.781 61.5322 513.704 61.6584C513.63 61.7846 513.53 61.8861 513.404 61.9631C513.281 62.0369 513.142 62.0739 512.988 62.0739ZM518.51 62.1293C517.814 62.1293 517.222 61.94 516.732 61.5614C516.243 61.1798 515.869 60.6274 515.611 59.9041C515.352 59.1778 515.223 58.3007 515.223 57.2727C515.223 56.2509 515.352 55.3784 515.611 54.6552C515.872 53.9289 516.248 53.3749 516.737 52.9933C517.229 52.6085 517.82 52.4162 518.51 52.4162C519.199 52.4162 519.789 52.6085 520.278 52.9933C520.77 53.3749 521.146 53.9289 521.404 54.6552C521.666 55.3784 521.797 56.2509 521.797 57.2727C521.797 58.3007 521.667 59.1778 521.409 59.9041C521.15 60.6274 520.776 61.1798 520.287 61.5614C519.798 61.94 519.205 62.1293 518.51 62.1293ZM518.51 61.1136C519.199 61.1136 519.735 60.7812 520.116 60.1165C520.498 59.4517 520.689 58.5038 520.689 57.2727C520.689 56.4541 520.601 55.757 520.426 55.1815C520.253 54.6059 520.004 54.1674 519.678 53.8658C519.355 53.5642 518.965 53.4134 518.51 53.4134C517.827 53.4134 517.293 53.7504 516.908 54.4244C516.523 55.0953 516.331 56.0447 516.331 57.2727C516.331 58.0914 516.417 58.7869 516.589 59.3594C516.762 59.9318 517.009 60.3673 517.333 60.6658C517.659 60.9644 518.051 61.1136 518.51 61.1136ZM526.635 62.1293C525.939 62.1293 525.347 61.94 524.857 61.5614C524.368 61.1798 523.994 60.6274 523.736 59.9041C523.477 59.1778 523.348 58.3007 523.348 57.2727C523.348 56.2509 523.477 55.3784 523.736 54.6552C523.997 53.9289 524.373 53.3749 524.862 52.9933C525.354 52.6085 525.945 52.4162 526.635 52.4162C527.324 52.4162 527.914 52.6085 528.403 52.9933C528.895 53.3749 529.271 53.9289 529.529 54.6552C529.791 55.3784 529.922 56.2509 529.922 57.2727C529.922 58.3007 529.792 59.1778 529.534 59.9041C529.275 60.6274 528.901 61.1798 528.412 61.5614C527.923 61.94 527.33 62.1293 526.635 62.1293ZM526.635 61.1136C527.324 61.1136 527.86 60.7812 528.241 60.1165C528.623 59.4517 528.814 58.5038 528.814 57.2727C528.814 56.4541 528.726 55.757 528.551 55.1815C528.378 54.6059 528.129 54.1674 527.803 53.8658C527.48 53.5642 527.09 53.4134 526.635 53.4134C525.952 53.4134 525.418 53.7504 525.033 54.4244C524.648 55.0953 524.456 56.0447 524.456 57.2727C524.456 58.0914 524.542 58.7869 524.714 59.3594C524.887 59.9318 525.134 60.3673 525.458 60.6658C525.784 60.9644 526.176 61.1136 526.635 61.1136ZM535.498 62V52.5455H538.804C539.462 52.5455 540.006 52.6593 540.433 52.8871C540.861 53.1117 541.18 53.4149 541.389 53.7965C541.598 54.1751 541.703 54.5952 541.703 55.0568C541.703 55.4631 541.631 55.7985 541.486 56.0632C541.344 56.3279 541.157 56.5372 540.923 56.6911C540.692 56.8449 540.441 56.9588 540.17 57.0327V57.125C540.46 57.1435 540.75 57.245 541.043 57.4297C541.335 57.6143 541.58 57.879 541.777 58.2237C541.974 58.5684 542.072 58.9901 542.072 59.4886C542.072 59.9626 541.965 60.3888 541.749 60.7674C541.534 61.146 541.194 61.446 540.729 61.6676C540.264 61.8892 539.659 62 538.915 62H535.498ZM536.643 60.9844H538.915C539.662 60.9844 540.193 60.8397 540.507 60.5504C540.824 60.258 540.983 59.9041 540.983 59.4886C540.983 59.1686 540.901 58.8731 540.738 58.6023C540.575 58.3284 540.343 58.1098 540.041 57.9467C539.739 57.7805 539.382 57.6974 538.97 57.6974H536.643V60.9844ZM536.643 56.7003H538.767C539.112 56.7003 539.422 56.6326 539.699 56.4972C539.979 56.3617 540.201 56.1709 540.364 55.9247C540.53 55.6785 540.613 55.3892 540.613 55.0568C540.613 54.6413 540.469 54.2889 540.18 53.9996C539.89 53.7073 539.432 53.5611 538.804 53.5611H536.643V56.7003ZM546.871 62H543.953V52.5455H547C547.917 52.5455 548.702 52.7347 549.355 53.1133C550.007 53.4888 550.507 54.0289 550.855 54.7337C551.203 55.4354 551.377 56.2756 551.377 57.2543C551.377 58.2391 551.201 59.087 550.85 59.7979C550.5 60.5058 549.989 61.0505 549.318 61.4322C548.647 61.8107 547.831 62 546.871 62ZM545.098 60.9844H546.797C547.579 60.9844 548.227 60.8336 548.741 60.532C549.255 60.2304 549.638 59.801 549.89 59.244C550.143 58.6869 550.269 58.0237 550.269 57.2543C550.269 56.491 550.144 55.8339 549.895 55.283C549.646 54.729 549.273 54.3043 548.778 54.0089C548.282 53.7103 547.665 53.5611 546.926 53.5611H545.098V60.9844ZM552.387 53.5611V52.5455H559.478V53.5611H556.505V62H555.36V53.5611H552.387Z" fill="#212427"/>
<path d="M434.402 38V37.6H434.002V38H434.402ZM631.178 38H631.578V37.6H631.178V38ZM434.402 38.4H631.178V37.6H434.402V38.4ZM630.778 38V76H631.578V38H630.778ZM434.802 76V38H434.002V76H434.802Z" fill="#212427" fill-opacity="0.7" mask="url(#path-34-inside-12_651_1458)"/>
<mask id="path-37-inside-13_651_1458" fill="white">
<path d="M434.402 76H631.178V114H434.402V76Z"/>
</mask>
<path d="M434.402 76H631.178V114H434.402V76Z" fill="white"/>
<path d="M505.705 90.5455V100H504.56V91.7457H504.505L502.196 93.2784V92.1151L504.56 90.5455H505.705ZM508.202 98.0611V97.1193L512.357 90.5455H513.04V92.0043H512.579L509.44 96.9716V97.0455H515.035V98.0611H508.202ZM512.653 100V97.7749V97.3363V90.5455H513.742V100H512.653ZM519.775 90.4162C520.163 90.4193 520.55 90.4931 520.938 90.6378C521.326 90.7824 521.68 91.0225 522 91.358C522.32 91.6903 522.577 92.1443 522.771 92.7198C522.965 93.2953 523.062 94.017 523.062 94.8849C523.062 95.7251 522.982 96.4715 522.822 97.1239C522.665 97.7733 522.437 98.3211 522.138 98.7674C521.843 99.2137 521.483 99.5522 521.058 99.783C520.637 100.014 520.159 100.129 519.627 100.129C519.098 100.129 518.625 100.025 518.21 99.8153C517.797 99.603 517.459 99.3091 517.194 98.9336C516.933 98.555 516.765 98.1165 516.691 97.6179H517.817C517.919 98.0518 518.121 98.4104 518.422 98.6935C518.727 98.9736 519.128 99.1136 519.627 99.1136C520.356 99.1136 520.932 98.7951 521.354 98.158C521.778 97.521 521.991 96.6207 521.991 95.4574H521.917C521.744 95.7159 521.54 95.939 521.303 96.1268C521.066 96.3145 520.803 96.4592 520.513 96.5607C520.224 96.6623 519.916 96.7131 519.59 96.7131C519.048 96.7131 518.551 96.5792 518.099 96.3114C517.65 96.0406 517.29 95.6697 517.019 95.1989C516.751 94.7249 516.617 94.1832 516.617 93.5739C516.617 92.9953 516.746 92.4659 517.005 91.9858C517.266 91.5026 517.633 91.1179 518.104 90.8317C518.578 90.5455 519.135 90.407 519.775 90.4162ZM519.775 91.4318C519.387 91.4318 519.038 91.5288 518.727 91.7227C518.419 91.9135 518.174 92.172 517.993 92.4982C517.814 92.8214 517.725 93.1799 517.725 93.5739C517.725 93.9678 517.811 94.3263 517.984 94.6495C518.159 94.9696 518.398 95.225 518.699 95.4158C519.004 95.6036 519.35 95.6974 519.738 95.6974C520.03 95.6974 520.303 95.6405 520.555 95.5266C520.807 95.4097 521.027 95.2512 521.215 95.0511C521.406 94.848 521.555 94.6187 521.663 94.3633C521.771 94.1048 521.824 93.8355 521.824 93.5554C521.824 93.1861 521.735 92.8398 521.557 92.5167C521.381 92.1935 521.138 91.9319 520.827 91.7319C520.52 91.5318 520.169 91.4318 519.775 91.4318ZM527.887 90.4162C528.275 90.4193 528.663 90.4931 529.05 90.6378C529.438 90.7824 529.792 91.0225 530.112 91.358C530.432 91.6903 530.689 92.1443 530.883 92.7198C531.077 93.2953 531.174 94.017 531.174 94.8849C531.174 95.7251 531.094 96.4715 530.934 97.1239C530.777 97.7733 530.549 98.3211 530.251 98.7674C529.955 99.2137 529.595 99.5522 529.17 99.783C528.749 100.014 528.272 100.129 527.739 100.129C527.21 100.129 526.738 100.025 526.322 99.8153C525.91 99.603 525.571 99.3091 525.306 98.9336C525.045 98.555 524.877 98.1165 524.803 97.6179H525.93C526.031 98.0518 526.233 98.4104 526.534 98.6935C526.839 98.9736 527.241 99.1136 527.739 99.1136C528.469 99.1136 529.044 98.7951 529.466 98.158C529.891 97.521 530.103 96.6207 530.103 95.4574H530.029C529.857 95.7159 529.652 95.939 529.415 96.1268C529.178 96.3145 528.915 96.4592 528.626 96.5607C528.336 96.6623 528.029 96.7131 527.702 96.7131C527.161 96.7131 526.664 96.5792 526.211 96.3114C525.762 96.0406 525.402 95.6697 525.131 95.1989C524.863 94.7249 524.729 94.1832 524.729 93.5739C524.729 92.9953 524.859 92.4659 525.117 91.9858C525.379 91.5026 525.745 91.1179 526.216 90.8317C526.69 90.5455 527.247 90.407 527.887 90.4162ZM527.887 91.4318C527.499 91.4318 527.15 91.5288 526.839 91.7227C526.531 91.9135 526.287 92.172 526.105 92.4982C525.927 92.8214 525.837 93.1799 525.837 93.5739C525.837 93.9678 525.924 94.3263 526.096 94.6495C526.271 94.9696 526.51 95.225 526.811 95.4158C527.116 95.6036 527.462 95.6974 527.85 95.6974C528.143 95.6974 528.415 95.6405 528.667 95.5266C528.92 95.4097 529.14 95.2512 529.327 95.0511C529.518 94.848 529.667 94.6187 529.775 94.3633C529.883 94.1048 529.937 93.8355 529.937 93.5554C529.937 93.1861 529.848 92.8398 529.669 92.5167C529.494 92.1935 529.25 91.9319 528.94 91.7319C528.632 91.5318 528.281 91.4318 527.887 91.4318ZM536.812 100V90.5455H540.117C540.776 90.5455 541.319 90.6593 541.747 90.8871C542.175 91.1117 542.493 91.4149 542.703 91.7965C542.912 92.1751 543.016 92.5952 543.016 93.0568C543.016 93.4631 542.944 93.7985 542.799 94.0632C542.658 94.3279 542.47 94.5372 542.236 94.6911C542.005 94.8449 541.755 94.9588 541.484 95.0327V95.125C541.773 95.1435 542.064 95.245 542.356 95.4297C542.649 95.6143 542.893 95.879 543.09 96.2237C543.287 96.5684 543.386 96.9901 543.386 97.4886C543.386 97.9626 543.278 98.3888 543.063 98.7674C542.847 99.146 542.507 99.446 542.042 99.6676C541.578 99.8892 540.973 100 540.228 100H536.812ZM537.957 98.9844H540.228C540.976 98.9844 541.507 98.8397 541.821 98.5504C542.138 98.258 542.296 97.9041 542.296 97.4886C542.296 97.1686 542.215 96.8731 542.052 96.6023C541.888 96.3284 541.656 96.1098 541.354 95.9467C541.053 95.7805 540.696 95.6974 540.283 95.6974H537.957V98.9844ZM537.957 94.7003H540.08C540.425 94.7003 540.736 94.6326 541.013 94.4972C541.293 94.3617 541.515 94.1709 541.678 93.9247C541.844 93.6785 541.927 93.3892 541.927 93.0568C541.927 92.6413 541.782 92.2889 541.493 91.9996C541.204 91.7073 540.745 91.5611 540.117 91.5611H537.957V94.7003ZM548.185 100H545.267V90.5455H548.314C549.231 90.5455 550.016 90.7347 550.668 91.1133C551.321 91.4888 551.821 92.0289 552.169 92.7337C552.516 93.4354 552.69 94.2756 552.69 95.2543C552.69 96.2391 552.515 97.087 552.164 97.7979C551.813 98.5058 551.302 99.0505 550.631 99.4322C549.96 99.8107 549.145 100 548.185 100ZM546.412 98.9844H548.111C548.892 98.9844 549.54 98.8336 550.054 98.532C550.568 98.2304 550.951 97.801 551.204 97.244C551.456 96.6869 551.582 96.0237 551.582 95.2543C551.582 94.491 551.458 93.8339 551.208 93.283C550.959 92.729 550.587 92.3043 550.091 92.0089C549.596 91.7103 548.979 91.5611 548.24 91.5611H546.412V98.9844ZM553.7 91.5611V90.5455H560.791V91.5611H557.818V100H556.673V91.5611H553.7Z" fill="#212427"/>
<path d="M434.402 76V75.6H434.002V76H434.402ZM631.178 76H631.578V75.6H631.178V76ZM434.402 76.4H631.178V75.6H434.402V76.4ZM630.778 76V114H631.578V76H630.778ZM434.802 114V76H434.002V114H434.802Z" fill="#212427" fill-opacity="0.7" mask="url(#path-37-inside-13_651_1458)"/>
<mask id="path-40-inside-14_651_1458" fill="white">
<path d="M434.402 114H631.178V152H434.402V114Z"/>
</mask>
<path d="M434.402 114H631.178V152H434.402V114Z" fill="white"/>
<path d="M502.381 138V137.169L505.502 133.753C505.868 133.353 506.17 133.005 506.407 132.71C506.644 132.411 506.819 132.131 506.933 131.869C507.05 131.605 507.108 131.328 507.108 131.038C507.108 130.706 507.028 130.418 506.868 130.175C506.711 129.932 506.496 129.744 506.222 129.612C505.948 129.48 505.64 129.413 505.299 129.413C504.935 129.413 504.618 129.489 504.348 129.64C504.08 129.787 503.872 129.995 503.724 130.263C503.58 130.531 503.507 130.844 503.507 131.205H502.418C502.418 130.651 502.546 130.164 502.801 129.746C503.057 129.327 503.404 129.001 503.844 128.767C504.288 128.533 504.785 128.416 505.336 128.416C505.89 128.416 506.38 128.533 506.808 128.767C507.236 129.001 507.571 129.316 507.815 129.713C508.058 130.11 508.179 130.552 508.179 131.038C508.179 131.386 508.116 131.726 507.99 132.059C507.867 132.388 507.652 132.756 507.344 133.162C507.039 133.565 506.616 134.058 506.074 134.639L503.951 136.911V136.984H508.346V138H502.381ZM513.391 138.129C513.004 138.123 512.616 138.049 512.228 137.908C511.84 137.766 511.486 137.528 511.166 137.192C510.846 136.854 510.589 136.397 510.395 135.821C510.201 135.242 510.104 134.516 510.104 133.642C510.104 132.805 510.183 132.063 510.34 131.417C510.497 130.768 510.725 130.221 511.023 129.778C511.322 129.332 511.682 128.993 512.103 128.762C512.528 128.532 513.007 128.416 513.539 128.416C514.068 128.416 514.539 128.522 514.952 128.735C515.367 128.944 515.706 129.236 515.967 129.612C516.229 129.987 516.398 130.42 516.475 130.909H515.349C515.244 130.484 515.041 130.132 514.739 129.852C514.438 129.572 514.038 129.432 513.539 129.432C512.807 129.432 512.23 129.75 511.808 130.387C511.389 131.025 511.179 131.919 511.175 133.07H511.249C511.422 132.808 511.626 132.585 511.863 132.4C512.103 132.212 512.368 132.068 512.657 131.966C512.947 131.865 513.253 131.814 513.576 131.814C514.118 131.814 514.613 131.949 515.062 132.22C515.512 132.488 515.872 132.859 516.143 133.333C516.414 133.804 516.549 134.344 516.549 134.953C516.549 135.538 516.418 136.073 516.157 136.56C515.895 137.043 515.527 137.428 515.053 137.714C514.582 137.997 514.028 138.135 513.391 138.129ZM513.391 137.114C513.779 137.114 514.127 137.017 514.435 136.823C514.746 136.629 514.99 136.369 515.169 136.043C515.35 135.716 515.441 135.353 515.441 134.953C515.441 134.562 515.353 134.207 515.178 133.887C515.006 133.564 514.767 133.307 514.462 133.116C514.161 132.925 513.816 132.83 513.428 132.83C513.136 132.83 512.864 132.888 512.611 133.005C512.359 133.119 512.137 133.276 511.946 133.476C511.759 133.676 511.611 133.905 511.503 134.164C511.395 134.419 511.342 134.688 511.342 134.972C511.342 135.347 511.429 135.698 511.605 136.024C511.783 136.35 512.026 136.614 512.334 136.814C512.645 137.014 512.997 137.114 513.391 137.114ZM521.374 128.416C521.762 128.419 522.15 128.493 522.538 128.638C522.926 128.782 523.279 129.022 523.6 129.358C523.92 129.69 524.177 130.144 524.37 130.72C524.564 131.295 524.661 132.017 524.661 132.885C524.661 133.725 524.581 134.471 524.421 135.124C524.264 135.773 524.037 136.321 523.738 136.767C523.443 137.214 523.082 137.552 522.658 137.783C522.236 138.014 521.759 138.129 521.227 138.129C520.697 138.129 520.225 138.025 519.809 137.815C519.397 137.603 519.058 137.309 518.794 136.934C518.532 136.555 518.364 136.116 518.291 135.618H519.417C519.519 136.052 519.72 136.41 520.022 136.694C520.326 136.974 520.728 137.114 521.227 137.114C521.956 137.114 522.532 136.795 522.953 136.158C523.378 135.521 523.59 134.621 523.59 133.457H523.516C523.344 133.716 523.139 133.939 522.902 134.127C522.665 134.315 522.402 134.459 522.113 134.561C521.824 134.662 521.516 134.713 521.19 134.713C520.648 134.713 520.151 134.579 519.699 134.311C519.249 134.041 518.889 133.67 518.618 133.199C518.351 132.725 518.217 132.183 518.217 131.574C518.217 130.995 518.346 130.466 518.604 129.986C518.866 129.503 519.232 129.118 519.703 128.832C520.177 128.545 520.734 128.407 521.374 128.416ZM521.374 129.432C520.987 129.432 520.637 129.529 520.326 129.723C520.019 129.913 519.774 130.172 519.592 130.498C519.414 130.821 519.325 131.18 519.325 131.574C519.325 131.968 519.411 132.326 519.583 132.65C519.759 132.97 519.997 133.225 520.299 133.416C520.603 133.604 520.95 133.697 521.337 133.697C521.63 133.697 521.902 133.641 522.155 133.527C522.407 133.41 522.627 133.251 522.815 133.051C523.006 132.848 523.155 132.619 523.263 132.363C523.37 132.105 523.424 131.835 523.424 131.555C523.424 131.186 523.335 130.84 523.156 130.517C522.981 130.194 522.738 129.932 522.427 129.732C522.119 129.532 521.768 129.432 521.374 129.432ZM529.487 128.416C529.874 128.419 530.262 128.493 530.65 128.638C531.038 128.782 531.392 129.022 531.712 129.358C532.032 129.69 532.289 130.144 532.483 130.72C532.677 131.295 532.774 132.017 532.774 132.885C532.774 133.725 532.694 134.471 532.534 135.124C532.377 135.773 532.149 136.321 531.85 136.767C531.555 137.214 531.195 137.552 530.77 137.783C530.348 138.014 529.871 138.129 529.339 138.129C528.81 138.129 528.337 138.025 527.922 137.815C527.509 137.603 527.171 137.309 526.906 136.934C526.644 136.555 526.477 136.116 526.403 135.618H527.529C527.631 136.052 527.832 136.41 528.134 136.694C528.439 136.974 528.84 137.114 529.339 137.114C530.068 137.114 530.644 136.795 531.066 136.158C531.49 135.521 531.703 134.621 531.703 133.457H531.629C531.456 133.716 531.252 133.939 531.015 134.127C530.778 134.315 530.515 134.459 530.225 134.561C529.936 134.662 529.628 134.713 529.302 134.713C528.76 134.713 528.263 134.579 527.811 134.311C527.362 134.041 527.001 133.67 526.731 133.199C526.463 132.725 526.329 132.183 526.329 131.574C526.329 130.995 526.458 130.466 526.717 129.986C526.978 129.503 527.345 129.118 527.816 128.832C528.289 128.545 528.847 128.407 529.487 128.416ZM529.487 129.432C529.099 129.432 528.75 129.529 528.439 129.723C528.131 129.913 527.886 130.172 527.705 130.498C527.526 130.821 527.437 131.18 527.437 131.574C527.437 131.968 527.523 132.326 527.695 132.65C527.871 132.97 528.109 133.225 528.411 133.416C528.716 133.604 529.062 133.697 529.45 133.697C529.742 133.697 530.015 133.641 530.267 133.527C530.519 133.41 530.739 133.251 530.927 133.051C531.118 132.848 531.267 132.619 531.375 132.363C531.483 132.105 531.536 131.835 531.536 131.555C531.536 131.186 531.447 130.84 531.269 130.517C531.093 130.194 530.85 129.932 530.539 129.732C530.231 129.532 529.881 129.432 529.487 129.432ZM538.411 138V128.545H541.717C542.376 128.545 542.919 128.659 543.347 128.887C543.774 129.112 544.093 129.415 544.302 129.797C544.511 130.175 544.616 130.595 544.616 131.057C544.616 131.463 544.544 131.799 544.399 132.063C544.257 132.328 544.07 132.537 543.836 132.691C543.605 132.845 543.354 132.959 543.083 133.033V133.125C543.373 133.143 543.664 133.245 543.956 133.43C544.248 133.614 544.493 133.879 544.69 134.224C544.887 134.568 544.985 134.99 544.985 135.489C544.985 135.963 544.878 136.389 544.662 136.767C544.447 137.146 544.107 137.446 543.642 137.668C543.177 137.889 542.572 138 541.828 138H538.411ZM539.556 136.984H541.828C542.576 136.984 543.106 136.84 543.42 136.55C543.737 136.258 543.896 135.904 543.896 135.489C543.896 135.169 543.814 134.873 543.651 134.602C543.488 134.328 543.256 134.11 542.954 133.947C542.652 133.781 542.295 133.697 541.883 133.697H539.556V136.984ZM539.556 132.7H541.68C542.025 132.7 542.335 132.633 542.612 132.497C542.893 132.362 543.114 132.171 543.277 131.925C543.443 131.679 543.527 131.389 543.527 131.057C543.527 130.641 543.382 130.289 543.093 130C542.803 129.707 542.345 129.561 541.717 129.561H539.556V132.7ZM549.784 138H546.867V128.545H549.913C550.831 128.545 551.615 128.735 552.268 129.113C552.92 129.489 553.42 130.029 553.768 130.734C554.116 131.435 554.29 132.276 554.29 133.254C554.29 134.239 554.114 135.087 553.764 135.798C553.413 136.506 552.902 137.051 552.231 137.432C551.56 137.811 550.744 138 549.784 138ZM548.011 136.984H549.71C550.492 136.984 551.14 136.834 551.654 136.532C552.168 136.23 552.551 135.801 552.803 135.244C553.056 134.687 553.182 134.024 553.182 133.254C553.182 132.491 553.057 131.834 552.808 131.283C552.559 130.729 552.186 130.304 551.691 130.009C551.195 129.71 550.578 129.561 549.84 129.561H548.011V136.984ZM555.3 129.561V128.545H562.391V129.561H559.418V138H558.273V129.561H555.3Z" fill="#212427"/>
<path d="M434.402 114V113.6H434.002V114H434.402ZM631.178 114H631.578V113.6H631.178V114ZM434.402 114.4H631.178V113.6H434.402V114.4ZM630.778 114V152H631.578V114H630.778ZM434.802 152V114H434.002V152H434.802Z" fill="#212427" fill-opacity="0.7" mask="url(#path-40-inside-14_651_1458)"/>
<mask id="path-43-inside-15_651_1458" fill="white">
<path d="M434.402 152H631.178V190H434.402V152Z"/>
</mask>
<path d="M434.402 152H631.178V190H434.402V152Z" fill="white"/>
<path d="M501.159 174.061V173.119L505.314 166.545H505.998V168.004H505.536L502.397 172.972V173.045H507.992V174.061H501.159ZM505.61 176V173.775V173.336V166.545H506.699V176H505.61ZM512.732 166.416C513.12 166.419 513.507 166.493 513.895 166.638C514.283 166.782 514.637 167.022 514.957 167.358C515.277 167.69 515.534 168.144 515.728 168.72C515.922 169.295 516.019 170.017 516.019 170.885C516.019 171.725 515.939 172.471 515.779 173.124C515.622 173.773 515.394 174.321 515.095 174.767C514.8 175.214 514.44 175.552 514.015 175.783C513.594 176.014 513.117 176.129 512.584 176.129C512.055 176.129 511.582 176.025 511.167 175.815C510.754 175.603 510.416 175.309 510.151 174.934C509.89 174.555 509.722 174.116 509.648 173.618H510.774C510.876 174.052 511.078 174.41 511.379 174.694C511.684 174.974 512.085 175.114 512.584 175.114C513.313 175.114 513.889 174.795 514.311 174.158C514.735 173.521 514.948 172.621 514.948 171.457H514.874C514.701 171.716 514.497 171.939 514.26 172.127C514.023 172.315 513.76 172.459 513.47 172.561C513.181 172.662 512.873 172.713 512.547 172.713C512.005 172.713 511.508 172.579 511.056 172.311C510.607 172.041 510.247 171.67 509.976 171.199C509.708 170.725 509.574 170.183 509.574 169.574C509.574 168.995 509.703 168.466 509.962 167.986C510.224 167.503 510.59 167.118 511.061 166.832C511.535 166.545 512.092 166.407 512.732 166.416ZM512.732 167.432C512.344 167.432 511.995 167.529 511.684 167.723C511.376 167.913 511.131 168.172 510.95 168.498C510.771 168.821 510.682 169.18 510.682 169.574C510.682 169.968 510.768 170.326 510.941 170.65C511.116 170.97 511.355 171.225 511.656 171.416C511.961 171.604 512.307 171.697 512.695 171.697C512.987 171.697 513.26 171.641 513.512 171.527C513.764 171.41 513.984 171.251 514.172 171.051C514.363 170.848 514.512 170.619 514.62 170.363C514.728 170.105 514.782 169.835 514.782 169.555C514.782 169.186 514.692 168.84 514.514 168.517C514.338 168.194 514.095 167.932 513.784 167.732C513.477 167.532 513.126 167.432 512.732 167.432ZM520.844 166.416C521.232 166.419 521.62 166.493 522.007 166.638C522.395 166.782 522.749 167.022 523.069 167.358C523.389 167.69 523.646 168.144 523.84 168.72C524.034 169.295 524.131 170.017 524.131 170.885C524.131 171.725 524.051 172.471 523.891 173.124C523.734 173.773 523.506 174.321 523.208 174.767C522.912 175.214 522.552 175.552 522.127 175.783C521.706 176.014 521.229 176.129 520.696 176.129C520.167 176.129 519.695 176.025 519.279 175.815C518.867 175.603 518.528 175.309 518.263 174.934C518.002 174.555 517.834 174.116 517.76 173.618H518.887C518.988 174.052 519.19 174.41 519.491 174.694C519.796 174.974 520.198 175.114 520.696 175.114C521.426 175.114 522.001 174.795 522.423 174.158C522.848 173.521 523.06 172.621 523.06 171.457H522.986C522.814 171.716 522.609 171.939 522.372 172.127C522.135 172.315 521.872 172.459 521.583 172.561C521.293 172.662 520.986 172.713 520.659 172.713C520.118 172.713 519.621 172.579 519.168 172.311C518.719 172.041 518.359 171.67 518.088 171.199C517.82 170.725 517.686 170.183 517.686 169.574C517.686 168.995 517.816 168.466 518.074 167.986C518.336 167.503 518.702 167.118 519.173 166.832C519.647 166.545 520.204 166.407 520.844 166.416ZM520.844 167.432C520.456 167.432 520.107 167.529 519.796 167.723C519.488 167.913 519.244 168.172 519.062 168.498C518.884 168.821 518.794 169.18 518.794 169.574C518.794 169.968 518.881 170.326 519.053 170.65C519.228 170.97 519.467 171.225 519.768 171.416C520.073 171.604 520.419 171.697 520.807 171.697C521.1 171.697 521.372 171.641 521.624 171.527C521.877 171.41 522.097 171.251 522.284 171.051C522.475 170.848 522.625 170.619 522.732 170.363C522.84 170.105 522.894 169.835 522.894 169.555C522.894 169.186 522.805 168.84 522.626 168.517C522.451 168.194 522.208 167.932 521.897 167.732C521.589 167.532 521.238 167.432 520.844 167.432ZM528.956 166.416C529.344 166.419 529.732 166.493 530.12 166.638C530.508 166.782 530.861 167.022 531.182 167.358C531.502 167.69 531.759 168.144 531.953 168.72C532.146 169.295 532.243 170.017 532.243 170.885C532.243 171.725 532.163 172.471 532.003 173.124C531.846 173.773 531.619 174.321 531.32 174.767C531.025 175.214 530.665 175.552 530.24 175.783C529.818 176.014 529.341 176.129 528.809 176.129C528.279 176.129 527.807 176.025 527.391 175.815C526.979 175.603 526.64 175.309 526.376 174.934C526.114 174.555 525.946 174.116 525.873 173.618H526.999C527.101 174.052 527.302 174.41 527.604 174.694C527.908 174.974 528.31 175.114 528.809 175.114C529.538 175.114 530.114 174.795 530.535 174.158C530.96 173.521 531.172 172.621 531.172 171.457H531.098C530.926 171.716 530.721 171.939 530.484 172.127C530.247 172.315 529.984 172.459 529.695 172.561C529.406 172.662 529.098 172.713 528.772 172.713C528.23 172.713 527.733 172.579 527.281 172.311C526.831 172.041 526.471 171.67 526.2 171.199C525.933 170.725 525.799 170.183 525.799 169.574C525.799 168.995 525.928 168.466 526.187 167.986C526.448 167.503 526.814 167.118 527.285 166.832C527.759 166.545 528.316 166.407 528.956 166.416ZM528.956 167.432C528.569 167.432 528.219 167.529 527.908 167.723C527.601 167.913 527.356 168.172 527.174 168.498C526.996 168.821 526.907 169.18 526.907 169.574C526.907 169.968 526.993 170.326 527.165 170.65C527.341 170.97 527.579 171.225 527.881 171.416C528.185 171.604 528.532 171.697 528.919 171.697C529.212 171.697 529.484 171.641 529.737 171.527C529.989 171.41 530.209 171.251 530.397 171.051C530.588 170.848 530.737 170.619 530.845 170.363C530.952 170.105 531.006 169.835 531.006 169.555C531.006 169.186 530.917 168.84 530.738 168.517C530.563 168.194 530.32 167.932 530.009 167.732C529.701 167.532 529.35 167.432 528.956 167.432ZM537.881 176V166.545H541.187C541.845 166.545 542.388 166.659 542.816 166.887C543.244 167.112 543.563 167.415 543.772 167.797C543.981 168.175 544.086 168.595 544.086 169.057C544.086 169.463 544.013 169.799 543.869 170.063C543.727 170.328 543.539 170.537 543.306 170.691C543.075 170.845 542.824 170.959 542.553 171.033V171.125C542.842 171.143 543.133 171.245 543.426 171.43C543.718 171.614 543.963 171.879 544.16 172.224C544.357 172.568 544.455 172.99 544.455 173.489C544.455 173.963 544.347 174.389 544.132 174.767C543.916 175.146 543.576 175.446 543.112 175.668C542.647 175.889 542.042 176 541.297 176H537.881ZM539.026 174.984H541.297C542.045 174.984 542.576 174.84 542.89 174.55C543.207 174.258 543.366 173.904 543.366 173.489C543.366 173.169 543.284 172.873 543.121 172.602C542.958 172.328 542.725 172.11 542.424 171.947C542.122 171.781 541.765 171.697 541.353 171.697H539.026V174.984ZM539.026 170.7H541.15C541.494 170.7 541.805 170.633 542.082 170.497C542.362 170.362 542.584 170.171 542.747 169.925C542.913 169.679 542.996 169.389 542.996 169.057C542.996 168.641 542.852 168.289 542.562 168C542.273 167.707 541.814 167.561 541.187 167.561H539.026V170.7ZM549.254 176H546.336V166.545H549.383C550.3 166.545 551.085 166.735 551.738 167.113C552.39 167.489 552.89 168.029 553.238 168.734C553.586 169.435 553.76 170.276 553.76 171.254C553.76 172.239 553.584 173.087 553.233 173.798C552.882 174.506 552.372 175.051 551.701 175.432C551.03 175.811 550.214 176 549.254 176ZM547.481 174.984H549.18C549.962 174.984 550.61 174.834 551.124 174.532C551.638 174.23 552.021 173.801 552.273 173.244C552.525 172.687 552.652 172.024 552.652 171.254C552.652 170.491 552.527 169.834 552.278 169.283C552.028 168.729 551.656 168.304 551.161 168.009C550.665 167.71 550.048 167.561 549.309 167.561H547.481V174.984ZM554.769 167.561V166.545H561.86V167.561H558.887V176H557.742V167.561H554.769Z" fill="#212427"/>
<path d="M434.402 152V151.6H434.002V152H434.402ZM631.178 152H631.578V151.6H631.178V152ZM631.178 190V190.4H631.578V190H631.178ZM434.402 190H434.002V190.4H434.402V190ZM434.402 152.4H631.178V151.6H434.402V152.4ZM630.778 152V190H631.578V152H630.778ZM631.178 189.6H434.402V190.4H631.178V189.6ZM434.802 190V152H434.002V190H434.802Z" fill="#212427" fill-opacity="0.7" mask="url(#path-43-inside-15_651_1458)"/>
</svg>
