<svg width="24" height="24" viewBox="0 0 24 24" fill="none" xmlns="http://www.w3.org/2000/svg">
<path d="M19 4H15V3C15 1.346 13.654 0 12 0C10.346 0 9 1.346 9 3V4H5C2.243 4 0 6.243 0 9V19C0 21.757 2.243 24 5 24H19C21.757 24 24 21.757 24 19V9C24 6.243 21.757 4 19 4ZM11 3C11.0115 2.74252 11.1219 2.49941 11.3082 2.32128C11.4945 2.14315 11.7423 2.04373 12 2.04373C12.2577 2.04373 12.5055 2.14315 12.6918 2.32128C12.8781 2.49941 12.9885 2.74252 13 3V6H10.999V3H11ZM22 19C22 20.654 20.654 22 19 22H5C3.346 22 2 20.654 2 19V9C2 7.346 3.346 6 5 6H9C9 7.103 9.897 8 11 8H13C14.103 8 15 7.103 15 6H19C20.654 6 22 7.346 22 9V19ZM9.5 12.5C9.5 11.837 9.76339 11.2011 10.2322 10.7322C10.7011 10.2634 11.337 10 12 10C12.663 10 13.2989 10.2634 13.7678 10.7322C14.2366 11.2011 14.5 11.837 14.5 12.5C14.5 13.163 14.2366 13.7989 13.7678 14.2678C13.2989 14.7366 12.663 15 12 15C11.337 15 10.7011 14.7366 10.2322 14.2678C9.76339 13.7989 9.5 13.163 9.5 12.5ZM16.968 19.751C17.0011 19.8783 17.0087 20.0109 16.9905 20.1412C16.9722 20.2714 16.9285 20.3968 16.8617 20.5102C16.7949 20.6235 16.7065 20.7225 16.6013 20.8016C16.4962 20.8807 16.3765 20.9383 16.2491 20.971C16.1217 21.0038 15.9891 21.0111 15.8589 20.9925C15.7287 20.9739 15.6034 20.9298 15.4903 20.8628C15.3771 20.7957 15.2783 20.707 15.1995 20.6016C15.1207 20.4963 15.0634 20.3765 15.031 20.249C14.7 18.967 13.397 18 11.999 18C10.601 18 9.297 18.967 8.967 20.249C8.90041 20.5053 8.73491 20.7246 8.50679 20.859C8.27868 20.9935 8.00657 21.0319 7.75015 20.966C7.49372 20.9001 7.2739 20.7351 7.1389 20.5074C7.0039 20.2796 6.96474 20.0076 7.03 19.751C7.589 17.577 9.678 16 11.998 16C14.318 16 16.407 17.577 16.966 19.751H16.968Z" fill="#00A0DC"/>
</svg>
