<svg width="24" height="24" viewBox="0 0 24 24" fill="none" xmlns="http://www.w3.org/2000/svg">
<g clip-path="url(#clip0_82_1780)">
<path d="M21.9999 0H2.0001C0.900293 0 0 0.900293 0 2.0001V22.0002C0 23.0994 0.900293 24 2.0001 24H21.9999C23.0997 24 24 23.0994 24 22.0002V2.0001C24 0.900293 23.0997 0 21.9999 0ZM21.9999 22.0002H2.0001V2.0001H21.9999V22.0002Z" fill="#00A0DC"/>
<path d="M6 9.99854H8.0001V17.9986H6V9.99854Z" fill="#00A0DC"/>
<path d="M6.99805 9C7.82647 9 8.49805 8.32843 8.49805 7.5C8.49805 6.67157 7.82647 6 6.99805 6C6.16962 6 5.49805 6.67157 5.49805 7.5C5.49805 8.32843 6.16962 9 6.99805 9Z" fill="#00A0DC"/>
<path d="M14.0002 10C13.2679 10 12.5899 10.2115 12.0001 10.5547V10.0831H10V18.0001H12.0001V13.9999C12.0001 12.8953 12.8956 12.0001 14.0002 12.0001C15.1048 12.0001 16 12.8953 16 13.9999V18.0001H18.0001V13.9999C18.0001 11.791 16.2091 10 14.0002 10Z" fill="#00A0DC"/>
</g>
<defs>
<clipPath id="clip0_82_1780">
<rect width="24" height="24" fill="white"/>
</clipPath>
</defs>
</svg>
