<svg width="24" height="24" viewBox="0 0 24 24" fill="none" xmlns="http://www.w3.org/2000/svg">
<path d="M22.77 9.343L21.001 7.649V3C21.001 1.346 19.655 0 18.001 0H6.00095C4.34695 0 3.00095 1.346 3.00095 3V7.651L1.23495 9.342C0.846177 9.71624 0.536666 10.1649 0.324841 10.6612C0.113017 11.1575 0.00320862 11.6914 0.00195312 12.231V24H24.001V12.231C24.0002 11.6915 23.8909 11.1576 23.6794 10.6613C23.4679 10.1649 23.1586 9.71623 22.77 9.342V9.343ZM6.00095 2H18.001C18.553 2 19.001 2.449 19.001 3V12.242L14.122 17.121C12.989 18.254 11.013 18.254 9.87895 17.121L5.00095 12.242V3C5.00095 2.449 5.44995 2 6.00095 2ZM22.001 22H2.00095V12.231C2.00195 12.18 2.00495 12.129 2.00895 12.078L8.46495 18.535C9.40995 19.479 10.665 19.999 12.001 19.999C13.337 19.999 14.592 19.479 15.536 18.535L21.994 12.076C21.998 12.127 22.001 12.179 22.001 12.23V22ZM17.001 7H7.00095V5H17.001V7ZM15.001 11H7.00095V9H15.001V11Z" fill="#00A0DC"/>
</svg>
