<svg width="20" height="20" viewBox="0 0 20 20" fill="none" xmlns="http://www.w3.org/2000/svg">
<path d="M4.82773 0.244377C4.50192 0.57019 4.50192 1.09686 4.82773 1.42267L13.405 10L4.82773 18.5773C4.50192 18.9032 4.50192 19.4298 4.82773 19.7556C5.15355 20.0815 5.68022 20.0815 6.00603 19.7556L15.1725 10.5892C15.25 10.5119 15.3115 10.42 15.3534 10.3189C15.3953 10.2178 15.4168 10.1094 15.4167 9.99999C15.4168 9.89054 15.3953 9.78216 15.3534 9.68105C15.3115 9.57994 15.25 9.48811 15.1725 9.41082L6.00603 0.244337C5.68022 -0.0814362 5.15355 -0.0814362 4.82773 0.244377Z" fill="#212427" fill-opacity="0.7"/>
</svg>
