<svg width="17" height="17" viewBox="0 0 17 17" fill="none" xmlns="http://www.w3.org/2000/svg">
<path d="M16.8541 3.11345C16.9004 3.06722 16.9371 3.01233 16.9621 2.9519C16.9872 2.89148 17.0001 2.82671 17.0001 2.7613C17.0001 2.69589 16.9872 2.63112 16.9621 2.5707C16.9371 2.51027 16.9004 2.45538 16.8541 2.40915L14.5908 0.145895C14.5446 0.099573 14.4897 0.0628372 14.4293 0.0377994C14.3689 0.0127616 14.3041 -8.4244e-05 14.2387 4.15744e-07C14.1112 4.15744e-07 13.9837 0.0486429 13.8864 0.145895L11.9753 2.057L14.943 5.02459L16.8541 3.11345ZM0.0356607 16.317C-0.00052397 16.4075 -0.0093631 16.5066 0.0102385 16.6021C0.0298401 16.6975 0.077021 16.7852 0.145935 16.8541C0.21485 16.923 0.302469 16.9702 0.397938 16.9898C0.493406 17.0094 0.592527 17.0005 0.683021 16.9643L4.15022 15.5774L1.42245 12.8497L0.0356607 16.317ZM13.2965 9.60432C13.0752 9.60432 12.8529 9.62414 12.6322 9.66451L7.33555 4.36783C7.55273 3.17953 7.17438 1.94348 6.31386 1.08285C5.60531 0.374332 4.65643 0.000531665 3.69494 0.000465259C3.14448 0.000225789 2.60096 0.123266 2.10428 0.360552C2.03239 0.394893 1.96978 0.445979 1.92172 0.509523C1.87366 0.573067 1.84155 0.647214 1.82807 0.725738C1.8146 0.804263 1.82016 0.884874 1.84429 0.960804C1.86842 1.03673 1.91042 1.10577 1.96675 1.16211L3.74856 2.94392L2.94405 3.74843L1.16211 1.96665C1.10576 1.91033 1.03673 1.86835 0.960805 1.84421C0.884882 1.82007 0.804279 1.81449 0.725753 1.82793C0.647222 1.84142 0.573071 1.87354 0.509521 1.92161C0.445971 1.96968 0.394875 2.03228 0.360519 2.10418C-0.313602 3.51601 -0.0232415 5.20767 1.08302 6.31376C1.78377 7.01455 2.73354 7.39558 3.7038 7.39558C3.925 7.39558 4.14719 7.37576 4.36786 7.33545L9.66465 12.6321C9.44733 13.8203 9.82555 15.0563 10.6861 15.9169C11.3949 16.6256 12.3437 16.9994 13.3053 16.9994C13.8557 16.9996 14.3992 16.8766 14.8959 16.6393C14.9678 16.605 15.0304 16.5539 15.0785 16.4903C15.1265 16.4268 15.1586 16.3526 15.1721 16.2741C15.1855 16.1956 15.18 16.1149 15.1558 16.039C15.1317 15.9631 15.0897 15.894 15.0333 15.8377L13.2515 14.056L14.056 13.2514L15.8377 15.0333C15.894 15.0896 15.9631 15.1316 16.039 15.1558C16.1149 15.1799 16.1956 15.1855 16.2741 15.172C16.3526 15.1585 16.4268 15.1264 16.4903 15.0783C16.5539 15.0303 16.605 14.9677 16.6393 14.8958C17.3137 13.4841 17.0234 11.7923 15.917 10.686C15.2163 9.98529 14.2666 9.60432 13.2965 9.60432Z" fill="#00A0DC" fill-opacity="0.75"/>
<path d="M2.00531 12.0249L4.82598 9.20422L7.79318 12.1715L4.97254 14.9921L2.00531 12.0249ZM9.20285 4.82885L11.2692 2.76245L14.2364 5.72968L12.1701 7.79605L9.20285 4.82885Z" fill="#00A0DC" fill-opacity="0.75"/>
</svg>
