<svg width="23" height="19" viewBox="0 0 23 19" fill="none" xmlns="http://www.w3.org/2000/svg">
<path d="M15.7946 0H7.20539C3.25889 0 0 3.59444 0 7.9473C0 11.9278 2.73185 15.2291 6.20795 15.7657C6.42654 15.879 6.94094 15.842 7.20539 15.842V18.2104C7.20534 18.3533 7.24047 18.4935 7.30703 18.6162C7.3736 18.7388 7.4691 18.8392 7.58335 18.9066C7.69759 18.974 7.82629 19.006 7.95572 18.9991C8.08514 18.9921 8.21044 18.9466 8.31822 18.8673L12.4325 15.842H15.7946C19.7411 15.842 23 12.3002 23 7.9473C23 3.59444 19.7411 0 15.7946 0ZM7.20539 9.52623C6.41624 9.52623 5.77386 8.81771 5.77386 7.9473C5.77386 7.07689 6.41624 6.36837 7.20539 6.36837C7.99455 6.36837 8.63693 7.07689 8.63693 7.9473C8.63693 8.81771 7.99455 9.52623 7.20539 9.52623ZM11.5 9.52623C10.7108 9.52623 10.0685 8.81771 10.0685 7.9473C10.0685 7.07689 10.7108 6.36837 11.5 6.36837C12.2892 6.36837 12.9315 7.07689 12.9315 7.9473C12.9315 8.81771 12.2892 9.52623 11.5 9.52623ZM15.7946 9.52623C15.0054 9.52623 14.3631 8.81771 14.3631 7.9473C14.3631 7.07689 15.0054 6.36837 15.7946 6.36837C16.5838 6.36837 17.2261 7.07689 17.2261 7.9473C17.2261 8.81771 16.5838 9.52623 15.7946 9.52623Z" fill="#212427" fill-opacity="0.7"/>
</svg>
