<svg width="10" height="11" viewBox="0 0 10 11" fill="none" xmlns="http://www.w3.org/2000/svg">
<path d="M2.21218 5.91165C2.2066 5.75347 2.08089 5.62523 1.92261 5.62603C1.68841 5.62721 1.4661 5.6284 1.2438 5.62219C1.16384 5.61929 1.06315 5.60482 1.01281 5.55561C0.629166 5.18063 0.906385 4.52802 1.44285 4.52802C1.48074 4.52802 1.51864 4.52802 1.55655 4.52802C1.917 4.52802 2.20922 4.2358 2.20922 3.87534C2.20922 3.58338 2.20922 3.29683 2.20922 3.01124C2.20922 2.82599 2.19441 2.64073 2.21218 2.45837C2.28029 1.78103 1.50736 1.40184 1.00984 1.59288C0.927413 1.62645 0.832949 1.58524 0.795209 1.50463C0.69766 1.29627 0.599106 1.08997 0.512326 0.877911C0.491596 0.825808 0.51825 0.741864 0.547864 0.683972C0.70778 0.353985 0.962461 0.119521 1.3356 0.0500506C2.32767 -0.13231 2.95549 0.180308 3.2161 1.0429C3.31975 1.39026 3.37009 1.76366 3.38194 2.12839C3.40859 2.83178 3.39082 3.53806 3.39082 4.24435C3.39082 4.29977 3.39082 4.35392 3.39082 4.40848C3.39082 4.45882 3.42092 4.5263 3.47078 4.51934C3.91499 4.4354 4.22002 4.62934 4.49543 4.95643C4.67173 5.16705 4.90093 5.33373 5.11054 5.51753C5.13165 5.53604 5.13572 5.56694 5.11994 5.59015C5.10894 5.60632 5.09069 5.6164 5.07115 5.6164C4.60025 5.6164 4.1268 5.6164 3.6311 5.6164C3.49841 5.6164 3.39082 5.72396 3.39082 5.85665C3.39082 6.8003 3.39082 7.74394 3.39082 8.68469C3.39082 9.30414 3.76692 9.68334 4.40067 9.72386C4.74715 9.74702 5.07883 9.7007 5.37793 9.53282C6.28709 9.02626 6.98006 8.33734 7.27028 7.32133C7.32059 7.13446 7.15581 6.96051 6.9623 6.95902C6.9245 6.95873 6.88704 6.95801 6.84976 6.95661C6.15975 6.91898 5.71553 6.56583 5.59412 5.90007C5.54377 5.62798 5.53193 5.32983 5.58523 5.05774C5.72738 4.36592 6.28116 4.01278 7.09852 4.03883C7.64046 4.05331 8.08763 4.26461 8.43412 4.66407C9.29589 5.65692 9.33735 6.78582 8.86944 7.9263C8.11724 9.7586 6.64246 10.7196 4.682 10.983C4.29109 11.0351 3.86465 10.9599 3.4767 10.8586C2.69489 10.653 2.21514 9.98727 2.21218 9.19994C2.20922 8.10288 2.21218 7.00871 2.21218 5.91165Z" fill="#212427"/>
</svg>
