<svg width="636" height="40" viewBox="0 0 636 40" fill="none" xmlns="http://www.w3.org/2000/svg">
<rect x="0.25" y="0.25" width="635.5" height="39.5" rx="5.75" fill="white"/>
<path d="M17.5682 20.75V26H16.2273V14.3636H17.5682V18.6364H17.6818C17.8864 18.1856 18.1932 17.8277 18.6023 17.5625C19.0152 17.2936 19.5644 17.1591 20.25 17.1591C20.8447 17.1591 21.3655 17.2784 21.8125 17.517C22.2595 17.7519 22.6061 18.1136 22.8523 18.6023C23.1023 19.0871 23.2273 19.7045 23.2273 20.4545V26H21.8864V20.5455C21.8864 19.8523 21.7064 19.3163 21.3466 18.9375C20.9905 18.5549 20.4962 18.3636 19.8636 18.3636C19.4242 18.3636 19.0303 18.4564 18.6818 18.642C18.3371 18.8277 18.0644 19.0985 17.8636 19.4545C17.6667 19.8106 17.5682 20.2424 17.5682 20.75ZM29.4759 17.2727V18.4091H24.9531V17.2727H29.4759ZM26.2713 15.1818H27.6122V23.5C27.6122 23.8788 27.6671 24.1629 27.777 24.3523C27.8906 24.5379 28.0346 24.6629 28.2088 24.7273C28.3868 24.7879 28.5743 24.8182 28.7713 24.8182C28.919 24.8182 29.0402 24.8106 29.1349 24.7955C29.2296 24.7765 29.3054 24.7614 29.3622 24.75L29.6349 25.9545C29.544 25.9886 29.4171 26.0227 29.2543 26.0568C29.0914 26.0947 28.8849 26.1136 28.6349 26.1136C28.2562 26.1136 27.8849 26.0322 27.5213 25.8693C27.1615 25.7064 26.8622 25.4583 26.6236 25.125C26.3887 24.7917 26.2713 24.3712 26.2713 23.8636V15.1818ZM35.2884 17.2727V18.4091H30.7656V17.2727H35.2884ZM32.0838 15.1818H33.4247V23.5C33.4247 23.8788 33.4796 24.1629 33.5895 24.3523C33.7031 24.5379 33.8471 24.6629 34.0213 24.7273C34.1993 24.7879 34.3868 24.8182 34.5838 24.8182C34.7315 24.8182 34.8527 24.8106 34.9474 24.7955C35.0421 24.7765 35.1179 24.7614 35.1747 24.75L35.4474 25.9545C35.3565 25.9886 35.2296 26.0227 35.0668 26.0568C34.9039 26.0947 34.6974 26.1136 34.4474 26.1136C34.0687 26.1136 33.6974 26.0322 33.3338 25.8693C32.974 25.7064 32.6747 25.4583 32.4361 25.125C32.2012 24.7917 32.0838 24.3712 32.0838 23.8636V15.1818ZM37.3054 29.2727V17.2727H38.6009V18.6591H38.7599C38.8584 18.5076 38.9948 18.3144 39.169 18.0795C39.3471 17.8409 39.6009 17.6288 39.9304 17.4432C40.2637 17.2538 40.7145 17.1591 41.2827 17.1591C42.0175 17.1591 42.6652 17.3428 43.2259 17.7102C43.7865 18.0777 44.224 18.5985 44.5384 19.2727C44.8527 19.947 45.0099 20.7424 45.0099 21.6591C45.0099 22.5833 44.8527 23.3845 44.5384 24.0625C44.224 24.7367 43.7884 25.2595 43.2315 25.6307C42.6747 25.9981 42.0327 26.1818 41.3054 26.1818C40.7448 26.1818 40.2959 26.089 39.9588 25.9034C39.6217 25.714 39.3622 25.5 39.1804 25.2614C38.9986 25.0189 38.8584 24.8182 38.7599 24.6591H38.6463V29.2727H37.3054ZM38.6236 21.6364C38.6236 22.2955 38.7202 22.8769 38.9134 23.3807C39.1065 23.8807 39.3887 24.2727 39.7599 24.5568C40.1312 24.8371 40.5857 24.9773 41.1236 24.9773C41.6842 24.9773 42.152 24.8295 42.527 24.5341C42.9058 24.2348 43.1899 23.8333 43.3793 23.3295C43.5724 22.822 43.669 22.2576 43.669 21.6364C43.669 21.0227 43.5743 20.4697 43.3849 19.9773C43.1993 19.4811 42.9171 19.089 42.5384 18.8011C42.1634 18.5095 41.6918 18.3636 41.1236 18.3636C40.5781 18.3636 40.1198 18.5019 39.7486 18.7784C39.3774 19.0511 39.0971 19.4337 38.9077 19.9261C38.7183 20.4148 38.6236 20.9848 38.6236 21.6364ZM53.2372 19.2273L52.0327 19.5682C51.9569 19.3674 51.8452 19.1723 51.6974 18.983C51.5535 18.7898 51.3565 18.6307 51.1065 18.5057C50.8565 18.3807 50.5365 18.3182 50.1463 18.3182C49.6122 18.3182 49.1671 18.4413 48.8111 18.6875C48.4588 18.9299 48.2827 19.2386 48.2827 19.6136C48.2827 19.947 48.4039 20.2102 48.6463 20.4034C48.8887 20.5966 49.2675 20.7576 49.7827 20.8864L51.0781 21.2045C51.8584 21.3939 52.4399 21.6837 52.8224 22.0739C53.205 22.4602 53.3963 22.9583 53.3963 23.5682C53.3963 24.0682 53.2524 24.5152 52.9645 24.9091C52.6804 25.303 52.2827 25.6136 51.7713 25.8409C51.2599 26.0682 50.6652 26.1818 49.9872 26.1818C49.0971 26.1818 48.3603 25.9886 47.777 25.6023C47.1937 25.2159 46.8243 24.6515 46.669 23.9091L47.9418 23.5909C48.063 24.0606 48.2921 24.4129 48.6293 24.6477C48.9702 24.8826 49.4152 25 49.9645 25C50.5895 25 51.0857 24.8674 51.4531 24.6023C51.8243 24.3333 52.0099 24.0114 52.0099 23.6364C52.0099 23.3333 51.9039 23.0795 51.6918 22.875C51.4796 22.6667 51.1539 22.5114 50.7145 22.4091L49.2599 22.0682C48.4607 21.8788 47.8736 21.5852 47.4986 21.1875C47.1274 20.786 46.9418 20.2841 46.9418 19.6818C46.9418 19.1894 47.08 18.7538 47.3565 18.375C47.6368 17.9962 48.0175 17.6989 48.4986 17.483C48.9834 17.267 49.5327 17.1591 50.1463 17.1591C51.0099 17.1591 51.688 17.3485 52.1804 17.7273C52.6766 18.1061 53.0289 18.6061 53.2372 19.2273ZM56.392 26.0909C56.1117 26.0909 55.8712 25.9905 55.6705 25.7898C55.4697 25.589 55.3693 25.3485 55.3693 25.0682C55.3693 24.7879 55.4697 24.5473 55.6705 24.3466C55.8712 24.1458 56.1117 24.0455 56.392 24.0455C56.6723 24.0455 56.9129 24.1458 57.1136 24.3466C57.3144 24.5473 57.4148 24.7879 57.4148 25.0682C57.4148 25.2538 57.3674 25.4242 57.2727 25.5795C57.1818 25.7348 57.0587 25.8598 56.9034 25.9545C56.7519 26.0455 56.5814 26.0909 56.392 26.0909ZM56.392 19.6136C56.1117 19.6136 55.8712 19.5133 55.6705 19.3125C55.4697 19.1117 55.3693 18.8712 55.3693 18.5909C55.3693 18.3106 55.4697 18.0701 55.6705 17.8693C55.8712 17.6686 56.1117 17.5682 56.392 17.5682C56.6723 17.5682 56.9129 17.6686 57.1136 17.8693C57.3144 18.0701 57.4148 18.3106 57.4148 18.5909C57.4148 18.7765 57.3674 18.947 57.2727 19.1023C57.1818 19.2576 57.0587 19.3826 56.9034 19.4773C56.7519 19.5682 56.5814 19.6136 56.392 19.6136ZM63.9347 13.8182L60.1847 27.75H58.9574L62.7074 13.8182H63.9347ZM69.6378 13.8182L65.8878 27.75H64.6605L68.4105 13.8182H69.6378ZM72.5682 14.3636V26H71.2273V14.3636H72.5682ZM75.0241 26V17.2727H76.3651V26H75.0241ZM75.706 15.8182C75.4446 15.8182 75.2192 15.7292 75.0298 15.5511C74.8442 15.3731 74.7514 15.1591 74.7514 14.9091C74.7514 14.6591 74.8442 14.4451 75.0298 14.267C75.2192 14.089 75.4446 14 75.706 14C75.9673 14 76.1908 14.089 76.3764 14.267C76.5658 14.4451 76.6605 14.6591 76.6605 14.9091C76.6605 15.1591 76.5658 15.3731 76.3764 15.5511C76.1908 15.7292 75.9673 15.8182 75.706 15.8182ZM80.1619 20.75V26H78.821V17.2727H80.1165V18.6364H80.2301C80.4347 18.1932 80.7453 17.8371 81.1619 17.5682C81.5786 17.2955 82.1165 17.1591 82.7756 17.1591C83.3665 17.1591 83.8835 17.2803 84.3267 17.5227C84.7699 17.7614 85.1146 18.125 85.3608 18.6136C85.607 19.0985 85.7301 19.7121 85.7301 20.4545V26H84.3892V20.5455C84.3892 19.8598 84.2112 19.3258 83.8551 18.9432C83.4991 18.5568 83.0104 18.3636 82.3892 18.3636C81.9612 18.3636 81.5786 18.4564 81.2415 18.642C80.9081 18.8277 80.6449 19.0985 80.4517 19.4545C80.2585 19.8106 80.1619 20.2424 80.1619 20.75ZM89.4304 22.8182L89.4077 21.1591H89.6804L93.4986 17.2727H95.1577L91.0895 21.3864H90.9759L89.4304 22.8182ZM88.1804 26V14.3636H89.5213V26H88.1804ZM93.7259 26L90.3168 21.6818L91.2713 20.75L95.4304 26H93.7259ZM100.183 26.1818C99.3423 26.1818 98.617 25.9962 98.0071 25.625C97.401 25.25 96.9332 24.7273 96.6037 24.0568C96.2779 23.3826 96.1151 22.5985 96.1151 21.7045C96.1151 20.8106 96.2779 20.0227 96.6037 19.3409C96.9332 18.6553 97.3916 18.1212 97.9787 17.7386C98.5696 17.3523 99.259 17.1591 100.047 17.1591C100.501 17.1591 100.95 17.2348 101.393 17.3864C101.837 17.5379 102.24 17.7841 102.604 18.125C102.967 18.4621 103.257 18.9091 103.473 19.4659C103.689 20.0227 103.797 20.7083 103.797 21.5227V22.0909H97.0696V20.9318H102.433C102.433 20.4394 102.335 20 102.138 19.6136C101.945 19.2273 101.668 18.9223 101.308 18.6989C100.952 18.4754 100.532 18.3636 100.047 18.3636C99.5128 18.3636 99.0507 18.4962 98.6605 18.7614C98.2741 19.0227 97.9768 19.3636 97.7685 19.7841C97.5601 20.2045 97.456 20.6553 97.456 21.1364V21.9091C97.456 22.5682 97.5696 23.1269 97.7969 23.5852C98.0279 24.0398 98.348 24.3864 98.7571 24.625C99.1662 24.8598 99.6416 24.9773 100.183 24.9773C100.536 24.9773 100.854 24.928 101.138 24.8295C101.426 24.7273 101.674 24.5758 101.882 24.375C102.09 24.1705 102.251 23.9167 102.365 23.6136L103.661 23.9773C103.524 24.4167 103.295 24.803 102.973 25.1364C102.651 25.4659 102.253 25.7235 101.78 25.9091C101.306 26.0909 100.774 26.1818 100.183 26.1818ZM109.132 26.1818C108.405 26.1818 107.763 25.9981 107.206 25.6307C106.649 25.2595 106.214 24.7367 105.899 24.0625C105.585 23.3845 105.428 22.5833 105.428 21.6591C105.428 20.7424 105.585 19.947 105.899 19.2727C106.214 18.5985 106.651 18.0777 107.212 17.7102C107.772 17.3428 108.42 17.1591 109.155 17.1591C109.723 17.1591 110.172 17.2538 110.501 17.4432C110.835 17.6288 111.089 17.8409 111.263 18.0795C111.441 18.3144 111.579 18.5076 111.678 18.6591H111.791V14.3636H113.132V26H111.837V24.6591H111.678C111.579 24.8182 111.439 25.0189 111.257 25.2614C111.075 25.5 110.816 25.714 110.479 25.9034C110.142 26.089 109.693 26.1818 109.132 26.1818ZM109.314 24.9773C109.852 24.9773 110.306 24.8371 110.678 24.5568C111.049 24.2727 111.331 23.8807 111.524 23.3807C111.717 22.8769 111.814 22.2955 111.814 21.6364C111.814 20.9848 111.719 20.4148 111.53 19.9261C111.34 19.4337 111.06 19.0511 110.689 18.7784C110.318 18.5019 109.859 18.3636 109.314 18.3636C108.746 18.3636 108.272 18.5095 107.893 18.8011C107.518 19.089 107.236 19.4811 107.047 19.9773C106.861 20.4697 106.768 21.0227 106.768 21.6364C106.768 22.2576 106.863 22.822 107.053 23.3295C107.246 23.8333 107.53 24.2348 107.905 24.5341C108.284 24.8295 108.753 24.9773 109.314 24.9773ZM115.774 26V17.2727H117.115V26H115.774ZM116.456 15.8182C116.195 15.8182 115.969 15.7292 115.78 15.5511C115.594 15.3731 115.501 15.1591 115.501 14.9091C115.501 14.6591 115.594 14.4451 115.78 14.267C115.969 14.089 116.195 14 116.456 14C116.717 14 116.941 14.089 117.126 14.267C117.316 14.4451 117.411 14.6591 117.411 14.9091C117.411 15.1591 117.316 15.3731 117.126 15.5511C116.941 15.7292 116.717 15.8182 116.456 15.8182ZM120.912 20.75V26H119.571V17.2727H120.866V18.6364H120.98C121.185 18.1932 121.495 17.8371 121.912 17.5682C122.329 17.2955 122.866 17.1591 123.526 17.1591C124.116 17.1591 124.634 17.2803 125.077 17.5227C125.52 17.7614 125.865 18.125 126.111 18.6136C126.357 19.0985 126.48 19.7121 126.48 20.4545V26H125.139V20.5455C125.139 19.8598 124.961 19.3258 124.605 18.9432C124.249 18.5568 123.76 18.3636 123.139 18.3636C122.711 18.3636 122.329 18.4564 121.991 18.642C121.658 18.8277 121.395 19.0985 121.202 19.4545C121.009 19.8106 120.912 20.2424 120.912 20.75ZM129.908 26.0909C129.627 26.0909 129.387 25.9905 129.186 25.7898C128.985 25.589 128.885 25.3485 128.885 25.0682C128.885 24.7879 128.985 24.5473 129.186 24.3466C129.387 24.1458 129.627 24.0455 129.908 24.0455C130.188 24.0455 130.429 24.1458 130.629 24.3466C130.83 24.5473 130.93 24.7879 130.93 25.0682C130.93 25.2538 130.883 25.4242 130.788 25.5795C130.697 25.7348 130.574 25.8598 130.419 25.9545C130.268 26.0455 130.097 26.0909 129.908 26.0909ZM136.882 26.1818C136.064 26.1818 135.359 25.9886 134.768 25.6023C134.178 25.2159 133.723 24.6837 133.405 24.0057C133.087 23.3277 132.928 22.553 132.928 21.6818C132.928 20.7955 133.09 20.0133 133.416 19.3352C133.746 18.6534 134.204 18.1212 134.791 17.7386C135.382 17.3523 136.071 17.1591 136.859 17.1591C137.473 17.1591 138.026 17.2727 138.518 17.5C139.011 17.7273 139.414 18.0455 139.729 18.4545C140.043 18.8636 140.238 19.3409 140.314 19.8864H138.973C138.871 19.4886 138.643 19.1364 138.291 18.8295C137.943 18.5189 137.473 18.3636 136.882 18.3636C136.359 18.3636 135.901 18.5 135.507 18.7727C135.117 19.0417 134.812 19.4223 134.592 19.9148C134.376 20.4034 134.268 20.9773 134.268 21.6364C134.268 22.3106 134.375 22.8977 134.587 23.3977C134.803 23.8977 135.106 24.286 135.496 24.5625C135.89 24.839 136.352 24.9773 136.882 24.9773C137.231 24.9773 137.547 24.9167 137.831 24.7955C138.115 24.6742 138.356 24.5 138.553 24.2727C138.75 24.0455 138.89 23.7727 138.973 23.4545H140.314C140.238 23.9697 140.051 24.4337 139.751 24.8466C139.456 25.2557 139.064 25.5814 138.575 25.8239C138.09 26.0625 137.526 26.1818 136.882 26.1818ZM145.82 26.1818C145.032 26.1818 144.34 25.9943 143.746 25.6193C143.155 25.2443 142.693 24.7197 142.359 24.0455C142.03 23.3712 141.865 22.5833 141.865 21.6818C141.865 20.7727 142.03 19.9792 142.359 19.3011C142.693 18.6231 143.155 18.0966 143.746 17.7216C144.34 17.3466 145.032 17.1591 145.82 17.1591C146.607 17.1591 147.297 17.3466 147.888 17.7216C148.482 18.0966 148.945 18.6231 149.274 19.3011C149.607 19.9792 149.774 20.7727 149.774 21.6818C149.774 22.5833 149.607 23.3712 149.274 24.0455C148.945 24.7197 148.482 25.2443 147.888 25.6193C147.297 25.9943 146.607 26.1818 145.82 26.1818ZM145.82 24.9773C146.418 24.9773 146.911 24.8239 147.297 24.517C147.683 24.2102 147.969 23.8068 148.155 23.3068C148.34 22.8068 148.433 22.2652 148.433 21.6818C148.433 21.0985 148.34 20.5549 148.155 20.0511C147.969 19.5473 147.683 19.1402 147.297 18.8295C146.911 18.5189 146.418 18.3636 145.82 18.3636C145.221 18.3636 144.729 18.5189 144.342 18.8295C143.956 19.1402 143.67 19.5473 143.484 20.0511C143.299 20.5549 143.206 21.0985 143.206 21.6818C143.206 22.2652 143.299 22.8068 143.484 23.3068C143.67 23.8068 143.956 24.2102 144.342 24.517C144.729 24.8239 145.221 24.9773 145.82 24.9773ZM151.821 26V17.2727H153.116V18.6364H153.23C153.412 18.1705 153.705 17.8087 154.111 17.5511C154.516 17.2898 155.003 17.1591 155.571 17.1591C156.147 17.1591 156.626 17.2898 157.009 17.5511C157.395 17.8087 157.696 18.1705 157.912 18.6364H158.003C158.226 18.1856 158.562 17.8277 159.009 17.5625C159.455 17.2936 159.991 17.1591 160.616 17.1591C161.397 17.1591 162.035 17.4034 162.531 17.892C163.027 18.3769 163.276 19.1326 163.276 20.1591V26H161.935V20.1591C161.935 19.5152 161.759 19.0549 161.406 18.7784C161.054 18.5019 160.639 18.3636 160.162 18.3636C159.548 18.3636 159.073 18.5492 158.736 18.9205C158.399 19.2879 158.23 19.7538 158.23 20.3182V26H156.866V20.0227C156.866 19.5265 156.705 19.1269 156.384 18.8239C156.062 18.517 155.647 18.3636 155.139 18.3636C154.791 18.3636 154.465 18.4564 154.162 18.642C153.863 18.8277 153.62 19.0852 153.435 19.4148C153.253 19.7405 153.162 20.1174 153.162 20.5455V26H151.821ZM169.841 13.8182L166.091 27.75H164.864L168.614 13.8182H169.841ZM171.43 26V17.2727H172.771V26H171.43ZM172.112 15.8182C171.851 15.8182 171.625 15.7292 171.436 15.5511C171.25 15.3731 171.158 15.1591 171.158 14.9091C171.158 14.6591 171.25 14.4451 171.436 14.267C171.625 14.089 171.851 14 172.112 14C172.374 14 172.597 14.089 172.783 14.267C172.972 14.4451 173.067 14.6591 173.067 14.9091C173.067 15.1591 172.972 15.3731 172.783 15.5511C172.597 15.7292 172.374 15.8182 172.112 15.8182ZM176.568 20.75V26H175.227V17.2727H176.523V18.6364H176.636C176.841 18.1932 177.152 17.8371 177.568 17.5682C177.985 17.2955 178.523 17.1591 179.182 17.1591C179.773 17.1591 180.29 17.2803 180.733 17.5227C181.176 17.7614 181.521 18.125 181.767 18.6136C182.013 19.0985 182.136 19.7121 182.136 20.4545V26H180.795V20.5455C180.795 19.8598 180.617 19.3258 180.261 18.9432C179.905 18.5568 179.417 18.3636 178.795 18.3636C178.367 18.3636 177.985 18.4564 177.648 18.642C177.314 18.8277 177.051 19.0985 176.858 19.4545C176.665 19.8106 176.568 20.2424 176.568 20.75ZM188.7 13.8182L184.95 27.75H183.723L187.473 13.8182H188.7ZM195.79 22.4318V17.2727H197.131V26H195.79V24.5227H195.699C195.494 24.9659 195.176 25.3428 194.744 25.6534C194.313 25.9602 193.767 26.1136 193.108 26.1136C192.562 26.1136 192.078 25.9943 191.653 25.7557C191.229 25.5133 190.896 25.1496 190.653 24.6648C190.411 24.1761 190.29 23.5606 190.29 22.8182V17.2727H191.631V22.7273C191.631 23.3636 191.809 23.8712 192.165 24.25C192.525 24.6288 192.983 24.8182 193.54 24.8182C193.873 24.8182 194.212 24.733 194.557 24.5625C194.905 24.392 195.197 24.1307 195.432 23.7784C195.67 23.4261 195.79 22.9773 195.79 22.4318ZM205.768 19.2273L204.564 19.5682C204.488 19.3674 204.376 19.1723 204.229 18.983C204.085 18.7898 203.888 18.6307 203.638 18.5057C203.388 18.3807 203.068 18.3182 202.678 18.3182C202.143 18.3182 201.698 18.4413 201.342 18.6875C200.99 18.9299 200.814 19.2386 200.814 19.6136C200.814 19.947 200.935 20.2102 201.178 20.4034C201.42 20.5966 201.799 20.7576 202.314 20.8864L203.609 21.2045C204.39 21.3939 204.971 21.6837 205.354 22.0739C205.736 22.4602 205.928 22.9583 205.928 23.5682C205.928 24.0682 205.784 24.5152 205.496 24.9091C205.212 25.303 204.814 25.6136 204.303 25.8409C203.791 26.0682 203.196 26.1818 202.518 26.1818C201.628 26.1818 200.892 25.9886 200.308 25.6023C199.725 25.2159 199.356 24.6515 199.2 23.9091L200.473 23.5909C200.594 24.0606 200.823 24.4129 201.161 24.6477C201.501 24.8826 201.946 25 202.496 25C203.121 25 203.617 24.8674 203.984 24.6023C204.356 24.3333 204.541 24.0114 204.541 23.6364C204.541 23.3333 204.435 23.0795 204.223 22.875C204.011 22.6667 203.685 22.5114 203.246 22.4091L201.791 22.0682C200.992 21.8788 200.405 21.5852 200.03 21.1875C199.659 20.786 199.473 20.2841 199.473 19.6818C199.473 19.1894 199.611 18.7538 199.888 18.375C200.168 17.9962 200.549 17.6989 201.03 17.483C201.515 17.267 202.064 17.1591 202.678 17.1591C203.541 17.1591 204.219 17.3485 204.712 17.7273C205.208 18.1061 205.56 18.6061 205.768 19.2273ZM211.605 26.1818C210.764 26.1818 210.039 25.9962 209.429 25.625C208.823 25.25 208.355 24.7273 208.026 24.0568C207.7 23.3826 207.537 22.5985 207.537 21.7045C207.537 20.8106 207.7 20.0227 208.026 19.3409C208.355 18.6553 208.813 18.1212 209.401 17.7386C209.991 17.3523 210.681 17.1591 211.469 17.1591C211.923 17.1591 212.372 17.2348 212.815 17.3864C213.259 17.5379 213.662 17.7841 214.026 18.125C214.389 18.4621 214.679 18.9091 214.895 19.4659C215.111 20.0227 215.219 20.7083 215.219 21.5227V22.0909H208.491V20.9318H213.855C213.855 20.4394 213.757 20 213.56 19.6136C213.366 19.2273 213.09 18.9223 212.73 18.6989C212.374 18.4754 211.954 18.3636 211.469 18.3636C210.935 18.3636 210.473 18.4962 210.082 18.7614C209.696 19.0227 209.399 19.3636 209.19 19.7841C208.982 20.2045 208.878 20.6553 208.878 21.1364V21.9091C208.878 22.5682 208.991 23.1269 209.219 23.5852C209.45 24.0398 209.77 24.3864 210.179 24.625C210.588 24.8598 211.063 24.9773 211.605 24.9773C211.957 24.9773 212.276 24.928 212.56 24.8295C212.848 24.7273 213.096 24.5758 213.304 24.375C213.512 24.1705 213.673 23.9167 213.787 23.6136L215.082 23.9773C214.946 24.4167 214.717 24.803 214.395 25.1364C214.073 25.4659 213.675 25.7235 213.202 25.9091C212.728 26.0909 212.196 26.1818 211.605 26.1818ZM217.259 26V17.2727H218.554V18.5909H218.645C218.804 18.1591 219.092 17.8087 219.509 17.5398C219.925 17.2708 220.395 17.1364 220.918 17.1364C221.016 17.1364 221.139 17.1383 221.287 17.142C221.435 17.1458 221.546 17.1515 221.622 17.1591V18.5227C221.577 18.5114 221.473 18.4943 221.31 18.4716C221.151 18.4451 220.982 18.4318 220.804 18.4318C220.38 18.4318 220.001 18.5208 219.668 18.6989C219.338 18.8731 219.077 19.1155 218.884 19.4261C218.694 19.733 218.599 20.0833 218.599 20.4773V26H217.259ZM224.553 20.75V26H223.212V17.2727H224.507V18.6364H224.621C224.825 18.1932 225.136 17.8371 225.553 17.5682C225.969 17.2955 226.507 17.1591 227.166 17.1591C227.757 17.1591 228.274 17.2803 228.717 17.5227C229.161 17.7614 229.505 18.125 229.751 18.6136C229.998 19.0985 230.121 19.7121 230.121 20.4545V26H228.78V20.5455C228.78 19.8598 228.602 19.3258 228.246 18.9432C227.89 18.5568 227.401 18.3636 226.78 18.3636C226.352 18.3636 225.969 18.4564 225.632 18.642C225.299 18.8277 225.036 19.0985 224.842 19.4545C224.649 19.8106 224.553 20.2424 224.553 20.75ZM235.139 26.2045C234.586 26.2045 234.084 26.1004 233.634 25.892C233.183 25.6799 232.825 25.375 232.56 24.9773C232.295 24.5758 232.162 24.0909 232.162 23.5227C232.162 23.0227 232.26 22.6174 232.457 22.3068C232.654 21.9924 232.918 21.7462 233.247 21.5682C233.577 21.3902 233.94 21.2576 234.338 21.1705C234.74 21.0795 235.143 21.0076 235.548 20.9545C236.079 20.8864 236.509 20.8352 236.838 20.8011C237.171 20.7633 237.414 20.7008 237.565 20.6136C237.721 20.5265 237.798 20.375 237.798 20.1591V20.1136C237.798 19.553 237.645 19.1174 237.338 18.8068C237.035 18.4962 236.575 18.3409 235.957 18.3409C235.317 18.3409 234.815 18.4811 234.452 18.7614C234.088 19.0417 233.832 19.3409 233.685 19.6591L232.412 19.2045C232.639 18.6742 232.942 18.2614 233.321 17.9659C233.704 17.6667 234.12 17.4583 234.571 17.3409C235.026 17.2197 235.473 17.1591 235.912 17.1591C236.192 17.1591 236.514 17.1932 236.878 17.2614C237.245 17.3258 237.599 17.4602 237.94 17.6648C238.285 17.8693 238.571 18.178 238.798 18.5909C239.026 19.0038 239.139 19.5568 239.139 20.25V26H237.798V24.8182H237.73C237.639 25.0076 237.488 25.2102 237.276 25.4261C237.063 25.642 236.781 25.8258 236.429 25.9773C236.077 26.1288 235.647 26.2045 235.139 26.2045ZM235.344 25C235.874 25 236.321 24.8958 236.685 24.6875C237.052 24.4792 237.329 24.2102 237.514 23.8807C237.704 23.5511 237.798 23.2045 237.798 22.8409V21.6136C237.741 21.6818 237.616 21.7443 237.423 21.8011C237.234 21.8542 237.014 21.9015 236.764 21.9432C236.518 21.9811 236.277 22.0152 236.043 22.0455C235.812 22.072 235.624 22.0947 235.48 22.1136C235.132 22.1591 234.806 22.233 234.503 22.3352C234.204 22.4337 233.961 22.5833 233.776 22.7841C233.594 22.9811 233.503 23.25 233.503 23.5909C233.503 24.0568 233.675 24.4091 234.02 24.6477C234.368 24.8826 234.81 25 235.344 25ZM241.587 26V17.2727H242.882V18.6364H242.996C243.178 18.1705 243.471 17.8087 243.876 17.5511C244.282 17.2898 244.768 17.1591 245.337 17.1591C245.912 17.1591 246.392 17.2898 246.774 17.5511C247.161 17.8087 247.462 18.1705 247.678 18.6364H247.768C247.992 18.1856 248.327 17.8277 248.774 17.5625C249.221 17.2936 249.757 17.1591 250.382 17.1591C251.162 17.1591 251.801 17.4034 252.297 17.892C252.793 18.3769 253.041 19.1326 253.041 20.1591V26H251.7V20.1591C251.7 19.5152 251.524 19.0549 251.172 18.7784C250.82 18.5019 250.405 18.3636 249.928 18.3636C249.314 18.3636 248.839 18.5492 248.501 18.9205C248.164 19.2879 247.996 19.7538 247.996 20.3182V26H246.632V20.0227C246.632 19.5265 246.471 19.1269 246.149 18.8239C245.827 18.517 245.412 18.3636 244.905 18.3636C244.556 18.3636 244.231 18.4564 243.928 18.642C243.628 18.8277 243.386 19.0852 243.2 19.4148C243.018 19.7405 242.928 20.1174 242.928 20.5455V26H241.587ZM259.152 26.1818C258.311 26.1818 257.586 25.9962 256.976 25.625C256.37 25.25 255.902 24.7273 255.572 24.0568C255.247 23.3826 255.084 22.5985 255.084 21.7045C255.084 20.8106 255.247 20.0227 255.572 19.3409C255.902 18.6553 256.36 18.1212 256.947 17.7386C257.538 17.3523 258.228 17.1591 259.016 17.1591C259.47 17.1591 259.919 17.2348 260.362 17.3864C260.805 17.5379 261.209 17.7841 261.572 18.125C261.936 18.4621 262.226 18.9091 262.442 19.4659C262.658 20.0227 262.766 20.7083 262.766 21.5227V22.0909H256.038V20.9318H261.402C261.402 20.4394 261.304 20 261.107 19.6136C260.913 19.2273 260.637 18.9223 260.277 18.6989C259.921 18.4754 259.5 18.3636 259.016 18.3636C258.482 18.3636 258.019 18.4962 257.629 18.7614C257.243 19.0227 256.946 19.3636 256.737 19.7841C256.529 20.2045 256.425 20.6553 256.425 21.1364V21.9091C256.425 22.5682 256.538 23.1269 256.766 23.5852C256.997 24.0398 257.317 24.3864 257.726 24.625C258.135 24.8598 258.61 24.9773 259.152 24.9773C259.504 24.9773 259.822 24.928 260.107 24.8295C260.394 24.7273 260.643 24.5758 260.851 24.375C261.059 24.1705 261.22 23.9167 261.334 23.6136L262.629 23.9773C262.493 24.4167 262.264 24.803 261.942 25.1364C261.62 25.4659 261.222 25.7235 260.749 25.9091C260.275 26.0909 259.743 26.1818 259.152 26.1818Z" fill="#212427" fill-opacity="0.3"/>
<a href="https://linkedincom/in/username">
<rect fill="black" fill-opacity="0" y="-0.181818" width="248.584" height="19.3636"/>
</a>
<g clip-path="url(#clip0_91_2452)">
<path d="M608.149 18.144L608.851 18.8565L605.955 21.71C605.767 21.8963 605.513 22.0006 605.248 22.0001C604.984 21.9996 604.73 21.8944 604.543 21.7075L603.152 20.3595L603.849 19.641L605.245 20.9945L608.149 18.144ZM612 20C612 23.3085 609.309 26 606 26C602.691 26 600 23.3085 600 20C600 16.6915 602.691 14 606 14C609.309 14 612 16.6915 612 20ZM611 20C611 17.243 608.757 15 606 15C603.243 15 601 17.243 601 20C601 22.757 603.243 25 606 25C608.757 25 611 22.757 611 20Z" fill="#54C4FF"/>
</g>
<rect x="0.25" y="0.25" width="635.5" height="39.5" rx="5.75" stroke="#212427" stroke-width="0.5"/>
<defs>
<clipPath id="clip0_91_2452">
<rect width="12" height="12" fill="white" transform="translate(600 14)"/>
</clipPath>
</defs>
</svg>
