<svg width="71" height="16" viewBox="0 0 71 16" fill="none" xmlns="http://www.w3.org/2000/svg">
<path d="M31.4181 3.04688H32.7306V9.78027C32.7306 10.5277 32.5643 11.1497 32.2316 11.6465C31.8989 12.1432 31.4569 12.5169 30.9055 12.7676C30.3586 13.0137 29.7638 13.1367 29.1213 13.1367C28.4468 13.1367 27.8361 13.0137 27.2892 12.7676C26.7469 12.5169 26.3163 12.1432 25.9972 11.6465C25.6828 11.1497 25.5256 10.5277 25.5256 9.78027V3.04688H26.8312V9.78027C26.8312 10.2998 26.9269 10.7282 27.1183 11.0654C27.3097 11.4027 27.5763 11.6533 27.9181 11.8174C28.2645 11.9814 28.6655 12.0635 29.1213 12.0635C29.5816 12.0635 29.9826 11.9814 30.3244 11.8174C30.6708 11.6533 30.9396 11.4027 31.131 11.0654C31.3224 10.7282 31.4181 10.2998 31.4181 9.78027V3.04688ZM35.8752 7.02539V15.8438H34.6037V5.60352H35.7658L35.8752 7.02539ZM40.8586 9.24023V9.38379C40.8586 9.92155 40.7948 10.4206 40.6672 10.8809C40.5396 11.3366 40.3527 11.7331 40.1066 12.0703C39.8651 12.4076 39.5666 12.6696 39.2111 12.8564C38.8556 13.0433 38.4478 13.1367 37.9875 13.1367C37.5181 13.1367 37.1034 13.0592 36.7433 12.9043C36.3833 12.7493 36.078 12.5238 35.8273 12.2275C35.5767 11.9313 35.3762 11.5758 35.2258 11.1611C35.0799 10.7464 34.9797 10.2793 34.925 9.75977V8.99414C34.9797 8.44727 35.0822 7.95736 35.2326 7.52441C35.383 7.09147 35.5812 6.72233 35.8273 6.41699C36.078 6.1071 36.381 5.8724 36.7365 5.71289C37.092 5.54883 37.5021 5.4668 37.967 5.4668C38.4318 5.4668 38.8443 5.55794 39.2043 5.74023C39.5643 5.91797 39.8674 6.17318 40.1135 6.50586C40.3596 6.83854 40.5441 7.2373 40.6672 7.70215C40.7948 8.16243 40.8586 8.67513 40.8586 9.24023ZM39.5871 9.38379V9.24023C39.5871 8.87109 39.5484 8.52474 39.4709 8.20117C39.3934 7.87305 39.2726 7.58594 39.1086 7.33984C38.9491 7.08919 38.744 6.89323 38.4933 6.75195C38.2427 6.60612 37.9442 6.5332 37.5978 6.5332C37.2788 6.5332 37.0008 6.58789 36.7638 6.69727C36.5314 6.80664 36.3332 6.95475 36.1691 7.1416C36.0051 7.32389 35.8706 7.53353 35.7658 7.77051C35.6655 8.00293 35.5903 8.24447 35.5402 8.49512V10.2656C35.6314 10.5846 35.759 10.8854 35.923 11.168C36.0871 11.446 36.3058 11.6715 36.5793 11.8447C36.8527 12.0133 37.1968 12.0977 37.6115 12.0977C37.9533 12.0977 38.2472 12.027 38.4933 11.8857C38.744 11.7399 38.9491 11.5417 39.1086 11.291C39.2726 11.0404 39.3934 10.7533 39.4709 10.4297C39.5484 10.1016 39.5871 9.75293 39.5871 9.38379ZM43.8459 2.5V13H42.5744V2.5H43.8459ZM45.5412 9.38379V9.22656C45.5412 8.69336 45.6187 8.19889 45.7736 7.74316C45.9286 7.28288 46.1519 6.88411 46.4435 6.54688C46.7352 6.20508 47.0884 5.94076 47.5031 5.75391C47.9178 5.5625 48.3827 5.4668 48.8976 5.4668C49.4172 5.4668 49.8843 5.5625 50.299 5.75391C50.7183 5.94076 51.0737 6.20508 51.3654 6.54688C51.6616 6.88411 51.8872 7.28288 52.0422 7.74316C52.1971 8.19889 52.2746 8.69336 52.2746 9.22656V9.38379C52.2746 9.91699 52.1971 10.4115 52.0422 10.8672C51.8872 11.3229 51.6616 11.7217 51.3654 12.0635C51.0737 12.4007 50.7206 12.665 50.3058 12.8564C49.8957 13.0433 49.4308 13.1367 48.9113 13.1367C48.3918 13.1367 47.9247 13.0433 47.5099 12.8564C47.0952 12.665 46.7398 12.4007 46.4435 12.0635C46.1519 11.7217 45.9286 11.3229 45.7736 10.8672C45.6187 10.4115 45.5412 9.91699 45.5412 9.38379ZM46.8058 9.22656V9.38379C46.8058 9.75293 46.8491 10.1016 46.9357 10.4297C47.0223 10.7533 47.1522 11.0404 47.3254 11.291C47.5031 11.5417 47.7241 11.7399 47.9885 11.8857C48.2528 12.027 48.5604 12.0977 48.9113 12.0977C49.2577 12.0977 49.5607 12.027 49.8205 11.8857C50.0848 11.7399 50.3036 11.5417 50.4767 11.291C50.6499 11.0404 50.7798 10.7533 50.8664 10.4297C50.9575 10.1016 51.0031 9.75293 51.0031 9.38379V9.22656C51.0031 8.86198 50.9575 8.5179 50.8664 8.19434C50.7798 7.86621 50.6476 7.57682 50.4699 7.32617C50.2967 7.07096 50.078 6.87044 49.8137 6.72461C49.5539 6.57878 49.2485 6.50586 48.8976 6.50586C48.5513 6.50586 48.2459 6.57878 47.9816 6.72461C47.7219 6.87044 47.5031 7.07096 47.3254 7.32617C47.1522 7.57682 47.0223 7.86621 46.9357 8.19434C46.8491 8.5179 46.8058 8.86198 46.8058 9.22656ZM58.2219 11.7354V7.92773C58.2219 7.63607 58.1626 7.38314 58.0441 7.16895C57.9302 6.9502 57.757 6.78158 57.5246 6.66309C57.2922 6.5446 57.0051 6.48535 56.6633 6.48535C56.3443 6.48535 56.064 6.54004 55.8224 6.64941C55.5855 6.75879 55.3986 6.90234 55.2619 7.08008C55.1297 7.25781 55.0637 7.44922 55.0637 7.6543H53.799C53.799 7.38997 53.8674 7.12793 54.0041 6.86816C54.1408 6.6084 54.3368 6.3737 54.592 6.16406C54.8517 5.94987 55.1616 5.78125 55.5217 5.6582C55.8862 5.5306 56.2918 5.4668 56.7385 5.4668C57.2762 5.4668 57.7502 5.55794 58.1603 5.74023C58.575 5.92253 58.8986 6.19824 59.131 6.56738C59.368 6.93197 59.4865 7.38997 59.4865 7.94141V11.3867C59.4865 11.6328 59.507 11.8949 59.548 12.1729C59.5936 12.4508 59.6597 12.6901 59.7463 12.8906V13H58.4269C58.3631 12.8542 58.313 12.6605 58.2765 12.4189C58.2401 12.1729 58.2219 11.945 58.2219 11.7354ZM58.4406 8.51562L58.4543 9.4043H57.176C56.8159 9.4043 56.4946 9.43392 56.2121 9.49316C55.9295 9.54785 55.6926 9.63216 55.5012 9.74609C55.3097 9.86003 55.1639 10.0036 55.0637 10.1768C54.9634 10.3454 54.9133 10.5436 54.9133 10.7715C54.9133 11.0039 54.9657 11.2158 55.0705 11.4072C55.1753 11.5986 55.3325 11.7513 55.5422 11.8652C55.7564 11.9746 56.0184 12.0293 56.3283 12.0293C56.7157 12.0293 57.0575 11.9473 57.3537 11.7832C57.6499 11.6191 57.8846 11.4186 58.0578 11.1816C58.2355 10.9447 58.3312 10.7145 58.3449 10.4912L58.8849 11.0996C58.853 11.291 58.7665 11.5029 58.6252 11.7354C58.4839 11.9678 58.2948 12.1911 58.0578 12.4053C57.8254 12.6149 57.5474 12.7904 57.2238 12.9316C56.9048 13.0684 56.5448 13.1367 56.1437 13.1367C55.6424 13.1367 55.2027 13.0387 54.8244 12.8428C54.4507 12.6468 54.159 12.3848 53.9494 12.0566C53.7443 11.724 53.6418 11.3525 53.6418 10.9424C53.6418 10.5459 53.7193 10.1973 53.8742 9.89648C54.0291 9.59115 54.2525 9.33822 54.5441 9.1377C54.8358 8.93262 55.1867 8.77767 55.5969 8.67285C56.007 8.56803 56.465 8.51562 56.9709 8.51562H58.4406ZM66.1379 11.5645V2.5H67.4094V13H66.2472L66.1379 11.5645ZM61.1613 9.38379V9.24023C61.1613 8.67513 61.2297 8.16243 61.3664 7.70215C61.5077 7.2373 61.7059 6.83854 61.9611 6.50586C62.2209 6.17318 62.5285 5.91797 62.884 5.74023C63.244 5.55794 63.645 5.4668 64.0871 5.4668C64.5519 5.4668 64.9575 5.54883 65.3039 5.71289C65.6548 5.8724 65.951 6.1071 66.1926 6.41699C66.4387 6.72233 66.6323 7.09147 66.7736 7.52441C66.9149 7.95736 67.0129 8.44727 67.0676 8.99414V9.62305C67.0174 10.1654 66.9194 10.653 66.7736 11.0859C66.6323 11.5189 66.4387 11.888 66.1926 12.1934C65.951 12.4987 65.6548 12.7334 65.3039 12.8975C64.953 13.057 64.5428 13.1367 64.0734 13.1367C63.6405 13.1367 63.244 13.0433 62.884 12.8564C62.5285 12.6696 62.2209 12.4076 61.9611 12.0703C61.7059 11.7331 61.5077 11.3366 61.3664 10.8809C61.2297 10.4206 61.1613 9.92155 61.1613 9.38379ZM62.4328 9.24023V9.38379C62.4328 9.75293 62.4693 10.0993 62.5422 10.4229C62.6196 10.7464 62.7381 11.0312 62.8976 11.2773C63.0571 11.5234 63.2599 11.7171 63.506 11.8584C63.7521 11.9951 64.0461 12.0635 64.3879 12.0635C64.8071 12.0635 65.1512 11.9746 65.4201 11.7969C65.6935 11.6191 65.9123 11.3844 66.0763 11.0928C66.2404 10.8011 66.368 10.4844 66.4592 10.1426V8.49512C66.4045 8.24447 66.3247 8.00293 66.2199 7.77051C66.1196 7.53353 65.9875 7.32389 65.8234 7.1416C65.6639 6.95475 65.4657 6.80664 65.2287 6.69727C64.9963 6.58789 64.7206 6.5332 64.4015 6.5332C64.0552 6.5332 63.7567 6.60612 63.506 6.75195C63.2599 6.89323 63.0571 7.08919 62.8976 7.33984C62.7381 7.58594 62.6196 7.87305 62.5422 8.20117C62.4693 8.52474 62.4328 8.87109 62.4328 9.24023Z" fill="#0077B5"/>
<path d="M11.0625 8.31934V11.5771C11.0625 11.8356 10.8522 12.0459 10.5938 12.0459H1.40625C1.14778 12.0459 0.9375 11.8356 0.9375 11.5771V8.31934H0V11.5771C0 12.3526 0.630844 12.9834 1.40625 12.9834H10.5938C11.3692 12.9834 12 12.3526 12 11.5771V8.31934H11.0625Z" fill="#0077B5"/>
<path d="M5.99884 1L3.08594 3.91291L3.74884 4.57581L5.53009 2.79456V10.1004H6.46759V2.79456L8.24884 4.57581L8.91175 3.91291L5.99884 1Z" fill="#0077B5"/>
</svg>
