<svg width="104" height="90" viewBox="0 0 104 90" fill="none" xmlns="http://www.w3.org/2000/svg">
<g opacity="0.7">
<path d="M96.9267 8.06331C101.169 8.61071 104.195 12.4674 103.732 16.7377L97.712 70.229C97.2491 74.4862 93.4369 77.5605 89.1976 77.0954C89.1127 77.0861 89.0281 77.0753 88.9434 77.0632H88.5508V28.0403C88.5508 23.6853 85.035 20.1546 80.6983 20.1546H15.2607L16.7004 7.01178C17.2462 2.67913 21.1448 -0.418101 25.469 0.0460307L96.9267 8.06331Z" fill="#00ACEA"/>
<path d="M88.5494 77.0625V81.7939C88.5494 86.1489 85.0336 89.6796 80.6969 89.6796H8.84665C4.50995 89.6796 0.994141 86.1489 0.994141 81.7939V70.7538L22.5885 54.9824C26.0124 52.3737 30.8035 52.5949 33.9746 55.5082L48.3707 68.1253C49.8428 69.379 51.6672 70.1411 53.5904 70.306C55.5135 70.4709 57.4401 70.0302 59.1025 69.0452L88.5494 51.6968V77.0625Z" fill="#00CEB4"/>
<path d="M88.5494 28.0402V51.6974L59.1025 69.0458C57.4401 70.0308 55.5135 70.4715 53.5904 70.3066C51.6672 70.1418 49.8428 69.3796 48.3707 68.1259L33.9746 55.5088C30.8035 52.5957 26.0124 52.3743 22.5885 54.983L0.994141 70.7545V28.0402C0.994141 23.6852 4.50995 20.1545 8.84665 20.1545H80.6969C85.0338 20.1548 88.5494 23.6852 88.5494 28.0402Z" fill="#00EFD1"/>
<path d="M53.3438 50.1214C57.9698 50.1214 61.7199 46.3555 61.7199 41.7099C61.7199 37.0644 57.9698 33.2985 53.3438 33.2985C48.7179 33.2985 44.9678 37.0644 44.9678 41.7099C44.9678 46.3555 48.7179 50.1214 53.3438 50.1214Z" fill="#D4E1F4"/>
</g>
</svg>
