<svg width="100" height="100" viewBox="0 0 100 100" fill="none" xmlns="http://www.w3.org/2000/svg">
<path d="M7.59219 29.1422H23.041C23.85 29.1422 24.5059 28.4865 24.5059 27.6774C24.5059 26.8682 23.85 26.2125 23.041 26.2125H7.59219C6.7832 26.2125 6.12734 26.8682 6.12734 27.6774C6.12734 28.4865 6.78301 29.1422 7.59219 29.1422ZM22.5113 36.1944H16.4086C15.5996 36.1944 14.9438 36.85 14.9438 37.6592C14.9438 38.4684 15.5996 39.124 16.4086 39.124H22.5113C23.3203 39.124 23.9762 38.4684 23.9762 37.6592C23.9762 36.85 23.3203 36.1944 22.5113 36.1944ZM1.46484 46.3526H16.4086C17.2176 46.3526 17.8734 45.6969 17.8734 44.8877C17.8734 44.0785 17.2176 43.4229 16.4086 43.4229H1.46484C0.655859 43.4229 0 44.0785 0 44.8877C0 45.6969 0.655859 46.3526 1.46484 46.3526ZM24.5059 72.3217C24.5059 71.9332 24.3515 71.5606 24.0768 71.2859C23.8021 71.0112 23.4295 70.8569 23.041 70.8569H7.59219C6.7832 70.8569 6.12734 71.5125 6.12734 72.3217C6.12734 73.1309 6.7832 73.7865 7.59219 73.7865H23.041C23.4295 73.7865 23.8021 73.6322 24.0768 73.3575C24.3515 73.0828 24.5059 72.7102 24.5059 72.3217ZM22.5113 60.8752H16.4086C15.5996 60.8752 14.9438 61.5309 14.9438 62.3401C14.9438 63.1492 15.5996 63.8049 16.4086 63.8049H22.5113C23.3203 63.8049 23.9762 63.1492 23.9762 62.3401C23.9762 61.5309 23.3203 60.8752 22.5113 60.8752ZM17.8734 55.1115C17.8734 54.723 17.7191 54.3505 17.4444 54.0757C17.1697 53.801 16.7971 53.6467 16.4086 53.6467H1.46484C0.655859 53.6467 0 54.3024 0 55.1115C0 55.9207 0.655859 56.5764 1.46484 56.5764H16.4086C16.7971 56.5764 17.1697 56.4221 17.4444 56.1473C17.7191 55.8726 17.8734 55.5 17.8734 55.1115ZM62.408 32.3883C63.2172 32.3883 63.8729 31.7326 63.8729 30.9235V28.6875C63.8729 27.8783 63.2172 27.2227 62.408 27.2227C61.5988 27.2227 60.9432 27.8783 60.9432 28.6875V30.9235C60.9432 31.7326 61.5988 32.3883 62.408 32.3883ZM78.5137 33.8938C78.2389 33.6191 77.8663 33.4649 77.4778 33.4649C77.0893 33.4649 76.7168 33.6191 76.442 33.8938L74.8609 35.4748C74.5862 35.7495 74.4319 36.1222 74.4319 36.5107C74.4319 36.8992 74.5862 37.2718 74.8609 37.5465C75.1357 37.8212 75.5083 37.9756 75.8968 37.9756C76.2853 37.9756 76.6579 37.8212 76.9326 37.5465L78.5137 35.9655C78.7883 35.6907 78.9426 35.3181 78.9426 34.9296C78.9426 34.5411 78.7883 34.1685 78.5137 33.8938ZM81.4842 48.5348C80.675 48.5348 80.0193 49.1905 80.0193 49.9996C80.0193 50.8088 80.675 51.4645 81.4842 51.4645H83.7199C84.5291 51.4645 85.1848 50.8088 85.1848 49.9996C85.1848 49.1905 84.5291 48.5348 83.7199 48.5348H81.4842ZM76.9326 62.4526C76.7966 62.3165 76.6351 62.2086 76.4574 62.135C76.2796 62.0614 76.0892 62.0235 75.8968 62.0235C75.7044 62.0235 75.5139 62.0614 75.3362 62.135C75.1585 62.2086 74.997 62.3165 74.8609 62.4526C74.7249 62.5886 74.617 62.7501 74.5434 62.9278C74.4698 63.1055 74.4319 63.296 74.4319 63.4884C74.4319 63.6808 74.4698 63.8713 74.5434 64.049C74.617 64.2267 74.7249 64.3882 74.8609 64.5242L76.442 66.1053C76.718 66.3738 77.0886 66.5228 77.4736 66.5201C77.8587 66.5175 78.2272 66.3633 78.4994 66.0911C78.7717 65.8188 78.9258 65.4503 78.9285 65.0653C78.9312 64.6802 78.7822 64.3096 78.5137 64.0336L76.9326 62.4526ZM60.9432 69.0758V71.3115C60.9432 72.1207 61.5988 72.7764 62.408 72.7764C63.2172 72.7764 63.8729 72.1207 63.8729 71.3115V69.0758C63.8729 68.2666 63.2172 67.611 62.408 67.611C61.5988 67.611 60.9432 68.2668 60.9432 69.0758ZM47.8832 62.4526L46.3022 64.0336C46.0294 64.3087 45.8768 64.6807 45.8776 65.0681C45.8784 65.4554 46.0327 65.8267 46.3066 66.1007C46.5805 66.3746 46.9518 66.5289 47.3392 66.5298C47.7265 66.5306 48.0985 66.378 48.3736 66.1053L49.9547 64.5242C50.2274 64.2491 50.3801 63.8772 50.3793 63.4898C50.3784 63.1024 50.2242 62.7311 49.9503 62.4572C49.6763 62.1832 49.3051 62.029 48.9177 62.0281C48.5303 62.0272 48.1583 62.1798 47.8832 62.4526ZM41.0959 48.5348C40.2869 48.5348 39.6311 49.1905 39.6311 49.9996C39.6311 50.8088 40.2869 51.4645 41.0959 51.4645H43.3318C44.1408 51.4645 44.7967 50.8088 44.7967 49.9996C44.7967 49.1905 44.1408 48.5348 43.3318 48.5348H41.0959ZM49.9549 35.4748L48.3738 33.8938C48.0975 33.6267 47.7274 33.4789 47.3432 33.4821C46.9589 33.4854 46.5913 33.6395 46.3196 33.9112C46.0479 34.183 45.8938 34.5506 45.8906 34.9348C45.8874 35.3191 46.0353 35.6892 46.3023 35.9655L47.8834 37.5465C48.1585 37.8192 48.5305 37.9718 48.9179 37.971C49.3053 37.9701 49.6765 37.8158 49.9505 37.5419C50.2244 37.2679 50.3786 36.8967 50.3794 36.5093C50.3803 36.1219 50.2276 35.7499 49.9549 35.4748ZM70.285 49.9996C70.285 49.1905 69.6293 48.5348 68.8201 48.5348H63.8729V37.659C63.8729 36.8498 63.2172 36.1942 62.408 36.1942C61.5988 36.1942 60.9432 36.8498 60.9432 37.659V49.9996C60.9432 50.8088 61.5988 51.4645 62.408 51.4645H68.8201C69.2086 51.4645 69.5812 51.3101 69.8559 51.0354C70.1306 50.7607 70.285 50.3881 70.285 49.9996Z" fill="#00A0DC"/>
<path d="M90.1846 49.758C90.5723 49.7345 90.9349 49.5579 91.1924 49.267C91.45 48.9762 91.5815 48.595 91.558 48.2072C90.6262 32.8355 77.8223 20.7943 62.4086 20.7943C46.3047 20.7943 33.2031 33.8959 33.2031 50C33.2031 66.1039 46.3047 79.2054 62.4086 79.2054C76.8361 79.2054 89.1469 68.6347 91.2885 54.3701C91.317 54.1799 91.3078 53.9859 91.2614 53.7992C91.215 53.6125 91.1322 53.4368 91.0179 53.2821C90.9036 53.1274 90.7599 52.9967 90.595 52.8975C90.4302 52.7984 90.2475 52.7326 90.0572 52.7041C89.867 52.6755 89.673 52.6847 89.4863 52.7312C89.2996 52.7776 89.1239 52.8603 88.9692 52.9747C88.8145 53.089 88.6838 53.2327 88.5847 53.3975C88.4855 53.5623 88.4198 53.7451 88.3912 53.9353C86.4674 66.7506 75.4018 76.2759 62.4086 76.2759C47.9201 76.2759 36.1328 64.4887 36.1328 50.0002C36.1328 35.5117 47.9201 23.7242 62.4086 23.7242C76.276 23.7242 87.7953 34.5564 88.6336 48.3849C88.6824 49.192 89.3762 49.8049 90.1846 49.758Z" fill="#00A0DC"/>
<path d="M62.4076 12.4072C57.2551 12.4072 52.2068 13.4762 47.5603 15.4752H21.7148C20.9059 15.4752 20.25 16.1309 20.25 16.94C20.25 17.7492 20.9059 18.4049 21.7148 18.4049H42.0494C39.2767 20.1886 36.7509 22.3296 34.5373 24.7729C34.2787 25.0612 34.1449 25.4401 34.165 25.8269C34.185 26.2136 34.3575 26.5767 34.6445 26.8366C34.9316 27.0966 35.3099 27.2323 35.6967 27.2141C36.0835 27.1959 36.4474 27.0252 36.7088 26.7395C43.2717 19.493 52.6387 15.3369 62.4076 15.3369C81.5205 15.3369 97.0701 30.8863 97.0701 49.9992C97.0701 69.1119 81.5207 84.6615 62.4076 84.6615C43.2947 84.6615 27.7453 69.1121 27.7453 49.9992C27.7453 43.3063 29.6572 36.8102 33.274 31.2129C33.4825 30.8866 33.5534 30.491 33.471 30.1126C33.3887 29.7342 33.1599 29.4039 32.8346 29.1937C32.5094 28.9836 32.1141 28.9108 31.7353 28.9912C31.3566 29.0717 31.025 29.2988 30.8133 29.623C26.8895 35.6949 24.8156 42.7408 24.8156 49.9992C24.8156 63.2348 31.6918 74.8934 42.0588 81.5936H21.715C20.9061 81.5936 20.2502 82.2492 20.2502 83.0584C20.2502 83.8676 20.9061 84.5232 21.715 84.5232H47.5402C52.1027 86.4957 57.1295 87.5912 62.4078 87.5912C83.1359 87.5912 99.9998 70.7275 99.9998 49.9992C99.9998 29.2709 83.1359 12.4072 62.4076 12.4072Z" fill="#00A0DC"/>
</svg>
