<svg width="18" height="18" viewBox="0 0 18 18" fill="none" xmlns="http://www.w3.org/2000/svg">
<path fill-rule="evenodd" clip-rule="evenodd" d="M15.3045 2.61602C14.4781 1.78429 13.4948 1.12479 12.4117 0.675744C11.3287 0.226697 10.1672 -0.00297589 8.99473 2.91103e-05C4.07849 2.91103e-05 0.0772499 4.00052 0.0749999 8.91901C0.0730307 10.4844 0.483838 12.0226 1.266 13.3785L0 18L4.72799 16.7595C6.03566 17.472 7.50106 17.8454 8.99023 17.8455H8.99399C13.9095 17.8455 17.9115 13.8443 17.9137 8.92577C17.9176 7.75375 17.689 6.5926 17.2411 5.50954C16.7932 4.42647 16.135 3.44299 15.3045 2.61602ZM8.99473 16.3388H8.99173C7.66401 16.3392 6.36065 15.9822 5.21849 15.3053L4.94774 15.1448L2.142 15.8805L2.89125 13.1445L2.715 12.864C1.97237 11.6824 1.57947 10.3146 1.58175 8.91901C1.58325 4.83152 4.90949 1.50603 8.99849 1.50603C10.9785 1.50603 12.84 2.27853 14.2395 3.67952C14.9297 4.36701 15.4768 5.1845 15.8491 6.08474C16.2214 6.98498 16.4115 7.95009 16.4085 8.92426C16.4062 13.0133 13.0807 16.3388 8.99473 16.3388ZM13.0612 10.7865C12.8385 10.6748 11.7427 10.1355 11.538 10.0613C11.334 9.98701 11.1855 9.94951 11.0362 10.1723C10.887 10.395 10.461 10.8975 10.3305 11.0468C10.2007 11.1953 10.0702 11.214 9.84748 11.1023C9.62473 10.9905 8.90623 10.7558 8.05499 9.99601C7.39274 9.40501 6.94499 8.67527 6.81524 8.45177C6.68549 8.22827 6.80174 8.10827 6.91274 7.99727C7.01324 7.89752 7.13549 7.73702 7.24724 7.60652C7.35974 7.47752 7.39649 7.38452 7.47149 7.23527C7.54574 7.08677 7.50899 6.95627 7.45274 6.84452C7.39649 6.73352 6.95099 5.63627 6.76574 5.19002C6.58499 4.75502 6.40124 4.81427 6.26399 4.80752C6.13424 4.80077 5.98574 4.80002 5.83649 4.80002C5.68799 4.80002 5.44649 4.85552 5.24249 5.07902C5.03849 5.30252 4.46249 5.84177 4.46249 6.93827C4.46249 8.03552 5.26124 9.09526 5.37224 9.24376C5.48324 9.39226 6.94349 11.6438 9.17923 12.609C9.71098 12.8385 10.1265 12.9758 10.4497 13.0785C10.9837 13.248 11.4697 13.224 11.8537 13.167C12.282 13.1033 13.1722 12.6278 13.3582 12.1073C13.5442 11.5868 13.5442 11.1398 13.488 11.0475C13.4325 10.9538 13.284 10.8983 13.0612 10.7865Z" fill="#25D366"/>
</svg>
