<svg width="176" height="80" viewBox="0 0 176 80" fill="none" xmlns="http://www.w3.org/2000/svg">
<g filter="url(#filter0_d_201_1638)">
<rect x="17" y="16" width="135.34" height="40" rx="6" fill="white"/>
<rect x="17.5" y="16.5" width="134.34" height="39" rx="5.5" stroke="#A7A9AB"/>
<path d="M64.1464 25.5306L63.6313 23.9175C63.505 23.519 63.3981 23.0745 63.301 22.6955H63.2815C63.1868 23.0745 63.0872 23.5288 62.973 23.9175L62.4677 25.5306H64.1464ZM62.2733 26.4319L61.7097 28.2879H60.4756L62.5746 21.7432H64.0978L66.2235 28.2879H64.9432L64.3504 26.4319" fill="#1C1C1C"/>
<path d="M68.0092 23.5601L68.7769 25.9554C68.913 26.3733 69.0077 26.7523 69.0952 27.141H69.1243C69.2118 26.7523 69.3187 26.383 69.445 25.9554L70.203 23.5601H71.4541L69.6491 28.2876H68.4757L66.7168 23.5601" fill="#1C1C1C"/>
<path d="M75.0563 25.9748C74.2109 25.9651 73.4043 26.14 73.4043 26.8591C73.4043 27.3256 73.7055 27.5393 74.0845 27.5393C74.568 27.5393 74.9105 27.2284 75.0247 26.8883C75.0563 26.8008 75.0563 26.7133 75.0563 26.6259V25.9748ZM76.2199 27.1506C76.2199 27.5782 76.2394 27.9961 76.2977 28.2852H75.219L75.134 27.7628H75.1024C74.8231 28.1297 74.3275 28.392 73.7055 28.392C72.7532 28.392 72.2212 27.7045 72.2212 26.9854C72.2212 25.7999 73.278 25.1901 75.0247 25.1998V25.1221C75.0247 24.8111 74.9008 24.2961 74.0651 24.2961C73.5986 24.2961 73.1128 24.4419 72.7921 24.6459L72.5589 23.8685C72.9087 23.6548 73.5209 23.4531 74.2692 23.4531C75.7827 23.4531 76.2199 24.4127 76.2199 25.4525" fill="#1C1C1C"/>
<path d="M77.9088 23.5605H79.1017V28.2881H77.9088V23.5605ZM78.4992 22.8803C78.1032 22.8803 77.8408 22.5888 77.8408 22.239C77.8408 21.8697 78.1105 21.5879 78.5113 21.5879C78.917 21.5879 79.1697 21.8697 79.1794 22.239C79.1794 22.5888 78.917 22.8803 78.5113 22.8803" fill="#1C1C1C"/>
<path d="M80.8188 28.2876H82.0141V21.3833H80.8188V28.2876Z" fill="#1C1C1C"/>
<path d="M86.2462 25.9748C85.4008 25.9651 84.5942 26.14 84.5942 26.8591C84.5942 27.3256 84.8955 27.5393 85.2745 27.5393C85.7603 27.5393 86.1005 27.2284 86.2171 26.8883C86.2462 26.8008 86.2462 26.7133 86.2462 26.6259V25.9748ZM87.4099 27.1506C87.4099 27.5782 87.4293 27.9961 87.4876 28.2852H86.4114L86.324 27.7628H86.2948C86.013 28.1297 85.5174 28.392 84.8955 28.392C83.9456 28.392 83.4111 27.7045 83.4111 26.9854C83.4111 25.7999 84.4703 25.1901 86.2171 25.1998V25.1221C86.2171 24.8111 86.0907 24.2961 85.255 24.2961C84.7886 24.2961 84.3027 24.4419 83.9845 24.6459L83.7512 23.8685C84.1011 23.6548 84.7108 23.4531 85.4591 23.4531C86.9726 23.4531 87.4099 24.4127 87.4099 25.4525" fill="#1C1C1C"/>
<path d="M90.2937 26.3344C90.2937 26.4315 90.3034 26.5287 90.3228 26.6162C90.4492 27.1021 90.867 27.4519 91.3796 27.4519C92.1279 27.4519 92.5846 26.8591 92.5846 25.8995C92.5846 25.0638 92.1862 24.3836 91.3893 24.3836C90.9035 24.3836 90.4589 24.7334 90.3326 25.2582C90.3131 25.3456 90.2937 25.4525 90.2937 25.5691V26.3344ZM89.0984 21.3833H90.2937V24.2087H90.3131C90.6047 23.7519 91.1173 23.4531 91.8266 23.4531C92.983 23.4531 93.8066 24.4127 93.7969 25.8509C93.7969 27.5491 92.7206 28.3945 91.6517 28.3945C91.0395 28.3945 90.4978 28.1613 90.1576 27.5782H90.1382L90.0799 28.2876H89.0596C89.079 27.9669 89.0984 27.4422 89.0984 26.966" fill="#1C1C1C"/>
<path d="M95.2036 28.2876H96.3964V21.3833H95.2036V28.2876Z" fill="#1C1C1C"/>
<path d="M101.046 25.4233C101.056 24.9861 100.861 24.267 100.067 24.267C99.3285 24.267 99.0175 24.9375 98.9689 25.4233H101.046ZM98.9689 26.2566C98.9981 27.1118 99.6686 27.481 100.427 27.481C100.978 27.481 101.367 27.3936 101.736 27.2672L101.911 28.0811C101.503 28.2584 100.939 28.3823 100.261 28.3823C98.726 28.3823 97.8223 27.4422 97.8223 25.9967C97.8223 24.6848 98.6191 23.4531 100.135 23.4531C101.668 23.4531 102.173 24.714 102.173 25.7537C102.173 25.9772 102.154 26.1522 102.134 26.2566" fill="#1C1C1C"/>
<path d="M108.103 27.5296C108.781 27.5296 109.257 26.8688 109.257 25.9092C109.257 25.1707 108.927 24.3156 108.113 24.3156C107.268 24.3156 106.927 25.1415 106.927 25.9287C106.927 26.8397 107.384 27.5296 108.091 27.5296H108.103ZM108.064 28.3945C106.733 28.3945 105.696 27.481 105.696 25.9578C105.696 24.403 106.714 23.4531 108.142 23.4531C109.549 23.4531 110.491 24.4419 110.491 25.8801C110.491 27.6171 109.267 28.3945 108.074 28.3945" fill="#1C1C1C"/>
<path d="M111.895 24.9666C111.895 24.4224 111.878 23.9657 111.859 23.5576H112.896L112.955 24.267H112.984C113.197 23.8977 113.713 23.4531 114.5 23.4531C115.323 23.4531 116.178 23.9852 116.178 25.4817V28.2852H114.983V25.6177C114.983 24.9375 114.73 24.4224 114.082 24.4224C113.606 24.4224 113.275 24.7626 113.149 25.1221C113.11 25.2193 113.091 25.365 113.091 25.5011V28.2852H111.895" fill="#1C1C1C"/>
<path d="M121.681 22.3457V23.558H122.816V24.452H121.681V26.5291C121.681 27.1121 121.837 27.4037 122.291 27.4037C122.505 27.4037 122.621 27.3939 122.758 27.3551L122.777 28.2564C122.602 28.3268 122.281 28.3827 121.912 28.3827C121.468 28.3827 121.108 28.2369 120.884 27.9964C120.622 27.7243 120.505 27.2871 120.505 26.6651V24.452H119.835V23.558H120.505V22.6761" fill="#1C1C1C"/>
<path d="M124.145 21.3833H125.34V24.1989H125.359C125.505 23.9754 125.709 23.7908 125.952 23.6645C126.195 23.5309 126.474 23.4531 126.776 23.4531C127.582 23.4531 128.425 23.9852 128.425 25.5011V28.2876H127.232V25.6274C127.232 24.9472 126.98 24.4225 126.319 24.4225C125.855 24.4225 125.524 24.7334 125.388 25.093C125.35 25.1999 125.34 25.3262 125.34 25.4525V28.2876H124.145" fill="#1C1C1C"/>
<path d="M133.046 25.4233C133.055 24.9861 132.861 24.267 132.064 24.267C131.326 24.267 131.017 24.9375 130.968 25.4233H133.046ZM130.968 26.2566C130.998 27.1118 131.666 27.481 132.424 27.481C132.978 27.481 133.366 27.3936 133.733 27.2672L133.91 28.0811C133.502 28.2584 132.939 28.3823 132.258 28.3823C130.726 28.3823 129.822 27.4422 129.822 25.9967C129.822 24.6848 130.619 23.4531 132.132 23.4531C133.665 23.4531 134.17 24.714 134.17 25.7537C134.17 25.9772 134.151 26.1522 134.131 26.2566" fill="#1C1C1C"/>
<path d="M47.4198 34.6335C47.3882 31.3952 50.0702 29.8185 50.1941 29.7456C48.6758 27.53 46.3217 27.2288 45.4933 27.2045C43.5182 26.998 41.6014 28.39 40.5956 28.39C39.568 28.39 38.0156 27.2264 36.3467 27.2604C34.1942 27.2944 32.1827 28.5406 31.0798 30.472C28.8059 34.4149 30.5016 40.2065 32.6832 43.3938C33.7764 44.9535 35.0494 46.6978 36.7184 46.6346C38.3509 46.5666 38.9607 45.5949 40.9309 45.5949C42.8841 45.5949 43.4575 46.6346 45.1604 46.5958C46.912 46.5666 48.015 45.0288 49.0669 43.4522C50.3302 41.6641 50.8355 39.9028 50.8549 39.8129C50.8136 39.7984 47.4538 38.5157 47.4198 34.6335Z" fill="#1C1C1C"/>
<path d="M44.2034 25.1105C45.0804 24.0124 45.6853 22.5159 45.5153 21C44.2447 21.0583 42.6559 21.8794 41.74 22.9532C40.9311 23.9007 40.2047 25.453 40.3942 26.9107C41.8226 27.0176 43.2876 26.1916 44.2034 25.1105Z" fill="#1C1C1C"/>
<path d="M67.1223 40.816L65.995 37.3347C65.876 36.98 65.6525 36.1419 65.3221 34.8252H65.2832C65.152 35.3912 64.9382 36.2293 64.6491 37.3347L63.5414 40.816H67.1223ZM71.019 46.3768H68.7426L67.4964 42.4607H63.1672L61.9793 46.3768H59.7637L64.0588 33.0444H66.7068" fill="#1C1C1C"/>
<path d="M79.8809 41.5301C79.8809 40.5924 79.6696 39.8222 79.2469 39.2149C78.7853 38.5833 78.1658 38.265 77.3884 38.265C76.8612 38.265 76.3802 38.4424 75.9551 38.7898C75.5275 39.142 75.2457 39.5987 75.1121 40.1672C75.0465 40.4296 75.0149 40.6458 75.0149 40.8159V42.4192C75.0149 43.1189 75.2287 43.7092 75.6563 44.1903C76.0863 44.6737 76.6426 44.9118 77.3277 44.9118C78.1342 44.9118 78.761 44.6033 79.2056 43.9813C79.6574 43.3618 79.8809 42.5456 79.8809 41.5301ZM82.0577 41.4499C82.0577 43.0849 81.6155 44.3798 80.7312 45.3272C79.9393 46.1726 78.9554 46.5929 77.7844 46.5929C76.5163 46.5929 75.6077 46.1362 75.0538 45.2276H75.0149V50.2929H72.8771V39.9267C72.8771 38.8991 72.8528 37.8447 72.7993 36.7612H74.6772L74.7963 38.2869H74.8376C75.5494 37.1378 76.6304 36.5645 78.0808 36.5645C79.2129 36.5645 80.1628 37.0139 80.9183 37.9103C81.6763 38.8092 82.0577 39.9874 82.0577 41.4499Z" fill="#1C1C1C"/>
<path d="M90.9371 41.5301C90.9371 40.5924 90.7258 39.8222 90.303 39.2149C89.8415 38.5833 89.222 38.265 88.4446 38.265C87.9174 38.265 87.4388 38.4424 87.0112 38.7898C86.5812 39.142 86.3043 39.5987 86.1731 40.1672C86.1051 40.4296 86.0735 40.6458 86.0735 40.8159V42.4192C86.0735 43.1189 86.2849 43.7092 86.7124 44.1903C87.1424 44.6737 87.6988 44.9118 88.3863 44.9118C89.1904 44.9118 89.8172 44.6033 90.2642 43.9813C90.7112 43.3618 90.9371 42.5456 90.9371 41.5301ZM93.1114 41.4499C93.1114 43.0849 92.6717 44.3798 91.7874 45.3272C90.9954 46.1726 90.0139 46.5929 88.8406 46.5929C87.5749 46.5929 86.6663 46.1362 86.1099 45.2276H86.0735V50.2929H83.9357V39.9267C83.9357 38.8991 83.9089 37.8447 83.8579 36.7612H85.7358L85.8549 38.2869H85.8962C86.6055 37.1378 87.6866 36.5645 89.1369 36.5645C90.2715 36.5645 91.2165 37.0139 91.9769 37.9103C92.7349 38.8092 93.1114 39.9874 93.1114 41.4499Z" fill="#1C1C1C"/>
<path d="M105.477 42.638C105.477 43.7701 105.084 44.6933 104.292 45.4075C103.422 46.1849 102.214 46.5736 100.662 46.5736C99.2263 46.5736 98.0748 46.2967 97.2026 45.7428L97.6982 43.9645C98.6384 44.5305 99.666 44.8123 100.788 44.8123C101.593 44.8123 102.219 44.6325 102.669 44.2706C103.116 43.9062 103.339 43.4203 103.339 42.8129C103.339 42.2736 103.157 41.8145 102.788 41.4452C102.419 41.0759 101.804 40.7334 100.946 40.4152C98.6117 39.543 97.4456 38.2676 97.4456 36.5913C97.4456 35.4957 97.8537 34.5968 98.6724 33.8971C99.4887 33.1975 100.577 32.8452 101.935 32.8452C103.15 32.8452 104.158 33.059 104.962 33.4793L104.428 35.2211C103.677 34.813 102.827 34.6065 101.877 34.6065C101.124 34.6065 100.538 34.7911 100.118 35.1604C99.7632 35.4908 99.5834 35.8941 99.5834 36.3678C99.5834 36.895 99.7851 37.3298 100.196 37.6724C100.55 37.9882 101.197 38.3307 102.134 38.7024C103.281 39.164 104.124 39.7033 104.666 40.3228C105.205 40.9423 105.477 41.7149 105.477 42.638Z" fill="#1C1C1C"/>
<path d="M112.537 38.365H110.183V43.0318C110.183 44.2198 110.598 44.8125 111.432 44.8125C111.811 44.8125 112.129 44.781 112.379 44.7154L112.437 46.3358C112.019 46.4961 111.463 46.5738 110.778 46.5738C109.935 46.5738 109.274 46.3163 108.798 45.8037C108.324 45.2887 108.086 44.4238 108.086 43.2116V38.365H106.682V36.7616H108.086V35.0027L110.183 34.3687V36.7616H112.537" fill="#1C1C1C"/>
<path d="M120.945 41.5592C120.945 40.6725 120.753 39.9146 120.37 39.2781C119.925 38.5104 119.284 38.1265 118.453 38.1265C117.595 38.1265 116.942 38.5104 116.495 39.2781C116.111 39.9146 115.924 40.6871 115.924 41.6005C115.924 42.4873 116.111 43.2452 116.495 43.8793C116.956 44.647 117.602 45.0308 118.436 45.0308C119.25 45.0308 119.891 44.6421 120.353 43.8599C120.749 43.2137 120.945 42.446 120.945 41.5592ZM123.161 41.4912C123.161 42.9683 122.741 44.1805 121.895 45.1304C121.011 46.107 119.838 46.5929 118.375 46.5929C116.961 46.5929 115.839 46.124 115.001 45.1887C114.165 44.2534 113.747 43.0728 113.747 41.6491C113.747 40.1575 114.177 38.938 115.042 37.9905C115.904 37.0382 117.068 36.5645 118.531 36.5645C119.942 36.5645 121.079 37.0333 121.934 37.9686C122.753 38.8821 123.161 40.053 123.161 41.4912Z" fill="#1C1C1C"/>
<path d="M130.104 38.6416C129.893 38.6027 129.669 38.5833 129.431 38.5833C128.68 38.5833 128.097 38.8675 127.689 39.4335C127.334 39.9364 127.157 40.5681 127.157 41.3309V46.3767H125.022L125.039 39.7907C125.039 38.6804 125.012 37.6722 124.961 36.7612H126.822L126.9 38.6027H126.955C127.181 37.9711 127.539 37.4609 128.024 37.0795C128.501 36.7369 129.016 36.5645 129.569 36.5645C129.766 36.5645 129.946 36.579 130.104 36.6033" fill="#1C1C1C"/>
<path d="M137.618 40.5612C137.633 39.9295 137.494 39.3805 137.205 38.9189C136.836 38.3261 136.265 38.0273 135.502 38.0273C134.805 38.0273 134.236 38.3189 133.802 38.8995C133.447 39.3611 133.233 39.915 133.172 40.5612H137.618ZM139.654 41.1151C139.654 41.4989 139.63 41.8196 139.579 42.0844H133.172C133.194 43.0343 133.505 43.7607 134.1 44.2611C134.64 44.7105 135.339 44.9316 136.197 44.9316C137.144 44.9316 138.009 44.781 138.789 44.4773L139.124 45.9617C138.213 46.3552 137.14 46.5569 135.898 46.5569C134.409 46.5569 133.238 46.1172 132.388 45.2377C131.54 44.3631 131.112 43.1849 131.112 41.7078C131.112 40.2575 131.506 39.0501 132.3 38.0881C133.129 37.058 134.251 36.5454 135.66 36.5454C137.045 36.5454 138.097 37.058 138.809 38.0881C139.375 38.9043 139.654 39.915 139.654 41.1151Z" fill="#1C1C1C"/>
</g>
<defs>
<filter id="filter0_d_201_1638" x="0" y="0" width="175.34" height="80" filterUnits="userSpaceOnUse" color-interpolation-filters="sRGB">
<feFlood flood-opacity="0" result="BackgroundImageFix"/>
<feColorMatrix in="SourceAlpha" type="matrix" values="0 0 0 0 0 0 0 0 0 0 0 0 0 0 0 0 0 0 127 0" result="hardAlpha"/>
<feOffset dx="3" dy="4"/>
<feGaussianBlur stdDeviation="10"/>
<feComposite in2="hardAlpha" operator="out"/>
<feColorMatrix type="matrix" values="0 0 0 0 0.241667 0 0 0 0 0.241667 0 0 0 0 0.241667 0 0 0 0.15 0"/>
<feBlend mode="normal" in2="BackgroundImageFix" result="effect1_dropShadow_201_1638"/>
<feBlend mode="normal" in="SourceGraphic" in2="effect1_dropShadow_201_1638" result="shape"/>
</filter>
</defs>
</svg>
