<svg width="136" height="40" viewBox="0 0 136 40" fill="none" xmlns="http://www.w3.org/2000/svg">
<rect x="0.5" y="0.5" width="134.34" height="39" rx="5.5" fill="white"/>
<rect x="0.5" y="0.5" width="134.34" height="39" rx="5.5" stroke="#A7A9AB"/>
<path d="M47.1464 9.53056L46.6313 7.91746C46.505 7.51904 46.3981 7.07446 46.301 6.69548H46.2815C46.1868 7.07446 46.0872 7.52876 45.973 7.91746L45.4677 9.53056H47.1464ZM45.2733 10.4319L44.7097 12.2879H43.4756L45.5746 5.74316H47.0978L49.2235 12.2879H47.9432L47.3504 10.4319" fill="#1C1C1C"/>
<path d="M51.0092 7.56055L51.7769 9.95591C51.913 10.3738 52.0077 10.7527 52.0952 11.1414H52.1243C52.2118 10.7527 52.3187 10.3835 52.445 9.95591L53.203 7.56055H54.4541L52.6491 12.2881H51.4757L49.7168 7.56055" fill="#1C1C1C"/>
<path d="M58.0563 9.97482C57.2109 9.9651 56.4043 10.14 56.4043 10.8591C56.4043 11.3256 56.7055 11.5393 57.0845 11.5393C57.568 11.5393 57.9105 11.2284 58.0247 10.8883C58.0563 10.8008 58.0563 10.7133 58.0563 10.6259V9.97482ZM59.2199 11.1506C59.2199 11.5782 59.2394 11.9961 59.2977 12.2852H58.219L58.134 11.7628H58.1024C57.8231 12.1297 57.3275 12.392 56.7055 12.392C55.7532 12.392 55.2212 11.7045 55.2212 10.9854C55.2212 9.7999 56.278 9.19013 58.0247 9.19985V9.12211C58.0247 8.81115 57.9008 8.29612 57.0651 8.29612C56.5986 8.29612 56.1128 8.44188 55.7921 8.64595L55.5589 7.86855C55.9087 7.65476 56.5209 7.45312 57.2692 7.45312C58.7827 7.45312 59.2199 8.41273 59.2199 9.4525" fill="#1C1C1C"/>
<path d="M60.9088 7.56054H62.1017V12.2881H60.9088V7.56054ZM61.4992 6.88032C61.1032 6.88032 60.8408 6.58879 60.8408 6.23896C60.8408 5.8697 61.1105 5.58789 61.5113 5.58789C61.917 5.58789 62.1697 5.8697 62.1794 6.23896C62.1794 6.58879 61.917 6.88032 61.5113 6.88032" fill="#1C1C1C"/>
<path d="M63.8188 12.2871H65.0141V5.38281H63.8188V12.2871Z" fill="#1C1C1C"/>
<path d="M69.2462 9.97482C68.4008 9.9651 67.5942 10.14 67.5942 10.8591C67.5942 11.3256 67.8955 11.5393 68.2745 11.5393C68.7603 11.5393 69.1005 11.2284 69.2171 10.8883C69.2462 10.8008 69.2462 10.7133 69.2462 10.6259V9.97482ZM70.4099 11.1506C70.4099 11.5782 70.4293 11.9961 70.4876 12.2852H69.4114L69.324 11.7628H69.2948C69.013 12.1297 68.5174 12.392 67.8955 12.392C66.9456 12.392 66.4111 11.7045 66.4111 10.9854C66.4111 9.7999 67.4703 9.19013 69.2171 9.19985V9.12211C69.2171 8.81115 69.0907 8.29612 68.255 8.29612C67.7886 8.29612 67.3027 8.44188 66.9845 8.64595L66.7512 7.86855C67.1011 7.65476 67.7108 7.45312 68.4591 7.45312C69.9726 7.45312 70.4099 8.41273 70.4099 9.4525" fill="#1C1C1C"/>
<path d="M73.2937 10.3339C73.2937 10.4311 73.3034 10.5282 73.3228 10.6157C73.4492 11.1016 73.867 11.4514 74.3796 11.4514C75.1279 11.4514 75.5846 10.8586 75.5846 9.89902C75.5846 9.06332 75.1862 8.38309 74.3893 8.38309C73.9035 8.38309 73.4589 8.73292 73.3326 9.25767C73.3131 9.34512 73.2937 9.45202 73.2937 9.56863V10.3339ZM72.0984 5.38281H73.2937V8.20818H73.3131C73.6047 7.75145 74.1173 7.45264 74.8266 7.45264C75.983 7.45264 76.8066 8.41224 76.7969 9.85043C76.7969 11.5486 75.7206 12.394 74.6517 12.394C74.0395 12.394 73.4978 12.1608 73.1576 11.5777H73.1382L73.0799 12.2871H72.0596C72.079 11.9664 72.0984 11.4417 72.0984 10.9655" fill="#1C1C1C"/>
<path d="M78.2036 12.2871H79.3964V5.38281H78.2036V12.2871Z" fill="#1C1C1C"/>
<path d="M84.046 9.42335C84.0558 8.98606 83.8614 8.26697 83.067 8.26697C82.3285 8.26697 82.0175 8.93747 81.9689 9.42335H84.046ZM81.9689 10.2566C81.9981 11.1118 82.6686 11.481 83.4266 11.481C83.978 11.481 84.3667 11.3936 84.736 11.2672L84.9109 12.0811C84.5028 12.2584 83.9392 12.3823 83.2614 12.3823C81.726 12.3823 80.8223 11.4422 80.8223 9.99668C80.8223 8.68482 81.6191 7.45312 83.135 7.45312C84.668 7.45312 85.1733 8.71397 85.1733 9.75374C85.1733 9.97725 85.1538 10.1522 85.1344 10.2566" fill="#1C1C1C"/>
<path d="M91.1033 11.5296C91.7811 11.5296 92.2573 10.8688 92.2573 9.90922C92.2573 9.17069 91.9269 8.31555 91.113 8.31555C90.2676 8.31555 89.9275 9.14154 89.9275 9.92866C89.9275 10.8397 90.3842 11.5296 91.0912 11.5296H91.1033ZM91.0644 12.3945C89.7331 12.3945 88.6958 11.481 88.6958 9.95781C88.6958 8.40301 89.7137 7.45312 91.1422 7.45312C92.5488 7.45312 93.4914 8.44188 93.4914 9.88007C93.4914 11.6171 92.267 12.3945 91.0742 12.3945" fill="#1C1C1C"/>
<path d="M94.8953 8.96663C94.8953 8.42245 94.8783 7.96572 94.8589 7.55759H95.8962L95.9545 8.26697H95.9837C96.1975 7.8977 96.7125 7.45312 97.4996 7.45312C98.3232 7.45312 99.1783 7.98516 99.1783 9.48165V12.2852H97.9831V9.6177C97.9831 8.93747 97.7304 8.42245 97.0818 8.42245C96.6056 8.42245 96.2752 8.76256 96.1489 9.12211C96.11 9.21928 96.0906 9.36504 96.0906 9.50109V12.2852H94.8953" fill="#1C1C1C"/>
<path d="M104.681 6.3457V7.55796H105.816V8.45197H104.681V10.5291C104.681 11.1121 104.837 11.4037 105.291 11.4037C105.505 11.4037 105.621 11.3939 105.758 11.3551L105.777 12.2564C105.602 12.3268 105.281 12.3827 104.912 12.3827C104.468 12.3827 104.108 12.2369 103.884 11.9964C103.622 11.7243 103.505 11.2871 103.505 10.6651V8.45197H102.835V7.55796H103.505V6.6761" fill="#1C1C1C"/>
<path d="M107.145 5.38281H108.34V8.19846H108.359C108.505 7.97496 108.709 7.79032 108.952 7.664C109.195 7.53038 109.474 7.45264 109.776 7.45264C110.582 7.45264 111.425 7.98467 111.425 9.5006V12.2871H110.232V9.62693C110.232 8.94671 109.98 8.42196 109.319 8.42196C108.855 8.42196 108.524 8.73292 108.388 9.09247C108.35 9.19936 108.34 9.32569 108.34 9.45202V12.2871H107.145" fill="#1C1C1C"/>
<path d="M116.046 9.42335C116.055 8.98606 115.861 8.26697 115.064 8.26697C114.326 8.26697 114.017 8.93747 113.968 9.42335H116.046ZM113.968 10.2566C113.998 11.1118 114.666 11.481 115.424 11.481C115.978 11.481 116.366 11.3936 116.733 11.2672L116.91 12.0811C116.502 12.2584 115.939 12.3823 115.258 12.3823C113.726 12.3823 112.822 11.4422 112.822 9.99668C112.822 8.68482 113.619 7.45312 115.132 7.45312C116.665 7.45312 117.17 8.71397 117.17 9.75374C117.17 9.97725 117.151 10.1522 117.131 10.2566" fill="#1C1C1C"/>
<path d="M30.4198 18.6335C30.3882 15.3952 33.0702 13.8185 33.1941 13.7456C31.6758 11.53 29.3217 11.2288 28.4933 11.2045C26.5182 10.998 24.6014 12.39 23.5956 12.39C22.568 12.39 21.0156 11.2264 19.3467 11.2604C17.1942 11.2944 15.1827 12.5406 14.0798 14.472C11.8059 18.4149 13.5016 24.2065 15.6832 27.3938C16.7764 28.9535 18.0494 30.6978 19.7184 30.6346C21.3509 30.5666 21.9607 29.5949 23.9309 29.5949C25.8841 29.5949 26.4575 30.6346 28.1604 30.5958C29.912 30.5666 31.015 29.0288 32.0669 27.4522C33.3302 25.6641 33.8355 23.9028 33.8549 23.8129C33.8136 23.7984 30.4538 22.5157 30.4198 18.6335Z" fill="#1C1C1C"/>
<path d="M27.2034 9.1105C28.0804 8.01243 28.6853 6.51593 28.5153 5C27.2447 5.05831 25.6559 5.87943 24.74 6.95322C23.9311 7.90067 23.2047 9.45305 23.3942 10.9107C24.8226 11.0176 26.2876 10.1916 27.2034 9.1105Z" fill="#1C1C1C"/>
<path d="M50.1223 24.8165L48.995 21.3352C48.876 20.9805 48.6525 20.1424 48.3221 18.8257H48.2832C48.152 19.3917 47.9382 20.2298 47.6491 21.3352L46.5414 24.8165H50.1223ZM54.019 30.3773H51.7426L50.4964 26.4612H46.1672L44.9793 30.3773H42.7637L47.0588 17.0449H49.7068" fill="#1C1C1C"/>
<path d="M62.8809 25.5301C62.8809 24.5924 62.6696 23.8222 62.2469 23.2149C61.7853 22.5833 61.1658 22.265 60.3884 22.265C59.8612 22.265 59.3802 22.4424 58.9551 22.7898C58.5275 23.142 58.2457 23.5987 58.1121 24.1672C58.0465 24.4296 58.0149 24.6458 58.0149 24.8159V26.4192C58.0149 27.1189 58.2287 27.7092 58.6563 28.1903C59.0863 28.6737 59.6426 28.9118 60.3277 28.9118C61.1342 28.9118 61.761 28.6033 62.2056 27.9813C62.6574 27.3618 62.8809 26.5456 62.8809 25.5301ZM65.0577 25.4499C65.0577 27.0849 64.6155 28.3798 63.7312 29.3272C62.9393 30.1726 61.9554 30.5929 60.7844 30.5929C59.5163 30.5929 58.6077 30.1362 58.0538 29.2276H58.0149V34.2929H55.8771V23.9267C55.8771 22.8991 55.8528 21.8447 55.7993 20.7612H57.6772L57.7963 22.2869H57.8376C58.5494 21.1378 59.6304 20.5645 61.0808 20.5645C62.2129 20.5645 63.1628 21.0139 63.9183 21.9103C64.6763 22.8092 65.0577 23.9874 65.0577 25.4499Z" fill="#1C1C1C"/>
<path d="M73.9371 25.5301C73.9371 24.5924 73.7258 23.8222 73.303 23.2149C72.8415 22.5833 72.222 22.265 71.4446 22.265C70.9174 22.265 70.4388 22.4424 70.0112 22.7898C69.5812 23.142 69.3043 23.5987 69.1731 24.1672C69.1051 24.4296 69.0735 24.6458 69.0735 24.8159V26.4192C69.0735 27.1189 69.2849 27.7092 69.7124 28.1903C70.1424 28.6737 70.6988 28.9118 71.3863 28.9118C72.1904 28.9118 72.8172 28.6033 73.2642 27.9813C73.7112 27.3618 73.9371 26.5456 73.9371 25.5301ZM76.1114 25.4499C76.1114 27.0849 75.6717 28.3798 74.7874 29.3272C73.9954 30.1726 73.0139 30.5929 71.8406 30.5929C70.5749 30.5929 69.6663 30.1362 69.1099 29.2276H69.0735V34.2929H66.9357V23.9267C66.9357 22.8991 66.9089 21.8447 66.8579 20.7612H68.7358L68.8549 22.2869H68.8962C69.6055 21.1378 70.6866 20.5645 72.1369 20.5645C73.2715 20.5645 74.2165 21.0139 74.9769 21.9103C75.7349 22.8092 76.1114 23.9874 76.1114 25.4499Z" fill="#1C1C1C"/>
<path d="M88.4771 26.6385C88.4771 27.7706 88.0835 28.6938 87.2916 29.408C86.4218 30.1854 85.2144 30.5741 83.6621 30.5741C82.2263 30.5741 81.0748 30.2972 80.2026 29.7433L80.6982 27.965C81.6384 28.531 82.666 28.8128 83.7884 28.8128C84.5925 28.8128 85.2193 28.633 85.6687 28.2711C86.1157 27.9067 86.3392 27.4208 86.3392 26.8134C86.3392 26.2741 86.157 25.815 85.7878 25.4457C85.4185 25.0764 84.8039 24.7339 83.9463 24.4156C81.6117 23.5435 80.4456 22.2681 80.4456 20.5918C80.4456 19.4962 80.8537 18.5973 81.6724 17.8976C82.4887 17.198 83.577 16.8457 84.9351 16.8457C86.1497 16.8457 87.1579 17.0595 87.9621 17.4798L87.4276 19.2216C86.6769 18.8135 85.8266 18.607 84.8768 18.607C84.1236 18.607 83.5382 18.7916 83.1179 19.1609C82.7632 19.4913 82.5834 19.8946 82.5834 20.3683C82.5834 20.8955 82.7851 21.3303 83.1956 21.6729C83.5503 21.9887 84.1965 22.3312 85.1343 22.7029C86.2809 23.1645 87.1239 23.7038 87.6657 24.3233C88.205 24.9428 88.4771 25.7154 88.4771 26.6385Z" fill="#1C1C1C"/>
<path d="M95.5369 22.3655H93.1829V27.0323C93.1829 28.2203 93.5983 28.813 94.4316 28.813C94.8105 28.813 95.1288 28.7814 95.379 28.7159L95.4373 30.3362C95.0195 30.4966 94.4631 30.5743 93.7781 30.5743C92.9351 30.5743 92.2743 30.3168 91.7981 29.8042C91.3244 29.2892 91.0863 28.4243 91.0863 27.2121V22.3655H89.6821V20.7621H91.0863V19.0032L93.1829 18.3691V20.7621H95.5369" fill="#1C1C1C"/>
<path d="M103.945 25.5592C103.945 24.6725 103.753 23.9146 103.37 23.2781C102.925 22.5104 102.284 22.1265 101.453 22.1265C100.595 22.1265 99.9417 22.5104 99.4947 23.2781C99.1109 23.9146 98.9238 24.6871 98.9238 25.6005C98.9238 26.4873 99.1109 27.2452 99.4947 27.8793C99.9563 28.647 100.602 29.0308 101.436 29.0308C102.25 29.0308 102.891 28.6421 103.353 27.8599C103.749 27.2137 103.945 26.446 103.945 25.5592ZM106.161 25.4912C106.161 26.9683 105.741 28.1805 104.895 29.1304C104.011 30.107 102.838 30.5929 101.375 30.5929C99.9611 30.5929 98.8388 30.124 98.0006 29.1887C97.1649 28.2534 96.7471 27.0728 96.7471 25.6491C96.7471 24.1575 97.1771 22.938 98.0419 21.9905C98.9044 21.0382 100.068 20.5645 101.531 20.5645C102.942 20.5645 104.079 21.0333 104.934 21.9686C105.753 22.8821 106.161 24.053 106.161 25.4912Z" fill="#1C1C1C"/>
<path d="M113.104 22.6416C112.893 22.6027 112.669 22.5833 112.431 22.5833C111.68 22.5833 111.097 22.8675 110.689 23.4335C110.334 23.9364 110.157 24.5681 110.157 25.3309V30.3767H108.022L108.039 23.7907C108.039 22.6804 108.012 21.6722 107.961 20.7612H109.822L109.9 22.6027H109.955C110.181 21.9711 110.539 21.4609 111.024 21.0795C111.501 20.7369 112.016 20.5645 112.569 20.5645C112.766 20.5645 112.946 20.579 113.104 20.6033" fill="#1C1C1C"/>
<path d="M120.618 24.5607C120.633 23.929 120.494 23.38 120.205 22.9184C119.836 22.3257 119.265 22.0268 118.502 22.0268C117.805 22.0268 117.236 22.3184 116.802 22.899C116.447 23.3606 116.233 23.9145 116.172 24.5607H120.618ZM122.654 25.1146C122.654 25.4984 122.63 25.8191 122.579 26.0839H116.172C116.194 27.0338 116.505 27.7602 117.1 28.2606C117.64 28.7101 118.339 28.9311 119.197 28.9311C120.144 28.9311 121.009 28.7805 121.789 28.4768L122.124 29.9612C121.213 30.3547 120.14 30.5564 118.898 30.5564C117.409 30.5564 116.238 30.1167 115.388 29.2372C114.54 28.3627 114.112 27.1844 114.112 25.7073C114.112 24.257 114.506 23.0496 115.3 22.0876C116.129 21.0575 117.251 20.5449 118.66 20.5449C120.045 20.5449 121.097 21.0575 121.809 22.0876C122.375 22.9038 122.654 23.9145 122.654 25.1146Z" fill="#1C1C1C"/>
</svg>
