<svg width="20" height="20" viewBox="0 0 20 20" fill="none" xmlns="http://www.w3.org/2000/svg">
<g clip-path="url(#clip0_385_441)">
<path d="M14.6915 1.08984C13.7861 1.10393 12.9005 1.35667 12.124 1.82255C11.3475 2.28844 10.7077 2.95096 10.2692 3.74322C9.83074 2.95096 9.19095 2.28844 8.41448 1.82255C7.63801 1.35667 6.75235 1.10393 5.84694 1.08984C4.40362 1.15255 3.04377 1.78395 2.0645 2.84608C1.08522 3.90822 0.566117 5.31476 0.620592 6.75842C0.620592 12.2059 9.42981 18.4976 9.8045 18.7646L10.2692 19.0934L10.734 18.7646C11.1087 18.4992 19.9179 12.2059 19.9179 6.75842C19.9724 5.31476 19.4533 3.90822 18.474 2.84608C17.4947 1.78395 16.1349 1.15255 14.6915 1.08984ZM10.2692 17.1138C7.65365 15.16 2.2287 10.3598 2.2287 6.75842C2.17374 5.74107 2.52328 4.74325 3.20109 3.98259C3.87891 3.22193 4.83 2.76015 5.84694 2.69795C6.86388 2.76015 7.81498 3.22193 8.49279 3.98259C9.17061 4.74325 9.52015 5.74107 9.46519 6.75842H11.0733C11.0183 5.74107 11.3679 4.74325 12.0457 3.98259C12.7235 3.22193 13.6746 2.76015 14.6915 2.69795C15.7085 2.76015 16.6596 3.22193 17.3374 3.98259C18.0152 4.74325 18.3647 5.74107 18.3098 6.75842C18.3098 10.3614 12.8848 15.16 10.2692 17.1138Z" fill="#00A0DC"/>
</g>
<defs>
<clipPath id="clip0_385_441">
<rect width="19.2973" height="19.2973" fill="white" transform="translate(0.621094 0.352783)"/>
</clipPath>
</defs>
</svg>
