<svg width="28" height="28" viewBox="0 0 28 28" fill="none" xmlns="http://www.w3.org/2000/svg">
<circle cx="14" cy="14" r="14" fill="#F3F3F3"/>
<path d="M12.1153 6.46155H9.60245C8.7694 6.46155 7.97047 6.79248 7.38141 7.38153C6.79235 7.97059 6.46143 8.76952 6.46143 9.60257L6.46143 18.3974C6.46143 18.8099 6.54267 19.2184 6.70052 19.5995C6.85837 19.9806 7.08974 20.3268 7.38141 20.6185C7.97047 21.2075 8.7694 21.5385 9.60245 21.5385H15.2563V9.60257C15.2563 9.19009 15.1751 8.78164 15.0172 8.40056C14.8594 8.01947 14.628 7.6732 14.3363 7.38153C14.0446 7.08986 13.6984 6.8585 13.3173 6.70064C12.9362 6.54279 12.5278 6.46155 12.1153 6.46155ZM9.60245 18.3974H8.97425C8.80764 18.3974 8.64785 18.3313 8.53004 18.2134C8.41223 18.0956 8.34604 17.9359 8.34604 17.7692C8.34604 17.6026 8.41223 17.4428 8.53004 17.325C8.64785 17.2072 8.80764 17.141 8.97425 17.141H9.60245C9.76906 17.141 9.92885 17.2072 10.0467 17.325C10.1645 17.4428 10.2307 17.6026 10.2307 17.7692C10.2307 17.9359 10.1645 18.0956 10.0467 18.2134C9.92885 18.3313 9.76906 18.3974 9.60245 18.3974ZM9.60245 15.8846H8.97425C8.80764 15.8846 8.64785 15.8184 8.53004 15.7006C8.41223 15.5828 8.34604 15.423 8.34604 15.2564C8.34604 15.0898 8.41223 14.93 8.53004 14.8122C8.64785 14.6944 8.80764 14.6282 8.97425 14.6282H9.60245C9.76906 14.6282 9.92885 14.6944 10.0467 14.8122C10.1645 14.93 10.2307 15.0898 10.2307 15.2564C10.2307 15.423 10.1645 15.5828 10.0467 15.7006C9.92885 15.8184 9.76906 15.8846 9.60245 15.8846ZM9.60245 13.3718H8.97425C8.80764 13.3718 8.64785 13.3056 8.53004 13.1878C8.41223 13.07 8.34604 12.9102 8.34604 12.7436C8.34604 12.577 8.41223 12.4172 8.53004 12.2994C8.64785 12.1816 8.80764 12.1154 8.97425 12.1154H9.60245C9.76906 12.1154 9.92885 12.1816 10.0467 12.2994C10.1645 12.4172 10.2307 12.577 10.2307 12.7436C10.2307 12.9102 10.1645 13.07 10.0467 13.1878C9.92885 13.3056 9.76906 13.3718 9.60245 13.3718ZM9.60245 10.859H8.97425C8.80764 10.859 8.64785 10.7928 8.53004 10.675C8.41223 10.5572 8.34604 10.3974 8.34604 10.2308C8.34604 10.0642 8.41223 9.90438 8.53004 9.78657C8.64785 9.66876 8.80764 9.60257 8.97425 9.60257H9.60245C9.76906 9.60257 9.92885 9.66876 10.0467 9.78657C10.1645 9.90438 10.2307 10.0642 10.2307 10.2308C10.2307 10.3974 10.1645 10.5572 10.0467 10.675C9.92885 10.7928 9.76906 10.859 9.60245 10.859ZM12.7435 18.3974H12.1153C11.9487 18.3974 11.7889 18.3313 11.6711 18.2134C11.5533 18.0956 11.4871 17.9359 11.4871 17.7692C11.4871 17.6026 11.5533 17.4428 11.6711 17.325C11.7889 17.2072 11.9487 17.141 12.1153 17.141H12.7435C12.9101 17.141 13.0699 17.2072 13.1877 17.325C13.3055 17.4428 13.3717 17.6026 13.3717 17.7692C13.3717 17.9359 13.3055 18.0956 13.1877 18.2134C13.0699 18.3313 12.9101 18.3974 12.7435 18.3974ZM12.7435 15.8846H12.1153C11.9487 15.8846 11.7889 15.8184 11.6711 15.7006C11.5533 15.5828 11.4871 15.423 11.4871 15.2564C11.4871 15.0898 11.5533 14.93 11.6711 14.8122C11.7889 14.6944 11.9487 14.6282 12.1153 14.6282H12.7435C12.9101 14.6282 13.0699 14.6944 13.1877 14.8122C13.3055 14.93 13.3717 15.0898 13.3717 15.2564C13.3717 15.423 13.3055 15.5828 13.1877 15.7006C13.0699 15.8184 12.9101 15.8846 12.7435 15.8846ZM12.7435 13.3718H12.1153C11.9487 13.3718 11.7889 13.3056 11.6711 13.1878C11.5533 13.07 11.4871 12.9102 11.4871 12.7436C11.4871 12.577 11.5533 12.4172 11.6711 12.2994C11.7889 12.1816 11.9487 12.1154 12.1153 12.1154H12.7435C12.9101 12.1154 13.0699 12.1816 13.1877 12.2994C13.3055 12.4172 13.3717 12.577 13.3717 12.7436C13.3717 12.9102 13.3055 13.07 13.1877 13.1878C13.0699 13.3056 12.9101 13.3718 12.7435 13.3718ZM12.7435 10.859H12.1153C11.9487 10.859 11.7889 10.7928 11.6711 10.675C11.5533 10.5572 11.4871 10.3974 11.4871 10.2308C11.4871 10.0642 11.5533 9.90438 11.6711 9.78657C11.7889 9.66876 11.9487 9.60257 12.1153 9.60257H12.7435C12.9101 9.60257 13.0699 9.66876 13.1877 9.78657C13.3055 9.90438 13.3717 10.0642 13.3717 10.2308C13.3717 10.3974 13.3055 10.5572 13.1877 10.675C13.0699 10.7928 12.9101 10.859 12.7435 10.859ZM18.3973 9.60257H16.5127V21.5385H18.3973C19.2301 21.5375 20.0284 21.2062 20.6173 20.6174C21.2061 20.0285 21.5374 19.2302 21.5383 18.3974V12.7436C21.5374 11.9109 21.2061 11.1125 20.6173 10.5237C20.0284 9.93482 19.2301 9.60357 18.3973 9.60257ZM19.0255 18.3974C18.9013 18.3974 18.7798 18.3606 18.6765 18.2916C18.5732 18.2225 18.4927 18.1244 18.4451 18.0096C18.3976 17.8949 18.3852 17.7685 18.4094 17.6467C18.4336 17.5248 18.4935 17.4129 18.5813 17.325C18.6692 17.2372 18.7811 17.1773 18.903 17.1531C19.0248 17.1289 19.1511 17.1413 19.2659 17.1889C19.3807 17.2364 19.4788 17.3169 19.5479 17.4202C19.6169 17.5235 19.6537 17.645 19.6537 17.7692C19.6537 17.9359 19.5875 18.0956 19.4697 18.2134C19.3519 18.3313 19.1921 18.3974 19.0255 18.3974ZM19.0255 15.8846C18.9013 15.8846 18.7798 15.8478 18.6765 15.7788C18.5732 15.7097 18.4927 15.6116 18.4451 15.4968C18.3976 15.382 18.3852 15.2557 18.4094 15.1339C18.4336 15.012 18.4935 14.9001 18.5813 14.8122C18.6692 14.7244 18.7811 14.6645 18.903 14.6403C19.0248 14.616 19.1511 14.6285 19.2659 14.676C19.3807 14.7236 19.4788 14.8041 19.5479 14.9074C19.6169 15.0107 19.6537 15.1322 19.6537 15.2564C19.6537 15.423 19.5875 15.5828 19.4697 15.7006C19.3519 15.8184 19.1921 15.8846 19.0255 15.8846ZM19.0255 13.3718C18.9013 13.3718 18.7798 13.335 18.6765 13.2659C18.5732 13.1969 18.4927 13.0988 18.4451 12.984C18.3976 12.8692 18.3852 12.7429 18.4094 12.621C18.4336 12.4992 18.4935 12.3872 18.5813 12.2994C18.6692 12.2115 18.7811 12.1517 18.903 12.1275C19.0248 12.1032 19.1511 12.1157 19.2659 12.1632C19.3807 12.2108 19.4788 12.2913 19.5479 12.3946C19.6169 12.4979 19.6537 12.6194 19.6537 12.7436C19.6537 12.9102 19.5875 13.07 19.4697 13.1878C19.3519 13.3056 19.1921 13.3718 19.0255 13.3718Z" fill="#00A0DC" fill-opacity="0.7"/>
</svg>
