<svg width="79" height="79" viewBox="0 0 79 79" fill="none" xmlns="http://www.w3.org/2000/svg">
<rect x="1" y="1" width="77" height="77" rx="7" fill="white"/>
<rect x="1" y="1" width="77" height="77" rx="7" stroke="#CBCBCB" stroke-width="2"/>
<path d="M35.3807 13.4287C41.2136 13.4287 45.9426 18.1565 45.9426 23.9893C45.9426 29.8234 41.2136 37.8014 35.3807 37.8014C29.5479 37.8014 24.8188 29.8234 24.8188 23.9893C24.8188 18.1565 29.5479 13.4287 35.3807 13.4287Z" fill="#FCD09F"/>
<path d="M51.2394 65.5717C57.453 65.5717 62.4901 60.5346 62.4901 54.321C62.4901 48.1074 57.453 43.0703 51.2394 43.0703C45.0259 43.0703 39.9888 48.1074 39.9888 54.321C39.9888 60.5346 45.0259 65.5717 51.2394 65.5717Z" fill="#EF806F"/>
<path d="M43.4604 53.3833H59.0178V55.2584H43.4604V53.3833Z" fill="white"/>
<path d="M50.3018 46.5425H52.1769V62.0998H50.3018V46.5425Z" fill="white"/>
<path d="M38.2382 54.3207C38.2382 57.0321 39.072 59.5523 40.4996 61.6387C38.8105 61.9457 37.0972 62.0996 35.3805 62.0987C28.0313 62.0987 21.3322 59.311 16.2856 54.7345V54.7183C16.2856 47.1066 20.7397 40.5362 27.1825 37.4697C29.6039 39.8849 32.4391 41.1862 35.3805 41.1862C38.3232 41.1862 41.1571 39.8849 43.5798 37.4697C45.6631 38.4622 47.5495 39.8239 49.1476 41.4887C42.9697 42.4913 38.2382 47.8641 38.2382 54.3207Z" fill="#1EA6C6"/>
</svg>
