<svg width="40" height="40" viewBox="0 0 40 40" fill="none" xmlns="http://www.w3.org/2000/svg">
<path d="M30.3978 1.90454H8.81735C4.77553 1.90454 1.50317 5.1769 1.50317 9.21872V30.8037C1.50317 34.841 4.77553 38.1134 8.81735 38.1134H30.4024C34.4397 38.1134 37.7165 34.841 37.7165 30.7992V9.21872C37.712 5.1769 34.4397 1.90454 30.3978 1.90454Z" fill="#0077B5" fill-opacity="0.99"/>
<path fill-rule="evenodd" clip-rule="evenodd" d="M28.5928 13.3457C28.5924 13.3463 28.5919 13.347 28.5914 13.3475L27.0823 14.9541C27.0118 15.0291 26.8859 14.9913 26.8685 14.8898L25.9172 9.35806C25.9032 9.27633 25.9713 9.2039 26.0538 9.21296L31.6295 9.82527C31.7317 9.8365 31.7772 9.9597 31.7067 10.0347L30.3197 11.5104C30.2771 11.5557 30.2745 11.6254 30.313 11.6742C32.1859 14.0442 33.2175 16.9702 33.2432 19.9912C33.2692 23.0482 32.2636 26.024 30.3888 28.4379C28.5139 30.8518 25.8793 32.5629 22.9104 33.2948C19.9819 34.0168 16.8967 33.7446 14.14 32.523C14.077 32.4951 14.0493 32.4211 14.0778 32.3584L14.9623 30.4114C14.9909 30.3485 15.0651 30.3209 15.1282 30.349C17.3721 31.3487 19.883 31.5848 22.2746 31.019C24.707 30.4437 26.8764 29.072 28.4381 27.1219C29.9998 25.1719 30.8641 22.7555 30.8937 20.2568C30.9232 17.7636 30.12 15.3313 28.6114 13.3447C28.6066 13.3384 28.5969 13.3389 28.5928 13.3457Z" fill="white"/>
<path fill-rule="evenodd" clip-rule="evenodd" d="M28.5985 13.4305L27.1278 14.9962C27.0221 15.1087 26.8332 15.052 26.8071 14.8998L25.8558 9.36803C25.8347 9.24544 25.937 9.1368 26.0606 9.15037L31.6363 9.76268C31.7897 9.77952 31.8579 9.96434 31.7522 10.0768L30.3652 11.5525C30.344 11.575 30.3424 11.6101 30.362 11.6349C32.2435 14.0158 33.2798 16.9552 33.3056 19.99C33.3317 23.0611 32.3215 26.0506 30.4381 28.4756C28.5546 30.9005 25.9079 32.6195 22.9254 33.3548C19.9834 34.0801 16.8841 33.8066 14.1148 32.5795C14.0198 32.5374 13.9783 32.426 14.021 32.332L14.9056 30.385C14.9485 30.2905 15.0597 30.2496 15.1536 30.2914C17.385 31.2855 19.8819 31.5204 22.2603 30.9578C24.6791 30.3856 26.8365 29.0215 28.3895 27.0824C29.9425 25.1432 30.802 22.7402 30.8314 20.2555C30.8605 17.7965 30.075 15.397 28.5985 13.4305ZM28.6415 13.3839C28.6372 13.3782 28.6329 13.3725 28.6286 13.3669C28.6229 13.3593 28.6172 13.3517 28.6114 13.3441C28.6066 13.3378 28.597 13.3383 28.5928 13.3451C28.5926 13.3455 28.5923 13.3459 28.592 13.3463C28.5918 13.3465 28.5916 13.3467 28.5914 13.3469L27.0823 14.9535C27.0118 15.0285 26.886 14.9907 26.8685 14.8892L25.9173 9.35747C25.9032 9.27574 25.9714 9.20331 26.0538 9.21236L31.6295 9.82467C31.7318 9.8359 31.7772 9.9591 31.7068 10.0341L30.3197 11.5098C30.2771 11.5551 30.2745 11.6248 30.3131 11.6736C32.186 14.0436 33.2175 16.9696 33.2433 19.9906C33.2693 23.0476 32.2636 26.0234 30.3888 28.4373C28.514 30.8512 25.8794 32.5623 22.9104 33.2942C19.9819 34.0162 16.8968 33.744 14.1401 32.5225C14.0771 32.4945 14.0493 32.4205 14.0778 32.3578L14.9624 30.4108C14.9909 30.3479 15.0652 30.3203 15.1283 30.3484C17.3721 31.3481 19.883 31.5842 22.2747 31.0184C24.707 30.4431 26.8764 29.0714 28.4381 27.1213C29.9998 25.1713 30.8642 22.7549 30.8938 20.2562C30.9231 17.7797 30.1307 15.3632 28.6416 13.3841C28.6416 13.384 28.6415 13.384 28.6415 13.3839Z" fill="white"/>
<path fill-rule="evenodd" clip-rule="evenodd" d="M8.84636 28.4754C8.88882 28.43 8.89139 28.3604 8.85288 28.3117C6.97992 25.9417 5.9483 23.0156 5.92259 19.9946C5.89658 16.9375 6.9022 13.9617 8.77704 11.5478C10.6519 9.13396 13.2865 7.42286 16.2554 6.6909C19.1839 5.9689 22.2691 6.24114 25.0258 7.4627C25.0888 7.4906 25.1165 7.56462 25.088 7.62734L24.2034 9.57451C24.1749 9.63734 24.1007 9.66496 24.0377 9.63695C21.794 8.64072 19.2846 8.40708 16.8948 8.97398C14.4645 9.5505 12.297 10.9219 10.7363 12.8707C9.17562 14.8195 8.31113 17.2339 8.27998 19.731C8.24946 22.1789 9.02152 24.5687 10.476 26.5362C10.5218 26.5982 10.6126 26.603 10.6654 26.5468L12.0708 25.0524C12.1413 24.9775 12.2671 25.0153 12.2846 25.1166L13.2392 30.6427C13.2533 30.7244 13.1852 30.7969 13.1027 30.7879L7.52667 30.1755C7.42451 30.1643 7.379 30.0413 7.44928 29.9663L8.84636 28.4754Z" fill="white"/>
<path fill-rule="evenodd" clip-rule="evenodd" d="M8.80406 28.3504C6.92251 25.9695 5.88615 23.03 5.86033 19.9951C5.8342 16.924 6.84443 13.9346 8.72788 11.5096C10.6113 9.08465 13.258 7.36571 16.2406 6.63039C19.1825 5.90507 22.2818 6.17857 25.0511 7.40571C25.1461 7.4478 25.1876 7.55919 25.1449 7.65317L24.2603 9.60034C24.2174 9.69477 24.1064 9.73568 24.0124 9.69398C21.7813 8.70327 19.2858 8.47094 16.9093 9.03468C14.4925 9.608 12.3371 10.9718 10.7851 12.9097C9.23309 14.8476 8.3734 17.2486 8.34243 19.7318C8.31208 22.166 9.07984 24.5426 10.5262 26.4991C10.5486 26.5294 10.5935 26.5323 10.6201 26.5041L12.0255 25.0097C12.1312 24.8973 12.3199 24.954 12.3461 25.106L13.3008 30.6321C13.322 30.7547 13.2197 30.8635 13.096 30.8499L7.51996 30.2375C7.36672 30.2207 7.29846 30.0362 7.40387 29.9237L8.80095 28.4328C8.82208 28.4102 8.82364 28.3751 8.80406 28.3504ZM8.85298 28.3117C8.89149 28.3604 8.88892 28.4301 8.84646 28.4754L7.44938 29.9663C7.3791 30.0413 7.42461 30.1643 7.52677 30.1756L13.1028 30.7879C13.1853 30.797 13.2534 30.7245 13.2393 30.6427L12.2847 25.1166C12.2672 25.0153 12.1414 24.9775 12.0709 25.0524L10.6655 26.5468C10.6127 26.603 10.5219 26.5982 10.4761 26.5362C9.02162 24.5687 8.24955 22.1789 8.28008 19.731C8.31122 17.2339 9.17572 14.8195 10.7364 12.8707C12.2971 10.922 14.4646 9.55053 16.8949 8.97401C19.2847 8.40711 21.7941 8.64075 24.0378 9.63699C24.1008 9.66499 24.175 9.63737 24.2035 9.57455L25.0881 7.62738C25.1166 7.56466 25.0889 7.49064 25.0259 7.46273C22.2692 6.24117 19.184 5.96893 16.2555 6.69093C13.2866 7.42289 10.652 9.13398 8.77713 11.5479C6.90229 13.9618 5.89668 16.9375 5.92269 19.9946C5.94839 23.0156 6.98001 25.9417 8.85298 28.3117Z" fill="white"/>
<path d="M22.9406 16.1136C22.9406 17.994 21.4288 19.5184 19.5639 19.5184C17.699 19.5184 16.1872 17.994 16.1872 16.1136C16.1872 14.2331 17.699 12.7087 19.5639 12.7087C21.4288 12.7087 22.9406 14.2331 22.9406 16.1136Z" fill="white"/>
<path d="M13.1187 24.9407C13.1187 22.6765 14.9542 20.8411 17.2184 20.8411H22.0013C24.2654 20.8411 26.1009 22.6765 26.1009 24.9407V25.9318H13.1187V24.9407Z" fill="white"/>
</svg>
