<svg width="79" height="79" viewBox="0 0 79 79" fill="none" xmlns="http://www.w3.org/2000/svg">
<rect x="1" y="1" width="77" height="77" rx="7" fill="white"/>
<rect x="1" y="1" width="77" height="77" rx="7" stroke="#CBCBCB" stroke-width="2"/>
<path d="M46.612 29.1162H45.8219C41.3931 29.1222 37.1475 30.8842 34.0158 34.0158C30.8842 37.1474 29.1223 41.3931 29.1163 45.8219C29.1075 45.9722 29.1075 46.123 29.1163 46.2734C29.1051 46.386 29.1051 46.4994 29.1163 46.612C29.1223 51.2503 30.9675 55.697 34.2473 58.9768C37.5271 62.2566 41.9737 64.1018 46.612 64.1077C49.6227 64.1421 52.5868 63.3621 55.1906 61.8502L60.3829 63.5885C60.8199 63.7332 61.2885 63.7536 61.7364 63.6474C62.1843 63.5412 62.5939 63.3125 62.9194 62.987C63.2449 62.6615 63.4735 62.252 63.5797 61.8041C63.6859 61.3562 63.6655 60.8876 63.5208 60.4506L61.8051 55.3486C63.3396 52.6862 64.1458 49.6665 64.1426 46.5935C64.1394 43.5205 63.3268 40.5026 61.7867 37.8434C60.2465 35.1842 58.0332 32.9776 55.3693 31.4455C52.7054 29.9135 49.685 29.1101 46.612 29.1162Z" fill="#1565C0"/>
<path d="M55.0778 34.4215C55.0719 29.424 53.0839 24.6328 49.5501 21.099C46.0163 17.5652 41.2251 15.5773 36.2276 15.5713H35.3246C30.0875 15.5773 25.0666 17.6603 21.3635 21.3635C17.6603 25.0666 15.5773 30.0875 15.5713 35.3246C15.5865 38.7929 16.4962 42.1986 18.2126 45.2125L16.226 51.1272C16.0781 51.5859 16.0596 52.0765 16.1727 52.545C16.2857 53.0135 16.5258 53.4417 16.8666 53.7825C17.2074 54.1233 17.6356 54.3634 18.1041 54.4764C18.5726 54.5895 19.0633 54.571 19.5219 54.4231L25.5495 52.4591C28.522 54.1738 31.893 55.0769 35.3246 55.0778C40.5616 55.0718 45.5825 52.9888 49.2856 49.2856C52.9888 45.5825 55.0719 40.5616 55.0778 35.3246V34.7828C55.0891 34.6626 55.0891 34.5417 55.0778 34.4215Z" fill="#29B6F6"/>
<path d="M44.3546 32.5025H28.552C28.103 32.5025 27.6723 32.3241 27.3548 32.0066C27.0373 31.6891 26.8589 31.2584 26.8589 30.8093C26.8589 30.3603 27.0373 29.9296 27.3548 29.6121C27.6723 29.2946 28.103 29.1162 28.552 29.1162H44.3546C44.8037 29.1162 45.2343 29.2946 45.5519 29.6121C45.8694 29.9296 46.0478 30.3603 46.0478 30.8093C46.0478 31.2584 45.8694 31.6891 45.5519 32.0066C45.2343 32.3241 44.8037 32.5025 44.3546 32.5025ZM37.5821 41.5326H28.552C28.103 41.5326 27.6723 41.3542 27.3548 41.0366C27.0373 40.7191 26.8589 40.2885 26.8589 39.8394C26.8589 39.3904 27.0373 38.9597 27.3548 38.6422C27.6723 38.3247 28.103 38.1463 28.552 38.1463H37.5821C38.0311 38.1463 38.4618 38.3247 38.7793 38.6422C39.0968 38.9597 39.2752 39.3904 39.2752 39.8394C39.2752 40.2885 39.0968 40.7191 38.7793 41.0366C38.4618 41.3542 38.0311 41.5326 37.5821 41.5326Z" fill="white"/>
</svg>
