<svg width="79" height="79" viewBox="0 0 79 79" fill="none" xmlns="http://www.w3.org/2000/svg">
<rect x="1" y="1" width="77" height="77" rx="7" fill="white"/>
<rect x="1" y="1" width="77" height="77" rx="7" stroke="#CBCBCB" stroke-width="2"/>
<path d="M19.4851 14.0231C17.4787 14.2634 16.0095 16.4671 16.0095 18.931V24.298C15.9539 24.9175 16.1434 25.5341 16.5373 26.0154C16.9312 26.4967 17.4981 26.8045 18.1163 26.8725H23.7331V18.7199C23.7331 15.9617 21.7867 13.7485 19.4851 14.0231Z" fill="#BDBDBD"/>
<path d="M55.4855 14H20.7184C20.6229 14.003 20.5285 14.0221 20.4395 14.0566C22.2991 14.3939 23.7331 16.354 23.7331 18.72V58.3813C23.7361 60.2669 24.4868 62.0743 25.8207 63.407C27.1546 64.7398 28.9626 65.489 30.8482 65.4904H57.2019C57.4295 65.4904 57.6478 65.4 57.8087 65.239C57.9696 65.0781 58.06 64.8598 58.06 64.6322V16.5745C58.0594 15.8919 57.7879 15.2375 57.3052 14.7548C56.8226 14.2721 56.1681 14.0007 55.4855 14Z" fill="#EEEEEE"/>
<path d="M63.1407 56.0503H36.6617C36.4436 56.0501 36.2336 56.1329 36.0744 56.2819C35.9151 56.431 35.8186 56.635 35.8044 56.8527C35.5787 60.348 35.5641 64.287 31.1445 65.4902H57.6252C57.6952 65.4904 57.765 65.4818 57.8329 65.4645C62.8987 64.1978 63.7886 60.2553 63.9988 56.9634C64.0056 56.8463 63.9884 56.7291 63.9484 56.6189C63.9084 56.5087 63.8463 56.4078 63.766 56.3224C63.6857 56.2369 63.5889 56.1687 63.4813 56.122C63.3738 56.0752 63.2579 56.0508 63.1407 56.0503Z" fill="#BDBDBD"/>
<path d="M52.053 17.4326H29.7405C28.3187 17.4326 27.166 18.5853 27.166 20.0071V26.0143C27.166 27.4362 28.3187 28.5889 29.7405 28.5889H52.053C53.4749 28.5889 54.6276 27.4362 54.6276 26.0143V20.0071C54.6276 18.5853 53.4749 17.4326 52.053 17.4326Z" fill="#E53935"/>
<path d="M33.9683 26.1929C33.6981 26.1919 33.4308 26.1363 33.1826 26.0294C32.9343 25.9225 32.7103 25.7666 32.5238 25.5709C32.3374 25.3753 32.1924 25.1439 32.0976 24.8909C32.0028 24.6378 31.9602 24.3681 31.9722 24.0981C31.974 23.8751 32.0628 23.6615 32.2197 23.503C32.3767 23.3445 32.5893 23.2535 32.8123 23.2495C33.0353 23.2455 33.2511 23.3287 33.4137 23.4814C33.5762 23.6342 33.6727 23.8444 33.6825 24.0672C33.7915 24.5658 33.8799 24.619 34.0859 24.619C34.2326 24.6182 34.4978 24.6182 34.4978 23.881V20.8508C34.4863 20.7243 34.5017 20.5968 34.5428 20.4767C34.5839 20.3565 34.6499 20.2464 34.7364 20.1534C34.823 20.0605 34.9281 19.9868 35.0451 19.9372C35.162 19.8877 35.2881 19.8633 35.415 19.8657C35.542 19.8682 35.6671 19.8973 35.782 19.9513C35.897 20.0053 35.9992 20.0829 36.0822 20.1791C36.1651 20.2753 36.2268 20.3879 36.2633 20.5096C36.2998 20.6312 36.3103 20.7592 36.294 20.8851L36.2957 23.7223C36.3464 24.0459 36.3224 24.3768 36.2256 24.6897C36.1287 25.0027 35.9617 25.2894 35.7371 25.5278C35.5125 25.7663 35.2364 25.9503 34.9299 26.0657C34.6233 26.1811 34.2944 26.2241 33.9683 26.1929ZM40.6089 19.8287C40.1821 19.792 39.7526 19.8487 39.35 19.9947C38.9473 20.1408 38.5813 20.3727 38.2774 20.6744C37.9735 20.9762 37.7389 21.3405 37.5899 21.742C37.4409 22.1435 37.3811 22.5727 37.4147 22.9997C37.3959 23.409 37.4601 23.8179 37.6036 24.2017C37.7471 24.5854 37.9669 24.9362 38.2496 25.2327C38.5324 25.5293 38.8723 25.7655 39.2488 25.927C39.6253 26.0886 40.0307 26.1723 40.4404 26.1729C40.8502 26.1735 41.2558 26.0912 41.6328 25.9308C42.0099 25.7703 42.3505 25.5352 42.6342 25.2396C42.9178 24.9439 43.1387 24.5938 43.2834 24.2105C43.4281 23.8272 43.4936 23.4185 43.476 23.0091C43.5076 22.6096 43.4575 22.2079 43.3286 21.8284C43.1998 21.449 42.9949 21.0998 42.7266 20.8021C42.4583 20.5045 42.1321 20.2647 41.768 20.0973C41.4039 19.9299 41.0095 19.8386 40.6089 19.8287ZM41.2636 24.2655C41.1567 24.3753 41.0288 24.4625 40.8875 24.5218C40.7462 24.5811 40.5944 24.6114 40.4411 24.6109C40.2878 24.6103 40.1362 24.5789 39.9954 24.5185C39.8545 24.4582 39.7272 24.3701 39.6211 24.2595C39.3583 23.8958 39.2161 23.4589 39.2144 23.0102C39.2128 22.5615 39.3517 22.1236 39.6117 21.7579C39.7196 21.647 39.8487 21.5588 39.9913 21.4986C40.1339 21.4384 40.2871 21.4073 40.4419 21.4073C40.5967 21.4073 40.75 21.4384 40.8926 21.4986C41.0352 21.5588 41.1643 21.647 41.2722 21.7579C41.534 22.124 41.674 22.5631 41.6724 23.0131C41.6709 23.4631 41.5279 23.9012 41.2636 24.2655ZM45.6008 26.0951C45.4628 26.1124 45.3227 26.0978 45.1912 26.0526C45.0597 26.0073 44.9403 25.9325 44.8422 25.8339C44.7441 25.7353 44.6699 25.6155 44.6253 25.4837C44.5806 25.352 44.5668 25.2118 44.5848 25.0739V20.9512C44.5662 20.8132 44.5796 20.6728 44.6239 20.5408C44.6682 20.4088 44.7421 20.2887 44.8401 20.1898C44.9381 20.0909 45.0575 20.0158 45.1891 19.9703C45.3207 19.9248 45.461 19.9101 45.5991 19.9274C46.4873 19.9892 47.9419 19.736 48.7486 20.2115C48.9622 20.3406 49.1442 20.5157 49.2815 20.7241C49.4187 20.9325 49.5077 21.1689 49.542 21.4161C49.5763 21.6632 49.555 21.9149 49.4797 22.1528C49.4043 22.3907 49.2768 22.6088 49.1065 22.7911C49.3536 22.9823 49.5472 23.2342 49.6683 23.5222C49.7894 23.8103 49.834 24.1247 49.7977 24.4351C49.7615 24.7455 49.6456 25.0412 49.4613 25.2936C49.277 25.5459 49.0306 25.7464 48.7461 25.8754C47.7144 26.1047 46.6543 26.1788 45.6008 26.0951ZM47.2305 24.5736C48.0123 24.5736 48.0123 24.2698 48.0123 24.1059C48.0054 23.8441 47.9471 23.6776 47.1859 23.6596L46.3818 23.6605V24.5736H47.2305ZM47.1456 22.1793C47.778 22.1793 47.7866 21.9304 47.7926 21.7802C47.7823 21.5373 47.7592 21.4867 47.0735 21.4541C46.9731 21.4438 46.4916 21.4472 46.3818 21.4472V22.1775L47.1456 22.1793Z" fill="#E0E0E0"/>
<path d="M53.769 39.7453H40.8964C40.6688 39.7453 40.4506 39.6549 40.2896 39.494C40.1287 39.333 40.0383 39.1147 40.0383 38.8871C40.0383 38.6595 40.1287 38.4412 40.2896 38.2803C40.4506 38.1194 40.6688 38.029 40.8964 38.029H53.769C53.9966 38.029 54.2149 38.1194 54.3759 38.2803C54.5368 38.4412 54.6272 38.6595 54.6272 38.8871C54.6272 39.1147 54.5368 39.333 54.3759 39.494C54.2149 39.6549 53.9966 39.7453 53.769 39.7453ZM47.7618 32.8799H34.0311C33.8035 32.8799 33.5852 32.7895 33.4242 32.6286C33.2633 32.4676 33.1729 32.2493 33.1729 32.0217C33.1729 31.7941 33.2633 31.5759 33.4242 31.4149C33.5852 31.254 33.8035 31.1636 34.0311 31.1636H47.7618C47.9894 31.1636 48.2077 31.254 48.3687 31.4149C48.5296 31.5759 48.62 31.7941 48.62 32.0217C48.62 32.2493 48.5296 32.4676 48.3687 32.6286C48.2077 32.7895 47.9894 32.8799 47.7618 32.8799ZM49.4782 35.4544H32.3147C32.0871 35.4544 31.8688 35.364 31.7079 35.2031C31.547 35.0421 31.4565 34.8239 31.4565 34.5963C31.4565 34.3687 31.547 34.1504 31.7079 33.9894C31.8688 33.8285 32.0871 33.7381 32.3147 33.7381H49.4782C49.7058 33.7381 49.9241 33.8285 50.085 33.9894C50.2459 34.1504 50.3364 34.3687 50.3364 34.5963C50.3364 34.8239 50.2459 35.0421 50.085 35.2031C49.9241 35.364 49.7058 35.4544 49.4782 35.4544ZM53.769 42.3198H40.8964C40.6688 42.3198 40.4506 42.2294 40.2896 42.0685C40.1287 41.9075 40.0383 41.6893 40.0383 41.4617C40.0383 41.234 40.1287 41.0158 40.2896 40.8548C40.4506 40.6939 40.6688 40.6035 40.8964 40.6035H53.769C53.9966 40.6035 54.2149 40.6939 54.3759 40.8548C54.5368 41.0158 54.6272 41.234 54.6272 41.4617C54.6272 41.6893 54.5368 41.9075 54.3759 42.0685C54.2149 42.2294 53.9966 42.3198 53.769 42.3198ZM53.769 45.7525H40.8964C40.6688 45.7525 40.4506 45.6621 40.2896 45.5012C40.1287 45.3402 40.0383 45.1219 40.0383 44.8943C40.0383 44.6667 40.1287 44.4485 40.2896 44.2875C40.4506 44.1266 40.6688 44.0362 40.8964 44.0362H53.769C53.9966 44.0362 54.2149 44.1266 54.3759 44.2875C54.5368 44.4485 54.6272 44.6667 54.6272 44.8943C54.6272 45.1219 54.5368 45.3402 54.3759 45.5012C54.2149 45.6621 53.9966 45.7525 53.769 45.7525ZM53.769 48.327H40.8964C40.6688 48.327 40.4506 48.2366 40.2896 48.0757C40.1287 47.9147 40.0383 47.6965 40.0383 47.4689C40.0383 47.2413 40.1287 47.023 40.2896 46.862C40.4506 46.7011 40.6688 46.6107 40.8964 46.6107H53.769C53.9966 46.6107 54.2149 46.7011 54.3759 46.862C54.5368 47.023 54.6272 47.2413 54.6272 47.4689C54.6272 47.6965 54.5368 47.9147 54.3759 48.0757C54.2149 48.2366 53.9966 48.327 53.769 48.327Z" fill="#616161"/>
<path d="M29.311 42.3194H37.0346C39.8168 42.3589 39.8185 37.99 37.0346 38.0286H29.311C28.742 38.0286 28.1963 38.2546 27.794 38.657C27.3917 39.0593 27.1656 39.605 27.1656 40.174C27.1656 40.743 27.3917 41.2887 27.794 41.6911C28.1963 42.0934 28.742 42.3194 29.311 42.3194ZM29.2905 48.3267H37.0552C39.7902 48.3781 39.8331 43.9929 37.0552 44.0358H29.2905C28.7214 44.0358 28.1757 44.2618 27.7734 44.6642C27.3711 45.0665 27.145 45.6122 27.145 46.1812C27.145 46.7502 27.3711 47.2959 27.7734 47.6983C28.1757 48.1006 28.7214 48.3267 29.2905 48.3267ZM37.0552 50.043H29.2905C28.7214 50.043 28.1757 50.269 27.7734 50.6714C27.3711 51.0737 27.145 51.6194 27.145 52.1884C27.145 52.7574 27.3711 53.3031 27.7734 53.7055C28.1757 54.1078 28.7214 54.3339 29.2905 54.3339H37.0552C39.7902 54.3854 39.8331 50.0001 37.0552 50.043Z" fill="#FFA000"/>
<path d="M53.7693 51.7593H40.8967C40.6691 51.7593 40.4509 51.6689 40.2899 51.508C40.129 51.347 40.0386 51.1287 40.0386 50.9011C40.0386 50.6735 40.129 50.4553 40.2899 50.2943C40.4509 50.1334 40.6691 50.043 40.8967 50.043H53.7693C53.9969 50.043 54.2152 50.1334 54.3762 50.2943C54.5371 50.4553 54.6275 50.6735 54.6275 50.9011C54.6275 51.1287 54.5371 51.347 54.3762 51.508C54.2152 51.6689 53.9969 51.7593 53.7693 51.7593ZM53.7693 54.3338H40.8967C40.6691 54.3338 40.4509 54.2434 40.2899 54.0825C40.129 53.9215 40.0386 53.7033 40.0386 53.4757C40.0386 53.2481 40.129 53.0298 40.2899 52.8688C40.4509 52.7079 40.6691 52.6175 40.8967 52.6175H53.7693C53.9969 52.6175 54.2152 52.7079 54.3762 52.8688C54.5371 53.0298 54.6275 53.2481 54.6275 53.4757C54.6275 53.7033 54.5371 53.9215 54.3762 54.0825C54.2152 54.2434 53.9969 54.3338 53.7693 54.3338Z" fill="#616161"/>
</svg>
