<svg width="176" height="80" viewBox="0 0 176 80" fill="none" xmlns="http://www.w3.org/2000/svg">
<g filter="url(#filter0_d_557_229)">
<rect x="17" y="16" width="135.34" height="40" rx="6" fill="white"/>
<rect x="17.5" y="16.5" width="134.34" height="39" rx="5.5" stroke="#A7A9AB"/>
<path d="M125.085 45.5252H126.95V33.0212H125.085V45.5252ZM141.896 37.5253L139.756 42.9476H139.693L137.472 37.5253H135.461L138.791 45.1025L136.891 49.3175H138.84L143.971 37.5253H141.896ZM131.309 44.104C130.699 44.104 129.846 43.8003 129.846 43.0424C129.846 42.0779 130.908 41.7086 131.824 41.7086C132.645 41.7086 133.031 41.886 133.529 42.1265C133.383 43.2853 132.387 44.104 131.309 44.104ZM131.535 37.2532C130.184 37.2532 128.785 37.8484 128.204 39.1675L129.861 39.8575C130.216 39.1675 130.874 38.9416 131.566 38.9416C132.533 38.9416 133.512 39.5198 133.529 40.5498V40.6786C133.192 40.4867 132.468 40.1951 131.583 40.1951C129.798 40.1951 127.981 41.1766 127.981 43.0108C127.981 44.6846 129.443 45.7633 131.085 45.7633C132.339 45.7633 133.031 45.1997 133.466 44.5389H133.529V45.5058H135.332V40.7102C135.332 38.4922 133.675 37.2532 131.535 37.2532ZM120 39.0485H117.345V34.7606H120C121.397 34.7606 122.186 35.917 122.186 36.9033C122.186 37.8751 121.397 39.0485 120 39.0485ZM119.951 33.0212H115.479V45.5252H117.345V40.7879H119.951C122.021 40.7879 124.055 39.289 124.055 36.9033C124.055 34.5177 122.021 33.0212 119.951 33.0212ZM95.5654 44.1064C94.2754 44.1064 93.1943 43.0278 93.1943 41.5459C93.1943 40.047 94.2754 38.9513 95.5654 38.9513C96.8384 38.9513 97.8368 40.047 97.8368 41.5459C97.8368 43.0278 96.8384 44.1064 95.5654 44.1064ZM97.7057 38.2249H97.6425C97.2246 37.7269 96.4181 37.275 95.4026 37.275C93.2745 37.275 91.3261 39.1457 91.3261 41.5459C91.3261 43.9315 93.2745 45.7851 95.4026 45.7851C96.4181 45.7851 97.2246 45.3333 97.6425 44.8182H97.7057V45.428C97.7057 47.0557 96.8384 47.9279 95.4342 47.9279C94.29 47.9279 93.5806 47.1043 93.2915 46.4119L91.6638 47.0897C92.1302 48.2169 93.3717 49.6017 95.4342 49.6017C97.6255 49.6017 99.4791 48.3141 99.4791 45.1705V37.5326H97.7057V38.2249ZM100.769 45.5252H102.64V33.0212H100.769V45.5252ZM105.395 41.4001C105.346 39.7554 106.668 38.9197 107.618 38.9197C108.358 38.9197 108.988 39.289 109.197 39.821L105.395 41.4001ZM111.196 39.9814C110.841 39.0315 109.763 37.275 107.552 37.275C105.363 37.275 103.541 38.9999 103.541 41.5289C103.541 43.9145 105.346 45.7851 107.763 45.7851C109.714 45.7851 110.841 44.5923 111.308 43.8975L109.857 42.9306C109.374 43.64 108.713 44.1064 107.763 44.1064C106.813 44.1064 106.136 43.674 105.701 42.8189L111.388 40.4672L111.196 39.9814ZM65.8735 38.5796V40.3846H70.193C70.0642 41.4001 69.7265 42.1411 69.2091 42.6561C68.5823 43.2853 67.5984 43.9777 65.8735 43.9777C63.2158 43.9777 61.1363 41.835 61.1363 39.1772C61.1363 36.5171 63.2158 34.3744 65.8735 34.3744C67.3093 34.3744 68.3564 34.938 69.1289 35.6644L70.4019 34.3889C69.3233 33.3589 67.8899 32.5693 65.8735 32.5693C62.2319 32.5693 59.1709 35.5356 59.1709 39.1772C59.1709 42.8189 62.2319 45.7851 65.8735 45.7851C67.8413 45.7851 69.3233 45.1389 70.4845 43.9315C71.6749 42.7387 72.0466 41.0624 72.0466 39.7093C72.0466 39.289 72.015 38.9027 71.9494 38.5796H65.8735ZM76.9564 44.1064C75.6664 44.1064 74.5561 43.0448 74.5561 41.5289C74.5561 39.9984 75.6664 38.9513 76.9564 38.9513C78.2464 38.9513 79.3566 39.9984 79.3566 41.5289C79.3566 43.0448 78.2464 44.1064 76.9564 44.1064ZM76.9564 37.275C74.6023 37.275 72.6855 39.0631 72.6855 41.5289C72.6855 43.9777 74.6023 45.7851 76.9564 45.7851C79.3104 45.7851 81.2272 43.9777 81.2272 41.5289C81.2272 39.0631 79.3104 37.275 76.9564 37.275ZM86.273 44.1064C84.983 44.1064 83.8704 43.0448 83.8704 41.5289C83.8704 39.9984 84.983 38.9513 86.273 38.9513C87.5606 38.9513 88.6732 39.9984 88.6732 41.5289C88.6732 43.0448 87.5606 44.1064 86.273 44.1064ZM86.273 37.275C83.919 37.275 82.0022 39.0631 82.0022 41.5289C82.0022 43.9777 83.919 45.7851 86.273 45.7851C88.6247 45.7851 90.5439 43.9777 90.5439 41.5289C90.5439 39.0631 88.6247 37.275 86.273 37.275Z" fill="#1C1C1C"/>
<path d="M63.9758 23.7753C63.5993 23.4424 63.1061 23.2286 62.5571 23.2286C61.3278 23.2286 60.3803 24.2441 60.3803 25.4904C60.3803 26.7391 61.3278 27.7449 62.5571 27.7449C63.6163 27.7449 64.3864 27.1302 64.4374 26.156H62.7636V25.4661H65.3411C65.3411 27.5335 64.2406 28.5052 62.5571 28.5052C60.8832 28.5052 59.5859 27.1569 59.5859 25.4904C59.5859 23.8166 60.8832 22.4658 62.5571 22.4658C63.3345 22.4658 64.0341 22.7671 64.5467 23.2432" fill="#1C1C1C"/>
<path d="M69.9134 22.5361V23.2771H67.2217V25.1574H69.5709V25.9008H67.2217V27.6767H69.9984V28.4201H66.4272V22.5361" fill="#1C1C1C"/>
<path d="M75.0638 22.5361V23.2868H73.2782V28.4201H72.4765V23.2868H70.6909V22.5361" fill="#1C1C1C"/>
<path d="M78.0786 28.4201H78.873V22.5361H78.0786V28.4201Z" fill="#1C1C1C"/>
<path d="M84.2903 22.5361V23.2868H82.5048V28.4201H81.7006V23.2868H79.915V22.5361" fill="#1C1C1C"/>
<path d="M89.8925 27.7376C91.1315 27.7376 92.079 26.7391 92.079 25.4904C92.079 24.2441 91.1315 23.2359 89.8925 23.2359C88.6632 23.2359 87.7158 24.2441 87.7158 25.4904C87.7158 26.7391 88.6632 27.7376 89.8925 27.7376ZM89.8925 22.4658C91.5761 22.4658 92.8831 23.8166 92.8831 25.4904C92.8831 27.1569 91.5761 28.5052 89.8925 28.5052C88.2187 28.5052 86.9214 27.1569 86.9214 25.4904C86.9214 23.8166 88.2187 22.4658 89.8925 22.4658Z" fill="#1C1C1C"/>
<path d="M97.5814 28.4201L94.8994 23.9889V28.4201H94.105V22.5361H94.8921L97.5474 26.9333V22.5361H98.3418V28.4201" fill="#1C1C1C"/>
<path d="M45.2955 31.4438C39.8634 28.4051 34.4319 25.3652 29.0011 22.324C28.4643 21.9695 27.8466 21.923 27.313 22.1036L40.9743 35.765L45.2955 31.4438Z" fill="#32BBFF"/>
<path d="M27.3128 22.1035C27.2128 22.1374 27.1154 22.1783 27.0224 22.2276C26.433 22.5464 26 23.1598 26 23.9356V47.5941C26 48.3699 26.433 48.9834 27.0224 49.3021C27.1156 49.3512 27.2126 49.3928 27.3125 49.4265L40.9742 35.7649L27.3128 22.1035Z" fill="#32BBFF"/>
<path d="M40.9747 35.7651L27.313 49.4268C27.8468 49.6087 28.4645 49.5658 29.0014 49.2061C36.7233 44.8821 41.799 42.0436 45.0344 40.2395L45.2999 40.0904L40.9747 35.7651Z" fill="#32BBFF"/>
<path d="M26 35.7651V47.5944C26 48.3702 26.433 48.9836 27.0224 49.3023C27.1156 49.3514 27.2126 49.393 27.3125 49.4268L40.9742 35.7651H26Z" fill="#2C9FD9"/>
<path d="M29.001 22.3241C28.3635 21.9032 27.6118 21.9152 27.0225 22.2279L40.7669 35.9724L45.2953 31.444C39.8632 28.4052 34.4318 25.3653 29.001 22.3241Z" fill="#29CC5E"/>
<path d="M40.767 35.5581L27.0225 49.3025C27.6118 49.6152 28.3635 49.6333 29.001 49.2063C36.7229 44.8824 41.7986 42.0438 45.0339 40.2397L45.2995 40.0906L40.767 35.5581Z" fill="#D93F21"/>
<path d="M50.9997 35.7653C50.9997 35.1098 50.6689 34.4483 50.0134 34.0814C50.0134 34.0814 48.7874 33.3973 45.0295 31.2954L40.5596 35.7653L45.0338 40.2396C48.7505 38.1528 50.0133 37.4491 50.0133 37.4491C50.6689 37.0823 50.9997 36.4208 50.9997 35.7653Z" fill="#FFD500"/>
<path d="M50.0134 37.449C50.6689 37.0822 50.9997 36.4206 50.9997 35.7651H40.5596L45.0338 40.2394C48.7505 38.1527 50.0134 37.449 50.0134 37.449Z" fill="#FFAA00"/>
</g>
<defs>
<filter id="filter0_d_557_229" x="0" y="0" width="175.34" height="80" filterUnits="userSpaceOnUse" color-interpolation-filters="sRGB">
<feFlood flood-opacity="0" result="BackgroundImageFix"/>
<feColorMatrix in="SourceAlpha" type="matrix" values="0 0 0 0 0 0 0 0 0 0 0 0 0 0 0 0 0 0 127 0" result="hardAlpha"/>
<feOffset dx="3" dy="4"/>
<feGaussianBlur stdDeviation="10"/>
<feComposite in2="hardAlpha" operator="out"/>
<feColorMatrix type="matrix" values="0 0 0 0 0.241667 0 0 0 0 0.241667 0 0 0 0 0.241667 0 0 0 0.15 0"/>
<feBlend mode="normal" in2="BackgroundImageFix" result="effect1_dropShadow_557_229"/>
<feBlend mode="normal" in="SourceGraphic" in2="effect1_dropShadow_557_229" result="shape"/>
</filter>
</defs>
</svg>
