<svg width="455" height="455" viewBox="0 0 455 455" fill="none" xmlns="http://www.w3.org/2000/svg">
<path d="M389.634 455H65.3661C29.2751 455 0 425.725 0 389.616V65.3601C0 29.263 29.263 0 65.3601 0H389.64C425.749 0 455 29.2751 455 65.3601V389.616C455.024 425.725 425.749 455 389.634 455Z" fill="#0077B5"/>
<path d="M304.365 332.533C304.365 345.407 304.377 358.276 304.359 371.156C304.353 374.513 302.651 376.851 300.003 376.524C298.416 376.33 296.677 375.282 295.514 374.113C277.629 356.283 259.816 338.385 242.04 320.446C240.611 318.992 239.187 318.392 237.139 318.398C210.499 318.465 183.86 318.471 157.22 318.416C153.573 318.41 149.877 318.319 146.284 317.768C114.259 312.83 92.2479 287.099 92.2176 254.65C92.1873 226.362 92.1873 198.087 92.2419 169.799C92.2479 166.243 92.3994 162.632 92.9689 159.13C98.0642 127.862 123.728 106.045 155.433 106.02C203.266 105.984 251.104 105.996 298.943 106.045C302.493 106.051 306.098 106.208 309.582 106.82C340.626 112.297 362.097 137.664 362.267 169.218C362.419 198.159 362.443 227.095 362.358 256.043C362.279 282.683 345.333 306.19 320.124 314.63C315.101 316.308 309.812 317.18 304.377 318.501C304.365 322.972 304.365 327.753 304.365 332.533ZM295.362 315.805C295.362 310.71 296.41 309.625 301.578 309.341C327.745 307.862 347.563 290.753 352.464 265.283C353.046 262.259 353.319 259.127 353.325 256.049C353.355 227.107 353.385 198.172 353.246 169.224C353.125 142.426 335.458 121.076 309.254 115.944C305.88 115.284 302.366 115.06 298.912 115.054C250.977 114.993 203.053 114.987 155.124 115.03C124.74 115.054 101.33 138.464 101.227 168.969C101.13 197.348 101.196 225.72 101.209 254.104C101.221 286.003 124.292 309.28 156.154 309.389C183.072 309.48 209.997 309.528 236.915 309.298C241.834 309.256 245.264 310.716 248.669 314.224C263.203 329.158 278.004 343.832 292.721 358.597C293.417 359.3 294.163 359.966 295.362 361.099C295.362 345.498 295.362 330.655 295.362 315.805Z" fill="white"/>
<path d="M300.477 380.003C300.174 380.003 299.871 379.985 299.562 379.949C297.351 379.676 294.915 378.41 293.055 376.55C276.618 360.161 259.121 342.603 239.57 322.871C238.776 322.071 238.255 321.847 237.158 321.847C237.152 321.847 237.14 321.847 237.134 321.847C210.476 321.913 183.582 321.919 157.197 321.865C153.538 321.859 149.618 321.768 145.74 321.18C129.2 318.63 114.975 310.881 104.609 298.77C94.2424 286.665 88.7533 271.409 88.7412 254.645C88.7048 223.395 88.7109 195.634 88.7654 169.788C88.7715 165.25 89.0138 161.791 89.5348 158.574C94.9028 125.621 121.991 102.593 155.41 102.562C201.213 102.526 248.161 102.532 298.932 102.586C303.506 102.593 306.972 102.853 310.171 103.416C326.214 106.246 340.033 114.061 350.133 126.009C360.239 137.969 365.625 152.903 365.71 169.201C365.855 197.428 365.885 226.648 365.801 256.057C365.716 284.156 347.794 309.015 321.203 317.909C317.617 319.108 313.891 319.92 310.286 320.702C309.468 320.877 308.644 321.059 307.808 321.247C307.802 324.906 307.802 328.723 307.802 332.534V343.458C307.802 352.691 307.808 361.924 307.796 371.158C307.79 374.169 306.784 376.713 304.96 378.319C303.718 379.415 302.149 380.003 300.477 380.003ZM237.165 314.928C240.091 314.928 242.423 315.909 244.495 318.006C264.034 337.72 281.52 355.272 297.95 371.654C298.786 372.49 299.841 373.011 300.416 373.078C300.422 373.078 300.434 373.078 300.44 373.078C300.58 372.908 300.889 372.303 300.895 371.139C300.907 361.912 300.907 352.685 300.901 343.452V332.522C300.901 327.742 300.901 322.955 300.913 318.478L300.919 315.764L303.555 315.128C305.342 314.698 307.111 314.31 308.826 313.934C312.406 313.153 315.787 312.42 319.016 311.341C342.79 303.386 358.815 281.157 358.888 256.026C358.973 226.642 358.942 197.44 358.797 169.231C358.639 139.162 338.616 115.449 308.971 110.226C306.178 109.736 303.082 109.511 298.926 109.499C248.161 109.445 201.219 109.439 155.422 109.475C125.462 109.499 101.179 130.147 96.3689 159.683C95.9024 162.524 95.6964 165.644 95.6904 169.8C95.6358 195.646 95.6298 223.395 95.6661 254.639C95.6964 285.641 116.247 309.633 146.801 314.346C150.218 314.867 153.829 314.946 157.215 314.952C183.594 315 210.476 314.994 237.116 314.934C237.14 314.928 237.152 314.928 237.165 314.928ZM298.799 369.092L291.977 362.682C291.304 362.058 290.777 361.561 290.256 361.04C286.506 357.271 282.749 353.521 278.999 349.765C268.197 338.956 257.025 327.778 246.174 316.63C243.387 313.765 240.878 312.722 236.928 312.753C209.028 312.995 180.589 312.928 156.125 312.844C122.306 312.729 97.7503 288.022 97.7321 254.1C97.7321 247.169 97.72 240.244 97.7139 233.313C97.6958 212.217 97.6776 190.406 97.7503 168.952C97.8048 153.279 103.7 138.78 114.357 128.117C125.014 117.454 139.482 111.577 155.107 111.565C204.024 111.529 252.402 111.535 298.908 111.59C303.076 111.596 306.675 111.911 309.91 112.541C337.761 117.993 356.567 140.762 356.694 169.195C356.828 197.143 356.81 225.061 356.773 256.038C356.767 259.449 356.458 262.775 355.852 265.92C350.672 292.82 329.443 311.214 301.761 312.777C299.944 312.88 299.277 313.068 299.041 313.165C298.962 313.389 298.811 314.049 298.811 315.788C298.811 330.632 298.811 345.481 298.805 361.082L298.799 369.092ZM237.104 305.834C242.781 305.834 247.113 307.682 251.124 311.808C261.938 322.919 273.092 334.079 283.882 344.875C286.548 347.541 289.22 350.213 291.886 352.885C291.892 340.241 291.892 328.02 291.892 315.8C291.892 308.863 294.376 306.264 301.373 305.882C326.153 304.483 344.426 288.676 349.055 264.623C349.576 261.903 349.848 259.013 349.854 256.038C349.891 225.073 349.909 197.167 349.776 169.237C349.66 144.191 333.102 124.143 308.577 119.338C305.784 118.793 302.616 118.521 298.896 118.514C252.402 118.46 204.024 118.448 155.113 118.49C126.45 118.514 104.766 140.222 104.669 168.983C104.597 190.424 104.615 212.229 104.633 233.313C104.639 240.244 104.645 247.175 104.651 254.1C104.663 284.029 126.323 305.828 156.149 305.931C180.595 306.01 209.01 306.082 236.868 305.84C236.946 305.834 237.025 305.834 237.104 305.834Z" fill="white"/>
<path d="M247.658 176.349C247.822 191.659 235.383 204.212 219.849 204.418C204.545 204.624 191.731 192.095 191.586 176.767C191.428 161.354 203.879 148.522 219.128 148.364C234.917 148.201 247.489 160.536 247.658 176.349ZM237.771 176.446C237.795 166.395 229.676 158.264 219.607 158.258C209.762 158.252 201.546 166.383 201.474 176.21C201.401 186.273 209.501 194.488 219.516 194.513C229.646 194.549 237.74 186.533 237.771 176.446Z" fill="white"/>
<path d="M219.451 205.29C211.969 205.29 204.868 202.376 199.422 197.051C193.872 191.628 190.776 184.43 190.697 176.778C190.534 160.796 203.275 147.667 219.094 147.503C226.994 147.425 234.331 150.345 239.839 155.743C245.346 161.141 248.424 168.454 248.508 176.336C248.672 192.082 235.816 205.066 219.845 205.278C219.712 205.29 219.579 205.29 219.451 205.29ZM219.421 149.236C219.318 149.236 219.215 149.236 219.112 149.236C204.244 149.388 192.279 161.735 192.43 176.766C192.503 183.952 195.411 190.719 200.633 195.821C205.844 200.91 212.672 203.654 219.821 203.564C234.84 203.364 246.939 191.162 246.782 176.366C246.703 168.945 243.807 162.062 238.633 156.991C233.526 151.981 226.716 149.236 219.421 149.236ZM219.56 195.378C219.536 195.378 219.518 195.378 219.494 195.378C214.435 195.366 209.685 193.373 206.11 189.762C202.512 186.133 200.555 181.316 200.591 176.197C200.664 165.825 209.182 157.391 219.573 157.391C219.579 157.391 219.579 157.391 219.585 157.391C224.692 157.397 229.484 159.378 233.077 162.983C236.664 166.576 238.627 171.362 238.615 176.445C238.584 187.078 230.218 195.378 219.56 195.378ZM219.579 159.124C210.291 159.124 202.39 166.945 202.324 176.215C202.294 180.868 204.075 185.248 207.346 188.55C210.594 191.828 214.907 193.64 219.506 193.652C219.524 193.652 219.542 193.652 219.567 193.652C229.26 193.652 236.864 186.103 236.894 176.445C236.906 171.823 235.119 167.479 231.859 164.207C228.594 160.929 224.238 159.124 219.591 159.124C219.585 159.124 219.585 159.124 219.579 159.124Z" fill="white"/>
<path d="M261.044 225.653L257.051 231.954C256.688 232.536 255.9 232.711 255.313 232.348L248.6 228.095C243.607 225.308 238.203 224.102 232.32 224.187C223.141 224.32 213.975 224.217 204.802 224.169C189.759 224.066 177.854 236.128 178.247 251.154C178.302 253.202 178.435 255.28 178.799 257.297C179.816 262.907 183.185 266.076 188.85 266.815C190.534 267.039 193.927 266.888 193.927 266.888H210.776C210.776 266.888 210.849 267.124 210.897 267.494H243.323C244.298 267.124 244.934 268.899 244.934 268.899V275.334C244.934 275.334 244.304 277.109 243.323 277.187H210.897C210.776 277.109 210.673 277.054 210.576 277.036C204.463 277.054 198.374 277.054 192.243 277.018C188.147 277 184.136 276.291 180.404 274.54C174.085 271.565 170.383 266.464 169.22 259.739C167.069 247.416 169.353 236.019 177.448 226.229C183.028 219.461 190.546 216.02 199.095 214.899C202.76 214.433 206.492 214.378 210.194 214.348C218.228 214.263 226.286 214.245 234.326 214.318C241.069 214.348 247.303 215.99 253.016 219.207C253.192 219.225 253.344 219.28 253.495 219.383L260.656 223.89C261.238 224.278 261.408 225.047 261.044 225.653Z" fill="white"/>
<path d="M243.356 278.049H210.639L210.421 277.91C210.415 277.904 210.409 277.904 210.409 277.898C203.539 277.922 197.759 277.91 192.233 277.879C187.714 277.855 183.606 276.995 180.032 275.323C173.531 272.263 169.611 267.071 168.363 259.885C166.066 246.72 168.896 235.215 176.778 225.679C182.128 219.19 189.604 215.276 198.983 214.046C202.582 213.592 206.186 213.525 210.185 213.489C218.74 213.398 226.634 213.386 234.329 213.458C241.12 213.489 247.506 215.149 253.298 218.384C253.54 218.433 253.758 218.53 253.964 218.669L261.108 223.164C262.089 223.819 262.38 225.103 261.774 226.103L261.762 226.121L257.769 232.422C257.157 233.409 255.843 233.706 254.843 233.088L248.124 228.835C243.435 226.218 238.242 224.982 232.323 225.061C224.78 225.17 217.116 225.121 209.706 225.073L204.787 225.043C197.735 224.982 191.161 227.69 186.302 232.64C181.473 237.566 178.917 244.133 179.098 251.137C179.159 253.542 179.329 255.451 179.638 257.147C180.589 262.388 183.63 265.272 188.95 265.962C190.543 266.174 193.839 266.029 193.869 266.029H211.397L211.585 266.635H243.18C243.544 266.538 243.913 266.574 244.259 266.738C245.18 267.162 245.652 268.374 245.737 268.616L245.785 268.755V275.486L245.737 275.626C245.604 276.007 244.846 277.934 243.38 278.055L243.356 278.049ZM211.124 276.316H243.265C243.447 276.268 243.835 275.747 244.071 275.165V269.052C243.931 268.731 243.719 268.404 243.58 268.313L243.483 268.349H243.32H210.143L210.058 267.743H193.918C193.815 267.75 190.47 267.901 188.726 267.665C182.655 266.871 179.026 263.436 177.941 257.444C177.62 255.657 177.438 253.663 177.378 251.167C177.184 243.691 179.916 236.675 185.078 231.416C190.264 226.127 197.286 223.267 204.805 223.298L209.725 223.328C217.128 223.376 224.78 223.425 232.305 223.316C238.551 223.225 244.016 224.54 249.015 227.333L255.77 231.61C255.946 231.719 256.2 231.665 256.309 231.489L260.296 225.194C260.417 224.988 260.362 224.734 260.162 224.606L253.019 220.111C252.965 220.074 252.947 220.068 252.904 220.062L252.729 220.044L252.577 219.959C247.003 216.821 240.86 215.215 234.31 215.185C226.622 215.119 218.734 215.131 210.191 215.215C206.247 215.252 202.691 215.312 199.189 215.761C190.258 216.93 183.164 220.638 178.099 226.781C170.556 235.912 167.848 246.95 170.053 259.589C171.198 266.186 174.797 270.954 180.752 273.754C184.097 275.323 187.956 276.129 192.227 276.147C197.789 276.183 203.612 276.189 210.555 276.165H210.639L210.724 276.183C210.882 276.213 211.009 276.262 211.124 276.316Z" fill="white"/>
<path d="M273.423 238.237V273.11C273.423 273.346 273.235 273.546 272.993 273.546H264.154C263.923 273.546 263.723 273.352 263.723 273.11V238.237C263.723 238 263.911 237.8 264.154 237.8H272.993C273.229 237.8 273.423 238 273.423 238.237Z" fill="white"/>
<path d="M272.993 274.412H264.153C263.438 274.412 262.863 273.83 262.863 273.109V238.242C262.863 237.521 263.444 236.94 264.153 236.94H272.993C273.707 236.94 274.283 237.521 274.283 238.242V273.109C274.289 273.824 273.707 274.412 272.993 274.412ZM264.595 272.679H272.562V238.66H264.595V272.679Z" fill="white"/>
<path d="M250.83 250.522H285.697C285.933 250.522 286.133 250.71 286.133 250.952V259.792C286.133 260.022 285.939 260.222 285.697 260.222H250.83C250.593 260.222 250.393 260.034 250.393 259.792V250.952C250.393 250.716 250.587 250.522 250.83 250.522Z" fill="white"/>
<path d="M285.705 261.082H250.838C250.117 261.082 249.535 260.5 249.535 259.791V250.952C249.535 250.237 250.117 249.661 250.838 249.661H285.705C286.426 249.661 287.007 250.243 287.007 250.952V259.791C287.007 260.5 286.42 261.082 285.705 261.082ZM251.262 259.349H285.281V251.382H251.262V259.349Z" fill="white"/>
</svg>
