<svg width="20" height="20" viewBox="0 0 20 20" fill="none" xmlns="http://www.w3.org/2000/svg">
<path d="M18.0357 10.4712H16.5893C16.4947 10.4715 16.404 10.5093 16.3371 10.5764C16.2701 10.6435 16.2324 10.7344 16.2321 10.8292C15.8454 20.1828 2.54857 20.1846 2.16071 10.8292C2.16317 8.95956 2.90522 7.16718 4.22414 5.84513C5.54306 4.52308 7.3312 3.77926 9.19643 3.7768C9.29106 3.77652 9.38174 3.73871 9.44865 3.67164C9.51557 3.60456 9.55329 3.51367 9.55357 3.41881V1.96895C9.55329 1.87409 9.51557 1.7832 9.44865 1.71612C9.38174 1.64905 9.29106 1.61124 9.19643 1.61096C6.75817 1.61352 4.4205 2.58555 2.69639 4.31375C0.972279 6.04195 0.00255261 8.38517 0 10.8292C0.502857 23.056 17.8893 23.0578 18.3929 10.8292C18.3926 10.7344 18.3549 10.6435 18.2879 10.5764C18.221 10.5093 18.1303 10.4715 18.0357 10.4712ZM10.8036 0C10.7089 0.000283301 10.6183 0.0380911 10.5513 0.105166C10.4844 0.172241 10.4467 0.263133 10.4464 0.357991V1.80785C10.4467 1.90271 10.4844 1.9936 10.5513 2.06068C10.6183 2.12775 10.7089 2.16556 10.8036 2.16584C12.6688 2.16831 14.4569 2.91212 15.7759 4.23417C17.0948 5.55622 17.8368 7.3486 17.8393 9.21826C17.8396 9.31312 17.8773 9.40401 17.9442 9.47108C18.0111 9.53816 18.1018 9.57597 18.1964 9.57625H19.6429C19.7375 9.57597 19.8282 9.53816 19.8951 9.47108C19.962 9.40401 19.9997 9.31312 20 9.21826C19.9974 6.77421 19.0277 4.431 17.3036 2.70279C15.5795 0.974587 13.2418 0.00255867 10.8036 0Z" fill="#0077B5"/>
<path d="M3.1474 10.8265C3.14996 12.4328 3.78792 13.9726 4.9214 15.1081C6.05487 16.2436 7.59133 16.8821 9.19383 16.8837C14.2435 16.9296 17.0995 10.8409 13.8724 6.99961L10.001 11.5246C9.89548 11.645 9.7647 11.7405 9.61802 11.8043C9.47134 11.868 9.3124 11.8984 9.15261 11.8933C8.99282 11.8882 8.83615 11.8476 8.69384 11.7746C8.55153 11.7016 8.42712 11.5979 8.32955 11.4709L5.59383 7.81225C5.4448 7.60874 5.37197 7.35915 5.38811 7.10721C5.40426 6.85527 5.50834 6.61707 5.68212 6.43434C5.8559 6.25161 6.08829 6.13601 6.33857 6.1078C6.58885 6.07959 6.84105 6.14057 7.05097 6.28005L9.11526 7.65832C9.34812 7.4625 11.6763 5.51503 11.8403 5.3815C7.95562 3.3925 3.06955 6.43077 3.1474 10.8265ZM13.7831 10.4757C13.8778 10.4752 13.9689 10.5125 14.0362 10.5793C14.1035 10.6461 14.1416 10.737 14.142 10.8319C14.1425 10.9268 14.1053 11.0181 14.0387 11.0856C13.9721 11.153 13.8814 11.1912 13.7867 11.1917C13.692 11.1922 13.6009 11.1549 13.5336 11.0881C13.4663 11.0213 13.4282 10.9304 13.4278 10.8355C13.4273 10.7405 13.4645 10.6493 13.5311 10.5818C13.5977 10.5144 13.6884 10.4762 13.7831 10.4757ZM9.18312 15.0723C9.27784 15.0718 9.36887 15.1091 9.43618 15.1759C9.50349 15.2427 9.54157 15.3336 9.54205 15.4285C9.54252 15.5234 9.50535 15.6147 9.4387 15.6822C9.37206 15.7496 9.28141 15.7878 9.18669 15.7883C9.09197 15.7888 9.00094 15.7515 8.93363 15.6847C8.86631 15.6179 8.82823 15.527 8.82776 15.4321C8.82729 15.3371 8.86446 15.2459 8.9311 15.1784C8.99774 15.111 9.0884 15.0728 9.18312 15.0723ZM4.60097 11.1774C4.50625 11.1778 4.41523 11.1406 4.34791 11.0738C4.2806 11.007 4.24252 10.9161 4.24205 10.8212C4.24157 10.7262 4.27875 10.635 4.34539 10.5675C4.41203 10.5 4.50268 10.4619 4.5974 10.4614C4.69212 10.4609 4.78315 10.4982 4.85046 10.565C4.91778 10.6318 4.95586 10.7226 4.95633 10.8176C4.95681 10.9125 4.91963 11.0038 4.85299 11.0712C4.78635 11.1387 4.69569 11.1769 4.60097 11.1774ZM9.20097 6.58077C9.15407 6.581 9.10759 6.57197 9.06417 6.5542C9.02074 6.53643 8.98124 6.51025 8.94791 6.47718C8.8806 6.41038 8.84252 6.31951 8.84204 6.22457C8.84157 6.12962 8.87874 6.03837 8.94539 5.9709C9.01203 5.90343 9.10268 5.86526 9.1974 5.86478C9.29212 5.86431 9.38315 5.90157 9.45046 5.96837C9.51778 6.03517 9.55586 6.12604 9.55633 6.22099C9.5568 6.31593 9.51963 6.40717 9.45299 6.47465C9.38635 6.54212 9.29569 6.58029 9.20097 6.58077Z" fill="#0077B5"/>
<path d="M6.1684 7.38802L8.90411 11.0467C8.93654 11.0891 8.97797 11.1239 9.02541 11.1483C9.07286 11.1727 9.12513 11.1863 9.17845 11.188C9.23177 11.1897 9.2848 11.1796 9.33371 11.1582C9.38262 11.1369 9.42618 11.1049 9.46125 11.0646C10.7698 9.53418 13.662 6.1483 14.9363 4.66013C14.993 4.59169 15.0223 4.50456 15.0185 4.41568C15.0147 4.32679 14.9781 4.24249 14.9158 4.17913C14.8535 4.11578 14.7699 4.0779 14.6813 4.07285C14.5927 4.06779 14.5053 4.09593 14.4363 4.15179C14.0138 4.50512 12.3245 5.92169 11.9291 6.24603L9.1684 8.55507L6.65054 6.8761C6.58045 6.83071 6.49672 6.81136 6.41389 6.8214C6.33105 6.83144 6.25433 6.87023 6.19705 6.93105C6.13978 6.99187 6.10555 7.07087 6.10031 7.15434C6.09508 7.23782 6.11917 7.32049 6.1684 7.38802Z" fill="#0077B5"/>
</svg>
