<svg width="28" height="28" viewBox="0 0 28 28" fill="none" xmlns="http://www.w3.org/2000/svg">
<circle cx="14" cy="14" r="14" fill="#F3F3F3"/>
<path d="M14.0923 15.1611C13.5863 15.1611 13.1011 15.3621 12.7433 15.7199C12.3856 16.0777 12.1846 16.5629 12.1846 17.0688V21.5367H16V17.0688C16 16.5629 15.799 16.0777 15.4412 15.7199C15.0835 15.3621 14.5982 15.1611 14.0923 15.1611Z" fill="#00A0DC"/>
<path d="M14.9431 6.78795C14.7096 6.57774 14.4065 6.46143 14.0923 6.46143C13.778 6.46143 13.475 6.57774 13.2414 6.78795L6.46143 12.8901V19.5035C6.46143 20.0431 6.67582 20.5607 7.05743 20.9423C7.43905 21.324 7.95663 21.5383 8.49631 21.5383H10.9127V17.0686C10.9127 16.2253 11.2477 15.4166 11.844 14.8203C12.4403 14.2241 13.249 13.8891 14.0923 13.8891C14.9355 13.8891 15.7442 14.2241 16.3405 14.8203C16.9368 15.4166 17.2718 16.2253 17.2718 17.0686V21.5364H19.6882C20.2279 21.5364 20.7455 21.3221 21.1271 20.9404C21.5087 20.5588 21.7231 20.0412 21.7231 19.5016V12.8882L14.9431 6.78795Z" fill="#00A0DC"/>
</svg>
