<svg width="18" height="17" viewBox="0 0 18 17" fill="none" xmlns="http://www.w3.org/2000/svg">
<path d="M0 10.46C0 5.60058 4.10121 1.6613 9.16028 1.6613H11.0616V0.499023C11.0616 0.0678142 11.5934 -0.159627 11.927 0.128842L15.3838 3.11712C15.6126 3.31498 15.6126 3.65966 15.3838 3.85752L11.927 6.8458C11.5934 7.13427 11.0616 6.9068 11.0616 6.47562V5.31364H9.29327C5.658 5.31364 2.38212 7.42088 0.997968 10.6496C0.781713 11.1541 0 11.0056 0 10.46ZM17.6986 6.54003C17.6986 11.3994 13.5974 15.3387 8.53834 15.3387H6.63699V16.501C6.63699 16.9322 6.10527 17.1596 5.77162 16.8712L2.31486 13.8829C2.08598 13.685 2.08598 13.3403 2.31486 13.1425L5.77162 10.1542C6.1053 9.86573 6.63699 10.0932 6.63699 10.5244V11.6864H8.40536C12.0406 11.6864 15.3165 9.57912 16.7007 6.35038C16.9169 5.84596 17.6986 5.99447 17.6986 6.54003Z" fill="#00A0DC"/>
</svg>
