<svg width="305" height="305" viewBox="0 0 305 305" fill="none" xmlns="http://www.w3.org/2000/svg">
<g opacity="0.4">
<path d="M113.469 125.683C113.062 115.868 112.281 101.362 110.997 94.7532C108.963 84.2723 99.4205 81.3008 99.4205 81.3008L72.1877 70.9771H45.9069L18.6741 81.3008C18.6741 81.3008 9.13129 84.2723 7.09795 94.7532C5.81326 101.362 5.03227 115.868 4.62561 125.683C4.57328 126.963 4.78031 128.241 5.23425 129.439C5.68819 130.637 6.37967 131.731 7.26715 132.655C8.15462 133.579 9.21976 134.315 10.3986 134.817C11.5774 135.319 12.8455 135.577 14.1268 135.577H103.963C105.245 135.579 106.514 135.321 107.694 134.819C108.873 134.318 109.939 133.583 110.827 132.658C111.715 131.734 112.407 130.64 112.861 129.441C113.315 128.242 113.522 126.964 113.469 125.683Z" fill="#88C057"/>
<path d="M45.9067 51.2676H72.1876V81.9293H45.9067V51.2676Z" fill="#E7B95D"/>
<path d="M80.8711 89.0876C80.5789 83.621 79.5068 78.2243 77.6871 73.0612L74.235 71.7534L72.1879 70.9771L59.0497 75.9587L45.907 70.9771L39.234 73.5049C39.2386 76.0742 39.2247 78.639 38.7857 81.1807C38.3328 83.8009 37.0528 86.2224 36.9234 88.9074C36.7801 91.754 38.0972 93.9861 38.9244 96.6063C40.8468 102.688 38.1896 104.148 44.9689 111.265C46.7712 113.159 47.8479 114.948 48.4995 117.485C49.1372 119.976 54.4747 129.579 55.9443 132.462C57.8205 134.514 58.985 135.526 59.0451 135.582H59.0544C59.1191 135.526 60.3021 134.496 62.2107 132.402C62.2927 132.229 62.3951 132.066 62.5157 131.917L62.9408 131.386C62.9864 130.992 63.1435 130.62 63.3937 130.313C64.2948 129.177 65.3716 128.031 65.9446 126.677C66.0724 126.36 66.2757 126.08 66.5366 125.86C66.7976 125.64 67.1084 125.487 67.4419 125.415C73.4171 116.94 74.2304 113.002 76.6612 107.868C78.4219 104.153 78.8701 105.604 78.0938 101.583C76.8738 95.2893 81.3101 97.6553 80.8711 89.0876Z" fill="#CCCCCC"/>
<path d="M64.9648 129.204C61.485 133.465 59.1421 135.498 59.0543 135.577H59.045C58.9572 135.498 56.6097 133.46 53.1299 129.2L56.85 83.5699L54.6595 79.762L56.85 75.9587H61.2447L63.4398 79.762L61.2447 83.5699L64.9648 129.204Z" fill="#9A7BAA"/>
<path d="M72.1876 65.0388L59.0495 75.9587L45.9114 65.0388L43.1895 72.0076L51.4938 84.4895C51.6467 84.7197 51.8561 84.9069 52.1019 85.0332C52.3477 85.1595 52.6218 85.2208 52.898 85.211C53.1742 85.2013 53.4433 85.1209 53.6797 84.9776C53.916 84.8343 54.1117 84.6329 54.248 84.3924L59.0495 75.9587L63.8555 84.3924C63.9919 84.6329 64.1875 84.8343 64.4239 84.9776C64.6602 85.1209 64.9293 85.2013 65.2055 85.211C65.4817 85.2208 65.7558 85.1595 66.0016 85.0332C66.2475 84.9069 66.4568 84.7197 66.6098 84.4895L74.9141 72.0076L72.1876 65.0388Z" fill="#E6E6E6"/>
<path d="M80.5616 101.93C81.7585 105.595 68.7359 124.583 64.965 129.204C61.4852 133.465 59.1422 135.498 59.0544 135.577H59.0452C58.9574 135.498 56.6098 133.461 53.13 129.2C49.3591 124.579 36.3227 105.585 37.5427 101.93C38.1989 99.9475 39.2387 98.1129 37.8246 96.6942C36.3643 95.2339 34.1877 93.6719 34.5204 91.8604L37.7784 74.0641L43.9246 70.1545C43.1066 86.4674 46.591 115.535 59.0544 135.582C70.2655 117.554 74.6418 92.0129 74.2398 71.7581C74.2213 70.7183 74.1935 70.1545 74.1935 70.1545L80.2381 74.0317L83.5931 91.865C83.6657 92.2639 83.6406 92.6745 83.5199 93.0617C83.3992 93.4488 83.1864 93.8009 82.8999 94.0878C78.9118 98.062 79.0551 97.4058 80.5616 101.93Z" fill="#638B3F"/>
<path d="M81.5086 37.1684C80.6259 34.2293 76.9983 38.1666 76.9983 38.1666L76.8642 39.0354L75.9585 37.6444C75.9585 37.6444 77.368 29.012 77.6314 28.67C77.8948 28.3327 74.6368 20.8833 74.4612 20.6291C74.2856 20.3749 69.1745 18.9377 69.1745 18.9377C57.03 20.0561 61.3601 20.0792 48.9336 18.9377C48.9336 18.9377 43.8226 20.3749 43.647 20.6291C43.4714 20.8833 40.2134 28.3327 40.4768 28.67C40.7356 29.0074 42.1451 37.6444 42.1451 37.6444L41.2393 39.0354L41.1053 38.162C41.1053 38.162 37.4776 34.2247 36.595 37.1638C35.7123 40.1075 37.0617 45.6345 38.8501 47.7787C39.2131 48.2461 39.6709 48.6315 40.1934 48.9094C40.7158 49.1874 41.2912 49.3517 41.8817 49.3915C43.2357 58.2088 42.1589 55.7873 50.5973 66.2312C54.8257 71.4624 63.3148 71.4162 67.5063 66.2312L73.3983 58.939C74.4982 57.5757 75.2145 55.9629 75.4779 54.2577L76.2219 49.3915C80.6906 49.142 82.6269 40.8885 81.5086 37.1684Z" fill="#FFCC66"/>
<path d="M44.0536 13.2305C44.0536 13.2305 42.3761 15.5595 43.1201 19.8434C43.1201 19.8434 38.2031 22.7132 38.2031 28.5821C38.2031 34.4511 39.0257 36.9835 39.7697 40.9855L40.4305 44.0031C40.4624 44.1566 40.5478 44.2938 40.6715 44.3902C40.7951 44.4865 40.9491 44.5358 41.1057 44.5291C41.2623 44.5225 41.4115 44.4603 41.5266 44.3538C41.6416 44.2473 41.715 44.1033 41.7337 43.9477C43.9843 26.0081 45.5786 22.4775 51.0409 23.5681C54.2988 24.2197 66.2262 21.5209 70.2281 27.9444C73.0748 32.5102 74.549 38.1064 74.9649 43.37C75.0758 44.7795 77.0259 44.9643 77.4187 43.6519C77.6128 43.0049 77.8254 42.3302 78.0518 41.637C88.3802 10.6611 53.2174 0.905681 44.0536 13.2305Z" fill="#515151"/>
<path d="M294.2 125.373C293.803 115.692 293.026 101.385 291.765 94.8687C289.759 84.5357 280.35 81.6012 280.35 81.6012L253.496 71.4207H227.581L200.727 81.6012C200.727 81.6012 191.318 84.531 189.312 94.8687C188.046 101.385 187.274 115.692 186.872 125.373C186.821 126.636 187.026 127.895 187.474 129.077C187.921 130.258 188.603 131.337 189.478 132.248C190.352 133.16 191.402 133.885 192.564 134.381C193.726 134.876 194.976 135.132 196.24 135.133H284.837C290.161 135.133 294.422 130.697 294.2 125.373Z" fill="#ED7161"/>
<path d="M227.576 51.9839H253.492V82.2205H227.576V51.9839Z" fill="#E7B95D"/>
<path d="M262.055 89.2817C261.921 86.6429 260.77 77.3266 259.194 74.7526C258.948 74.3758 258.85 73.9219 258.917 73.4771L255.511 72.1878L253.492 71.4253L240.534 76.3376L227.576 71.4253L225.57 72.1878L221 73.9207C221.037 90.6495 216.203 82.4977 220.695 96.7033C221.508 99.2727 221.434 102.018 222.178 104.596C223.773 110.128 228.468 110.78 230.136 117.291C230.764 119.745 236.033 129.218 237.479 132.06C239.332 134.084 240.478 135.078 240.538 135.133H240.548C240.608 135.078 241.777 134.061 243.662 132C243.824 131.663 244.11 131.335 244.379 130.993C244.466 130.23 246.823 127.573 247.341 126.348C247.468 126.036 247.669 125.76 247.927 125.543C248.184 125.325 248.491 125.174 248.82 125.101C254.712 116.741 255.516 112.864 257.909 107.799C259.647 104.134 260.091 105.567 259.324 101.602C258.875 99.282 259.236 97.5398 260.733 95.7144C262.263 93.8382 262.175 91.6292 262.055 89.2817Z" fill="#CCCCCC"/>
<path d="M246.371 128.848C242.942 133.049 240.627 135.059 240.543 135.133H240.534C240.446 135.059 238.136 133.045 234.702 128.844L238.371 83.8425L236.209 80.0901L238.371 76.3376H242.706L244.873 80.0901L242.706 83.8425L246.371 128.848Z" fill="#54BBFF"/>
<path d="M253.492 65.5657L240.534 76.3331L227.576 65.5657L224.891 72.4374L233.08 84.7483C233.231 84.9748 233.438 85.159 233.68 85.2833C233.922 85.4077 234.192 85.4681 234.464 85.4588C234.736 85.4496 235.002 85.371 235.235 85.2305C235.468 85.0899 235.662 84.8922 235.797 84.6559L240.534 76.3331L245.271 84.6559C245.406 84.8922 245.6 85.0899 245.833 85.2305C246.066 85.371 246.331 85.4496 246.604 85.4588C246.876 85.4681 247.146 85.4077 247.388 85.2833C247.63 85.159 247.837 84.9748 247.988 84.7483L256.177 72.4374L253.492 65.5657Z" fill="white"/>
<path d="M261.473 96.7866C261.149 97.1112 260.921 97.5195 260.816 97.9659C260.711 98.4123 260.732 98.8792 260.877 99.3144C261.357 100.761 262.231 102.517 261.658 103.76C254.356 119.662 245.368 130.974 240.543 135.138H240.534C229.951 126.002 218.703 103.825 219.327 101.953C219.974 99.9983 221 98.1868 219.605 96.7866C214.983 92.1654 215.677 95.6775 219.558 74.4661L219.563 74.4615L225.617 70.6074C225.617 70.6074 225.589 71.162 225.571 72.1833C225.168 92.2347 229.485 117.351 240.539 135.129C251.597 117.351 255.913 92.1608 255.511 72.1879C255.493 71.162 255.465 70.6074 255.465 70.6074L261.426 74.4292C265.442 95.7792 266.094 92.1654 261.473 96.7866Z" fill="#D56455"/>
<path d="M262.683 38.0835C261.814 35.186 258.233 39.0678 258.233 39.0678L258.104 39.9273L257.212 38.5548C257.212 38.5548 258.603 30.0379 258.861 29.7052C259.12 29.3725 255.909 22.0247 255.733 21.7752C255.557 21.5256 250.52 20.1069 250.52 20.1069C238.542 21.2114 242.817 21.2345 230.557 20.1069C230.557 20.1069 225.515 21.5256 225.344 21.7752C225.168 22.0247 221.956 29.3725 222.215 29.7052C222.474 30.0379 223.865 38.5548 223.865 38.5548L222.973 39.9227L222.844 39.0631C222.844 39.0631 219.262 35.1813 218.394 38.0788C217.525 40.9763 218.856 46.4294 220.616 48.5413C220.974 49.0026 221.425 49.3829 221.941 49.6569C222.456 49.9309 223.024 50.0925 223.606 50.1309C224.942 58.8281 223.884 56.4389 232.202 66.735C236.361 71.883 244.739 71.8553 248.875 66.735C256.981 56.7023 256.089 59.1423 257.471 50.1309C261.879 49.8906 263.783 41.7527 262.683 38.0835Z" fill="#FFCC66"/>
<path d="M261.024 23.2077C261.024 23.2077 260.89 16.2713 254.665 15.0975C254.462 15.0608 254.28 14.9506 254.152 14.7879C253.265 13.6095 249.272 8.7572 243.219 8.07788C236.352 7.30614 219.54 9.84319 219.549 28.8826C219.549 35.7636 221.199 43.1529 222.169 46.3877C222.22 46.5572 222.325 46.7056 222.467 46.8106C222.61 46.9156 222.782 46.9715 222.959 46.97H223.019C223.13 46.9707 223.239 46.9491 223.341 46.9066C223.443 46.8641 223.535 46.8015 223.612 46.7226C223.69 46.6437 223.75 46.5501 223.79 46.4473C223.831 46.3445 223.85 46.2347 223.847 46.1243C223.796 43.7305 223.92 39.2618 225.228 34.6961C225.256 34.599 225.265 34.502 225.256 34.4003C225.164 33.3559 224.692 26.9278 226.952 22.2927C227.033 22.1287 227.167 21.997 227.332 21.9189C227.498 21.8409 227.684 21.8211 227.862 21.863C233.047 22.9674 240.455 28.6561 252.161 22.0617C252.251 22.008 252.35 21.9729 252.454 21.9582C252.557 21.9436 252.663 21.9498 252.764 21.9765C252.865 22.0032 252.96 22.0498 253.043 22.1137C253.126 22.1775 253.195 22.2572 253.247 22.3482C254.166 23.8686 256.126 27.8521 255.627 33.4992C255.619 33.5859 255.625 33.6733 255.645 33.758C255.895 34.7284 257.48 41.1981 257.129 46.0596C257.05 47.1364 258.593 47.2981 258.769 46.2814C259.306 43.1836 260.272 40.1756 261.639 37.344L261.722 36.942L261.024 23.2077Z" fill="#515151"/>
<path d="M207.705 220.806L221.046 207.465L246.592 233.02L233.255 246.357L207.705 220.806Z" fill="#333333"/>
<path d="M76.7628 76.4255C37.5611 115.627 37.5148 179.146 76.7166 218.348C115.918 257.549 179.483 257.549 218.685 218.348C257.84 179.192 257.84 115.627 218.639 76.4255C179.437 37.2237 115.918 37.27 76.7628 76.4255ZM206 205.662C173.804 237.858 121.598 237.854 89.4018 205.662C57.2058 173.471 57.252 121.307 89.448 89.1107C121.598 56.9609 173.757 56.9147 205.953 89.1107C238.149 121.302 238.149 173.513 206 205.662Z" fill="#515151"/>
<path d="M240.192 213.916L214.212 239.896C213.794 240.313 213.463 240.809 213.237 241.354C213.011 241.899 212.895 242.483 212.895 243.073C212.895 243.663 213.011 244.248 213.237 244.793C213.463 245.338 213.794 245.833 214.212 246.25L260.433 292.472C269.185 301.224 283.59 302.518 292.791 294.232C295.102 292.157 296.967 289.633 298.27 286.813C299.574 283.993 300.289 280.937 300.373 277.832C300.456 274.726 299.906 271.637 298.756 268.751C297.606 265.865 295.879 263.244 293.683 261.048L246.546 213.911C245.702 213.07 244.559 212.598 243.368 212.599C242.177 212.6 241.034 213.073 240.192 213.916Z" fill="#BF8E5F"/>
<path d="M219.669 163.633C219.138 150.772 218.112 131.769 216.43 123.114C213.768 109.384 201.267 105.488 201.267 105.488L165.592 91.9622H131.164L95.4879 105.488C95.4879 105.488 82.9875 109.384 80.3257 123.114C78.6482 131.769 77.6177 150.772 77.0863 163.633C77.0171 165.31 77.2878 166.984 77.8821 168.553C78.4764 170.123 79.3821 171.557 80.5446 172.768C81.7071 173.978 83.1025 174.942 84.6468 175.599C86.1912 176.257 87.8526 176.596 89.5312 176.595H207.22C208.899 176.596 210.56 176.258 212.105 175.601C213.65 174.943 215.046 173.98 216.209 172.769C217.372 171.558 218.278 170.125 218.873 168.554C219.467 166.984 219.738 165.31 219.669 163.633Z" fill="#666666"/>
<path d="M131.164 66.1479H165.592V106.311H131.164V66.1479Z" fill="#E7B95D"/>
<path d="M176.965 115.692C176.784 112.184 175.255 99.8134 173.166 96.3937C172.839 95.8929 172.707 95.2892 172.796 94.6977L168.272 92.9832L165.587 91.9666L148.378 98.4917L131.164 91.9666L128.497 92.9786L122.425 95.28C122.434 98.6488 122.416 102.008 121.838 105.336C121.247 108.769 119.569 111.939 119.394 115.456C119.209 119.185 120.932 122.106 122.018 125.54C124.537 133.507 121.053 135.424 129.935 144.745C132.296 147.227 133.706 149.57 134.56 152.893C135.522 156.631 137.717 159.963 139.528 163.35C141.15 166.391 142.749 169.441 144.316 172.514C146.774 175.204 148.299 176.526 148.378 176.599C148.466 176.526 150.023 175.176 152.523 172.436C152.74 171.987 153.115 171.553 153.475 171.1C153.538 170.586 153.742 170.099 154.067 169.695C155.245 168.207 156.659 166.701 157.403 164.926C157.572 164.512 157.839 164.145 158.181 163.857C158.523 163.568 158.93 163.368 159.367 163.272C167.195 152.167 168.258 147.014 171.447 140.291C173.753 135.42 174.344 137.328 173.323 132.06C171.729 123.816 177.542 126.921 176.965 115.692Z" fill="#CCCCCC"/>
<path d="M156.132 168.249C151.576 173.831 148.502 176.498 148.387 176.599H148.378C148.262 176.498 145.189 173.827 140.628 168.244L141.09 162.546L145.499 108.464L142.624 103.478L145.499 98.4963H151.252L154.131 103.478L151.252 108.464L156.132 168.249Z" fill="#ED7161"/>
<path d="M165.592 84.1892L148.378 98.4919L131.164 84.1892L127.596 93.3207L138.475 109.671C139.348 110.988 141.303 110.918 142.084 109.546L148.378 98.4919L154.672 109.546C154.851 109.86 155.108 110.124 155.418 110.311C155.727 110.498 156.08 110.603 156.442 110.616C156.803 110.628 157.162 110.548 157.484 110.382C157.806 110.217 158.081 109.972 158.281 109.671L169.159 93.3207L165.592 84.1892Z" fill="white"/>
<path d="M176.188 125.655C173.134 128.714 177.949 131.621 176.429 134.916C166.733 156.04 154.792 171.063 148.382 176.595H148.373C148.258 176.493 145.184 173.822 140.623 168.24C135.72 162.232 118.659 137.139 120.202 132.513L121.367 129.01C122.245 126.358 119.283 124.366 117.148 122.231C115.253 120.336 116.228 119.417 120.512 96.0055L120.516 96.0009L128.562 90.8806C128.562 90.8806 128.525 91.6154 128.497 92.974C128.331 101.375 128.604 133.585 141.09 162.542C143.168 167.4 145.605 172.1 148.382 176.595C163.069 152.976 168.803 119.514 168.272 92.9833C168.244 91.62 168.207 90.8852 168.207 90.8852L176.123 95.964C181.484 124.421 182.233 119.615 176.188 125.655Z" fill="#515151"/>
<path d="M177.801 47.6771C176.646 43.8276 171.891 48.9803 171.891 48.9803L171.715 50.1217L170.527 48.3009C170.527 48.3009 172.376 36.9882 172.718 36.5446C173.06 36.1009 168.794 26.3409 168.563 26.0082C168.332 25.6755 161.636 23.79 161.636 23.79L148.378 25.01L135.124 23.79C135.124 23.79 128.428 25.6755 128.197 26.0082C127.966 26.3409 123.701 36.1009 124.042 36.5446C124.384 36.9882 126.233 48.3009 126.233 48.3009L125.045 50.1217L124.87 48.9803C124.87 48.9803 120.114 43.823 118.959 47.6771C117.804 51.5266 119.569 58.7726 121.912 61.5777C123.289 63.2275 124.837 63.6341 125.882 63.6896C127.652 75.2426 126.242 72.0632 137.301 85.7466C142.837 92.5999 153.965 92.5352 159.45 85.7466L167.168 76.1946C168.609 74.4108 169.548 72.2943 169.89 70.0622L170.869 63.6896C171.914 63.6295 173.462 63.2228 174.839 61.5777C177.191 58.7726 178.956 51.5266 177.801 47.6771Z" fill="#FFCC66"/>
<path d="M169.27 19.4367C169.27 19.4367 169.57 8.16561 158.1 6.05372C122.258 -0.549995 118.053 33.0924 124.287 47.9219C124.287 47.9219 125.419 54.8953 125.66 58.0562C125.687 58.4167 125.983 58.694 126.343 58.694C126.439 58.6944 126.533 58.6749 126.621 58.6365C126.708 58.5981 126.786 58.5418 126.85 58.4711C126.914 58.4005 126.963 58.3172 126.992 58.2266C127.022 58.136 127.033 58.0402 127.023 57.9453C126.796 55.6393 126.311 48.4996 128.312 43.4948C128.312 43.4948 123.58 31.0175 131.833 30.1117C140.087 29.206 149.445 37.0574 164.14 28.1986C164.14 28.1986 169.372 30.8142 168.873 40.1768C168.873 40.1768 171.474 52.081 171.41 58.0054C171.409 58.0986 171.428 58.1908 171.465 58.2764C171.502 58.362 171.556 58.4392 171.624 58.5033C171.691 58.5673 171.772 58.6168 171.859 58.6487C171.947 58.6807 172.04 58.6944 172.133 58.689C172.226 58.6836 172.317 58.6593 172.4 58.6175C172.483 58.5757 172.557 58.5174 172.617 58.446C172.677 58.3746 172.722 58.2918 172.749 58.2025C172.775 58.1132 172.784 58.0194 172.773 57.9268C172.551 56.2077 172.297 51.7575 174.409 46.2121C177.117 39.063 180.439 24.5709 169.27 19.4367Z" fill="#515151"/>
</g>
</svg>
