<svg width="21" height="20" viewBox="0 0 21 20" fill="none" xmlns="http://www.w3.org/2000/svg">
<path d="M20.1128 20V12.675C20.1128 9.075 19.3378 6.325 15.1378 6.325C13.1128 6.325 11.7628 7.425 11.2128 8.475H11.1628V6.65H7.18779V20H11.3378V13.375C11.3378 11.625 11.6628 9.95 13.8128 9.95C15.9378 9.95 15.9628 11.925 15.9628 13.475V19.975H20.1128V20ZM0.437793 6.65H4.58779V20H0.437793V6.65ZM2.51279 0C1.18779 0 0.112793 1.075 0.112793 2.4C0.112793 3.725 1.18779 4.825 2.51279 4.825C3.83779 4.825 4.91279 3.725 4.91279 2.4C4.91279 1.075 3.83779 0 2.51279 0Z" fill="#007AB9"/>
</svg>
