<svg width="48" height="48" viewBox="0 0 48 48" fill="none" xmlns="http://www.w3.org/2000/svg">
<path d="M33.9375 0H14.0625C6.296 0 0 6.296 0 14.0625V33.9375C0 41.704 6.296 48 14.0625 48H33.9375C41.704 48 48 41.704 48 33.9375V14.0625C48 6.296 41.704 0 33.9375 0Z" fill="#1E88E5"/>
<path d="M39.8607 25.758H37.7035V16.1524C37.7035 14.2314 36.1463 12.6733 34.2244 12.6733H27.3582C25.831 12.6733 24.5925 13.9118 24.5925 15.4389C24.5925 16.9661 25.831 18.2046 27.3582 18.2046H30.78C31.5488 18.2046 32.1713 18.828 32.1713 19.5958V25.758H29.8772C28.7991 25.758 27.9254 26.6318 27.9254 27.7099C27.9254 28.1308 28.0613 28.5396 28.3125 28.8771L32.0804 33.9283C33.4716 35.7939 36.2663 35.7939 37.6575 33.9283L41.4244 28.8771C41.6757 28.5398 41.8115 28.1305 41.8116 27.7099C41.8116 26.6318 40.9379 25.758 39.8597 25.758H39.8607ZM20.6419 29.7958H17.22C16.4513 29.7958 15.8288 29.1724 15.8288 28.4046V22.2424H18.1229C19.201 22.2424 20.0747 21.3686 20.0747 20.2905C20.0747 19.8696 19.9388 19.4608 19.6875 19.1233L15.9197 14.0721C14.5285 12.2064 11.7338 12.2064 10.3425 14.0721L6.57566 19.1233C6.32433 19.4606 6.18854 19.8699 6.18848 20.2905C6.18848 21.3686 7.06223 22.2424 8.14035 22.2424H10.2975V31.848C10.2975 33.7699 11.8547 35.3271 13.7766 35.3271H20.6429C22.17 35.3271 23.4085 34.0886 23.4085 32.5614C23.4085 31.0343 22.17 29.7958 20.6429 29.7958H20.6419Z" fill="white"/>
</svg>
