<svg width="79" height="79" viewBox="0 0 79 79" fill="none" xmlns="http://www.w3.org/2000/svg">
<rect x="1" y="1" width="77" height="77" rx="7" fill="white"/>
<rect x="1" y="1" width="77" height="77" rx="7" stroke="#CBCBCB" stroke-width="2"/>
<path d="M52.3333 43.9165L54.0283 44.1585C55.3388 44.3458 56.5379 44.9996 57.4053 45.9998C58.2726 47.0001 58.7501 48.2796 58.75 49.6035V61.3332C58.75 62.0625 58.4603 62.762 57.9445 63.2777C57.4288 63.7934 56.7293 64.0832 56 64.0832H23C22.2707 64.0832 21.5712 63.7934 21.0555 63.2777C20.5397 62.762 20.25 62.0625 20.25 61.3332V49.6035C20.2501 48.2796 20.7276 47.0002 21.595 46C22.4623 44.9999 23.6612 44.346 24.9718 44.1585L26.6667 43.9165H52.3333Z" fill="#122359"/>
<path d="M37.6664 64.083C26.6664 48.4997 31.2497 42.083 31.2497 42.083H47.7497C47.7497 42.083 52.333 48.4997 41.333 64.083H37.6664Z" fill="white"/>
<path d="M43.1667 64.083C53.25 52.1663 52.3334 43.9163 52.3334 43.9163C50.5 42.083 47.75 42.083 47.75 42.083C47.75 42.083 47.75 53.083 39.5 64.083C31.25 53.083 31.25 42.083 31.25 42.083C31.25 42.083 28.5 42.083 26.6667 43.9163C26.6667 43.9163 25.75 52.1663 35.8334 64.083H43.1667Z" fill="#18316D"/>
<path d="M42.3506 59.7473C41.5348 61.1773 40.5906 62.6257 39.4998 64.0832C38.4606 62.6983 37.5085 61.2502 36.6489 59.7473C36.0806 51.3323 38.5831 50.3332 38.5831 50.3332L39.4998 49.4165L40.4164 50.3332C40.4164 50.3332 42.9189 51.3323 42.3506 59.7473Z" fill="#CC3A52"/>
<path d="M42.3964 46.5839V46.593C42.2497 49.4164 40.4164 50.333 40.4164 50.333H38.583C38.583 50.333 36.7497 49.4164 36.603 46.593L36.6049 46.5848C37.3923 43.6148 41.608 43.6129 42.3964 46.5839Z" fill="#EA4458"/>
<path d="M44.0833 40.25C44.0833 40.25 45.9167 40.25 47.75 42.0833L43.5205 47.158C43.4818 47.2056 43.4328 47.2439 43.3772 47.2698C43.3216 47.2958 43.2609 47.3087 43.1995 47.3078C43.1382 47.3068 43.0778 47.2919 43.0231 47.2642C42.9683 47.2365 42.9206 47.1968 42.8834 47.1479C42.4352 46.5484 41.4094 45.4695 39.5 44.8333C37.5906 45.4695 36.5648 46.5484 36.1166 47.1479C36.0794 47.1968 36.0317 47.2365 35.9769 47.2642C35.9222 47.2919 35.8618 47.3068 35.8005 47.3078C35.7391 47.3087 35.6784 47.2958 35.6228 47.2698C35.5672 47.2439 35.5182 47.2056 35.4795 47.158L31.25 42.0833C33.0833 40.25 34.9167 40.25 34.9167 40.25H44.0833Z" fill="#EDF3F7"/>
<path d="M22.4682 29.2497H22.0832C20.0573 29.2497 18.4165 27.6088 18.4165 25.583V23.7497C18.4165 21.7238 20.0573 20.083 22.0832 20.083H22.4682V29.2497ZM56.5315 20.083H56.9165C58.9423 20.083 60.5832 21.7238 60.5832 23.7497V25.583C60.5832 27.6088 58.9423 29.2497 56.9165 29.2497H56.5315V20.083ZM34.9165 35.6663V40.2497L39.4998 44.833L44.0832 40.2497V35.6663H34.9165Z" fill="#CED7DD"/>
<path d="M46.833 12.75H32.1663C26.5975 12.75 22.083 17.2645 22.083 22.8333V26.5C22.083 32.0689 26.5975 36.5833 32.1663 36.5833H46.833C52.4019 36.5833 56.9163 32.0689 56.9163 26.5V22.8333C56.9163 17.2645 52.4019 12.75 46.833 12.75Z" fill="#E4EAEF"/>
<path d="M46.8333 18.25H32.1667C28.6228 18.25 25.75 21.1228 25.75 24.6667C25.75 28.2105 28.6228 31.0833 32.1667 31.0833H46.8333C50.3772 31.0833 53.25 28.2105 53.25 24.6667C53.25 21.1228 50.3772 18.25 46.8333 18.25Z" fill="#122359"/>
<path d="M45.1098 17.027C45.8899 15.9701 46.8304 14.3641 46.8331 12.7581C46.8338 12.2709 46.6412 11.8033 46.2974 11.458C45.9537 11.1127 45.487 10.918 44.9998 10.9165H33.9989C33.5117 10.918 33.0449 11.1127 32.7012 11.458C32.3575 11.8033 32.1648 12.2709 32.1655 12.7581C32.1683 14.365 33.1088 15.971 33.8889 17.027C34.1733 17.4086 34.5434 17.718 34.9693 17.9304C35.3952 18.1428 35.865 18.2522 36.3409 18.2498H42.6568C43.622 18.2498 44.5369 17.8034 45.1098 17.027Z" fill="#CED7DD"/>
<path d="M32.1663 26.4997C33.1789 26.4997 33.9997 25.6789 33.9997 24.6663C33.9997 23.6538 33.1789 22.833 32.1663 22.833C31.1538 22.833 30.333 23.6538 30.333 24.6663C30.333 25.6789 31.1538 26.4997 32.1663 26.4997Z" fill="#71FFE4"/>
<path d="M46.8333 26.4997C47.8459 26.4997 48.6667 25.6789 48.6667 24.6663C48.6667 23.6538 47.8459 22.833 46.8333 22.833C45.8208 22.833 45 23.6538 45 24.6663C45 25.6789 45.8208 26.4997 46.8333 26.4997Z" fill="#71FFE4"/>
</svg>
