<svg width="87" height="36" viewBox="0 0 87 36" fill="none" xmlns="http://www.w3.org/2000/svg">
<path d="M41.5498 24.7886H41.4971V26.3574H37.3311V6.37109H41.4971V14.8877H41.5498C42.5781 13.3145 44.0415 12.5278 45.9399 12.5278C47.6802 12.5278 49.0205 13.1255 49.9609 14.3208C50.9014 15.5161 51.3716 17.1509 51.3716 19.2251C51.3716 21.4751 50.8223 23.2812 49.7236 24.6436C48.625 26.0059 47.1572 26.687 45.3203 26.687C43.6592 26.687 42.4023 26.0542 41.5498 24.7886ZM41.4312 19.0933V20.4775C41.4312 21.3477 41.6816 22.0684 42.1826 22.6396C42.6836 23.2109 43.3252 23.4966 44.1074 23.4966C45.0566 23.4966 45.7905 23.1318 46.3091 22.4023C46.8364 21.6641 47.1001 20.6226 47.1001 19.2778C47.1001 18.1616 46.8584 17.2915 46.375 16.6675C45.9004 16.0347 45.2192 15.7183 44.3315 15.7183C43.4966 15.7183 42.8022 16.0303 42.2485 16.6543C41.7036 17.2783 41.4312 18.0913 41.4312 19.0933Z" fill="white"/>
<path d="M60.5078 26.687C58.2578 26.687 56.4868 26.0586 55.1948 24.8018C53.9116 23.5361 53.27 21.8223 53.27 19.6602C53.27 17.4277 53.938 15.6831 55.2739 14.4263C56.6099 13.1606 58.416 12.5278 60.6924 12.5278C62.9336 12.5278 64.6914 13.1606 65.9658 14.4263C67.2402 15.6831 67.8774 17.3486 67.8774 19.4228C67.8774 21.6641 67.2183 23.4351 65.8999 24.7358C64.5903 26.0366 62.793 26.687 60.5078 26.687ZM60.6133 15.7183C59.6289 15.7183 58.8643 16.0566 58.3193 16.7334C57.7744 17.4102 57.502 18.3682 57.502 19.6074C57.502 22.2002 58.5478 23.4966 60.6396 23.4966C62.6348 23.4966 63.6323 22.165 63.6323 19.502C63.6323 16.9795 62.626 15.7183 60.6133 15.7183Z" fill="white"/>
<path d="M74.7461 26.3574H70.5801V6.37109H74.7461V26.3574Z" fill="white"/>
<path d="M86.4136 26.1992C85.7983 26.5244 84.8711 26.687 83.6318 26.687C80.6963 26.687 79.2285 25.1621 79.2285 22.1123V15.9292H77.04V12.8574H79.2285V9.94385L83.3813 8.75732V12.8574H86.4136V15.9292H83.3813V21.3872C83.3813 22.7935 83.9394 23.4966 85.0557 23.4966C85.4951 23.4966 85.9478 23.3691 86.4136 23.1143V26.1992Z" fill="white"/>
<circle cx="18" cy="18" r="18" fill="white"/>
<path d="M15.8667 25.7144H11.7139V23.6577H11.648C10.6196 25.2485 9.24414 26.0439 7.52149 26.0439C4.39258 26.0439 2.82812 24.1499 2.82812 20.3618V12.2144H6.98096V19.9927C6.98096 21.8999 7.73682 22.8535 9.24854 22.8535C9.99561 22.8535 10.5933 22.5942 11.0415 22.0757C11.4897 21.5483 11.7139 20.8364 11.7139 19.9399V12.2144H15.8667V25.7144Z" fill="#1C4B81"/>
<path d="M32.4253 25.7144H28.2725V18.2129C28.2725 16.1211 27.5254 15.0752 26.0313 15.0752C25.3106 15.0752 24.7173 15.3521 24.2515 15.9058C23.7856 16.4595 23.5527 17.1626 23.5527 18.0151V25.7144H19.3867V12.2144H23.5527V14.3501H23.6055C24.5986 12.7065 26.0444 11.8848 27.9429 11.8848C30.9312 11.8848 32.4253 13.7393 32.4253 17.4482V25.7144Z" fill="#1C4B81"/>
</svg>
