<svg width="226" height="50" viewBox="0 0 226 50" fill="none" xmlns="http://www.w3.org/2000/svg">
<path d="M42.8169 50H7.18309C3.21704 50 0 46.783 0 42.8149V7.18242C0 3.21571 3.21571 0 7.18242 0H42.8176C46.7856 0 50 3.21704 50 7.18242V42.8149C50.0027 46.783 46.7856 50 42.8169 50Z" fill="#0077B5"/>
<path d="M33.4109 36.5422C33.4109 37.957 33.4122 39.3711 33.4102 40.7866C33.4095 41.1554 33.2224 41.4124 32.9315 41.3765C32.7571 41.3552 32.566 41.24 32.4382 41.1115C30.4728 39.1521 28.5154 37.1854 26.562 35.214C26.4049 35.0542 26.2484 34.9883 26.0234 34.989C23.0959 34.9963 20.1685 34.997 17.2411 34.991C16.8403 34.9903 16.4342 34.9803 16.0394 34.9197C12.52 34.3771 10.1013 31.5496 10.0979 27.9837C10.0946 24.8751 10.0946 21.7679 10.1006 18.6594C10.1013 18.2686 10.1179 17.8718 10.1805 17.487C10.7404 14.0509 13.5607 11.6534 17.0447 11.6508C22.301 11.6468 27.558 11.6481 32.815 11.6534C33.2051 11.6541 33.6013 11.6714 33.9841 11.7386C37.3955 12.3405 39.7551 15.1281 39.7737 18.5955C39.7903 21.7759 39.793 24.9557 39.7837 28.1368C39.775 31.0642 37.9129 33.6474 35.1425 34.5749C34.5906 34.7593 34.0094 34.8552 33.4122 35.0003C33.4109 35.4916 33.4109 36.0169 33.4109 36.5422ZM32.4215 34.704C32.4215 34.1441 32.5367 34.0249 33.1046 33.9936C35.9801 33.8312 38.1579 31.951 38.6965 29.1521C38.7604 28.8199 38.7903 28.4757 38.791 28.1374C38.7943 24.957 38.7977 21.7773 38.7824 18.5962C38.769 15.6514 36.8276 13.3052 33.9481 12.7413C33.5773 12.6687 33.1911 12.6441 32.8117 12.6434C27.544 12.6368 22.2777 12.6361 17.0107 12.6408C13.6718 12.6434 11.0993 15.216 11.088 18.5682C11.0773 21.6867 11.0846 24.8046 11.086 27.9237C11.0873 31.4291 13.6226 33.987 17.1239 33.999C20.082 34.009 23.0407 34.0143 25.9987 33.989C26.5393 33.9843 26.9162 34.1448 27.2903 34.5303C28.8876 36.1714 30.514 37.7839 32.1312 39.4064C32.2078 39.4837 32.2897 39.5569 32.4215 39.6814C32.4215 37.967 32.4215 36.3359 32.4215 34.704Z" fill="white"/>
<path d="M32.9845 41.7589C32.9512 41.7589 32.9179 41.7569 32.884 41.7529C32.641 41.7229 32.3733 41.5838 32.1689 41.3794C30.3627 39.5784 28.4399 37.649 26.2914 35.4806C26.2042 35.3927 26.147 35.368 26.0265 35.368C26.0258 35.368 26.0245 35.368 26.0238 35.368C23.0944 35.3754 20.139 35.376 17.2395 35.37C16.8374 35.3694 16.4066 35.3594 15.9805 35.2948C14.1629 35.0145 12.5997 34.163 11.4605 32.8321C10.3214 31.5019 9.7182 29.8254 9.71687 27.9832C9.71288 24.5491 9.71354 21.4985 9.71954 18.6583C9.7202 18.1596 9.74683 17.7795 9.80409 17.426C10.394 13.8048 13.3707 11.2742 17.0431 11.2708C22.0764 11.2668 27.2355 11.2675 32.8147 11.2735C33.3174 11.2742 33.6982 11.3028 34.0498 11.3647C35.8127 11.6756 37.3314 12.5345 38.4412 13.8474C39.5518 15.1616 40.1436 16.8028 40.153 18.5937C40.1689 21.6956 40.1723 24.9067 40.1629 28.1384C40.1536 31.2262 38.1843 33.9579 35.2622 34.9353C34.868 35.0671 34.4586 35.1563 34.0624 35.2422C33.9725 35.2615 33.882 35.2815 33.7901 35.3021C33.7894 35.7043 33.7894 36.1237 33.7894 36.5425V37.7429C33.7894 38.7575 33.7901 39.7722 33.7888 40.7868C33.7881 41.1177 33.6776 41.3973 33.4772 41.5738C33.3407 41.6943 33.1683 41.7589 32.9845 41.7589ZM26.0271 34.6077C26.3487 34.6077 26.605 34.7156 26.8327 34.9459C28.9799 37.1124 30.9013 39.0412 32.7069 40.8414C32.7988 40.9333 32.9146 40.9906 32.9779 40.9979C32.9785 40.9979 32.9799 40.9979 32.9805 40.9979C32.9958 40.9792 33.0298 40.9127 33.0305 40.7848C33.0318 39.7709 33.0318 38.7569 33.0311 37.7422V36.5412C33.0311 36.0159 33.0311 35.4899 33.0325 34.9979L33.0331 34.6996L33.3227 34.6297C33.5191 34.5824 33.7135 34.5398 33.902 34.4985C34.2954 34.4127 34.6669 34.3321 35.0218 34.2136C37.6343 33.3394 39.3953 30.8967 39.4033 28.135C39.4126 24.906 39.4093 21.6969 39.3933 18.5971C39.376 15.2928 37.1756 12.6869 33.9179 12.113C33.611 12.0591 33.2708 12.0345 32.8141 12.0331C27.2355 12.0272 22.0771 12.0265 17.0444 12.0305C13.7522 12.0331 11.0837 14.3021 10.5551 17.5478C10.5038 17.86 10.4812 18.2029 10.4805 18.6596C10.4745 21.4999 10.4739 24.5491 10.4779 27.9826C10.4812 31.3893 12.7395 34.0258 16.097 34.5438C16.4725 34.6011 16.8693 34.6097 17.2415 34.6104C20.1403 34.6157 23.0944 34.6151 26.0218 34.6084C26.0245 34.6077 26.0258 34.6077 26.0271 34.6077ZM32.8001 40.5598L32.0504 39.8554C31.9765 39.7868 31.9186 39.7322 31.8614 39.675C31.4492 39.2609 31.0365 38.8487 30.6243 38.436C29.4373 37.2482 28.2096 36.0198 27.0171 34.7948C26.7109 34.4799 26.4353 34.3654 26.0012 34.3687C22.9353 34.3953 19.8101 34.388 17.1217 34.3787C13.4053 34.3661 10.7069 31.651 10.7049 27.9233C10.7049 27.1617 10.7036 26.4007 10.7029 25.639C10.7009 23.3208 10.6989 20.924 10.7069 18.5664C10.7129 16.8441 11.3607 15.2509 12.5318 14.0791C13.7029 12.9073 15.2928 12.2615 17.0098 12.2602C22.3853 12.2562 27.7016 12.2568 32.8121 12.2628C33.2701 12.2635 33.6656 12.2981 34.0211 12.3674C37.0817 12.9666 39.1483 15.4686 39.1623 18.5931C39.1769 21.6643 39.1749 24.7322 39.1709 28.1364C39.1703 28.5112 39.1363 28.8767 39.0697 29.2222C38.5005 32.1783 36.1676 34.1996 33.1257 34.3714C32.9259 34.3827 32.8527 34.4033 32.8267 34.414C32.8181 34.4386 32.8014 34.5112 32.8014 34.7023C32.8014 36.3334 32.8014 37.9653 32.8008 39.6796L32.8001 40.5598ZM26.0205 33.6084C26.6443 33.6084 27.1203 33.8115 27.5611 34.2649C28.7495 35.4859 29.9752 36.7123 31.161 37.8987C31.4539 38.1916 31.7475 38.4852 32.0404 38.7788C32.0411 37.3894 32.0411 36.0465 32.0411 34.7036C32.0411 33.9413 32.3141 33.6557 33.0831 33.6137C35.8061 33.4599 37.8141 31.7229 38.3227 29.0798C38.38 28.7808 38.41 28.4632 38.4106 28.1364C38.4146 24.7336 38.4166 21.667 38.402 18.5977C38.3893 15.8454 36.5697 13.6423 33.8747 13.1144C33.5677 13.0545 33.2195 13.0245 32.8108 13.0238C27.7016 13.0178 22.3853 13.0165 17.0105 13.0212C13.8607 13.0238 11.4779 15.4093 11.4672 18.5698C11.4592 20.926 11.4612 23.3221 11.4632 25.639C11.4639 26.4007 11.4645 27.1623 11.4652 27.9233C11.4665 31.2123 13.8467 33.6077 17.1243 33.619C19.8107 33.6277 22.9333 33.6357 25.9945 33.6091C26.0032 33.6084 26.0118 33.6084 26.0205 33.6084Z" fill="white"/>
<path d="M27.163 19.3796C27.181 21.062 25.8142 22.4415 24.1071 22.4642C22.4254 22.4868 21.0172 21.11 21.0013 19.4255C20.984 17.7318 22.3521 16.3217 24.0279 16.3044C25.7629 16.2864 27.1444 17.6419 27.163 19.3796ZM26.0765 19.3903C26.0792 18.2857 25.187 17.3923 24.0805 17.3916C22.9986 17.3909 22.0958 18.2844 22.0878 19.3643C22.0798 20.4702 22.97 21.373 24.0705 21.3756C25.1837 21.3796 26.0732 20.4988 26.0765 19.3903Z" fill="white"/>
<path d="M24.0632 22.5598C23.2409 22.5598 22.4606 22.2396 21.8621 21.6544C21.2522 21.0585 20.912 20.2676 20.9034 19.4267C20.8854 17.6704 22.2855 16.2276 24.0239 16.2096C24.8921 16.201 25.6983 16.5219 26.3035 17.1151C26.9087 17.7083 27.2469 18.5119 27.2562 19.3781C27.2742 21.1084 25.8614 22.5352 24.1064 22.5585C24.0918 22.5598 24.0771 22.5598 24.0632 22.5598ZM24.0598 16.4001C24.0485 16.4001 24.0372 16.4001 24.0259 16.4001C22.3921 16.4167 21.0771 17.7736 21.0938 19.4254C21.1018 20.215 21.4213 20.9586 21.9952 21.5192C22.5678 22.0785 23.3181 22.3801 24.1038 22.3701C25.7542 22.3481 27.0838 21.0072 27.0665 19.3814C27.0578 18.5658 26.7396 17.8095 26.171 17.2523C25.6098 16.7017 24.8614 16.4001 24.0598 16.4001ZM24.0751 21.4706C24.0725 21.4706 24.0705 21.4706 24.0678 21.4706C23.5119 21.4693 22.9899 21.2503 22.5971 20.8535C22.2016 20.4546 21.9866 19.9254 21.9906 19.3628C21.9986 18.223 22.9347 17.2962 24.0765 17.2962C24.0771 17.2962 24.0771 17.2962 24.0778 17.2962C24.6391 17.2969 25.1657 17.5146 25.5605 17.9107C25.9546 18.3055 26.1703 18.8315 26.169 19.3901C26.1657 20.5585 25.2462 21.4706 24.0751 21.4706ZM24.0771 17.4866C23.0565 17.4866 22.1883 18.3461 22.181 19.3648C22.1777 19.8761 22.3734 20.3574 22.7329 20.7203C23.0898 21.0805 23.5638 21.2796 24.0691 21.2809C24.0711 21.2809 24.0731 21.2809 24.0758 21.2809C25.1411 21.2809 25.9766 20.4513 25.9799 19.3901C25.9813 18.8821 25.7849 18.4047 25.4267 18.0452C25.0678 17.685 24.5891 17.4866 24.0785 17.4866C24.0778 17.4866 24.0778 17.4866 24.0771 17.4866Z" fill="white"/>
<path d="M28.6336 24.7968L28.1948 25.4892C28.1549 25.5531 28.0683 25.5724 28.0037 25.5325L27.2661 25.0651C26.7175 24.7588 26.1236 24.6264 25.4771 24.6357C24.4685 24.6503 23.4611 24.639 22.4532 24.6337C20.8 24.6224 19.4918 25.9479 19.535 27.5991C19.541 27.8241 19.5557 28.0525 19.5956 28.2742C19.7075 28.8907 20.0777 29.2389 20.7002 29.3201C20.8852 29.3447 21.2581 29.3281 21.2581 29.3281H23.1096C23.1096 29.3281 23.1176 29.3541 23.1229 29.3947H26.6862C26.7934 29.3541 26.8633 29.5491 26.8633 29.5491V30.2562C26.8633 30.2562 26.794 30.4513 26.6862 30.4599H23.1229C23.1096 30.4513 23.0983 30.4453 23.0876 30.4433C22.4159 30.4453 21.7468 30.4453 21.073 30.4413C20.6229 30.4393 20.1822 30.3614 19.7721 30.169C19.0777 29.8421 18.6709 29.2815 18.543 28.5425C18.3067 27.1883 18.5577 25.9359 19.4472 24.86C20.0603 24.1164 20.8866 23.7382 21.826 23.615C22.2288 23.5638 22.6389 23.5578 23.0457 23.5545C23.9285 23.5451 24.814 23.5431 25.6975 23.5511C26.4385 23.5545 27.1236 23.7349 27.7514 24.0884C27.7707 24.0904 27.7874 24.0964 27.804 24.1077L28.591 24.6031C28.6549 24.6457 28.6735 24.7302 28.6336 24.7968Z" fill="white"/>
<path d="M26.6901 30.5547H23.0949L23.071 30.5394C23.0703 30.5387 23.0696 30.5387 23.0696 30.5381C22.3146 30.5407 21.6795 30.5394 21.0723 30.5361C20.5756 30.5334 20.1242 30.4389 19.7314 30.2551C19.017 29.9189 18.5863 29.3483 18.4491 28.5587C18.1968 27.112 18.5077 25.8477 19.3739 24.7997C19.9618 24.0867 20.7834 23.6566 21.814 23.5214C22.2095 23.4715 22.6056 23.4642 23.045 23.4602C23.9851 23.4502 24.8526 23.4489 25.6981 23.4569C26.4445 23.4602 27.1462 23.6426 27.7827 23.9981C27.8093 24.0035 27.8333 24.0141 27.8559 24.0294L28.6409 24.5234C28.7487 24.5953 28.7807 24.7365 28.7141 24.8463L28.7128 24.8483L28.274 25.5407C28.2068 25.6493 28.0623 25.6819 27.9525 25.614L27.2141 25.1466C26.6988 24.859 26.1282 24.7232 25.4778 24.7318C24.6489 24.7438 23.8067 24.7385 22.9924 24.7331L22.4518 24.7298C21.6768 24.7232 20.9545 25.0208 20.4205 25.5647C19.8899 26.106 19.6089 26.8277 19.6289 27.5973C19.6355 27.8616 19.6542 28.0714 19.6881 28.2578C19.7927 28.8337 20.1269 29.1506 20.7114 29.2265C20.8865 29.2498 21.2487 29.2338 21.2521 29.2338H23.1782L23.1988 29.3004H26.6708C26.7108 29.2897 26.7514 29.2937 26.7893 29.3117C26.8905 29.3583 26.9425 29.4915 26.9518 29.5181L26.9571 29.5334V30.2731L26.9518 30.2884C26.9371 30.3304 26.8539 30.5421 26.6928 30.5554L26.6901 30.5547ZM23.1482 30.3643H26.6802C26.7001 30.359 26.7427 30.3017 26.7687 30.2378V29.566C26.7534 29.5308 26.7301 29.4948 26.7148 29.4848L26.7041 29.4888H26.6861H23.0403L23.031 29.4222H21.2574C21.2461 29.4229 20.8786 29.4395 20.6868 29.4136C20.0197 29.3264 19.6209 28.9489 19.5017 28.2904C19.4664 28.094 19.4465 27.875 19.4398 27.6007C19.4185 26.7791 19.7188 26.0081 20.286 25.4302C20.8559 24.849 21.6276 24.5347 22.4538 24.5381L22.9944 24.5414C23.808 24.5467 24.6489 24.5521 25.4758 24.5401C26.1622 24.5301 26.7627 24.6746 27.312 24.9815L28.0543 25.4515C28.0736 25.4635 28.1016 25.4575 28.1136 25.4382L28.5517 24.7465C28.565 24.7238 28.559 24.6959 28.537 24.6819L27.7521 24.1879C27.7461 24.1839 27.7441 24.1832 27.7394 24.1825L27.7201 24.1806L27.7035 24.1712C27.0909 23.8264 26.4158 23.6499 25.6961 23.6466C24.8513 23.6393 23.9844 23.6406 23.0457 23.6499C22.6122 23.6539 22.2214 23.6606 21.8366 23.7098C20.8553 23.8383 20.0756 24.2458 19.519 24.9209C18.6901 25.9242 18.3925 27.1373 18.6349 28.5261C18.7607 29.2511 19.1562 29.7751 19.8106 30.0827C20.1782 30.2551 20.6023 30.3437 21.0716 30.3457C21.6828 30.3497 22.3226 30.3503 23.0856 30.3477H23.0949L23.1043 30.3497C23.1216 30.353 23.1356 30.3583 23.1482 30.3643Z" fill="white"/>
<path d="M29.9943 26.18V30.0122C29.9943 30.0382 29.9736 30.0602 29.947 30.0602H28.9756C28.9503 30.0602 28.9283 30.0389 28.9283 30.0122V26.18C28.9283 26.1541 28.949 26.1321 28.9756 26.1321H29.947C29.973 26.1321 29.9943 26.1541 29.9943 26.18Z" fill="white"/>
<path d="M29.9462 30.1552H28.9748C28.8963 30.1552 28.833 30.0913 28.833 30.0121V26.1805C28.833 26.1013 28.8969 26.0374 28.9748 26.0374H29.9462C30.0248 26.0374 30.088 26.1013 30.088 26.1805V30.0121C30.0887 30.0906 30.0248 30.1552 29.9462 30.1552ZM29.0234 29.9648H29.8989V26.2264H29.0234V29.9648Z" fill="white"/>
<path d="M27.5114 27.53H31.343C31.369 27.53 31.3909 27.5507 31.3909 27.5773V28.5487C31.3909 28.574 31.3696 28.5959 31.343 28.5959H27.5114C27.4855 28.5959 27.4635 28.5753 27.4635 28.5487V27.5773C27.4635 27.5513 27.4848 27.53 27.5114 27.53Z" fill="white"/>
<path d="M31.3429 28.6903H27.5113C27.4321 28.6903 27.3682 28.6264 27.3682 28.5485V27.5771C27.3682 27.4986 27.4321 27.4353 27.5113 27.4353H31.3429C31.4221 27.4353 31.486 27.4992 31.486 27.5771V28.5485C31.486 28.6264 31.4214 28.6903 31.3429 28.6903ZM27.5579 28.4999H31.2963V27.6244H27.5579V28.4999Z" fill="white"/>
<path d="M59.901 38.171V4.53979H66.9728V18.7279L66.5198 25.9358L66.656 33.1883V38.1735H59.901V38.171ZM74.3144 38.5348C72.1683 38.5348 70.3267 38.0819 68.7847 37.1759C67.2426 36.27 66.0644 34.8863 65.25 33.0299C64.4332 31.171 64.0272 28.822 64.0272 25.9829C64.0272 23.1116 64.4579 20.7551 65.3193 18.9111C66.1807 17.067 67.3812 15.6933 68.9233 14.7873C70.4654 13.8814 72.2624 13.4284 74.3168 13.4284C76.6139 13.4284 78.6757 13.9433 80.505 14.9705C82.3317 15.9977 83.7822 17.4482 84.8564 19.322C85.9282 21.1957 86.4653 23.416 86.4653 25.9853C86.4653 28.5225 85.9282 30.7304 84.8564 32.6017C83.7847 34.4754 82.3342 35.9334 80.505 36.9754C78.6733 38.0126 76.6089 38.5348 74.3144 38.5348ZM73.0891 32.7329C74.2673 32.7329 75.3168 32.4606 76.2401 31.916C77.1609 31.3715 77.901 30.5943 78.4604 29.5819C79.0198 28.5695 79.2995 27.369 79.2995 25.9779C79.2995 24.5571 79.0198 23.3492 78.4604 22.3517C77.901 21.3542 77.1609 20.5844 76.2401 20.0398C75.3168 19.4952 74.2673 19.223 73.0891 19.223C71.9109 19.223 70.8515 19.4952 69.9158 20.0398C68.9777 20.5844 68.2376 21.3542 67.6956 22.3517C67.151 23.3492 66.8787 24.5571 66.8787 25.9779C66.8787 27.369 67.151 28.5695 67.6956 29.5819C68.2401 30.5943 68.9802 31.3715 69.9158 31.916C70.854 32.4606 71.9109 32.7329 73.0891 32.7329Z" fill="#0077B5"/>
<path d="M91.1731 38.1709V13.7872H97.9256V20.6758L96.9726 18.6808C97.6978 16.958 98.8612 15.6511 100.463 14.76C102.064 13.8689 104.012 13.4233 106.309 13.4233V19.9506C106.007 19.9209 105.735 19.8986 105.492 19.8837C105.25 19.8689 104.995 19.8615 104.723 19.8615C102.789 19.8615 101.225 20.4134 100.032 21.5149C98.8389 22.6189 98.2424 24.3318 98.2424 26.6585V38.1709H91.1731Z" fill="#0077B5"/>
<path d="M114.064 10.3864C112.765 10.3864 111.708 10.0101 110.891 9.25272C110.074 8.49777 109.668 7.55965 109.668 6.44331C109.668 5.3245 110.077 4.38886 110.891 3.63391C111.708 2.87896 112.765 2.50024 114.064 2.50024C115.364 2.50024 116.421 2.85668 117.238 3.5646C118.054 4.275 118.46 5.18836 118.46 6.30717C118.46 7.48539 118.059 8.46064 117.26 9.23044C116.458 10.0027 115.394 10.3864 114.064 10.3864ZM110.527 38.171V13.7874H117.599V38.1735H110.527V38.171Z" fill="#0077B5"/>
<path d="M138.993 13.4233C140.926 13.4233 142.656 13.8095 144.183 14.5793C145.708 15.3491 146.911 16.5273 147.787 18.1139C148.663 19.7006 149.102 21.7327 149.102 24.2105V38.1708H142.03V25.2996C142.03 23.3367 141.599 21.8862 140.738 20.9481C139.876 20.0124 138.661 19.5421 137.089 19.5421C135.97 19.5421 134.965 19.7773 134.074 20.2451C133.183 20.7129 132.488 21.4308 131.99 22.3986C131.493 23.3664 131.243 24.604 131.243 26.1164V38.1733H124.171V13.7872H130.923V20.5397L129.654 18.5001C130.53 16.8689 131.785 15.6139 133.416 14.7377C135.05 13.8615 136.909 13.4233 138.993 13.4233Z" fill="#0077B5"/>
<path d="M166.052 36.9929C163.785 36.9929 161.738 36.5028 159.911 35.5201C158.082 34.5374 156.617 33.1637 155.515 31.3963C154.411 29.629 153.862 27.5671 153.862 25.2107C153.862 22.8245 154.414 20.7453 155.515 18.978C156.619 17.2107 158.082 15.8443 159.911 14.8765C161.738 13.9087 163.787 13.426 166.052 13.426C168.107 13.426 169.921 13.8419 171.49 14.6736C173.062 15.5052 174.285 16.7899 175.161 18.525C176.037 20.2627 176.475 22.4904 176.475 25.2107C176.475 27.9013 176.037 30.1141 175.161 31.8518C174.285 33.5894 173.06 34.8815 171.49 35.728C169.918 36.5696 168.107 36.9929 166.052 36.9929ZM167.139 47.327C164.842 47.327 162.629 47.0473 160.498 46.4879C158.367 45.9285 156.592 45.0894 155.171 43.9731L157.98 38.8963C159.008 39.7429 160.315 40.4137 161.901 40.9137C163.488 41.4112 165.052 41.6612 166.592 41.6612C169.099 41.6612 170.921 41.1018 172.055 39.9854C173.188 38.8666 173.755 37.2057 173.755 35.0003V31.327L174.208 25.2082L174.117 19.0448V13.7874H180.824V34.0919C180.824 38.624 179.646 41.9632 177.29 44.1092C174.936 46.2552 171.55 47.327 167.139 47.327ZM167.456 31.1909C168.693 31.1909 169.797 30.9409 170.765 30.4434C171.733 29.9458 172.488 29.2429 173.032 28.3369C173.577 27.431 173.849 26.3889 173.849 25.2107C173.849 24.0028 173.577 22.9533 173.032 22.0597C172.488 21.1686 171.733 20.4731 170.765 19.9755C169.797 19.4755 168.696 19.228 167.456 19.228C166.216 19.228 165.114 19.478 164.146 19.9755C163.178 20.4731 162.416 21.1686 161.857 22.0597C161.297 22.9508 161.018 24.0028 161.018 25.2107C161.018 26.3889 161.297 27.431 161.857 28.3369C162.416 29.2429 163.178 29.9458 164.146 30.4434C165.114 30.9434 166.218 31.1909 167.456 31.1909Z" fill="#0077B5"/>
<path d="M190.936 10.3864C189.636 10.3864 188.579 10.0101 187.763 9.25272C186.946 8.49777 186.54 7.55965 186.54 6.44331C186.54 5.3245 186.948 4.38886 187.763 3.63391C188.579 2.87896 189.636 2.50024 190.936 2.50024C192.235 2.50024 193.292 2.85668 194.109 3.5646C194.926 4.275 195.332 5.18836 195.332 6.30717C195.332 7.48539 194.931 8.46064 194.131 9.23044C193.329 10.0027 192.265 10.3864 190.936 10.3864ZM187.399 38.171V13.7874H194.47V38.1735H187.399V38.171Z" fill="#0077B5"/>
<path d="M215.864 13.4233C217.797 13.4233 219.527 13.8095 221.055 14.5793C222.579 15.3491 223.782 16.5273 224.659 18.1139C225.535 19.7006 225.973 21.7327 225.973 24.2105V38.1708H218.901V25.2996C218.901 23.3367 218.47 21.8862 217.609 20.9481C216.748 20.0124 215.532 19.5421 213.961 19.5421C212.842 19.5421 211.837 19.7773 210.946 20.2451C210.055 20.7129 209.359 21.4308 208.862 22.3986C208.364 23.3664 208.114 24.604 208.114 26.1164V38.1733H201.042V13.7872H207.795V20.5397L206.525 18.5001C207.401 16.8689 208.656 15.6139 210.287 14.7377C211.921 13.8615 213.777 13.4233 215.864 13.4233Z" fill="#0077B5"/>
</svg>
