<svg width="18" height="18" viewBox="0 0 18 18" fill="none" xmlns="http://www.w3.org/2000/svg">
<path d="M17.9999 13.909V0.818176C17.9999 0.601182 17.9137 0.393076 17.7602 0.239638C17.6068 0.0862004 17.3987 0 17.1817 0H0.818176C0.601182 0 0.393076 0.0862004 0.239638 0.239638C0.0862005 0.393076 0 0.601182 0 0.818176L0 13.909C0 14.126 0.0862005 14.3341 0.239638 14.4875C0.393076 14.641 0.601182 14.7272 0.818176 14.7272H1.63635V17.1817C1.63633 17.3298 1.67652 17.4752 1.75264 17.6023C1.82875 17.7293 1.93794 17.8333 2.06854 17.9032C2.19915 17.9731 2.34627 18.0062 2.49422 17.999C2.64217 17.9918 2.7854 17.9446 2.90862 17.8624L7.60904 14.7272H17.1817C17.3987 14.7272 17.6068 14.641 17.7602 14.4875C17.9137 14.3341 17.9999 14.126 17.9999 13.909ZM4.90906 8.18176C4.74724 8.18176 4.58905 8.13378 4.4545 8.04387C4.31995 7.95397 4.21509 7.82619 4.15316 7.67669C4.09124 7.52719 4.07503 7.36268 4.1066 7.20397C4.13817 7.04526 4.2161 6.89947 4.33052 6.78505C4.44494 6.67062 4.59073 6.5927 4.74944 6.56113C4.90815 6.52956 5.07266 6.54576 5.22216 6.60769C5.37166 6.66962 5.49944 6.77448 5.58935 6.90903C5.67925 7.04358 5.72723 7.20177 5.72723 7.36359C5.72723 7.58058 5.64103 7.78869 5.4876 7.94212C5.33416 8.09556 5.12605 8.18176 4.90906 8.18176ZM8.99994 8.18176C8.83812 8.18176 8.67993 8.13378 8.54538 8.04387C8.41084 7.95397 8.30597 7.82619 8.24404 7.67669C8.18212 7.52719 8.16591 7.36268 8.19748 7.20397C8.22905 7.04526 8.30698 6.89947 8.4214 6.78505C8.53582 6.67062 8.68161 6.5927 8.84032 6.56113C8.99903 6.52956 9.16354 6.54576 9.31304 6.60769C9.46254 6.66962 9.59032 6.77448 9.68023 6.90903C9.77013 7.04358 9.81811 7.20177 9.81811 7.36359C9.81811 7.58058 9.73191 7.78869 9.57848 7.94212C9.42504 8.09556 9.21693 8.18176 8.99994 8.18176ZM13.0908 8.18176C12.929 8.18176 12.7708 8.13378 12.6363 8.04387C12.5017 7.95397 12.3968 7.82619 12.3349 7.67669C12.273 7.52719 12.2568 7.36268 12.2884 7.20397C12.3199 7.04526 12.3979 6.89947 12.5123 6.78505C12.6267 6.67062 12.7725 6.5927 12.9312 6.56113C13.0899 6.52956 13.2544 6.54576 13.4039 6.60769C13.5534 6.66962 13.6812 6.77448 13.7711 6.90903C13.861 7.04358 13.909 7.20177 13.909 7.36359C13.909 7.58058 13.8228 7.78869 13.6694 7.94212C13.5159 8.09556 13.3078 8.18176 13.0908 8.18176Z" fill="#212427" fill-opacity="0.8"/>
<circle cx="5" cy="7.5" r="1" fill="white"/>
<circle cx="9" cy="7.5" r="1" fill="white"/>
<circle cx="13" cy="7.5" r="1" fill="white"/>
</svg>
