<svg width="136" height="40" viewBox="0 0 136 40" fill="none" xmlns="http://www.w3.org/2000/svg">
<rect x="0.5" y="0.5" width="134.34" height="39" rx="5.5" fill="white"/>
<rect x="0.5" y="0.5" width="134.34" height="39" rx="5.5" stroke="#A7A9AB"/>
<path d="M108.085 29.5252H109.95V17.0212H108.085V29.5252ZM124.896 21.5253L122.756 26.9476H122.693L120.472 21.5253H118.461L121.791 29.1025L119.891 33.3175H121.84L126.971 21.5253H124.896ZM114.309 28.104C113.699 28.104 112.846 27.8003 112.846 27.0424C112.846 26.0779 113.908 25.7086 114.824 25.7086C115.645 25.7086 116.031 25.886 116.529 26.1265C116.383 27.2853 115.387 28.104 114.309 28.104ZM114.535 21.2532C113.184 21.2532 111.785 21.8484 111.204 23.1675L112.861 23.8575C113.216 23.1675 113.874 22.9416 114.566 22.9416C115.533 22.9416 116.512 23.5198 116.529 24.5498V24.6786C116.192 24.4867 115.468 24.1951 114.583 24.1951C112.798 24.1951 110.981 25.1766 110.981 27.0108C110.981 28.6846 112.443 29.7633 114.085 29.7633C115.339 29.7633 116.031 29.1997 116.466 28.5389H116.529V29.5058H118.332V24.7102C118.332 22.4922 116.675 21.2532 114.535 21.2532ZM103 23.0485H100.345V18.7606H103C104.397 18.7606 105.186 19.917 105.186 20.9033C105.186 21.8751 104.397 23.0485 103 23.0485ZM102.951 17.0212H98.479V29.5252H100.345V24.7879H102.951C105.021 24.7879 107.055 23.289 107.055 20.9033C107.055 18.5177 105.021 17.0212 102.951 17.0212ZM78.5654 28.1064C77.2754 28.1064 76.1943 27.0278 76.1943 25.5459C76.1943 24.047 77.2754 22.9513 78.5654 22.9513C79.8384 22.9513 80.8368 24.047 80.8368 25.5459C80.8368 27.0278 79.8384 28.1064 78.5654 28.1064ZM80.7057 22.2249H80.6425C80.2246 21.7269 79.4181 21.275 78.4026 21.275C76.2745 21.275 74.3261 23.1457 74.3261 25.5459C74.3261 27.9315 76.2745 29.7851 78.4026 29.7851C79.4181 29.7851 80.2246 29.3333 80.6425 28.8182H80.7057V29.428C80.7057 31.0557 79.8384 31.9279 78.4342 31.9279C77.29 31.9279 76.5806 31.1043 76.2915 30.4119L74.6638 31.0897C75.1302 32.2169 76.3717 33.6017 78.4342 33.6017C80.6255 33.6017 82.4791 32.3141 82.4791 29.1705V21.5326H80.7057V22.2249ZM83.7691 29.5252H85.6397V17.0212H83.7691V29.5252ZM88.3946 25.4001C88.346 23.7554 89.6676 22.9197 90.6175 22.9197C91.3585 22.9197 91.9877 23.289 92.1966 23.821L88.3946 25.4001ZM94.196 23.9814C93.8413 23.0315 92.7626 21.275 90.5519 21.275C88.3631 21.275 86.541 22.9999 86.541 25.5289C86.541 27.9145 88.346 29.7851 90.7633 29.7851C92.7141 29.7851 93.8413 28.5923 94.3077 27.8975L92.8574 26.9306C92.374 27.64 91.7132 28.1064 90.7633 28.1064C89.8134 28.1064 89.1356 27.674 88.7007 26.8189L94.3879 24.4672L94.196 23.9814ZM48.8735 22.5796V24.3846H53.193C53.0642 25.4001 52.7265 26.1411 52.2091 26.6561C51.5823 27.2853 50.5984 27.9777 48.8735 27.9777C46.2158 27.9777 44.1363 25.835 44.1363 23.1772C44.1363 20.5171 46.2158 18.3744 48.8735 18.3744C50.3093 18.3744 51.3564 18.938 52.1289 19.6644L53.4019 18.3889C52.3233 17.3589 50.8899 16.5693 48.8735 16.5693C45.2319 16.5693 42.1709 19.5356 42.1709 23.1772C42.1709 26.8189 45.2319 29.7851 48.8735 29.7851C50.8413 29.7851 52.3233 29.1389 53.4845 27.9315C54.6749 26.7387 55.0466 25.0624 55.0466 23.7093C55.0466 23.289 55.015 22.9027 54.9494 22.5796H48.8735ZM59.9564 28.1064C58.6664 28.1064 57.5561 27.0448 57.5561 25.5289C57.5561 23.9984 58.6664 22.9513 59.9564 22.9513C61.2464 22.9513 62.3566 23.9984 62.3566 25.5289C62.3566 27.0448 61.2464 28.1064 59.9564 28.1064ZM59.9564 21.275C57.6023 21.275 55.6855 23.0631 55.6855 25.5289C55.6855 27.9777 57.6023 29.7851 59.9564 29.7851C62.3104 29.7851 64.2272 27.9777 64.2272 25.5289C64.2272 23.0631 62.3104 21.275 59.9564 21.275ZM69.273 28.1064C67.983 28.1064 66.8704 27.0448 66.8704 25.5289C66.8704 23.9984 67.983 22.9513 69.273 22.9513C70.5606 22.9513 71.6732 23.9984 71.6732 25.5289C71.6732 27.0448 70.5606 28.1064 69.273 28.1064ZM69.273 21.275C66.919 21.275 65.0022 23.0631 65.0022 25.5289C65.0022 27.9777 66.919 29.7851 69.273 29.7851C71.6247 29.7851 73.5439 27.9777 73.5439 25.5289C73.5439 23.0631 71.6247 21.275 69.273 21.275Z" fill="#1C1C1C"/>
<path d="M46.9758 7.77525C46.5993 7.44243 46.1061 7.22864 45.5571 7.22864C44.3278 7.22864 43.3803 8.24412 43.3803 9.49039C43.3803 10.7391 44.3278 11.7449 45.5571 11.7449C46.6163 11.7449 47.3864 11.1302 47.4374 10.156H45.7636V9.4661H48.3411C48.3411 11.5335 47.2406 12.5052 45.5571 12.5052C43.8832 12.5052 42.5859 11.1569 42.5859 9.49039C42.5859 7.81655 43.8832 6.46582 45.5571 6.46582C46.3345 6.46582 47.0341 6.76706 47.5467 7.24322" fill="#1C1C1C"/>
<path d="M52.9134 6.53613V7.27709H50.2217V9.15743H52.5709V9.90082H50.2217V11.6767H52.9984V12.4201H49.4272V6.53613" fill="#1C1C1C"/>
<path d="M58.0638 6.53613V7.28681H56.2782V12.4201H55.4765V7.28681H53.6909V6.53613" fill="#1C1C1C"/>
<path d="M61.0786 12.4201H61.873V6.53613H61.0786V12.4201Z" fill="#1C1C1C"/>
<path d="M67.2903 6.53613V7.28681H65.5048V12.4201H64.7006V7.28681H62.915V6.53613" fill="#1C1C1C"/>
<path d="M72.8925 11.7376C74.1315 11.7376 75.079 10.7391 75.079 9.49039C75.079 8.24412 74.1315 7.23593 72.8925 7.23593C71.6632 7.23593 70.7158 8.24412 70.7158 9.49039C70.7158 10.7391 71.6632 11.7376 72.8925 11.7376ZM72.8925 6.46582C74.5761 6.46582 75.8831 7.81655 75.8831 9.49039C75.8831 11.1569 74.5761 12.5052 72.8925 12.5052C71.2187 12.5052 69.9214 11.1569 69.9214 9.49039C69.9214 7.81655 71.2187 6.46582 72.8925 6.46582Z" fill="#1C1C1C"/>
<path d="M80.5814 12.4201L77.8994 7.9889V12.4201H77.105V6.53613H77.8921L80.5474 10.9333V6.53613H81.3418V12.4201" fill="#1C1C1C"/>
<path d="M28.2955 15.4434C22.8634 12.4046 17.4319 9.36467 12.0011 6.3235C11.4643 5.96897 10.8466 5.92251 10.313 6.10314L23.9743 19.7645L28.2955 15.4434Z" fill="#32BBFF"/>
<path d="M10.3128 6.10352C10.2128 6.13739 10.1154 6.17826 10.0224 6.22763C9.43304 6.5464 9 7.1598 9 7.93561V31.5941C9 32.3699 9.43299 32.9834 10.0224 33.3021C10.1156 33.3512 10.2126 33.3928 10.3125 33.4265L23.9742 19.7649L10.3128 6.10352Z" fill="#32BBFF"/>
<path d="M23.9747 19.7646L10.313 33.4263C10.8468 33.6083 11.4645 33.5653 12.0014 33.2056C19.7233 28.8817 24.799 26.0431 28.0344 24.239L28.2999 24.0899L23.9747 19.7646Z" fill="#32BBFF"/>
<path d="M9 19.7646V31.5939C9 32.3697 9.43299 32.9831 10.0224 33.3018C10.1156 33.351 10.2126 33.3926 10.3125 33.4263L23.9742 19.7646H9Z" fill="#2C9FD9"/>
<path d="M12.001 6.32415C11.3635 5.9032 10.6118 5.91519 10.0225 6.22794L23.7669 19.9724L28.2953 15.444C22.8632 12.4052 17.4318 9.3653 12.001 6.32415Z" fill="#29CC5E"/>
<path d="M23.767 19.5576L10.0225 33.3021C10.6118 33.6148 11.3635 33.6328 12.001 33.2059C19.7229 28.8819 24.7986 26.0433 28.0339 24.2392L28.2995 24.0901L23.767 19.5576Z" fill="#D93F21"/>
<path d="M33.9997 19.7648C33.9997 19.1093 33.6689 18.4478 33.0134 18.0809C33.0134 18.0809 31.7874 17.3969 28.0295 15.2949L23.5596 19.7648L28.0338 24.2391C31.7505 22.1523 33.0133 21.4486 33.0133 21.4486C33.6689 21.0818 33.9997 20.4203 33.9997 19.7648Z" fill="#FFD500"/>
<path d="M33.0134 21.4485C33.6689 21.0817 33.9997 20.4202 33.9997 19.7646H23.5596L28.0338 24.2389C31.7505 22.1522 33.0134 21.4485 33.0134 21.4485Z" fill="#FFAA00"/>
</svg>
