<svg width="21" height="21" viewBox="0 0 21 21" fill="none" xmlns="http://www.w3.org/2000/svg">
<circle cx="10.2406" cy="10.5198" r="9.84" fill="white"/>
<path d="M10.3885 18.8703C14.9172 18.8703 18.5885 15.1991 18.5885 10.6703C18.5885 6.1416 14.9172 2.47034 10.3885 2.47034C5.85974 2.47034 2.18848 6.1416 2.18848 10.6703C2.18848 15.1991 5.85974 18.8703 10.3885 18.8703Z" fill="#0077B5"/>
<path d="M6.49381 15.922L7.79843 15.7769C8.07579 15.7458 8.3344 15.6215 8.53192 15.4243L14.1284 9.82941L15.2883 8.66952C15.5189 8.43886 15.6484 8.12606 15.6484 7.79991C15.6484 7.47375 15.5189 7.16095 15.2883 6.9303L14.1284 5.77041C13.8978 5.53982 13.585 5.41028 13.2588 5.41028C12.9327 5.41028 12.6199 5.53982 12.3892 5.77041L11.2293 6.9303L5.63281 12.5252C5.43553 12.7228 5.31121 12.9815 5.28021 13.2591L5.13671 14.5649C5.11758 14.7367 5.13487 14.9106 5.18746 15.0753C5.24005 15.2399 5.32675 15.3916 5.44192 15.5205C5.55709 15.6494 5.69813 15.7526 5.85585 15.8233C6.01357 15.8941 6.18442 15.9308 6.35728 15.931C6.40291 15.9304 6.44849 15.9274 6.49381 15.922ZM12.9677 6.35015C13.0446 6.27328 13.1489 6.2301 13.2576 6.2301C13.3663 6.2301 13.4706 6.27328 13.5474 6.35015L14.7073 7.51004C14.7842 7.58692 14.8274 7.69119 14.8274 7.79991C14.8274 7.90862 14.7842 8.01289 14.7073 8.08978L13.8373 8.9598L12.0977 7.22017L12.9677 6.35015ZM5.95179 14.6543L6.09652 13.3497C6.10684 13.2567 6.14831 13.17 6.21419 13.1037L11.5192 7.79991L13.2588 9.53954L7.95382 14.8445C7.88734 14.9102 7.8007 14.9517 7.70782 14.9622L6.4032 15.1069C6.34239 15.1134 6.2809 15.1062 6.22325 15.0858C6.1656 15.0654 6.11323 15.0324 6.06999 14.9891C6.02675 14.9459 5.99373 14.8935 5.97335 14.8359C5.95297 14.7782 5.94574 14.7167 5.9522 14.6559L5.95179 14.6543Z" fill="white"/>
</svg>
