<svg width="79" height="79" viewBox="0 0 79 79" fill="none" xmlns="http://www.w3.org/2000/svg">
<rect x="1" y="1" width="77" height="77" rx="7" fill="white"/>
<rect x="1" y="1" width="77" height="77" rx="7" stroke="#CBCBCB" stroke-width="2"/>
<path d="M63 23.8144V40.4534C63 44.5716 61.1124 49.3518 57.6865 53.9133C53.6937 59.2279 47.8124 63.9189 40.6781 67.4795L40 67.8176L39.3219 67.4795C32.1876 63.9189 26.3063 59.2279 22.3135 53.9133C18.8876 49.3518 17 44.5716 17 40.4534V23.8144L28.1898 16H51.8102L63 23.8144Z" fill="#00358F"/>
<path d="M63 23.8144V40.4534C63 44.5716 61.1124 49.3518 57.6865 53.9133C53.6937 59.2279 47.8124 63.9189 40.6781 67.4795L40 67.8176V16H51.8102L63 23.8144Z" fill="#012453"/>
<path d="M49.899 22.0723H30.1003L23.0723 26.9799V40.453C23.0723 45.0834 27.6277 54.1316 39.9997 60.9764C52.3716 54.1316 56.9271 45.0834 56.9271 40.453V26.9799L49.899 22.0723Z" fill="#00B3FE"/>
<path d="M56.9274 26.9799V40.453C56.9274 45.0834 52.3719 54.1316 40 60.9764V22.0723H49.8994L56.9274 26.9799Z" fill="#0274F9"/>
<path d="M50.3773 20.5547H29.6232L21.5547 26.1891V40.4536C21.5547 43.415 23.0546 47.178 25.6689 50.777C28.8519 55.1594 33.5531 59.1461 39.2654 62.3059L40.0002 62.7128L40.735 62.3059C46.4473 59.1461 51.1485 55.1594 54.3316 50.777C56.9458 47.178 58.4458 43.415 58.4458 40.4536V26.1891L50.3773 20.5547ZM55.4095 40.4536C55.4095 44.4929 51.2892 52.7405 40.0002 59.2342C28.7113 52.7405 24.591 44.4929 24.591 40.4536V27.772L30.5786 23.591H49.4219L55.4095 27.772V40.4536Z" fill="#EFF5FA"/>
<path d="M58.4455 26.1891V40.4536C58.4455 43.415 56.9456 47.178 54.3314 50.777C51.1483 55.1594 46.4471 59.1461 40.7348 62.3059L40 62.7128V59.2342C51.289 52.7405 55.4092 44.4929 55.4092 40.4536V27.772L49.4216 23.591H40V20.5547H50.3771L58.4455 26.1891Z" fill="#C6E1EC"/>
<path d="M49.6919 33.6349L40 43.596L39.9797 43.6172L37.5153 46.1495L30.3081 39.4089L32.3819 37.1914L37.4141 41.8987L39.9797 39.2632L40 39.2419L47.5159 31.5176L49.6919 33.6349Z" fill="#EFF5FA"/>
<path d="M49.6919 33.6349L40 43.596V39.2419L47.5159 31.5176L49.6919 33.6349Z" fill="#C6E1EC"/>
</svg>
