<svg width="20" height="17" viewBox="0 0 20 17" fill="none" xmlns="http://www.w3.org/2000/svg">
<path d="M13.7344 0H6.26556C2.83382 0 0 3.21608 0 7.11074C0 10.6722 2.37552 13.626 5.39822 14.1061C5.5883 14.2075 6.0356 14.1744 6.26556 14.1744V16.2935C6.26551 16.4214 6.29606 16.5469 6.35394 16.6566C6.41183 16.7663 6.49487 16.8561 6.59421 16.9164C6.69356 16.9768 6.80547 17.0054 6.91802 16.9992C7.03056 16.993 7.13951 16.9522 7.23324 16.8812L10.8108 14.1744H13.7344C17.1662 14.1744 20 11.0054 20 7.11074C20 3.21608 17.1662 0 13.7344 0ZM6.26556 8.52347C5.57934 8.52347 5.02075 7.88953 5.02075 7.11074C5.02075 6.33195 5.57934 5.69801 6.26556 5.69801C6.95178 5.69801 7.51037 6.33195 7.51037 7.11074C7.51037 7.88953 6.95178 8.52347 6.26556 8.52347ZM10 8.52347C9.31378 8.52347 8.75519 7.88953 8.75519 7.11074C8.75519 6.33195 9.31378 5.69801 10 5.69801C10.6862 5.69801 11.2448 6.33195 11.2448 7.11074C11.2448 7.88953 10.6862 8.52347 10 8.52347ZM13.7344 8.52347C13.0482 8.52347 12.4896 7.88953 12.4896 7.11074C12.4896 6.33195 13.0482 5.69801 13.7344 5.69801C14.4207 5.69801 14.9793 6.33195 14.9793 7.11074C14.9793 7.88953 14.4207 8.52347 13.7344 8.52347Z" fill="#212427" fill-opacity="0.8"/>
</svg>
