<svg width="16" height="17" viewBox="0 0 16 17" fill="none" xmlns="http://www.w3.org/2000/svg">
<g clip-path="url(#clip0_143_1087)">
<path d="M7.79164 0C6.07016 0.00206238 4.41972 0.749002 3.20244 2.07694C1.98517 3.40487 1.30047 5.20535 1.29858 7.08333C1.29858 10.8248 6.75275 15.9609 7.37219 16.5346L7.79164 16.9214L8.21109 16.5346C8.83053 15.9609 14.2847 10.8248 14.2847 7.08333C14.2828 5.20535 13.5981 3.40487 12.3808 2.07694C11.1636 0.749002 9.51313 0.00206238 7.79164 0ZM7.79164 10.625C7.14954 10.625 6.52186 10.4173 5.98797 10.0281C5.45408 9.63896 5.03796 9.08583 4.79224 8.43867C4.54652 7.79152 4.48223 7.0794 4.60749 6.39239C4.73276 5.70537 5.04196 5.07431 5.496 4.579C5.95003 4.08369 6.52851 3.74638 7.15827 3.60972C7.78804 3.47306 8.44081 3.5432 9.03403 3.81126C9.62726 4.07932 10.1343 4.53327 10.491 5.11569C10.8478 5.69811 11.0382 6.38286 11.0382 7.08333C11.0371 8.0223 10.6948 8.92248 10.0861 9.58643C9.47753 10.2504 8.65236 10.6239 7.79164 10.625Z" fill="#212427" fill-opacity="0.9"/>
<path d="M7.79167 9.20825C8.86747 9.20825 9.73958 8.25686 9.73958 7.08325C9.73958 5.90965 8.86747 4.95825 7.79167 4.95825C6.71586 4.95825 5.84375 5.90965 5.84375 7.08325C5.84375 8.25686 6.71586 9.20825 7.79167 9.20825Z" fill="#212427" fill-opacity="0.9"/>
</g>
<defs>
<clipPath id="clip0_143_1087">
<rect width="15.5833" height="17" fill="white"/>
</clipPath>
</defs>
</svg>
