<svg width="82" height="82" viewBox="0 0 82 82" fill="none" xmlns="http://www.w3.org/2000/svg">
<circle cx="41" cy="41" r="41" fill="#00A0DC"/>
<path d="M41.0007 20.5C35.2619 20.5 30.593 25.1689 30.593 30.9077C30.593 36.6465 35.2619 41.3154 41.0007 41.3154C46.7395 41.3154 51.4084 36.6465 51.4084 30.9077C51.4084 25.1689 46.7395 20.5 41.0007 20.5ZM53.9499 48.1147C51.1005 45.2215 47.3231 43.6282 43.3135 43.6282H38.6879C34.6784 43.6282 30.9009 45.2215 28.0515 48.1147C25.2161 50.9937 23.6545 54.794 23.6545 58.8157C23.6545 59.4544 24.1723 59.9721 24.811 59.9721H57.1904C57.8291 59.9721 58.3468 59.4544 58.3468 58.8157C58.3468 54.794 56.7853 50.9937 53.9499 48.1147Z" fill="white"/>
</svg>
