<svg width="20" height="20" viewBox="0 0 20 20" fill="none" xmlns="http://www.w3.org/2000/svg">
<g clip-path="url(#clip0_385_444)">
<path d="M19.6285 14.9066L12.0704 2.18642C11.6925 1.54317 11.0251 1.15723 10.2693 1.15723C9.51352 1.15723 8.84615 1.54317 8.47629 2.18642L0.910138 14.9066C0.532233 15.5659 0.532233 16.3458 0.910138 16.9971C1.28804 17.6484 1.96345 18.0424 2.71122 18.0424H17.8355C18.5913 18.0424 19.2667 17.6484 19.6366 16.9971C20.0064 16.3458 20.0064 15.5659 19.6285 14.9066ZM18.2455 16.193C18.2053 16.2654 18.0847 16.4262 17.8355 16.4262H2.70318C2.45392 16.4262 2.33331 16.2574 2.29311 16.193C2.25291 16.1287 2.1725 15.9357 2.29311 15.7186L9.85926 2.99851C9.97987 2.78946 10.1889 2.76533 10.2693 2.76533C10.3497 2.76533 10.5507 2.78946 10.6794 3.00655L18.2375 15.7267C18.3661 15.9357 18.2777 16.1287 18.2375 16.2011L18.2455 16.193ZM9.46527 6.7856H11.0734V11.6099H9.46527V6.7856ZM9.46527 13.218H11.0734V14.8261H9.46527V13.218Z" fill="#FF0000"/>
</g>
<defs>
<clipPath id="clip0_385_444">
<rect width="19.2973" height="19.2973" fill="white" transform="translate(0.621094 0.353027)"/>
</clipPath>
</defs>
</svg>
