<svg width="10" height="16" viewBox="0 0 10 16" fill="none" xmlns="http://www.w3.org/2000/svg">
<path d="M9.13849 7.56094L1.73802 0.180933C1.49555 -0.0607219 1.10299 -0.0603156 0.86093 0.182183C0.619056 0.424651 0.619681 0.817431 0.86218 1.05927L7.82215 8.00003L0.86193 14.9407C0.619462 15.1826 0.618837 15.5752 0.86068 15.8177C0.918253 15.8755 0.986707 15.9214 1.0621 15.9527C1.13749 15.984 1.21833 16.0001 1.29996 16C1.38129 16.0001 1.46185 15.9842 1.53701 15.9531C1.61218 15.922 1.68047 15.8764 1.73799 15.8189L9.13849 8.43909C9.25527 8.3229 9.3208 8.16478 9.3208 8.00003C9.3208 7.83528 9.25508 7.67734 9.13849 7.56094Z" fill="#212427" fill-opacity="0.3"/>
</svg>
