<svg width="19" height="19" viewBox="0 0 19 19" fill="none" xmlns="http://www.w3.org/2000/svg">
<path d="M18.0731 18.073L18.073 18.0731C17.9552 18.1908 17.8003 18.2499 17.6461 18.25C17.6461 18.25 17.646 18.25 17.6459 18.25V18C17.5993 18.0001 17.5533 17.9909 17.5103 17.9731C17.4673 17.9553 17.4283 17.9292 17.3954 17.8962L18.0731 18.073ZM18.0731 18.073C18.309 17.837 18.309 17.4546 18.073 17.2187C18.073 17.2187 18.073 17.2186 18.073 17.2186L13.0654 12.211C14.0866 10.9982 14.7084 9.43694 14.7084 7.72914C14.7083 3.88066 11.5777 0.75 7.72918 0.75C3.88066 0.75 0.75 3.88066 0.75 7.72918C0.75 11.5777 3.88066 14.7084 7.72918 14.7084C9.43698 14.7084 10.9983 14.0866 12.2111 13.0654L17.2184 18.0728L18.0731 18.073ZM7.72918 13.5C4.54763 13.5 1.95836 10.911 1.95836 7.72918C1.95836 4.54731 4.54763 1.95832 7.72918 1.95832C10.9107 1.95832 13.5 4.54728 13.5 7.72918C13.5 10.9111 10.9107 13.5 7.72918 13.5Z" fill="#212427" stroke="#212427" stroke-width="0.5"/>
</svg>
