<svg width="79" height="79" viewBox="0 0 79 79" fill="none" xmlns="http://www.w3.org/2000/svg">
<rect x="1" y="1" width="77" height="77" rx="7" fill="white"/>
<rect x="1" y="1" width="77" height="77" rx="7" stroke="#CBCBCB" stroke-width="2"/>
<g clip-path="url(#clip0_201_1812)">
<path d="M61.6792 43.9883C62.0219 44.4276 62.1008 45.0426 61.8637 45.5696C61.6528 46.097 61.2048 46.419 60.6776 46.419H52.6648L44.8628 41.9381L27.7475 32.1856C27.6685 31.5705 27.6421 30.9555 27.6421 30.3113C27.6421 21.4373 35.4265 14.0083 44.8628 14.0083C54.2991 14.0083 61.9955 21.4373 61.9955 30.3113C61.9955 33.8258 60.783 37.1937 58.569 39.976L61.6792 43.9883Z" fill="#1689FC"/>
<path d="M61.6794 43.9883L58.5691 39.976C60.7831 37.1937 61.9957 33.8259 61.9957 30.3113C61.9957 21.4373 54.2992 14.0083 44.863 14.0083C44.8491 14.0083 44.8352 14.0088 44.8213 14.0088V41.9144L44.863 41.9381L52.665 46.419H60.6778C61.205 46.419 61.653 46.0969 61.8639 45.5696C62.101 45.0426 62.0221 44.4277 61.6794 43.9883Z" fill="#136EF1"/>
<path d="M35.5496 29.3447C25.3753 29.3447 17.0111 37.1059 17.0111 46.6531C17.0111 50.4898 18.3553 54.1799 20.7802 57.1672L17.3273 61.5602C17.1604 61.7741 17.0518 62.0366 17.0145 62.3167C16.9771 62.5968 17.0124 62.8829 17.1163 63.1415C17.3537 63.6688 17.8016 63.9909 18.3289 63.9909H36.8674C44.3794 63.9909 54.0881 56.9914 54.0881 46.653C54.0882 37.1058 45.7237 29.3447 35.5496 29.3447Z" fill="#FFCC33"/>
<path d="M35.5494 29.3447H35.5439V63.991H36.8673C44.3793 63.991 54.088 56.9915 54.088 46.653C54.088 37.1058 45.7235 29.3447 35.5494 29.3447Z" fill="#FEA832"/>
<path d="M27.6422 49.3481C26.1892 49.3481 25.0063 48.034 25.0063 46.4194C25.0063 44.8049 26.1891 43.4907 27.6422 43.4907C29.0953 43.4907 30.278 44.8049 30.278 46.4194C30.278 48.034 29.0952 49.3481 27.6422 49.3481ZM35.5496 43.4908C34.1 43.4908 32.9138 44.8087 32.9138 46.4195C32.9138 48.0304 34.0999 49.3482 35.5496 49.3482C36.9994 49.3482 38.1855 48.0304 38.1855 46.4195C38.1855 44.8087 36.9992 43.4908 35.5496 43.4908Z" fill="#0059AA"/>
<path d="M43.5451 49.3481C42.0921 49.3481 40.9093 48.034 40.9093 46.4194C40.9093 44.8049 42.092 43.4907 43.5451 43.4907C44.9982 43.4907 46.181 44.8049 46.181 46.4194C46.181 48.034 44.9981 49.3481 43.5451 49.3481ZM43.5451 46.4166V46.4194V46.4166ZM38.1856 46.4195C38.1856 48.0303 36.9996 49.3482 35.5498 49.3482V43.4909C36.9994 43.4908 38.1856 44.8087 38.1856 46.4195Z" fill="#08469C"/>
</g>
<defs>
<clipPath id="clip0_201_1812">
<rect width="45" height="50" fill="white" transform="translate(17 14)"/>
</clipPath>
</defs>
</svg>
