<svg width="79" height="79" viewBox="0 0 79 79" fill="none" xmlns="http://www.w3.org/2000/svg">
<rect x="1" y="1" width="77" height="77" rx="7" fill="white"/>
<rect x="1" y="1" width="77" height="77" rx="7" stroke="#CBCBCB" stroke-width="2"/>
<path d="M43.5773 45.2855C43.1168 45.1929 42.7027 44.9438 42.4051 44.5805C42.1075 44.2172 41.9449 43.762 41.945 43.2924V38.71H32.9516V43.2924C32.9516 43.762 32.789 44.2171 32.4915 44.5805C32.1939 44.9438 31.7797 45.1929 31.3193 45.2855L30.2236 45.5057V52.8645H44.673V45.5057L43.5773 45.2855Z" fill="#FCE0A2"/>
<path d="M37.5669 38.7101V44.9854C37.5669 45.4551 37.7295 45.9102 38.0271 46.2735C38.3246 46.6369 38.7388 46.886 39.1992 46.9785L40.3728 47.2651L44.6727 48.5056V45.5057L43.577 45.2855C43.1166 45.1929 42.7024 44.9438 42.4049 44.5805C42.1073 44.2172 41.9447 43.762 41.9447 43.2924V38.71L37.5669 38.7101Z" fill="#F2CA91"/>
<path d="M52.9398 47.7559L43.8076 44.9085C43.7027 44.8757 43.5914 44.8692 43.4834 44.8894C43.3754 44.9096 43.274 44.956 43.188 45.0244L37.4483 49.5924L31.7086 45.0244C31.6226 44.956 31.5212 44.9096 31.4132 44.8894C31.3052 44.8692 31.1939 44.8758 31.089 44.9085L21.9568 47.7559C17.9579 48.9333 15.2124 52.6038 15.2124 56.7723V62.781C15.2124 63.0107 15.3037 63.231 15.4661 63.3934C15.6285 63.5558 15.8488 63.6471 16.0785 63.6471H58.8181C59.0478 63.6471 59.2681 63.5558 59.4305 63.3934C59.593 63.231 59.6842 63.0107 59.6842 62.781V56.7723C59.6843 52.6038 56.9387 48.9333 52.9398 47.7559Z" fill="#4CBAD8"/>
<path d="M52.9399 47.7559L43.8076 44.9085C43.7027 44.8757 43.5914 44.8692 43.4833 44.8894C43.3753 44.9096 43.2739 44.956 43.1879 45.0244L40.373 47.2647L48.6232 49.6449C52.5241 50.7513 55.2696 54.4218 55.2696 58.5904V63.6471H58.8181C59.0478 63.6471 59.2681 63.5558 59.4305 63.3934C59.593 63.231 59.6842 63.0107 59.6842 62.781V56.7723C59.6843 52.6038 56.9387 48.9333 52.9399 47.7559Z" fill="#37A6C4"/>
<path d="M20.981 55.1108C20.7769 55.1108 20.5812 55.1919 20.4368 55.3362C20.2925 55.4806 20.2114 55.6763 20.2114 55.8804V63.6474H21.7506V55.8804C21.7506 55.7794 21.7307 55.6793 21.692 55.5859C21.6534 55.4925 21.5967 55.4077 21.5252 55.3362C21.4537 55.2648 21.3689 55.2081 21.2755 55.1694C21.1822 55.1307 21.0821 55.1108 20.981 55.1108Z" fill="#2195BD"/>
<path d="M48.8889 33.9288H47.0619V28.6304H48.8889C49.8304 28.6304 50.5936 29.3936 50.5936 30.3351V32.2242C50.5935 33.1656 49.8303 33.9288 48.8889 33.9288ZM26.0074 33.9288H27.8345V28.6304H26.0074C25.0659 28.6304 24.3027 29.3936 24.3027 30.3351V32.2242C24.3027 33.1656 25.0659 33.9288 26.0074 33.9288Z" fill="#F2CA8F"/>
<path d="M37.4483 42.3012C31.557 42.3012 26.7812 37.5254 26.7812 31.6342V28.6363C26.7812 22.745 31.557 17.9692 37.4483 17.9692C43.3396 17.9692 48.1154 22.745 48.1154 28.6363V31.6342C48.1154 37.5253 43.3396 42.3012 37.4483 42.3012Z" fill="#FCE0A2"/>
<path d="M37.4483 17.9692C36.6938 17.9692 35.9578 18.048 35.2476 18.197C40.0829 19.2113 43.714 23.4995 43.714 28.6363V31.6341C43.714 36.7709 40.0829 41.0592 35.2476 42.0734C35.9713 42.2251 36.7088 42.3015 37.4482 42.3012C43.3395 42.3012 48.1153 37.5254 48.1153 31.6341V28.6363C48.1154 22.7451 43.3396 17.9692 37.4483 17.9692Z" fill="#F2CA91"/>
<path d="M39.2633 14H35.633C29.496 14 24.521 18.975 24.521 25.112V29.5018C24.8131 28.982 25.3688 28.6303 26.0074 28.6303H26.781C26.7818 27.3326 27.0145 26.0892 27.4396 24.9391C32.1564 23.6027 36.9503 27.2499 42.1637 27.2499C44.7676 27.2499 46.545 26.6672 47.7471 25.9546L47.7749 25.9543C48.0009 26.8284 48.1152 27.7276 48.1151 28.6304H48.8888C49.5274 28.6304 50.0832 28.9821 50.3752 29.5019V25.1121C50.3753 18.975 45.4002 14 39.2633 14Z" fill="#F9A058"/>
<path d="M39.2634 14H35.6331C35.5041 14 35.3757 14.003 35.2476 14.0074C41.2059 14.2107 45.974 19.1041 45.974 25.112V26.7289C46.6712 26.5123 47.258 26.2447 47.7473 25.9545L47.7751 25.9542C48.0011 26.8283 48.1154 27.7275 48.1153 28.6303H48.889C49.5276 28.6303 50.0834 28.982 50.3753 29.5018V25.112C50.3754 18.975 45.4003 14 39.2634 14Z" fill="#EF8D43"/>
<path d="M54.6686 65.0002C59.705 65.0002 63.7878 60.9174 63.7878 55.881C63.7878 50.8445 59.705 46.7617 54.6686 46.7617C49.6321 46.7617 45.5493 50.8445 45.5493 55.881C45.5493 60.9174 49.6321 65.0002 54.6686 65.0002Z" fill="#E9F6FF"/>
<path d="M54.6684 46.7607C53.9047 46.7607 53.1631 46.8552 52.4541 47.032C56.4205 48.0214 59.3593 51.6074 59.3593 55.8803C59.3593 60.1531 56.4205 63.7391 52.4541 64.7286C53.1784 64.9091 53.922 65.0002 54.6684 64.9999C59.7051 64.9999 63.788 60.9169 63.788 55.8804C63.788 50.8438 59.705 46.7607 54.6684 46.7607Z" fill="#CCDFED"/>
<path d="M59.3568 55.2736H55.4377V51.3545C55.4377 51.2535 55.4178 51.1534 55.3792 51.06C55.3405 50.9667 55.2838 50.8818 55.2123 50.8104C55.1409 50.7389 55.056 50.6822 54.9627 50.6435C54.8693 50.6049 54.7692 50.585 54.6682 50.585C54.5671 50.585 54.467 50.6049 54.3736 50.6435C54.2803 50.6822 54.1954 50.7389 54.124 50.8104C54.0525 50.8818 53.9958 50.9667 53.9572 51.06C53.9185 51.1534 53.8986 51.2535 53.8986 51.3545V55.2736H49.9795C49.7754 55.2736 49.5797 55.3547 49.4354 55.499C49.291 55.6433 49.21 55.839 49.21 56.0432C49.21 56.2473 49.291 56.443 49.4354 56.5873C49.5797 56.7317 49.7754 56.8127 49.9795 56.8127H53.8986V60.7318C53.8986 60.8328 53.9185 60.9329 53.9572 61.0263C53.9958 61.1196 54.0525 61.2045 54.124 61.2759C54.1954 61.3474 54.2803 61.4041 54.3736 61.4428C54.467 61.4814 54.5671 61.5014 54.6682 61.5014C54.7692 61.5014 54.8693 61.4814 54.9627 61.4428C55.056 61.4041 55.1409 61.3474 55.2123 61.2759C55.2838 61.2045 55.3405 61.1196 55.3792 61.0263C55.4178 60.9329 55.4377 60.8328 55.4377 60.7318V56.8127H59.3568C59.5609 56.8127 59.7566 56.7317 59.9009 56.5873C60.0453 56.443 60.1263 56.2473 60.1263 56.0432C60.1263 55.839 60.0453 55.6433 59.9009 55.499C59.7566 55.3547 59.5609 55.2736 59.3568 55.2736Z" fill="#FC6060"/>
<path d="M37.4484 49.5925L35.1217 51.6274C34.936 51.7898 34.6956 51.8756 34.449 51.8674C34.2025 51.8592 33.9683 51.7576 33.7938 51.5833L28.0591 45.8533L31.0891 44.9085C31.194 44.8757 31.3053 44.8692 31.4133 44.8894C31.5213 44.9096 31.6227 44.956 31.7087 45.0244L37.4484 49.5925ZM37.4484 49.5925L39.775 51.6274C39.9607 51.7898 40.2012 51.8756 40.4477 51.8674C40.6942 51.8592 40.9284 51.7576 41.1029 51.5833L46.8376 45.8533L43.8076 44.9085C43.7027 44.8757 43.5914 44.8692 43.4834 44.8894C43.3754 44.9096 43.274 44.956 43.1881 45.0244L37.4484 49.5925Z" fill="#2195BD"/>
</svg>
