<svg width="79" height="79" viewBox="0 0 79 79" fill="none" xmlns="http://www.w3.org/2000/svg">
<rect x="1" y="1" width="77" height="77" rx="7" fill="white"/>
<rect x="1" y="1" width="77" height="77" rx="7" stroke="#CBCBCB" stroke-width="2"/>
<g clip-path="url(#clip0_201_1778)">
<path d="M46.7867 45.6927C46.2378 46.2421 46.2378 47.1323 46.7867 47.6816L50.1687 51.0636C50.7181 51.6125 51.6082 51.6125 52.1576 51.0636C52.707 50.5143 52.707 49.624 52.1576 49.0747L48.7756 45.6928C48.2263 45.1434 47.3361 45.1434 46.7868 45.6928L46.7867 45.6927Z" fill="#FD1F47"/>
<path d="M48.776 45.6927L52.1572 49.074C52.7069 49.6236 52.7061 50.514 52.1572 51.0629L46.7871 45.6928C47.336 45.1438 48.2263 45.143 48.7759 45.6928L48.776 45.6927Z" fill="#FE4A60"/>
<path d="M50.9659 49.8717C49.1689 51.6687 49.1689 54.5822 50.9659 56.3792L56.2386 61.6523C58.0356 63.4493 60.9492 63.4493 62.7462 61.6523C64.5432 59.8553 64.5432 56.9417 62.7462 55.1447L57.4731 49.8717C55.6765 48.0747 52.7629 48.0747 50.9659 49.8717Z" fill="#FE4A60"/>
<path d="M57.4735 49.8717L62.7462 55.1444C64.5432 56.9417 64.5428 59.8553 62.7462 61.6515L50.9663 49.8717C51.3034 49.5339 51.6911 49.2509 52.1154 49.0326C53.8465 48.1424 56.0229 48.4214 57.4735 49.8717Z" fill="#FF7579"/>
<path d="M21.5793 20.4855C14.2653 27.7999 14.2653 39.6584 21.5793 46.9724C28.8936 54.2868 40.7522 54.2868 48.0662 46.9724C55.3805 39.6584 55.3805 27.7998 48.0662 20.4855C40.7522 13.1715 28.8935 13.1715 21.5793 20.4855Z" fill="#FFB826"/>
<path d="M21.5791 20.485L48.0668 46.9726C48.5296 46.5103 48.9678 46.024 49.3796 45.5158C55.3503 38.1605 54.9116 27.3316 48.066 20.4857C40.752 13.1721 28.893 13.171 21.5791 20.485Z" fill="#FFCC4B"/>
<path d="M46.0755 22.4762C39.8609 16.2612 29.7846 16.2612 23.5696 22.4762C17.355 28.6909 17.355 38.7671 23.5696 44.9821C29.7846 51.1967 39.861 51.1967 46.0755 44.9821C52.2905 38.7671 52.2905 28.6908 46.0755 22.4762Z" fill="#D9E4EF"/>
<path d="M27.2908 27.8032H24.2783C23.5015 27.8032 22.872 28.4328 22.872 29.2095C22.872 29.9862 23.5015 30.6157 24.2783 30.6157H25.8845V35.9877C25.8845 36.4579 25.5018 36.8406 25.0312 36.8406C24.5609 36.8406 24.1782 36.4579 24.1782 35.9877C24.1782 35.211 23.5484 34.5814 22.772 34.5814C21.9953 34.5814 21.3657 35.211 21.3657 35.9877C21.3657 38.0088 23.0101 39.6531 25.0312 39.6531C27.0527 39.6531 28.697 38.0088 28.697 35.9877V29.2096C28.697 28.4328 28.0674 27.8033 27.2907 27.8033L27.2908 27.8032Z" fill="#1D9CFD"/>
<path d="M46.0758 44.9822L34.4211 33.3272L34.3871 33.2927L23.5703 22.4755C29.785 16.2621 39.8623 16.2621 46.0758 22.4755C52.2915 28.6912 52.2915 38.7666 46.0758 44.9822Z" fill="#EFF6FE"/>
<path d="M48.2779 31.4687C48.2779 29.4438 46.6392 27.8032 44.6123 27.8032H41.6001C40.823 27.8032 40.1938 28.4324 40.1938 29.2095V38.2469C40.1938 39.0232 40.823 39.6531 41.6001 39.6531H44.6123C46.6373 39.6531 48.2779 38.0144 48.2779 35.9877C48.2779 35.1568 48.0033 34.3705 47.4979 33.7282C48.0033 33.0851 48.2779 32.2985 48.2779 31.4687ZM44.6123 36.8405H43.0063V35.1345H44.6123C44.7244 35.1343 44.8354 35.1563 44.939 35.1991C45.0425 35.2419 45.1366 35.3048 45.2159 35.384C45.2951 35.4633 45.358 35.5574 45.4008 35.661C45.4436 35.7646 45.4656 35.8756 45.4654 35.9877C45.4654 36.4583 45.0838 36.8405 44.6123 36.8405ZM44.6123 32.322H43.0063V30.6157H44.6123C44.7243 30.6156 44.8353 30.6376 44.9389 30.6804C45.0424 30.7232 45.1365 30.786 45.2157 30.8653C45.295 30.9445 45.3578 31.0386 45.4007 31.1421C45.4435 31.2456 45.4655 31.3566 45.4654 31.4687C45.4654 31.5807 45.4434 31.6917 45.4005 31.7952C45.3577 31.8987 45.2948 31.9928 45.2156 32.072C45.1364 32.1513 45.0423 32.2141 44.9388 32.257C44.8353 32.2999 44.7243 32.322 44.6123 32.322Z" fill="#3AB4FB"/>
<path d="M34.444 27.8032C32.2117 27.8032 30.4033 29.6094 30.4033 31.844V35.6128C30.4033 37.8415 32.2051 39.6531 34.447 39.6531C36.679 39.6531 38.4878 37.8473 38.4878 35.6127V31.844C38.4878 29.6149 36.686 27.8032 34.444 27.8032ZM35.6753 35.6127C35.6754 35.7743 35.6436 35.9342 35.5817 36.0835C35.5198 36.2327 35.4291 36.3683 35.3147 36.4824C35.2003 36.5964 35.0645 36.6868 34.9151 36.7483C34.7657 36.8098 34.6056 36.8412 34.444 36.8406C33.7655 36.8406 33.2158 36.292 33.2158 35.6127V31.844C33.2158 31.1695 33.7596 30.6157 34.447 30.6157C35.1256 30.6157 35.6753 31.1647 35.6753 31.844V35.6127Z" fill="#1D9CFD"/>
<path d="M34.4436 27.8032C32.9408 27.8032 31.6301 28.6217 30.9336 29.8386L33.2154 32.1205V31.8437C33.2154 31.1687 33.7591 30.6157 34.4473 30.6157C35.1252 30.6157 35.6756 31.164 35.6756 31.8437V34.5814L38.2021 37.108C38.3917 36.6323 38.4888 36.1248 38.4881 35.6127V31.8437C38.4881 29.6146 36.6859 27.8032 34.4437 27.8032H34.4436Z" fill="#3AB4FB"/>
</g>
<defs>
<clipPath id="clip0_201_1778">
<rect width="48" height="48" fill="white" transform="translate(16 15)"/>
</clipPath>
</defs>
</svg>
