<svg width="20" height="20" viewBox="0 0 20 20" fill="none" xmlns="http://www.w3.org/2000/svg">
<g clip-path="url(#clip0_385_447)">
<path d="M16.1662 12.1463C15.5583 12.1468 14.9596 12.2952 14.4218 12.5787C13.884 12.8622 13.4233 13.2724 13.0794 13.7737L7.84586 11.4106C8.21759 10.513 8.21903 9.50472 7.84988 8.60604L13.0762 6.23086C13.5859 6.96798 14.3429 7.49802 15.2099 7.72483C16.0769 7.95164 16.9964 7.8602 17.8018 7.4671C18.6071 7.07399 19.2449 6.40526 19.5994 5.5822C19.9539 4.75915 20.0017 3.83629 19.7341 2.98101C19.4665 2.12574 18.9012 1.39471 18.1407 0.920531C17.3803 0.446347 16.4751 0.260416 15.5893 0.396465C14.7036 0.532514 13.8959 0.981531 13.3128 1.66207C12.7297 2.34261 12.4099 3.20959 12.4113 4.10575C12.4147 4.31786 12.4362 4.52929 12.4756 4.73773L6.91959 7.26246C6.38598 6.76252 5.71794 6.42933 4.99756 6.30384C4.27718 6.17835 3.53584 6.26601 2.8646 6.55607C2.19336 6.84612 1.62146 7.32593 1.21917 7.93655C0.816879 8.54717 0.601713 9.262 0.600107 9.99323C0.5985 10.7245 0.810523 11.4402 1.21013 12.0526C1.60973 12.665 2.17951 13.1473 2.84947 13.4403C3.51943 13.7333 4.26038 13.8242 4.98131 13.7019C5.70223 13.5796 6.37172 13.2493 6.90753 12.7517L12.478 15.2668C12.4393 15.4751 12.4181 15.6862 12.4145 15.898C12.4143 16.6403 12.6343 17.3659 13.0466 17.9831C13.4588 18.6003 14.0449 19.0814 14.7306 19.3655C15.4163 19.6497 16.1709 19.724 16.8989 19.5793C17.6269 19.4345 18.2956 19.0771 18.8204 18.5522C19.3453 18.0274 19.7027 17.3587 19.8475 16.6307C19.9922 15.9027 19.9179 15.1481 19.6337 14.4624C19.3496 13.7767 18.8685 13.1906 18.2513 12.7784C17.6341 12.3661 16.9085 12.1461 16.1662 12.1463ZM16.1662 1.96133C16.5904 1.96118 17.0051 2.08681 17.3578 2.32234C17.7106 2.55788 17.9855 2.89273 18.148 3.28456C18.3104 3.67638 18.353 4.10758 18.2703 4.52361C18.1877 4.93964 17.9835 5.32181 17.6836 5.62179C17.3838 5.92177 17.0017 6.12609 16.5857 6.2089C16.1697 6.2917 15.7385 6.24928 15.3466 6.087C14.9547 5.92472 14.6197 5.64987 14.3841 5.2972C14.1484 4.94454 14.0226 4.52991 14.0226 4.10575C14.023 3.53728 14.249 2.99221 14.6509 2.59017C15.0528 2.18813 15.5977 1.96197 16.1662 1.96133ZM4.37396 12.1463C3.9498 12.1464 3.53512 12.0208 3.18237 11.7853C2.82962 11.5497 2.55464 11.2149 2.39221 10.8231C2.22978 10.4312 2.1872 10 2.26985 9.58402C2.3525 9.16799 2.55667 8.78581 2.85654 8.48583C3.15641 8.18585 3.53851 7.98153 3.95451 7.89873C4.3705 7.81592 4.80171 7.85834 5.1936 8.02062C5.58549 8.1829 5.92045 8.45776 6.15611 8.81042C6.39178 9.16308 6.51757 9.57772 6.51757 10.0019C6.51693 10.5703 6.29091 11.1152 5.88906 11.5172C5.48722 11.9192 4.94236 12.1454 4.37396 12.1463ZM16.1662 18.0424C15.7421 18.0424 15.3275 17.9167 14.9748 17.681C14.6222 17.4454 14.3473 17.1105 14.185 16.7186C14.0227 16.3268 13.9803 15.8956 14.063 15.4797C14.1457 15.0637 14.35 14.6816 14.6499 14.3817C14.9498 14.0818 15.3319 13.8775 15.7479 13.7948C16.1638 13.7121 16.595 13.7545 16.9868 13.9168C17.3787 14.0791 17.7136 14.354 17.9492 14.7066C18.1849 15.0593 18.3106 15.4739 18.3106 15.898C18.3102 16.4666 18.0841 17.0118 17.6821 17.4139C17.28 17.8159 16.7348 18.042 16.1662 18.0424Z" fill="#00A0DC"/>
</g>
<defs>
<clipPath id="clip0_385_447">
<rect width="19.2973" height="19.2973" fill="white" transform="translate(0.621094 0.353027)"/>
</clipPath>
</defs>
</svg>
