<svg width="83" height="32" viewBox="0 0 83 32" fill="none" xmlns="http://www.w3.org/2000/svg">
<rect width="83" height="32" rx="14" fill="#ADADAD" fill-opacity="0.15"/>
<path d="M37 13.4205C36.9394 12.8826 36.6894 12.4659 36.25 12.1705C35.8106 11.8712 35.2576 11.7216 34.5909 11.7216C34.1136 11.7216 33.7008 11.7973 33.3523 11.9489C33.0038 12.0966 32.733 12.3011 32.5398 12.5625C32.3504 12.8201 32.2557 13.1136 32.2557 13.4432C32.2557 13.7197 32.3201 13.9583 32.4489 14.1591C32.5814 14.3598 32.7538 14.5284 32.9659 14.6648C33.1818 14.7973 33.4129 14.9091 33.6591 15C33.9053 15.0871 34.142 15.1591 34.3693 15.2159L35.5057 15.5114C35.8769 15.6023 36.2576 15.7254 36.6477 15.8807C37.0379 16.036 37.3996 16.2405 37.733 16.4943C38.0663 16.7481 38.3352 17.0625 38.5398 17.4375C38.7481 17.8125 38.8523 18.2614 38.8523 18.7841C38.8523 19.4432 38.6818 20.0284 38.3409 20.5398C38.0038 21.0511 37.5133 21.4545 36.8693 21.75C36.2292 22.0455 35.4545 22.1932 34.5455 22.1932C33.6742 22.1932 32.9205 22.0549 32.2841 21.7784C31.6477 21.5019 31.1496 21.1098 30.7898 20.6023C30.4299 20.0909 30.2311 19.4848 30.1932 18.7841H31.9545C31.9886 19.2045 32.125 19.5549 32.3636 19.8352C32.6061 20.1117 32.9148 20.3182 33.2898 20.4545C33.6686 20.5871 34.0833 20.6534 34.5341 20.6534C35.0303 20.6534 35.4716 20.5758 35.858 20.4205C36.2481 20.2614 36.5549 20.0417 36.7784 19.7614C37.0019 19.4773 37.1136 19.1458 37.1136 18.767C37.1136 18.4223 37.0152 18.1402 36.8182 17.9205C36.625 17.7008 36.3617 17.5189 36.0284 17.375C35.6989 17.2311 35.3258 17.1042 34.9091 16.9943L33.5341 16.6193C32.6023 16.3655 31.8636 15.9924 31.3182 15.5C30.7765 15.0076 30.5057 14.3561 30.5057 13.5455C30.5057 12.875 30.6875 12.2898 31.0511 11.7898C31.4148 11.2898 31.9072 10.9015 32.5284 10.625C33.1496 10.3447 33.8504 10.2045 34.6307 10.2045C35.4186 10.2045 36.1136 10.3428 36.7159 10.6193C37.322 10.8958 37.7992 11.2765 38.1477 11.7614C38.4962 12.2424 38.678 12.7955 38.6932 13.4205H37ZM42.5128 16.8182V22H40.8139V10.3636H42.4901V14.6932H42.598C42.8026 14.2235 43.1151 13.8504 43.5355 13.5739C43.956 13.2973 44.5052 13.1591 45.1832 13.1591C45.7817 13.1591 46.3045 13.2822 46.7514 13.5284C47.2022 13.7746 47.5507 14.142 47.7969 14.6307C48.0469 15.1155 48.1719 15.7216 48.1719 16.4489V22H46.473V16.6534C46.473 16.0133 46.3082 15.517 45.9787 15.1648C45.6491 14.8087 45.1908 14.6307 44.6037 14.6307C44.2022 14.6307 43.8423 14.7159 43.5241 14.8864C43.2098 15.0568 42.9616 15.3068 42.7798 15.6364C42.6018 15.9621 42.5128 16.3561 42.5128 16.8182ZM52.9787 22.1932C52.4257 22.1932 51.9257 22.0909 51.4787 21.8864C51.0317 21.678 50.6776 21.3769 50.4162 20.983C50.1586 20.589 50.0298 20.1061 50.0298 19.5341C50.0298 19.0417 50.1245 18.6364 50.3139 18.3182C50.5033 18 50.759 17.7481 51.081 17.5625C51.4029 17.3769 51.7628 17.2367 52.1605 17.142C52.5582 17.0473 52.9635 16.9754 53.3764 16.9261C53.8991 16.8655 54.3234 16.8163 54.6491 16.7784C54.9749 16.7367 55.2116 16.6705 55.3594 16.5795C55.5071 16.4886 55.581 16.3409 55.581 16.1364V16.0966C55.581 15.6004 55.4408 15.2159 55.1605 14.9432C54.884 14.6705 54.4711 14.5341 53.9219 14.5341C53.3499 14.5341 52.8991 14.661 52.5696 14.9148C52.2438 15.1648 52.0185 15.4432 51.8935 15.75L50.2969 15.3864C50.4863 14.8561 50.7628 14.428 51.1264 14.1023C51.4938 13.7727 51.9162 13.5341 52.3935 13.3864C52.8707 13.2348 53.3726 13.1591 53.8991 13.1591C54.2476 13.1591 54.617 13.2008 55.0071 13.2841C55.401 13.3636 55.7685 13.5114 56.1094 13.7273C56.4541 13.9432 56.7363 14.2519 56.956 14.6534C57.1757 15.0511 57.2855 15.5682 57.2855 16.2045V22H55.6264V20.8068H55.5582C55.4484 21.0265 55.2836 21.2424 55.0639 21.4545C54.8442 21.6667 54.562 21.8428 54.2173 21.983C53.8726 22.1231 53.4598 22.1932 52.9787 22.1932ZM53.348 20.8295C53.8177 20.8295 54.2192 20.7367 54.5526 20.5511C54.8897 20.3655 55.1454 20.1231 55.3196 19.8239C55.4976 19.5208 55.5866 19.197 55.5866 18.8523V17.7273C55.526 17.7879 55.4086 17.8447 55.2344 17.8977C55.0639 17.947 54.8688 17.9905 54.6491 18.0284C54.4295 18.0625 54.2154 18.0947 54.0071 18.125C53.7988 18.1515 53.6245 18.1742 53.4844 18.1932C53.1548 18.2348 52.8537 18.3049 52.581 18.4034C52.312 18.5019 52.0961 18.6439 51.9332 18.8295C51.7741 19.0114 51.6946 19.2538 51.6946 19.5568C51.6946 19.9773 51.8499 20.2955 52.1605 20.5114C52.4711 20.7235 52.867 20.8295 53.348 20.8295ZM59.5483 22V13.2727H61.1903V14.6591H61.2812C61.4403 14.1894 61.7206 13.8201 62.1222 13.5511C62.5275 13.2784 62.9858 13.142 63.4972 13.142C63.6032 13.142 63.7282 13.1458 63.8722 13.1534C64.0199 13.161 64.1354 13.1705 64.2188 13.1818V14.8068C64.1506 14.7879 64.0294 14.767 63.8551 14.7443C63.6809 14.7178 63.5066 14.7045 63.3324 14.7045C62.9309 14.7045 62.5729 14.7898 62.2585 14.9602C61.9479 15.1269 61.7017 15.3598 61.5199 15.6591C61.3381 15.9545 61.2472 16.2917 61.2472 16.6705V22H59.5483ZM69.1378 22.1761C68.2779 22.1761 67.5374 21.9924 66.9162 21.625C66.2988 21.2538 65.8215 20.733 65.4844 20.0625C65.151 19.3883 64.9844 18.5985 64.9844 17.6932C64.9844 16.7992 65.151 16.0114 65.4844 15.3295C65.8215 14.6477 66.2912 14.1155 66.8935 13.733C67.4995 13.3504 68.2079 13.1591 69.0185 13.1591C69.5109 13.1591 69.9882 13.2405 70.4503 13.4034C70.9124 13.5663 71.3272 13.822 71.6946 14.1705C72.062 14.5189 72.3518 14.9716 72.5639 15.5284C72.776 16.0814 72.8821 16.7538 72.8821 17.5455V18.1477H65.9446V16.875H71.2173C71.2173 16.428 71.1264 16.0322 70.9446 15.6875C70.7628 15.339 70.5071 15.0644 70.1776 14.8636C69.8518 14.6629 69.4692 14.5625 69.0298 14.5625C68.5526 14.5625 68.1359 14.6799 67.7798 14.9148C67.4276 15.1458 67.1548 15.4489 66.9616 15.8239C66.7723 16.1951 66.6776 16.5985 66.6776 17.0341V18.0284C66.6776 18.6117 66.7798 19.108 66.9844 19.517C67.1927 19.9261 67.4825 20.2386 67.8537 20.4545C68.2249 20.6667 68.6586 20.7727 69.1548 20.7727C69.4768 20.7727 69.7704 20.7273 70.0355 20.6364C70.3007 20.5417 70.5298 20.4015 70.723 20.2159C70.9162 20.0303 71.0639 19.8011 71.1662 19.5284L72.7741 19.8182C72.6454 20.2917 72.4143 20.7064 72.081 21.0625C71.7514 21.4148 71.3366 21.6894 70.8366 21.8864C70.3404 22.0795 69.7741 22.1761 69.1378 22.1761Z" fill="#0077B5"/>
<path d="M16.9449 13.3194C12.5414 13.5333 9 16.9423 9 21.1016V24L10.1118 21.5858C11.4268 19.1333 14.0358 17.5652 16.9449 17.421V20.7383L24 15.3594L16.9449 10V13.3194Z" fill="#0077B5"/>
</svg>
