<svg width="160" height="99" viewBox="0 0 160 99" fill="none" xmlns="http://www.w3.org/2000/svg">
<path d="M10.7102 83.3636V95H8.83523L3.35227 87.0739H3.25568V95H1.14773V83.3636H3.03409L8.51136 91.2955H8.61364V83.3636H10.7102ZM17.723 95.1705C16.8707 95.1705 16.1321 94.983 15.5071 94.608C14.8821 94.233 14.3973 93.7083 14.0526 93.0341C13.7116 92.3598 13.5412 91.572 13.5412 90.6705C13.5412 89.7689 13.7116 88.9792 14.0526 88.3011C14.3973 87.6231 14.8821 87.0966 15.5071 86.7216C16.1321 86.3466 16.8707 86.1591 17.723 86.1591C18.5753 86.1591 19.3139 86.3466 19.9389 86.7216C20.5639 87.0966 21.0469 87.6231 21.3878 88.3011C21.7325 88.9792 21.9048 89.7689 21.9048 90.6705C21.9048 91.572 21.7325 92.3598 21.3878 93.0341C21.0469 93.7083 20.5639 94.233 19.9389 94.608C19.3139 94.983 18.5753 95.1705 17.723 95.1705ZM17.7344 93.5227C18.1965 93.5227 18.5829 93.3958 18.8935 93.142C19.2041 92.8845 19.4351 92.5398 19.5866 92.108C19.742 91.6761 19.8196 91.1951 19.8196 90.6648C19.8196 90.1307 19.742 89.6477 19.5866 89.2159C19.4351 88.7803 19.2041 88.4337 18.8935 88.1761C18.5829 87.9186 18.1965 87.7898 17.7344 87.7898C17.2609 87.7898 16.867 87.9186 16.5526 88.1761C16.242 88.4337 16.009 88.7803 15.8537 89.2159C15.7022 89.6477 15.6264 90.1307 15.6264 90.6648C15.6264 91.1951 15.7022 91.6761 15.8537 92.108C16.009 92.5398 16.242 92.8845 16.5526 93.142C16.867 93.3958 17.2609 93.5227 17.7344 93.5227ZM39.6705 87.2898H37.5455C37.4848 86.9413 37.3731 86.6326 37.2102 86.3636C37.0473 86.0909 36.8447 85.8598 36.6023 85.6705C36.3598 85.4811 36.0833 85.339 35.7727 85.2443C35.4659 85.1458 35.1345 85.0966 34.7784 85.0966C34.1458 85.0966 33.5852 85.2557 33.0966 85.5739C32.608 85.8883 32.2254 86.3504 31.9489 86.9602C31.6723 87.5663 31.5341 88.3068 31.5341 89.1818C31.5341 90.072 31.6723 90.822 31.9489 91.4318C32.2292 92.0379 32.6117 92.4962 33.0966 92.8068C33.5852 93.1136 34.1439 93.267 34.7727 93.267C35.1212 93.267 35.447 93.2216 35.75 93.1307C36.0568 93.036 36.3314 92.8977 36.5739 92.7159C36.8201 92.5341 37.0265 92.3106 37.1932 92.0455C37.3636 91.7803 37.4811 91.4773 37.5455 91.1364L39.6705 91.1477C39.5909 91.7008 39.4186 92.2197 39.1534 92.7045C38.892 93.1894 38.5492 93.6174 38.125 93.9886C37.7008 94.3561 37.2045 94.6439 36.6364 94.8523C36.0682 95.0568 35.4375 95.1591 34.7443 95.1591C33.7216 95.1591 32.8087 94.9223 32.0057 94.4489C31.2027 93.9754 30.5701 93.2917 30.108 92.3977C29.6458 91.5038 29.4148 90.4318 29.4148 89.1818C29.4148 87.928 29.6477 86.8561 30.1136 85.9659C30.5795 85.072 31.214 84.3883 32.017 83.9148C32.8201 83.4413 33.7292 83.2045 34.7443 83.2045C35.392 83.2045 35.9943 83.2955 36.5511 83.4773C37.108 83.6591 37.6042 83.9261 38.0398 84.2784C38.4754 84.6269 38.8333 85.0549 39.1136 85.5625C39.3977 86.0663 39.5833 86.642 39.6705 87.2898ZM44.5668 89.8864V95H42.5099V83.3636H44.5213V87.7557H44.6236C44.8281 87.2633 45.1444 86.875 45.5724 86.5909C46.0043 86.303 46.5535 86.1591 47.2202 86.1591C47.8262 86.1591 48.3546 86.286 48.8054 86.5398C49.2562 86.7936 49.6046 87.1648 49.8509 87.6534C50.1009 88.142 50.2259 88.7386 50.2259 89.4432V95H48.169V89.7614C48.169 89.1742 48.0175 88.7178 47.7145 88.392C47.4152 88.0625 46.9948 87.8977 46.4531 87.8977C46.0895 87.8977 45.7637 87.9773 45.4759 88.1364C45.1918 88.2917 44.9683 88.517 44.8054 88.8125C44.6463 89.108 44.5668 89.4659 44.5668 89.8864ZM55.8338 95.1761C55.2808 95.1761 54.7827 95.0777 54.3395 94.8807C53.9001 94.6799 53.5516 94.3845 53.294 93.9943C53.0402 93.6042 52.9134 93.1231 52.9134 92.5511C52.9134 92.0587 53.0043 91.6515 53.1861 91.3295C53.3679 91.0076 53.616 90.75 53.9304 90.5568C54.2448 90.3636 54.599 90.2178 54.9929 90.1193C55.3906 90.017 55.8016 89.9432 56.2259 89.8977C56.7372 89.8447 57.152 89.7973 57.4702 89.7557C57.7884 89.7102 58.0194 89.642 58.1634 89.5511C58.3111 89.4564 58.3849 89.3106 58.3849 89.1136V89.0795C58.3849 88.6515 58.258 88.3201 58.0043 88.0852C57.7505 87.8504 57.3849 87.733 56.9077 87.733C56.4039 87.733 56.0043 87.8428 55.7088 88.0625C55.4171 88.2822 55.2202 88.5417 55.1179 88.8409L53.1974 88.5682C53.349 88.0379 53.599 87.5947 53.9474 87.2386C54.2959 86.8788 54.7221 86.6098 55.2259 86.4318C55.7296 86.25 56.2865 86.1591 56.8963 86.1591C57.3168 86.1591 57.7353 86.2083 58.152 86.3068C58.5687 86.4053 58.9493 86.5682 59.294 86.7955C59.6387 87.0189 59.9152 87.3239 60.1236 87.7102C60.3357 88.0966 60.4418 88.5795 60.4418 89.1591V95H58.4645V93.8011H58.3963C58.2713 94.0436 58.0952 94.2708 57.8679 94.483C57.6444 94.6913 57.3622 94.8598 57.0213 94.9886C56.6842 95.1136 56.2884 95.1761 55.8338 95.1761ZM56.3679 93.6648C56.7808 93.6648 57.1387 93.5833 57.4418 93.4205C57.7448 93.2538 57.9777 93.0341 58.1406 92.7614C58.3073 92.4886 58.3906 92.1913 58.3906 91.8693V90.8409C58.3262 90.8939 58.2164 90.9432 58.0611 90.9886C57.9096 91.0341 57.7391 91.0739 57.5497 91.108C57.3603 91.142 57.1728 91.1723 56.9872 91.1989C56.8016 91.2254 56.6406 91.2481 56.5043 91.267C56.1974 91.3087 55.9228 91.3769 55.6804 91.4716C55.438 91.5663 55.2467 91.6989 55.1065 91.8693C54.9664 92.036 54.8963 92.2519 54.8963 92.517C54.8963 92.8958 55.0346 93.1818 55.3111 93.375C55.5876 93.5682 55.9399 93.6648 56.3679 93.6648ZM67.8679 86.2727V87.8636H62.8509V86.2727H67.8679ZM64.0895 84.1818H66.1463V92.375C66.1463 92.6515 66.188 92.8636 66.2713 93.0114C66.3584 93.1553 66.4721 93.2538 66.6122 93.3068C66.7524 93.3598 66.9077 93.3864 67.0781 93.3864C67.2069 93.3864 67.3243 93.3769 67.4304 93.358C67.5402 93.339 67.6236 93.322 67.6804 93.3068L68.027 94.9148C67.9171 94.9527 67.7599 94.9943 67.5554 95.0398C67.3546 95.0852 67.1084 95.1117 66.8168 95.1193C66.3016 95.1345 65.8376 95.0568 65.4247 94.8864C65.0118 94.7121 64.6842 94.4432 64.4418 94.0795C64.2031 93.7159 64.0857 93.2614 64.0895 92.7159V84.1818ZM77.3608 88.5795L75.4858 88.7841C75.4328 88.5947 75.34 88.4167 75.2074 88.25C75.0786 88.0833 74.9044 87.9489 74.6847 87.8466C74.465 87.7443 74.196 87.6932 73.8778 87.6932C73.4498 87.6932 73.09 87.786 72.7983 87.9716C72.5104 88.1572 72.3684 88.3977 72.3722 88.6932C72.3684 88.947 72.4612 89.1534 72.6506 89.3125C72.8438 89.4716 73.1619 89.6023 73.6051 89.7045L75.0938 90.0227C75.9195 90.2008 76.5331 90.483 76.9347 90.8693C77.34 91.2557 77.5445 91.7614 77.5483 92.3864C77.5445 92.9356 77.3835 93.4205 77.0653 93.8409C76.7509 94.2576 76.3134 94.5833 75.7528 94.8182C75.1922 95.053 74.5483 95.1705 73.821 95.1705C72.7528 95.1705 71.893 94.947 71.2415 94.5C70.59 94.0492 70.2017 93.4223 70.0767 92.6193L72.0824 92.4261C72.1733 92.8201 72.3665 93.1174 72.6619 93.3182C72.9574 93.5189 73.3419 93.6193 73.8153 93.6193C74.304 93.6193 74.696 93.5189 74.9915 93.3182C75.2907 93.1174 75.4403 92.8693 75.4403 92.5739C75.4403 92.3239 75.3438 92.1174 75.1506 91.9545C74.9612 91.7917 74.6657 91.6667 74.2642 91.5795L72.7756 91.267C71.9384 91.0928 71.3191 90.7992 70.9176 90.3864C70.5161 89.9697 70.3172 89.4432 70.321 88.8068C70.3172 88.2689 70.4631 87.803 70.7585 87.4091C71.0578 87.0114 71.4725 86.7045 72.0028 86.4886C72.5369 86.2689 73.1525 86.1591 73.8494 86.1591C74.8722 86.1591 75.6771 86.3769 76.2642 86.8125C76.8551 87.2481 77.2206 87.8371 77.3608 88.5795ZM91.6278 86.5625C91.5748 86.0663 91.3513 85.6799 90.9574 85.4034C90.5672 85.1269 90.0597 84.9886 89.4347 84.9886C88.9953 84.9886 88.6184 85.0549 88.304 85.1875C87.9896 85.3201 87.7491 85.5 87.5824 85.7273C87.4157 85.9545 87.3305 86.214 87.3267 86.5057C87.3267 86.7481 87.3816 86.9583 87.4915 87.1364C87.6051 87.3144 87.7585 87.4659 87.9517 87.5909C88.1449 87.7121 88.3589 87.8144 88.5938 87.8977C88.8286 87.9811 89.0653 88.0511 89.304 88.108L90.3949 88.3807C90.8343 88.483 91.2566 88.6212 91.6619 88.7955C92.071 88.9697 92.4366 89.1894 92.7585 89.4545C93.0843 89.7197 93.3419 90.0398 93.5312 90.4148C93.7206 90.7898 93.8153 91.2292 93.8153 91.733C93.8153 92.4148 93.6411 93.0152 93.2926 93.5341C92.9441 94.0492 92.4403 94.4527 91.7812 94.7443C91.1259 95.0322 90.3324 95.1761 89.4006 95.1761C88.4953 95.1761 87.7093 95.036 87.0426 94.7557C86.3797 94.4754 85.8608 94.0663 85.4858 93.5284C85.1146 92.9905 84.9138 92.3352 84.8835 91.5625H86.9574C86.9877 91.9678 87.1127 92.3049 87.3324 92.5739C87.5521 92.8428 87.8381 93.0436 88.1903 93.1761C88.5464 93.3087 88.9441 93.375 89.3835 93.375C89.8419 93.375 90.2434 93.3068 90.5881 93.1705C90.9366 93.0303 91.2093 92.8371 91.4062 92.5909C91.6032 92.3409 91.7036 92.0492 91.7074 91.7159C91.7036 91.4129 91.6146 91.1629 91.4403 90.9659C91.2661 90.7652 91.0218 90.5985 90.7074 90.4659C90.3968 90.3295 90.0331 90.2083 89.6165 90.1023L88.2926 89.7614C87.3343 89.5152 86.5767 89.142 86.0199 88.642C85.4669 88.1383 85.1903 87.4697 85.1903 86.6364C85.1903 85.9508 85.3759 85.3504 85.7472 84.8352C86.1222 84.3201 86.6316 83.9205 87.2756 83.6364C87.9195 83.3485 88.6487 83.2045 89.4631 83.2045C90.2888 83.2045 91.0123 83.3485 91.6335 83.6364C92.2585 83.9205 92.7491 84.3163 93.1051 84.8239C93.4612 85.3277 93.6449 85.9072 93.6562 86.5625H91.6278ZM100.467 95.1705C99.5923 95.1705 98.8366 94.9886 98.2003 94.625C97.5677 94.2576 97.081 93.7386 96.7401 93.0682C96.3991 92.3939 96.2287 91.6004 96.2287 90.6875C96.2287 89.7898 96.3991 89.0019 96.7401 88.3239C97.0848 87.642 97.5658 87.1117 98.1832 86.733C98.8007 86.3504 99.526 86.1591 100.359 86.1591C100.897 86.1591 101.405 86.2462 101.882 86.4205C102.363 86.5909 102.787 86.8561 103.155 87.2159C103.526 87.5758 103.818 88.0341 104.03 88.5909C104.242 89.1439 104.348 89.803 104.348 90.5682V91.1989H97.1946V89.8125H102.376C102.373 89.4186 102.287 89.0682 102.121 88.7614C101.954 88.4508 101.721 88.2064 101.422 88.0284C101.126 87.8504 100.782 87.7614 100.388 87.7614C99.9673 87.7614 99.598 87.8636 99.2798 88.0682C98.9616 88.2689 98.7135 88.5341 98.5355 88.8636C98.3613 89.1894 98.2723 89.5473 98.2685 89.9375V91.1477C98.2685 91.6553 98.3613 92.0909 98.5469 92.4545C98.7325 92.8144 98.992 93.0909 99.3253 93.2841C99.6586 93.4735 100.049 93.5682 100.496 93.5682C100.795 93.5682 101.066 93.5265 101.308 93.4432C101.551 93.3561 101.761 93.2292 101.939 93.0625C102.117 92.8958 102.251 92.6894 102.342 92.4432L104.263 92.6591C104.142 93.1667 103.911 93.6098 103.57 93.9886C103.232 94.3636 102.801 94.6553 102.274 94.8636C101.748 95.0682 101.145 95.1705 100.467 95.1705ZM109.145 83.3636V95H107.088V83.3636H109.145ZM116.124 95.1705C115.249 95.1705 114.493 94.9886 113.857 94.625C113.224 94.2576 112.737 93.7386 112.396 93.0682C112.055 92.3939 111.885 91.6004 111.885 90.6875C111.885 89.7898 112.055 89.0019 112.396 88.3239C112.741 87.642 113.222 87.1117 113.839 86.733C114.457 86.3504 115.182 86.1591 116.016 86.1591C116.554 86.1591 117.061 86.2462 117.538 86.4205C118.019 86.5909 118.444 86.8561 118.811 87.2159C119.182 87.5758 119.474 88.0341 119.686 88.5909C119.898 89.1439 120.004 89.803 120.004 90.5682V91.1989H112.851V89.8125H118.033C118.029 89.4186 117.944 89.0682 117.777 88.7614C117.61 88.4508 117.377 88.2064 117.078 88.0284C116.783 87.8504 116.438 87.7614 116.044 87.7614C115.624 87.7614 115.254 87.8636 114.936 88.0682C114.618 88.2689 114.37 88.5341 114.192 88.8636C114.018 89.1894 113.929 89.5473 113.925 89.9375V91.1477C113.925 91.6553 114.018 92.0909 114.203 92.4545C114.389 92.8144 114.648 93.0909 114.982 93.2841C115.315 93.4735 115.705 93.5682 116.152 93.5682C116.451 93.5682 116.722 93.5265 116.964 93.4432C117.207 93.3561 117.417 93.2292 117.595 93.0625C117.773 92.8958 117.908 92.6894 117.999 92.4432L119.919 92.6591C119.798 93.1667 119.567 93.6098 119.226 93.9886C118.889 94.3636 118.457 94.6553 117.93 94.8636C117.404 95.0682 116.802 95.1705 116.124 95.1705ZM126.551 95.1705C125.68 95.1705 124.932 94.9792 124.307 94.5966C123.686 94.214 123.206 93.6856 122.869 93.0114C122.536 92.3333 122.369 91.553 122.369 90.6705C122.369 89.7841 122.54 89.0019 122.881 88.3239C123.222 87.642 123.703 87.1117 124.324 86.733C124.949 86.3504 125.688 86.1591 126.54 86.1591C127.248 86.1591 127.875 86.2898 128.42 86.5511C128.97 86.8087 129.407 87.1742 129.733 87.6477C130.059 88.1174 130.244 88.6667 130.29 89.2955H128.324C128.244 88.875 128.055 88.5246 127.756 88.2443C127.46 87.9602 127.064 87.8182 126.568 87.8182C126.148 87.8182 125.778 87.9318 125.46 88.1591C125.142 88.3826 124.894 88.7045 124.716 89.125C124.542 89.5455 124.455 90.0492 124.455 90.6364C124.455 91.2311 124.542 91.7424 124.716 92.1705C124.89 92.5947 125.134 92.9223 125.449 93.1534C125.767 93.3807 126.14 93.4943 126.568 93.4943C126.871 93.4943 127.142 93.4375 127.381 93.3239C127.623 93.2064 127.826 93.0379 127.989 92.8182C128.152 92.5985 128.263 92.3314 128.324 92.017H130.29C130.241 92.6345 130.059 93.1818 129.744 93.6591C129.43 94.1326 129.002 94.5038 128.46 94.7727C127.919 95.0379 127.282 95.1705 126.551 95.1705ZM137.337 86.2727V87.8636H132.32V86.2727H137.337ZM133.558 84.1818H135.615V92.375C135.615 92.6515 135.657 92.8636 135.74 93.0114C135.827 93.1553 135.941 93.2538 136.081 93.3068C136.221 93.3598 136.376 93.3864 136.547 93.3864C136.676 93.3864 136.793 93.3769 136.899 93.358C137.009 93.339 137.092 93.322 137.149 93.3068L137.496 94.9148C137.386 94.9527 137.229 94.9943 137.024 95.0398C136.823 95.0852 136.577 95.1117 136.286 95.1193C135.77 95.1345 135.306 95.0568 134.893 94.8864C134.481 94.7121 134.153 94.4432 133.911 94.0795C133.672 93.7159 133.554 93.2614 133.558 92.7159V84.1818ZM143.827 95.1705C142.952 95.1705 142.196 94.9886 141.56 94.625C140.927 94.2576 140.44 93.7386 140.099 93.0682C139.759 92.3939 139.588 91.6004 139.588 90.6875C139.588 89.7898 139.759 89.0019 140.099 88.3239C140.444 87.642 140.925 87.1117 141.543 86.733C142.16 86.3504 142.885 86.1591 143.719 86.1591C144.257 86.1591 144.764 86.2462 145.241 86.4205C145.723 86.5909 146.147 86.8561 146.514 87.2159C146.885 87.5758 147.177 88.0341 147.389 88.5909C147.601 89.1439 147.707 89.803 147.707 90.5682V91.1989H140.554V89.8125H145.736C145.732 89.4186 145.647 89.0682 145.48 88.7614C145.313 88.4508 145.08 88.2064 144.781 88.0284C144.486 87.8504 144.141 87.7614 143.747 87.7614C143.327 87.7614 142.957 87.8636 142.639 88.0682C142.321 88.2689 142.073 88.5341 141.895 88.8636C141.721 89.1894 141.632 89.5473 141.628 89.9375V91.1477C141.628 91.6553 141.721 92.0909 141.906 92.4545C142.092 92.8144 142.351 93.0909 142.685 93.2841C143.018 93.4735 143.408 93.5682 143.855 93.5682C144.154 93.5682 144.425 93.5265 144.668 93.4432C144.91 93.3561 145.12 93.2292 145.298 93.0625C145.476 92.8958 145.611 92.6894 145.702 92.4432L147.622 92.6591C147.501 93.1667 147.27 93.6098 146.929 93.9886C146.592 94.3636 146.16 94.6553 145.634 94.8636C145.107 95.0682 144.505 95.1705 143.827 95.1705ZM153.686 95.1534C153 95.1534 152.387 94.9773 151.845 94.625C151.304 94.2727 150.875 93.7614 150.561 93.0909C150.247 92.4205 150.089 91.6061 150.089 90.6477C150.089 89.678 150.249 88.8598 150.567 88.1932C150.889 87.5227 151.322 87.017 151.868 86.6761C152.413 86.3314 153.021 86.1591 153.692 86.1591C154.203 86.1591 154.624 86.2462 154.953 86.4205C155.283 86.5909 155.544 86.7973 155.737 87.0398C155.93 87.2784 156.08 87.5038 156.186 87.7159H156.271V83.3636H158.334V95H156.311V93.625H156.186C156.08 93.8371 155.927 94.0625 155.726 94.3011C155.525 94.536 155.26 94.7367 154.93 94.9034C154.601 95.0701 154.186 95.1534 153.686 95.1534ZM154.26 93.4659C154.696 93.4659 155.067 93.3485 155.374 93.1136C155.68 92.875 155.913 92.5436 156.072 92.1193C156.232 91.6951 156.311 91.2008 156.311 90.6364C156.311 90.072 156.232 89.5814 156.072 89.1648C155.917 88.7481 155.686 88.4242 155.379 88.1932C155.076 87.9621 154.703 87.8466 154.26 87.8466C153.802 87.8466 153.419 87.9659 153.112 88.2045C152.805 88.4432 152.574 88.7727 152.419 89.1932C152.264 89.6136 152.186 90.0947 152.186 90.6364C152.186 91.1818 152.264 91.6686 152.419 92.0966C152.578 92.5208 152.811 92.8561 153.118 93.1023C153.429 93.3447 153.809 93.4659 154.26 93.4659Z" fill="#212427"/>
<path d="M105.711 51.6124C109.266 47.75 111.204 42.975 111.204 38C111.204 31.775 108.167 26.1375 103.304 22.1375C103.193 36.4 89.9477 48 73.6786 48H62.668C66.9266 55.1124 75.5795 60 85.5286 60H109.229C110.031 60 110.747 59.5125 111.055 58.7625C111.364 58.0125 111.191 57.15 110.623 56.5875L105.711 51.6124Z" fill="#64B5F6"/>
<path d="M73.6782 0C59.5199 0 48.0032 9.8625 48.0032 22C48.0032 26.975 49.9412 31.7375 53.4962 35.6125L48.5834 40.5875C48.0156 41.1625 47.8427 42.025 48.1513 42.7625C48.4599 43.5125 49.1759 44 49.9782 44H73.6782C87.8365 44 99.3532 34.1375 99.3532 22C99.3532 9.8625 87.8365 0 73.6782 0Z" fill="#2196F3"/>
<path d="M85.5285 16H61.8285C60.7423 16 59.8535 16.9 59.8535 18C59.8535 19.1 60.7423 20 61.8285 20H85.5285C86.6148 20 87.5035 19.1 87.5035 18C87.5035 16.9 86.6148 16 85.5285 16ZM77.6285 24H61.8285C60.7423 24 59.8535 24.9 59.8535 26C59.8535 27.1 60.7423 28 61.8285 28H77.6285C78.7148 28 79.6035 27.1 79.6035 26C79.6035 24.9 78.7148 24 77.6285 24Z" fill="#FAFAFA"/>
</svg>
