<svg width="79" height="79" viewBox="0 0 79 79" fill="none" xmlns="http://www.w3.org/2000/svg">
<rect x="1" y="1" width="77" height="77" rx="7" fill="white"/>
<rect x="1" y="1" width="77" height="77" rx="7" stroke="#CBCBCB" stroke-width="2"/>
<g clip-path="url(#clip0_201_1580)">
<path d="M56.1118 56.117C65.2891 46.9397 65.2891 32.0603 56.1118 22.883C46.9344 13.7057 32.0551 13.7057 22.8778 22.883C13.7004 32.0603 13.7004 46.9397 22.8778 56.117C32.0551 65.2943 46.9344 65.2943 56.1118 56.117Z" fill="#E04F5F"/>
<path fill-rule="evenodd" clip-rule="evenodd" d="M45.8293 44.5228L51.2985 47.2823C51.6109 47.4399 51.9548 47.4253 52.2528 47.2419C52.5508 47.0585 52.7187 46.758 52.7187 46.408V32.5926C52.7187 32.2428 52.5508 31.9421 52.2528 31.7587C51.9548 31.5753 51.6109 31.5608 51.2985 31.7184L45.8293 34.4779V44.5228ZM28.7011 31.0308H41.6558C42.9868 31.0308 44.0758 32.1197 44.0758 33.4507V45.5502C44.0758 46.8811 42.9868 47.97 41.6558 47.97H28.7011C27.3701 47.97 26.2813 46.8811 26.2813 45.5502V33.4506C26.2812 32.1197 27.3701 31.0308 28.7011 31.0308ZM32.9038 41.067H37.4532C38.3185 41.067 39.0198 40.3656 39.0198 39.5004C39.0198 38.6351 38.3184 37.9338 37.4532 37.9338H32.9038C32.0385 37.9338 31.3371 38.6352 31.3371 39.5004C31.3371 40.3656 32.0386 41.067 32.9038 41.067Z" fill="white"/>
</g>
<defs>
<clipPath id="clip0_201_1580">
<rect width="47" height="47" fill="white" transform="translate(16 16)"/>
</clipPath>
</defs>
</svg>
