<svg width="14" height="14" viewBox="0 0 14 14" fill="none" xmlns="http://www.w3.org/2000/svg">
<g opacity="0.8">
<path d="M1.3707 10.1209C1.26415 10.1208 1.16001 10.0892 1.07143 10.03C0.982846 9.97083 0.913807 9.88669 0.873037 9.78826C0.832268 9.68982 0.821598 9.58151 0.842378 9.47701C0.863157 9.37251 0.914452 9.27652 0.989779 9.20117L9.40928 0.78167C9.45898 0.730211 9.51843 0.689166 9.58417 0.660929C9.6499 0.632692 9.7206 0.617829 9.79214 0.617208C9.86368 0.616586 9.93462 0.630218 10.0008 0.657308C10.067 0.684399 10.1272 0.724405 10.1778 0.774992C10.2284 0.82558 10.2684 0.885735 10.2955 0.951949C10.3226 1.01816 10.3362 1.08911 10.3356 1.16065C10.335 1.23219 10.3201 1.30289 10.2919 1.36862C10.2636 1.43435 10.2226 1.4938 10.1711 1.5435L1.75161 9.96301C1.64655 10.0681 1.50862 10.1209 1.3707 10.1209Z" fill="#212427"/>
<path d="M0.53921 13.9998C0.458815 13.9998 0.379425 13.9819 0.30686 13.9473C0.234295 13.9127 0.170395 13.8623 0.119842 13.7998C0.0692904 13.7373 0.0333688 13.6642 0.0147107 13.586C-0.00394737 13.5078 -0.0048688 13.4264 0.012014 13.3478L0.844428 9.46782C0.85908 9.39846 0.887279 9.33267 0.927407 9.27422C0.967535 9.21578 1.0188 9.16582 1.07827 9.12723C1.13774 9.08864 1.20425 9.06216 1.27397 9.04931C1.34369 9.03647 1.41527 9.03751 1.48458 9.05238C1.5539 9.06726 1.61961 9.09566 1.67793 9.13597C1.73625 9.17628 1.78604 9.22771 1.82444 9.2873C1.86285 9.34689 1.88912 9.41348 1.90174 9.48324C1.91437 9.553 1.9131 9.62457 1.89801 9.69384L1.0656 13.5739C1.03978 13.6943 0.973455 13.8023 0.877668 13.8798C0.781881 13.9573 0.662424 13.9997 0.53921 13.9998ZM4.41869 13.1674C4.31215 13.1673 4.208 13.1357 4.11942 13.0765C4.03084 13.0173 3.9618 12.9332 3.92103 12.8347C3.88026 12.7363 3.86959 12.628 3.89037 12.5235C3.91115 12.419 3.96245 12.323 4.03777 12.2477L12.4573 3.82842C12.507 3.77696 12.5664 3.73592 12.6322 3.70768C12.6979 3.67945 12.7686 3.66458 12.8401 3.66396C12.9117 3.66334 12.9826 3.67697 13.0488 3.70406C13.115 3.73115 13.1752 3.77116 13.2258 3.82175C13.2764 3.87233 13.3164 3.93249 13.3435 3.9987C13.3706 4.06492 13.3842 4.13586 13.3836 4.2074C13.3829 4.27894 13.3681 4.34964 13.3398 4.41537C13.3116 4.4811 13.2706 4.54056 13.2191 4.59026L4.79988 13.0095C4.74988 13.0596 4.69046 13.0994 4.62504 13.1265C4.55962 13.1536 4.4895 13.1675 4.41869 13.1674Z" fill="#212427"/>
<path d="M0.537735 13.9999C0.404974 13.9993 0.27709 13.9498 0.178592 13.8608C0.0800949 13.7718 0.0179123 13.6495 0.00396193 13.5175C-0.00998843 13.3855 0.0252747 13.2529 0.102993 13.1453C0.180712 13.0377 0.295419 12.9625 0.425131 12.9342L4.30515 12.1018C4.44467 12.0723 4.59019 12.0994 4.7098 12.177C4.82942 12.2546 4.91339 12.3765 4.9433 12.5159C4.97321 12.6554 4.94662 12.801 4.86937 12.9208C4.79212 13.0407 4.6705 13.125 4.53117 13.1554L0.651149 13.9878C0.613894 13.9959 0.575867 14 0.537735 13.9999ZM11.3139 6.27193C11.2431 6.27206 11.173 6.25818 11.1076 6.23108C11.0422 6.20399 10.9829 6.16422 10.9329 6.11407L7.88534 3.06646C7.83388 3.01676 7.79283 2.95731 7.7646 2.89158C7.73636 2.82584 7.7215 2.75514 7.72087 2.68361C7.72025 2.61207 7.73388 2.54112 7.76097 2.47491C7.78806 2.40869 7.82807 2.34854 7.87866 2.29795C7.92925 2.24736 7.9894 2.20736 8.05562 2.18027C8.12183 2.15318 8.19278 2.13954 8.26431 2.14017C8.33585 2.14079 8.40655 2.15565 8.47229 2.18389C8.53802 2.21212 8.59747 2.25317 8.64717 2.30463L11.6948 5.35223C11.7701 5.42758 11.8214 5.52357 11.8422 5.62807C11.863 5.73257 11.8523 5.84088 11.8115 5.93932C11.7707 6.03775 11.7017 6.12189 11.6131 6.18109C11.5245 6.24029 11.4204 6.2719 11.3139 6.27193ZM12.8378 4.74826C12.7312 4.74834 12.6269 4.71679 12.5382 4.65759C12.4496 4.5984 12.3804 4.51422 12.3396 4.41572C12.2988 4.31722 12.2881 4.20882 12.309 4.10425C12.3298 3.99969 12.3812 3.90365 12.4566 3.8283C12.7564 3.52846 12.9216 3.12249 12.9216 2.68554C12.9216 2.24859 12.7564 1.84262 12.4566 1.54279C12.1565 1.24269 11.7505 1.07756 11.3136 1.07756C10.8766 1.07756 10.4707 1.24269 10.1708 1.54279C10.1208 1.59283 10.0614 1.63253 9.99601 1.65961C9.93063 1.68669 9.86055 1.70063 9.78979 1.70063C9.71902 1.70063 9.64894 1.68669 9.58356 1.65961C9.51818 1.63253 9.45878 1.59283 9.40874 1.54279C9.3587 1.49275 9.319 1.43335 9.29192 1.36797C9.26484 1.30259 9.2509 1.23251 9.2509 1.16174C9.2509 1.09097 9.26484 1.0209 9.29192 0.955519C9.319 0.890138 9.3587 0.830731 9.40874 0.780691C9.91195 0.277202 10.5884 0 11.3136 0C12.0385 0 12.7152 0.277202 13.2184 0.780691C13.7219 1.28391 13.9991 1.96035 13.9991 2.68554C13.9991 3.41074 13.7219 4.08718 13.2184 4.5904C13.1685 4.64052 13.1092 4.68027 13.0439 4.70737C12.9786 4.73446 12.9085 4.74836 12.8378 4.74826Z" fill="#212427"/>
</g>
</svg>
