<svg width="232" height="232" viewBox="0 0 232 232" fill="none" xmlns="http://www.w3.org/2000/svg">
<g filter="url(#filter0_d_3375_2917)">
<circle cx="112" cy="112" r="96" fill="white"/>
<path d="M204.25 56C204.25 62.2132 199.213 67.25 193 67.25C186.787 67.25 181.75 62.2132 181.75 56C181.75 49.7868 186.787 44.75 193 44.75C199.213 44.75 204.25 49.7868 204.25 56Z" fill="#00A0DC" fill-opacity="0.7"/>
<path fill-rule="evenodd" clip-rule="evenodd" d="M203.395 46.7984C203.644 47.0166 203.669 47.3956 203.451 47.645L195.312 56.9471C194.761 57.577 193.817 57.6757 193.148 57.1735L188.89 53.9799C188.625 53.7811 188.571 53.405 188.77 53.1399C188.968 52.8748 189.345 52.8211 189.61 53.0199L193.868 56.2135C194.035 56.339 194.271 56.3144 194.409 56.1569L202.548 46.8548C202.766 46.6054 203.145 46.5802 203.395 46.7984Z" fill="#222222"/>
<path fill-rule="evenodd" clip-rule="evenodd" d="M195.757 45.7128C193.607 45.1369 191.332 45.2487 189.249 46.0325C187.166 46.8164 185.382 48.2329 184.145 50.0831C182.909 51.9333 182.283 54.1243 182.356 56.3484C182.429 58.5724 183.197 60.7178 184.551 62.4832C185.906 64.2486 187.779 65.5454 189.909 66.1913C192.038 66.8373 194.317 66.8 196.424 66.0847C198.531 65.3694 200.361 64.0121 201.657 62.2033C202.953 60.3945 203.65 58.2252 203.65 55.9999C203.65 55.6685 203.919 55.3999 204.25 55.3999C204.582 55.3999 204.85 55.6685 204.85 55.9999C204.85 58.4759 204.075 60.8897 202.633 62.9023C201.19 64.9149 199.154 66.4251 196.809 67.221C194.465 68.0169 191.93 68.0584 189.561 67.3396C187.191 66.6209 185.106 65.1781 183.599 63.2137C182.092 61.2494 181.238 58.8623 181.157 56.3876C181.076 53.913 181.772 51.4751 183.147 49.4164C184.523 47.3577 186.509 45.7816 188.826 44.9094C191.144 44.0373 193.676 43.9129 196.067 44.5537C196.387 44.6394 196.577 44.9685 196.492 45.2885C196.406 45.6086 196.077 45.7986 195.757 45.7128Z" fill="#222222"/>
<path d="M149 96.3728C148.344 98.2872 147.572 100.143 146.308 101.752C145.827 102.364 145.312 102.947 144.797 103.559C143.724 102.942 142.718 102.369 141.872 101.888C140.512 102.621 139.253 103.277 138.024 103.977C137.849 104.074 137.699 104.366 137.689 104.579C137.65 105.435 137.699 106.29 137.655 107.145C137.645 107.354 137.431 107.689 137.252 107.733C134.574 108.408 131.897 108.399 129.191 107.621C129.191 106.445 129.191 105.289 129.191 104.317C127.845 103.481 126.63 102.714 125.391 101.98C125.24 101.892 124.944 101.922 124.779 102.014C123.885 102.5 123.01 103.02 122.097 103.545C120.09 101.557 118.734 99.225 117.971 96.5526C117.928 96.3971 118.112 96.0764 118.277 95.9744C118.997 95.5176 119.769 95.1338 120.479 94.6673C120.673 94.541 120.824 94.2057 120.828 93.9628C120.862 92.7335 120.862 91.5042 120.828 90.2749C120.824 90.0271 120.678 89.6918 120.483 89.5606C119.774 89.0893 119.001 88.7103 118.282 88.2487C118.112 88.1369 117.942 87.7871 117.991 87.6122C118.744 84.9544 120.109 82.6561 122.092 80.6785C122.976 81.1887 123.851 81.6649 124.696 82.1848C125.027 82.384 125.231 82.3646 125.566 82.1459C126.576 81.49 127.626 80.8875 128.7 80.3335C129.05 80.1538 129.195 79.9983 129.186 79.6047C129.161 78.6329 129.176 77.6563 129.176 76.6116C132.004 75.7905 134.812 75.805 137.669 76.6019C137.669 77.6417 137.645 78.6378 137.689 79.6339C137.699 79.8525 137.883 80.1538 138.078 80.2655C139.287 80.9603 140.517 81.6114 141.867 82.3403C142.708 81.8592 143.714 81.281 144.759 80.6834C146.61 82.5152 147.912 84.658 148.723 87.1069C148.806 87.3498 148.908 87.5879 149 87.8308C149 87.928 149 88.0203 149 88.1175C148.053 88.6374 147.1 89.1427 146.168 89.6918C146.046 89.7647 146.012 90.0513 146.007 90.236C145.993 91.4847 145.983 92.7286 146.017 93.9773C146.022 94.2203 146.187 94.5507 146.386 94.6819C147.237 95.2358 148.121 95.7314 148.995 96.2465C149 96.2805 149 96.3291 149 96.3728ZM139.355 92.0872C139.346 88.7978 136.683 86.1545 133.408 86.1691C130.143 86.1837 127.471 88.8706 127.485 92.1261C127.495 95.3767 130.201 98.0685 133.447 98.054C136.717 98.0394 139.365 95.3621 139.355 92.0872Z" fill="#0077B5"/>
<path d="M80.2564 107.937C81.6509 108.467 82.9725 108.972 84.1921 109.434C85.4068 108.214 86.5632 107.062 87.6954 105.877C87.8168 105.746 87.8363 105.405 87.7585 105.221C87.2726 104.064 86.7479 102.923 86.2134 101.718C89.4543 99.2687 93.0402 97.6604 97.0439 96.8538C97.5784 98.0491 98.1129 99.1861 98.5988 100.343C98.7591 100.722 98.9583 100.804 99.3519 100.785C100.751 100.712 102.151 100.668 103.55 100.663C103.973 100.663 104.186 100.561 104.327 100.148C104.687 99.1181 105.081 98.0977 105.508 97.0968C105.591 96.9024 105.907 96.6546 106.081 96.6789C109.939 97.2668 113.486 98.6516 116.756 100.858C116.241 102.208 115.736 103.535 115.216 104.9C115.858 105.454 116.504 106.003 117.135 106.572C117.471 106.873 117.787 107.198 118.098 107.524C119.079 108.554 119.074 108.559 120.347 107.99C121.212 107.607 122.082 107.223 123.024 106.805C125.464 110.031 127.067 113.622 127.854 117.645C126.678 118.17 125.541 118.699 124.39 119.185C123.991 119.351 123.889 119.564 123.909 119.987C123.982 121.362 124.025 122.737 124.03 124.112C124.03 124.55 124.103 124.788 124.565 124.938C125.575 125.274 126.557 125.706 127.563 126.061C127.99 126.211 128.083 126.43 128.01 126.853C127.402 130.434 126.139 133.757 124.191 136.828C123.928 137.246 123.705 137.363 123.229 137.154C122.247 136.731 121.232 136.396 120.245 135.983C119.866 135.827 119.672 135.91 119.405 136.206C118.452 137.26 117.471 138.295 116.465 139.306C116.203 139.568 116.135 139.748 116.3 140.093C116.766 141.08 117.179 142.09 117.646 143.077C117.811 143.431 117.811 143.65 117.456 143.903C114.439 146.055 111.14 147.556 107.52 148.353C107.131 148.441 106.966 148.348 106.82 148.003C106.402 147.022 105.936 146.06 105.532 145.069C105.353 144.627 105.158 144.491 104.648 144.525C103.254 144.617 101.849 144.627 100.45 144.617C100.061 144.612 99.9107 144.729 99.7843 145.069C99.3422 146.269 98.8709 147.454 98.3947 148.684C95.1295 148.227 92.0927 147.202 89.2502 145.618C88.6137 145.263 87.71 144.957 87.4864 144.398C87.2872 143.903 87.846 143.096 88.0841 142.43C88.2833 141.872 88.5311 141.327 88.6963 140.759C88.7498 140.569 88.6914 140.239 88.5603 140.113C87.3893 139.005 86.1891 137.931 84.9209 136.77C83.7257 137.299 82.4089 137.878 81.0581 138.475C79.4352 136.337 78.1719 134.034 77.2973 131.532C76.9135 130.439 76.6657 129.297 76.3255 128.184C76.1943 127.747 76.3353 127.557 76.7434 127.392C77.7298 126.989 78.6918 126.517 79.6782 126.104C80.0572 125.944 80.1884 125.769 80.1641 125.317C80.0766 123.898 80.0523 122.47 80.0572 121.051C80.0572 120.667 79.9503 120.502 79.6102 120.376C78.41 119.934 77.2244 119.462 76 118.996C76.5685 114.987 77.9484 111.324 80.2564 107.937ZM101.976 134.535C108.385 134.612 113.822 129.326 113.914 122.927C114.011 116.314 108.807 110.872 102.306 110.779C95.6348 110.687 90.2512 115.886 90.1443 122.523C90.0374 129.064 95.3482 134.452 101.976 134.535Z" fill="#0077B5"/>
</g>
<defs>
<filter id="filter0_d_3375_2917" x="0" y="0" width="232" height="232" filterUnits="userSpaceOnUse" color-interpolation-filters="sRGB">
<feFlood flood-opacity="0" result="BackgroundImageFix"/>
<feColorMatrix in="SourceAlpha" type="matrix" values="0 0 0 0 0 0 0 0 0 0 0 0 0 0 0 0 0 0 127 0" result="hardAlpha"/>
<feOffset dx="4" dy="4"/>
<feGaussianBlur stdDeviation="10"/>
<feComposite in2="hardAlpha" operator="out"/>
<feColorMatrix type="matrix" values="0 0 0 0 0 0 0 0 0 0 0 0 0 0 0 0 0 0 0.1 0"/>
<feBlend mode="normal" in2="BackgroundImageFix" result="effect1_dropShadow_3375_2917"/>
<feBlend mode="normal" in="SourceGraphic" in2="effect1_dropShadow_3375_2917" result="shape"/>
</filter>
</defs>
</svg>
