<svg width="232" height="232" viewBox="0 0 232 232" fill="none" xmlns="http://www.w3.org/2000/svg">
<g filter="url(#filter0_d_3375_2897)">
<circle cx="112" cy="112" r="96" fill="white"/>
<path d="M204.25 56C204.25 62.2132 199.213 67.25 193 67.25C186.787 67.25 181.75 62.2132 181.75 56C181.75 49.7868 186.787 44.75 193 44.75C199.213 44.75 204.25 49.7868 204.25 56Z" fill="#00A0DC" fill-opacity="0.7"/>
<path fill-rule="evenodd" clip-rule="evenodd" d="M203.395 46.7984C203.644 47.0166 203.669 47.3956 203.451 47.645L195.312 56.9471C194.761 57.577 193.817 57.6757 193.148 57.1735L188.89 53.9799C188.625 53.7811 188.571 53.405 188.77 53.1399C188.968 52.8748 189.345 52.8211 189.61 53.0199L193.868 56.2135C194.035 56.339 194.271 56.3144 194.409 56.1569L202.548 46.8548C202.766 46.6054 203.145 46.5802 203.395 46.7984Z" fill="#222222"/>
<path fill-rule="evenodd" clip-rule="evenodd" d="M195.757 45.7128C193.607 45.1369 191.332 45.2487 189.249 46.0325C187.166 46.8164 185.382 48.2329 184.145 50.0831C182.909 51.9333 182.283 54.1243 182.356 56.3484C182.429 58.5724 183.197 60.7178 184.551 62.4832C185.906 64.2486 187.779 65.5454 189.909 66.1913C192.038 66.8373 194.317 66.8 196.424 66.0847C198.531 65.3694 200.361 64.0121 201.657 62.2033C202.953 60.3945 203.65 58.2252 203.65 55.9999C203.65 55.6685 203.919 55.3999 204.25 55.3999C204.582 55.3999 204.85 55.6685 204.85 55.9999C204.85 58.4759 204.075 60.8897 202.633 62.9023C201.19 64.9149 199.154 66.4251 196.809 67.221C194.465 68.0169 191.93 68.0584 189.561 67.3396C187.191 66.6209 185.106 65.1781 183.599 63.2137C182.092 61.2494 181.238 58.8623 181.157 56.3876C181.076 53.913 181.772 51.4751 183.147 49.4164C184.523 47.3577 186.509 45.7816 188.826 44.9094C191.144 44.0373 193.676 43.9129 196.067 44.5537C196.387 44.6394 196.577 44.9685 196.492 45.2885C196.406 45.6086 196.077 45.7986 195.757 45.7128Z" fill="#222222"/>
<path d="M134.52 93.8158C134.52 94.6102 134.52 95.3998 134.52 96.1942C134.497 96.2876 134.473 96.3857 134.459 96.4792C134.328 97.3576 134.249 98.2501 134.067 99.1192C132.534 106.497 126.245 112.52 118.825 113.725C118.119 113.838 117.409 113.922 116.704 114.02C115.914 114.02 115.12 114.02 114.33 114.02C114.222 113.996 114.115 113.973 114.008 113.954C113.106 113.819 112.185 113.744 111.297 113.543C100.742 111.198 94.2334 100.227 97.2191 89.8348C100.055 79.9524 109.999 74.1538 120.026 76.5321C127.282 78.2516 133.006 84.3727 134.235 91.7319C134.347 92.4188 134.427 93.1196 134.52 93.8158ZM111.05 96.2082C111.05 96.367 111.05 96.5025 111.05 96.6334C111.05 98.18 111.055 99.7266 111.05 101.273C111.05 102.226 111.4 103.039 112.059 103.708C113.096 104.759 114.437 105.007 115.802 104.829C118.722 104.455 121.044 103.063 122.516 100.432C123.507 98.6659 123.839 96.7969 123.068 94.8718C122.455 93.3533 121.414 92.2646 119.647 92.1431C118.003 92.0309 117.031 92.6477 116.419 94.1756C116.405 94.2083 116.381 94.2364 116.358 94.2738C116.063 93.9794 115.76 93.7084 115.489 93.4047C115.194 93.0822 114.881 92.8299 114.391 92.9187C114.391 92.2832 114.4 91.7038 114.391 91.1245C114.377 90.3441 114.409 89.5592 114.311 88.7929C114.078 86.9893 113.162 85.4614 110.788 85.6296C109.765 85.7043 109.017 86.1762 108.527 87.078C108.326 87.4518 108.27 87.8163 108.471 88.2088C108.643 88.5499 108.788 88.905 108.971 89.2414C109.27 89.7928 109.55 89.8816 110.125 89.6526C110.583 89.4657 111.045 89.7741 111.05 90.2741C111.055 91.0918 111.05 91.9094 111.05 92.7225C111.05 92.7785 111.031 92.8393 111.017 92.914C110.134 92.914 109.27 92.9187 108.405 92.914C108.055 92.9094 107.77 93.0215 107.62 93.3579C107.466 93.7084 107.578 94.0027 107.84 94.2644C108.181 94.6055 108.545 94.9326 108.835 95.3157C109.349 95.9932 109.98 96.3437 110.844 96.1895C110.891 96.1848 110.942 96.2035 111.05 96.2082Z" fill="#0077B5"/>
<path d="M111.049 96.2083C110.941 96.1989 110.89 96.1849 110.843 96.1942C109.979 96.3484 109.352 95.998 108.834 95.3205C108.544 94.9373 108.18 94.6149 107.839 94.2692C107.582 94.0075 107.465 93.7131 107.619 93.3627C107.764 93.0263 108.049 92.9141 108.404 92.9188C109.268 92.9235 110.133 92.9188 111.016 92.9188C111.03 92.8394 111.049 92.7833 111.049 92.7272C111.049 91.9095 111.053 91.0918 111.049 90.2788C111.044 89.7788 110.581 89.4751 110.123 89.6574C109.549 89.891 109.268 89.7975 108.969 89.2462C108.787 88.9098 108.642 88.5546 108.469 88.2136C108.268 87.8211 108.325 87.4566 108.525 87.0828C109.016 86.181 109.764 85.7091 110.787 85.6343C113.161 85.4661 114.076 86.9894 114.31 88.7976C114.408 89.5639 114.375 90.3536 114.389 91.1292C114.399 91.7086 114.389 92.288 114.389 92.9235C114.88 92.8347 115.193 93.087 115.488 93.4094C115.759 93.7085 116.062 93.9841 116.357 94.2785C116.38 94.2364 116.403 94.2131 116.417 94.1804C117.025 92.6525 118.001 92.0357 119.646 92.1478C121.412 92.2693 122.454 93.3533 123.066 94.8766C123.837 96.8017 123.506 98.6707 122.515 100.437C121.043 103.063 118.721 104.46 115.801 104.834C114.436 105.007 113.095 104.764 112.058 103.712C111.394 103.039 111.044 102.231 111.049 101.278C111.053 99.7313 111.049 98.1847 111.049 96.6381C111.049 96.5026 111.049 96.3718 111.049 96.2083ZM111.792 95.4513C111.792 95.6429 111.792 95.7784 111.792 95.9139C111.792 97.6848 111.792 99.4557 111.792 101.222C111.792 102.493 112.553 103.567 113.787 103.899C114.399 104.063 115.072 104.184 115.688 104.1C118.782 103.67 121.109 102.124 122.295 99.166C123.034 97.325 122.968 95.5027 121.609 93.9C121.062 93.2552 120.356 92.9141 119.501 92.8907C118.212 92.8534 117.338 93.4188 117.114 94.5355C117.025 94.97 117.048 95.4513 117.128 95.8952C117.319 96.9699 118.02 97.5399 119.109 97.6007C119.352 97.6147 119.595 97.6007 119.87 97.6007C119.833 97.825 119.819 98.0118 119.772 98.1894C119.319 99.8295 118.221 100.942 116.786 101.759C116.315 102.03 115.791 102.105 115.245 102.068C114.245 101.998 113.651 101.385 113.651 100.39C113.647 98.8669 113.651 97.3437 113.651 95.8251C113.651 95.7083 113.651 95.5915 113.651 95.4373C114.59 95.4373 115.474 95.4373 116.352 95.4373C116.375 95.3999 116.399 95.3672 116.422 95.3298C116.076 95.0121 115.688 94.7317 115.394 94.3719C114.96 93.8486 114.478 93.5309 113.777 93.6664C113.749 93.6711 113.712 93.6477 113.651 93.6243C113.651 93.4935 113.651 93.358 113.651 93.2225C113.651 92.0824 113.679 90.9423 113.637 89.8069C113.619 89.2182 113.539 88.6201 113.376 88.0547C112.969 86.6623 111.974 86.1576 110.408 86.452C109.824 86.5641 109.423 86.9426 109.166 87.4753C109.119 87.5687 109.077 87.7042 109.11 87.7884C109.278 88.2042 109.474 88.6107 109.661 89.0312C109.782 88.9845 109.838 88.9658 109.894 88.9425C110.679 88.6341 111.894 89.2462 111.792 90.3396C111.764 90.6339 111.787 90.933 111.787 91.232C111.787 92.031 111.787 92.8347 111.787 93.6804C110.623 93.6804 109.497 93.6804 108.301 93.6804C108.871 94.2738 109.376 94.8158 109.899 95.3392C109.979 95.4186 110.142 95.4466 110.264 95.4466C110.759 95.456 111.254 95.4513 111.792 95.4513ZM114.399 96.1942C114.399 97.6848 114.389 99.1286 114.403 100.572C114.408 100.974 114.717 101.25 115.156 101.306C115.632 101.371 116.095 101.311 116.515 101.068C117.525 100.488 118.31 99.6893 118.838 98.6426C118.884 98.5539 118.903 98.4511 118.941 98.3389C117.688 98.1614 116.829 97.568 116.464 96.3578C116.441 96.283 116.31 96.2036 116.226 96.1989C115.632 96.1849 115.039 96.1942 114.399 96.1942Z" fill="#0077B5"/>
<path d="M111.792 95.4517C111.25 95.4517 110.76 95.461 110.269 95.447C110.143 95.4423 109.984 95.419 109.905 95.3395C109.381 94.8162 108.877 94.2742 108.307 93.6808C109.503 93.6808 110.629 93.6808 111.792 93.6808C111.792 92.8351 111.792 92.0314 111.792 91.2324C111.792 90.9333 111.769 90.6343 111.797 90.3399C111.904 89.2466 110.685 88.6345 109.9 88.9428C109.844 88.9662 109.788 88.9849 109.666 89.0316C109.479 88.6158 109.283 88.2093 109.115 87.7887C109.082 87.7046 109.124 87.5691 109.171 87.4757C109.423 86.943 109.825 86.5645 110.414 86.4524C111.979 86.158 112.97 86.6626 113.381 88.0551C113.545 88.6158 113.624 89.2185 113.643 89.8073C113.685 90.9427 113.657 92.0828 113.657 93.2229C113.657 93.3584 113.657 93.4892 113.657 93.6247C113.717 93.6434 113.75 93.6714 113.783 93.6668C114.484 93.5313 114.965 93.8443 115.4 94.3723C115.694 94.7321 116.082 95.0125 116.428 95.3302C116.404 95.3676 116.381 95.4003 116.357 95.4377C115.479 95.4377 114.596 95.4377 113.657 95.4377C113.657 95.5919 113.657 95.7087 113.657 95.8255C113.657 97.3487 113.657 98.872 113.657 100.391C113.657 101.39 114.25 102.003 115.25 102.068C115.797 102.105 116.32 102.031 116.792 101.76C118.226 100.942 119.32 99.8298 119.778 98.1898C119.824 98.0122 119.838 97.8253 119.876 97.601C119.605 97.601 119.357 97.6104 119.114 97.601C118.026 97.5403 117.325 96.9703 117.133 95.8956C117.054 95.4564 117.035 94.9751 117.119 94.5359C117.343 93.4191 118.217 92.8491 119.507 92.8911C120.362 92.9145 121.067 93.2556 121.614 93.9004C122.974 95.5031 123.039 97.3254 122.301 99.1663C121.114 102.124 118.787 103.675 115.694 104.101C115.077 104.185 114.404 104.063 113.792 103.9C112.559 103.568 111.802 102.493 111.797 101.222C111.792 99.4514 111.797 97.6851 111.797 95.9143C111.792 95.7787 111.792 95.6432 111.792 95.4517Z" fill="white"/>
<path d="M114.398 96.1941C115.038 96.1941 115.631 96.1894 116.22 96.2034C116.304 96.2034 116.435 96.2876 116.458 96.3623C116.823 97.5725 117.687 98.1659 118.935 98.3435C118.897 98.4556 118.879 98.5584 118.832 98.6472C118.304 99.6892 117.519 100.493 116.51 101.072C116.089 101.315 115.627 101.376 115.15 101.311C114.711 101.25 114.402 100.979 114.398 100.577C114.388 99.1284 114.398 97.6846 114.398 96.1941Z" fill="#0077B5"/>
<path d="M89.7979 124.168C92.821 120.893 96.3394 118.697 100.961 118.701C110.142 118.711 119.324 118.692 128.505 118.706C131.402 118.711 133.841 120.393 134.822 122.995C135.785 125.561 135.061 128.448 132.986 130.257C131.762 131.327 130.318 131.859 128.697 131.859C123.954 131.869 119.211 131.869 114.473 131.859C113.787 131.859 113.221 131.999 112.969 132.724C112.647 133.653 113.24 134.476 114.287 134.485C116.698 134.504 119.109 134.49 121.524 134.49C123.772 134.49 126.019 134.485 128.267 134.49C131.977 134.499 134.883 132.981 136.691 129.733C138.481 126.518 138.28 123.276 136.308 120.155C136.266 120.084 136.243 120.005 136.196 119.898C136.313 119.762 136.42 119.608 136.556 119.477C139.173 116.86 141.77 114.225 144.41 111.632C146.882 109.197 150.639 109.09 153.087 111.389C155.036 113.22 155.424 115.477 154.578 117.944C154.297 118.762 153.868 119.552 153.377 120.267C149.714 125.593 146.022 130.901 142.331 136.209C140.238 139.218 137.542 141.391 133.865 142.115C133.037 142.279 132.182 142.368 131.337 142.372C123.688 142.396 116.043 142.4 108.395 142.391C108.156 142.391 107.853 142.279 107.684 142.111C101.746 136.186 95.8207 130.252 89.896 124.313C89.8633 124.304 89.8539 124.276 89.7979 124.168Z" fill="#0077B5"/>
<path d="M98.3663 155.736C97.885 155.386 97.4598 155.147 97.1234 154.816C92.792 150.503 88.4699 146.181 84.1478 141.859C81.6854 139.396 79.2229 136.934 76.7605 134.476C75.7559 133.472 75.7466 132.906 76.7325 131.916C79.1529 129.491 81.5732 127.066 83.9983 124.645C84.9234 123.72 85.5215 123.715 86.442 124.631C93.2686 131.453 100.09 138.275 106.908 145.102C107.856 146.05 107.847 146.639 106.884 147.606C104.464 150.031 102.048 152.461 99.6092 154.867C99.2821 155.194 98.8429 155.409 98.3663 155.736Z" fill="#0077B5"/>
</g>
<defs>
<filter id="filter0_d_3375_2897" x="0" y="0" width="232" height="232" filterUnits="userSpaceOnUse" color-interpolation-filters="sRGB">
<feFlood flood-opacity="0" result="BackgroundImageFix"/>
<feColorMatrix in="SourceAlpha" type="matrix" values="0 0 0 0 0 0 0 0 0 0 0 0 0 0 0 0 0 0 127 0" result="hardAlpha"/>
<feOffset dx="4" dy="4"/>
<feGaussianBlur stdDeviation="10"/>
<feComposite in2="hardAlpha" operator="out"/>
<feColorMatrix type="matrix" values="0 0 0 0 0 0 0 0 0 0 0 0 0 0 0 0 0 0 0.1 0"/>
<feBlend mode="normal" in2="BackgroundImageFix" result="effect1_dropShadow_3375_2897"/>
<feBlend mode="normal" in="SourceGraphic" in2="effect1_dropShadow_3375_2897" result="shape"/>
</filter>
</defs>
</svg>
