<svg width="416" height="60" viewBox="0 0 416 60" fill="none" xmlns="http://www.w3.org/2000/svg">
<path d="M190.139 1.35321C193.606 1.35321 196.428 4.16789 196.428 7.62669V52.3733C196.428 55.8321 193.606 58.6468 190.139 58.6468H7.64549C4.17816 58.6468 1.35655 55.8321 1.35655 52.3733V7.62669C1.35655 4.16789 4.17816 1.35321 7.64549 1.35321H190.139ZM190.139 0H7.64549C3.42256 0 0 3.41415 0 7.62669V52.3733C0 56.5859 3.42256 60 7.64549 60H190.139C194.36 60 197.784 56.5859 197.784 52.3733V7.62669C197.784 3.41415 194.362 0 190.139 0Z" fill="#0077B5"/>
<path d="M61.5081 17.1776H56.0561L54.861 19.8163H54.123L58.4464 10.4399H59.1314L63.4547 19.8163H62.7168L61.5081 17.1776ZM61.2531 16.6011L58.7828 11.1896L56.3261 16.6011H61.2531Z" fill="#0077B5"/>
<path d="M70.2241 12.8242L67.0552 19.8163H66.3702L63.2148 12.8242H63.927L66.7202 19.0801L69.5404 12.8242H70.2241Z" fill="#0077B5"/>
<path d="M75.8366 13.4332C76.3019 13.8757 76.5352 14.5253 76.5352 15.3818V19.815H75.8909V18.5687C75.667 18.98 75.3401 19.298 74.9101 19.5267C74.4801 19.7541 73.9659 19.8677 73.3663 19.8677C72.5877 19.8677 71.9718 19.6851 71.5201 19.3183C71.0683 18.9516 70.8418 18.4699 70.8418 17.8718C70.8418 17.2912 71.0494 16.8203 71.4658 16.459C71.8823 16.0977 72.547 15.9164 73.4599 15.9164H75.8637V15.3534C75.8637 14.7012 75.6874 14.2059 75.3333 13.8663C74.9793 13.5266 74.4624 13.3574 73.7828 13.3574C73.3175 13.3574 72.8712 13.4373 72.4466 13.5983C72.022 13.7593 71.6612 13.9732 71.3654 14.2411L71.0304 13.7593C71.379 13.4468 71.7995 13.2032 72.2919 13.03C72.7844 12.8554 73.2985 12.7688 73.8357 12.7688C74.7039 12.7702 75.3713 12.9907 75.8366 13.4332ZM74.944 18.9191C75.351 18.6512 75.6575 18.2628 75.8637 17.754V16.4414H73.4735C72.7844 16.4414 72.2852 16.5659 71.9759 16.8163C71.6666 17.0666 71.5119 17.4103 71.5119 17.8474C71.5119 18.3034 71.6815 18.662 72.022 18.9259C72.3625 19.1898 72.8414 19.321 73.4586 19.321C74.0419 19.3197 74.537 19.1857 74.944 18.9191Z" fill="#0077B5"/>
<path d="M79.2454 10.9691C79.1382 10.8663 79.084 10.739 79.084 10.5875C79.084 10.4359 79.1382 10.306 79.2454 10.1991C79.3526 10.0922 79.4828 10.0381 79.6347 10.0381C79.7867 10.0381 79.9169 10.0895 80.0241 10.1924C80.1312 10.2952 80.1855 10.4224 80.1855 10.574C80.1855 10.7255 80.1312 10.8554 80.0241 10.9623C79.9169 11.0692 79.7867 11.1234 79.6347 11.1234C79.4828 11.1234 79.3526 11.0719 79.2454 10.9691ZM79.2997 12.8243H79.9712V19.8164H79.2997V12.8243Z" fill="#0077B5"/>
<path d="M82.8027 9.87695H83.4743V19.8163H82.8027V9.87695Z" fill="#0077B5"/>
<path d="M90.6764 13.4332C91.1417 13.8757 91.3751 14.5253 91.3751 15.3818V19.815H90.7307V18.5687C90.5069 18.98 90.1799 19.298 89.7499 19.5267C89.3199 19.7541 88.8057 19.8677 88.2062 19.8677C87.4275 19.8677 86.8116 19.6851 86.3599 19.3183C85.9082 18.9516 85.6816 18.4699 85.6816 17.8718C85.6816 17.2912 85.8892 16.8203 86.3056 16.459C86.7221 16.0977 87.3868 15.9164 88.2997 15.9164H90.7036V15.3534C90.7036 14.7012 90.5272 14.2059 90.1731 13.8663C89.8191 13.5266 89.3023 13.3574 88.6226 13.3574C88.1573 13.3574 87.711 13.4373 87.2864 13.5983C86.8618 13.7593 86.501 13.9732 86.2052 14.2411L85.8702 13.7593C86.2188 13.4468 86.6394 13.2032 87.1318 13.03C87.6242 12.8554 88.1383 12.7688 88.6755 12.7688C89.5437 12.7702 90.2098 12.9907 90.6764 13.4332ZM89.7825 18.9191C90.1894 18.6512 90.496 18.2628 90.7022 17.754V16.4414H88.312C87.6228 16.4414 87.1236 16.5659 86.8143 16.8163C86.505 17.0666 86.3504 17.4103 86.3504 17.8474C86.3504 18.3034 86.52 18.662 86.8605 18.9259C87.201 19.1898 87.6798 19.321 88.2971 19.321C88.8804 19.3197 89.3755 19.1857 89.7825 18.9191Z" fill="#0077B5"/>
<path d="M99.4272 13.2194C99.9549 13.5184 100.369 13.9379 100.67 14.4779C100.97 15.0178 101.12 15.6322 101.12 16.3196C101.12 17.007 100.97 17.6187 100.67 18.1545C100.37 18.6904 99.9563 19.1099 99.4272 19.413C98.8996 19.7161 98.3081 19.8691 97.6543 19.8691C97.0275 19.8691 96.4619 19.7202 95.9559 19.4198C95.4499 19.1207 95.0578 18.7026 94.7811 18.1681V19.8163H94.1367V9.87695H94.8082V14.4183C95.0849 13.9 95.4756 13.4968 95.9762 13.2059C96.4768 12.9163 97.037 12.7701 97.6543 12.7701C98.3081 12.7701 98.8996 12.9203 99.4272 13.2194ZM99.0651 18.892C99.4951 18.6417 99.8329 18.2939 100.078 17.8474C100.324 17.4008 100.447 16.892 100.447 16.3209C100.447 15.7499 100.324 15.2411 100.078 14.7945C99.8315 14.348 99.4937 14.0002 99.0651 13.7498C98.635 13.4995 98.1521 13.375 97.6149 13.375C97.0777 13.375 96.5961 13.4995 96.1715 13.7498C95.7456 14.0002 95.4105 14.348 95.165 14.7945C94.9181 15.2411 94.796 15.7499 94.796 16.3209C94.796 16.892 94.9195 17.4022 95.165 17.8474C95.4105 18.2939 95.7469 18.6417 96.1715 18.892C96.5961 19.1424 97.0777 19.2669 97.6149 19.2669C98.1521 19.2669 98.635 19.1424 99.0651 18.892Z" fill="#0077B5"/>
<path d="M103.201 9.87695H103.873V19.8163H103.201V9.87695Z" fill="#0077B5"/>
<path d="M112.626 16.4805H106.597C106.615 17.0258 106.753 17.5103 107.014 17.9338C107.273 18.3574 107.624 18.6862 108.068 18.919C108.511 19.1517 109.009 19.2668 109.565 19.2668C110.023 19.2668 110.445 19.1842 110.834 19.0191C111.223 18.854 111.547 18.6105 111.808 18.2897L112.197 18.7322C111.893 19.099 111.509 19.3804 111.05 19.5766C110.588 19.7729 110.089 19.8716 109.552 19.8716C108.853 19.8716 108.232 19.7201 107.685 19.4156C107.139 19.1125 106.711 18.6916 106.403 18.1571C106.094 17.6213 105.939 17.0096 105.939 16.3222C105.939 15.6442 106.085 15.0339 106.376 14.494C106.667 13.9541 107.068 13.5319 107.578 13.2287C108.088 12.9256 108.661 12.7727 109.297 12.7727C109.932 12.7727 110.503 12.9229 111.009 13.222C111.515 13.521 111.912 13.9392 112.204 14.475C112.494 15.0109 112.641 15.6185 112.641 16.2965L112.626 16.4805ZM107.966 13.6875C107.573 13.9067 107.257 14.2139 107.019 14.6117C106.782 15.0096 106.645 15.4575 106.61 15.9582H111.98C111.953 15.4588 111.819 15.0123 111.577 14.6185C111.336 14.2261 111.018 13.9175 110.624 13.6942C110.23 13.471 109.787 13.36 109.294 13.36C108.803 13.36 108.361 13.4696 107.966 13.6875Z" fill="#0077B5"/>
<path d="M119.12 19.4144C118.587 19.1113 118.169 18.6891 117.865 18.1491C117.562 17.6092 117.408 16.9989 117.408 16.321C117.408 15.643 117.56 15.0327 117.865 14.4928C118.169 13.9528 118.588 13.5306 119.12 13.2275C119.653 12.9244 120.25 12.7715 120.912 12.7715C121.574 12.7715 122.172 12.923 122.704 13.2275C123.237 13.5306 123.655 13.9528 123.96 14.4928C124.264 15.0327 124.416 15.643 124.416 16.321C124.416 17.0003 124.264 17.6092 123.96 18.1491C123.656 18.6891 123.237 19.1113 122.704 19.4144C122.171 19.7175 121.574 19.8704 120.912 19.8704C120.25 19.8691 119.652 19.7175 119.12 19.4144ZM122.356 18.8921C122.78 18.6417 123.117 18.2939 123.362 17.8474C123.608 17.4008 123.731 16.892 123.731 16.321C123.731 15.7499 123.608 15.2411 123.362 14.7945C123.115 14.348 122.78 14.0002 122.356 13.7499C121.93 13.4995 121.449 13.375 120.912 13.375C120.375 13.375 119.893 13.4995 119.469 13.7499C119.044 14.0002 118.708 14.348 118.462 14.7945C118.215 15.2411 118.093 15.7499 118.093 16.321C118.093 16.892 118.217 17.4022 118.462 17.8474C118.708 18.2939 119.044 18.6417 119.469 18.8921C119.893 19.1424 120.375 19.2669 120.912 19.2669C121.449 19.2669 121.931 19.1424 122.356 18.8921Z" fill="#0077B5"/>
<path d="M132.001 13.5332C132.511 14.042 132.766 14.7741 132.766 15.7295V19.8148H132.095V15.7836C132.095 14.9974 131.895 14.3993 131.498 13.9893C131.099 13.5792 130.543 13.3736 129.826 13.3736C129.003 13.3736 128.353 13.6198 127.88 14.1097C127.405 14.6009 127.168 15.2613 127.168 16.0922V19.8162H126.496V12.8241H127.14V14.337C127.382 13.8458 127.743 13.4615 128.222 13.1855C128.7 12.9094 129.266 12.77 129.92 12.77C130.796 12.77 131.491 13.0244 132.001 13.5332Z" fill="#0077B5"/>
<path d="M142.463 19.3737C142.294 19.5347 142.081 19.6579 141.826 19.7418C141.571 19.827 141.305 19.869 141.027 19.869C140.418 19.869 139.948 19.7012 139.617 19.3669C139.286 19.0327 139.121 18.5658 139.121 17.9677V13.3993H137.832V12.8228H139.121V11.2964H139.792V12.8228H142.021V13.3993H139.792V17.9001C139.792 18.3561 139.902 18.7012 140.122 18.938C140.342 19.1748 140.666 19.2925 141.096 19.2925C141.534 19.2925 141.898 19.1626 142.184 18.9041L142.463 19.3737Z" fill="#0077B5"/>
<path d="M149.837 13.5333C150.347 14.0421 150.602 14.7742 150.602 15.7296V19.8149H149.93V15.7837C149.93 14.9975 149.731 14.3994 149.334 13.9894C148.935 13.5793 148.379 13.3736 147.662 13.3736C146.839 13.3736 146.189 13.6199 145.716 14.1098C145.241 14.601 145.004 15.2614 145.004 16.0922V19.8163H144.332V9.87695H145.004V14.2844C145.245 13.8026 145.603 13.4291 146.078 13.1666C146.553 12.9027 147.112 12.7715 147.756 12.7715C148.632 12.7701 149.327 13.0245 149.837 13.5333Z" fill="#0077B5"/>
<path d="M159.3 16.4807H153.271C153.289 17.0261 153.427 17.5105 153.688 17.9341C153.947 18.3576 154.298 18.6865 154.742 18.9192C155.185 19.152 155.683 19.267 156.239 19.267C156.696 19.267 157.118 19.1845 157.508 19.0194C157.897 18.8543 158.221 18.6107 158.482 18.29L158.871 18.7325C158.567 19.0992 158.183 19.3807 157.723 19.5769C157.262 19.7731 156.763 19.8719 156.226 19.8719C155.527 19.8719 154.906 19.7203 154.359 19.4159C153.812 19.1127 153.385 18.6919 153.077 18.1574C152.768 17.6215 152.613 17.0099 152.613 16.3224C152.613 15.6445 152.758 15.0342 153.05 14.4942C153.34 13.9543 153.742 13.5321 154.252 13.229C154.762 12.9259 155.335 12.7729 155.971 12.7729C156.606 12.7729 157.177 12.9232 157.683 13.2222C158.189 13.5213 158.586 13.9394 158.878 14.4753C159.168 15.0112 159.315 15.6188 159.315 16.2967L159.3 16.4807ZM154.64 13.6877C154.247 13.9069 153.93 14.2141 153.693 14.612C153.456 15.0098 153.319 15.4577 153.283 15.9584H158.654C158.627 15.4591 158.493 15.0125 158.251 14.6187C158.01 14.2263 157.692 13.9178 157.297 13.6945C156.903 13.4712 156.46 13.3602 155.968 13.3602C155.477 13.3602 155.035 13.4699 154.64 13.6877Z" fill="#0077B5"/>
<path d="M64.8192 36.243H67.5771V42.484C66.7699 43.1254 65.8285 43.618 64.7514 43.9603C63.6743 44.3027 62.5687 44.4746 61.4319 44.4746C59.8326 44.4746 58.3892 44.1281 57.1032 43.4339C55.8172 42.7411 54.8079 41.783 54.0754 40.5597C53.3428 39.3364 52.9766 37.9575 52.9766 36.4216C52.9766 34.8857 53.3428 33.5068 54.0754 32.2835C54.8079 31.0602 55.8212 30.1021 57.114 29.4093C58.4068 28.7164 59.861 28.3687 61.4753 28.3687C62.7912 28.3687 63.9863 28.5852 65.0634 29.0168C66.1405 29.4499 67.044 30.0832 67.7765 30.9181L65.937 32.7084C64.7405 31.5149 63.2985 30.9181 61.6082 30.9181C60.5013 30.9181 59.5192 31.1495 58.6591 31.6109C57.7991 32.0737 57.1262 32.7219 56.6406 33.5569C56.155 34.3918 55.9121 35.3458 55.9121 36.4203C55.9121 37.4649 56.155 38.4041 56.6406 39.239C57.1262 40.0739 57.7991 40.7302 58.6591 41.2079C59.5192 41.6856 60.4945 41.9238 61.5852 41.9238C62.8115 41.9238 63.8873 41.6558 64.8138 41.1186V36.243H64.8192Z" fill="#0077B5"/>
<path d="M73.2505 43.6261C72.2779 43.1037 71.5196 42.3771 70.9743 41.4447C70.4289 40.5123 70.1562 39.4582 70.1562 38.2795C70.1562 37.1022 70.4289 36.0508 70.9743 35.1252C71.5196 34.201 72.2779 33.477 73.2505 32.9547C74.2218 32.4323 75.3139 32.1711 76.5253 32.1711C77.7516 32.1711 78.8504 32.4323 79.8216 32.9547C80.7929 33.477 81.5512 34.1996 82.0979 35.1252C82.6433 36.0494 82.9159 37.1009 82.9159 38.2795C82.9159 39.4582 82.6433 40.5137 82.0979 41.4447C81.5526 42.3771 80.7929 43.1037 79.8216 43.6261C78.849 44.1484 77.7502 44.4096 76.5253 44.4096C75.3139 44.4082 74.2218 44.1484 73.2505 43.6261ZM79.081 40.986C79.7538 40.2999 80.0902 39.3973 80.0902 38.2795C80.0902 37.1604 79.7538 36.2592 79.081 35.5731C78.4081 34.887 77.5562 34.5447 76.5239 34.5447C75.4929 34.5447 74.6437 34.8884 73.979 35.5731C73.313 36.2592 72.9806 37.1618 72.9806 38.2795C72.9806 39.3986 73.313 40.2999 73.979 40.986C74.6437 41.672 75.4929 42.0144 76.5239 42.0144C77.5562 42.0144 78.4081 41.672 79.081 40.986Z" fill="#0077B5"/>
<path d="M87.7154 43.6261C86.7427 43.1037 85.9844 42.3771 85.4391 41.4447C84.8938 40.5123 84.6211 39.4582 84.6211 38.2795C84.6211 37.1022 84.8938 36.0508 85.4391 35.1252C85.9844 34.201 86.7427 33.477 87.7154 32.9547C88.6867 32.4323 89.7787 32.1711 90.9901 32.1711C92.2164 32.1711 93.3152 32.4323 94.2865 32.9547C95.2578 33.477 96.0161 34.1996 96.5628 35.1252C97.1081 36.0494 97.3808 37.1009 97.3808 38.2795C97.3808 39.4582 97.1081 40.5137 96.5628 41.4447C96.0174 42.3771 95.2578 43.1037 94.2865 43.6261C93.3138 44.1484 92.215 44.4096 90.9901 44.4096C89.7787 44.4082 88.688 44.1484 87.7154 43.6261ZM93.5458 40.986C94.2187 40.2999 94.5551 39.3973 94.5551 38.2795C94.5551 37.1604 94.2187 36.2592 93.5458 35.5731C92.873 34.887 92.021 34.5447 90.9887 34.5447C89.9577 34.5447 89.1085 34.8884 88.4438 35.5731C87.7778 36.2592 87.4454 37.1618 87.4454 38.2795C87.4454 39.3986 87.7778 40.2999 88.4438 40.986C89.1085 41.672 89.9577 42.0144 90.9887 42.0144C92.021 42.0144 92.873 41.672 93.5458 40.986Z" fill="#0077B5"/>
<path d="M111.958 32.3064V42.4406C111.958 46.6464 109.805 48.7493 105.5 48.7493C104.348 48.7493 103.257 48.6045 102.225 48.3136C101.194 48.0226 100.341 47.6018 99.6679 47.0497L100.924 44.9468C101.448 45.3798 102.108 45.7262 102.909 45.9874C103.708 46.2486 104.519 46.3785 105.342 46.3785C106.658 46.3785 107.621 46.0794 108.235 45.484C108.848 44.8872 109.154 43.9779 109.154 42.7546V42.128C108.675 42.6504 108.092 43.0455 107.406 43.3135C106.718 43.5814 105.962 43.7167 105.14 43.7167C104.003 43.7167 102.977 43.4745 102.057 42.99C101.137 42.5056 100.413 41.8236 99.8822 40.9426C99.3518 40.063 99.0859 39.0563 99.0859 37.9223C99.0859 36.7896 99.3518 35.7855 99.8822 34.9141C100.413 34.0413 101.138 33.3674 102.057 32.8897C102.977 32.412 104.003 32.1738 105.14 32.1738C106.007 32.1738 106.795 32.3159 107.506 32.5987C108.216 32.8829 108.81 33.3146 109.289 33.8965V32.3078H111.958V32.3064ZM108.18 40.3932C108.86 39.7599 109.2 38.9358 109.2 37.9209C109.2 36.9222 108.86 36.109 108.18 35.4824C107.499 34.8559 106.628 34.5433 105.568 34.5433C104.492 34.5433 103.613 34.8559 102.933 35.4824C102.252 36.109 101.913 36.9222 101.913 37.9209C101.913 38.9358 102.253 39.7586 102.933 40.3932C103.613 41.0279 104.492 41.3445 105.568 41.3445C106.628 41.3432 107.499 41.0265 108.18 40.3932Z" fill="#0077B5"/>
<path d="M115.637 27.6528H118.439V44.2513H115.637V27.6528Z" fill="#0077B5"/>
<path d="M133.327 39.174H123.93C124.094 40.0536 124.524 40.7505 125.22 41.2661C125.916 41.7803 126.779 42.0374 127.81 42.0374C129.126 42.0374 130.21 41.6044 131.062 40.7397L132.565 42.4623C132.026 43.1037 131.346 43.5882 130.524 43.917C129.702 44.2458 128.776 44.4096 127.743 44.4096C126.428 44.4096 125.269 44.1484 124.268 43.6261C123.267 43.1037 122.492 42.3771 121.947 41.4447C121.402 40.5123 121.129 39.4582 121.129 38.2795C121.129 37.1158 121.395 36.0684 121.925 35.136C122.456 34.2037 123.192 33.477 124.134 32.9547C125.075 32.4323 126.137 32.1711 127.317 32.1711C128.484 32.1711 129.526 32.4283 130.446 32.9425C131.365 33.4567 132.083 34.1807 132.599 35.113C133.114 36.0454 133.372 37.1225 133.372 38.3458C133.372 38.5407 133.357 38.8154 133.327 39.174ZM125.041 35.2037C124.421 35.7328 124.043 36.4378 123.908 37.3174H130.703C130.584 36.4527 130.218 35.7517 129.605 35.2145C128.991 34.6773 128.229 34.4094 127.317 34.4094C126.419 34.4094 125.661 34.6746 125.041 35.2037Z" fill="#0077B5"/>
<path d="M152.534 29.2645C153.543 29.7124 154.317 30.3538 154.855 31.1887C155.394 32.0236 155.662 33.0156 155.662 34.1644C155.662 35.2984 155.394 36.2863 154.855 37.128C154.317 37.971 153.543 38.6151 152.534 39.0631C151.525 39.511 150.339 39.7342 148.98 39.7342H145.437V44.2526H142.521V28.5933H148.98C150.339 28.5933 151.525 28.8165 152.534 29.2645ZM151.738 36.4676C152.396 35.9304 152.724 35.1631 152.724 34.1631C152.724 33.1644 152.394 32.3958 151.738 31.8586C151.08 31.3213 150.115 31.0534 148.846 31.0534H145.437V37.2728H148.846C150.115 37.2728 151.08 37.0035 151.738 36.4676Z" fill="#0077B5"/>
<path d="M158.531 27.6528H161.334V44.2513H158.531V27.6528Z" fill="#0077B5"/>
<path d="M173.636 33.4365C174.57 34.2796 175.037 35.5502 175.037 37.2512V44.2527H172.39V42.798C172.046 43.3204 171.556 43.7196 170.921 43.9943C170.285 44.2703 169.52 44.4083 168.623 44.4083C167.727 44.4083 166.941 44.2554 166.268 43.9496C165.595 43.6438 165.076 43.2189 164.71 42.6749C164.343 42.1309 164.16 41.5152 164.16 40.8291C164.16 39.756 164.56 38.894 165.359 38.2458C166.158 37.5976 167.419 37.2729 169.137 37.2729H172.232V37.0942C172.232 36.2593 171.981 35.6179 171.48 35.17C170.98 34.7221 170.236 34.4988 169.249 34.4988C168.576 34.4988 167.914 34.603 167.264 34.8114C166.614 35.0198 166.065 35.3107 165.616 35.6842L164.517 33.649C165.145 33.1713 165.899 32.8073 166.782 32.5529C167.664 32.2998 168.599 32.1726 169.585 32.1726C171.353 32.1726 172.701 32.5935 173.636 33.4365ZM171.08 41.8927C171.625 41.572 172.01 41.1133 172.234 40.5165V39.1295H169.341C167.727 39.1295 166.919 39.6586 166.919 40.7181C166.919 41.2256 167.122 41.6275 167.524 41.9265C167.929 42.2256 168.489 42.3745 169.207 42.3745C169.909 42.3731 170.533 42.2134 171.08 41.8927Z" fill="#0077B5"/>
<path d="M189.612 32.3066L184.006 45.2149C183.482 46.5126 182.847 47.4261 182.1 47.9552C181.352 48.4843 180.447 48.7495 179.387 48.7495C178.788 48.7495 178.198 48.6521 177.615 48.4586C177.032 48.2651 176.554 47.9958 176.18 47.6534L177.302 45.5952C177.57 45.8482 177.888 46.0498 178.255 46.1987C178.621 46.3476 178.992 46.422 179.365 46.422C179.859 46.422 180.266 46.2948 180.587 46.0417C180.909 45.7873 181.204 45.3624 181.473 44.767L181.675 44.2974L176.45 32.3066H179.365L183.132 41.1431L186.922 32.3066H189.612Z" fill="#0077B5"/>
<path d="M47.5911 29.2346L40.0555 24.8962L33.8574 30.872L39.521 36.3336L47.5898 31.688C48.0333 31.4322 48.2992 30.9735 48.2992 30.462C48.3006 29.9491 48.0347 29.4904 47.5911 29.2346Z" fill="#0077B5"/>
<path d="M38.7768 24.1589L30.4842 19.3848L12.3105 10.095L32.8364 29.887L38.7768 24.1589Z" fill="#0077B5"/>
<path d="M12.6094 51.3599L30.5131 41.5221L38.2399 37.0713L32.8341 31.8574L12.6094 51.3599Z" fill="#0077B5"/>
<path d="M11.0971 10.8948L11.0781 50.8686L31.8143 30.8722L11.0971 10.8948Z" fill="#0077B5"/>
<path d="M407.924 1.35321C411.391 1.35321 414.213 4.16789 414.213 7.6267V52.3733C414.213 55.8321 411.391 58.6468 407.924 58.6468H225.431C221.963 58.6468 219.142 55.8321 219.142 52.3733V7.62535C219.142 4.16654 221.963 1.35186 225.431 1.35186H407.924M407.924 0H225.431C221.209 0 217.785 3.41416 217.785 7.6267V52.3733C217.785 56.5859 221.208 60 225.431 60H407.924C412.146 60 415.57 56.5859 415.57 52.3733V7.62535C415.57 3.41415 412.147 0 407.924 0Z" fill="#0077B5"/>
<path d="M238.61 24.5148C235.402 30.0683 237.441 38.4975 240.99 43.6072C242.761 46.1621 244.553 48.4558 247.01 48.4558C247.056 48.4558 247.102 48.4544 247.15 48.4531C248.304 48.407 249.137 48.0525 249.944 47.7101C250.849 47.3258 251.786 46.928 253.254 46.928C254.651 46.928 255.543 47.3123 256.404 47.6844C257.255 48.0512 258.13 48.4314 259.422 48.4071C262.188 48.3556 263.887 45.8806 265.386 43.6979C266.95 41.4177 267.734 39.2052 267.999 38.3595L268.009 38.3256C268.06 38.1754 267.988 38.0117 267.844 37.9454C267.844 37.9454 267.825 37.9373 267.821 37.9359C267.334 37.737 263.061 35.8465 263.016 30.6922C262.974 26.504 266.221 24.2874 266.873 23.8855L266.902 23.8666C266.973 23.8219 267.022 23.7502 267.039 23.6677C267.056 23.5851 267.039 23.4999 266.991 23.4308C264.75 20.1588 261.313 19.6662 259.93 19.6067C259.729 19.5864 259.523 19.5769 259.314 19.5769C257.689 19.5769 256.133 20.1886 254.882 20.6811C254.019 21.0208 253.273 21.3144 252.76 21.3144C252.183 21.3144 251.432 21.0181 250.566 20.6744C249.404 20.2143 248.089 19.6933 246.695 19.6933C246.661 19.6933 246.629 19.6933 246.598 19.6946C243.357 19.7393 240.297 21.5878 238.61 24.5148Z" fill="#0077B5"/>
<path d="M259.931 10.5984C257.97 10.6783 255.617 11.8826 254.211 13.5254C253.015 14.9057 251.848 17.2088 252.155 19.5296C252.174 19.6744 252.294 19.7867 252.44 19.7989C252.573 19.8084 252.708 19.8138 252.842 19.8138C254.76 19.8138 256.829 18.7556 258.242 17.0505C259.729 15.2508 260.482 12.9422 260.254 10.8731C260.235 10.7121 260.093 10.5917 259.931 10.5984Z" fill="#0077B5"/>
<path d="M282.502 10.4387H286.222C287.197 10.4387 288.064 10.639 288.819 11.0409C289.576 11.4428 290.164 11.999 290.586 12.7081C291.006 13.4185 291.216 14.2237 291.216 15.1262C291.216 16.0288 291.006 16.834 290.586 17.5444C290.165 18.2549 289.576 18.8097 288.819 19.2116C288.062 19.6135 287.197 19.8138 286.222 19.8138H282.502V10.4387ZM286.167 19.1994C287.036 19.1994 287.801 19.0275 288.464 18.6838C289.126 18.3401 289.636 17.8597 289.994 17.244C290.352 16.6283 290.531 15.9219 290.531 15.1276C290.531 14.3333 290.352 13.6269 289.994 13.0112C289.636 12.3955 289.126 11.9151 288.464 11.5714C287.802 11.2276 287.036 11.0558 286.167 11.0558H283.187V19.1994H286.167Z" fill="#0077B5"/>
<path d="M294.321 19.4134C293.788 19.1103 293.37 18.6881 293.067 18.1482C292.763 17.6082 292.609 16.9979 292.609 16.32C292.609 15.642 292.761 15.0317 293.067 14.4918C293.37 13.9519 293.79 13.5297 294.321 13.2265C294.854 12.9234 295.451 12.7705 296.113 12.7705C296.775 12.7705 297.374 12.9221 297.905 13.2265C298.438 13.5297 298.856 13.9519 299.161 14.4918C299.465 15.0317 299.619 15.642 299.619 16.32C299.619 16.9993 299.467 17.6082 299.161 18.1482C298.858 18.6881 298.438 19.1103 297.905 19.4134C297.372 19.7165 296.775 19.8695 296.113 19.8695C295.451 19.8695 294.854 19.7179 294.321 19.4134ZM297.558 18.8911C297.983 18.6407 298.319 18.293 298.565 17.8464C298.81 17.3998 298.934 16.891 298.934 16.32C298.934 15.7489 298.81 15.2401 298.565 14.7936C298.318 14.347 297.983 13.9992 297.558 13.7489C297.132 13.4985 296.652 13.374 296.115 13.374C295.577 13.374 295.096 13.4985 294.671 13.7489C294.245 13.9992 293.91 14.347 293.665 14.7936C293.418 15.2401 293.296 15.7489 293.296 16.32C293.296 16.891 293.419 17.4012 293.665 17.8464C293.91 18.293 294.247 18.6407 294.671 18.8911C295.096 19.1414 295.577 19.2659 296.115 19.2659C296.651 19.2659 297.132 19.1414 297.558 18.8911Z" fill="#0077B5"/>
<path d="M311.52 12.823L308.861 19.815H308.231L305.868 13.7472L303.491 19.815H302.874L300.215 12.823H300.859L303.195 19.0654L305.585 12.823H306.163L308.54 19.0518L310.903 12.823H311.52Z" fill="#0077B5"/>
<path d="M318.58 13.5336C319.091 14.0424 319.346 14.7745 319.346 15.7299V19.8152H318.674V15.784C318.674 14.9978 318.475 14.3996 318.076 13.9896C317.677 13.5796 317.121 13.3739 316.405 13.3739C315.581 13.3739 314.931 13.6202 314.458 14.1101C313.983 14.6013 313.746 15.2616 313.746 16.0925V19.8165H313.074V12.8245H313.719V14.3388C313.96 13.8475 314.321 13.4632 314.8 13.1872C315.279 12.9111 315.844 12.7717 316.498 12.7717C317.377 12.7704 318.07 13.0248 318.58 13.5336Z" fill="#0077B5"/>
<path d="M322.113 9.8772H322.785V19.8165H322.113V9.8772Z" fill="#0077B5"/>
<path d="M326.565 19.4134C326.032 19.1103 325.615 18.6881 325.311 18.1482C325.007 17.6082 324.854 16.9979 324.854 16.32C324.854 15.642 325.005 15.0317 325.311 14.4918C325.615 13.9519 326.034 13.5297 326.565 13.2265C327.099 12.9234 327.695 12.7705 328.357 12.7705C329.019 12.7705 329.618 12.9221 330.149 13.2265C330.683 13.5297 331.1 13.9519 331.406 14.4918C331.71 15.0317 331.861 15.642 331.861 16.32C331.861 16.9993 331.71 17.6082 331.406 18.1482C331.102 18.6881 330.683 19.1103 330.149 19.4134C329.616 19.7165 329.019 19.8695 328.357 19.8695C327.695 19.8695 327.097 19.7179 326.565 19.4134ZM329.801 18.8911C330.225 18.6407 330.562 18.293 330.807 17.8464C331.053 17.3998 331.176 16.891 331.176 16.32C331.176 15.7489 331.053 15.2401 330.807 14.7936C330.56 14.347 330.225 13.9992 329.801 13.7489C329.375 13.4985 328.895 13.374 328.357 13.374C327.82 13.374 327.339 13.4985 326.914 13.7489C326.488 13.9992 326.153 14.347 325.908 14.7936C325.661 15.2401 325.539 15.7489 325.539 16.32C325.539 16.891 325.662 17.4012 325.908 17.8464C326.153 18.293 326.49 18.6407 326.914 18.8911C327.339 19.1414 327.82 19.2659 328.357 19.2659C328.895 19.2659 329.376 19.1414 329.801 18.8911Z" fill="#0077B5"/>
<path d="M338.28 13.4335C338.745 13.876 338.979 14.5255 338.979 15.3821V19.8152H338.334V18.5689C338.11 18.9803 337.783 19.2983 337.353 19.527C336.923 19.7543 336.409 19.868 335.81 19.868C335.031 19.868 334.415 19.6853 333.963 19.3186C333.512 18.9532 333.285 18.4701 333.285 17.872C333.285 17.2915 333.493 16.8205 333.909 16.4592C334.326 16.0979 334.99 15.9166 335.903 15.9166H338.307V15.3537C338.307 14.7014 338.131 14.2062 337.777 13.8665C337.423 13.5268 336.906 13.3577 336.226 13.3577C335.761 13.3577 335.315 13.4375 334.89 13.5986C334.465 13.7596 334.105 13.9734 333.809 14.2413L333.474 13.7596C333.822 13.447 334.243 13.2034 334.735 13.0302C335.228 12.8556 335.742 12.769 336.279 12.769C337.147 12.7704 337.815 12.991 338.28 13.4335ZM337.387 18.918C337.794 18.6501 338.101 18.2617 338.307 17.7529V16.4403H335.917C335.228 16.4403 334.729 16.5648 334.419 16.8151C334.11 17.0655 333.957 17.4092 333.957 17.8463C333.957 18.3023 334.126 18.6609 334.467 18.9248C334.807 19.1887 335.286 19.3199 335.903 19.3199C336.485 19.3199 336.979 19.186 337.387 18.918Z" fill="#0077B5"/>
<path d="M347.987 9.8772V19.8165H347.329V18.1697C347.051 18.715 346.662 19.1345 346.161 19.4282C345.659 19.7232 345.091 19.8707 344.456 19.8707C343.802 19.8707 343.212 19.7191 342.683 19.4146C342.156 19.1115 341.74 18.6907 341.441 18.1561C341.141 17.6203 340.99 17.0086 340.99 16.3212C340.99 15.6338 341.139 15.0194 341.441 14.4795C341.74 13.9395 342.154 13.52 342.683 13.221C343.211 12.9219 343.802 12.7717 344.456 12.7717C345.083 12.7717 345.645 12.9192 346.141 13.2142C346.638 13.5092 347.03 13.9192 347.316 14.447V9.87991H347.987V9.8772ZM345.94 18.8909C346.365 18.6406 346.701 18.2928 346.947 17.8463C347.192 17.3997 347.316 16.8909 347.316 16.3198C347.316 15.7488 347.192 15.24 346.947 14.7934C346.7 14.3469 346.365 13.9991 345.94 13.7487C345.514 13.4984 345.034 13.3739 344.497 13.3739C343.96 13.3739 343.478 13.4984 343.054 13.7487C342.628 13.9991 342.293 14.3469 342.047 14.7934C341.8 15.24 341.678 15.7488 341.678 16.3198C341.678 16.8909 341.801 17.401 342.047 17.8463C342.293 18.2928 342.629 18.6406 343.054 18.8909C343.478 19.1413 343.96 19.2658 344.497 19.2658C345.034 19.2658 345.514 19.1413 345.94 18.8909Z" fill="#0077B5"/>
<path d="M355.216 19.4134C354.683 19.1103 354.265 18.6881 353.961 18.1482C353.657 17.6082 353.504 16.9979 353.504 16.32C353.504 15.642 353.656 15.0317 353.961 14.4918C354.265 13.9519 354.684 13.5297 355.216 13.2265C355.749 12.9234 356.346 12.7705 357.008 12.7705C357.67 12.7705 358.268 12.9221 358.8 13.2265C359.333 13.5297 359.751 13.9519 360.056 14.4918C360.36 15.0317 360.513 15.642 360.513 16.32C360.513 16.9993 360.361 17.6082 360.056 18.1482C359.752 18.6881 359.333 19.1103 358.8 19.4134C358.267 19.7165 357.67 19.8695 357.008 19.8695C356.346 19.8695 355.749 19.7179 355.216 19.4134ZM358.453 18.8911C358.877 18.6407 359.214 18.293 359.459 17.8464C359.705 17.3998 359.828 16.891 359.828 16.32C359.828 15.7489 359.705 15.2401 359.459 14.7936C359.212 14.347 358.877 13.9992 358.453 13.7489C358.027 13.4985 357.546 13.374 357.009 13.374C356.472 13.374 355.99 13.4985 355.566 13.7489C355.141 13.9992 354.805 14.347 354.559 14.7936C354.312 15.2401 354.19 15.7489 354.19 16.32C354.19 16.891 354.314 17.4012 354.559 17.8464C354.805 18.293 355.141 18.6407 355.566 18.8911C355.99 19.1414 356.472 19.2659 357.009 19.2659C357.546 19.2659 358.027 19.1414 358.453 18.8911Z" fill="#0077B5"/>
<path d="M368.101 13.5336C368.611 14.0424 368.866 14.7745 368.866 15.7299V19.8152H368.194V15.784C368.194 14.9978 367.995 14.3996 367.597 13.9896C367.198 13.5796 366.642 13.3739 365.926 13.3739C365.103 13.3739 364.453 13.6202 363.979 14.1101C363.505 14.6013 363.267 15.2616 363.267 16.0925V19.8165H362.596V12.8245H363.24V14.3388C363.482 13.8475 363.842 13.4632 364.321 13.1872C364.8 12.9111 365.366 12.7717 366.02 12.7717C366.896 12.7704 367.591 13.0248 368.101 13.5336Z" fill="#0077B5"/>
<path d="M378.561 19.3739C378.391 19.535 378.178 19.6581 377.923 19.742C377.668 19.8273 377.402 19.8692 377.124 19.8692C376.515 19.8692 376.046 19.7014 375.715 19.3672C375.384 19.0329 375.218 18.5661 375.218 17.968V13.3995H373.93V12.823H375.218V11.2966H375.89V12.823H378.119V13.3995H375.89V17.9003C375.89 18.3563 376 18.7014 376.22 18.9382C376.439 19.175 376.764 19.2927 377.194 19.2927C377.632 19.2927 377.995 19.1628 378.281 18.9044L378.561 19.3739Z" fill="#0077B5"/>
<path d="M385.933 13.5336C386.443 14.0424 386.698 14.7745 386.698 15.7298V19.8152H386.026V15.784C386.026 14.9977 385.827 14.3996 385.429 13.9896C385.031 13.5796 384.474 13.3739 383.758 13.3739C382.935 13.3739 382.285 13.6202 381.811 14.11C381.337 14.6013 381.099 15.2616 381.099 16.0925V19.8165H380.428V9.8772H381.099V14.2846C381.341 13.8029 381.699 13.4294 382.174 13.1655C382.648 12.9016 383.207 12.7704 383.852 12.7704C384.728 12.7704 385.423 13.0248 385.933 13.5336Z" fill="#0077B5"/>
<path d="M395.399 16.481H389.371C389.388 17.0263 389.527 17.5108 389.787 17.9343C390.046 18.3579 390.398 18.6867 390.841 18.9195C391.285 19.1522 391.783 19.2672 392.339 19.2672C392.796 19.2672 393.218 19.1847 393.607 19.0196C393.997 18.8545 394.321 18.6109 394.581 18.2902L394.971 18.7327C394.667 19.0994 394.283 19.3809 393.823 19.5771C393.362 19.7734 392.863 19.8721 392.325 19.8721C391.627 19.8721 391.005 19.7206 390.459 19.4161C389.912 19.113 389.485 18.6921 389.177 18.1576C388.868 17.6217 388.713 17.0101 388.713 16.3227C388.713 15.6447 388.858 15.0344 389.15 14.4945C389.44 13.9546 389.842 13.5323 390.352 13.2292C390.862 12.9261 391.434 12.7732 392.07 12.7732C392.705 12.7732 393.276 12.9234 393.782 13.2225C394.288 13.5215 394.686 13.9397 394.977 14.4742C395.268 15.0101 395.414 15.6176 395.414 16.2956L395.399 16.481ZM390.74 13.688C390.346 13.9072 390.03 14.2144 389.793 14.6122C389.555 15.0101 389.418 15.458 389.383 15.9586H394.754C394.726 15.4593 394.592 15.0128 394.351 14.619C394.109 14.2265 393.792 13.918 393.397 13.6947C393.004 13.4714 392.56 13.3605 392.068 13.3605C391.577 13.3591 391.133 13.4687 390.74 13.688Z" fill="#0077B5"/>
<path d="M292.441 40.5436H284.41L282.827 44.2514H279.752L286.98 28.228H289.917L297.167 44.2514H294.047L292.441 40.5436ZM291.454 38.208L288.424 31.2037L285.418 38.208H291.454Z" fill="#0077B5"/>
<path d="M308.925 32.6695C309.867 33.1891 310.603 33.9212 311.139 34.8671C311.675 35.813 311.942 36.905 311.942 38.1405C311.942 39.376 311.675 40.4721 311.139 41.4247C310.603 42.3787 309.865 43.1149 308.925 43.6332C307.984 44.1514 306.918 44.4113 305.724 44.4113C304.072 44.4113 302.764 43.8619 301.799 42.763V48.6915H298.932V32.028H301.662V33.6302C302.136 33.0511 302.722 32.6153 303.418 32.3257C304.114 32.0361 304.883 31.8914 305.724 31.8914C306.918 31.8914 307.985 32.1512 308.925 32.6695ZM308.008 40.9091C308.689 40.2068 309.03 39.2839 309.03 38.1391C309.03 36.9943 308.689 36.0714 308.008 35.3691C307.327 34.6668 306.459 34.3163 305.404 34.3163C304.716 34.3163 304.096 34.4733 303.545 34.7859C302.994 35.0985 302.559 35.545 302.238 36.1255C301.916 36.7061 301.756 37.3773 301.756 38.1405C301.756 38.9037 301.916 39.5749 302.238 40.1541C302.559 40.7346 302.994 41.1811 303.545 41.4937C304.096 41.8063 304.716 41.9633 305.404 41.9633C306.459 41.9633 307.327 41.6115 308.008 40.9091Z" fill="#0077B5"/>
<path d="M324.667 32.6695C325.609 33.1891 326.346 33.9212 326.881 34.8671C327.417 35.813 327.684 36.905 327.684 38.1405C327.684 39.376 327.417 40.4721 326.881 41.4247C326.346 42.3787 325.608 43.1149 324.667 43.6332C323.726 44.1514 322.66 44.4113 321.466 44.4113C319.814 44.4113 318.506 43.8619 317.542 42.763V48.6915H314.674V32.028H317.405V33.6302C317.878 33.0511 318.464 32.6153 319.16 32.3257C319.856 32.0361 320.625 31.8914 321.466 31.8914C322.66 31.8914 323.727 32.1512 324.667 32.6695ZM323.75 40.9091C324.431 40.2068 324.772 39.2839 324.772 38.1391C324.772 36.9943 324.431 36.0714 323.75 35.3691C323.069 34.6668 322.201 34.3163 321.146 34.3163C320.458 34.3163 319.838 34.4733 319.287 34.7859C318.737 35.0985 318.301 35.545 317.98 36.1255C317.658 36.7061 317.498 37.3773 317.498 38.1405C317.498 38.9037 317.658 39.5749 317.98 40.1541C318.301 40.7346 318.737 41.1811 319.287 41.4937C319.838 41.8063 320.458 41.9633 321.146 41.9633C322.201 41.9633 323.069 41.6115 323.75 40.9091Z" fill="#0077B5"/>
<path d="M338.413 43.9537C337.258 43.6032 336.345 43.1377 335.672 42.5572L336.704 40.2459C337.362 40.7642 338.169 41.1878 339.126 41.5166C340.082 41.8454 341.041 42.0092 342.006 42.0092C343.199 42.0092 344.089 41.8184 344.679 41.4368C345.268 41.0552 345.562 40.5518 345.562 39.9266C345.562 39.4692 345.398 39.0916 345.069 38.7939C344.739 38.4962 344.323 38.2635 343.818 38.0957C343.313 37.9279 342.624 37.7371 341.753 37.5233C340.53 37.2337 339.539 36.9441 338.781 36.6532C338.024 36.3636 337.373 35.9089 336.83 35.2918C336.288 34.6734 336.016 33.8385 336.016 32.7857C336.016 31.9007 336.258 31.0955 336.739 30.3702C337.221 29.6449 337.948 29.0698 338.919 28.6422C339.891 28.2145 341.08 28.0007 342.487 28.0007C343.467 28.0007 344.43 28.1225 345.378 28.3674C346.326 28.6124 347.144 28.9629 347.833 29.4202L346.892 31.7315C346.188 31.3202 345.454 31.0076 344.689 30.7924C343.924 30.5786 343.182 30.4717 342.463 30.4717C341.285 30.4717 340.409 30.6706 339.835 31.0671C339.261 31.4636 338.975 31.99 338.975 32.6463C338.975 33.1037 339.139 33.4785 339.469 33.7681C339.797 34.0577 340.215 34.2877 340.72 34.4542C341.224 34.622 341.913 34.8128 342.784 35.0266C343.978 35.3013 344.956 35.5868 345.721 35.8845C346.486 36.1822 347.14 36.6369 347.683 37.2459C348.225 37.8562 348.497 38.6803 348.497 39.7182C348.497 40.6032 348.255 41.4043 347.774 42.1215C347.292 42.8387 346.561 43.4111 345.583 43.8387C344.603 44.2663 343.411 44.4801 342.003 44.4801C340.766 44.4801 339.568 44.3042 338.413 43.9537Z" fill="#0077B5"/>
<path d="M358.55 43.5884C358.213 43.8631 357.804 44.0688 357.322 44.2068C356.841 44.3435 356.332 44.4125 355.796 44.4125C354.45 44.4125 353.41 44.062 352.676 43.3597C351.942 42.6574 351.575 41.6357 351.575 40.292V34.4096H349.555V32.1199H351.575V29.3269H354.442V32.1199H357.724V34.4096H354.442V40.2229C354.442 40.8184 354.587 41.2717 354.878 41.5843C355.168 41.8969 355.589 42.0538 356.139 42.0538C356.782 42.0538 357.317 41.8861 357.745 41.5505L358.55 43.5884Z" fill="#0077B5"/>
<path d="M362.654 43.61C361.66 43.0755 360.884 42.3326 360.325 41.3786C359.766 40.4246 359.488 39.3447 359.488 38.139C359.488 36.9333 359.768 35.8575 360.325 34.9116C360.884 33.9657 361.66 33.2255 362.654 32.691C363.649 32.1565 364.765 31.8899 366.005 31.8899C367.26 31.8899 368.383 32.1565 369.379 32.691C370.373 33.2255 371.149 33.9657 371.708 34.9116C372.267 35.8575 372.545 36.9333 372.545 38.139C372.545 39.3447 372.266 40.4246 371.708 41.3786C371.149 42.3326 370.373 43.0769 369.379 43.61C368.384 44.1446 367.26 44.4111 366.005 44.4111C364.765 44.4111 363.649 44.1446 362.654 43.61ZM368.621 40.909C369.308 40.2067 369.653 39.2838 369.653 38.139C369.653 36.9942 369.308 36.0713 368.621 35.369C367.933 34.6667 367.06 34.3162 366.005 34.3162C364.95 34.3162 364.082 34.668 363.401 35.369C362.72 36.0713 362.379 36.9942 362.379 38.139C362.379 39.2838 362.72 40.2067 363.401 40.909C364.082 41.6114 364.95 41.9618 366.005 41.9618C367.06 41.9632 367.933 41.6114 368.621 40.909Z" fill="#0077B5"/>
<path d="M382.388 31.8914V34.6154C382.142 34.5694 381.921 34.5464 381.721 34.5464C380.605 34.5464 379.733 34.8711 379.106 35.5193C378.478 36.1675 378.165 37.1026 378.165 38.3232V44.2516H375.297V32.028H378.028V33.8129C378.854 32.5314 380.308 31.8914 382.388 31.8914Z" fill="#0077B5"/>
<path d="M396.181 39.0553H386.566C386.734 39.9565 387.173 40.6696 387.885 41.196C388.596 41.7224 389.481 41.9863 390.536 41.9863C391.882 41.9863 392.992 41.5438 393.864 40.6588L395.401 42.4207C394.85 43.077 394.154 43.5736 393.313 43.9092C392.472 44.2448 391.524 44.4126 390.468 44.4126C389.123 44.4126 387.936 44.146 386.912 43.6115C385.886 43.077 385.095 42.3341 384.536 41.3801C383.977 40.4261 383.699 39.3462 383.699 38.1405C383.699 36.9497 383.971 35.8779 384.513 34.9239C385.056 33.9699 385.81 33.227 386.773 32.6925C387.736 32.1579 388.823 31.8914 390.032 31.8914C391.225 31.8914 392.292 32.1552 393.233 32.6816C394.173 33.208 394.908 33.9482 395.436 34.9023C395.964 35.8563 396.228 36.9591 396.228 38.2095C396.227 38.4071 396.212 38.6899 396.181 39.0553ZM387.702 34.9929C387.068 35.5342 386.681 36.2555 386.544 37.1567H393.496C393.374 36.2717 392.998 35.5545 392.372 35.0051C391.744 34.4557 390.964 34.181 390.032 34.181C389.115 34.1796 388.337 34.4516 387.702 34.9929Z" fill="#0077B5"/>
</svg>
