<svg width="328" height="713" viewBox="0 0 328 713" fill="none" xmlns="http://www.w3.org/2000/svg">
<g opacity="0.7" filter="url(#filter0_d_32_2030)">
<rect x="3" y="656.995" width="320" height="51" rx="9" fill="#F8F1F1"/>
</g>
<path d="M54.3807 674.702L58.1662 686.151H58.3153L62.0938 674.702H64.9915L59.8636 689.247H56.6108L51.4901 674.702H54.3807ZM66.7937 689.247V678.338H69.3647V689.247H66.7937ZM68.0863 676.79C67.6791 676.79 67.3287 676.655 67.0352 676.385C66.7416 676.11 66.5948 675.781 66.5948 675.398C66.5948 675.01 66.7416 674.681 67.0352 674.411C67.3287 674.136 67.6791 673.999 68.0863 673.999C68.4982 673.999 68.8486 674.136 69.1374 674.411C69.431 674.681 69.5778 675.01 69.5778 675.398C69.5778 675.781 69.431 676.11 69.1374 676.385C68.8486 676.655 68.4982 676.79 68.0863 676.79ZM76.0568 689.439C75.1998 689.439 74.4328 689.219 73.7557 688.779C73.0786 688.338 72.5436 687.699 72.1506 686.861C71.7576 686.023 71.5611 685.005 71.5611 683.807C71.5611 682.595 71.7599 681.572 72.1577 680.739C72.5601 679.901 73.1023 679.269 73.7841 678.842C74.4659 678.412 75.2259 678.196 76.0639 678.196C76.7031 678.196 77.2287 678.305 77.6406 678.523C78.0526 678.736 78.3793 678.994 78.6207 679.297C78.8622 679.595 79.0492 679.877 79.1818 680.142H79.2884V674.702H81.8665V689.247H79.3381V687.529H79.1818C79.0492 687.794 78.8575 688.075 78.6065 688.374C78.3556 688.667 78.0241 688.918 77.6122 689.127C77.2003 689.335 76.6818 689.439 76.0568 689.439ZM76.7741 687.33C77.3187 687.33 77.7827 687.183 78.1662 686.889C78.5497 686.591 78.8409 686.177 79.0398 685.646C79.2386 685.116 79.3381 684.498 79.3381 683.793C79.3381 683.087 79.2386 682.474 79.0398 681.953C78.8456 681.432 78.5568 681.028 78.1733 680.739C77.7945 680.45 77.3281 680.306 76.7741 680.306C76.2012 680.306 75.723 680.455 75.3395 680.753C74.956 681.051 74.6671 681.463 74.473 681.989C74.2789 682.514 74.1818 683.116 74.1818 683.793C74.1818 684.475 74.2789 685.083 74.473 685.618C74.6719 686.148 74.9631 686.567 75.3466 686.875C75.7348 687.178 76.2107 687.33 76.7741 687.33ZM89.4357 689.46C88.342 689.46 87.3974 689.233 86.6019 688.779C85.8112 688.319 85.2028 687.671 84.7766 686.833C84.3505 685.99 84.1374 684.998 84.1374 683.857C84.1374 682.735 84.3505 681.75 84.7766 680.902C85.2075 680.05 85.8088 679.387 86.5806 678.914C87.3524 678.435 88.2591 678.196 89.3008 678.196C89.9731 678.196 90.6076 678.305 91.2042 678.523C91.8055 678.736 92.3358 679.067 92.7951 679.517C93.2591 679.967 93.6237 680.54 93.8888 681.236C94.154 681.927 94.2866 682.751 94.2866 683.708V684.496H85.3448V682.763H91.8221C91.8174 682.271 91.7108 681.833 91.5025 681.449C91.2942 681.061 91.003 680.755 90.6289 680.533C90.2596 680.31 89.8287 680.199 89.3363 680.199C88.8107 680.199 88.3491 680.327 87.9513 680.583C87.5536 680.833 87.2435 681.165 87.021 681.577C86.8031 681.984 86.6919 682.431 86.6871 682.919V684.432C86.6871 685.066 86.8031 685.611 87.0352 686.065C87.2672 686.515 87.5915 686.861 88.0082 687.102C88.4248 687.339 88.9125 687.458 89.4712 687.458C89.8453 687.458 90.1838 687.405 90.4869 687.301C90.7899 687.192 91.0527 687.034 91.2752 686.825C91.4978 686.617 91.6658 686.359 91.7795 686.051L94.18 686.321C94.0285 686.956 93.7397 687.51 93.3136 687.983C92.8922 688.452 92.3524 688.816 91.6942 689.077C91.0361 689.333 90.2833 689.46 89.4357 689.46ZM101.22 689.46C100.155 689.46 99.2315 689.226 98.4503 688.757C97.669 688.289 97.063 687.633 96.6321 686.79C96.206 685.947 95.9929 684.962 95.9929 683.835C95.9929 682.708 96.206 681.721 96.6321 680.874C97.063 680.026 97.669 679.368 98.4503 678.899C99.2315 678.431 100.155 678.196 101.22 678.196C102.286 678.196 103.209 678.431 103.99 678.899C104.771 679.368 105.375 680.026 105.801 680.874C106.232 681.721 106.447 682.708 106.447 683.835C106.447 684.962 106.232 685.947 105.801 686.79C105.375 687.633 104.771 688.289 103.99 688.757C103.209 689.226 102.286 689.46 101.22 689.46ZM101.234 687.401C101.812 687.401 102.295 687.242 102.683 686.925C103.071 686.603 103.36 686.172 103.55 685.632C103.744 685.092 103.841 684.491 103.841 683.828C103.841 683.161 103.744 682.557 103.55 682.017C103.36 681.473 103.071 681.039 102.683 680.717C102.295 680.396 101.812 680.235 101.234 680.235C100.643 680.235 100.15 680.396 99.7571 680.717C99.3688 681.039 99.0777 681.473 98.8835 682.017C98.6941 682.557 98.5994 683.161 98.5994 683.828C98.5994 684.491 98.6941 685.092 98.8835 685.632C99.0777 686.172 99.3688 686.603 99.7571 686.925C100.15 687.242 100.643 687.401 101.234 687.401ZM126.154 679.61H123.498C123.422 679.174 123.283 678.788 123.079 678.452C122.876 678.111 122.622 677.822 122.319 677.585C122.016 677.349 121.671 677.171 121.282 677.053C120.899 676.93 120.484 676.868 120.039 676.868C119.249 676.868 118.548 677.067 117.937 677.465C117.326 677.858 116.848 678.435 116.502 679.198C116.157 679.955 115.984 680.881 115.984 681.975C115.984 683.087 116.157 684.025 116.502 684.787C116.853 685.545 117.331 686.118 117.937 686.506C118.548 686.889 119.246 687.081 120.032 687.081C120.468 687.081 120.875 687.024 121.254 686.911C121.637 686.792 121.981 686.619 122.284 686.392C122.592 686.165 122.85 685.886 123.058 685.554C123.271 685.223 123.418 684.844 123.498 684.418L126.154 684.432C126.055 685.123 125.84 685.772 125.508 686.378C125.181 686.984 124.753 687.519 124.223 687.983C123.692 688.442 123.072 688.802 122.362 689.063C121.652 689.318 120.863 689.446 119.997 689.446C118.718 689.446 117.577 689.15 116.574 688.558C115.57 687.967 114.779 687.112 114.201 685.994C113.624 684.877 113.335 683.537 113.335 681.975C113.335 680.407 113.626 679.067 114.208 677.955C114.791 676.837 115.584 675.983 116.588 675.391C117.592 674.799 118.728 674.503 119.997 674.503C120.806 674.503 121.559 674.617 122.255 674.844C122.951 675.071 123.572 675.405 124.116 675.845C124.661 676.281 125.108 676.816 125.458 677.45C125.814 678.08 126.046 678.8 126.154 679.61ZM131.593 689.467C130.902 689.467 130.279 689.344 129.725 689.098C129.176 688.847 128.74 688.478 128.418 687.99C128.101 687.503 127.942 686.901 127.942 686.186C127.942 685.571 128.056 685.062 128.283 684.659C128.511 684.257 128.821 683.935 129.214 683.693C129.607 683.452 130.049 683.27 130.542 683.146C131.039 683.019 131.553 682.926 132.083 682.869C132.722 682.803 133.241 682.744 133.638 682.692C134.036 682.635 134.325 682.55 134.505 682.436C134.69 682.318 134.782 682.136 134.782 681.889V681.847C134.782 681.312 134.623 680.897 134.306 680.604C133.989 680.31 133.532 680.164 132.935 680.164C132.306 680.164 131.806 680.301 131.437 680.575C131.072 680.85 130.826 681.174 130.698 681.548L128.298 681.208C128.487 680.545 128.799 679.991 129.235 679.546C129.671 679.096 130.203 678.76 130.833 678.537C131.463 678.31 132.159 678.196 132.921 678.196C133.447 678.196 133.97 678.258 134.491 678.381C135.012 678.504 135.487 678.708 135.918 678.992C136.349 679.271 136.695 679.652 136.955 680.135C137.22 680.618 137.353 681.222 137.353 681.946V689.247H134.881V687.749H134.796C134.64 688.052 134.42 688.336 134.136 688.601C133.856 688.861 133.504 689.072 133.077 689.233C132.656 689.389 132.161 689.467 131.593 689.467ZM132.261 687.578C132.777 687.578 133.224 687.476 133.603 687.273C133.982 687.065 134.273 686.79 134.477 686.449C134.685 686.108 134.789 685.736 134.789 685.334V684.048C134.709 684.115 134.571 684.176 134.377 684.233C134.188 684.29 133.975 684.34 133.738 684.382C133.501 684.425 133.267 684.463 133.035 684.496C132.803 684.529 132.602 684.557 132.431 684.581C132.048 684.633 131.704 684.718 131.401 684.837C131.098 684.955 130.859 685.121 130.684 685.334C130.509 685.542 130.421 685.812 130.421 686.144C130.421 686.617 130.594 686.975 130.94 687.216C131.285 687.458 131.726 687.578 132.261 687.578ZM142.509 674.702V689.247H139.938V674.702H142.509ZM147.724 674.702V689.247H145.153V674.702H147.724ZM150.368 689.247V678.338H152.939V689.247H150.368ZM151.661 676.79C151.253 676.79 150.903 676.655 150.609 676.385C150.316 676.11 150.169 675.781 150.169 675.398C150.169 675.01 150.316 674.681 150.609 674.411C150.903 674.136 151.253 673.999 151.661 673.999C152.072 673.999 152.423 674.136 152.712 674.411C153.005 674.681 153.152 675.01 153.152 675.398C153.152 675.781 153.005 676.11 152.712 676.385C152.423 676.655 152.072 676.79 151.661 676.79ZM158.154 682.855V689.247H155.583V678.338H158.04V680.192H158.168C158.419 679.581 158.819 679.096 159.368 678.736C159.922 678.376 160.606 678.196 161.421 678.196C162.174 678.196 162.829 678.357 163.388 678.679C163.952 679.001 164.387 679.467 164.695 680.078C165.007 680.689 165.161 681.43 165.157 682.301V689.247H162.586V682.699C162.586 681.97 162.396 681.399 162.017 680.987C161.643 680.575 161.125 680.369 160.462 680.369C160.012 680.369 159.612 680.469 159.262 680.668C158.916 680.862 158.644 681.144 158.445 681.513C158.251 681.882 158.154 682.33 158.154 682.855ZM172.515 693.565C171.591 693.565 170.798 693.44 170.135 693.189C169.472 692.943 168.94 692.611 168.537 692.195C168.135 691.778 167.855 691.316 167.699 690.81L170.015 690.249C170.119 690.462 170.27 690.673 170.469 690.881C170.668 691.094 170.935 691.269 171.272 691.406C171.613 691.548 172.041 691.619 172.557 691.619C173.286 691.619 173.89 691.442 174.368 691.087C174.846 690.736 175.086 690.159 175.086 689.354V687.287H174.958C174.825 687.552 174.631 687.824 174.375 688.104C174.124 688.383 173.791 688.618 173.374 688.807C172.962 688.996 172.444 689.091 171.819 689.091C170.98 689.091 170.221 688.895 169.539 688.502C168.862 688.104 168.322 687.512 167.919 686.726C167.522 685.935 167.323 684.946 167.323 683.757C167.323 682.559 167.522 681.548 167.919 680.725C168.322 679.896 168.864 679.269 169.546 678.842C170.228 678.412 170.988 678.196 171.826 678.196C172.465 678.196 172.99 678.305 173.402 678.523C173.819 678.736 174.15 678.994 174.397 679.297C174.643 679.595 174.83 679.877 174.958 680.142H175.1V678.338H177.635V689.425C177.635 690.358 177.413 691.129 176.968 691.74C176.523 692.351 175.914 692.808 175.142 693.111C174.371 693.414 173.495 693.565 172.515 693.565ZM172.536 687.074C173.08 687.074 173.544 686.941 173.928 686.676C174.311 686.411 174.603 686.03 174.801 685.533C175 685.036 175.1 684.439 175.1 683.743C175.1 683.056 175 682.455 174.801 681.939C174.607 681.423 174.319 681.023 173.935 680.739C173.556 680.45 173.09 680.306 172.536 680.306C171.963 680.306 171.485 680.455 171.101 680.753C170.718 681.051 170.429 681.461 170.235 681.982C170.041 682.498 169.944 683.085 169.944 683.743C169.944 684.411 170.041 684.995 170.235 685.497C170.434 685.994 170.725 686.383 171.108 686.662C171.497 686.937 171.972 687.074 172.536 687.074ZM187.98 674.702V689.247H185.345V674.702H187.98ZM193.29 682.855V689.247H190.719V678.338H193.177V680.192H193.305C193.556 679.581 193.956 679.096 194.505 678.736C195.059 678.376 195.743 678.196 196.558 678.196C197.31 678.196 197.966 678.357 198.525 678.679C199.088 679.001 199.524 679.467 199.832 680.078C200.144 680.689 200.298 681.43 200.293 682.301V689.247H197.722V682.699C197.722 681.97 197.533 681.399 197.154 680.987C196.78 680.575 196.262 680.369 195.599 680.369C195.149 680.369 194.749 680.469 194.398 680.668C194.053 680.862 193.781 681.144 193.582 681.513C193.388 681.882 193.29 682.33 193.29 682.855ZM208.354 678.338V680.327H202.083V678.338H208.354ZM203.631 675.725H206.202V685.966C206.202 686.312 206.254 686.577 206.359 686.762C206.468 686.941 206.61 687.065 206.785 687.131C206.96 687.197 207.154 687.23 207.367 687.23C207.528 687.23 207.675 687.218 207.808 687.195C207.945 687.171 208.049 687.15 208.12 687.131L208.553 689.141C208.416 689.188 208.219 689.24 207.964 689.297C207.713 689.354 207.405 689.387 207.04 689.396C206.397 689.415 205.817 689.318 205.3 689.105C204.784 688.887 204.375 688.551 204.072 688.097C203.773 687.642 203.627 687.074 203.631 686.392V675.725ZM215.217 689.46C214.123 689.46 213.179 689.233 212.383 688.779C211.592 688.319 210.984 687.671 210.558 686.833C210.132 685.99 209.919 684.998 209.919 683.857C209.919 682.735 210.132 681.75 210.558 680.902C210.989 680.05 211.59 679.387 212.362 678.914C213.134 678.435 214.04 678.196 215.082 678.196C215.754 678.196 216.389 678.305 216.985 678.523C217.587 678.736 218.117 679.067 218.576 679.517C219.04 679.967 219.405 680.54 219.67 681.236C219.935 681.927 220.068 682.751 220.068 683.708V684.496H211.126V682.763H217.603C217.599 682.271 217.492 681.833 217.284 681.449C217.075 681.061 216.784 680.755 216.41 680.533C216.041 680.31 215.61 680.199 215.118 680.199C214.592 680.199 214.13 680.327 213.733 680.583C213.335 680.833 213.025 681.165 212.802 681.577C212.584 681.984 212.473 682.431 212.468 682.919V684.432C212.468 685.066 212.584 685.611 212.816 686.065C213.048 686.515 213.373 686.861 213.789 687.102C214.206 687.339 214.694 687.458 215.252 687.458C215.627 687.458 215.965 687.405 216.268 687.301C216.571 687.192 216.834 687.034 217.056 686.825C217.279 686.617 217.447 686.359 217.561 686.051L219.961 686.321C219.81 686.956 219.521 687.51 219.095 687.983C218.673 688.452 218.134 688.816 217.475 689.077C216.817 689.333 216.065 689.46 215.217 689.46ZM222.243 689.247V678.338H224.736V680.156H224.849C225.048 679.527 225.389 679.041 225.872 678.7C226.36 678.355 226.916 678.182 227.541 678.182C227.683 678.182 227.842 678.189 228.017 678.203C228.197 678.213 228.346 678.229 228.464 678.253V680.618C228.356 680.58 228.183 680.547 227.946 680.519C227.714 680.485 227.489 680.469 227.271 680.469C226.803 680.469 226.381 680.571 226.007 680.774C225.638 680.973 225.347 681.25 225.134 681.605C224.92 681.96 224.814 682.37 224.814 682.834V689.247H222.243ZM240.249 678.338L236.364 689.247H233.523L229.638 678.338H232.38L234.887 686.442H235L237.515 678.338H240.249ZM242.028 689.247V678.338H244.599V689.247H242.028ZM243.321 676.79C242.913 676.79 242.563 676.655 242.27 676.385C241.976 676.11 241.829 675.781 241.829 675.398C241.829 675.01 241.976 674.681 242.27 674.411C242.563 674.136 242.913 673.999 243.321 673.999C243.733 673.999 244.083 674.136 244.372 674.411C244.665 674.681 244.812 675.01 244.812 675.398C244.812 675.781 244.665 676.11 244.372 676.385C244.083 676.655 243.733 676.79 243.321 676.79ZM252.072 689.46C250.979 689.46 250.034 689.233 249.239 688.779C248.448 688.319 247.839 687.671 247.413 686.833C246.987 685.99 246.774 684.998 246.774 683.857C246.774 682.735 246.987 681.75 247.413 680.902C247.844 680.05 248.446 679.387 249.217 678.914C249.989 678.435 250.896 678.196 251.938 678.196C252.61 678.196 253.244 678.305 253.841 678.523C254.442 678.736 254.973 679.067 255.432 679.517C255.896 679.967 256.26 680.54 256.526 681.236C256.791 681.927 256.923 682.751 256.923 683.708V684.496H247.982V682.763H254.459C254.454 682.271 254.348 681.833 254.139 681.449C253.931 681.061 253.64 680.755 253.266 680.533C252.896 680.31 252.465 680.199 251.973 680.199C251.447 680.199 250.986 680.327 250.588 680.583C250.19 680.833 249.88 681.165 249.658 681.577C249.44 681.984 249.329 682.431 249.324 682.919V684.432C249.324 685.066 249.44 685.611 249.672 686.065C249.904 686.515 250.228 686.861 250.645 687.102C251.062 687.339 251.549 687.458 252.108 687.458C252.482 687.458 252.821 687.405 253.124 687.301C253.427 687.192 253.689 687.034 253.912 686.825C254.134 686.617 254.303 686.359 254.416 686.051L256.817 686.321C256.665 686.956 256.376 687.51 255.95 687.983C255.529 688.452 254.989 688.816 254.331 689.077C253.673 689.333 252.92 689.46 252.072 689.46ZM261.291 689.247L258.209 678.338H260.83L262.747 686.009H262.847L264.807 678.338H267.399L269.359 685.966H269.466L271.355 678.338H273.983L270.893 689.247H268.216L266.17 681.875H266.021L263.976 689.247H261.291Z" fill="#212427"/>
<g opacity="0.7" filter="url(#filter1_d_32_2030)">
<rect x="114" y="550.247" width="97.1082" height="96.7472" rx="15" fill="#F8F1F1"/>
</g>
<path d="M181.246 602.113C174.69 600.504 171.429 594.614 172.134 588.926C172.851 583.142 177.522 578.859 183.099 578.783C188.754 578.706 193.465 582.838 194.337 588.781C195.151 594.328 191.974 600.491 185.138 602.052C186.215 602.21 187.236 602.288 188.224 602.517C195.385 604.174 200.326 610.434 200.494 618.134C200.574 621.756 200.542 625.382 200.504 629.005C200.469 632.249 198.284 634.491 195.162 634.499C187.214 634.519 179.264 634.519 171.316 634.499C168.334 634.491 166.086 632.38 166.025 629.319C165.942 625.109 165.884 620.884 166.128 616.685C166.561 609.246 172.833 602.828 179.967 602.239C180.394 602.203 180.82 602.154 181.246 602.113Z" fill="#00A0DC"/>
<path d="M166.888 605.757C164.873 608.4 163.549 611.142 162.982 614.228C162.735 615.572 162.591 616.954 162.567 618.322C162.508 621.58 162.548 624.841 162.548 628.102C162.548 628.405 162.548 628.707 162.548 629.111C162.19 629.111 161.903 629.111 161.615 629.111C152.531 629.111 143.448 629.073 134.364 629.139C132.194 629.154 131.182 627.658 131.587 625.595C132.221 622.376 134.698 620.159 137.868 620.137C140.883 620.115 143.898 620.132 146.967 620.132C146.967 618.944 146.967 617.809 146.967 616.548C146.657 616.548 146.346 616.548 146.036 616.548C141.858 616.548 137.68 616.567 133.502 616.543C129.118 616.518 125.693 613.701 124.794 609.386C124.64 608.651 124.589 607.88 124.589 607.126C124.577 595.407 124.574 583.689 124.585 571.97C124.589 567.187 127.396 563.572 131.744 562.728C132.374 562.606 133.031 562.594 133.675 562.594C148.904 562.587 164.134 562.584 179.362 562.592C184.788 562.594 188.418 566.408 188.424 572.074C188.425 573.393 188.424 574.712 188.424 575.991C186.712 575.66 185.033 575.336 183.248 574.992C183.248 574.017 183.253 572.928 183.246 571.84C183.234 569.473 181.84 567.99 179.567 567.989C164.203 567.981 148.839 567.981 133.475 567.989C131.167 567.99 129.762 569.468 129.759 571.895C129.751 581.872 129.751 591.849 129.759 601.824C129.762 604.29 131.218 605.753 133.645 605.753C144.346 605.757 155.046 605.756 165.747 605.756C166.063 605.757 166.377 605.757 166.888 605.757ZM153.942 611.113C153.937 612.609 155.047 613.805 156.465 613.834C157.893 613.863 159.109 612.61 159.097 611.12C159.086 609.647 157.937 608.467 156.511 608.46C155.074 608.455 153.946 609.619 153.942 611.113Z" fill="#00A0DC"/>
<path d="M154.911 587.626C149.918 586.318 148.344 581.868 148.84 578.428C149.414 574.44 152.765 571.518 156.653 571.574C160.383 571.627 163.685 574.623 164.167 578.389C164.74 582.881 162.414 586.303 157.845 587.692C165.779 587.1 170.575 593.804 169.354 602.087C160.806 602.087 152.252 602.087 143.702 602.087C142.96 595.928 144.61 590.397 151.031 588.226C152.324 587.79 153.755 587.793 154.911 587.626Z" fill="#00A0DC"/>
<g opacity="0.7" filter="url(#filter2_d_32_2030)">
<rect x="3" y="106.747" width="320" height="52" rx="9" fill="#F1F8F1"/>
</g>
<path d="M48.3026 140H45.4901L50.6108 125.455H53.8636L58.9915 140H56.179L52.294 128.438H52.1804L48.3026 140ZM48.3949 134.297H56.0653V136.413H48.3949V134.297ZM63.5423 125.455V140H60.9073V125.455H63.5423ZM72.8942 131.669V133.786H66.3459V131.669H72.8942ZM75.712 125.455H78.9364L83.2546 135.994H83.4251L87.7433 125.455H90.9677V140H88.4393V130.007H88.3043L84.2844 139.957H82.3952L78.3754 129.986H78.2404V140H75.712V125.455ZM96.8626 140.22C96.1713 140.22 95.5487 140.097 94.9947 139.851C94.4454 139.6 94.0098 139.231 93.6879 138.743C93.3706 138.255 93.212 137.654 93.212 136.939C93.212 136.323 93.3256 135.814 93.5529 135.412C93.7802 135.009 94.0903 134.688 94.4833 134.446C94.8763 134.205 95.319 134.022 95.8114 133.899C96.3086 133.771 96.8223 133.679 97.3526 133.622C97.9918 133.556 98.5103 133.497 98.908 133.445C99.3058 133.388 99.5946 133.303 99.7745 133.189C99.9592 133.071 100.051 132.888 100.051 132.642V132.599C100.051 132.064 99.8929 131.65 99.5756 131.357C99.2584 131.063 98.8015 130.916 98.2049 130.916C97.5752 130.916 97.0756 131.054 96.7063 131.328C96.3417 131.603 96.0955 131.927 95.9677 132.301L93.5671 131.96C93.7565 131.297 94.069 130.743 94.5046 130.298C94.9402 129.848 95.4729 129.512 96.1026 129.29C96.7324 129.062 97.4284 128.949 98.1907 128.949C98.7163 128.949 99.2395 129.01 99.7603 129.134C100.281 129.257 100.757 129.46 101.188 129.744C101.619 130.024 101.964 130.405 102.225 130.888C102.49 131.371 102.623 131.974 102.623 132.699V140H100.151V138.501H100.066C99.9094 138.804 99.6893 139.089 99.4052 139.354C99.1258 139.614 98.7731 139.825 98.3469 139.986C97.9255 140.142 97.4308 140.22 96.8626 140.22ZM97.5302 138.331C98.0463 138.331 98.4937 138.229 98.8725 138.026C99.2513 137.817 99.5425 137.543 99.7461 137.202C99.9544 136.861 100.059 136.489 100.059 136.087V134.801C99.9781 134.867 99.8408 134.929 99.6467 134.986C99.4573 135.043 99.2442 135.092 99.0075 135.135C98.7707 135.178 98.5363 135.215 98.3043 135.249C98.0723 135.282 97.8711 135.31 97.7006 135.334C97.3171 135.386 96.9738 135.471 96.6708 135.589C96.3678 135.708 96.1287 135.874 95.9535 136.087C95.7783 136.295 95.6907 136.565 95.6907 136.896C95.6907 137.37 95.8635 137.727 96.2092 137.969C96.5548 138.21 96.9951 138.331 97.5302 138.331ZM110.655 129.091V131.08H104.384V129.091H110.655ZM105.932 126.477H108.503V136.719C108.503 137.064 108.555 137.33 108.659 137.514C108.768 137.694 108.91 137.817 109.086 137.884C109.261 137.95 109.455 137.983 109.668 137.983C109.829 137.983 109.976 137.971 110.108 137.947C110.246 137.924 110.35 137.902 110.421 137.884L110.854 139.893C110.717 139.941 110.52 139.993 110.265 140.05C110.014 140.107 109.706 140.14 109.341 140.149C108.697 140.168 108.117 140.071 107.601 139.858C107.085 139.64 106.676 139.304 106.373 138.849C106.074 138.395 105.927 137.827 105.932 137.145V126.477ZM117.447 140.213C116.358 140.213 115.423 139.974 114.641 139.496C113.865 139.018 113.266 138.357 112.844 137.514C112.428 136.667 112.219 135.691 112.219 134.588C112.219 133.48 112.433 132.502 112.859 131.655C113.285 130.803 113.886 130.14 114.663 129.666C115.444 129.188 116.367 128.949 117.433 128.949C118.318 128.949 119.102 129.112 119.783 129.439C120.47 129.761 121.017 130.218 121.424 130.81C121.831 131.397 122.063 132.083 122.12 132.869H119.663C119.563 132.344 119.326 131.906 118.952 131.555C118.583 131.2 118.088 131.023 117.468 131.023C116.942 131.023 116.481 131.165 116.083 131.449C115.685 131.728 115.375 132.131 115.153 132.656C114.935 133.182 114.826 133.812 114.826 134.545C114.826 135.289 114.935 135.928 115.153 136.463C115.371 136.993 115.676 137.403 116.069 137.692C116.467 137.976 116.933 138.118 117.468 138.118C117.847 138.118 118.185 138.047 118.484 137.905C118.787 137.758 119.04 137.547 119.244 137.273C119.447 136.998 119.587 136.664 119.663 136.271H122.12C122.058 137.043 121.831 137.727 121.438 138.324C121.045 138.916 120.51 139.38 119.833 139.716C119.156 140.047 118.361 140.213 117.447 140.213ZM126.802 133.608V140H124.231V125.455H126.745V130.945H126.873C127.129 130.329 127.524 129.844 128.059 129.489C128.599 129.129 129.286 128.949 130.119 128.949C130.877 128.949 131.537 129.107 132.1 129.425C132.664 129.742 133.1 130.206 133.407 130.817C133.72 131.428 133.876 132.173 133.876 133.054V140H131.305V133.452C131.305 132.718 131.116 132.147 130.737 131.74C130.363 131.328 129.837 131.122 129.16 131.122C128.706 131.122 128.298 131.222 127.939 131.42C127.583 131.615 127.304 131.896 127.1 132.266C126.902 132.635 126.802 133.082 126.802 133.608ZM136.497 140V129.091H139.068V140H136.497ZM137.789 127.543C137.382 127.543 137.032 127.408 136.738 127.138C136.445 126.863 136.298 126.534 136.298 126.151C136.298 125.762 136.445 125.433 136.738 125.163C137.032 124.889 137.382 124.751 137.789 124.751C138.201 124.751 138.552 124.889 138.841 125.163C139.134 125.433 139.281 125.762 139.281 126.151C139.281 126.534 139.134 126.863 138.841 127.138C138.552 127.408 138.201 127.543 137.789 127.543ZM144.283 133.608V140H141.712V129.091H144.169V130.945H144.297C144.548 130.334 144.948 129.848 145.497 129.489C146.051 129.129 146.735 128.949 147.55 128.949C148.303 128.949 148.958 129.11 149.517 129.432C150.08 129.754 150.516 130.22 150.824 130.831C151.136 131.442 151.29 132.183 151.286 133.054V140H148.714V133.452C148.714 132.723 148.525 132.152 148.146 131.74C147.772 131.328 147.254 131.122 146.591 131.122C146.141 131.122 145.741 131.222 145.391 131.42C145.045 131.615 144.773 131.896 144.574 132.266C144.38 132.635 144.283 133.082 144.283 133.608ZM158.643 144.318C157.72 144.318 156.927 144.193 156.264 143.942C155.601 143.696 155.069 143.364 154.666 142.947C154.264 142.531 153.984 142.069 153.828 141.562L156.143 141.001C156.248 141.214 156.399 141.425 156.598 141.634C156.797 141.847 157.064 142.022 157.401 142.159C157.741 142.301 158.17 142.372 158.686 142.372C159.415 142.372 160.019 142.195 160.497 141.839C160.975 141.489 161.214 140.911 161.214 140.107V138.04H161.087C160.954 138.305 160.76 138.577 160.504 138.857C160.253 139.136 159.92 139.37 159.503 139.56C159.091 139.749 158.572 139.844 157.947 139.844C157.109 139.844 156.349 139.647 155.668 139.254C154.991 138.857 154.451 138.265 154.048 137.479C153.651 136.688 153.452 135.698 153.452 134.51C153.452 133.312 153.651 132.301 154.048 131.477C154.451 130.649 154.993 130.021 155.675 129.595C156.357 129.164 157.116 128.949 157.955 128.949C158.594 128.949 159.119 129.058 159.531 129.276C159.948 129.489 160.279 129.747 160.526 130.05C160.772 130.348 160.959 130.63 161.087 130.895H161.229V129.091H163.764V140.178C163.764 141.11 163.542 141.882 163.097 142.493C162.652 143.104 162.043 143.561 161.271 143.864C160.5 144.167 159.624 144.318 158.643 144.318ZM158.665 137.827C159.209 137.827 159.673 137.694 160.057 137.429C160.44 137.164 160.732 136.783 160.93 136.286C161.129 135.788 161.229 135.192 161.229 134.496C161.229 133.809 161.129 133.208 160.93 132.692C160.736 132.176 160.447 131.776 160.064 131.491C159.685 131.203 159.219 131.058 158.665 131.058C158.092 131.058 157.614 131.207 157.23 131.506C156.847 131.804 156.558 132.214 156.364 132.734C156.17 133.25 156.072 133.838 156.072 134.496C156.072 135.163 156.17 135.748 156.364 136.25C156.563 136.747 156.854 137.135 157.237 137.415C157.625 137.689 158.101 137.827 158.665 137.827ZM183.924 130.362H181.268C181.192 129.927 181.052 129.541 180.849 129.205C180.645 128.864 180.392 128.575 180.089 128.338C179.786 128.101 179.44 127.924 179.052 127.805C178.668 127.682 178.254 127.621 177.809 127.621C177.018 127.621 176.317 127.82 175.707 128.217C175.096 128.61 174.618 129.188 174.272 129.95C173.926 130.708 173.754 131.634 173.754 132.727C173.754 133.84 173.926 134.777 174.272 135.54C174.622 136.297 175.101 136.87 175.707 137.259C176.317 137.642 177.016 137.834 177.802 137.834C178.237 137.834 178.645 137.777 179.023 137.663C179.407 137.545 179.75 137.372 180.053 137.145C180.361 136.918 180.619 136.638 180.827 136.307C181.04 135.975 181.187 135.597 181.268 135.17L183.924 135.185C183.825 135.876 183.609 136.525 183.278 137.131C182.951 137.737 182.522 138.272 181.992 138.736C181.462 139.195 180.842 139.555 180.131 139.815C179.421 140.071 178.633 140.199 177.766 140.199C176.488 140.199 175.347 139.903 174.343 139.311C173.339 138.719 172.549 137.865 171.971 136.747C171.393 135.63 171.104 134.29 171.104 132.727C171.104 131.16 171.396 129.82 171.978 128.707C172.56 127.59 173.353 126.735 174.357 126.143C175.361 125.552 176.497 125.256 177.766 125.256C178.576 125.256 179.329 125.369 180.025 125.597C180.721 125.824 181.341 126.158 181.886 126.598C182.43 127.034 182.878 127.569 183.228 128.203C183.583 128.833 183.815 129.553 183.924 130.362ZM189.363 140.22C188.671 140.22 188.049 140.097 187.495 139.851C186.945 139.6 186.51 139.231 186.188 138.743C185.871 138.255 185.712 137.654 185.712 136.939C185.712 136.323 185.826 135.814 186.053 135.412C186.28 135.009 186.59 134.688 186.983 134.446C187.376 134.205 187.819 134.022 188.311 133.899C188.809 133.771 189.322 133.679 189.853 133.622C190.492 133.556 191.01 133.497 191.408 133.445C191.806 133.388 192.095 133.303 192.275 133.189C192.459 133.071 192.551 132.888 192.551 132.642V132.599C192.551 132.064 192.393 131.65 192.076 131.357C191.758 131.063 191.301 130.916 190.705 130.916C190.075 130.916 189.576 131.054 189.206 131.328C188.842 131.603 188.596 131.927 188.468 132.301L186.067 131.96C186.257 131.297 186.569 130.743 187.005 130.298C187.44 129.848 187.973 129.512 188.603 129.29C189.232 129.062 189.928 128.949 190.691 128.949C191.216 128.949 191.739 129.01 192.26 129.134C192.781 129.257 193.257 129.46 193.688 129.744C194.119 130.024 194.464 130.405 194.725 130.888C194.99 131.371 195.123 131.974 195.123 132.699V140H192.651V138.501H192.566C192.409 138.804 192.189 139.089 191.905 139.354C191.626 139.614 191.273 139.825 190.847 139.986C190.426 140.142 189.931 140.22 189.363 140.22ZM190.03 138.331C190.546 138.331 190.994 138.229 191.373 138.026C191.751 137.817 192.042 137.543 192.246 137.202C192.454 136.861 192.559 136.489 192.559 136.087V134.801C192.478 134.867 192.341 134.929 192.147 134.986C191.957 135.043 191.744 135.092 191.507 135.135C191.271 135.178 191.036 135.215 190.804 135.249C190.572 135.282 190.371 135.31 190.201 135.334C189.817 135.386 189.474 135.471 189.171 135.589C188.868 135.708 188.629 135.874 188.453 136.087C188.278 136.295 188.191 136.565 188.191 136.896C188.191 137.37 188.364 137.727 188.709 137.969C189.055 138.21 189.495 138.331 190.03 138.331ZM200.279 133.608V140H197.708V129.091H200.165V130.945H200.293C200.544 130.334 200.944 129.848 201.493 129.489C202.047 129.129 202.731 128.949 203.546 128.949C204.299 128.949 204.954 129.11 205.513 129.432C206.077 129.754 206.512 130.22 206.82 130.831C207.132 131.442 207.286 132.183 207.282 133.054V140H204.711V133.452C204.711 132.723 204.521 132.152 204.142 131.74C203.768 131.328 203.25 131.122 202.587 131.122C202.137 131.122 201.737 131.222 201.387 131.42C201.041 131.615 200.769 131.896 200.57 132.266C200.376 132.635 200.279 133.082 200.279 133.608ZM213.944 140.192C213.087 140.192 212.319 139.972 211.642 139.531C210.965 139.091 210.43 138.452 210.037 137.614C209.644 136.776 209.448 135.758 209.448 134.56C209.448 133.348 209.647 132.325 210.044 131.491C210.447 130.653 210.989 130.021 211.671 129.595C212.353 129.164 213.113 128.949 213.951 128.949C214.59 128.949 215.115 129.058 215.527 129.276C215.939 129.489 216.266 129.747 216.507 130.05C216.749 130.348 216.936 130.63 217.069 130.895H217.175V125.455H219.753V140H217.225V138.281H217.069C216.936 138.546 216.744 138.828 216.493 139.126C216.242 139.42 215.911 139.671 215.499 139.879C215.087 140.088 214.569 140.192 213.944 140.192ZM214.661 138.082C215.205 138.082 215.669 137.936 216.053 137.642C216.436 137.344 216.728 136.929 216.926 136.399C217.125 135.869 217.225 135.251 217.225 134.545C217.225 133.84 217.125 133.227 216.926 132.706C216.732 132.185 216.444 131.78 216.06 131.491C215.681 131.203 215.215 131.058 214.661 131.058C214.088 131.058 213.61 131.207 213.226 131.506C212.843 131.804 212.554 132.216 212.36 132.741C212.166 133.267 212.069 133.868 212.069 134.545C212.069 135.227 212.166 135.836 212.36 136.371C212.559 136.901 212.85 137.32 213.233 137.628C213.622 137.931 214.097 138.082 214.661 138.082ZM222.493 140V129.091H225.064V140H222.493ZM223.786 127.543C223.378 127.543 223.028 127.408 222.734 127.138C222.441 126.863 222.294 126.534 222.294 126.151C222.294 125.762 222.441 125.433 222.734 125.163C223.028 124.889 223.378 124.751 223.786 124.751C224.197 124.751 224.548 124.889 224.837 125.163C225.13 125.433 225.277 125.762 225.277 126.151C225.277 126.534 225.13 126.863 224.837 127.138C224.548 127.408 224.197 127.543 223.786 127.543ZM231.756 140.192C230.899 140.192 230.132 139.972 229.455 139.531C228.778 139.091 228.243 138.452 227.85 137.614C227.457 136.776 227.26 135.758 227.26 134.56C227.26 133.348 227.459 132.325 227.857 131.491C228.259 130.653 228.801 130.021 229.483 129.595C230.165 129.164 230.925 128.949 231.763 128.949C232.402 128.949 232.928 129.058 233.34 129.276C233.752 129.489 234.078 129.747 234.32 130.05C234.561 130.348 234.748 130.63 234.881 130.895H234.988V125.455H237.566V140H235.037V138.281H234.881C234.748 138.546 234.557 138.828 234.306 139.126C234.055 139.42 233.723 139.671 233.311 139.879C232.9 140.088 232.381 140.192 231.756 140.192ZM232.473 138.082C233.018 138.082 233.482 137.936 233.865 137.642C234.249 137.344 234.54 136.929 234.739 136.399C234.938 135.869 235.037 135.251 235.037 134.545C235.037 133.84 234.938 133.227 234.739 132.706C234.545 132.185 234.256 131.78 233.873 131.491C233.494 131.203 233.027 131.058 232.473 131.058C231.9 131.058 231.422 131.207 231.039 131.506C230.655 131.804 230.366 132.216 230.172 132.741C229.978 133.267 229.881 133.868 229.881 134.545C229.881 135.227 229.978 135.836 230.172 136.371C230.371 136.901 230.662 137.32 231.046 137.628C231.434 137.931 231.91 138.082 232.473 138.082ZM243.445 140.22C242.753 140.22 242.131 140.097 241.577 139.851C241.027 139.6 240.592 139.231 240.27 138.743C239.953 138.255 239.794 137.654 239.794 136.939C239.794 136.323 239.908 135.814 240.135 135.412C240.362 135.009 240.672 134.688 241.065 134.446C241.458 134.205 241.901 134.022 242.393 133.899C242.891 133.771 243.404 133.679 243.935 133.622C244.574 133.556 245.092 133.497 245.49 133.445C245.888 133.388 246.177 133.303 246.357 133.189C246.541 133.071 246.634 132.888 246.634 132.642V132.599C246.634 132.064 246.475 131.65 246.158 131.357C245.84 131.063 245.384 130.916 244.787 130.916C244.157 130.916 243.658 131.054 243.288 131.328C242.924 131.603 242.678 131.927 242.55 132.301L240.149 131.96C240.339 131.297 240.651 130.743 241.087 130.298C241.522 129.848 242.055 129.512 242.685 129.29C243.314 129.062 244.01 128.949 244.773 128.949C245.298 128.949 245.821 129.01 246.342 129.134C246.863 129.257 247.339 129.46 247.77 129.744C248.201 130.024 248.546 130.405 248.807 130.888C249.072 131.371 249.205 131.974 249.205 132.699V140H246.733V138.501H246.648C246.491 138.804 246.271 139.089 245.987 139.354C245.708 139.614 245.355 139.825 244.929 139.986C244.508 140.142 244.013 140.22 243.445 140.22ZM244.112 138.331C244.628 138.331 245.076 138.229 245.455 138.026C245.833 137.817 246.125 137.543 246.328 137.202C246.536 136.861 246.641 136.489 246.641 136.087V134.801C246.56 134.867 246.423 134.929 246.229 134.986C246.039 135.043 245.826 135.092 245.589 135.135C245.353 135.178 245.118 135.215 244.886 135.249C244.654 135.282 244.453 135.31 244.283 135.334C243.899 135.386 243.556 135.471 243.253 135.589C242.95 135.708 242.711 135.874 242.536 136.087C242.36 136.295 242.273 136.565 242.273 136.896C242.273 137.37 242.446 137.727 242.791 137.969C243.137 138.21 243.577 138.331 244.112 138.331ZM257.237 129.091V131.08H250.966V129.091H257.237ZM252.514 126.477H255.085V136.719C255.085 137.064 255.137 137.33 255.241 137.514C255.35 137.694 255.492 137.817 255.668 137.884C255.843 137.95 256.037 137.983 256.25 137.983C256.411 137.983 256.558 137.971 256.69 137.947C256.828 137.924 256.932 137.902 257.003 137.884L257.436 139.893C257.299 139.941 257.102 139.993 256.847 140.05C256.596 140.107 256.288 140.14 255.923 140.149C255.279 140.168 254.699 140.071 254.183 139.858C253.667 139.64 253.258 139.304 252.955 138.849C252.656 138.395 252.509 137.827 252.514 137.145V126.477ZM264.1 140.213C263.006 140.213 262.061 139.986 261.266 139.531C260.475 139.072 259.867 138.423 259.441 137.585C259.015 136.742 258.801 135.75 258.801 134.609C258.801 133.487 259.015 132.502 259.441 131.655C259.872 130.803 260.473 130.14 261.245 129.666C262.016 129.188 262.923 128.949 263.965 128.949C264.637 128.949 265.272 129.058 265.868 129.276C266.47 129.489 267 129.82 267.459 130.27C267.923 130.72 268.288 131.293 268.553 131.989C268.818 132.68 268.951 133.504 268.951 134.46V135.249H260.009V133.516H266.486C266.481 133.023 266.375 132.585 266.167 132.202C265.958 131.813 265.667 131.508 265.293 131.286C264.924 131.063 264.493 130.952 264 130.952C263.475 130.952 263.013 131.08 262.615 131.335C262.218 131.586 261.908 131.918 261.685 132.33C261.467 132.737 261.356 133.184 261.351 133.672V135.185C261.351 135.819 261.467 136.364 261.699 136.818C261.931 137.268 262.256 137.614 262.672 137.855C263.089 138.092 263.577 138.21 264.135 138.21C264.509 138.21 264.848 138.158 265.151 138.054C265.454 137.945 265.717 137.786 265.939 137.578C266.162 137.37 266.33 137.112 266.444 136.804L268.844 137.074C268.693 137.708 268.404 138.262 267.978 138.736C267.556 139.205 267.016 139.569 266.358 139.83C265.7 140.085 264.947 140.213 264.1 140.213ZM279.748 131.974L277.404 132.23C277.338 131.993 277.222 131.771 277.056 131.562C276.895 131.354 276.677 131.186 276.403 131.058C276.128 130.93 275.792 130.866 275.394 130.866C274.859 130.866 274.409 130.982 274.045 131.214C273.685 131.446 273.507 131.747 273.512 132.116C273.507 132.434 273.623 132.692 273.86 132.891C274.102 133.089 274.499 133.253 275.053 133.381L276.914 133.778C277.946 134.001 278.713 134.354 279.215 134.837C279.722 135.32 279.978 135.952 279.982 136.733C279.978 137.42 279.776 138.026 279.379 138.551C278.986 139.072 278.439 139.479 277.738 139.773C277.037 140.066 276.232 140.213 275.323 140.213C273.988 140.213 272.913 139.934 272.099 139.375C271.284 138.812 270.799 138.028 270.643 137.024L273.15 136.783C273.263 137.275 273.505 137.647 273.874 137.898C274.244 138.149 274.724 138.274 275.316 138.274C275.927 138.274 276.417 138.149 276.786 137.898C277.16 137.647 277.347 137.337 277.347 136.967C277.347 136.655 277.227 136.397 276.985 136.193C276.748 135.99 276.379 135.833 275.877 135.724L274.016 135.334C272.97 135.116 272.196 134.749 271.694 134.233C271.192 133.712 270.943 133.054 270.948 132.259C270.943 131.586 271.126 131.004 271.495 130.511C271.869 130.014 272.388 129.631 273.05 129.361C273.718 129.086 274.487 128.949 275.359 128.949C276.637 128.949 277.643 129.221 278.377 129.766C279.116 130.31 279.573 131.046 279.748 131.974Z" fill="#212427"/>
<g opacity="0.7" filter="url(#filter3_d_32_2030)">
<rect x="115" width="96.75" height="96.75" rx="15" fill="#F1F8F1"/>
</g>
<path d="M199.231 63.0672C198.816 63.9896 198.084 64.2921 197.107 64.2876C192.403 64.2651 187.698 64.2771 182.994 64.2786C182.642 64.2786 182.352 64.3086 182.205 63.8294C181.137 60.3554 179.171 57.4819 176.361 55.1894C176.308 55.146 176.267 55.0891 176.221 55.0382C182.758 47.0661 180.017 34.9791 171.068 30.3731C172.051 27.0489 175.96 22.4654 182.193 22.0311C187.787 21.6418 192.968 24.9376 195.074 30.1515C197.192 35.3969 195.714 42.0378 190.266 45.8292C191.031 46.262 191.822 46.6453 192.546 47.1274C196.314 49.6341 198.508 53.144 199.11 57.6496C199.128 57.7814 199.191 57.9087 199.231 58.0375C199.231 59.716 199.231 61.3916 199.231 63.0672Z" fill="#2BD771"/>
<path d="M156.443 55.6146C149.401 50.6717 148.999 41.292 154.234 35.7846C159.342 30.4134 167.887 30.3985 172.996 35.7816C178.419 41.4942 177.632 50.8828 170.814 55.6041C171.201 55.8003 171.563 55.9695 171.911 56.1641C176.82 58.9014 179.481 63.0656 179.769 68.7138C179.826 69.8279 179.796 70.9479 179.791 72.065C179.785 73.4516 179.232 74.0056 177.839 74.0071C171.927 74.0116 166.015 74.0086 160.105 74.0086C156.58 74.0086 153.056 74.0101 149.533 74.0071C147.96 74.0056 147.439 73.492 147.445 71.9197C147.454 69.759 147.317 67.5893 147.908 65.469C149.119 61.1205 151.742 57.952 155.764 55.944C155.97 55.8407 156.178 55.7434 156.443 55.6146Z" fill="#2BD771"/>
<path d="M137.026 45.856C131.636 42.0886 130.088 35.6602 132.079 30.4014C134.058 25.177 139.138 21.8093 144.733 22.022C149.82 22.2151 154.879 25.8927 156.187 30.3475C147.205 34.8487 144.54 46.9611 150.818 54.7625C150.127 55.5846 149.474 56.3977 148.783 57.1763C147.111 59.0615 145.862 61.1878 145.111 63.5971C144.959 64.0868 144.767 64.2949 144.212 64.2919C139.507 64.2665 134.801 64.2799 130.097 64.2755C128.57 64.274 128.008 63.7005 128.009 62.1626C128.012 60.0243 127.888 57.8771 128.466 55.7807C129.683 51.3544 132.346 48.135 136.467 46.1345C136.631 46.0552 136.794 45.9713 137.026 45.856Z" fill="#2BD771"/>
<path d="M199.231 63.0672C198.816 63.9896 198.084 64.2921 197.107 64.2876C192.403 64.2651 187.698 64.2771 182.994 64.2786C182.642 64.2786 182.352 64.3086 182.205 63.8294C181.137 60.3554 179.171 57.4819 176.361 55.1894C176.308 55.146 176.267 55.0891 176.221 55.0382C182.758 47.0661 180.017 34.9791 171.068 30.3731C172.051 27.0489 175.96 22.4654 182.193 22.0311C187.787 21.6418 192.968 24.9376 195.074 30.1515C197.192 35.3969 195.714 42.0378 190.266 45.8292C191.031 46.262 191.822 46.6453 192.546 47.1274C196.314 49.6341 198.508 53.144 199.11 57.6496C199.128 57.7814 199.191 57.9087 199.231 58.0375C199.231 59.716 199.231 61.3916 199.231 63.0672Z" fill="#00A0DC"/>
<path d="M156.443 55.6146C149.401 50.6717 148.999 41.292 154.234 35.7846C159.342 30.4134 167.887 30.3985 172.996 35.7816C178.419 41.4942 177.632 50.8828 170.814 55.6041C171.201 55.8003 171.563 55.9695 171.911 56.1641C176.82 58.9014 179.481 63.0656 179.769 68.7138C179.826 69.8279 179.796 70.9479 179.791 72.065C179.785 73.4516 179.232 74.0056 177.839 74.0071C171.927 74.0116 166.015 74.0086 160.105 74.0086C156.58 74.0086 153.056 74.0101 149.533 74.0071C147.96 74.0056 147.439 73.492 147.445 71.9197C147.454 69.759 147.317 67.5893 147.908 65.469C149.119 61.1205 151.742 57.952 155.764 55.944C155.97 55.8407 156.178 55.7434 156.443 55.6146Z" fill="#00A0DC"/>
<path d="M137.026 45.856C131.636 42.0886 130.088 35.6602 132.079 30.4014C134.058 25.177 139.138 21.8093 144.733 22.022C149.82 22.2151 154.879 25.8927 156.187 30.3475C147.205 34.8487 144.54 46.9611 150.818 54.7625C150.127 55.5846 149.474 56.3977 148.783 57.1763C147.111 59.0615 145.862 61.1878 145.111 63.5971C144.959 64.0868 144.767 64.2949 144.212 64.2919C139.507 64.2665 134.801 64.2799 130.097 64.2755C128.57 64.274 128.008 63.7005 128.009 62.1626C128.012 60.0243 127.888 57.8771 128.466 55.7807C129.683 51.3544 132.346 48.135 136.467 46.1345C136.631 46.0552 136.794 45.9713 137.026 45.856Z" fill="#00A0DC"/>
<g opacity="0.7" filter="url(#filter4_d_32_2030)">
<rect x="3" y="290.497" width="320" height="52" rx="9" fill="#F8F1F1"/>
</g>
<path d="M91.4581 309.174V323.719H89.1143L82.2607 313.812H82.1399V323.719H79.505V309.174H81.8629L88.7095 319.089H88.8374V309.174H91.4581ZM98.9741 323.933C97.9087 323.933 96.9854 323.698 96.2042 323.229C95.4229 322.761 94.8169 322.105 94.386 321.262C93.9599 320.419 93.7468 319.434 93.7468 318.308C93.7468 317.181 93.9599 316.193 94.386 315.346C94.8169 314.498 95.4229 313.84 96.2042 313.371C96.9854 312.903 97.9087 312.668 98.9741 312.668C100.039 312.668 100.963 312.903 101.744 313.371C102.525 313.84 103.129 314.498 103.555 315.346C103.986 316.193 104.201 317.181 104.201 318.308C104.201 319.434 103.986 320.419 103.555 321.262C103.129 322.105 102.525 322.761 101.744 323.229C100.963 323.698 100.039 323.933 98.9741 323.933ZM98.9883 321.873C99.5659 321.873 100.049 321.714 100.437 321.397C100.825 321.075 101.114 320.644 101.304 320.104C101.498 319.565 101.595 318.963 101.595 318.3C101.595 317.633 101.498 317.029 101.304 316.489C101.114 315.945 100.825 315.512 100.437 315.19C100.049 314.868 99.5659 314.707 98.9883 314.707C98.3964 314.707 97.904 314.868 97.511 315.19C97.1228 315.512 96.8316 315.945 96.6374 316.489C96.448 317.029 96.3533 317.633 96.3533 318.3C96.3533 318.963 96.448 319.565 96.6374 320.104C96.8316 320.644 97.1228 321.075 97.511 321.397C97.904 321.714 98.3964 321.873 98.9883 321.873ZM119.363 313.173C119.297 312.552 119.017 312.069 118.525 311.724C118.037 311.378 117.403 311.205 116.621 311.205C116.072 311.205 115.601 311.288 115.208 311.454C114.815 311.62 114.514 311.844 114.306 312.129C114.098 312.413 113.991 312.737 113.987 313.102C113.987 313.405 114.055 313.667 114.192 313.89C114.335 314.112 114.526 314.302 114.768 314.458C115.009 314.61 115.277 314.737 115.57 314.842C115.864 314.946 116.16 315.033 116.458 315.104L117.822 315.445C118.371 315.573 118.899 315.746 119.406 315.964C119.917 316.182 120.374 316.456 120.776 316.788C121.183 317.119 121.505 317.519 121.742 317.988C121.979 318.457 122.097 319.006 122.097 319.636C122.097 320.488 121.879 321.238 121.444 321.887C121.008 322.531 120.379 323.035 119.555 323.4C118.736 323.76 117.744 323.94 116.579 323.94C115.447 323.94 114.465 323.764 113.631 323.414C112.803 323.064 112.154 322.552 111.685 321.88C111.221 321.208 110.97 320.389 110.933 319.423H113.525C113.563 319.929 113.719 320.351 113.994 320.687C114.268 321.023 114.626 321.274 115.066 321.44C115.511 321.605 116.008 321.688 116.558 321.688C117.13 321.688 117.632 321.603 118.063 321.433C118.499 321.257 118.84 321.016 119.086 320.708C119.332 320.396 119.458 320.031 119.462 319.614C119.458 319.236 119.346 318.923 119.129 318.677C118.911 318.426 118.605 318.218 118.212 318.052C117.824 317.881 117.37 317.73 116.849 317.597L115.194 317.171C113.996 316.863 113.049 316.397 112.353 315.772C111.662 315.142 111.316 314.307 111.316 313.265C111.316 312.408 111.548 311.657 112.012 311.014C112.481 310.37 113.118 309.87 113.923 309.515C114.728 309.155 115.639 308.975 116.657 308.975C117.689 308.975 118.594 309.155 119.37 309.515C120.151 309.87 120.764 310.365 121.21 310.999C121.655 311.629 121.884 312.353 121.898 313.173H119.363ZM124.333 327.81V312.81H126.861V314.614H127.01C127.143 314.349 127.33 314.067 127.571 313.769C127.813 313.466 128.14 313.208 128.551 312.995C128.963 312.777 129.489 312.668 130.128 312.668C130.971 312.668 131.731 312.884 132.408 313.315C133.09 313.741 133.63 314.373 134.027 315.211C134.43 316.044 134.631 317.067 134.631 318.279C134.631 319.477 134.435 320.495 134.042 321.333C133.649 322.171 133.114 322.81 132.436 323.251C131.759 323.691 130.992 323.911 130.135 323.911C129.51 323.911 128.992 323.807 128.58 323.599C128.168 323.39 127.837 323.139 127.586 322.846C127.339 322.548 127.148 322.266 127.01 322.001H126.904V327.81H124.333ZM126.854 318.265C126.854 318.97 126.953 319.588 127.152 320.119C127.356 320.649 127.647 321.063 128.026 321.362C128.409 321.655 128.873 321.802 129.418 321.802C129.986 321.802 130.462 321.65 130.846 321.347C131.229 321.04 131.518 320.621 131.712 320.09C131.911 319.555 132.01 318.947 132.01 318.265C132.01 317.588 131.913 316.987 131.719 316.461C131.525 315.935 131.236 315.523 130.853 315.225C130.469 314.927 129.991 314.778 129.418 314.778C128.869 314.778 128.402 314.922 128.019 315.211C127.635 315.5 127.344 315.905 127.145 316.425C126.951 316.946 126.854 317.559 126.854 318.265ZM139.972 323.94C139.281 323.94 138.658 323.817 138.104 323.57C137.555 323.319 137.119 322.95 136.797 322.462C136.48 321.975 136.321 321.373 136.321 320.658C136.321 320.043 136.435 319.534 136.662 319.131C136.89 318.729 137.2 318.407 137.593 318.166C137.986 317.924 138.428 317.742 138.921 317.619C139.418 317.491 139.932 317.398 140.462 317.342C141.101 317.275 141.62 317.216 142.017 317.164C142.415 317.107 142.704 317.022 142.884 316.908C143.069 316.79 143.161 316.608 143.161 316.362V316.319C143.161 315.784 143.002 315.37 142.685 315.076C142.368 314.782 141.911 314.636 141.314 314.636C140.685 314.636 140.185 314.773 139.816 315.048C139.451 315.322 139.205 315.647 139.077 316.021L136.676 315.68C136.866 315.017 137.178 314.463 137.614 314.018C138.05 313.568 138.582 313.232 139.212 313.009C139.842 312.782 140.538 312.668 141.3 312.668C141.826 312.668 142.349 312.73 142.87 312.853C143.391 312.976 143.866 313.18 144.297 313.464C144.728 313.743 145.074 314.124 145.334 314.607C145.599 315.09 145.732 315.694 145.732 316.418V323.719H143.26V322.221H143.175C143.019 322.524 142.799 322.808 142.515 323.073C142.235 323.334 141.882 323.544 141.456 323.705C141.035 323.862 140.54 323.94 139.972 323.94ZM140.64 322.05C141.156 322.05 141.603 321.949 141.982 321.745C142.361 321.537 142.652 321.262 142.855 320.921C143.064 320.58 143.168 320.209 143.168 319.806V318.521C143.087 318.587 142.95 318.648 142.756 318.705C142.567 318.762 142.354 318.812 142.117 318.854C141.88 318.897 141.646 318.935 141.414 318.968C141.182 319.001 140.98 319.03 140.81 319.053C140.426 319.105 140.083 319.191 139.78 319.309C139.477 319.427 139.238 319.593 139.063 319.806C138.888 320.014 138.8 320.284 138.8 320.616C138.8 321.089 138.973 321.447 139.319 321.688C139.664 321.93 140.105 322.05 140.64 322.05ZM148.317 323.719V312.81H150.775V314.664H150.902C151.13 314.039 151.506 313.551 152.032 313.201C152.557 312.846 153.185 312.668 153.914 312.668C154.652 312.668 155.275 312.848 155.782 313.208C156.293 313.563 156.653 314.049 156.861 314.664H156.975C157.216 314.058 157.623 313.575 158.196 313.215C158.774 312.851 159.458 312.668 160.249 312.668C161.253 312.668 162.072 312.986 162.706 313.62C163.341 314.255 163.658 315.18 163.658 316.397V323.719H161.08V316.795C161.08 316.118 160.9 315.623 160.54 315.31C160.18 314.993 159.74 314.835 159.219 314.835C158.599 314.835 158.114 315.029 157.763 315.417C157.417 315.8 157.245 316.3 157.245 316.916V323.719H154.723V316.688C154.723 316.125 154.553 315.675 154.212 315.339C153.876 315.003 153.435 314.835 152.891 314.835C152.522 314.835 152.185 314.929 151.882 315.119C151.579 315.303 151.338 315.566 151.158 315.907C150.978 316.243 150.888 316.636 150.888 317.086V323.719H148.317ZM175.986 323.933C174.92 323.933 173.997 323.698 173.216 323.229C172.435 322.761 171.829 322.105 171.398 321.262C170.972 320.419 170.759 319.434 170.759 318.308C170.759 317.181 170.972 316.193 171.398 315.346C171.829 314.498 172.435 313.84 173.216 313.371C173.997 312.903 174.92 312.668 175.986 312.668C177.051 312.668 177.974 312.903 178.756 313.371C179.537 313.84 180.141 314.498 180.567 315.346C180.998 316.193 181.213 317.181 181.213 318.308C181.213 319.434 180.998 320.419 180.567 321.262C180.141 322.105 179.537 322.761 178.756 323.229C177.974 323.698 177.051 323.933 175.986 323.933ZM176 321.873C176.578 321.873 177.061 321.714 177.449 321.397C177.837 321.075 178.126 320.644 178.315 320.104C178.509 319.565 178.607 318.963 178.607 318.3C178.607 317.633 178.509 317.029 178.315 316.489C178.126 315.945 177.837 315.512 177.449 315.19C177.061 314.868 176.578 314.707 176 314.707C175.408 314.707 174.916 314.868 174.523 315.19C174.134 315.512 173.843 315.945 173.649 316.489C173.46 317.029 173.365 317.633 173.365 318.3C173.365 318.963 173.46 319.565 173.649 320.104C173.843 320.644 174.134 321.075 174.523 321.397C174.916 321.714 175.408 321.873 176 321.873ZM183.395 323.719V312.81H185.888V314.629H186.002C186.201 313.999 186.542 313.514 187.025 313.173C187.512 312.827 188.069 312.654 188.694 312.654C188.836 312.654 188.994 312.661 189.169 312.675C189.349 312.685 189.498 312.701 189.617 312.725V315.09C189.508 315.052 189.335 315.019 189.098 314.991C188.866 314.958 188.641 314.941 188.424 314.941C187.955 314.941 187.533 315.043 187.159 315.246C186.79 315.445 186.499 315.722 186.286 316.077C186.073 316.433 185.966 316.842 185.966 317.306V323.719H183.395ZM204.304 313.173C204.238 312.552 203.959 312.069 203.466 311.724C202.979 311.378 202.344 311.205 201.563 311.205C201.014 311.205 200.542 311.288 200.15 311.454C199.757 311.62 199.456 311.844 199.248 312.129C199.039 312.413 198.933 312.737 198.928 313.102C198.928 313.405 198.997 313.667 199.134 313.89C199.276 314.112 199.468 314.302 199.709 314.458C199.951 314.61 200.218 314.737 200.512 314.842C200.805 314.946 201.101 315.033 201.4 315.104L202.763 315.445C203.312 315.573 203.84 315.746 204.347 315.964C204.858 316.182 205.315 316.456 205.718 316.788C206.125 317.119 206.447 317.519 206.684 317.988C206.92 318.457 207.039 319.006 207.039 319.636C207.039 320.488 206.821 321.238 206.385 321.887C205.95 322.531 205.32 323.035 204.496 323.4C203.677 323.76 202.685 323.94 201.52 323.94C200.389 323.94 199.406 323.764 198.573 323.414C197.744 323.064 197.096 322.552 196.627 321.88C196.163 321.208 195.912 320.389 195.874 319.423H198.466C198.504 319.929 198.66 320.351 198.935 320.687C199.21 321.023 199.567 321.274 200.007 321.44C200.453 321.605 200.95 321.688 201.499 321.688C202.072 321.688 202.574 321.603 203.005 321.433C203.44 321.257 203.781 321.016 204.027 320.708C204.274 320.396 204.399 320.031 204.404 319.614C204.399 319.236 204.288 318.923 204.07 318.677C203.852 318.426 203.547 318.218 203.154 318.052C202.766 317.881 202.311 317.73 201.79 317.597L200.135 317.171C198.937 316.863 197.99 316.397 197.294 315.772C196.603 315.142 196.257 314.307 196.257 313.265C196.257 312.408 196.489 311.657 196.953 311.014C197.422 310.37 198.059 309.87 198.864 309.515C199.669 309.155 200.58 308.975 201.598 308.975C202.631 308.975 203.535 309.155 204.311 309.515C205.093 309.87 205.706 310.365 206.151 310.999C206.596 311.629 206.826 312.353 206.84 313.173H204.304ZM214.033 323.933C212.944 323.933 212.009 323.693 211.227 323.215C210.451 322.737 209.852 322.076 209.43 321.234C209.014 320.386 208.805 319.411 208.805 318.308C208.805 317.2 209.018 316.222 209.445 315.374C209.871 314.522 210.472 313.859 211.249 313.386C212.03 312.907 212.953 312.668 214.018 312.668C214.904 312.668 215.688 312.832 216.369 313.158C217.056 313.48 217.603 313.937 218.01 314.529C218.417 315.116 218.649 315.803 218.706 316.589H216.249C216.149 316.063 215.912 315.625 215.538 315.275C215.169 314.92 214.674 314.742 214.054 314.742C213.528 314.742 213.067 314.884 212.669 315.168C212.271 315.448 211.961 315.85 211.739 316.376C211.521 316.901 211.412 317.531 211.412 318.265C211.412 319.008 211.521 319.648 211.739 320.183C211.956 320.713 212.262 321.122 212.655 321.411C213.053 321.695 213.519 321.837 214.054 321.837C214.433 321.837 214.771 321.766 215.07 321.624C215.373 321.478 215.626 321.267 215.83 320.992C216.033 320.718 216.173 320.384 216.249 319.991H218.706C218.644 320.763 218.417 321.447 218.024 322.043C217.631 322.635 217.096 323.099 216.419 323.435C215.742 323.767 214.946 323.933 214.033 323.933ZM223.956 323.94C223.265 323.94 222.642 323.817 222.088 323.57C221.539 323.319 221.104 322.95 220.782 322.462C220.464 321.975 220.306 321.373 220.306 320.658C220.306 320.043 220.419 319.534 220.647 319.131C220.874 318.729 221.184 318.407 221.577 318.166C221.97 317.924 222.413 317.742 222.905 317.619C223.402 317.491 223.916 317.398 224.446 317.342C225.086 317.275 225.604 317.216 226.002 317.164C226.4 317.107 226.688 317.022 226.868 316.908C227.053 316.79 227.145 316.608 227.145 316.362V316.319C227.145 315.784 226.987 315.37 226.669 315.076C226.352 314.782 225.895 314.636 225.299 314.636C224.669 314.636 224.169 314.773 223.8 315.048C223.435 315.322 223.189 315.647 223.061 316.021L220.661 315.68C220.85 315.017 221.163 314.463 221.598 314.018C222.034 313.568 222.567 313.232 223.196 313.009C223.826 312.782 224.522 312.668 225.284 312.668C225.81 312.668 226.333 312.73 226.854 312.853C227.375 312.976 227.851 313.18 228.282 313.464C228.712 313.743 229.058 314.124 229.319 314.607C229.584 315.09 229.716 315.694 229.716 316.418V323.719H227.245V322.221H227.159C227.003 322.524 226.783 322.808 226.499 323.073C226.22 323.334 225.867 323.544 225.441 323.705C225.019 323.862 224.525 323.94 223.956 323.94ZM224.624 322.05C225.14 322.05 225.587 321.949 225.966 321.745C226.345 321.537 226.636 321.262 226.84 320.921C227.048 320.58 227.152 320.209 227.152 319.806V318.521C227.072 318.587 226.935 318.648 226.74 318.705C226.551 318.762 226.338 318.812 226.101 318.854C225.864 318.897 225.63 318.935 225.398 318.968C225.166 319.001 224.965 319.03 224.794 319.053C224.411 319.105 224.068 319.191 223.765 319.309C223.462 319.427 223.222 319.593 223.047 319.806C222.872 320.014 222.784 320.284 222.784 320.616C222.784 321.089 222.957 321.447 223.303 321.688C223.649 321.93 224.089 322.05 224.624 322.05ZM232.301 323.719V312.81H234.759V314.664H234.887C235.114 314.039 235.49 313.551 236.016 313.201C236.542 312.846 237.169 312.668 237.898 312.668C238.637 312.668 239.259 312.848 239.766 313.208C240.277 313.563 240.637 314.049 240.846 314.664H240.959C241.201 314.058 241.608 313.575 242.181 313.215C242.758 312.851 243.443 312.668 244.233 312.668C245.237 312.668 246.056 312.986 246.691 313.62C247.325 314.255 247.642 315.18 247.642 316.397V323.719H245.064V316.795C245.064 316.118 244.884 315.623 244.525 315.31C244.165 314.993 243.724 314.835 243.203 314.835C242.583 314.835 242.098 315.029 241.748 315.417C241.402 315.8 241.229 316.3 241.229 316.916V323.719H238.708V316.688C238.708 316.125 238.537 315.675 238.196 315.339C237.86 315.003 237.42 314.835 236.875 314.835C236.506 314.835 236.17 314.929 235.867 315.119C235.564 315.303 235.322 315.566 235.142 315.907C234.962 316.243 234.873 316.636 234.873 317.086V323.719H232.301Z" fill="#212427"/>
<g opacity="0.7" filter="url(#filter5_d_32_2030)">
<rect x="115" y="183.747" width="96.75" height="96.75" rx="15" fill="#F8F1F1"/>
</g>
<path d="M192.149 250.062C189.753 249.496 187.772 250.023 186.45 252.124C185.391 253.806 185.425 255.591 186.52 257.237C187.811 259.177 189.702 259.746 192.033 259.22C191.463 260.64 190.653 261.816 189.643 262.852C187.329 265.225 184.499 266.559 181.189 266.572C168.863 266.619 156.538 266.634 144.214 266.574C138.176 266.544 132.912 261.484 132.501 255.527C132.052 249.046 136.39 243.437 142.621 242.467C143.347 242.354 144.089 242.307 144.823 242.307C156.767 242.298 168.712 242.305 180.656 242.295C182.319 242.294 183.913 242.58 185.466 243.172C185.972 243.366 186.215 243.604 186.204 244.194C186.187 245.214 186.273 246.236 186.327 247.257C186.393 248.521 187.208 249.304 188.492 249.326C189.42 249.341 190.349 249.359 191.275 249.317C191.796 249.293 192.102 249.433 192.149 250.062Z" fill="#00A0DC"/>
<path d="M162.781 234.722C152.786 234.763 144.642 226.672 144.567 216.624C144.491 206.646 152.637 198.42 162.63 198.383C172.71 198.347 180.882 206.432 180.914 216.471C180.944 226.528 172.845 234.68 162.781 234.722Z" fill="#00A0DC"/>
<path d="M193.623 233.096C193.425 237.702 193.221 242.307 193.034 246.913C193.013 247.416 192.842 247.637 192.309 247.624C191.12 247.596 189.93 247.596 188.741 247.624C188.218 247.637 188.041 247.453 188.019 246.929C187.802 241.706 187.564 236.484 187.33 231.261C187.16 227.462 186.992 223.664 186.815 219.865C186.719 217.794 188.043 216.128 190.047 215.827C191.865 215.554 193.672 216.792 194.106 218.646C194.207 219.078 194.211 219.543 194.192 219.99C194.012 224.358 193.818 228.726 193.628 233.095C193.627 233.096 193.625 233.096 193.623 233.096Z" fill="#00A0DC"/>
<path d="M187.447 254.612C187.453 252.896 188.808 251.552 190.534 251.548C192.221 251.546 193.624 252.957 193.608 254.641C193.592 256.33 192.184 257.727 190.503 257.72C188.805 257.711 187.441 256.326 187.447 254.612Z" fill="#00A0DC"/>
<g opacity="0.7" filter="url(#filter6_d_32_2030)">
<rect x="3" y="474.247" width="320" height="51" rx="9" fill="#F1F8F1"/>
</g>
<path d="M34.8849 496.86H32.2287C32.1529 496.424 32.0133 496.038 31.8097 495.702C31.6061 495.361 31.3527 495.072 31.0497 494.835C30.7467 494.599 30.401 494.421 30.0128 494.303C29.6293 494.18 29.215 494.118 28.7699 494.118C27.9792 494.118 27.2784 494.317 26.6676 494.715C26.0568 495.108 25.5786 495.685 25.233 496.448C24.8873 497.205 24.7145 498.131 24.7145 499.225C24.7145 500.337 24.8873 501.275 25.233 502.037C25.5833 502.795 26.0616 503.368 26.6676 503.756C27.2784 504.139 27.9768 504.331 28.7628 504.331C29.1984 504.331 29.6056 504.274 29.9844 504.161C30.3679 504.042 30.7112 503.869 31.0142 503.642C31.322 503.415 31.58 503.136 31.7884 502.804C32.0014 502.473 32.1482 502.094 32.2287 501.668L34.8849 501.682C34.7855 502.373 34.5701 503.022 34.2386 503.628C33.9119 504.234 33.4834 504.769 32.9531 505.233C32.4228 505.692 31.8026 506.052 31.0923 506.313C30.3821 506.568 29.5938 506.696 28.7273 506.696C27.4489 506.696 26.3078 506.4 25.304 505.808C24.3002 505.217 23.5095 504.362 22.9318 503.244C22.3542 502.127 22.0653 500.787 22.0653 499.225C22.0653 497.657 22.3565 496.317 22.9389 495.205C23.5213 494.087 24.3144 493.233 25.3182 492.641C26.322 492.049 27.4583 491.753 28.7273 491.753C29.5369 491.753 30.2898 491.867 30.9858 492.094C31.6818 492.321 32.3021 492.655 32.8466 493.095C33.3911 493.531 33.8385 494.066 34.1889 494.7C34.544 495.33 34.776 496.05 34.8849 496.86ZM39.7553 500.105V506.497H37.1843V491.952H39.6985V497.442H39.8263C40.082 496.826 40.4774 496.341 41.0124 495.986C41.5522 495.626 42.2388 495.446 43.0721 495.446C43.8297 495.446 44.4902 495.605 45.0536 495.922C45.6171 496.239 46.0527 496.703 46.3604 497.314C46.6729 497.925 46.8292 498.671 46.8292 499.551V506.497H44.2582V499.949C44.2582 499.215 44.0688 498.645 43.69 498.237C43.3159 497.825 42.7904 497.619 42.1133 497.619C41.6587 497.619 41.2515 497.719 40.8917 497.918C40.5366 498.112 40.2572 498.394 40.0536 498.763C39.8548 499.132 39.7553 499.58 39.7553 500.105ZM52.5891 506.717C51.8978 506.717 51.2752 506.594 50.7212 506.348C50.172 506.097 49.7364 505.728 49.4144 505.24C49.0972 504.753 48.9386 504.151 48.9386 503.436C48.9386 502.821 49.0522 502.312 49.2795 501.909C49.5067 501.507 49.8169 501.185 50.2099 500.943C50.6029 500.702 51.0456 500.52 51.538 500.396C52.0352 500.269 52.5489 500.176 53.0792 500.119C53.7184 500.053 54.2369 499.994 54.6346 499.942C55.0323 499.885 55.3211 499.8 55.5011 499.686C55.6857 499.568 55.7781 499.386 55.7781 499.139V499.097C55.7781 498.562 55.6194 498.147 55.3022 497.854C54.985 497.56 54.5281 497.414 53.9315 497.414C53.3017 497.414 52.8022 497.551 52.4329 497.825C52.0683 498.1 51.8221 498.424 51.6942 498.798L49.2937 498.458C49.4831 497.795 49.7956 497.241 50.2312 496.796C50.6668 496.346 51.1995 496.01 51.8292 495.787C52.4589 495.56 53.1549 495.446 53.9173 495.446C54.4428 495.446 54.966 495.508 55.4869 495.631C56.0077 495.754 56.4835 495.958 56.9144 496.242C57.3453 496.521 57.6909 496.902 57.9513 497.385C58.2165 497.868 58.3491 498.472 58.3491 499.196V506.497H55.8775V504.999H55.7923C55.636 505.302 55.4158 505.586 55.1317 505.851C54.8524 506.111 54.4996 506.322 54.0735 506.483C53.6521 506.639 53.1573 506.717 52.5891 506.717ZM53.2567 504.828C53.7728 504.828 54.2203 504.726 54.5991 504.523C54.9779 504.315 55.2691 504.04 55.4727 503.699C55.681 503.358 55.7852 502.986 55.7852 502.584V501.298C55.7047 501.365 55.5674 501.426 55.3732 501.483C55.1838 501.54 54.9708 501.59 54.734 501.632C54.4973 501.675 54.2629 501.713 54.0309 501.746C53.7989 501.779 53.5977 501.807 53.4272 501.831C53.0437 501.883 52.7004 501.968 52.3974 502.087C52.0943 502.205 51.8552 502.371 51.68 502.584C51.5049 502.792 51.4173 503.062 51.4173 503.394C51.4173 503.867 51.5901 504.225 51.9357 504.466C52.2814 504.708 52.7217 504.828 53.2567 504.828ZM66.3817 495.588V497.577H60.1104V495.588H66.3817ZM61.6587 492.975H64.2298V503.216C64.2298 503.562 64.2818 503.827 64.386 504.012C64.4949 504.191 64.637 504.315 64.8121 504.381C64.9873 504.447 65.1815 504.48 65.3945 504.48C65.5555 504.48 65.7023 504.468 65.8349 504.445C65.9722 504.421 66.0763 504.4 66.1474 504.381L66.5806 506.391C66.4433 506.438 66.2468 506.49 65.9911 506.547C65.7402 506.604 65.4324 506.637 65.0678 506.646C64.4239 506.665 63.8439 506.568 63.3278 506.355C62.8117 506.137 62.4021 505.801 62.0991 505.347C61.8008 504.892 61.654 504.324 61.6587 503.642V492.975ZM78.5355 506.497H73.6065V491.952H78.6349C80.0791 491.952 81.3196 492.243 82.3565 492.825C83.3982 493.403 84.1984 494.234 84.7571 495.318C85.3158 496.403 85.5952 497.7 85.5952 499.21C85.5952 500.726 85.3134 502.028 84.75 503.117C84.1913 504.206 83.384 505.041 82.3281 505.624C81.277 506.206 80.0128 506.497 78.5355 506.497ZM76.2415 504.217H78.4077C79.4209 504.217 80.2661 504.033 80.9432 503.664C81.6203 503.289 82.1293 502.733 82.4702 501.994C82.8111 501.251 82.9815 500.323 82.9815 499.21C82.9815 498.098 82.8111 497.174 82.4702 496.44C82.1293 495.702 81.625 495.15 80.9574 494.786C80.2945 494.416 79.4706 494.232 78.4858 494.232H76.2415V504.217ZM87.9851 506.497V495.588H90.5561V506.497H87.9851ZM89.2777 494.04C88.8705 494.04 88.5201 493.905 88.2266 493.635C87.933 493.36 87.7862 493.031 87.7862 492.648C87.7862 492.26 87.933 491.931 88.2266 491.661C88.5201 491.386 88.8705 491.249 89.2777 491.249C89.6896 491.249 90.04 491.386 90.3288 491.661C90.6224 491.931 90.7692 492.26 90.7692 492.648C90.7692 493.031 90.6224 493.36 90.3288 493.635C90.04 493.905 89.6896 494.04 89.2777 494.04ZM93.1999 506.497V495.588H95.6928V497.406H95.8065C96.0053 496.777 96.3462 496.291 96.8292 495.95C97.3169 495.605 97.8732 495.432 98.4982 495.432C98.6403 495.432 98.7989 495.439 98.9741 495.453C99.154 495.463 99.3031 495.479 99.4215 495.503V497.868C99.3126 497.83 99.1398 497.797 98.9031 497.769C98.671 497.735 98.4461 497.719 98.2283 497.719C97.7596 497.719 97.3382 497.821 96.9641 498.024C96.5948 498.223 96.3036 498.5 96.0906 498.855C95.8775 499.21 95.771 499.62 95.771 500.084V506.497H93.1999ZM105.51 506.71C104.416 506.71 103.472 506.483 102.676 506.029C101.885 505.569 101.277 504.921 100.851 504.083C100.425 503.24 100.212 502.248 100.212 501.107C100.212 499.985 100.425 499 100.851 498.152C101.282 497.3 101.883 496.637 102.655 496.164C103.427 495.685 104.333 495.446 105.375 495.446C106.047 495.446 106.682 495.555 107.278 495.773C107.88 495.986 108.41 496.317 108.869 496.767C109.333 497.217 109.698 497.79 109.963 498.486C110.228 499.177 110.361 500.001 110.361 500.958V501.746H101.419V500.013H107.896C107.892 499.521 107.785 499.083 107.577 498.699C107.368 498.311 107.077 498.005 106.703 497.783C106.334 497.56 105.903 497.449 105.411 497.449C104.885 497.449 104.423 497.577 104.026 497.833C103.628 498.083 103.318 498.415 103.095 498.827C102.877 499.234 102.766 499.681 102.761 500.169V501.682C102.761 502.316 102.877 502.861 103.109 503.315C103.341 503.765 103.666 504.111 104.082 504.352C104.499 504.589 104.987 504.708 105.545 504.708C105.92 504.708 106.258 504.655 106.561 504.551C106.864 504.442 107.127 504.284 107.349 504.075C107.572 503.867 107.74 503.609 107.854 503.301L110.254 503.571C110.103 504.206 109.814 504.76 109.388 505.233C108.966 505.702 108.427 506.066 107.768 506.327C107.11 506.583 106.357 506.71 105.51 506.71ZM117.294 506.71C116.205 506.71 115.27 506.471 114.489 505.993C113.712 505.515 113.114 504.854 112.692 504.012C112.275 503.164 112.067 502.189 112.067 501.085C112.067 499.977 112.28 499 112.706 498.152C113.132 497.3 113.734 496.637 114.51 496.164C115.292 495.685 116.215 495.446 117.28 495.446C118.166 495.446 118.949 495.61 119.631 495.936C120.318 496.258 120.864 496.715 121.272 497.307C121.679 497.894 121.911 498.581 121.968 499.367H119.51C119.411 498.841 119.174 498.403 118.8 498.053C118.431 497.698 117.936 497.52 117.316 497.52C116.79 497.52 116.328 497.662 115.931 497.946C115.533 498.226 115.223 498.628 115 499.154C114.783 499.679 114.674 500.309 114.674 501.043C114.674 501.786 114.783 502.425 115 502.96C115.218 503.491 115.524 503.9 115.917 504.189C116.314 504.473 116.781 504.615 117.316 504.615C117.694 504.615 118.033 504.544 118.331 504.402C118.634 504.255 118.888 504.045 119.091 503.77C119.295 503.495 119.435 503.162 119.51 502.769H121.968C121.906 503.54 121.679 504.225 121.286 504.821C120.893 505.413 120.358 505.877 119.681 506.213C119.004 506.545 118.208 506.71 117.294 506.71ZM129.526 495.588V497.577H123.255V495.588H129.526ZM124.803 492.975H127.374V503.216C127.374 503.562 127.426 503.827 127.531 504.012C127.639 504.191 127.781 504.315 127.957 504.381C128.132 504.447 128.326 504.48 128.539 504.48C128.7 504.48 128.847 504.468 128.979 504.445C129.117 504.421 129.221 504.4 129.292 504.381L129.725 506.391C129.588 506.438 129.391 506.49 129.136 506.547C128.885 506.604 128.577 506.637 128.212 506.646C127.568 506.665 126.988 506.568 126.472 506.355C125.956 506.137 125.547 505.801 125.244 505.347C124.945 504.892 124.799 504.324 124.803 503.642V492.975ZM134.482 491.952V506.497H131.911V491.952H134.482ZM138.724 510.588C138.373 510.588 138.049 510.56 137.751 510.503C137.457 510.451 137.223 510.389 137.048 510.318L137.644 508.315C138.018 508.424 138.352 508.476 138.646 508.472C138.939 508.467 139.197 508.375 139.42 508.195C139.647 508.02 139.839 507.726 139.995 507.314L140.215 506.725L136.259 495.588H138.987L141.501 503.827H141.614L144.136 495.588H146.87L142.502 507.818C142.299 508.396 142.029 508.891 141.692 509.303C141.356 509.719 140.944 510.037 140.457 510.254C139.974 510.477 139.396 510.588 138.724 510.588ZM157.957 506.71C156.962 506.71 156.108 506.53 155.393 506.171C154.678 505.811 154.126 505.325 153.738 504.715C153.354 504.099 153.163 503.405 153.163 502.634C153.163 502.051 153.281 501.535 153.518 501.085C153.759 500.636 154.091 500.219 154.512 499.835C154.938 499.452 155.431 499.071 155.989 498.692L158.567 496.938C158.946 496.691 159.233 496.431 159.427 496.156C159.626 495.882 159.725 495.56 159.725 495.19C159.725 494.878 159.593 494.582 159.327 494.303C159.067 494.023 158.707 493.884 158.248 493.884C157.94 493.884 157.668 493.957 157.431 494.104C157.199 494.246 157.017 494.433 156.884 494.665C156.756 494.897 156.692 495.143 156.692 495.404C156.692 495.721 156.78 496.043 156.955 496.369C157.135 496.696 157.367 497.035 157.651 497.385C157.94 497.735 158.248 498.107 158.575 498.5L165.4 506.497H162.616L156.948 500.006C156.527 499.513 156.12 499.028 155.727 498.55C155.338 498.072 155.019 497.574 154.768 497.058C154.522 496.538 154.398 495.974 154.398 495.368C154.398 494.681 154.557 494.068 154.874 493.529C155.192 492.984 155.634 492.556 156.202 492.243C156.775 491.931 157.445 491.774 158.212 491.774C158.979 491.774 159.638 491.926 160.187 492.229C160.736 492.532 161.16 492.934 161.458 493.436C161.756 493.938 161.906 494.485 161.906 495.077C161.906 495.763 161.735 496.379 161.394 496.923C161.053 497.463 160.58 497.953 159.974 498.394L157.033 500.546C156.55 500.896 156.205 501.251 155.996 501.611C155.788 501.966 155.684 502.269 155.684 502.52C155.684 502.904 155.781 503.252 155.975 503.564C156.169 503.877 156.442 504.128 156.792 504.317C157.147 504.502 157.561 504.594 158.035 504.594C158.556 504.594 159.069 504.478 159.576 504.246C160.083 504.009 160.544 503.673 160.961 503.237C161.378 502.802 161.709 502.281 161.955 501.675C162.201 501.064 162.325 500.387 162.325 499.644H164.533C164.533 500.562 164.432 501.362 164.228 502.044C164.024 502.721 163.762 503.294 163.44 503.763C163.118 504.227 162.777 504.599 162.417 504.878C162.303 504.958 162.194 505.039 162.09 505.119C161.986 505.2 161.877 505.28 161.763 505.361C161.252 505.825 160.653 506.166 159.967 506.384C159.285 506.601 158.615 506.71 157.957 506.71ZM181.691 496.597C181.572 496.213 181.409 495.87 181.201 495.567C180.997 495.259 180.751 494.996 180.462 494.779C180.178 494.561 179.851 494.397 179.482 494.289C179.113 494.175 178.71 494.118 178.275 494.118C177.493 494.118 176.797 494.315 176.186 494.708C175.576 495.101 175.095 495.678 174.745 496.44C174.399 497.198 174.226 498.121 174.226 499.21C174.226 500.309 174.399 501.239 174.745 502.002C175.09 502.764 175.571 503.344 176.186 503.742C176.802 504.135 177.517 504.331 178.331 504.331C179.07 504.331 179.709 504.189 180.249 503.905C180.793 503.621 181.212 503.218 181.506 502.698C181.8 502.172 181.946 501.556 181.946 500.851L182.543 500.943H178.594V498.884H184.496V500.631C184.496 501.876 184.231 502.953 183.701 503.862C183.17 504.771 182.441 505.472 181.513 505.965C180.585 506.452 179.52 506.696 178.317 506.696C176.977 506.696 175.801 506.396 174.787 505.794C173.779 505.188 172.99 504.329 172.422 503.216C171.859 502.099 171.577 500.773 171.577 499.239C171.577 498.065 171.743 497.016 172.074 496.092C172.41 495.169 172.879 494.386 173.48 493.742C174.082 493.093 174.787 492.601 175.597 492.264C176.407 491.923 177.287 491.753 178.239 491.753C179.044 491.753 179.794 491.871 180.49 492.108C181.186 492.34 181.804 492.672 182.344 493.102C182.889 493.533 183.336 494.045 183.686 494.637C184.037 495.228 184.266 495.882 184.375 496.597H181.691ZM191.76 506.71C190.666 506.71 189.722 506.483 188.926 506.029C188.135 505.569 187.527 504.921 187.101 504.083C186.675 503.24 186.462 502.248 186.462 501.107C186.462 499.985 186.675 499 187.101 498.152C187.532 497.3 188.133 496.637 188.905 496.164C189.677 495.685 190.583 495.446 191.625 495.446C192.297 495.446 192.932 495.555 193.528 495.773C194.13 495.986 194.66 496.317 195.119 496.767C195.583 497.217 195.948 497.79 196.213 498.486C196.478 499.177 196.611 500.001 196.611 500.958V501.746H187.669V500.013H194.146C194.142 499.521 194.035 499.083 193.827 498.699C193.618 498.311 193.327 498.005 192.953 497.783C192.584 497.56 192.153 497.449 191.661 497.449C191.135 497.449 190.673 497.577 190.276 497.833C189.878 498.083 189.568 498.415 189.345 498.827C189.127 499.234 189.016 499.681 189.011 500.169V501.682C189.011 502.316 189.127 502.861 189.359 503.315C189.591 503.765 189.916 504.111 190.332 504.352C190.749 504.589 191.237 504.708 191.795 504.708C192.17 504.708 192.508 504.655 192.811 504.551C193.114 504.442 193.377 504.284 193.599 504.075C193.822 503.867 193.99 503.609 194.104 503.301L196.504 503.571C196.353 504.206 196.064 504.76 195.638 505.233C195.216 505.702 194.677 506.066 194.018 506.327C193.36 506.583 192.607 506.71 191.76 506.71ZM204.233 495.588V497.577H197.962V495.588H204.233ZM199.51 492.975H202.081V503.216C202.081 503.562 202.133 503.827 202.238 504.012C202.346 504.191 202.489 504.315 202.664 504.381C202.839 504.447 203.033 504.48 203.246 504.48C203.407 504.48 203.554 504.468 203.686 504.445C203.824 504.421 203.928 504.4 203.999 504.381L204.432 506.391C204.295 506.438 204.098 506.49 203.843 506.547C203.592 506.604 203.284 506.637 202.919 506.646C202.275 506.665 201.695 506.568 201.179 506.355C200.663 506.137 200.254 505.801 199.951 505.347C199.652 504.892 199.506 504.324 199.51 503.642V492.975ZM211.458 506.497V491.952H216.913C218.03 491.952 218.968 492.146 219.725 492.534C220.487 492.923 221.063 493.467 221.451 494.168C221.844 494.864 222.04 495.676 222.04 496.604C222.04 497.537 221.842 498.346 221.444 499.033C221.051 499.715 220.471 500.243 219.704 500.617C218.937 500.986 217.995 501.171 216.877 501.171H212.992V498.983H216.522C217.175 498.983 217.71 498.893 218.127 498.713C218.544 498.529 218.852 498.261 219.05 497.911C219.254 497.556 219.356 497.12 219.356 496.604C219.356 496.088 219.254 495.647 219.05 495.283C218.847 494.914 218.537 494.634 218.12 494.445C217.703 494.251 217.166 494.154 216.508 494.154H214.093V506.497H211.458ZM218.972 499.906L222.573 506.497H219.633L216.096 499.906H218.972ZM229.026 506.71C227.932 506.71 226.987 506.483 226.192 506.029C225.401 505.569 224.793 504.921 224.366 504.083C223.94 503.24 223.727 502.248 223.727 501.107C223.727 499.985 223.94 499 224.366 498.152C224.797 497.3 225.399 496.637 226.17 496.164C226.942 495.685 227.849 495.446 228.891 495.446C229.563 495.446 230.197 495.555 230.794 495.773C231.395 495.986 231.926 496.317 232.385 496.767C232.849 497.217 233.214 497.79 233.479 498.486C233.744 499.177 233.876 500.001 233.876 500.958V501.746H224.935V500.013H231.412C231.407 499.521 231.301 499.083 231.092 498.699C230.884 498.311 230.593 498.005 230.219 497.783C229.849 497.56 229.419 497.449 228.926 497.449C228.401 497.449 227.939 497.577 227.541 497.833C227.143 498.083 226.833 498.415 226.611 498.827C226.393 499.234 226.282 499.681 226.277 500.169V501.682C226.277 502.316 226.393 502.861 226.625 503.315C226.857 503.765 227.181 504.111 227.598 504.352C228.015 504.589 228.502 504.708 229.061 504.708C229.435 504.708 229.774 504.655 230.077 504.551C230.38 504.442 230.643 504.284 230.865 504.075C231.088 503.867 231.256 503.609 231.369 503.301L233.77 503.571C233.618 504.206 233.33 504.76 232.903 505.233C232.482 505.702 231.942 506.066 231.284 506.327C230.626 506.583 229.873 506.71 229.026 506.71ZM244.674 498.472L242.33 498.727C242.264 498.491 242.148 498.268 241.982 498.06C241.821 497.851 241.603 497.683 241.328 497.556C241.054 497.428 240.718 497.364 240.32 497.364C239.785 497.364 239.335 497.48 238.971 497.712C238.611 497.944 238.433 498.244 238.438 498.614C238.433 498.931 238.549 499.189 238.786 499.388C239.027 499.587 239.425 499.75 239.979 499.878L241.84 500.276C242.872 500.498 243.639 500.851 244.141 501.334C244.648 501.817 244.903 502.449 244.908 503.23C244.903 503.917 244.702 504.523 244.304 505.048C243.911 505.569 243.364 505.976 242.664 506.27C241.963 506.564 241.158 506.71 240.249 506.71C238.914 506.71 237.839 506.431 237.025 505.872C236.21 505.309 235.725 504.525 235.569 503.521L238.076 503.28C238.189 503.772 238.431 504.144 238.8 504.395C239.169 504.646 239.65 504.771 240.242 504.771C240.853 504.771 241.343 504.646 241.712 504.395C242.086 504.144 242.273 503.834 242.273 503.465C242.273 503.152 242.152 502.894 241.911 502.69C241.674 502.487 241.305 502.331 240.803 502.222L238.942 501.831C237.896 501.613 237.122 501.246 236.62 500.73C236.118 500.209 235.869 499.551 235.874 498.756C235.869 498.083 236.051 497.501 236.421 497.009C236.795 496.512 237.313 496.128 237.976 495.858C238.644 495.583 239.413 495.446 240.284 495.446C241.563 495.446 242.569 495.718 243.303 496.263C244.042 496.807 244.498 497.544 244.674 498.472ZM247.028 510.588V495.588H249.556V497.392H249.706C249.838 497.127 250.025 496.845 250.267 496.547C250.508 496.244 250.835 495.986 251.247 495.773C251.659 495.555 252.184 495.446 252.824 495.446C253.666 495.446 254.426 495.662 255.103 496.092C255.785 496.519 256.325 497.151 256.723 497.989C257.125 498.822 257.326 499.845 257.326 501.057C257.326 502.255 257.13 503.273 256.737 504.111C256.344 504.949 255.809 505.588 255.132 506.029C254.455 506.469 253.688 506.689 252.831 506.689C252.206 506.689 251.687 506.585 251.275 506.377C250.863 506.168 250.532 505.917 250.281 505.624C250.035 505.325 249.843 505.044 249.706 504.779H249.599V510.588H247.028ZM249.549 501.043C249.549 501.748 249.649 502.366 249.848 502.896C250.051 503.427 250.342 503.841 250.721 504.139C251.105 504.433 251.569 504.58 252.113 504.58C252.681 504.58 253.157 504.428 253.541 504.125C253.924 503.817 254.213 503.398 254.407 502.868C254.606 502.333 254.706 501.725 254.706 501.043C254.706 500.366 254.609 499.764 254.414 499.239C254.22 498.713 253.931 498.301 253.548 498.003C253.164 497.705 252.686 497.556 252.113 497.556C251.564 497.556 251.098 497.7 250.714 497.989C250.331 498.278 250.039 498.682 249.841 499.203C249.646 499.724 249.549 500.337 249.549 501.043ZM264.287 506.71C263.221 506.71 262.298 506.476 261.517 506.007C260.735 505.539 260.129 504.883 259.699 504.04C259.272 503.197 259.059 502.212 259.059 501.085C259.059 499.958 259.272 498.971 259.699 498.124C260.129 497.276 260.735 496.618 261.517 496.149C262.298 495.681 263.221 495.446 264.287 495.446C265.352 495.446 266.275 495.681 267.056 496.149C267.838 496.618 268.441 497.276 268.868 498.124C269.298 498.971 269.514 499.958 269.514 501.085C269.514 502.212 269.298 503.197 268.868 504.04C268.441 504.883 267.838 505.539 267.056 506.007C266.275 506.476 265.352 506.71 264.287 506.71ZM264.301 504.651C264.878 504.651 265.361 504.492 265.75 504.175C266.138 503.853 266.427 503.422 266.616 502.882C266.81 502.342 266.907 501.741 266.907 501.078C266.907 500.411 266.81 499.807 266.616 499.267C266.427 498.723 266.138 498.289 265.75 497.967C265.361 497.646 264.878 497.485 264.301 497.485C263.709 497.485 263.217 497.646 262.824 497.967C262.435 498.289 262.144 498.723 261.95 499.267C261.761 499.807 261.666 500.411 261.666 501.078C261.666 501.741 261.761 502.342 261.95 502.882C262.144 503.422 262.435 503.853 262.824 504.175C263.217 504.492 263.709 504.651 264.301 504.651ZM274.267 500.105V506.497H271.696V495.588H274.153V497.442H274.281C274.532 496.831 274.932 496.346 275.482 495.986C276.036 495.626 276.72 495.446 277.534 495.446C278.287 495.446 278.943 495.607 279.501 495.929C280.065 496.251 280.5 496.717 280.808 497.328C281.121 497.939 281.275 498.68 281.27 499.551V506.497H278.699V499.949C278.699 499.22 278.509 498.649 278.131 498.237C277.757 497.825 277.238 497.619 276.575 497.619C276.125 497.619 275.725 497.719 275.375 497.918C275.029 498.112 274.757 498.394 274.558 498.763C274.364 499.132 274.267 499.58 274.267 500.105ZM292.506 498.472L290.162 498.727C290.096 498.491 289.98 498.268 289.814 498.06C289.653 497.851 289.435 497.683 289.161 497.556C288.886 497.428 288.55 497.364 288.152 497.364C287.617 497.364 287.167 497.48 286.803 497.712C286.443 497.944 286.265 498.244 286.27 498.614C286.265 498.931 286.381 499.189 286.618 499.388C286.859 499.587 287.257 499.75 287.811 499.878L289.672 500.276C290.704 500.498 291.471 500.851 291.973 501.334C292.48 501.817 292.735 502.449 292.74 503.23C292.735 503.917 292.534 504.523 292.136 505.048C291.743 505.569 291.196 505.976 290.496 506.27C289.795 506.564 288.99 506.71 288.081 506.71C286.746 506.71 285.671 506.431 284.857 505.872C284.042 505.309 283.557 504.525 283.401 503.521L285.908 503.28C286.021 503.772 286.263 504.144 286.632 504.395C287.001 504.646 287.482 504.771 288.074 504.771C288.685 504.771 289.175 504.646 289.544 504.395C289.918 504.144 290.105 503.834 290.105 503.465C290.105 503.152 289.984 502.894 289.743 502.69C289.506 502.487 289.137 502.331 288.635 502.222L286.774 501.831C285.728 501.613 284.954 501.246 284.452 500.73C283.95 500.209 283.701 499.551 283.706 498.756C283.701 498.083 283.884 497.501 284.253 497.009C284.627 496.512 285.145 496.128 285.808 495.858C286.476 495.583 287.245 495.446 288.116 495.446C289.395 495.446 290.401 495.718 291.135 496.263C291.874 496.807 292.33 497.544 292.506 498.472ZM299.69 506.71C298.596 506.71 297.651 506.483 296.856 506.029C296.065 505.569 295.457 504.921 295.031 504.083C294.604 503.24 294.391 502.248 294.391 501.107C294.391 499.985 294.604 499 295.031 498.152C295.461 497.3 296.063 496.637 296.835 496.164C297.606 495.685 298.513 495.446 299.555 495.446C300.227 495.446 300.862 495.555 301.458 495.773C302.059 495.986 302.59 496.317 303.049 496.767C303.513 497.217 303.878 497.79 304.143 498.486C304.408 499.177 304.54 500.001 304.54 500.958V501.746H295.599V500.013H302.076C302.071 499.521 301.965 499.083 301.756 498.699C301.548 498.311 301.257 498.005 300.883 497.783C300.513 497.56 300.083 497.449 299.59 497.449C299.065 497.449 298.603 497.577 298.205 497.833C297.808 498.083 297.497 498.415 297.275 498.827C297.057 499.234 296.946 499.681 296.941 500.169V501.682C296.941 502.316 297.057 502.861 297.289 503.315C297.521 503.765 297.845 504.111 298.262 504.352C298.679 504.589 299.166 504.708 299.725 504.708C300.099 504.708 300.438 504.655 300.741 504.551C301.044 504.442 301.307 504.284 301.529 504.075C301.752 503.867 301.92 503.609 302.033 503.301L304.434 503.571C304.282 504.206 303.994 504.76 303.567 505.233C303.146 505.702 302.606 506.066 301.948 506.327C301.29 506.583 300.537 506.71 299.69 506.71Z" fill="#212427"/>
<g opacity="0.7" filter="url(#filter7_d_32_2030)">
<rect x="115" y="367.497" width="96.0333" height="96.75" rx="15" fill="#F1F8F1"/>
</g>
<path d="M195.929 407.007C195.612 407.881 195.408 408.819 194.956 409.616C193.511 412.168 191.24 413.428 188.307 413.5C187.218 413.526 186.129 413.504 184.955 413.504C184.955 413.79 184.955 414.017 184.955 414.243C184.955 415.95 184.952 417.657 184.956 419.364C184.959 420.315 184.636 421.093 183.725 421.498C182.785 421.916 181.989 421.614 181.265 420.943C178.72 418.59 176.17 416.244 173.598 413.92C173.345 413.691 172.934 413.527 172.594 413.523C170.106 413.49 167.618 413.524 165.129 413.501C160.352 413.455 156.874 409.42 157.536 404.658C160.777 404.658 164.024 404.658 167.185 404.658C167.599 405.443 167.911 406.252 168.404 406.931C170.566 409.911 174.935 410.288 177.533 407.647C179.255 405.897 180.868 404.028 182.406 402.114C184.146 399.95 184.055 396.78 182.278 394.646C180.843 392.921 179.382 391.212 177.847 389.575C174.538 386.043 169.008 387.268 167.458 391.84C167.411 391.98 167.357 392.117 167.298 392.276C164.045 392.276 160.795 392.276 157.552 392.276C156.878 387.202 160.657 383.46 164.99 383.452C172.797 383.438 180.605 383.444 188.412 383.456C188.964 383.457 189.532 383.516 190.064 383.653C193.235 384.473 195.14 386.505 195.815 389.689C195.836 389.789 195.889 389.882 195.928 389.978C195.929 395.654 195.929 401.33 195.929 407.007Z" fill="#00A0DC"/>
<path d="M131.568 449.004C130.372 448.489 130.01 447.577 129.997 446.303C129.963 443.191 131.091 440.748 133.794 439.105C134.931 438.414 136.186 438.088 137.523 438.089C139.836 438.092 142.15 438.066 144.463 438.095C148.651 438.146 151.869 441.325 152 445.505C152.007 445.761 151.984 446.018 152.007 446.272C152.121 447.525 151.673 448.465 150.492 449.004C144.182 449.004 137.875 449.004 131.568 449.004Z" fill="#00A0DC"/>
<path d="M175.462 449.004C174.139 448.417 173.911 447.331 173.931 446.014C173.981 442.726 175.357 440.28 178.333 438.791C179.362 438.276 180.474 438.079 181.63 438.086C183.816 438.099 186.003 438.083 188.19 438.091C192.112 438.106 195.045 440.519 195.819 444.355C195.84 444.457 195.891 444.554 195.929 444.652C195.929 445.591 195.929 446.53 195.929 447.469C195.623 448.189 195.108 448.701 194.385 449.005C188.076 449.004 181.769 449.004 175.462 449.004Z" fill="#00A0DC"/>
<path d="M156.179 383.46C153.96 386.086 153.174 389.046 153.366 392.188C152.448 392.569 151.615 392.927 150.768 393.253C150.643 393.301 150.438 393.237 150.304 393.163C148.324 392.064 146.206 392.068 144.114 392.586C141.171 393.314 139.307 396.258 139.693 399.306C140.058 402.187 142.57 404.471 145.515 404.589C147.194 404.656 148.868 404.684 150.374 403.739C150.49 403.667 150.705 403.674 150.842 403.727C151.653 404.039 152.454 404.375 153.366 404.747C153.175 407.863 153.949 410.831 156.204 413.503C155.254 413.503 154.455 413.539 153.663 413.492C153.038 413.454 152.588 413.657 152.131 414.084C149.63 416.421 147.105 418.733 144.573 421.038C143.455 422.054 141.872 421.837 141.26 420.576C141.082 420.208 141.017 419.755 141.01 419.34C140.984 417.655 140.999 415.968 140.999 414.283C140.999 414.053 140.999 413.822 140.999 413.503C140.074 413.503 139.202 413.481 138.332 413.508C136.145 413.575 134.168 413.039 132.522 411.547C130.937 410.11 130.057 408.312 130.042 406.183C130.003 401.041 130.002 395.898 130.038 390.755C130.066 386.942 133.224 383.557 137.044 383.488C143.367 383.378 149.695 383.46 156.179 383.46Z" fill="#00A0DC"/>
<path d="M171.215 396.411C171.215 395.517 171.211 394.691 171.216 393.864C171.223 392.845 171.693 392.107 172.526 391.786C173.371 391.461 174.224 391.675 174.901 392.435C176.253 393.952 177.596 395.476 178.923 397.014C179.754 397.976 179.738 398.991 178.9 399.955C177.581 401.473 176.253 402.982 174.922 404.488C174.25 405.249 173.413 405.48 172.553 405.166C171.72 404.861 171.225 404.108 171.215 403.107C171.207 402.317 171.211 401.528 171.207 400.738C171.207 400.696 171.19 400.655 171.157 400.51C170.935 400.51 170.687 400.51 170.441 400.51C165.078 400.51 159.716 400.505 154.353 400.516C153.603 400.517 152.953 400.353 152.462 399.758C151.511 398.606 152.088 396.852 153.544 396.503C153.853 396.428 154.181 396.416 154.501 396.416C159.799 396.411 165.097 396.413 170.397 396.413C170.647 396.411 170.899 396.411 171.215 396.411Z" fill="#00A0DC"/>
<path d="M141.01 435.332C137.971 435.335 135.539 432.923 135.531 429.899C135.525 426.878 137.952 424.435 140.975 424.423C144.025 424.411 146.505 426.869 146.499 429.897C146.492 432.907 144.044 435.329 141.01 435.332Z" fill="#00A0DC"/>
<path d="M190.423 429.873C190.428 432.9 188.011 435.32 184.971 435.332C181.936 435.345 179.473 432.929 179.455 429.925C179.437 426.893 181.906 424.422 184.951 424.423C187.977 424.423 190.417 426.853 190.423 429.873Z" fill="#00A0DC"/>
<path d="M146.468 400.496C146.19 400.496 145.912 400.513 145.634 400.492C144.654 400.419 143.862 399.641 143.78 398.69C143.69 397.623 144.299 396.672 145.323 396.514C146.071 396.397 146.863 396.395 147.613 396.499C148.668 396.645 149.314 397.611 149.219 398.691C149.133 399.67 148.325 400.437 147.3 400.498C147.023 400.515 146.745 400.5 146.466 400.5C146.468 400.499 146.468 400.498 146.468 400.496Z" fill="#00A0DC"/>
<defs>
<filter id="filter0_d_32_2030" x="0" y="653.995" width="328" height="59" filterUnits="userSpaceOnUse" color-interpolation-filters="sRGB">
<feFlood flood-opacity="0" result="BackgroundImageFix"/>
<feColorMatrix in="SourceAlpha" type="matrix" values="0 0 0 0 0 0 0 0 0 0 0 0 0 0 0 0 0 0 127 0" result="hardAlpha"/>
<feOffset dx="1" dy="1"/>
<feGaussianBlur stdDeviation="2"/>
<feComposite in2="hardAlpha" operator="out"/>
<feColorMatrix type="matrix" values="0 0 0 0 0 0 0 0 0 0 0 0 0 0 0 0 0 0 0.15 0"/>
<feBlend mode="normal" in2="BackgroundImageFix" result="effect1_dropShadow_32_2030"/>
<feBlend mode="normal" in="SourceGraphic" in2="effect1_dropShadow_32_2030" result="shape"/>
</filter>
<filter id="filter1_d_32_2030" x="110" y="550.247" width="105.107" height="104.747" filterUnits="userSpaceOnUse" color-interpolation-filters="sRGB">
<feFlood flood-opacity="0" result="BackgroundImageFix"/>
<feColorMatrix in="SourceAlpha" type="matrix" values="0 0 0 0 0 0 0 0 0 0 0 0 0 0 0 0 0 0 127 0" result="hardAlpha"/>
<feOffset dy="4"/>
<feGaussianBlur stdDeviation="2"/>
<feComposite in2="hardAlpha" operator="out"/>
<feColorMatrix type="matrix" values="0 0 0 0 0 0 0 0 0 0 0 0 0 0 0 0 0 0 0.1 0"/>
<feBlend mode="normal" in2="BackgroundImageFix" result="effect1_dropShadow_32_2030"/>
<feBlend mode="normal" in="SourceGraphic" in2="effect1_dropShadow_32_2030" result="shape"/>
</filter>
<filter id="filter2_d_32_2030" x="0" y="103.747" width="328" height="60" filterUnits="userSpaceOnUse" color-interpolation-filters="sRGB">
<feFlood flood-opacity="0" result="BackgroundImageFix"/>
<feColorMatrix in="SourceAlpha" type="matrix" values="0 0 0 0 0 0 0 0 0 0 0 0 0 0 0 0 0 0 127 0" result="hardAlpha"/>
<feOffset dx="1" dy="1"/>
<feGaussianBlur stdDeviation="2"/>
<feComposite in2="hardAlpha" operator="out"/>
<feColorMatrix type="matrix" values="0 0 0 0 0 0 0 0 0 0 0 0 0 0 0 0 0 0 0.15 0"/>
<feBlend mode="normal" in2="BackgroundImageFix" result="effect1_dropShadow_32_2030"/>
<feBlend mode="normal" in="SourceGraphic" in2="effect1_dropShadow_32_2030" result="shape"/>
</filter>
<filter id="filter3_d_32_2030" x="111" y="0" width="104.75" height="104.75" filterUnits="userSpaceOnUse" color-interpolation-filters="sRGB">
<feFlood flood-opacity="0" result="BackgroundImageFix"/>
<feColorMatrix in="SourceAlpha" type="matrix" values="0 0 0 0 0 0 0 0 0 0 0 0 0 0 0 0 0 0 127 0" result="hardAlpha"/>
<feOffset dy="4"/>
<feGaussianBlur stdDeviation="2"/>
<feComposite in2="hardAlpha" operator="out"/>
<feColorMatrix type="matrix" values="0 0 0 0 0 0 0 0 0 0 0 0 0 0 0 0 0 0 0.1 0"/>
<feBlend mode="normal" in2="BackgroundImageFix" result="effect1_dropShadow_32_2030"/>
<feBlend mode="normal" in="SourceGraphic" in2="effect1_dropShadow_32_2030" result="shape"/>
</filter>
<filter id="filter4_d_32_2030" x="0" y="287.497" width="328" height="60" filterUnits="userSpaceOnUse" color-interpolation-filters="sRGB">
<feFlood flood-opacity="0" result="BackgroundImageFix"/>
<feColorMatrix in="SourceAlpha" type="matrix" values="0 0 0 0 0 0 0 0 0 0 0 0 0 0 0 0 0 0 127 0" result="hardAlpha"/>
<feOffset dx="1" dy="1"/>
<feGaussianBlur stdDeviation="2"/>
<feComposite in2="hardAlpha" operator="out"/>
<feColorMatrix type="matrix" values="0 0 0 0 0 0 0 0 0 0 0 0 0 0 0 0 0 0 0.15 0"/>
<feBlend mode="normal" in2="BackgroundImageFix" result="effect1_dropShadow_32_2030"/>
<feBlend mode="normal" in="SourceGraphic" in2="effect1_dropShadow_32_2030" result="shape"/>
</filter>
<filter id="filter5_d_32_2030" x="111" y="183.747" width="104.75" height="104.75" filterUnits="userSpaceOnUse" color-interpolation-filters="sRGB">
<feFlood flood-opacity="0" result="BackgroundImageFix"/>
<feColorMatrix in="SourceAlpha" type="matrix" values="0 0 0 0 0 0 0 0 0 0 0 0 0 0 0 0 0 0 127 0" result="hardAlpha"/>
<feOffset dy="4"/>
<feGaussianBlur stdDeviation="2"/>
<feComposite in2="hardAlpha" operator="out"/>
<feColorMatrix type="matrix" values="0 0 0 0 0 0 0 0 0 0 0 0 0 0 0 0 0 0 0.1 0"/>
<feBlend mode="normal" in2="BackgroundImageFix" result="effect1_dropShadow_32_2030"/>
<feBlend mode="normal" in="SourceGraphic" in2="effect1_dropShadow_32_2030" result="shape"/>
</filter>
<filter id="filter6_d_32_2030" x="0" y="471.247" width="328" height="59" filterUnits="userSpaceOnUse" color-interpolation-filters="sRGB">
<feFlood flood-opacity="0" result="BackgroundImageFix"/>
<feColorMatrix in="SourceAlpha" type="matrix" values="0 0 0 0 0 0 0 0 0 0 0 0 0 0 0 0 0 0 127 0" result="hardAlpha"/>
<feOffset dx="1" dy="1"/>
<feGaussianBlur stdDeviation="2"/>
<feComposite in2="hardAlpha" operator="out"/>
<feColorMatrix type="matrix" values="0 0 0 0 0 0 0 0 0 0 0 0 0 0 0 0 0 0 0.15 0"/>
<feBlend mode="normal" in2="BackgroundImageFix" result="effect1_dropShadow_32_2030"/>
<feBlend mode="normal" in="SourceGraphic" in2="effect1_dropShadow_32_2030" result="shape"/>
</filter>
<filter id="filter7_d_32_2030" x="111" y="367.497" width="104.033" height="104.75" filterUnits="userSpaceOnUse" color-interpolation-filters="sRGB">
<feFlood flood-opacity="0" result="BackgroundImageFix"/>
<feColorMatrix in="SourceAlpha" type="matrix" values="0 0 0 0 0 0 0 0 0 0 0 0 0 0 0 0 0 0 127 0" result="hardAlpha"/>
<feOffset dy="4"/>
<feGaussianBlur stdDeviation="2"/>
<feComposite in2="hardAlpha" operator="out"/>
<feColorMatrix type="matrix" values="0 0 0 0 0 0 0 0 0 0 0 0 0 0 0 0 0 0 0.1 0"/>
<feBlend mode="normal" in2="BackgroundImageFix" result="effect1_dropShadow_32_2030"/>
<feBlend mode="normal" in="SourceGraphic" in2="effect1_dropShadow_32_2030" result="shape"/>
</filter>
</defs>
</svg>
