<svg width="54" height="54" viewBox="0 0 54 54" fill="none" xmlns="http://www.w3.org/2000/svg">
<path d="M14.5076 20.1812C14.9333 16.35 15.1462 14.4344 15.9984 12.972C16.846 11.5174 18.131 10.3673 19.6703 9.68548C21.2178 9 23.1452 9 27 9V9C30.8548 9 32.7822 9 34.3297 9.68548C35.869 10.3673 37.154 11.5174 38.0016 12.972C38.8538 14.4344 39.0667 16.35 39.4924 20.1812L40.1144 25.7793C40.3064 27.5079 40.4025 28.3722 40.6784 29.1898C40.9544 30.0073 41.4018 30.753 42.2966 32.2444L45.4326 37.471C46.2384 38.8139 46.6412 39.4854 46.354 39.9927C46.0668 40.5 45.2837 40.5 43.7176 40.5H10.2824C8.71627 40.5 7.93322 40.5 7.64599 39.9927C7.35876 39.4854 7.76164 38.8139 8.56739 37.471L11.7034 32.2444C12.5982 30.753 13.0456 30.0073 13.3216 29.1898C13.5975 28.3722 13.6936 27.5079 13.8856 25.7793L14.5076 20.1812Z" stroke="#00A0DC" stroke-width="2"/>
<path d="M20.48 41.4132C20.8646 43.0877 21.712 44.5673 22.8909 45.6227C24.0697 46.678 25.5141 47.25 27 47.25C28.4859 47.25 29.9303 46.678 31.1091 45.6227C32.288 44.5673 33.1354 43.0877 33.52 41.4132" stroke="#00A0DC" stroke-width="2" stroke-linecap="round"/>
</svg>
