<svg width="36" height="41" viewBox="0 0 36 41" fill="none" xmlns="http://www.w3.org/2000/svg">
<mask id="path-1-outside-1_1668_843" maskUnits="userSpaceOnUse" x="0.25" y="0.343262" width="36" height="41" fill="black">
<rect fill="white" x="0.25" y="0.343262" width="36" height="41"/>
<path fill-rule="evenodd" clip-rule="evenodd" d="M32.3863 7.91505L20.659 2.88903C18.961 2.16134 17.039 2.16134 15.341 2.88903L3.61368 7.91505C2.78639 8.2696 2.25 9.08306 2.25 9.98312V21.8021C2.25 26.162 4.35554 30.2534 7.90328 32.7875L15.3844 38.1312C16.9491 39.2488 19.0509 39.2488 20.6156 38.1312L28.0967 32.7875C31.6445 30.2534 33.75 26.162 33.75 21.8021V9.98312C33.75 9.08306 33.2136 8.2696 32.3863 7.91505ZM25.5309 15.8747C25.8759 15.4434 25.806 14.8141 25.3747 14.4691C24.9434 14.1241 24.3141 14.194 23.9691 14.6253L15.6671 25.0029L11.9571 21.2929C11.5666 20.9024 10.9334 20.9024 10.5429 21.2929C10.1524 21.6834 10.1524 22.3166 10.5429 22.7071L14.6479 26.8121C15.2801 27.4443 16.3214 27.3866 16.8798 26.6885L25.5309 15.8747Z"/>
</mask>
<path d="M20.659 2.88903L21.4468 1.05074L21.4468 1.05074L20.659 2.88903ZM32.3863 7.91505L33.1742 6.07676L32.3863 7.91505ZM15.341 2.88903L16.1289 4.72732L16.1289 4.72732L15.341 2.88903ZM3.61368 7.91505L4.40152 9.75334L4.40152 9.75334L3.61368 7.91505ZM7.90328 32.7875L9.06576 31.1601L9.06576 31.1601L7.90328 32.7875ZM15.3844 38.1312L16.5469 36.5037L16.5469 36.5037L15.3844 38.1312ZM20.6156 38.1312L21.778 39.7587L21.778 39.7587L20.6156 38.1312ZM28.0967 32.7875L26.9342 31.1601L26.9342 31.1601L28.0967 32.7875ZM25.3747 14.4691L26.6241 12.9074L26.6241 12.9074L25.3747 14.4691ZM25.5309 15.8747L23.9691 14.6253L23.9691 14.6253L25.5309 15.8747ZM23.9691 14.6253L25.5309 15.8747L25.5309 15.8747L23.9691 14.6253ZM15.6671 25.0029L14.2529 26.4171L15.8329 27.9971L17.2288 26.2523L15.6671 25.0029ZM11.9571 21.2929L13.3713 19.8787L13.3713 19.8787L11.9571 21.2929ZM10.5429 21.2929L9.12868 19.8787L9.12868 19.8787L10.5429 21.2929ZM10.5429 22.7071L9.12868 24.1213L9.12868 24.1213L10.5429 22.7071ZM14.6479 26.8121L16.0621 25.3979L16.0621 25.3979L14.6479 26.8121ZM16.8798 26.6885L18.4416 27.9379L18.4416 27.9379L16.8798 26.6885ZM19.8711 4.72732L31.5985 9.75334L33.1742 6.07676L21.4468 1.05074L19.8711 4.72732ZM16.1289 4.72732C17.3237 4.21524 18.6763 4.21524 19.8711 4.72732L21.4468 1.05074C19.2457 0.107435 16.7543 0.107434 14.5532 1.05074L16.1289 4.72732ZM4.40152 9.75334L16.1289 4.72732L14.5532 1.05074L2.82584 6.07676L4.40152 9.75334ZM4.25 9.98312C4.25 9.88312 4.3096 9.79273 4.40152 9.75334L2.82584 6.07676C1.26319 6.74646 0.25 8.283 0.25 9.98312H4.25ZM4.25 21.8021V9.98312H0.25V21.8021H4.25ZM9.06576 31.1601C6.04361 29.0014 4.25 25.5161 4.25 21.8021H0.25C0.25 26.8079 2.66747 31.5055 6.74081 34.415L9.06576 31.1601ZM16.5469 36.5037L9.06576 31.1601L6.74081 34.415L14.222 39.7587L16.5469 36.5037ZM19.4531 36.5037C18.5839 37.1246 17.4161 37.1246 16.5469 36.5037L14.2219 39.7587C16.482 41.373 19.518 41.373 21.778 39.7587L19.4531 36.5037ZM26.9342 31.1601L19.4531 36.5038L21.778 39.7587L29.2592 34.415L26.9342 31.1601ZM31.75 21.8021C31.75 25.5161 29.9564 29.0014 26.9342 31.1601L29.2592 34.415C33.3325 31.5055 35.75 26.8079 35.75 21.8021H31.75ZM31.75 9.98312V21.8021H35.75V9.98312H31.75ZM31.5985 9.75334C31.6904 9.79273 31.75 9.88311 31.75 9.98312H35.75C35.75 8.283 34.7368 6.74647 33.1742 6.07676L31.5985 9.75334ZM24.1253 16.0309C23.694 15.6859 23.6241 15.0566 23.9691 14.6253L27.0926 17.1241C28.1276 15.8303 27.9179 13.9424 26.6241 12.9074L24.1253 16.0309ZM25.5309 15.8747C25.1859 16.306 24.5566 16.3759 24.1253 16.0309L26.6241 12.9074C25.3303 11.8724 23.4424 12.0821 22.4074 13.3759L25.5309 15.8747ZM17.2288 26.2523L25.5309 15.8747L22.4074 13.3759L14.1053 23.7535L17.2288 26.2523ZM10.5429 22.7071L14.2529 26.4171L17.0813 23.5887L13.3713 19.8787L10.5429 22.7071ZM11.9571 22.7071C11.5666 23.0976 10.9334 23.0976 10.5429 22.7071L13.3713 19.8787C12.1997 18.7071 10.3003 18.7071 9.12868 19.8787L11.9571 22.7071ZM11.9571 21.2929C12.3476 21.6834 12.3476 22.3166 11.9571 22.7071L9.12868 19.8787C7.95711 21.0503 7.95711 22.9497 9.12868 24.1213L11.9571 21.2929ZM16.0621 25.3979L11.9571 21.2929L9.12868 24.1213L13.2337 28.2263L16.0621 25.3979ZM15.3181 25.4391C15.5043 25.2064 15.8514 25.1872 16.0621 25.3979L13.2337 28.2263C14.7087 29.7014 17.1384 29.5668 18.4416 27.9379L15.3181 25.4391ZM23.9691 14.6253L15.3181 25.4391L18.4416 27.9379L27.0926 17.1241L23.9691 14.6253Z" fill="#00A0DC" mask="url(#path-1-outside-1_1668_843)"/>
</svg>
