<svg width="54" height="52" viewBox="0 0 54 52" fill="none" xmlns="http://www.w3.org/2000/svg">
<path d="M43.875 25.6499C43.875 37.0181 30.0032 44.4645 27.4136 45.7556C27.1522 45.8859 26.8478 45.8859 26.5864 45.7556C23.9968 44.4645 10.125 37.0181 10.125 25.6499C10.125 16.0312 18.3015 9.61865 27 9.61865C36 9.61865 43.875 16.0312 43.875 25.6499Z" stroke="#00A0DC" stroke-width="2"/>
<path d="M35 25.6501C35 29.7721 31.4672 33.2001 27 33.2001C22.5328 33.2001 19 29.7721 19 25.6501C19 21.5281 22.5328 18.1001 27 18.1001C31.4672 18.1001 35 21.5281 35 25.6501Z" stroke="#00A0DC" stroke-width="2"/>
</svg>
