<svg width="178" height="178" viewBox="0 0 178 178" fill="none" xmlns="http://www.w3.org/2000/svg">
<path d="M152.428 178H25.5718C11.4527 178 0 166.547 0 152.421V25.5694C0 11.4479 11.4479 0 25.5694 0H152.431C166.557 0 178 11.4527 178 25.5694V152.421C178.009 166.547 166.557 178 152.428 178Z" fill="#00A0DC"/>
<path d="M118.942 130.09C118.942 135.127 118.947 140.161 118.94 145.2C118.938 146.513 118.272 147.428 117.236 147.3C116.615 147.224 115.935 146.814 115.48 146.356C108.483 139.381 101.514 132.379 94.5604 125.361C94.001 124.793 93.444 124.558 92.6429 124.56C82.2213 124.586 71.7996 124.589 61.378 124.567C59.9511 124.565 58.5053 124.529 57.0998 124.314C44.5711 122.382 35.9602 112.316 35.9484 99.6213C35.9365 88.555 35.9365 77.4934 35.9579 66.427C35.9602 65.0357 36.0195 63.6231 36.2423 62.2532C38.2356 50.0207 48.2757 41.4857 60.6788 41.4762C79.3913 41.462 98.1062 41.4667 116.821 41.4857C118.21 41.4881 119.62 41.5497 120.983 41.7891C133.128 43.9317 141.528 53.8556 141.594 66.1995C141.653 77.5218 141.663 88.8418 141.63 100.166C141.599 110.588 134.969 119.784 125.107 123.086C123.142 123.743 121.073 124.084 118.947 124.601C118.942 126.35 118.942 128.22 118.942 130.09ZM115.42 123.546C115.42 121.553 115.83 121.128 117.852 121.017C128.089 120.439 135.842 113.745 137.759 103.781C137.987 102.598 138.093 101.373 138.096 100.169C138.108 88.8465 138.119 77.5266 138.065 66.2019C138.018 55.7186 131.106 47.3661 120.855 45.3586C119.535 45.1002 118.16 45.0125 116.809 45.0102C98.0564 44.9864 79.3083 44.9841 60.5579 45.0007C48.6715 45.0102 39.5131 54.1685 39.4728 66.1023C39.4349 77.2042 39.461 88.3037 39.4657 99.408C39.4705 111.887 48.4961 120.993 60.9608 121.036C71.4915 121.071 82.0246 121.09 92.5552 121C94.4798 120.984 95.8213 121.555 97.1534 122.927C102.839 128.77 108.63 134.51 114.387 140.286C114.659 140.561 114.951 140.822 115.42 141.265C115.42 135.162 115.42 129.355 115.42 123.546Z" fill="white"/>
<path d="M117.425 148.661C117.306 148.661 117.188 148.654 117.067 148.64C116.202 148.533 115.249 148.038 114.521 147.31C108.091 140.899 101.246 134.03 93.5974 126.311C93.2869 125.998 93.0831 125.91 92.6541 125.91C92.6517 125.91 92.647 125.91 92.6446 125.91C82.2159 125.936 71.6947 125.939 61.3726 125.917C59.941 125.915 58.4075 125.879 56.8906 125.649C50.42 124.652 44.8548 121.62 40.7995 116.882C36.7441 112.147 34.5967 106.178 34.592 99.6202C34.5777 87.3949 34.5801 76.5347 34.6015 66.4236C34.6038 64.6483 34.6986 63.2949 34.9025 62.0364C37.0024 49.145 47.5995 40.136 60.6734 40.1241C78.5919 40.1099 96.9583 40.1123 116.82 40.1336C118.61 40.136 119.966 40.2379 121.217 40.4583C127.493 41.5652 132.9 44.6227 136.851 49.2967C140.804 53.9754 142.911 59.8179 142.944 66.1937C143.001 77.2363 143.013 88.6677 142.98 100.172C142.947 111.165 135.936 120.89 125.533 124.37C124.13 124.839 122.672 125.156 121.262 125.462C120.942 125.531 120.62 125.602 120.293 125.676C120.29 127.107 120.29 128.6 120.29 130.091V134.365C120.29 137.977 120.293 141.589 120.288 145.201C120.286 146.379 119.892 147.374 119.179 148.003C118.693 148.432 118.079 148.661 117.425 148.661ZM92.6565 123.203C93.8013 123.203 94.7138 123.587 95.5244 124.407C103.168 132.12 110.009 138.986 116.436 145.395C116.764 145.722 117.176 145.926 117.401 145.952C117.403 145.952 117.408 145.952 117.411 145.952C117.465 145.886 117.586 145.649 117.588 145.194C117.593 141.584 117.593 137.974 117.591 134.362V130.086C117.591 128.216 117.591 126.344 117.595 124.592L117.598 123.531L118.629 123.282C119.328 123.113 120.02 122.962 120.691 122.815C122.092 122.509 123.414 122.222 124.678 121.8C133.978 118.688 140.247 109.992 140.276 100.161C140.309 88.6653 140.297 77.241 140.24 66.2055C140.178 54.4423 132.345 45.1655 120.748 43.1224C119.655 42.9304 118.444 42.8427 116.818 42.838C96.9583 42.8167 78.5942 42.8143 60.6781 42.8285C48.9576 42.838 39.4579 50.9155 37.576 62.4701C37.3935 63.5817 37.3129 64.8024 37.3106 66.4283C37.2892 76.5395 37.2869 87.3949 37.3011 99.6178C37.3129 111.746 45.3526 121.132 57.3053 122.976C58.6421 123.18 60.0547 123.211 61.3797 123.213C71.6994 123.232 82.2159 123.23 92.6375 123.206C92.647 123.203 92.6517 123.203 92.6565 123.203ZM116.768 144.393L114.099 141.885C113.836 141.641 113.63 141.447 113.426 141.243C111.959 139.769 110.49 138.301 109.023 136.832C104.797 132.604 100.426 128.231 96.1809 123.869C95.0906 122.748 94.1094 122.341 92.564 122.353C81.6494 122.447 70.5238 122.421 60.953 122.388C47.7227 122.343 38.1164 112.678 38.1093 99.4069C38.1093 96.6954 38.1046 93.9863 38.1022 91.2748C38.0951 83.0219 38.088 74.4893 38.1164 66.0965C38.1378 59.9649 40.4439 54.293 44.6131 50.1215C48.7822 45.95 54.4422 43.651 60.5549 43.6462C79.6916 43.632 98.6175 43.6344 116.811 43.6557C118.442 43.6581 119.849 43.7813 121.115 44.0278C132.011 46.161 139.368 55.0681 139.418 66.1913C139.47 77.1249 139.463 88.0467 139.448 100.165C139.446 101.5 139.325 102.801 139.088 104.031C137.062 114.555 128.757 121.751 117.927 122.362C117.216 122.402 116.955 122.476 116.863 122.514C116.832 122.601 116.773 122.86 116.773 123.54C116.773 129.347 116.773 135.156 116.771 141.259L116.768 144.393ZM92.6328 119.646C94.8536 119.646 96.5483 120.369 98.1174 121.983C102.348 126.33 106.712 130.696 110.933 134.919C111.976 135.962 113.021 137.007 114.064 138.053C114.066 133.106 114.066 128.325 114.066 123.545C114.066 120.831 115.038 119.814 117.776 119.665C127.47 119.117 134.618 112.933 136.429 103.524C136.633 102.46 136.739 101.329 136.742 100.165C136.756 88.0514 136.763 77.1344 136.711 66.2079C136.666 56.4096 130.188 48.5667 120.594 46.6871C119.501 46.4738 118.261 46.3672 116.806 46.3648C98.6175 46.3435 79.6916 46.3387 60.5572 46.3553C49.3439 46.3648 40.8611 54.8571 40.8232 66.1083C40.7947 74.4964 40.8018 83.0266 40.8089 91.2748C40.8113 93.9863 40.8137 96.6978 40.816 99.4069C40.8208 111.116 49.2942 119.643 60.9625 119.684C70.5262 119.715 81.6423 119.743 92.5403 119.648C92.5711 119.646 92.602 119.646 92.6328 119.646Z" fill="white"/>
<path d="M96.7002 68.9906C96.7642 74.9801 91.8982 79.8911 85.8211 79.9716C79.834 80.0522 74.8211 75.1507 74.7643 69.1542C74.7026 63.1245 79.5733 58.1044 85.5391 58.0428C91.7157 57.9788 96.6338 62.8045 96.7002 68.9906ZM92.8321 69.0286C92.8416 65.0964 89.6655 61.9157 85.7263 61.9133C81.8748 61.9109 78.6608 65.0917 78.6324 68.9361C78.6039 72.873 81.7728 76.0869 85.6907 76.0964C89.6537 76.1106 92.8202 72.9749 92.8321 69.0286Z" fill="white"/>
<path d="M85.6655 80.3128C82.7383 80.3128 79.9605 79.1728 77.8297 77.0894C75.6586 74.9681 74.4474 72.1523 74.4166 69.1588C74.3526 62.9063 79.3371 57.7701 85.5256 57.7061C88.6163 57.6753 91.4866 58.8177 93.6411 60.9295C95.7956 63.0414 96.9996 65.9022 97.0328 68.9858C97.0968 75.1458 92.0673 80.2251 85.8195 80.3081C85.7674 80.3128 85.7152 80.3128 85.6655 80.3128ZM85.6536 58.384C85.6133 58.384 85.573 58.384 85.5327 58.384C79.7163 58.4432 75.0352 63.2736 75.0945 69.154C75.1229 71.9651 76.2606 74.6126 78.3037 76.6082C80.3421 78.5992 83.0132 79.6729 85.81 79.6373C91.6857 79.5591 96.4189 74.7856 96.3573 68.9976C96.3265 66.0942 95.1936 63.4016 93.1694 61.4178C91.1714 59.4577 88.5073 58.384 85.6536 58.384ZM85.7081 76.4352C85.6986 76.4352 85.6915 76.4352 85.6821 76.4352C83.703 76.4305 81.8447 75.6507 80.4463 74.2381C79.0385 72.8183 78.2729 70.934 78.2871 68.9312C78.3156 64.8735 81.648 61.5742 85.7129 61.5742C85.7152 61.5742 85.7152 61.5742 85.7176 61.5742C87.7157 61.5766 89.5905 62.3516 90.996 63.7619C92.3991 65.1674 93.1671 67.0399 93.1623 69.0284C93.1505 73.1881 89.8773 76.4352 85.7081 76.4352ZM85.7152 62.2521C82.0818 62.2521 78.9911 65.312 78.965 68.9384C78.9531 70.7587 79.65 72.4723 80.9299 73.764C82.2003 75.0463 83.8878 75.755 85.6868 75.7597C85.6939 75.7597 85.701 75.7597 85.7105 75.7597C89.5028 75.7597 92.4773 72.8065 92.4892 69.0284C92.4939 67.22 91.7947 65.5206 90.5196 64.2407C89.2421 62.9584 87.5379 62.2521 85.72 62.2521C85.7176 62.2521 85.7176 62.2521 85.7152 62.2521Z" fill="white"/>
<path d="M101.937 88.2764L100.375 90.7414C100.233 90.9689 99.9247 91.0377 99.6948 90.8955L97.0686 89.2316C95.1156 88.1413 93.0014 87.6697 90.6999 87.7028C87.1091 87.755 83.5231 87.7147 79.9346 87.6957C74.0495 87.6554 69.3921 92.3744 69.5462 98.2525C69.5675 99.0536 69.6196 99.8666 69.7618 100.656C70.16 102.851 71.4778 104.09 73.694 104.379C74.3529 104.467 75.6802 104.408 75.6802 104.408H82.2716C82.2716 104.408 82.3001 104.5 82.319 104.645H95.0042C95.3858 104.5 95.6346 105.195 95.6346 105.195V107.712C95.6346 107.712 95.3881 108.406 95.0042 108.437H82.319C82.2716 108.406 82.2313 108.385 82.1934 108.378C79.8019 108.385 77.4199 108.385 75.0213 108.371C73.419 108.364 71.85 108.086 70.3899 107.401C67.9178 106.238 66.4697 104.242 66.0146 101.611C65.1732 96.7901 66.0667 92.3318 69.2333 88.5016C71.4162 85.8541 74.3576 84.5078 77.7019 84.0694C79.1359 83.8869 80.5959 83.8655 82.0441 83.8537C85.1869 83.8205 88.3393 83.8134 91.4845 83.8418C94.1225 83.8537 96.5614 84.496 98.7965 85.7546C98.8652 85.7617 98.9244 85.783 98.9837 85.8233L101.785 87.5867C102.013 87.7384 102.079 88.0394 101.937 88.2764Z" fill="white"/>
<path d="M95.0171 108.774H82.2182L82.1328 108.72C82.1305 108.717 82.1281 108.717 82.1281 108.715C79.4403 108.725 77.1792 108.72 75.0176 108.708C73.2494 108.699 71.6425 108.362 70.244 107.708C67.7009 106.511 66.1673 104.48 65.6791 101.669C64.7808 96.5182 65.8877 92.0173 68.9713 88.2866C71.0641 85.7481 73.9889 84.217 77.658 83.7359C79.0658 83.5581 80.4761 83.532 82.0404 83.5178C85.3871 83.4823 88.4754 83.4775 91.4855 83.506C94.1425 83.5178 96.6407 84.1672 98.9066 85.4329C99.0014 85.4519 99.0867 85.4898 99.1673 85.5443L101.962 87.303C102.346 87.559 102.459 88.0614 102.222 88.4525L102.218 88.4596L100.656 90.9246C100.416 91.3109 99.902 91.4271 99.5109 91.1853L96.8824 89.5215C95.0479 88.4975 93.0167 88.014 90.701 88.0448C87.7501 88.0875 84.7519 88.0685 81.8532 88.0496L79.9286 88.0377C77.1697 88.014 74.5981 89.0735 72.6972 91.0099C70.8082 92.9369 69.8079 95.5062 69.879 98.2461C69.9027 99.187 69.9691 99.9336 70.09 100.597C70.4621 102.647 71.6519 103.776 73.7329 104.046C74.3563 104.129 75.6457 104.072 75.6575 104.072H82.5144L82.5879 104.309H94.9484C95.0906 104.271 95.2352 104.285 95.3703 104.349C95.7305 104.515 95.9154 104.989 95.9486 105.084L95.9675 105.139V107.772L95.9486 107.826C95.8964 107.976 95.6002 108.729 95.0266 108.777L95.0171 108.774ZM82.4078 108.097H94.9815C95.0527 108.078 95.2043 107.874 95.2968 107.646V105.255C95.2423 105.129 95.1593 105.001 95.1048 104.966L95.0669 104.98H95.0029H82.0238L81.9906 104.743H75.6765C75.6362 104.745 74.3279 104.804 73.6453 104.712C71.2703 104.401 69.8506 103.058 69.4263 100.713C69.3007 100.014 69.2296 99.2344 69.2059 98.2579C69.1301 95.3331 70.199 92.5885 72.2184 90.5312C74.2473 88.462 76.9943 87.3433 79.9357 87.3551L81.8603 87.367C84.7566 87.3859 87.7501 87.4049 90.6939 87.3622C93.1376 87.3267 95.2754 87.841 97.2308 88.9337L99.8736 90.607C99.9423 90.6497 100.042 90.6283 100.085 90.5596L101.644 88.097C101.692 88.0164 101.67 87.9169 101.592 87.8671L98.7975 86.1084C98.7762 86.0942 98.7691 86.0918 98.7525 86.0895L98.6838 86.0823L98.6245 86.0492C96.4439 84.8214 94.0406 84.1933 91.4784 84.1815C88.4707 84.1554 85.3847 84.1601 82.0428 84.1933C80.4998 84.2075 79.1085 84.2312 77.7385 84.4066C74.2449 84.8641 71.4694 86.3146 69.488 88.718C66.5371 92.2898 65.4776 96.6083 66.3404 101.552C66.7883 104.134 68.1962 105.999 70.5261 107.094C71.8344 107.708 73.3442 108.023 75.0152 108.03C77.191 108.044 79.4688 108.047 82.185 108.037H82.2182L82.2513 108.044C82.313 108.056 82.3627 108.075 82.4078 108.097Z" fill="white"/>
<path d="M106.779 93.2002V106.843C106.779 106.935 106.706 107.014 106.611 107.014H103.153C103.063 107.014 102.984 106.938 102.984 106.843V93.2002C102.984 93.1078 103.058 93.0295 103.153 93.0295H106.611C106.703 93.0295 106.779 93.1078 106.779 93.2002Z" fill="white"/>
<path d="M106.608 107.352H103.15C102.871 107.352 102.646 107.125 102.646 106.843V93.2023C102.646 92.9203 102.873 92.6927 103.15 92.6927H106.608C106.888 92.6927 107.113 92.9203 107.113 93.2023V106.843C107.116 107.122 106.888 107.352 106.608 107.352ZM103.323 106.674H106.44V93.3659H103.323V106.674Z" fill="white"/>
<path d="M97.9402 98.0065H111.581C111.673 98.0065 111.751 98.0799 111.751 98.1747V101.633C111.751 101.723 111.675 101.801 111.581 101.801H97.9402C97.8477 101.801 97.7695 101.728 97.7695 101.633V98.1747C97.7695 98.0823 97.8454 98.0065 97.9402 98.0065Z" fill="white"/>
<path d="M111.581 102.137H97.9403C97.6582 102.137 97.4307 101.91 97.4307 101.633V98.1745C97.4307 97.8948 97.6582 97.6697 97.9403 97.6697H111.581C111.863 97.6697 112.09 97.8972 112.09 98.1745V101.633C112.09 101.91 111.86 102.137 111.581 102.137ZM98.1062 101.46H111.415V98.3428H98.1062V101.46Z" fill="white"/>
</svg>
