<svg width="19" height="19" viewBox="0 0 19 19" fill="none" xmlns="http://www.w3.org/2000/svg">
<g opacity="0.6">
<path d="M9.17424 0C4.11556 0 0 4.11556 0 9.17424C0 14.2329 4.11556 18.3485 9.17424 18.3485C14.2329 18.3485 18.3485 14.2329 18.3485 9.17424C18.3485 4.11556 14.2329 0 9.17424 0ZM9.17424 16.5136C5.12748 16.5136 1.83485 13.221 1.83485 9.17424C1.83485 5.12748 5.12748 1.83485 9.17424 1.83485C13.221 1.83485 16.5136 5.12748 16.5136 9.17424C16.5136 13.221 13.221 16.5136 9.17424 16.5136Z" fill="#1B1A57"/>
<path d="M11.7699 11.7677C11.4345 12.102 11.0384 12.3691 10.6029 12.5549C9.81878 12.8859 8.944 12.9342 8.12819 12.6916C7.31237 12.4489 6.6062 11.9304 6.13046 11.2246L4.60938 12.2512C5.0061 12.8366 5.51083 13.3411 6.09652 13.7374C6.69252 14.1405 7.36218 14.422 8.06714 14.5659C8.79814 14.715 9.55172 14.715 10.2827 14.5659C10.9876 14.4218 11.6572 14.1403 12.2533 13.7374C12.5405 13.5429 12.8148 13.3173 13.0662 13.0668C13.3157 12.8182 13.5432 12.5429 13.7396 12.2512L12.2185 11.2246C12.0866 11.4196 11.9364 11.6014 11.7699 11.7677Z" fill="#1B1A57"/>
<path d="M12.3795 9.1613C13.136 9.1613 13.7492 8.54806 13.7492 7.79159C13.7492 7.03512 13.136 6.42188 12.3795 6.42188C11.623 6.42188 11.0098 7.03512 11.0098 7.79159C11.0098 8.54806 11.623 9.1613 12.3795 9.1613Z" fill="#1B1A57"/>
<path d="M5.96403 9.17415C6.72404 9.17415 7.34016 8.55803 7.34016 7.79801C7.34016 7.03799 6.72404 6.42188 5.96403 6.42188C5.20401 6.42188 4.58789 7.03799 4.58789 7.79801C4.58789 8.55803 5.20401 9.17415 5.96403 9.17415Z" fill="#1B1A57"/>
</g>
</svg>
