<svg width="22" height="22" viewBox="0 0 22 22" fill="none" xmlns="http://www.w3.org/2000/svg">
<rect x="1.58984" y="1.22559" width="18.5695" height="19.7064" fill="white"/>
<path d="M18.2774 0.466797H3.59858C2.76435 0.466797 1.96429 0.798192 1.37441 1.38808C0.78452 1.97797 0.453125 2.77802 0.453125 3.61225V18.291C0.453125 19.1252 0.78452 19.9253 1.37441 20.5152C1.96429 21.1051 2.76435 21.4365 3.59858 21.4365H18.2774C19.1116 21.4365 19.9116 21.1051 20.5015 20.5152C21.0914 19.9253 21.4228 19.1252 21.4228 18.291V3.61225C21.4228 2.77802 21.0914 1.97797 20.5015 1.38808C19.9116 0.798192 19.1116 0.466797 18.2774 0.466797ZM8.841 5.70922C9.25574 5.70922 9.66117 5.8322 10.006 6.06262C10.3509 6.29304 10.6196 6.62054 10.7783 7.00371C10.9371 7.38688 10.9786 7.80851 10.8977 8.21528C10.8168 8.62206 10.617 8.9957 10.3238 9.28896C10.0305 9.58223 9.65687 9.78195 9.25009 9.86286C8.84332 9.94377 8.42169 9.90225 8.03852 9.74353C7.65535 9.58482 7.32785 9.31604 7.09743 8.9712C6.86701 8.62635 6.74403 8.22093 6.74403 7.80618C6.74403 7.25003 6.96496 6.71666 7.35822 6.3234C7.75147 5.93015 8.28485 5.70922 8.841 5.70922ZM6.2093 19.3395H3.59858C3.37665 19.3357 3.16165 19.2616 2.98454 19.1278C2.80743 18.994 2.67734 18.8075 2.613 18.5951L5.85282 14.7052C5.95726 14.5884 6.0848 14.4946 6.22737 14.4296C6.36995 14.3646 6.52445 14.3299 6.68112 14.3278C6.84034 14.331 6.99673 14.3704 7.13843 14.4431C7.28013 14.5157 7.40342 14.6197 7.49894 14.7471L8.54742 16.1416L6.2093 19.3395ZM19.3258 18.291C19.3258 18.5691 19.2154 18.8358 19.0187 19.0324C18.8221 19.229 18.5554 19.3395 18.2774 19.3395H8.841L14.5762 11.4549C14.6651 11.3322 14.7796 11.2302 14.9117 11.156C15.0439 11.0818 15.1905 11.0371 15.3416 11.025C15.4935 11.0125 15.6462 11.0332 15.7893 11.0857C15.9323 11.1382 16.0622 11.2213 16.1699 11.3291L19.3258 14.527V18.291Z" fill="#0077B5"/>
</svg>
