<svg width="6" height="22" viewBox="0 0 6 22" fill="none" xmlns="http://www.w3.org/2000/svg">
<path d="M2.62121 8.33043C1.17954 8.33043 0 9.50997 0 10.9516C0 12.3933 1.17954 13.5728 2.62121 13.5728C4.06288 13.5728 5.24242 12.3933 5.24242 10.9516C5.24242 9.50997 4.06288 8.33043 2.62121 8.33043ZM2.62121 0.466797C1.17954 0.466797 0 1.64634 0 3.08801C0 4.52967 1.17954 5.70922 2.62121 5.70922C4.06288 5.70922 5.24242 4.52967 5.24242 3.08801C5.24242 1.64634 4.06288 0.466797 2.62121 0.466797ZM2.62121 16.1941C1.17954 16.1941 0 17.3736 0 18.8153C0 20.2569 1.17954 21.4365 2.62121 21.4365C4.06288 21.4365 5.24242 20.2569 5.24242 18.8153C5.24242 17.3736 4.06288 16.1941 2.62121 16.1941Z" fill="#0077B5"/>
</svg>
