<svg width="20" height="15" viewBox="0 0 20 15" fill="none" xmlns="http://www.w3.org/2000/svg">
<path d="M10.4177 9.32071L17.8 2.92273V12.2139C17.8 12.4828 17.5814 12.7014 17.3125 12.7014H2.68751C2.41857 12.7014 2.2 12.4828 2.2 12.2138V2.92273L9.58228 9.32071L9.58234 9.32076C9.70246 9.42466 9.85131 9.47637 10 9.47637C10.1487 9.47637 10.2975 9.42471 10.4177 9.32075L10.4177 9.32071ZM17.3125 0.326367H2.68751C1.71554 0.326367 0.925 1.11691 0.925 2.08888V12.2139C0.925 13.1858 1.71554 13.9764 2.68751 13.9764H17.3125C18.2845 13.9764 19.075 13.1858 19.075 12.2139V2.08888C19.075 1.11691 18.2845 0.326367 17.3125 0.326367ZM17.3125 1.60136C17.3329 1.60136 17.3531 1.60267 17.3729 1.6052L10 7.9953L2.62715 1.60524C2.64714 1.6027 2.6673 1.6014 2.68752 1.60136C2.68755 1.60136 2.68757 1.60136 2.68759 1.60136L17.3125 1.60136Z" fill="white" stroke="white" stroke-width="0.15"/>
</svg>
