<svg width="64" height="28" viewBox="0 0 64 28" fill="none" xmlns="http://www.w3.org/2000/svg">
<g clip-path="url(#clip0_21_660)">
<path d="M3.74827 9.14709C3.28306 9.14709 2.88835 9.30932 2.56389 9.63378C2.23943 9.95824 2.07715 10.3476 2.07715 10.802V17.7791C2.07715 18.2449 2.23938 18.6393 2.56389 18.9638C2.88835 19.2882 3.28306 19.4505 3.74827 19.4505C4.21314 19.4505 4.60546 19.2883 4.92489 18.9638C5.24369 18.6393 5.40352 18.2449 5.40352 17.7791V10.802C5.40352 10.3475 5.24129 9.95824 4.91678 9.63378C4.59228 9.30932 4.20269 9.14709 3.74827 9.14709ZM17.1835 2.88373L18.3356 0.758477C18.4112 0.617777 18.3843 0.509884 18.2547 0.434017C18.1139 0.368598 18.0058 0.401747 17.9302 0.531121L16.762 2.67336C15.7341 2.21889 14.6469 1.99124 13.5005 1.99124C12.3538 1.99124 11.2665 2.21894 10.239 2.67336L9.07076 0.531121C8.99485 0.401747 8.88671 0.368891 8.7463 0.434017C8.61634 0.510226 8.58944 0.617777 8.66536 0.758477L9.81747 2.88373C8.64925 3.47948 7.71883 4.30918 7.02656 5.37464C6.33428 6.44068 5.988 7.60563 5.988 8.87154H20.9966C20.9966 7.60592 20.6503 6.44092 19.9581 5.37464C19.2658 4.30918 18.3407 3.47948 17.1835 2.88373ZM10.5228 5.97493C10.3982 6.09982 10.2494 6.16196 10.0765 6.16196C9.90315 6.16196 9.75737 6.09982 9.63845 5.97493C9.51952 5.85064 9.46006 5.70242 9.46006 5.52886C9.46006 5.35589 9.51952 5.20738 9.63845 5.08279C9.75737 4.95849 9.90349 4.89635 10.0765 4.89635C10.2494 4.89635 10.3982 4.95849 10.5228 5.08279C10.6471 5.20767 10.7096 5.35589 10.7096 5.52886C10.7092 5.70213 10.6468 5.85064 10.5228 5.97493ZM17.3619 5.97493C17.2427 6.09982 17.0966 6.16196 16.9239 6.16196C16.7505 6.16196 16.6018 6.09982 16.4774 5.97493C16.3529 5.85064 16.2908 5.70242 16.2908 5.52886C16.2908 5.35589 16.3529 5.20738 16.4774 5.08279C16.6018 4.95849 16.7505 4.89635 16.9239 4.89635C17.0969 4.89635 17.2427 4.95849 17.3619 5.08279C17.4809 5.20767 17.5403 5.35589 17.5403 5.52886C17.5403 5.70213 17.4808 5.85064 17.3619 5.97493ZM6.05244 20.2617C6.05244 20.7597 6.22541 21.1814 6.5714 21.5273C6.91769 21.8733 7.3393 22.0463 7.83702 22.0463H9.03781L9.05426 25.73C9.05426 26.1952 9.21649 26.5902 9.54095 26.9147C9.86541 27.2392 10.255 27.4014 10.7092 27.4014C11.1741 27.4014 11.569 27.2392 11.8936 26.9147C12.2181 26.5902 12.3803 26.1952 12.3803 25.73V22.0466H14.6194V25.73C14.6194 26.1952 14.7816 26.5902 15.1061 26.9147C15.4306 27.2392 15.8252 27.4014 16.2905 27.4014C16.7554 27.4014 17.1503 27.2392 17.4748 26.9147C17.7994 26.5902 17.9615 26.1952 17.9615 25.73V22.0466H19.1785C19.6652 22.0466 20.0814 21.8736 20.428 21.5276C20.774 21.1816 20.947 20.76 20.947 20.262V9.45509H6.05244V20.2617ZM23.252 9.14709C22.7976 9.14709 22.4083 9.30692 22.0838 9.62572C21.7593 9.9451 21.5971 10.3374 21.5971 10.802V17.7791C21.5971 18.2449 21.7593 18.6393 22.0838 18.9638C22.4083 19.2883 22.7979 19.4505 23.252 19.4505C23.717 19.4505 24.1119 19.2883 24.4364 18.9638C24.7609 18.6393 24.9231 18.2449 24.9231 17.7791V10.802C24.9231 10.3374 24.7609 9.9451 24.4364 9.62572C24.1119 9.30692 23.717 9.14709 23.252 9.14709Z" fill="#F6FCF6"/>
</g>
<g clip-path="url(#clip1_21_660)">
<path d="M55.5613 0.401367C54.1218 0.50093 52.4394 1.4223 51.459 2.62212C50.5646 3.71055 49.8288 5.32718 50.1157 6.89824C51.6885 6.94718 53.3135 6.00387 54.2552 4.7838C55.136 3.64812 55.8026 2.04162 55.5613 0.401367Z" fill="#F6FCF6"/>
<path d="M61.2497 9.45974C59.8677 7.72669 57.9254 6.72095 56.0911 6.72095C53.6695 6.72095 52.6452 7.88025 50.9628 7.88025C49.2281 7.88025 47.9101 6.72432 45.816 6.72432C43.7589 6.72432 41.5685 7.9815 40.1797 10.1314C38.2273 13.1587 38.5614 18.8506 41.7255 23.6988C42.8578 25.4335 44.3698 27.3843 46.3475 27.4011C48.1076 27.418 48.6037 26.2722 50.9881 26.2604C53.3725 26.2469 53.8248 27.4163 55.5815 27.3978C57.5609 27.3826 59.1556 25.2209 60.2879 23.4862C61.0996 22.2425 61.4016 21.6164 62.031 20.2124C57.4529 18.4693 56.7188 11.9589 61.2497 9.45974Z" fill="#F6FCF6"/>
</g>
<defs>
<clipPath id="clip0_21_660">
<rect width="27" height="27" fill="white" transform="translate(0 0.401367)"/>
</clipPath>
<clipPath id="clip1_21_660">
<rect width="27" height="27" fill="white" transform="translate(37 0.401367)"/>
</clipPath>
</defs>
</svg>
