<svg width="18" height="19" viewBox="0 0 18 19" fill="none" xmlns="http://www.w3.org/2000/svg">
<path fill-rule="evenodd" clip-rule="evenodd" d="M15.3781 3.02999C14.5478 2.19424 13.5598 1.53157 12.4715 1.08036C11.3832 0.629156 10.2162 0.398377 9.03803 0.401396C4.09813 0.401396 0.0776217 4.42115 0.0753609 9.36332C0.0733823 10.9362 0.486167 12.4818 1.27209 13.8443L0 18.488L4.75075 17.2415C6.06471 17.9575 7.53716 18.3327 9.03351 18.3328H9.03728C13.9764 18.3328 17.9977 14.3123 18 9.3701C18.0039 8.19244 17.7741 7.02571 17.3241 5.93743C16.8741 4.84914 16.2127 3.86093 15.3781 3.02999ZM9.03803 16.8188H9.03502C7.70091 16.8193 6.39127 16.4605 5.24361 15.7803L4.97156 15.619L2.15231 16.3583L2.90516 13.6092L2.72806 13.3273C1.98187 12.14 1.58708 10.7657 1.58936 9.36332C1.59087 5.25615 4.93312 1.91464 9.0418 1.91464C11.0313 1.91464 12.9018 2.69086 14.308 4.0986C15.0016 4.7894 15.5513 5.61083 15.9254 6.5154C16.2994 7.41997 16.4905 8.38973 16.4875 9.36859C16.4852 13.4773 13.1437 16.8188 9.03803 16.8188ZM13.1241 11.2398C12.9003 11.1275 11.7993 10.5857 11.5935 10.5111C11.3885 10.4365 11.2393 10.3988 11.0894 10.6226C10.9394 10.8464 10.5113 11.3513 10.3802 11.5013C10.2498 11.6505 10.1187 11.6694 9.89489 11.5571C9.67106 11.4448 8.94911 11.2089 8.09376 10.4455C7.42832 9.85166 6.97842 9.1184 6.84804 8.89382C6.71767 8.66924 6.83448 8.54867 6.94601 8.43713C7.047 8.3369 7.16984 8.17563 7.28212 8.0445C7.39516 7.91488 7.43209 7.82143 7.50745 7.67147C7.58206 7.52225 7.54513 7.39112 7.48861 7.27884C7.43209 7.1673 6.98445 6.06477 6.79831 5.61637C6.61669 5.17928 6.43205 5.23881 6.29414 5.23203C6.16377 5.22525 6.01455 5.2245 5.86459 5.2245C5.71537 5.2245 5.47271 5.28026 5.26773 5.50484C5.06275 5.72941 4.48397 6.27126 4.48397 7.37304C4.48397 8.47557 5.28657 9.54042 5.3981 9.68963C5.50964 9.83885 6.97691 12.1012 9.22342 13.0711C9.75773 13.3017 10.1752 13.4396 10.5 13.5428C11.0366 13.7132 11.5249 13.689 11.9108 13.6318C12.3411 13.5677 13.2356 13.0899 13.4225 12.5669C13.6094 12.0439 13.6094 11.5948 13.5529 11.5021C13.4971 11.4079 13.3479 11.3521 13.1241 11.2398Z" fill="white"/>
</svg>
