<svg width="19" height="17" viewBox="0 0 19 17" fill="none" xmlns="http://www.w3.org/2000/svg">
<path d="M10.0566 11.6895C10.364 11.6895 10.6133 11.4402 10.6133 11.1328V8.90625C10.6133 8.59887 10.3641 8.34961 10.0566 8.34961H8.94336C8.63598 8.34961 8.38672 8.59876 8.38672 8.90625V11.1328C8.38672 11.4402 8.63595 11.6895 8.94336 11.6895H10.0566Z" fill="#C4C4C4"/>
<path d="M17.3301 2.22656H13.3965V1.66992C13.3965 0.74909 12.6474 0 11.7266 0H7.27344C6.35261 0 5.60352 0.749053 5.60352 1.66992V2.22656H1.66992C0.74909 2.22656 0 2.97562 0 3.89648C0 4.98665 0.133594 5.94136 0.398852 6.75498C0.664109 7.56861 1.06107 8.24118 1.58784 8.76709C2.47427 9.65233 3.60336 10.0195 4.87116 10.0195H7.27344V8.90625C7.27344 7.98542 8.02249 7.23633 8.94336 7.23633H10.0566C10.9775 7.23633 11.7266 7.98538 11.7266 8.90625V10.0195H12.9634C14.0715 9.97348 15.884 10.3104 17.4116 8.78991C17.9386 8.26533 18.3357 7.59158 18.6011 6.77413C18.8664 5.95669 19 4.99563 19 3.89648C19 2.97565 18.2509 2.22656 17.3301 2.22656ZM6.7168 1.66992C6.7168 1.3628 6.96628 1.11328 7.27344 1.11328H11.7266C12.0337 1.11328 12.2832 1.36277 12.2832 1.66992V2.22656H6.7168V1.66992Z" fill="#C4C4C4"/>
<path d="M12.9786 11.1328H11.7266C11.7266 12.0537 10.9775 12.8028 10.0566 12.8028H8.94336C8.02253 12.8028 7.27344 12.0537 7.27344 11.1328H4.87602C3.28834 11.1328 1.8938 10.6457 0.801229 9.5548C0.49259 9.24668 0.229039 8.89974 0 8.52869V16.1426C0 16.4503 0.248967 16.6992 0.556641 16.6992H18.4434C18.751 16.6992 19 16.4503 19 16.1426V8.55158C18.7679 8.92828 18.5033 9.2744 18.1971 9.57925C16.4407 11.3265 14.5701 11.0577 12.9786 11.1328Z" fill="#C4C4C4"/>
</svg>
