<svg width="232" height="232" viewBox="0 0 232 232" fill="none" xmlns="http://www.w3.org/2000/svg">
<g filter="url(#filter0_d_3375_2910)">
<circle cx="112" cy="112" r="96" fill="white"/>
<path d="M204.25 56C204.25 62.2132 199.213 67.25 193 67.25C186.787 67.25 181.75 62.2132 181.75 56C181.75 49.7868 186.787 44.75 193 44.75C199.213 44.75 204.25 49.7868 204.25 56Z" fill="#00A0DC" fill-opacity="0.7"/>
<path fill-rule="evenodd" clip-rule="evenodd" d="M203.395 46.7984C203.644 47.0166 203.669 47.3956 203.451 47.645L195.312 56.9471C194.761 57.577 193.817 57.6757 193.148 57.1735L188.89 53.9799C188.625 53.7811 188.571 53.405 188.77 53.1399C188.968 52.8748 189.345 52.8211 189.61 53.0199L193.868 56.2135C194.035 56.339 194.271 56.3144 194.409 56.1569L202.548 46.8548C202.766 46.6054 203.145 46.5802 203.395 46.7984Z" fill="#222222"/>
<path fill-rule="evenodd" clip-rule="evenodd" d="M195.757 45.7128C193.607 45.1369 191.332 45.2487 189.249 46.0325C187.166 46.8164 185.382 48.2329 184.145 50.0831C182.909 51.9333 182.283 54.1243 182.356 56.3484C182.429 58.5724 183.197 60.7178 184.551 62.4832C185.906 64.2486 187.779 65.5454 189.909 66.1913C192.038 66.8373 194.317 66.8 196.424 66.0847C198.531 65.3694 200.361 64.0121 201.657 62.2033C202.953 60.3945 203.65 58.2252 203.65 55.9999C203.65 55.6685 203.919 55.3999 204.25 55.3999C204.582 55.3999 204.85 55.6685 204.85 55.9999C204.85 58.4759 204.075 60.8897 202.633 62.9023C201.19 64.9149 199.154 66.4251 196.809 67.221C194.465 68.0169 191.93 68.0584 189.561 67.3396C187.191 66.6209 185.106 65.1781 183.599 63.2137C182.092 61.2494 181.238 58.8623 181.157 56.3876C181.076 53.913 181.772 51.4751 183.147 49.4164C184.523 47.3577 186.509 45.7816 188.826 44.9094C191.144 44.0373 193.676 43.9129 196.067 44.5537C196.387 44.6394 196.577 44.9685 196.492 45.2885C196.406 45.6086 196.077 45.7986 195.757 45.7128Z" fill="#222222"/>
<path d="M114.72 147.993C113.243 147.993 111.761 147.993 110.284 147.993C109.417 147.884 108.551 147.794 107.684 147.671C100.621 146.658 94.3757 143.831 89.0399 139.092C82.8755 133.614 79.0264 126.806 77.554 118.681C77.3172 117.37 77.1846 116.039 77 114.714C77 113.237 77 111.755 77 110.278C77.1042 109.411 77.1988 108.54 77.3219 107.674C78.4393 99.9563 81.6682 93.2617 87.1461 87.7081C93.8691 80.8857 102.069 77.3064 111.647 77.0176C118.361 76.814 124.7 78.3764 130.424 81.8941C141.588 88.7497 147.54 98.7821 147.98 111.902C148.226 119.188 146.204 125.935 142.142 131.99C136.499 140.394 128.668 145.569 118.697 147.439C117.376 147.685 116.041 147.813 114.72 147.993ZM115.449 103.488C115.449 100.648 115.44 97.8021 115.454 94.9614C115.459 93.9813 115.174 93.1339 114.412 92.5042C113.47 91.7277 112.4 91.5715 111.297 92.0686C110.104 92.6036 109.555 93.5836 109.555 94.8904C109.559 101.13 109.569 107.371 109.545 113.611C109.54 114.728 109.919 115.599 110.71 116.38C115.43 121.072 120.131 125.783 124.838 130.489C125.051 130.702 125.259 130.92 125.496 131.105C126.831 132.146 128.739 131.853 129.714 130.461C130.59 129.211 130.41 127.705 129.217 126.512C124.809 122.095 120.397 117.682 115.975 113.284C115.605 112.915 115.43 112.555 115.44 112.02C115.463 109.17 115.449 106.329 115.449 103.488Z" fill="#0077B5"/>
<path d="M115.444 103.49C115.444 106.33 115.458 109.176 115.43 112.017C115.425 112.552 115.595 112.911 115.965 113.281C120.387 117.684 124.799 122.096 129.207 126.509C130.4 127.702 130.58 129.208 129.704 130.458C128.729 131.849 126.821 132.143 125.486 131.101C125.249 130.917 125.041 130.699 124.828 130.486C120.122 125.78 115.42 121.069 110.7 116.377C109.909 115.596 109.53 114.725 109.535 113.607C109.559 107.367 109.549 101.127 109.545 94.8871C109.545 93.5804 110.094 92.6003 111.287 92.0653C112.39 91.5682 113.46 91.7244 114.402 92.5009C115.169 93.1353 115.449 93.9781 115.444 94.9581C115.434 97.8036 115.444 100.644 115.444 103.49Z" fill="white"/>
</g>
<defs>
<filter id="filter0_d_3375_2910" x="0" y="0" width="232" height="232" filterUnits="userSpaceOnUse" color-interpolation-filters="sRGB">
<feFlood flood-opacity="0" result="BackgroundImageFix"/>
<feColorMatrix in="SourceAlpha" type="matrix" values="0 0 0 0 0 0 0 0 0 0 0 0 0 0 0 0 0 0 127 0" result="hardAlpha"/>
<feOffset dx="4" dy="4"/>
<feGaussianBlur stdDeviation="10"/>
<feComposite in2="hardAlpha" operator="out"/>
<feColorMatrix type="matrix" values="0 0 0 0 0 0 0 0 0 0 0 0 0 0 0 0 0 0 0.1 0"/>
<feBlend mode="normal" in2="BackgroundImageFix" result="effect1_dropShadow_3375_2910"/>
<feBlend mode="normal" in="SourceGraphic" in2="effect1_dropShadow_3375_2910" result="shape"/>
</filter>
</defs>
</svg>
