<svg width="90" height="36" viewBox="0 0 90 36" fill="none" xmlns="http://www.w3.org/2000/svg">
<path d="M63.7591 13.1022C60.9691 17.9318 62.7422 25.2621 65.8283 29.7057C67.369 31.9275 68.9273 33.9221 71.0638 33.9221C71.1039 33.9221 71.144 33.9209 71.1853 33.9198C72.1892 33.8798 72.9135 33.5714 73.6155 33.2737C74.4023 32.9395 75.2175 32.5935 76.4939 32.5935C77.709 32.5935 78.4841 32.9277 79.2332 33.2514C79.9729 33.5703 80.7338 33.9009 81.858 33.8798C84.2634 33.835 85.7404 31.6827 87.044 29.7845C88.4041 27.8016 89.086 25.8775 89.3161 25.142L89.3255 25.1126C89.3691 24.982 89.3066 24.8396 89.1816 24.7819C89.1816 24.7819 89.1651 24.7749 89.1615 24.7737C88.738 24.6007 85.022 22.9567 84.983 18.4743C84.9465 14.8321 87.7707 12.9045 88.3369 12.555L88.3629 12.5385C88.4242 12.4997 88.4667 12.4373 88.482 12.3656C88.4962 12.2938 88.482 12.2196 88.4395 12.1596C86.4907 9.31413 83.5025 8.88577 82.2992 8.83399C82.1246 8.81634 81.9453 8.80811 81.7636 8.80811C80.3503 8.80811 78.9972 9.34001 77.9096 9.76837C77.1593 10.0637 76.5105 10.3191 76.0645 10.3191C75.562 10.3191 74.9096 10.0614 74.1558 9.76249C73.146 9.36238 72.0016 8.90931 70.7901 8.90931C70.7606 8.90931 70.7323 8.90931 70.7052 8.91049C67.8869 8.94932 65.2255 10.5568 63.7591 13.1022Z" fill="#0077B5"/>
<path d="M82.3016 1.00024C80.5957 1.06967 78.5501 2.11702 77.3268 3.54565C76.2875 4.74598 75.2718 6.74889 75.5396 8.7671C75.5561 8.89301 75.6599 8.99069 75.7873 9.00128C75.9029 9.00952 76.0197 9.01423 76.1365 9.01423C77.8046 9.01423 79.6036 8.09397 80.8329 6.6112C82.1258 5.04606 82.7805 3.03845 82.5824 1.23913C82.5658 1.09909 82.442 0.994352 82.3016 1.00024Z" fill="#0077B5"/>
<path d="M31.7519 16.6444L25.1986 12.8716L19.8086 18.0683L24.7338 22.8179L31.7507 18.7779C32.1364 18.5555 32.3677 18.1566 32.3677 17.7117C32.3688 17.2657 32.1376 16.8668 31.7519 16.6444Z" fill="#0077B5"/>
<path d="M24.0862 12.2305L16.8747 8.07871L1.07031 0L18.9203 17.2118L24.0862 12.2305Z" fill="#0077B5"/>
<path d="M1.33203 35.8853L16.9017 27.33L23.6212 23.4595L18.9202 18.9253L1.33203 35.8853Z" fill="#0077B5"/>
<path d="M0.0165175 0.695312L0 35.4579L18.0329 18.0684L0.0165175 0.695312Z" fill="#0077B5"/>
<line x1="47.8672" y1="2" x2="47.8672" y2="34" stroke="#0077B5"/>
</svg>
