<svg width="129" height="23" viewBox="0 0 129 23" fill="none" xmlns="http://www.w3.org/2000/svg">
<g clip-path="url(#clip0_21_783)">
<path d="M0 0.423279L8.7075 5.20902L0.0215001 10.4298L8.686 15.8247L0.0215001 20.4582H8.686L17.286 15.7377L9.3525 10.4516L17.329 5.12201L8.815 0.445034L0 0.423279Z" fill="#ED1C24"/>
<path d="M18.4899 9.21148L25.0259 9.23323L18.9629 6.01373L12.2764 10.4732L18.8339 14.9326L27.0684 10.4297H19.6079C19.6079 10.4297 19.7154 13.0183 18.6619 12.3005C18.4899 12.1482 18.4469 11.7349 18.4469 11.4086L18.4899 9.21148Z" fill="#6D6E70"/>
<path d="M30.6807 9.47252V0.510132H32.0782C32.8092 0.510132 33.3467 0.684159 33.6692 1.05397C33.9917 1.42377 34.1637 1.98936 34.1637 2.77248C34.1637 3.35982 34.0777 3.8384 33.9272 4.14294C33.7552 4.46924 33.4972 4.70853 33.1532 4.83905C33.5617 4.94782 33.8412 5.16536 34.0132 5.49166C34.1852 5.81796 34.2927 6.27478 34.2927 6.88387C34.2927 7.77576 34.1207 8.42836 33.7767 8.84168C33.4327 9.25499 32.8952 9.47252 32.1642 9.47252H30.6807ZM31.6912 4.33872H32.0567C32.4222 4.33872 32.7017 4.22996 32.8952 4.01242C33.0672 3.79489 33.1532 3.44684 33.1532 2.96826C33.1532 2.46793 33.0672 2.11988 32.9167 1.90235C32.7447 1.68481 32.4652 1.5978 32.0567 1.5978H31.6912V4.33872ZM31.6912 8.3196H32.0352C32.5082 8.3196 32.8092 8.21083 32.9812 7.9933C33.1532 7.77576 33.2392 7.40595 33.2392 6.86212C33.2392 6.31828 33.1532 5.92672 32.9597 5.68744C32.7662 5.44815 32.4652 5.31763 32.0352 5.31763H31.6912V8.3196Z" fill="#ED1C24"/>
<path d="M35.5391 9.47252L37.3021 0.510132H38.2696L40.0326 9.47252H39.0006L38.6351 7.7105H36.9151L36.5711 9.47252H35.5391ZM37.7966 2.81599L37.1086 6.70985H38.4631L37.7966 2.81599Z" fill="#ED1C24"/>
<path d="M42.2257 7.90629C42.4622 8.08031 42.6987 8.21083 42.8922 8.29784C43.0857 8.38486 43.2792 8.42837 43.4727 8.42837C43.7952 8.42837 44.0317 8.3196 44.2252 8.10206C44.3972 7.88453 44.5047 7.60174 44.5047 7.23193C44.5047 6.70985 44.1607 6.10075 43.4512 5.42639C43.3652 5.33938 43.3007 5.27412 43.2577 5.25237C42.8062 4.8173 42.5052 4.40399 42.3117 4.03418C42.1397 3.66437 42.0322 3.22931 42.0322 2.77249C42.0322 2.09813 42.2042 1.53254 42.5697 1.07572C42.9352 0.618896 43.3867 0.401367 43.9242 0.401367C44.1607 0.401367 44.3757 0.444873 44.6122 0.488379C44.8272 0.55364 45.0422 0.662405 45.2572 0.792926V2.01112C45.0637 1.83709 44.8702 1.72832 44.6767 1.64131C44.4832 1.55429 44.3112 1.53254 44.1177 1.53254C43.7952 1.53254 43.5372 1.64131 43.3437 1.85884C43.1502 2.07637 43.0427 2.38092 43.0427 2.75073C43.0427 3.27281 43.4082 3.88191 44.1607 4.57801C44.2252 4.64327 44.2897 4.68678 44.3112 4.73029C44.7412 5.1436 45.0422 5.53517 45.2357 5.92673C45.4077 6.31829 45.5152 6.7316 45.5152 7.23193C45.5152 7.92804 45.3217 8.49362 44.9562 8.92869C44.5907 9.36376 44.1177 9.60305 43.5372 9.60305C43.3222 9.60305 43.1072 9.55954 42.8922 9.49428C42.6772 9.42902 42.4622 9.2985 42.2257 9.14622V7.90629Z" fill="#ED1C24"/>
<path d="M48.1387 9.47252V0.510132H49.1492V3.92541H50.9767V0.510132H51.9872V9.47252H50.9767V5.05659H49.1492V9.47252H48.1387Z" fill="#ED1C24"/>
<path d="M54.9326 7.07965V0.510132H55.9216V7.16666C55.9216 7.60173 56.0076 7.90628 56.1581 8.12382C56.3301 8.3196 56.5666 8.42836 56.9106 8.42836C57.2331 8.42836 57.4911 8.3196 57.6416 8.12382C57.8136 7.92804 57.8781 7.60173 57.8781 7.16666V0.510132H58.8886V7.07965C58.8886 7.94979 58.7381 8.58064 58.4156 8.9722C58.0931 9.36376 57.5986 9.58129 56.9106 9.58129C56.2226 9.58129 55.7281 9.38551 55.4056 8.9722C55.0831 8.58064 54.9326 7.94979 54.9326 7.07965Z" fill="#ED1C24"/>
<path d="M61.834 9.47252V0.510132H62.78L64.7795 6.7316V0.510132H65.747V9.47252H64.7795L62.8015 3.20755V9.47252H61.834Z" fill="#ED1C24"/>
<path d="M68.3271 9.47252V0.510132H69.6816C70.7136 0.510132 71.4231 0.836427 71.8316 1.51078C72.2401 2.18514 72.4551 3.33807 72.4551 4.99132C72.4551 6.64458 72.2401 7.79751 71.8316 8.47187C71.4231 9.14622 70.6921 9.47252 69.6816 9.47252H68.3271ZM69.3591 8.3196H69.8751C70.4341 8.3196 70.8426 8.08031 71.0791 7.57998C71.3156 7.07966 71.4231 6.20952 71.4231 4.96958C71.4231 3.72963 71.3156 2.8595 71.0791 2.35917C70.8426 1.85884 70.4556 1.61955 69.8751 1.61955H69.3591V8.3196Z" fill="#ED1C24"/>
<path d="M75.207 9.47252V0.510132H76.2175V3.92541H78.045V0.510132H79.0555V9.47252H78.045V5.05659H76.2175V9.47252H75.207Z" fill="#ED1C24"/>
<path d="M81.4629 9.47252L83.2259 0.510132H84.1719L85.9349 9.47252H84.9029L84.5374 7.7105H82.8174L82.4734 9.47252H81.4629ZM83.7204 2.81599L83.0324 6.70985H84.3869L83.7204 2.81599Z" fill="#ED1C24"/>
<path d="M89.3543 5.10009V9.47252H88.3438V0.510132H89.5693C90.3863 0.510132 90.9668 0.684159 91.3108 1.05397C91.6548 1.42377 91.8268 2.01111 91.8268 2.8595C91.8268 3.5121 91.6978 4.03418 91.4613 4.40399C91.2248 4.77379 90.8593 4.99133 90.3863 5.05659L92.1923 9.47252H91.0958L89.3543 5.10009ZM89.3543 4.40399H89.6768C90.0853 4.40399 90.3863 4.29522 90.5583 4.05593C90.7303 3.81664 90.8163 3.42508 90.8163 2.83774C90.8163 2.35917 90.7303 2.03286 90.5798 1.83708C90.4078 1.6413 90.1068 1.55429 89.6553 1.55429H89.3543V4.40399Z" fill="#ED1C24"/>
<path d="M93.998 9.47252L95.761 0.510132H96.7285L98.4915 9.47252H97.4595L97.094 7.7105H95.374L95.03 9.47252H93.998ZM96.2555 2.81599L95.5675 6.70985H96.922L96.2555 2.81599Z" fill="#ED1C24"/>
<path d="M106.468 4.66503C106.49 4.86081 106.49 5.03483 106.49 5.20886C106.49 5.38289 106.49 5.55692 106.49 5.73095C106.49 7.03615 106.296 7.9933 105.931 8.62414C105.565 9.25499 104.985 9.55954 104.211 9.55954C103.415 9.55954 102.835 9.21148 102.469 8.49362C102.104 7.77576 101.932 6.62283 101.932 4.99133C101.932 3.33807 102.104 2.16339 102.469 1.46728C102.835 0.771173 103.415 0.401367 104.232 0.401367C104.813 0.401367 105.286 0.553637 105.63 0.879938C105.974 1.18449 106.232 1.66306 106.361 2.29391L105.436 2.81599C105.372 2.38092 105.221 2.05462 105.028 1.83709C104.834 1.61955 104.576 1.51078 104.254 1.51078C103.802 1.51078 103.48 1.75008 103.286 2.25041C103.093 2.75073 103.007 3.64262 103.007 4.94782C103.007 6.23127 103.093 7.14491 103.286 7.64524C103.48 8.14557 103.802 8.40661 104.254 8.40661C104.662 8.40661 104.963 8.21083 105.178 7.81927C105.393 7.42771 105.479 6.86212 105.479 6.10075C105.479 5.99198 105.479 5.90497 105.479 5.83971C105.479 5.77445 105.479 5.73094 105.479 5.68744H104.361V4.64328H106.468" fill="#ED1C24"/>
<path d="M109.091 5.10007V9.45075H108.037V0.53186H109.327C110.166 0.53186 110.768 0.705887 111.133 1.0757C111.499 1.42375 111.671 2.03285 111.671 2.85948C111.671 3.53383 111.542 4.03416 111.305 4.40397C111.069 4.77378 110.682 4.99131 110.209 5.05657L112.058 9.45075H110.918L109.155 5.10007H109.091ZM109.091 4.40397H109.435C109.865 4.40397 110.166 4.2952 110.338 4.05591C110.51 3.83838 110.596 3.42506 110.596 2.83772C110.596 2.35915 110.51 2.01109 110.338 1.83706C110.166 1.64128 109.865 1.55427 109.392 1.55427H109.091V4.40397Z" fill="#ED1C24"/>
<path d="M113.562 4.99133C113.562 3.35982 113.735 2.18514 114.079 1.46728C114.423 0.74942 115.003 0.401367 115.777 0.401367C116.551 0.401367 117.132 0.74942 117.476 1.46728C117.82 2.18514 117.992 3.33807 117.992 4.99133C117.992 6.62283 117.82 7.79751 117.476 8.49362C117.132 9.18973 116.573 9.55954 115.777 9.55954C114.982 9.55954 114.423 9.21148 114.079 8.49362C113.735 7.79751 113.562 6.62283 113.562 4.99133ZM114.638 4.96958C114.638 6.23127 114.724 7.12316 114.917 7.64524C115.089 8.16732 115.39 8.42837 115.82 8.42837C116.229 8.42837 116.53 8.18908 116.702 7.68875C116.874 7.18842 116.96 6.29654 116.96 4.96958C116.96 3.68613 116.874 2.79424 116.702 2.29391C116.53 1.79358 116.229 1.53254 115.82 1.53254C115.412 1.53254 115.111 1.79358 114.917 2.29391C114.724 2.79424 114.638 3.68613 114.638 4.96958Z" fill="#ED1C24"/>
<path d="M119.54 7.07963V0.53186H120.572V7.1884C120.572 7.62347 120.658 7.92801 120.83 8.14555C121.002 8.34133 121.26 8.4501 121.604 8.4501C121.948 8.4501 122.206 8.34133 122.378 8.14555C122.55 7.94977 122.636 7.62347 122.636 7.1884V0.53186H123.69V7.07963C123.69 7.94977 123.518 8.58062 123.195 8.97218C122.873 9.36374 122.335 9.55952 121.626 9.55952C120.916 9.55952 120.379 9.36374 120.056 8.97218C119.691 8.55886 119.54 7.92801 119.54 7.07963Z" fill="#ED1C24"/>
<path d="M125.173 9.45075V0.53186H126.463C126.936 0.53186 127.301 0.575367 127.581 0.640627C127.86 0.727641 128.075 0.836412 128.269 1.03219C128.505 1.24973 128.677 1.53252 128.806 1.88057C128.935 2.22863 129 2.62019 129 3.05525C129 3.86013 128.785 4.49098 128.376 4.90429C127.968 5.31761 127.366 5.53514 126.549 5.53514C126.463 5.53514 126.398 5.53514 126.355 5.53514C126.312 5.53514 126.269 5.53515 126.248 5.51339V9.45075H125.173ZM126.226 4.44747H126.613C127.086 4.44747 127.43 4.33871 127.624 4.09942C127.817 3.88189 127.925 3.51208 127.925 2.99C127.925 2.48967 127.817 2.14162 127.602 1.90233C127.387 1.68479 127.022 1.57603 126.527 1.57603H126.205V4.44747H126.226Z" fill="#ED1C24"/>
<path d="M34.3568 16.9122L34.2063 16.8904C34.2063 16.7816 34.2278 16.6729 34.2278 16.5641C34.2278 16.0855 33.9483 15.9768 32.8518 15.9768C32.3788 15.9768 32.2928 15.9985 32.2498 16.1726L31.7338 17.9781C33.0023 17.9563 33.0023 17.9563 33.3463 17.2602L33.4753 17.3037L32.9163 19.0875L32.7873 19.044C32.8088 18.9352 32.8518 18.7612 32.8518 18.6089C32.8518 18.2826 32.5938 18.2609 32.4648 18.2609C32.0993 18.2609 31.7983 18.2391 31.6478 18.2391L31.1748 19.9359C31.1318 20.1099 31.1103 20.1969 31.1103 20.2839C31.1103 20.5885 31.4328 20.6102 31.6908 20.6102V20.7408H29.7988V20.6102C30.1858 20.545 30.2718 20.5232 30.4223 20.0447L31.3468 16.6729C31.3683 16.5641 31.4328 16.3466 31.4328 16.1943C31.4328 15.9115 31.2393 15.8898 30.8523 15.868V15.7375H34.5933L34.3568 16.9122Z" fill="#6D6E70"/>
<path d="M35.9693 17.5213C36.3348 17.5213 36.5068 17.8693 36.5068 18.2609C36.5068 19.0875 35.9048 20.6538 35.0663 20.6538C34.7008 20.6538 34.4643 20.371 34.4643 19.9359C34.4643 19.044 35.1308 17.5213 35.9693 17.5213ZM36.0338 17.369C34.9373 17.369 33.8193 18.5872 33.8193 19.7184C33.8193 20.3492 34.1633 20.8278 34.9588 20.8278C36.0983 20.8278 37.1303 19.4356 37.1303 18.5002C37.1303 17.9999 36.8938 17.369 36.0338 17.369Z" fill="#6D6E70"/>
<path d="M37.7754 20.7408L38.3774 18.5002C38.4634 18.2174 38.5064 17.9564 38.5064 17.8911C38.5064 17.7823 38.4634 17.6736 38.2269 17.6736C38.1409 17.6736 38.0549 17.6953 37.9689 17.7171V17.5866C38.3559 17.5213 38.7859 17.4343 39.1299 17.369L39.1514 17.3908L38.7859 18.9135L38.8074 18.9353L38.8719 18.783C39.1299 18.2827 39.6889 17.3908 40.1619 17.3908C40.3339 17.3908 40.5274 17.4995 40.5274 17.7606C40.5274 18.1521 40.2479 18.1521 40.1834 18.1521C39.8609 18.1521 39.9684 17.8693 39.7964 17.8693C39.5599 17.8693 39.1084 18.7177 39.0654 18.8265C38.7859 19.3703 38.6784 19.7184 38.3774 20.7408H37.7754Z" fill="#6D6E70"/>
<path d="M44.5697 17.7171H43.9462L43.2797 20.2622V20.3275C43.2797 20.3928 43.3227 20.458 43.4087 20.458C43.5592 20.458 43.8172 20.11 44.0107 19.8489L44.1182 19.8924C43.7312 20.4798 43.4517 20.8061 43.0432 20.8061C42.8927 20.8061 42.6777 20.7191 42.6777 20.5015C42.6777 20.3928 42.8282 19.9142 42.8497 19.8054L43.3872 17.6953H42.8282C42.8282 17.6518 42.8282 17.6083 42.8497 17.5648C42.8927 17.4996 43.1077 17.4343 43.2367 17.369C43.4732 17.2385 43.8387 16.8905 44.0537 16.6294C44.0752 16.5859 44.1182 16.5207 44.1827 16.5424C44.2472 16.5207 44.2472 16.6077 44.2472 16.6512L44.0322 17.4343H44.6342L44.5697 17.7171Z" fill="#6D6E70"/>
<path d="M48.1382 19.9359C47.8587 20.3275 47.5577 20.806 47.0417 20.806C46.8052 20.806 46.6977 20.6538 46.6977 20.458C46.6977 20.2622 47.3212 18.0651 47.3212 17.9781C47.3212 17.8476 47.2137 17.7823 47.1062 17.7823C46.7407 17.7823 46.0957 18.6524 45.9452 18.8482C45.6012 19.3703 45.4937 19.7836 45.2572 20.7408H44.6982L45.6872 16.9122C45.7732 16.5859 45.8807 16.1508 45.8807 16.042C45.8807 15.955 45.8162 15.8463 45.5797 15.8463H45.3862V15.7157C45.7732 15.6722 46.1817 15.607 46.5687 15.52L46.6117 15.5635L45.7302 18.9135L45.7517 18.9352C45.9882 18.5437 46.7407 17.369 47.4287 17.369C47.6007 17.369 47.9447 17.4125 47.9447 17.9128C47.9447 18.1739 47.3427 20.1317 47.3427 20.3057C47.3427 20.3927 47.4072 20.458 47.4717 20.458C47.6222 20.458 47.7942 20.2187 48.0952 19.8489L48.1382 19.9359Z" fill="#6D6E70"/>
<path d="M49.5143 18.8265C49.7938 18.1521 50.3098 17.5648 50.7183 17.5648C50.9118 17.5648 50.9763 17.7171 50.9763 17.8693C50.9763 17.9346 50.9333 18.8482 49.3853 19.1745L49.5143 18.8265ZM51.0623 19.9142C50.6753 20.2187 50.3743 20.4798 49.9658 20.4798C49.6433 20.4798 49.2563 20.3057 49.2563 19.7836C49.2563 19.6314 49.2993 19.4791 49.3423 19.3051L49.5573 19.2833C50.7828 19.1093 51.4708 18.4784 51.4708 17.8911C51.4708 17.5648 51.2343 17.369 50.8473 17.369C49.7938 17.369 48.6113 18.6525 48.6113 19.7401C48.6113 20.2187 48.8478 20.8061 49.6433 20.8061C50.3958 20.8061 51.0838 20.1099 51.1483 19.9794L51.0623 19.9142Z" fill="#6D6E70"/>
<path d="M56.2227 16.2161C56.2442 16.0638 56.2872 15.8898 56.5882 15.8898C57.2332 15.8898 57.2332 16.4554 57.2332 16.6294C57.2332 16.8469 57.1472 17.4125 56.9107 17.7388C56.7817 17.9129 56.6097 18.0869 56.0507 18.0869C55.9432 18.0869 55.8787 18.0869 55.7712 18.0651L56.2227 16.2161ZM54.5887 15.8245C55.0617 15.8898 55.1262 15.9116 55.1262 16.1508C55.1262 16.2596 55.0617 16.5207 55.0617 16.5859L54.1372 20.0229C54.0082 20.5015 53.8362 20.5233 53.5352 20.5668V20.7626H55.7282V20.5668C55.3412 20.545 55.1907 20.5015 55.1907 20.2405C55.1907 20.197 55.2337 19.9577 55.2552 19.8272L55.6637 18.3044C55.9432 18.3262 56.0507 18.3479 56.3517 18.3479C57.3622 18.3479 58.3082 17.8259 58.3082 16.8469C58.3082 15.8898 57.5127 15.6505 56.7172 15.6505H54.5672V15.8245H54.5887Z" fill="#6D6E70"/>
<path d="M60.0923 17.4561C60.3073 17.4561 60.3073 17.6518 60.3073 17.7171C60.3073 18.1086 60.1138 18.8265 59.1248 19.1093C59.2538 18.5437 59.6193 17.4561 60.0923 17.4561ZM60.3933 19.6531C60.1998 19.9359 59.9418 20.3492 59.5333 20.3492C59.3828 20.3492 59.0388 20.3275 59.0388 19.7184C59.0388 19.5661 59.0603 19.4791 59.0818 19.3486C60.5223 19.1311 61.0168 18.3262 61.0168 17.8911C61.0168 17.3473 60.5008 17.195 60.2428 17.195C59.0173 17.195 58.0713 18.609 58.0713 19.6531C58.0713 20.5015 58.6948 20.8278 59.2108 20.8278C60.0278 20.8278 60.4148 20.1535 60.6513 19.7837L60.3933 19.6531Z" fill="#6D6E70"/>
<path d="M63.4683 17.4343C63.6618 17.4343 63.8338 17.543 63.8338 17.9128C63.8338 18.4784 63.4038 20.6103 62.6728 20.6103C62.2858 20.6103 62.2858 20.2187 62.2858 20.0664C62.2858 19.5879 62.6728 17.4343 63.4683 17.4343ZM63.5543 17.2167C62.3718 17.2167 61.4043 18.5219 61.4043 19.7184C61.4043 20.458 61.9848 20.8496 62.6083 20.8496C63.8123 20.8496 64.7368 19.5443 64.7368 18.3914C64.7368 17.369 63.8338 17.2167 63.5543 17.2167Z" fill="#6D6E70"/>
<path d="M67.6606 18.1522C67.6606 18.696 67.1231 20.5885 66.3921 20.5885C66.2846 20.5885 66.0911 20.545 66.0911 20.284C66.0911 20.0882 66.4566 18.7613 66.6501 18.3914C66.7791 18.1086 67.0801 17.7606 67.3596 17.7606C67.5101 17.7606 67.6606 17.8911 67.6606 18.1522ZM65.4246 17.6301C65.7041 17.6301 65.8331 17.6518 65.8331 17.8259C65.8331 17.9999 65.3601 19.7619 64.8871 21.6109C64.7581 22.0895 64.6076 22.0895 64.3496 22.0895V22.3071H66.2201V22.0895C65.9621 22.0895 65.7256 22.0678 65.7256 21.8285C65.7256 21.6545 65.9406 20.9148 66.0051 20.6538C66.2416 20.7843 66.3276 20.8278 66.5211 20.8278C67.5746 20.8278 68.5851 19.3486 68.5851 18.1522C68.5851 17.456 68.1981 17.195 67.7466 17.195C67.4241 17.195 67.0156 17.3908 66.6286 17.9999L66.6071 17.9781L66.8651 17.195C66.3276 17.3038 66.0481 17.3255 65.4246 17.4125V17.6301Z" fill="#6D6E70"/>
<path d="M70.8636 19.7619C70.5411 20.284 70.1971 20.806 69.5951 20.806C69.0791 20.806 69.0791 20.3927 69.0791 20.3057C69.0791 19.8489 70.1541 16.4336 70.1541 16.0638C70.1541 15.8245 69.8961 15.8245 69.6811 15.8463V15.6505C70.2831 15.5852 70.6486 15.5417 71.2506 15.4112L70.1541 19.4138C70.1111 19.5878 69.9821 20.0229 69.9821 20.1752C69.9821 20.284 70.0896 20.284 70.0896 20.284C70.2616 20.284 70.5196 19.8924 70.6701 19.6749L70.8636 19.7619Z" fill="#6D6E70"/>
<path d="M73.3149 17.4561C73.5299 17.4561 73.5299 17.6518 73.5299 17.7171C73.5299 18.1086 73.3364 18.8265 72.3474 19.1093C72.4549 18.5437 72.8419 17.4561 73.3149 17.4561ZM73.6159 19.6531C73.4224 19.9359 73.1644 20.3492 72.7559 20.3492C72.6054 20.3492 72.2614 20.3275 72.2614 19.7184C72.2614 19.5661 72.2829 19.4791 72.3044 19.3486C73.7449 19.1311 74.2394 18.3262 74.2394 17.8911C74.2394 17.3473 73.7234 17.195 73.4654 17.195C72.2399 17.195 71.2939 18.609 71.2939 19.6531C71.2939 20.5015 71.9174 20.8278 72.4119 20.8278C73.2289 20.8278 73.6159 20.1535 73.8524 19.7837L73.6159 19.6531Z" fill="#6D6E70"/>
<path d="M74.1963 21.9372C74.3468 21.872 75.0778 21.4804 75.0778 21.0453C75.0778 20.719 74.5618 20.7625 74.5618 20.284C74.5618 19.9577 74.7768 19.7184 75.0778 19.7184C75.2713 19.7184 75.7228 19.8489 75.7228 20.458C75.7228 21.4804 74.4113 22.1113 74.2823 22.133L74.1963 21.9372Z" fill="#6D6E70"/>
<path d="M80.7969 17.4778H81.4849C81.6784 16.8252 82.0654 15.5635 82.9899 15.5635C83.5274 15.5635 83.6564 15.9115 83.6564 16.0638C83.6564 16.2161 83.5274 16.3684 83.3554 16.3684C83.1189 16.3684 83.0759 16.1726 83.0759 16.0856C83.0759 15.9115 83.1404 15.9115 83.1404 15.8245C83.1404 15.7593 83.0759 15.7375 82.9684 15.7375C82.3449 15.7375 82.1299 17.0862 82.0654 17.4778H82.8824L82.8394 17.7171H82.0224L81.4849 20.1534C81.2699 21.0888 80.8614 22.307 79.9799 22.307C79.7434 22.307 79.4424 22.1983 79.3994 21.8502C79.3994 21.8285 79.3994 21.5457 79.6789 21.5239C79.7864 21.5239 79.9799 21.6109 79.9799 21.8067C79.9799 21.9372 79.9154 21.9372 79.9154 22.0242C79.9154 22.0895 79.9584 22.1548 80.0659 22.1548C80.5389 22.1548 80.7324 21.2194 80.7969 20.9148L81.4634 17.6953H80.7539L80.7969 17.4778Z" fill="#6D6E70"/>
<path d="M85.0104 17.5213C85.3759 17.5213 85.5264 17.8693 85.5264 18.2609C85.5264 19.0875 84.9244 20.6538 84.0859 20.6538C83.7204 20.6538 83.4839 20.371 83.4839 19.9359C83.4839 19.044 84.1719 17.5213 85.0104 17.5213ZM85.0534 17.369C83.9569 17.369 82.8389 18.5872 82.8389 19.7184C82.8389 20.3492 83.1829 20.8278 83.9784 20.8278C85.1179 20.8278 86.1499 19.4356 86.1499 18.5002C86.1499 17.9999 85.9349 17.369 85.0534 17.369Z" fill="#6D6E70"/>
<path d="M86.8164 20.7408L87.4184 18.5002C87.5044 18.2174 87.5474 17.9564 87.5474 17.8911C87.5474 17.7823 87.5044 17.6736 87.2894 17.6736C87.2034 17.6736 87.1174 17.6953 87.0314 17.7171V17.5866C87.4184 17.5213 87.8484 17.4343 88.1924 17.369L88.2139 17.3908L87.8484 18.9135L87.8699 18.9353L87.9344 18.783C88.1924 18.2827 88.7514 17.3908 89.2244 17.3908C89.3964 17.3908 89.5899 17.4995 89.5899 17.7606C89.5899 18.1521 89.3319 18.1521 89.2459 18.1521C88.9234 18.1521 89.0309 17.8693 88.8589 17.8693C88.6224 17.8693 88.1709 18.7177 88.1064 18.8265C87.8269 19.3703 87.7194 19.7184 87.4184 20.7408H86.8164Z" fill="#6D6E70"/>
<path d="M93.5893 17.7171H92.9658L92.2993 20.2622V20.3275C92.2993 20.3928 92.3423 20.458 92.4283 20.458C92.5788 20.458 92.8368 20.11 93.0303 19.8489L93.1378 19.8924C92.7508 20.4798 92.4713 20.8061 92.0628 20.8061C91.9123 20.8061 91.6973 20.7191 91.6973 20.5015C91.6973 20.3928 91.8478 19.9142 91.8693 19.8054L92.4068 17.6953H91.8478C91.8478 17.6518 91.8478 17.6083 91.8693 17.5648C91.9123 17.4996 92.1273 17.4343 92.2563 17.369C92.5143 17.2385 92.8583 16.8905 93.0733 16.6294C93.0948 16.5859 93.1378 16.5207 93.2023 16.5424C93.2453 16.5207 93.2668 16.6077 93.2453 16.6512L93.0303 17.4343H93.6323L93.5893 17.7171Z" fill="#6D6E70"/>
<path d="M97.1587 19.9359C96.8792 20.3275 96.5568 20.806 96.0623 20.806C95.8258 20.806 95.7183 20.6538 95.7183 20.458C95.7183 20.2622 96.3418 18.0651 96.3418 17.9781C96.3418 17.8476 96.2343 17.7823 96.1268 17.7823C95.7613 17.7823 95.1163 18.6524 94.9658 18.8482C94.6218 19.3703 94.5143 19.7836 94.2778 20.7408H93.7188L94.7078 16.9122C94.7938 16.5859 94.9012 16.1508 94.9012 16.042C94.9012 15.955 94.8368 15.8463 94.6003 15.8463H94.4068V15.7157C94.7938 15.6722 95.2023 15.607 95.5893 15.52L95.6323 15.5635L94.7508 18.9135L94.7723 18.9352C95.0088 18.5437 95.7828 17.369 96.4493 17.369C96.6213 17.369 96.9653 17.4125 96.9653 17.9128C96.9653 18.1739 96.3633 20.1317 96.3633 20.3057C96.3633 20.3927 96.4278 20.458 96.4923 20.458C96.6428 20.458 96.8148 20.2187 97.1158 19.8489L97.1587 19.9359Z" fill="#6D6E70"/>
<path d="M98.5339 18.8265C98.8134 18.1521 99.3294 17.5648 99.7164 17.5648C99.9099 17.5648 99.9744 17.7171 99.9744 17.8693C99.9744 17.9346 99.9314 18.8482 98.3834 19.1745L98.5339 18.8265ZM100.082 19.9142C99.7164 20.2187 99.3939 20.4798 98.9854 20.4798C98.6629 20.4798 98.2759 20.3057 98.2759 19.7836C98.2759 19.6314 98.3189 19.4791 98.3619 19.3051L98.5769 19.2833C99.8024 19.1093 100.49 18.4784 100.49 17.8911C100.49 17.5648 100.254 17.369 99.8669 17.369C98.8134 17.369 97.6309 18.6525 97.6309 19.7401C97.6309 20.2187 97.8674 20.8061 98.6629 20.8061C99.4154 20.8061 100.103 20.1099 100.189 19.9794L100.082 19.9142Z" fill="#6D6E70"/>
<path d="M107.456 17.3037L107.22 17.2602C107.241 17.1732 107.241 17.0862 107.241 16.9992C107.241 16.2596 106.897 15.781 106.252 15.781C105.048 15.781 104.167 17.7606 104.167 19.1093C104.167 20.4797 105.134 20.4797 105.242 20.4797C105.844 20.4797 106.317 20.2839 106.854 19.5878L107.069 19.7619C106.682 20.3492 105.994 20.893 105.027 20.893C104.059 20.893 102.984 20.3057 102.984 18.9135C102.984 17.2167 104.231 15.52 106.059 15.52C106.704 15.52 107.112 15.7375 107.306 15.7375C107.478 15.7375 107.542 15.6505 107.607 15.52H107.822L107.456 17.3037Z" fill="#6D6E70"/>
<path d="M109.908 17.4343C110.101 17.4343 110.273 17.543 110.273 17.9128C110.273 18.4784 109.843 20.6103 109.112 20.6103C108.725 20.6103 108.725 20.2187 108.725 20.0664C108.704 19.5879 109.091 17.4343 109.908 17.4343ZM109.972 17.2167C108.79 17.2167 107.822 18.5219 107.822 19.7184C107.822 20.458 108.403 20.8496 109.026 20.8496C110.23 20.8496 111.155 19.5443 111.155 18.3914C111.155 17.369 110.252 17.2167 109.972 17.2167Z" fill="#6D6E70"/>
<path d="M115.347 19.8271C115.197 20.0882 114.788 20.806 114.165 20.806C114.057 20.806 113.67 20.806 113.67 20.371C113.67 20.0447 113.756 19.7836 113.842 19.5444H113.821C113.24 20.3492 112.939 20.806 112.359 20.806C111.778 20.806 111.778 20.3927 111.778 20.2187C111.778 19.6966 112.337 18.3044 112.337 17.8693C112.337 17.6736 112.165 17.6736 111.907 17.6518V17.4343C112.574 17.4125 113.369 17.2385 113.477 17.2167L112.767 19.5661C112.681 19.8489 112.66 19.9359 112.66 20.0882C112.66 20.2405 112.724 20.2622 112.832 20.2622C113.133 20.2622 113.584 19.5443 113.692 19.3486C114.036 18.7177 114.208 18.1304 114.444 17.3037H115.326C115.175 17.8476 114.552 19.8924 114.552 20.1317C114.552 20.2622 114.638 20.284 114.659 20.284C114.831 20.284 115.132 19.8271 115.197 19.7184L115.347 19.8271Z" fill="#6D6E70"/>
<path d="M119.604 19.8054C119.368 20.2187 119.002 20.8061 118.422 20.8061C118.293 20.8061 117.906 20.8061 117.906 20.3057C117.906 19.7619 118.572 18.0869 118.572 17.9129C118.572 17.8259 118.486 17.7388 118.379 17.7388C118.185 17.7388 117.433 18.1087 116.766 20.7191H115.863C116.25 19.2616 116.637 17.9999 116.637 17.8041C116.637 17.6083 116.444 17.6083 116.229 17.6083V17.3908C116.401 17.3908 117.132 17.3255 117.734 17.195L117.282 18.609L117.304 18.6307C117.841 17.8259 118.25 17.195 118.895 17.195C119.067 17.195 119.454 17.2168 119.454 17.8041C119.454 18.3044 118.809 19.9142 118.809 20.1535C118.809 20.2187 118.852 20.284 118.916 20.284C119.067 20.284 119.239 20.0012 119.432 19.6966L119.604 19.8054Z" fill="#6D6E70"/>
<path d="M122.27 17.63H121.647C121.389 18.5654 121.002 19.8924 121.002 20.1534C121.002 20.2404 121.109 20.2622 121.109 20.2622C121.303 20.2622 121.582 19.8054 121.69 19.6531L121.862 19.7619C121.582 20.1969 121.217 20.806 120.636 20.806C120.099 20.806 120.099 20.3492 120.099 20.3057C120.099 20.0012 120.464 18.8482 120.787 17.63H120.4V17.369C120.701 17.2602 121.26 17.0209 121.776 16.2161H122.034L121.733 17.3255H122.27V17.63Z" fill="#6D6E70"/>
<path d="M122.507 17.4343C123.281 17.369 123.496 17.3473 124.012 17.2167L123.582 18.5872L123.625 18.609C123.84 18.1521 124.292 17.2385 124.786 17.2385C124.808 17.2385 125.216 17.2385 125.216 17.7388C125.216 18.0869 125.001 18.3044 124.765 18.3044C124.507 18.3044 124.421 18.0216 124.313 18.0216C124.098 18.0216 123.711 18.783 123.539 19.1963C123.346 19.7184 123.26 20.0664 123.023 20.7843H122.12C122.529 19.4138 122.894 18.1304 122.894 17.8911C122.894 17.6953 122.765 17.6953 122.486 17.6953V17.4343" fill="#6D6E70"/>
<path d="M125.41 17.3908C125.84 17.3473 126.248 17.282 126.528 17.2168C126.678 17.5866 126.915 18.696 127.022 19.3268L127.108 19.8707H127.13C127.452 19.2181 127.753 18.609 127.753 18.3479C127.753 17.9999 127.345 18.1304 127.345 17.6301C127.345 17.4343 127.517 17.195 127.753 17.195C127.99 17.195 128.226 17.4125 128.226 17.6736C128.226 18.5655 127.259 20.1535 127.194 20.2622C126.42 21.5457 125.775 22.2853 125.023 22.2853C124.743 22.2853 124.571 22.0243 124.571 21.8285C124.571 21.698 124.679 21.4152 124.98 21.4152C125.087 21.4152 125.302 21.5022 125.367 21.5457C125.41 21.5892 125.582 21.6762 125.668 21.6762C125.861 21.6762 126.356 21.1976 126.356 20.7626C126.356 20.3928 126.076 19.0223 126.012 18.7395C125.754 17.5866 125.689 17.5866 125.388 17.5866V17.3908" fill="#6D6E70"/>
</g>
<defs>
<clipPath id="clip0_21_783">
<rect width="129" height="21.9057" fill="white" transform="translate(0 0.401367)"/>
</clipPath>
</defs>
</svg>
