<svg width="311" height="250" viewBox="0 0 311 250" fill="none" xmlns="http://www.w3.org/2000/svg">
<g opacity="0.5" clip-path="url(#clip0_49_3236)">
<path opacity="0.95" d="M151.982 117.179C130.38 117.179 112.867 99.6662 112.867 78.0764C112.867 56.4749 130.38 38.9741 151.97 38.9741C173.572 38.9741 191.073 56.4866 191.073 78.0764C191.085 99.6662 173.572 117.179 151.982 117.179Z" fill="url(#paint0_linear_49_3236)"/>
<path d="M170.092 99.374H133.875V101.161H170.092V99.374Z" fill="#96BFE6"/>
<path d="M164.963 105.005H139.004V106.792H164.963V105.005Z" fill="#96BFE6"/>
<path opacity="0.95" d="M257.481 191.738C227.923 191.738 203.961 167.777 203.961 138.219V119.62C203.961 90.063 227.923 66.1016 257.481 66.1016C287.038 66.1016 311 90.063 311 119.62V138.219C311 167.777 287.038 191.738 257.481 191.738Z" fill="url(#paint1_linear_49_3236)"/>
<path d="M260.986 140.217H252.492V141.794H260.986V140.217Z" fill="#4598E6"/>
<path d="M269.665 154.622H220.258V157.671H269.665V154.622Z" fill="#96BFE6"/>
<path d="M260.213 169.237H220.258V172.287H260.213V169.237Z" fill="#96BFE6"/>
<path d="M243.682 161.936H220.258V164.985H243.682V161.936Z" fill="#96BFE6"/>
<path d="M282.589 78.6255V80.1676H291.643V88.661H293.185V78.6255H282.589ZM221.113 88.661H222.655V80.1676H231.71V78.6255H221.113V88.661ZM291.643 132.495V141H282.589V142.53H293.185V132.495H291.643ZM222.644 132.495H221.102V142.53H231.698V140.988H222.644V132.495Z" fill="#4598E6"/>
<path d="M288.382 172.508C283.394 172.508 279.328 168.443 279.328 163.454C279.328 158.466 283.394 154.4 288.382 154.4C293.371 154.4 297.437 158.466 297.437 163.454C297.437 168.443 293.371 172.508 288.382 172.508ZM288.382 156.152C284.352 156.152 281.081 159.424 281.081 163.454C281.081 167.485 284.352 170.756 288.382 170.756C292.413 170.756 295.684 167.485 295.684 163.454C295.684 159.435 292.413 156.152 288.382 156.152Z" fill="#4598E6"/>
<path d="M287.812 167.017L283.699 162.905L284.938 161.666L287.812 164.54L291.842 160.51L293.081 161.748L287.812 167.017Z" fill="#4598E6"/>
<path d="M293.826 243.119C293.826 246.916 228.051 250 146.913 250C65.775 250 0 246.916 0 243.119C0 239.322 65.775 236.238 146.913 236.238C228.051 236.238 293.826 239.322 293.826 243.119Z" fill="url(#paint2_linear_49_3236)"/>
<path opacity="0.95" d="M178.338 41.8828H125.613V87.1186H178.338V41.8828Z" fill="url(#paint3_linear_49_3236)"/>
<path d="M48.1316 223.071C52.5244 219.987 57.6532 198.467 57.9686 185.663C58.1205 179.097 60.0716 176.363 61.7773 173.957C63.4129 171.655 64.8265 169.658 64.0087 165.09C62.4315 156.351 66.5673 152.577 66.614 152.542L66.135 151.993C65.9481 152.157 61.6488 156.047 63.2961 165.218C64.0671 169.494 62.7937 171.281 61.1931 173.536C59.5108 175.908 57.4079 178.864 57.256 185.651C56.9288 199.402 51.6715 219.718 47.7344 222.487L48.1316 223.071Z" fill="url(#paint4_linear_49_3236)"/>
<path d="M38.9377 216.798C38.5288 215.863 38.0965 214.882 37.6059 213.866C35.094 208.573 32.8743 207.697 29.1941 206.26C28.2946 205.91 27.2781 205.512 26.1566 205.01C20.8876 202.638 21.904 199.145 22.8036 196.073C22.9321 195.64 23.0606 195.208 23.1657 194.788C23.6331 192.977 22.7335 192.065 21.3899 190.687C20.3852 189.659 19.1351 188.397 18.1771 186.388C17.1257 184.191 17.6631 183.011 18.294 182.404C19.6258 181.13 22.7101 181.364 25.6308 182.965C26.5304 183.455 27.2781 184.238 28.0726 185.068C29.9302 187.007 32.2434 189.425 38.0849 189.46C41.4145 189.472 43.237 189.939 44.1834 191.002C45.2582 192.206 45.0479 194.017 44.7792 196.505C44.6857 197.369 44.5689 198.351 44.5105 199.402C44.1133 205.711 47.8401 210.267 47.8752 210.302C50.0949 212.954 52.8404 218.445 51.6604 221.833C51.1698 223.247 50.0599 224.146 48.3659 224.485C47.6882 224.625 47.0807 224.684 46.5083 224.684C42.4076 224.672 40.9121 221.284 38.9377 216.798ZM25.2804 183.584C22.6751 182.17 19.8945 181.878 18.7963 182.918C17.9668 183.712 18.3524 185.067 18.8314 186.061C19.7426 187.965 20.8876 189.133 21.904 190.173C23.3176 191.61 24.4275 192.755 23.8667 194.963C23.7616 195.395 23.6331 195.839 23.5045 196.271C22.605 199.344 21.7638 202.241 26.4603 204.344C27.5585 204.835 28.5749 205.232 29.4628 205.582C33.178 207.043 35.6314 208.001 38.2601 213.562C38.7508 214.59 39.1831 215.571 39.592 216.518C41.8585 221.67 43.237 224.766 48.2023 223.773C49.6276 223.481 50.5506 222.756 50.9595 221.588C51.9992 218.609 49.5108 213.387 47.3027 210.758C47.1391 210.559 43.3539 205.945 43.7745 199.344C43.8446 198.269 43.9497 197.276 44.0548 196.411C44.3119 194.098 44.4988 192.428 43.6459 191.47C42.8632 190.593 41.1458 190.185 38.0849 190.173C31.9396 190.15 29.5096 187.603 27.5585 185.558C26.7641 184.729 26.0865 184.028 25.2804 183.584Z" fill="url(#paint5_linear_49_3236)"/>
<path d="M48.2709 228.866L48.9952 228.831C48.9601 228.153 48.0489 212.101 41.5999 207.393C34.5317 202.241 32.3003 196.703 31.2371 192.976C29.987 188.595 23.6198 187.427 23.3511 187.38L23.2109 188.093C23.2694 188.105 29.4029 189.238 30.5245 193.175C31.611 196.995 33.9008 202.685 41.1559 207.977C47.3362 212.475 48.2592 228.702 48.2709 228.866Z" fill="url(#paint6_linear_49_3236)"/>
<path d="M47.045 232.476C45.5262 231.717 45.5846 228.679 45.6664 224.088C45.7715 218.282 45.9117 210.326 42.8742 203.012C39.6497 195.243 42.5237 192.965 45.3159 190.769C48.4352 188.303 51.3793 185.979 45.7248 175.487C43.1312 170.674 42.3017 167.415 43.1312 165.23C43.949 163.08 46.2389 162.239 48.6689 161.351C52.8631 159.821 57.6064 158.08 56.9988 149.213C56.8119 146.491 57.1274 144.82 58.0036 143.956C58.9499 143.009 60.3519 143.114 61.9758 143.231C64.4292 143.407 67.1981 143.617 69.6164 140.462C69.8735 139.68 72.175 132.647 74.9439 131.432C75.528 131.175 76.0888 131.186 76.6379 131.443C78.5422 132.355 79.6521 133.441 80.0259 134.75C80.6685 137.039 78.9978 139.61 77.0585 142.6C74.0092 147.297 70.5627 152.613 74.1377 158.933C78.8693 167.298 76.3692 170.23 72.911 174.272C70.9249 176.597 68.6818 179.226 67.1747 183.514C65.9713 186.96 68.0275 190.254 70.0253 193.444C72.5255 197.439 75.1074 201.563 69.6632 205.15C60.6556 211.073 51.7766 230.408 51.6831 230.595L51.6481 230.677L51.578 230.735C49.919 232.032 48.7156 232.651 47.8044 232.651C47.5123 232.64 47.267 232.581 47.045 232.476ZM69.2543 204.531C74.1027 201.341 71.918 197.86 69.3945 193.818C67.4084 190.64 65.1535 187.053 66.4737 183.268C68.0159 178.852 70.3174 176.165 72.3385 173.793C75.7266 169.821 77.9697 167.204 73.4835 159.272C69.6865 152.566 73.4251 146.806 76.4276 142.18C78.2735 139.341 79.8624 136.888 79.3016 134.925C78.9861 133.827 78.0048 132.892 76.2991 132.074C75.9486 131.911 75.5981 131.911 75.2126 132.074C72.6423 133.196 70.294 140.638 70.2707 140.708L70.2473 140.766L70.2123 140.813C67.5485 144.329 64.4175 144.107 61.9057 143.921C60.3986 143.815 59.2186 143.722 58.4943 144.435C57.7933 145.136 57.5246 146.678 57.6998 149.131C58.3541 158.547 53.1084 160.463 48.9026 162.006C46.5309 162.87 44.4981 163.618 43.7971 165.464C43.0494 167.426 43.8672 170.499 46.3557 175.114C52.3023 186.142 48.9727 188.771 45.7599 191.306C43.0728 193.432 40.5259 195.43 43.5401 202.697C46.6361 210.15 46.4959 218.2 46.3907 224.064C46.3206 228.072 46.2622 231.238 47.3721 231.787C48.0147 232.114 49.2531 231.565 51.0522 230.163C51.7649 228.632 60.2818 210.431 69.2543 204.531Z" fill="url(#paint7_linear_49_3236)"/>
<path d="M32.8265 148.208C37.4062 146.643 36.4599 155.463 38.3876 162.006C40.327 168.536 59.9193 164.856 51.6945 181.212C43.4697 197.568 62.104 186.68 56.5312 200.956C50.9701 215.232 56.0522 230.502 50.0004 226.623C43.9487 222.744 46.6007 204.765 40.3153 202.627C34.0182 200.489 33.0018 198 39.2288 192.194C45.4558 186.388 22.9077 180.616 28.4688 168.898C34.0415 157.157 27.5341 150.019 32.8265 148.208Z" fill="url(#paint8_linear_49_3236)"/>
<path d="M47.9005 225.689C48.4729 223.247 53.3915 201.739 48.8001 199.134C44.7578 196.844 44.8512 187.93 45.4821 179.518C46.0429 172.065 36.4746 168.583 36.0657 168.443L35.8203 169.132C35.9138 169.167 45.2718 172.579 44.7578 179.471C44.1152 188.117 44.0451 197.288 48.4379 199.776C51.9194 201.751 48.7183 219.041 47.1878 225.525L47.9005 225.689Z" fill="white"/>
<path d="M65.1885 218.024L58.6461 242.839H44.0307L37.4883 218.024H65.1885Z" fill="url(#paint9_linear_49_3236)"/>
<path d="M65.1885 218.024C65.1885 218.024 50.7834 220.723 50.7834 242.839H44.019L37.4766 218.024H65.1885Z" fill="url(#paint10_linear_49_3236)"/>
<path opacity="0.95" d="M230.352 61.7552H224.639C210.351 61.7552 198.762 50.1659 198.762 35.8779C198.762 21.5898 210.351 10.0005 224.639 10.0005H230.352C244.641 10.0005 256.23 21.5898 256.23 35.8779C256.23 50.1659 244.652 61.7552 230.352 61.7552Z" fill="url(#paint11_linear_49_3236)"/>
<path d="M229.556 51.9653H225V52.8065H229.556V51.9653Z" fill="#4598E6"/>
<path d="M241.161 19.3701V20.1996H246.021V24.7559H246.85V19.3701H241.161ZM208.156 24.7559H208.986V20.1996H213.846V19.3701H208.156V24.7559ZM246.021 48.285V52.853H241.161V53.6825H246.85V48.2967H246.021V48.285ZM208.986 48.285H208.156V53.6708H213.846V52.8413H208.986V48.285Z" fill="#4598E6"/>
<path d="M155.02 90.6353H148.934V91.7685H155.02V90.6353Z" fill="#4598E6"/>
<path d="M170.22 47.0932V48.1914H176.716V54.2781H177.814V47.0815H170.22V47.0932ZM126.141 54.2781H127.239V48.1914H133.735V47.0932H126.141V54.2781ZM176.716 85.7165V91.8149H170.22V92.9131H177.814V85.7165H176.716ZM127.239 85.7165H126.141V92.9131H133.735V91.8149H127.239V85.7165Z" fill="#4598E6"/>
<path d="M289.807 126.175H279.655C278.989 121.315 278.171 115.765 278.171 115.765C278.171 115.765 277.762 120.345 277.26 126.175H236.626C236.252 120.929 235.808 117.004 235.645 116.922C235.411 116.805 233.963 121.455 232.759 126.175H221.754C224.581 113.989 229.862 94.4325 232.911 93.2642C237.257 91.5936 254.969 86.1377 254.969 86.1377H265.074C265.074 86.1377 283.031 91.2664 284.702 96.8274C286.022 101.267 288.954 115.905 289.807 126.175Z" fill="#E65353"/>
<path d="M260.482 53.3437C260.482 53.3437 269.921 54.8274 268.484 69.5945C267.047 84.3615 258.717 83.1465 258.157 83.1348C257.596 83.1231 249.792 83.4035 249.184 65.377C249.184 65.377 248.915 52.0469 260.482 53.3437Z" fill="#EEA987"/>
<path d="M264.887 78.7889C264.887 78.7889 264.63 84.864 265.214 86.1724C265.799 87.4926 257.422 91.7101 252.316 87.0019C252.316 87.0019 253.555 80.4011 253.204 78.0646C252.865 75.728 264.887 78.7889 264.887 78.7889Z" fill="#EEA987"/>
<path d="M268.626 65.4241C268.626 65.4241 269.655 64.3259 270.04 65.4358C270.414 66.5573 268.44 71.5459 268.568 71.7678C268.568 71.7678 268.381 72.2001 268.136 71.9665C267.879 71.7328 268.626 65.4241 268.626 65.4241Z" fill="#EEA987"/>
<path d="M249.289 65.2368C249.289 65.2368 248.273 64.1153 247.876 65.2251C247.478 66.335 249.359 71.3703 249.231 71.5922C249.231 71.5922 249.406 72.0245 249.663 71.7909C249.908 71.5572 249.289 65.2368 249.289 65.2368Z" fill="#EEA987"/>
<path d="M268.613 67.6904L267.258 69.5012C267.258 69.5012 267.293 65.5408 267.083 64.9216C266.861 64.3024 266.534 62.3981 266.359 61.9541C266.172 61.5102 258.251 59.2905 251.253 62.5967C251.253 62.5967 251.556 65.4473 250.89 65.6926C250.224 65.9497 250.552 70.3307 250.552 70.3307L249.442 69.0806C249.442 69.0806 247.736 57.725 248.157 56.5333C248.577 55.3534 249.909 48.2269 264.267 52.456C264.267 52.456 268.742 51.5097 269.641 54.594C270.553 57.7016 268.613 67.6904 268.613 67.6904Z" fill="#D98B52"/>
<path d="M265.216 86.1726C265.216 86.1726 267.342 86.6282 258.44 95.1684C258.44 95.1684 252.119 88.182 252.329 87.0021C252.516 85.8338 265.216 86.1726 265.216 86.1726Z" fill="#EEA987"/>
<path d="M258.426 95.1681L260.856 99.3272L268.076 87.0836L264.957 84.8989L258.426 95.1681Z" fill="#B84343"/>
<path d="M258.425 95.1684L252.525 85.7754L249.184 87.925L255.177 99.3274L258.425 95.1684Z" fill="#B84343"/>
<path d="M256.604 121.186C256.675 122.576 256.71 124.27 256.71 126.174H256.371C256.371 124.27 256.336 122.576 256.266 121.198C255.717 110.777 258.24 98.1007 258.263 95.1333L258.591 95.2034C258.567 98.1708 256.055 110.812 256.604 121.186Z" fill="#B84343"/>
<path d="M254.082 81.3945C254.082 81.3945 256.325 83.7661 259.491 83.1352C262.657 82.5043 264.059 81.0557 264.059 81.0557C264.059 81.0557 262.809 84.1867 259.152 84.4787C255.496 84.7708 254.082 81.3945 254.082 81.3945Z" fill="#C78D71"/>
<path d="M144.728 47.5026C144.716 47.5026 144.716 47.5026 144.705 47.5026C144.494 47.4559 144.155 46.4278 144.085 46.2292C144.074 46.1708 144.039 46.0657 143.992 45.9255C143.723 45.1077 143.104 43.1917 143.349 42.4557C143.431 42.222 143.548 42.0935 143.7 42.0585C144.039 41.9884 144.424 42.4206 144.448 42.4323L144.459 42.444V42.4557C144.553 43.2618 144.973 47.2807 144.786 47.4676C144.775 47.5026 144.751 47.5026 144.728 47.5026ZM143.793 42.1402C143.77 42.1402 143.747 42.1402 143.735 42.1519C143.606 42.1753 143.513 42.2921 143.443 42.5024C143.209 43.2151 143.84 45.1778 144.085 45.9138C144.132 46.054 144.167 46.1591 144.179 46.2175C144.331 46.7082 144.611 47.4092 144.74 47.4442C144.74 47.4442 144.74 47.4442 144.751 47.4442C144.868 47.2807 144.599 44.3366 144.401 42.5024C144.331 42.4323 144.05 42.1402 143.793 42.1402Z" fill="#EEA886"/>
<path d="M151.752 31.462C151.752 31.462 156.951 30.9129 158.82 35.9365C160.689 40.9484 162.453 42.5957 162.675 45.236C163.563 55.8907 168.54 53.4841 167.15 59.6292C165.748 65.7744 164.778 66.709 164.778 66.709L152.873 64.3724L140.816 64.4075C140.816 64.4075 145.536 62.0475 144.485 57.0356C143.433 52.0237 140.816 43.799 142.3 38.1913C143.772 32.5836 148.644 31.8826 151.752 31.462Z" fill="#16202E"/>
<path d="M158.093 47.5024C158.07 47.5024 158.046 47.4907 158.035 47.479C157.848 47.2921 158.28 43.2732 158.362 42.4671V42.4554L158.374 42.4437C158.385 42.4204 158.782 41.9998 159.121 42.0699C159.285 42.1049 159.402 42.2334 159.472 42.4671C159.717 43.2031 159.098 45.1191 158.829 45.9369C158.782 46.0771 158.747 46.1822 158.736 46.2406C158.666 46.4509 158.327 47.4673 158.116 47.5141C158.105 47.5024 158.105 47.5024 158.093 47.5024ZM158.444 42.4905C158.245 44.3247 157.976 47.2687 158.093 47.4323H158.105C158.233 47.3972 158.502 46.6963 158.666 46.2056C158.677 46.1472 158.712 46.042 158.759 45.9018C158.993 45.1658 159.635 43.1914 159.402 42.4905C159.332 42.2919 159.238 42.175 159.11 42.14C158.829 42.0816 158.49 42.4204 158.444 42.4905Z" fill="#EEA886"/>
<path d="M176.179 79.3847H168.761C167.219 76.5809 165.968 74.3845 165.968 74.3845C165.968 74.3845 164.964 76.207 164.193 79.3847H139.226C138.841 77.4103 138.817 75.506 138.899 74.1625C138.899 74.1625 137.567 76.5692 136.013 79.3847H127.625C129.845 75.214 134.016 67.6318 134.974 66.6388C136.165 65.3888 143.058 60.6222 147.988 59.0684C152.919 57.5146 155.711 59.0099 155.711 59.0099C155.711 59.0099 160.77 59.9212 165.443 61.7788C167.3 62.5148 172.382 71.8961 176.179 79.3847Z" fill="#FAA146"/>
<path d="M152.44 34.3944C152.44 34.3944 159.322 35.3875 158.317 45.5398C157.312 55.6922 151.237 54.8861 150.828 54.8861C150.419 54.8744 144.741 55.0963 144.239 42.7009C144.239 42.7009 144.005 33.5416 152.44 34.3944Z" fill="#8E4F3A"/>
<path d="M155.49 53.0871C155.49 53.0871 155.069 58.3677 156.086 59.9565C157.102 61.5337 155.21 63.6834 151.331 62.9473C147.441 62.2113 147.662 60.0033 147.662 60.0033C147.662 60.0033 148.749 56.7438 148.434 54.1385C148.118 51.5216 155.49 53.0871 155.49 53.0871Z" fill="#8E4F3A"/>
<path d="M151.643 38.0746C151.643 38.0746 154.856 41.4509 156.351 43.1683C157.847 44.874 158.022 48.1802 158.022 48.1802C158.022 48.1802 160.534 45.1076 159.483 41.5327C158.431 37.9578 155.943 30.9948 149.645 33.1328C143.348 35.2707 143.115 44.687 143.851 49.3485C143.851 49.3485 146.678 39.0443 151.643 38.0746Z" fill="#16202E"/>
<path d="M157.909 59.489C157.909 59.489 153.142 71.569 150.233 73.6719C150.233 73.6719 146.425 61.3466 146.693 59.5474C146.693 59.5357 152.441 57.2809 157.909 59.489Z" fill="#8E4F3A"/>
<path d="M147.823 56.5566C147.823 56.5566 139.318 64.1271 141.526 68.8469C143.407 72.8775 150.09 70.4007 148.992 66.1833C147.882 61.9658 147.823 56.5566 147.823 56.5566Z" fill="#16202E"/>
<path d="M148.934 54.4306C148.934 54.4306 151.866 55.8208 154.717 53.7646C154.717 53.7646 153.922 55.4002 151.819 55.6339C149.728 55.8675 148.934 54.4306 148.934 54.4306Z" fill="#633029"/>
<path d="M224.43 26.4736C224.43 26.4736 221.615 37.0933 221.019 39.4766C220.844 40.2009 220.283 41.4393 219.559 42.8646C219.559 42.8763 219.547 42.888 219.535 42.8996C219.383 43.2151 219.302 43.4955 219.267 43.7642C219.15 44.6521 219.489 45.3413 218.904 46.3928L218.799 46.8367H213.215C213.869 44.8974 214.699 42.444 215.353 40.4579C215.914 38.7873 216.346 37.4555 216.463 37.0699C216.813 35.9133 218.075 32.1865 219.15 29.7098C219.524 28.8452 220.972 27.9924 222.257 27.3732C223.414 26.8241 224.43 26.4736 224.43 26.4736Z" fill="#323657"/>
<path d="M220.693 11.3092C220.693 11.3092 218.918 -0.210017 228.451 0.0119564C237.984 0.222247 237.856 5.92345 237.692 11.5662C237.517 17.2207 233.872 16.7884 237.984 24.651C242.108 32.5135 234.421 32.5135 234.421 32.5135L228.451 24.3122L220.693 11.3092Z" fill="#FCCCA2"/>
<path d="M227.411 1.10989C227.411 1.10989 220.951 2.1263 220.694 11.309C220.437 20.4916 222.434 22.4427 228.089 20.5267C233.743 18.6107 235.519 9.00746 235.648 7.52375C235.788 6.04003 236.127 2.96021e-05 227.411 1.10989Z" fill="#EEA886"/>
<path d="M238.752 33.0275C238.775 36.1818 235.142 43.7406 234.581 46.0772C234.511 46.3459 234.441 46.6029 234.371 46.8366H216.741C216.648 45.7501 216.566 44.8154 216.519 44.2897C216.379 42.5607 214.627 38.8455 214.685 37.1165C214.743 35.3524 215.608 33.8336 216.823 31.9527C217.197 31.3685 217.594 30.7727 217.991 30.2003C219.276 28.3193 220.562 26.6136 221.181 26.0178C221.648 25.5856 222.092 25.2468 222.466 24.9897C223.26 24.464 223.786 24.2888 223.786 24.2888L229.335 23.4009C229.335 23.4009 232.794 24.6509 234.791 25.1182C234.803 25.1182 238.693 25.6907 238.752 33.0275Z" fill="#E55353"/>
<path d="M222.481 24.9897L219.268 30.0601L216.301 34.7449C216.312 34.7215 216.511 34.0089 216.838 31.9644C216.897 31.5788 216.967 31.1349 217.048 30.6442C217.072 30.504 217.107 30.3521 217.142 30.212C218.404 27.2679 222.341 25.0598 222.481 24.9897Z" fill="#E55353"/>
<path d="M231.72 16.3912C231.159 17.4427 230.563 24.0084 230.563 24.0084C230.563 24.0084 222.666 26.9992 223.472 25.3052C223.834 24.5341 223.951 23.5411 223.951 22.6883C223.963 22.0107 223.904 21.4265 223.869 21.0994C223.846 20.9242 223.834 20.8307 223.834 20.8307C223.834 20.8307 232.281 15.3281 231.72 16.3912Z" fill="#EEA886"/>
<path d="M224.78 7.69919C224.78 7.69919 228.098 13.0966 231.113 15.2229C234.127 17.3492 232.596 19.0432 232.596 19.0432C232.596 19.0432 240.471 2.47698 232.982 1.32038C225.493 0.17547 220.913 0.0936905 220.703 11.3092C220.691 11.3092 224.091 7.60572 224.78 7.69919Z" fill="#FCCCA2"/>
<path d="M228.381 20.4219C227.166 22.2093 223.965 22.6883 223.965 22.6883C223.976 22.0107 223.918 21.4266 223.883 21.0995C225.939 21.4967 228.381 20.4219 228.381 20.4219Z" fill="#A77860"/>
<path d="M217.151 30.1653C217.151 30.1653 216.976 30.5157 216.836 31.9527L218.004 30.2003C218.004 30.2003 220.084 27.2212 220.796 26.4501C221.509 25.6791 222.49 25.0015 222.49 25.0015C222.49 25.0015 218.39 26.9525 217.151 30.1653Z" fill="#EBEEFF"/>
<path d="M232.864 34.6164C232.864 34.6164 237.934 32.6304 239.43 32.5135C239.43 32.5135 238.413 24.3706 233.425 25.2352C228.459 26.088 232.864 34.6164 232.864 34.6164Z" fill="#E55353"/>
<path d="M223.812 24.2887C223.812 24.2887 220.085 30.0132 221.347 30.5156C222.608 31.018 229.431 29.8497 232.329 24.4172C232.329 24.4055 227.994 22.1858 223.812 24.2887Z" fill="#EEA886"/>
<path d="M239.443 32.5019C239.186 36.9881 237.913 41.2407 236.861 45.1544C236.709 45.7152 236.558 46.276 236.429 46.8367H226.101C226.078 45.2946 226.078 43.9277 226.125 42.7828C226.65 30.3289 230.588 23.7749 230.588 23.7749C230.588 23.7749 231.849 24.1955 235.471 25.2236C237.959 25.9245 238.894 29.0906 239.233 31.0065C239.233 31.0065 239.233 31.0182 239.233 31.0299C239.408 31.9061 239.443 32.5019 239.443 32.5019Z" fill="#323657"/>
<path d="M223.811 24.2886C223.776 24.3587 223.087 25.5036 222.281 27.3728C221.054 30.1767 219.536 34.6162 219.407 39.5112C219.372 41.0767 219.057 43.6236 218.578 46.8364H216.521C216.311 44.1493 215.82 41.9997 215.388 40.4576C215.108 39.4528 214.851 38.7051 214.71 38.2378C214.056 36.0064 216.159 33.0273 216.86 31.9642C217.538 30.8893 219.232 25.9943 223.811 24.2886Z" fill="#323657"/>
<path d="M242.728 46.8368H237.19C237.19 46.4746 237.061 45.8905 236.863 45.1545C235.858 41.5795 232.879 34.6049 232.879 34.6049C232.879 34.6049 228.416 27.3149 232.645 25.4573C236.874 23.5997 238.685 28.7869 239.258 31.0066C239.258 31.0066 239.258 31.0183 239.258 31.03C239.398 31.5674 241.91 41.159 242.728 46.8368Z" fill="#323657"/>
<path d="M152.323 150.743C152.323 150.743 154.262 150.719 154.951 149.972C155.641 149.224 156.856 148.558 157.253 148.371C157.779 148.114 159.216 146.712 159.403 147.402C159.589 148.091 157.101 149.832 156.634 150.299C156.166 150.766 158.702 150.976 159.064 151.432C159.438 151.888 158.141 156.689 156.458 156.316C154.764 155.942 153.386 154.236 153.07 154.248C152.755 154.248 151.82 154.037 151.82 154.037L152.323 150.743Z" fill="#EEA886"/>
<path d="M158.704 151.222C158.704 151.222 163.751 152.764 163.95 153.197C164.16 153.629 164.02 153.956 163.541 153.827C163.062 153.711 158.611 152.507 158.611 152.507C158.611 152.507 164.125 155.521 164.371 155.825C164.511 156 164.277 156.631 164.008 156.596C163.74 156.561 158.073 153.956 158.073 153.956C158.073 153.956 163.214 156.783 163.342 157.11C163.459 157.402 163.109 157.94 162.712 157.765C162.314 157.589 157.361 155.299 157.361 155.299C157.361 155.299 160.936 157.648 160.889 158.033C160.854 158.267 160.667 158.816 159.767 158.185C158.868 157.543 156.555 156.316 156.555 156.316L158.704 151.222Z" fill="#EEA886"/>
<path d="M141.725 235.806C141.725 235.806 143.338 238.224 145.616 238.75C147.882 239.275 150.114 240.105 150.137 241.53C150.149 242.967 143.583 243.82 140.978 242.371C137.099 240.222 136.713 240.864 136.281 239.789C135.849 238.715 136.795 235.829 136.772 235.49C136.725 235.07 141.725 235.806 141.725 235.806Z" fill="#353A3D"/>
<path d="M141.469 234.614C141.469 234.614 141.761 235.782 141.726 235.806C141.68 235.829 136.609 236.437 136.761 235.502C136.89 234.743 137.065 233.913 137.065 233.913L141.469 234.614Z" fill="#81807E"/>
<path d="M109.889 235.642C109.889 235.642 111.046 237.955 113.009 238.749C115.112 239.59 116.806 240.56 116.771 241.95C116.736 243.341 111.618 244.754 107.903 242.079C105.555 240.385 104.807 240.373 104.433 239.31C104.06 238.247 105.088 235.478 105.076 235.139C105.053 234.742 109.889 235.642 109.889 235.642Z" fill="#353A3D"/>
<path d="M109.948 234.439C109.948 234.439 109.937 235.619 109.89 235.642C109.843 235.665 104.948 236.063 105.077 235.151C105.17 234.427 105.556 233.539 105.556 233.539L109.948 234.439Z" fill="#81807E"/>
<path d="M127.905 163.734C127.905 163.734 134.342 188.385 136.784 194.086C139.05 199.367 139.798 206.75 140.114 210.454C140.511 215.115 142.847 233.282 143.116 234.649C143.397 236.016 135.546 235.408 135.546 235.408C135.546 235.408 130.136 204.005 127.893 199.414C126.398 196.353 117.694 174.424 116.701 175.686C115.708 176.948 114.47 198.923 113.734 202.58C112.998 206.225 110.731 235.058 110.731 235.058C110.731 235.058 105.672 235.806 104.317 234.661C104.317 234.661 103.698 210.045 104.177 203.211C104.352 200.605 101.128 171.959 105.263 160.417C107.483 154.306 127.905 163.734 127.905 163.734Z" fill="#2D3133"/>
<path d="M92.0742 146.047C92.0742 146.327 92.6116 147.46 93.4528 149.084C94.6912 146.596 95.6726 144.563 95.988 143.804C97.0395 141.327 102.437 135.661 102.437 135.661C102.437 135.661 102.437 135.661 102.437 135.672C102.437 135.672 102.437 135.672 102.437 135.684C102.437 135.684 102.437 135.684 102.437 135.696C102.437 135.707 102.437 135.707 102.449 135.719C102.449 135.731 102.46 135.754 102.46 135.766C102.46 135.777 102.46 135.789 102.472 135.801C102.472 135.813 102.472 135.813 102.484 135.824C102.776 136.922 104.587 143.757 104.645 147.133C104.715 150.802 105.673 157.589 105.673 157.589L106.795 157.753L109.283 158.103L109.587 158.15L110.311 158.255L116.924 159.19L119.272 159.517L119.588 159.564L120.931 159.751L124.635 160.276L125.581 160.405H125.593L126.294 160.51L127.275 160.65C127.298 160.615 128.221 159.353 128.081 156.538C127.988 154.727 127.777 151.316 127.859 148.15C127.859 148.138 127.859 148.115 127.859 148.103C127.859 148.068 127.859 148.021 127.859 147.986C127.859 147.974 127.859 147.963 127.859 147.951V147.939C127.917 146.199 128.069 144.551 128.396 143.301C128.618 142.46 128.759 141.619 128.852 140.836C128.852 140.801 128.864 140.754 128.864 140.719C128.875 140.567 128.899 140.427 128.911 140.287C129.121 138.091 128.957 136.42 128.946 136.327V136.338C129.016 136.478 129.495 138.254 130.126 140.439C131.2 144.131 132.696 149.002 133.327 149.236C134.25 149.575 149.274 154.026 152.522 154.482C152.896 154.54 153.118 154.528 153.141 154.47C153.153 154.423 153.176 154.376 153.188 154.318C153.585 153.021 154.122 150.813 154.216 150.451C154.227 150.416 154.227 150.404 154.227 150.404L153.643 150.229L137.299 145.334L129.822 123.791C129.67 123.662 127.836 122.775 126.492 122.144C125.125 121.489 123.478 120.543 121.983 119.725C121.223 119.305 120.499 118.931 119.88 118.639L119.786 118.592C118.758 118.125 118.069 117.809 118.069 117.809C118.045 117.809 117.882 117.786 117.625 117.763C116.188 117.622 111.725 117.214 110.241 117.12C110.113 117.108 110.019 117.108 109.937 117.108C109.867 117.108 109.821 117.108 109.786 117.108C109.599 117.12 108.676 117.436 107.472 117.903C107.426 117.915 107.379 117.938 107.332 117.961C107.274 117.985 107.215 118.008 107.157 118.031C107.052 118.066 106.947 118.113 106.841 118.16C106.631 118.242 106.398 118.335 106.176 118.417C106.094 118.452 106.024 118.475 105.942 118.51C103.524 119.468 100.755 120.66 100.1 121.127C99.6681 121.443 98.3129 123.99 96.7357 127.144C94.7146 133.628 92.1443 143.535 92.0742 145.988C92.0742 145.977 92.0742 146.012 92.0742 146.047Z" fill="#DECBC4"/>
<path d="M127.274 160.615C127.274 160.615 127.777 161.211 127.917 163.734C127.917 163.734 107.46 161.351 105.299 160.405C105.299 160.405 105.217 157.624 105.673 157.577C106.175 157.519 127.274 160.615 127.274 160.615Z" fill="#495055"/>
<path d="M109.832 116.372C109.89 119.585 116.106 121.337 116.106 121.337C116.106 121.337 118.711 118.078 118.08 117.762C117.835 117.646 117.741 117.155 117.706 116.606C117.683 116.092 117.706 115.519 117.741 115.145C117.765 114.923 117.776 114.772 117.776 114.772C117.776 114.772 116.889 113.837 115.755 112.715C113.781 110.764 111.07 108.264 111.059 109.257C111.059 109.316 111.07 109.374 111.082 109.444C111.573 111.711 109.832 116.372 109.832 116.372Z" fill="#EEA886"/>
<path d="M110.347 158.068C110.347 158.068 109.903 160.884 109.856 161.62L108.91 161.433C108.91 161.433 109.167 158.454 109.319 157.951L110.347 158.068Z" fill="#353A3D"/>
<path d="M125.571 160.288C125.571 160.288 125.933 162.846 125.933 163.816L124.929 163.687C124.929 163.687 124.718 160.486 124.613 160.159L125.571 160.288Z" fill="#353A3D"/>
<path d="M112.215 111.676C112.227 111.699 112.495 112.085 112.939 112.657C113.897 113.86 115.685 115.823 117.706 116.618C117.682 116.104 117.706 115.531 117.741 115.157C117.951 115.157 118.15 115.134 118.36 115.087C117.811 114.117 117.005 113.113 117.005 113.113L115.755 112.739L112.215 111.676Z" fill="#A77860"/>
<path d="M111.025 109.316C111.562 110.484 112.076 111.337 112.217 111.664C112.31 111.886 112.567 112.237 112.941 112.646C113.969 113.744 115.873 115.204 117.743 115.158C117.953 115.158 118.152 115.134 118.362 115.087C119.121 114.924 120.009 114.573 120.5 113.615C124.379 106.022 121.575 99.818 121.575 99.818C121.575 99.818 110.967 96.8155 109.308 100.017C108.151 102.248 109.763 106.571 111.025 109.316Z" fill="#EEA886"/>
<path d="M121.573 99.8061C121.573 99.8061 122.554 99.7477 122.799 97.8902C123.045 96.0443 122.554 95.5302 122.554 95.5302C122.554 95.5302 118.173 93.696 116.607 93.4624C115.03 93.2287 111.175 92.9951 110.264 94.0348C110.264 94.0348 108.067 93.5208 107.46 97.1775C106.513 102.972 110.696 108.603 110.696 108.603C110.696 108.603 110.661 104.818 111.49 104.316C112.32 103.813 113.044 105.005 113.044 105.005L114.75 105.309C114.75 105.309 112.156 99.701 115.264 99.5024C118.395 99.2921 119.785 100.133 121.573 99.8061Z" fill="#252E3B"/>
<path d="M113.012 103.498C112.848 101.827 109.834 101.196 110.033 102.937C110.231 104.689 111.715 106.372 112.404 106.302C113.094 106.243 113.14 104.759 113.012 103.498Z" fill="#EEA886"/>
<path d="M93.4528 149.084C94.7729 151.596 96.8408 155.276 98.8853 158.863C98.6166 159.365 98.3479 159.867 98.1026 160.358C97.4834 161.561 96.946 162.73 96.5487 163.816C96.0814 165.125 95.4272 168.478 96.6773 169.097L103.22 172.707C103.22 172.707 103.266 172.578 103.348 172.345C103.57 171.76 104.038 170.499 104.68 168.875C104.703 168.816 104.762 168.665 104.867 168.443C104.996 168.139 105.182 167.695 105.404 167.193C105.498 166.971 105.603 166.737 105.708 166.492C105.825 166.211 105.954 165.931 106.07 165.639C106.246 165.218 106.421 164.809 106.584 164.435C107.028 163.396 107.379 162.59 107.379 162.59C107.402 162.543 107.426 162.496 107.449 162.449C107.659 161.994 107.881 161.526 108.103 161.071C108.442 160.358 108.804 159.645 109.166 158.956C109.201 158.886 109.236 158.816 109.271 158.746C109.342 158.629 109.4 158.501 109.47 158.384C109.505 158.314 109.552 158.232 109.587 158.162C109.599 158.15 109.61 158.127 109.61 158.115C109.622 158.08 109.645 158.057 109.657 158.033C111.55 154.587 113.676 151.701 114.354 147.472C114.424 147.063 114.482 146.654 114.54 146.257C114.634 145.579 114.727 144.925 114.809 144.271C114.844 144.026 114.868 143.78 114.903 143.535C115.241 140.708 115.452 138.196 115.615 136.443C116.129 130.988 112.788 125.076 110.218 121.419C108.851 119.468 107.694 118.16 107.472 117.915L107.461 117.903C107.414 117.915 107.367 117.938 107.32 117.961C107.262 117.985 107.204 118.008 107.145 118.031C107.04 118.066 106.935 118.113 106.83 118.16C106.619 118.242 106.386 118.335 106.164 118.417C106.082 118.452 106.012 118.475 105.93 118.51C103.442 119.48 98.2077 120.929 97.5535 121.396C97.1679 121.665 96.3268 124.153 95.3454 127.307C93.3243 133.791 92.1209 143.558 92.0625 146C92.0625 146.035 92.0625 146.07 92.0625 146.105C92.0742 146.339 92.5999 147.46 93.4528 149.084ZM103.395 147.869C103.395 149.084 102.998 150.486 102.39 151.97C102.379 152.005 102.355 152.04 102.343 152.087C101.923 151.187 101.526 150.334 101.175 149.54C100.206 147.355 99.5279 145.661 99.4929 144.984C99.2475 140.661 102.437 135.684 102.437 135.684C102.437 135.684 102.437 135.684 102.437 135.696C102.437 135.696 102.437 135.696 102.437 135.707C102.437 135.719 102.437 135.719 102.449 135.731C102.449 135.742 102.46 135.766 102.46 135.778C102.46 135.789 102.46 135.801 102.472 135.813C102.472 135.824 102.472 135.824 102.484 135.836C103.126 138.383 103.395 147.869 103.395 147.869Z" fill="#3C4145"/>
<path d="M115.826 164.143L97.1803 172.45C96.1288 172.917 94.8904 172.45 94.4231 171.386L89.3177 159.914C88.8503 158.863 89.3177 157.624 90.3808 157.157L109.027 148.85C110.078 148.383 111.317 148.85 111.784 149.914L116.889 161.386C117.357 162.437 116.878 163.676 115.826 164.143Z" fill="#B3A5A0"/>
<path d="M119.844 118.639C119.844 118.639 120.72 121.548 121.853 128.814C121.888 129.06 121.935 129.305 121.97 129.562C121.97 129.597 121.982 129.62 121.982 129.655C122.005 129.819 122.028 129.994 122.064 130.169C122.064 130.193 122.075 130.216 122.075 130.228C122.087 130.345 122.11 130.462 122.122 130.578C122.169 130.87 122.204 131.163 122.25 131.455C122.753 134.994 123.465 141.011 124.143 147.098C124.68 151.888 125.907 156.806 126.293 160.475C126.293 160.475 126.293 160.475 126.293 160.486C126.375 161.211 126.55 162.169 126.807 163.243C126.83 163.36 126.865 163.489 126.889 163.617C127.987 168.244 130.113 174.798 130.113 174.798L130.732 174.225L132.566 172.531C132.987 172.146 133.151 171.538 132.975 171.001C131.959 167.718 128.501 156.094 127.858 147.927C127.858 147.927 127.858 147.927 127.858 147.916C128.174 145.042 128.968 141.186 128.851 140.637C128.863 140.661 128.863 140.672 128.875 140.696C129.237 141.712 129.646 142.81 130.055 143.885C131.141 146.759 132.263 149.434 132.73 149.598C133.77 149.983 152.357 155.463 152.498 154.703C152.509 154.622 152.533 154.54 152.544 154.458C152.556 154.376 152.579 154.283 152.603 154.189C152.836 153.138 153.245 151.642 153.537 150.626C153.584 150.474 153.619 150.334 153.654 150.205C153.771 149.785 153.853 149.516 153.853 149.516L138.128 144.352L130.195 123.604C130.043 123.475 128.01 122.389 126.678 121.758C125.288 121.092 123.512 120.274 121.947 119.55C121.199 119.199 120.498 118.884 119.902 118.604L119.844 118.639Z" fill="#3C4145"/>
<path d="M109.202 125.835L112.228 127.541L110.931 128.861L114.366 147.437C115.067 143.079 115.382 138.955 115.627 136.42C116.422 127.985 107.998 118.464 107.473 117.879C107.064 118.031 106.631 118.207 106.176 118.382L109.202 125.835Z" fill="#51565C"/>
<path d="M119.797 118.557C119.797 118.557 120.93 122.249 122.239 131.455C122.741 134.995 123.454 141.011 124.131 147.086L124.832 129.691L123.395 128.125L124.68 126.525L121.935 119.527C121.187 119.176 120.486 118.861 119.89 118.58L119.797 118.557Z" fill="#51565C"/>
<path d="M107.309 117.926L109.832 116.373C109.832 116.373 109.902 117.751 116.106 121.338L114.342 126.303L107.309 117.926Z" fill="#F5E2D9"/>
<path d="M117.753 117.073C117.753 117.073 117.659 118.557 116.105 121.349L119.552 125.835L119.797 118.557L117.753 117.073Z" fill="#F5E2D9"/>
<path d="M116.095 121.349C116.095 121.349 115.429 124.013 115.663 124.76C115.663 124.76 117.135 125.298 118.187 124.632C118.187 124.62 117.45 122.763 116.095 121.349Z" fill="#FAA146"/>
<path d="M119.542 159.821C119.916 157.94 119.565 152.297 119.542 152.063L119.227 152.087C119.227 152.145 119.589 157.928 119.227 159.762L119.542 159.821Z" fill="#AD9F99"/>
<path d="M116.937 158.944C116.937 158.944 119.952 159.307 120.945 159.552L120.816 162.928L116.879 162.508L116.937 158.944Z" fill="#69737A"/>
<path d="M117.589 124.387C117.589 124.387 120.942 132.868 120.393 142.355C119.82 152.192 118.897 155.755 118.897 155.755L116.829 158.348L115.918 155.159C115.918 155.159 118.699 142.612 116.899 130.415C116.572 128.207 116.093 124.013 116.093 124.013L117.589 124.387Z" fill="#FAA146"/>
<path d="M107.506 164.412C107.506 164.412 108.231 165.849 108.943 166.094C109.668 166.34 110.719 167.508 110.719 167.508L105.649 170.183C105.649 170.183 104.294 167.543 104.235 165.861C104.177 164.178 107.506 164.412 107.506 164.412Z" fill="#EEA886"/>
<path d="M107.988 164.552L108.326 165.23C108.326 165.23 105.102 167.59 104.237 167.73L103.934 166.83L107.988 164.552Z" fill="#DECBC4"/>
<path d="M108.326 164.587C108.326 164.587 105.907 166.585 103.874 167.508L94.7617 151.526L100.58 148.348C100.58 148.336 108.162 163.384 108.326 164.587Z" fill="#3C4145"/>
<path d="M128.759 136.326C128.876 138.604 128.853 140.626 128.853 140.626C128.853 140.637 128.853 140.696 128.864 140.801C128.864 140.766 128.876 140.719 128.876 140.684C129.238 141.7 129.647 142.799 130.056 143.873C130.15 142.635 130.173 141.467 130.15 140.404C129.986 134.025 127.977 130.672 127.977 130.672C128.432 131.782 128.654 134.165 128.759 136.326Z" fill="#2D3133"/>
<path d="M207.945 115.286C207.945 115.286 207.851 114.117 207.991 113.568C208.225 112.622 207.874 111.091 209.066 110.344C210.258 109.596 213.669 112.715 213.938 113.58C214.207 114.444 212.933 115.928 210.258 117.178C207.582 118.417 207.945 115.286 207.945 115.286Z" fill="#EEA886"/>
<path d="M208.695 110.648C208.695 110.648 209.852 108.907 211.371 107.131C212.703 105.577 214.584 103.825 214.981 104.164C215.577 104.666 213.883 105.928 212.656 107.552C211.534 109.059 212.013 108.954 212.013 108.954C212.013 108.954 211.873 108.977 213.427 107.575C215.086 106.068 216.943 104.526 217.271 104.794C217.679 105.122 217.703 105.203 217.189 105.846C217.563 105.542 217.703 105.601 217.843 105.741C218.591 106.488 216.5 109.082 215.67 110.11C216.313 109.327 216.873 108.813 217.037 109.573C217.224 110.437 214.093 113.965 213.088 115.344C212.002 116.851 208.695 110.648 208.695 110.648Z" fill="#EEA886"/>
<path d="M168.714 235.361C168.714 235.361 171.962 237.289 173.434 238.002C174.906 238.714 180.63 238.925 181.191 239.462C181.752 239.999 181.553 241.705 180.595 241.88C179.649 242.056 172.686 242.686 170.373 242.137C168.048 241.6 163.713 242.511 162.755 242.184C161.797 241.857 162.417 236.681 162.79 235.513C163.164 234.357 168.714 235.361 168.714 235.361Z" fill="#181929"/>
<path d="M168.982 233.247L168.713 235.361C168.713 235.361 164.367 236.179 163.047 235.501L163.374 233.305L168.982 233.247Z" fill="#22243B"/>
<path d="M186.426 160.872C186.379 162.344 186.11 165.522 185.807 168.863C185.737 169.611 185.666 170.358 185.596 171.094C185.164 175.592 184.72 179.751 184.72 179.751C184.171 183.338 183.038 189.553 181.776 194.25C181.414 195.605 181.04 196.832 180.655 197.836C180.292 198.818 179.918 199.577 179.556 200.033C176.858 203.479 170.677 233.995 170.677 233.995L162.242 233.925C162.242 233.925 164.1 213.258 165.957 208.024C168.037 202.171 171.647 194.285 170.759 188.642C170.198 185.102 169.474 173.828 169.474 173.828C169.474 173.828 168.773 161.164 172.079 151.888C172.92 149.598 186.426 160.872 186.426 160.872Z" fill="#292C47"/>
<path d="M192.42 236.156C192.42 236.156 195.645 238.118 197.117 238.854C198.577 239.59 204.302 239.859 204.863 240.408C205.423 240.957 205.19 242.663 204.243 242.827C203.297 242.99 196.334 243.539 194.021 242.967C191.708 242.394 187.35 243.259 186.403 242.92C185.445 242.581 186.123 237.406 186.509 236.249C186.882 235.081 192.42 236.156 192.42 236.156Z" fill="#181929"/>
<path d="M192.712 234.041L192.42 236.156C192.42 236.156 188.062 236.915 186.754 236.226L187.104 234.03L192.712 234.041Z" fill="#22243B"/>
<path d="M182.631 203.771C182.409 197.018 181.813 192.532 180.072 188.642C178.612 185.371 177.362 175.078 177.362 175.078C177.362 175.078 173.413 163.022 174.207 153.208C174.406 150.755 189.687 156.923 189.687 156.923C190.026 158.348 191.042 162.846 191.404 166.188C193.472 185.254 192.701 197.673 192.701 197.673C191.521 201.879 194.5 234.999 194.5 234.999H185.902C185.902 234.999 183.647 223.211 183.413 215.886C183.425 215.898 182.549 204.939 182.631 203.771Z" fill="#292C47"/>
<path d="M182.441 116.43C182.441 116.43 186.448 122.996 187.617 126.665C188.785 130.333 187.839 140.988 188.049 143.126C188.691 149.773 189.626 157.087 189.626 157.087L176.191 165.662C176.191 165.662 173.784 160.031 171.681 153.021C169.578 146.011 169.415 139.691 169.426 135.473C169.485 122.237 176.646 114.771 176.646 114.771L182.441 116.43Z" fill="#CFBEB6"/>
<path d="M187.373 98.8129C187.373 98.8129 190.13 101.757 189.348 102.54C188.705 103.182 191.24 106.115 191.602 106.617C191.965 107.108 190.481 107.925 190.235 108.369C189.99 108.813 190.13 113.44 188.857 113.907C187.583 114.386 181.146 113.884 179.102 112.634C177.057 111.384 173.763 104.187 173.996 100.729C174.23 97.2474 182.536 93.6725 187.373 98.8129Z" fill="#EEA886"/>
<path d="M184.767 112.902C184.767 112.902 184.72 113.3 184.661 113.907C184.638 114.164 184.603 114.456 184.58 114.772C184.568 114.959 184.545 115.157 184.533 115.367C184.533 115.426 184.521 115.473 184.521 115.531C184.51 115.625 184.51 115.718 184.498 115.823C184.463 116.267 184.439 116.723 184.416 117.178C184.358 118.358 184.346 119.48 184.475 120.099C184.813 121.816 177.43 114.585 177.43 114.585C177.43 114.585 178.049 108.977 177.757 102.68C177.43 96.3713 184.767 112.902 184.767 112.902Z" fill="#EEA886"/>
<path d="M187.946 99.4555C187.946 99.4555 189.254 96.3829 185.235 94.245C180.504 91.7332 175.492 98.0419 174.826 98.4157C174.16 98.7896 171.134 102.189 174.09 106.699C177.828 112.388 177.63 112.201 177.63 112.201C177.63 112.201 178.004 107.996 177.98 107.19C177.933 105.706 181.824 105.531 181.824 105.531C181.824 105.531 180.223 103.404 181.999 102.458C183.763 101.512 185.843 99.2452 187.946 99.4555Z" fill="#3A3F47"/>
<path d="M179.768 105.005C179.488 104.608 178.448 102.855 177.116 104.397C175.785 105.94 179.36 108.814 179.652 108.79C179.955 108.755 182.152 108.346 179.768 105.005Z" fill="#EEA886"/>
<path d="M190.363 159.925C190.363 159.925 189.697 156.783 189.569 156.315L169.918 159.587L170.117 162.122C170.117 162.122 184.276 161.269 190.363 159.925Z" fill="#23263D"/>
<path d="M168.165 146.082C168.165 146.082 171.179 159.12 166.459 174.319C165.886 176.176 179.544 174.027 179.544 174.027L168.165 146.082Z" fill="#FAA146"/>
<path d="M185.527 173.08C185.527 173.08 175.818 175.207 173.096 174.249C173.096 174.249 169.136 159.82 167.745 145.182C167.64 144.049 167.547 142.915 167.477 141.794C166.706 129.877 169.732 117.797 176.648 114.795C176.846 114.923 186.567 123.51 186.391 131.361C186.38 131.887 186.368 132.424 186.368 132.962C186.356 133.931 186.368 134.889 186.391 135.859C186.45 138.85 186.637 141.829 186.905 144.715C186.929 145.018 186.964 145.322 186.987 145.614C187.034 146.105 187.081 146.584 187.139 147.063C187.209 147.705 187.279 148.336 187.361 148.967C188.915 162.052 185.527 173.08 185.527 173.08Z" fill="#FAA146"/>
<path d="M185.129 122.167C185.129 122.167 186.951 129.399 187.652 138.511C188.237 146.128 189.019 151.514 189.019 151.514L190.188 155.288L190.667 151.654C190.667 151.654 190.234 141.818 189.674 137.822C189.101 133.791 188.844 128.674 185.62 122.027L185.129 122.167Z" fill="#D44040"/>
<path d="M184.917 122.178C184.917 122.178 185.139 122.389 185.454 122.435C185.77 122.482 186.214 121.98 184.613 119.877L184.917 122.178Z" fill="#D44040"/>
<path d="M177.501 113.697C177.501 113.697 182.023 117.949 184.71 118.896L185.224 122.973L176.648 114.795L177.501 113.697Z" fill="#EDDAD3"/>
<path d="M180.536 130.17C178.76 129.539 171.353 125.94 173.328 121.746C175.291 117.552 180.373 119.784 184.193 121.489C188.189 123.277 197.628 128.756 198.376 128.254C199.124 127.739 202.383 123.066 202.979 122.027C203.563 120.987 207.127 114.339 207.465 113.837C207.793 113.346 212.968 117.692 212.968 117.692C212.968 117.692 203.68 134.188 201.18 136.817C198.668 139.446 180.536 130.17 180.536 130.17Z" fill="#FAA146"/>
<path d="M181.777 194.261C181.414 195.616 181.041 196.855 180.655 197.848L177.711 180.3C178.459 181.971 181.777 194.261 181.777 194.261Z" fill="#181929"/>
<path d="M186.38 135.836L177.863 128.884C180.118 130.088 185.656 132.623 186.357 132.938C186.357 133.908 186.357 134.878 186.38 135.836Z" fill="#8F5C28"/>
<path d="M184.664 113.907C184.64 114.164 184.605 114.456 184.582 114.772C184.57 114.959 184.547 115.157 184.535 115.368C181.719 115.181 179.535 112.926 179.395 112.797C180.539 113.697 184.664 113.907 184.664 113.907Z" fill="#A77860"/>
<path d="M151.387 131.677H159.413L156.948 126.583H148.934L151.387 131.677Z" fill="url(#paint12_linear_49_3236)"/>
<path d="M147.637 131.677H149.541L147.088 126.583H145.172L147.637 131.677Z" fill="url(#paint13_linear_49_3236)"/>
</g>
<defs>
<linearGradient id="paint0_linear_49_3236" x1="157.339" y1="175.279" x2="151.475" y2="68.9983" gradientUnits="userSpaceOnUse">
<stop stop-color="#D1D7E0"/>
<stop offset="1" stop-color="#EBEBFF"/>
</linearGradient>
<linearGradient id="paint1_linear_49_3236" x1="257.478" y1="210.189" x2="257.478" y2="96.2164" gradientUnits="userSpaceOnUse">
<stop stop-color="#D1D7E0"/>
<stop offset="1" stop-color="#EBEBFF"/>
</linearGradient>
<linearGradient id="paint2_linear_49_3236" x1="0" y1="243.12" x2="293.828" y2="243.12" gradientUnits="userSpaceOnUse">
<stop offset="0.00520833" stop-color="#1A2257"/>
<stop offset="1" stop-color="#5E60F2"/>
</linearGradient>
<linearGradient id="paint3_linear_49_3236" x1="151.976" y1="139.808" x2="151.976" y2="56.4705" gradientUnits="userSpaceOnUse">
<stop stop-color="#D1D7E0"/>
<stop offset="1" stop-color="#EBEBFF"/>
</linearGradient>
<linearGradient id="paint4_linear_49_3236" x1="66.6049" y1="187.532" x2="47.7142" y2="187.532" gradientUnits="userSpaceOnUse">
<stop offset="0.00520833" stop-color="#1A2257"/>
<stop offset="1" stop-color="#5E60F2"/>
</linearGradient>
<linearGradient id="paint5_linear_49_3236" x1="51.9282" y1="203.125" x2="17.5862" y2="203.125" gradientUnits="userSpaceOnUse">
<stop offset="0.00520833" stop-color="#1A2257"/>
<stop offset="1" stop-color="#5E60F2"/>
</linearGradient>
<linearGradient id="paint6_linear_49_3236" x1="48.9911" y1="208.118" x2="23.215" y2="208.118" gradientUnits="userSpaceOnUse">
<stop offset="0.00520833" stop-color="#1A2257"/>
<stop offset="1" stop-color="#5E60F2"/>
</linearGradient>
<linearGradient id="paint7_linear_49_3236" x1="80.1496" y1="181.935" x2="41.4425" y2="181.935" gradientUnits="userSpaceOnUse">
<stop offset="0.00520833" stop-color="#1A2257"/>
<stop offset="1" stop-color="#5E60F2"/>
</linearGradient>
<linearGradient id="paint8_linear_49_3236" x1="57.103" y1="224.186" x2="34.567" y2="156.577" gradientUnits="userSpaceOnUse">
<stop offset="0.00520833" stop-color="#1A2257"/>
<stop offset="1" stop-color="#5E60F2"/>
</linearGradient>
<linearGradient id="paint9_linear_49_3236" x1="39.6668" y1="268.34" x2="50.9348" y2="219.765" gradientUnits="userSpaceOnUse">
<stop stop-color="#C9C4C1"/>
<stop offset="1" stop-color="#FFF6DE"/>
</linearGradient>
<linearGradient id="paint10_linear_49_3236" x1="37.4884" y1="230.433" x2="65.1889" y2="230.433" gradientUnits="userSpaceOnUse">
<stop stop-color="#C9C4C1"/>
<stop offset="1" stop-color="#FFF6DE"/>
</linearGradient>
<linearGradient id="paint11_linear_49_3236" x1="227.502" y1="69.3529" x2="227.502" y2="22.4077" gradientUnits="userSpaceOnUse">
<stop stop-color="#D1D7E0"/>
<stop offset="1" stop-color="#EBEBFF"/>
</linearGradient>
<linearGradient id="paint12_linear_49_3236" x1="148.93" y1="129.133" x2="159.409" y2="129.133" gradientUnits="userSpaceOnUse">
<stop stop-color="#D1D7E0"/>
<stop offset="1" stop-color="#EBEBFF"/>
</linearGradient>
<linearGradient id="paint13_linear_49_3236" x1="145.176" y1="129.133" x2="149.544" y2="129.133" gradientUnits="userSpaceOnUse">
<stop stop-color="#D1D7E0"/>
<stop offset="1" stop-color="#EBEBFF"/>
</linearGradient>
<clipPath id="clip0_49_3236">
<rect width="311" height="250" fill="white"/>
</clipPath>
</defs>
</svg>
