<svg width="850" height="169" viewBox="0 0 850 169" fill="none" xmlns="http://www.w3.org/2000/svg">
<path d="M15.3005 17.0909V68H4.53702V17.0909H15.3005ZM34.5468 45.9261V68H23.9573V29.8182H34.0496V36.5547H34.4971C35.3422 34.334 36.7591 32.5774 38.7478 31.2848C40.7364 29.9756 43.1476 29.321 45.9814 29.321C48.633 29.321 50.9448 29.901 52.9168 31.0611C54.8889 32.2211 56.4218 33.8783 57.5155 36.0327C58.6093 38.1705 59.1562 40.7225 59.1562 43.6889V68H48.5667V45.5781C48.5832 43.2415 47.9867 41.4186 46.7769 40.1094C45.5671 38.7836 43.9017 38.1207 41.7805 38.1207C40.3553 38.1207 39.0958 38.4273 38.002 39.0405C36.9249 39.6536 36.0797 40.5485 35.4665 41.7251C34.8699 42.8852 34.5634 44.2855 34.5468 45.9261ZM99.2707 40.706L89.5761 41.3026C89.4104 40.474 89.0541 39.7282 88.5072 39.0653C87.9603 38.3859 87.2394 37.8473 86.3445 37.4496C85.4662 37.0353 84.4139 36.8281 83.1876 36.8281C81.547 36.8281 80.1632 37.1761 79.0363 37.8722C77.9094 38.5516 77.346 39.4631 77.346 40.6065C77.346 41.518 77.7106 42.2886 78.4397 42.9183C79.1689 43.5481 80.4201 44.0535 82.1933 44.4347L89.1038 45.8267C92.8159 46.589 95.5834 47.8153 97.4063 49.5057C99.2293 51.196 100.141 53.4167 100.141 56.1676C100.141 58.67 99.4033 60.8658 97.9284 62.755C96.47 64.6442 94.4648 66.1191 91.9127 67.1797C89.3772 68.2237 86.4523 68.7457 83.1379 68.7457C78.0834 68.7457 74.0564 67.6934 71.0569 65.5888C68.074 63.4676 66.3256 60.584 65.8119 56.9382L76.2274 56.3913C76.5422 57.9325 77.3045 59.1091 78.5143 59.9212C79.724 60.7166 81.2735 61.1143 83.1627 61.1143C85.0188 61.1143 86.5103 60.758 87.6372 60.0455C88.7806 59.3163 89.3606 58.38 89.3772 57.2365C89.3606 56.2753 88.9546 55.4882 88.1592 54.875C87.3637 54.2453 86.1374 53.7647 84.4802 53.4332L77.868 52.1158C74.1393 51.37 71.3635 50.0774 69.5406 48.2379C67.7342 46.3984 66.8311 44.0535 66.8311 41.2031C66.8311 38.7505 67.4939 36.6375 68.8197 34.8643C70.162 33.0911 72.0429 31.724 74.4624 30.7628C76.8985 29.8016 79.7489 29.321 83.0136 29.321C87.836 29.321 91.631 30.3402 94.3985 32.3785C97.1826 34.4169 98.8067 37.1927 99.2707 40.706ZM127.118 29.8182V37.7727H104.124V29.8182H127.118ZM109.344 20.6705H119.934V56.267C119.934 57.2448 120.083 58.0071 120.381 58.554C120.68 59.0843 121.094 59.4571 121.624 59.6726C122.171 59.888 122.801 59.9957 123.513 59.9957C124.011 59.9957 124.508 59.9543 125.005 59.8714C125.502 59.772 125.883 59.6974 126.148 59.6477L127.814 67.5277C127.284 67.6934 126.538 67.884 125.577 68.0994C124.615 68.3314 123.447 68.4723 122.072 68.522C119.52 68.6214 117.282 68.2817 115.36 67.5028C113.454 66.724 111.971 65.5142 110.91 63.8736C109.85 62.233 109.328 60.1615 109.344 57.6591V20.6705ZM144.904 68.7209C142.468 68.7209 140.297 68.2983 138.391 67.4531C136.485 66.5914 134.977 65.3236 133.867 63.6499C132.773 61.9595 132.226 59.8549 132.226 57.3359C132.226 55.2147 132.616 53.4332 133.394 51.9915C134.173 50.5497 135.234 49.3897 136.576 48.5114C137.919 47.633 139.443 46.9702 141.15 46.5227C142.874 46.0753 144.68 45.7604 146.569 45.5781C148.79 45.3461 150.58 45.1307 151.938 44.9318C153.297 44.7164 154.283 44.4015 154.897 43.9872C155.51 43.5729 155.816 42.9598 155.816 42.1477V41.9986C155.816 40.4242 155.319 39.2062 154.325 38.3445C153.347 37.4827 151.955 37.0518 150.149 37.0518C148.243 37.0518 146.727 37.4744 145.6 38.3196C144.473 39.1482 143.727 40.1922 143.362 41.4517L133.568 40.6562C134.066 38.3362 135.043 36.331 136.502 34.6406C137.96 32.9337 139.841 31.6245 142.144 30.7131C144.465 29.785 147.149 29.321 150.198 29.321C152.32 29.321 154.35 29.5696 156.289 30.0668C158.244 30.5639 159.976 31.3345 161.484 32.3785C163.009 33.4226 164.21 34.7649 165.088 36.4055C165.967 38.0296 166.406 39.9768 166.406 42.2472V68H156.363V62.7053H156.065C155.452 63.8984 154.631 64.9508 153.604 65.8622C152.576 66.7571 151.342 67.4614 149.9 67.9751C148.458 68.4723 146.793 68.7209 144.904 68.7209ZM147.936 61.4126C149.494 61.4126 150.87 61.1061 152.063 60.4929C153.256 59.8632 154.192 59.018 154.872 57.9574C155.551 56.8968 155.891 55.6953 155.891 54.353V50.3011C155.559 50.5166 155.104 50.7154 154.524 50.8977C153.96 51.0634 153.322 51.2209 152.61 51.37C151.897 51.5026 151.184 51.6269 150.472 51.7429C149.759 51.8423 149.113 51.9335 148.533 52.0163C147.29 52.1986 146.205 52.4886 145.277 52.8864C144.349 53.2841 143.628 53.8227 143.114 54.5021C142.6 55.165 142.343 55.9936 142.343 56.9879C142.343 58.4297 142.865 59.5317 143.909 60.294C144.97 61.0398 146.312 61.4126 147.936 61.4126ZM185.211 45.9261V68H174.621V29.8182H184.714V36.5547H185.161C186.006 34.334 187.423 32.5774 189.412 31.2848C191.4 29.9756 193.812 29.321 196.646 29.321C199.297 29.321 201.609 29.901 203.581 31.0611C205.553 32.2211 207.086 33.8783 208.18 36.0327C209.273 38.1705 209.82 40.7225 209.82 43.6889V68H199.231V45.5781C199.247 43.2415 198.651 41.4186 197.441 40.1094C196.231 38.7836 194.566 38.1207 192.445 38.1207C191.019 38.1207 189.76 38.4273 188.666 39.0405C187.589 39.6536 186.744 40.5485 186.131 41.7251C185.534 42.8852 185.227 44.2855 185.211 45.9261ZM238.475 29.8182V37.7727H215.482V29.8182H238.475ZM220.702 20.6705H231.291V56.267C231.291 57.2448 231.44 58.0071 231.739 58.554C232.037 59.0843 232.451 59.4571 232.982 59.6726C233.528 59.888 234.158 59.9957 234.871 59.9957C235.368 59.9957 235.865 59.9543 236.362 59.8714C236.859 59.772 237.241 59.6974 237.506 59.6477L239.171 67.5277C238.641 67.6934 237.895 67.884 236.934 68.0994C235.973 68.3314 234.805 68.4723 233.429 68.522C230.877 68.6214 228.64 68.2817 226.717 67.5028C224.812 66.724 223.328 65.5142 222.268 63.8736C221.207 62.233 220.685 60.1615 220.702 57.6591V20.6705ZM306.692 34.9141H295.804C295.605 33.5054 295.199 32.2543 294.586 31.1605C293.973 30.0502 293.186 29.1056 292.224 28.3267C291.263 27.5478 290.153 26.9512 288.893 26.5369C287.65 26.1226 286.3 25.9155 284.842 25.9155C282.207 25.9155 279.911 26.5701 277.956 27.8793C276 29.1719 274.484 31.0611 273.407 33.5469C272.33 36.0161 271.791 39.0156 271.791 42.5455C271.791 46.1747 272.33 49.224 273.407 51.6932C274.501 54.1624 276.025 56.0268 277.981 57.2862C279.936 58.5457 282.198 59.1754 284.767 59.1754C286.209 59.1754 287.543 58.9848 288.769 58.6037C290.012 58.2225 291.114 57.6674 292.075 56.9382C293.036 56.1925 293.832 55.2893 294.462 54.2287C295.108 53.1681 295.555 51.9583 295.804 50.5994L306.692 50.6491C306.41 52.9858 305.706 55.2396 304.579 57.4105C303.468 59.5649 301.969 61.4955 300.079 63.2024C298.207 64.8928 295.97 66.2351 293.368 67.2294C290.783 68.2071 287.858 68.696 284.593 68.696C280.052 68.696 275.992 67.6686 272.413 65.6136C268.85 63.5587 266.032 60.584 263.961 56.6896C261.906 52.7952 260.878 48.0805 260.878 42.5455C260.878 36.9938 261.922 32.2708 264.011 28.3764C266.099 24.482 268.932 21.5156 272.512 19.4773C276.092 17.4223 280.119 16.3949 284.593 16.3949C287.543 16.3949 290.277 16.8092 292.796 17.6378C295.332 18.4664 297.577 19.6761 299.533 21.267C301.488 22.8414 303.079 24.772 304.305 27.0589C305.548 29.3459 306.344 31.9643 306.692 34.9141ZM324.801 45.9261V68H314.211V17.0909H324.502V36.5547H324.95C325.812 34.3009 327.204 32.536 329.126 31.2599C331.048 29.9673 333.46 29.321 336.36 29.321C339.011 29.321 341.323 29.901 343.295 31.0611C345.284 32.2045 346.825 33.8535 347.919 36.0078C349.029 38.1456 349.576 40.706 349.559 43.6889V68H338.97V45.5781C338.986 43.2249 338.39 41.3937 337.18 40.0845C335.987 38.7753 334.313 38.1207 332.159 38.1207C330.717 38.1207 329.441 38.4273 328.331 39.0405C327.237 39.6536 326.375 40.5485 325.745 41.7251C325.132 42.8852 324.817 44.2855 324.801 45.9261ZM368.781 68.7209C366.345 68.7209 364.174 68.2983 362.268 67.4531C360.362 66.5914 358.854 65.3236 357.744 63.6499C356.65 61.9595 356.103 59.8549 356.103 57.3359C356.103 55.2147 356.493 53.4332 357.271 51.9915C358.05 50.5497 359.111 49.3897 360.453 48.5114C361.796 47.633 363.32 46.9702 365.027 46.5227C366.751 46.0753 368.557 45.7604 370.446 45.5781C372.667 45.3461 374.457 45.1307 375.815 44.9318C377.174 44.7164 378.16 44.4015 378.774 43.9872C379.387 43.5729 379.693 42.9598 379.693 42.1477V41.9986C379.693 40.4242 379.196 39.2062 378.202 38.3445C377.224 37.4827 375.832 37.0518 374.026 37.0518C372.12 37.0518 370.604 37.4744 369.477 38.3196C368.35 39.1482 367.604 40.1922 367.239 41.4517L357.445 40.6562C357.943 38.3362 358.92 36.331 360.379 34.6406C361.837 32.9337 363.718 31.6245 366.021 30.7131C368.341 29.785 371.026 29.321 374.075 29.321C376.197 29.321 378.227 29.5696 380.166 30.0668C382.121 30.5639 383.853 31.3345 385.361 32.3785C386.886 33.4226 388.087 34.7649 388.965 36.4055C389.844 38.0296 390.283 39.9768 390.283 42.2472V68H380.24V62.7053H379.942C379.329 63.8984 378.508 64.9508 377.481 65.8622C376.453 66.7571 375.219 67.4614 373.777 67.9751C372.335 68.4723 370.67 68.7209 368.781 68.7209ZM371.813 61.4126C373.371 61.4126 374.747 61.1061 375.94 60.4929C377.133 59.8632 378.069 59.018 378.749 57.9574C379.428 56.8968 379.768 55.6953 379.768 54.353V50.3011C379.436 50.5166 378.981 50.7154 378.401 50.8977C377.837 51.0634 377.199 51.2209 376.487 51.37C375.774 51.5026 375.061 51.6269 374.349 51.7429C373.636 51.8423 372.99 51.9335 372.41 52.0163C371.167 52.1986 370.082 52.4886 369.153 52.8864C368.225 53.2841 367.505 53.8227 366.991 54.5021C366.477 55.165 366.22 55.9936 366.22 56.9879C366.22 58.4297 366.742 59.5317 367.786 60.294C368.847 61.0398 370.189 61.4126 371.813 61.4126ZM418.807 29.8182V37.7727H395.814V29.8182H418.807ZM401.034 20.6705H411.623V56.267C411.623 57.2448 411.772 58.0071 412.071 58.554C412.369 59.0843 412.783 59.4571 413.314 59.6726C413.861 59.888 414.49 59.9957 415.203 59.9957C415.7 59.9957 416.197 59.9543 416.694 59.8714C417.191 59.772 417.573 59.6974 417.838 59.6477L419.503 67.5277C418.973 67.6934 418.227 67.884 417.266 68.0994C416.305 68.3314 415.137 68.4723 413.761 68.522C411.209 68.6214 408.972 68.2817 407.049 67.5028C405.144 66.724 403.66 65.5142 402.6 63.8736C401.539 62.233 401.017 60.1615 401.034 57.6591V20.6705ZM465.696 42.8935V51.2955H442.478V42.8935H465.696ZM665.367 68H647.32V17.0909H665.516C670.637 17.0909 675.045 18.1101 678.741 20.1484C682.436 22.1702 685.278 25.0786 687.267 28.8736C689.272 32.6686 690.275 37.2093 690.275 42.4957C690.275 47.7988 689.272 52.3561 687.267 56.1676C685.278 59.9792 682.42 62.9041 678.691 64.9425C674.979 66.9808 670.538 68 665.367 68ZM658.084 58.7777H664.92C668.101 58.7777 670.778 58.2143 672.949 57.0874C675.136 55.9439 676.777 54.179 677.871 51.7926C678.981 49.3897 679.536 46.2907 679.536 42.4957C679.536 38.7339 678.981 35.6598 677.871 33.2734C676.777 30.8871 675.145 29.1304 672.974 28.0035C670.803 26.8767 668.126 26.3132 664.945 26.3132H658.084V58.7777ZM698.049 68V29.8182H708.639V68H698.049ZM703.369 24.8963C701.794 24.8963 700.444 24.3743 699.317 23.3303C698.207 22.2696 697.651 21.0019 697.651 19.527C697.651 18.0687 698.207 16.8175 699.317 15.7734C700.444 14.7128 701.794 14.1825 703.369 14.1825C704.943 14.1825 706.285 14.7128 707.396 15.7734C708.523 16.8175 709.086 18.0687 709.086 19.527C709.086 21.0019 708.523 22.2696 707.396 23.3303C706.285 24.3743 704.943 24.8963 703.369 24.8963ZM717.121 68V29.8182H727.388V36.4801H727.785C728.481 34.1103 729.65 32.3205 731.29 31.1108C732.931 29.8845 734.82 29.2713 736.958 29.2713C737.488 29.2713 738.06 29.3044 738.673 29.3707C739.286 29.437 739.825 29.5282 740.289 29.6442V39.0405C739.792 38.8913 739.104 38.7588 738.226 38.6428C737.347 38.5268 736.544 38.4688 735.815 38.4688C734.257 38.4688 732.865 38.8085 731.638 39.4879C730.429 40.1508 729.467 41.0788 728.755 42.272C728.059 43.4652 727.711 44.8407 727.711 46.3984V68H717.121ZM761.387 68.7457C757.46 68.7457 754.079 67.9503 751.245 66.3594C748.428 64.7519 746.257 62.4815 744.732 59.5483C743.208 56.5985 742.445 53.1101 742.445 49.0831C742.445 45.1555 743.208 41.7086 744.732 38.7422C746.257 35.7758 748.403 33.464 751.171 31.8068C753.955 30.1496 757.219 29.321 760.965 29.321C763.484 29.321 765.828 29.727 767.999 30.5391C770.187 31.3345 772.093 32.536 773.717 34.1435C775.357 35.7509 776.633 37.7727 777.545 40.2088C778.456 42.6283 778.912 45.4621 778.912 48.7102V51.6186H746.671V45.0561H768.944C768.944 43.5315 768.613 42.1809 767.95 41.0043C767.287 39.8277 766.367 38.9079 765.19 38.245C764.03 37.5656 762.68 37.2259 761.139 37.2259C759.531 37.2259 758.106 37.5987 756.863 38.3445C755.637 39.0736 754.676 40.0597 753.979 41.3026C753.283 42.5289 752.927 43.8961 752.911 45.4041V51.6435C752.911 53.5327 753.259 55.165 753.955 56.5405C754.667 57.916 755.67 58.9766 756.962 59.7223C758.255 60.468 759.788 60.8409 761.561 60.8409C762.738 60.8409 763.815 60.6752 764.793 60.3438C765.77 60.0123 766.607 59.5152 767.303 58.8523C767.999 58.1894 768.53 57.3774 768.894 56.4162L778.688 57.0625C778.191 59.4157 777.172 61.4706 775.631 63.2273C774.106 64.9673 772.134 66.3262 769.715 67.304C767.312 68.2652 764.536 68.7457 761.387 68.7457ZM803.074 68.7457C799.163 68.7457 795.799 67.9171 792.982 66.2599C790.181 64.5862 788.027 62.2661 786.519 59.2997C785.027 56.3333 784.281 52.9195 784.281 49.0582C784.281 45.1473 785.035 41.7169 786.543 38.767C788.068 35.8007 790.231 33.4889 793.031 31.8317C795.832 30.1579 799.163 29.321 803.024 29.321C806.355 29.321 809.272 29.9259 811.774 31.1357C814.277 32.3454 816.257 34.044 817.715 36.2315C819.174 38.419 819.977 40.9877 820.127 43.9375H810.134C809.852 42.0317 809.106 40.4988 807.896 39.3388C806.703 38.1622 805.137 37.5739 803.198 37.5739C801.558 37.5739 800.124 38.0213 798.898 38.9162C797.688 39.7945 796.743 41.0788 796.064 42.7692C795.385 44.4595 795.045 46.5062 795.045 48.9091C795.045 51.3452 795.376 53.4167 796.039 55.1236C796.719 56.8305 797.671 58.1314 798.898 59.0263C800.124 59.9212 801.558 60.3686 803.198 60.3686C804.408 60.3686 805.493 60.12 806.455 59.6229C807.432 59.1257 808.236 58.4048 808.866 57.4602C809.512 56.4991 809.935 55.3473 810.134 54.005H820.127C819.961 56.9216 819.165 59.4903 817.74 61.7109C816.332 63.915 814.384 65.6385 811.899 66.8814C809.413 68.1243 806.471 68.7457 803.074 68.7457ZM847.215 29.8182V37.7727H824.222V29.8182H847.215ZM829.442 20.6705H840.032V56.267C840.032 57.2448 840.181 58.0071 840.479 58.554C840.777 59.0843 841.192 59.4571 841.722 59.6726C842.269 59.888 842.898 59.9957 843.611 59.9957C844.108 59.9957 844.605 59.9543 845.103 59.8714C845.6 59.772 845.981 59.6974 846.246 59.6477L847.911 67.5277C847.381 67.6934 846.635 67.884 845.674 68.0994C844.713 68.3314 843.545 68.4723 842.169 68.522C839.617 68.6214 837.38 68.2817 835.458 67.5028C833.552 66.724 832.069 65.5142 831.008 63.8736C829.947 62.233 829.425 60.1615 829.442 57.6591V20.6705Z" fill="#212427"/>
<path d="M491.119 68V17.0909H501.883V38.0959H523.733V17.0909H534.471V68H523.733V46.9702H501.883V68H491.119ZM543.147 68V29.8182H553.736V68H543.147ZM548.466 24.8963C546.892 24.8963 545.541 24.3743 544.415 23.3303C543.304 22.2696 542.749 21.0019 542.749 19.527C542.749 18.0687 543.304 16.8175 544.415 15.7734C545.541 14.7128 546.892 14.1825 548.466 14.1825C550.041 14.1825 551.383 14.7128 552.493 15.7734C553.62 16.8175 554.184 18.0687 554.184 19.527C554.184 21.0019 553.62 22.2696 552.493 23.3303C551.383 24.3743 550.041 24.8963 548.466 24.8963ZM562.219 68V29.8182H572.485V36.4801H572.883C573.579 34.1103 574.747 32.3205 576.388 31.1108C578.029 29.8845 579.918 29.2713 582.056 29.2713C582.586 29.2713 583.158 29.3044 583.771 29.3707C584.384 29.437 584.923 29.5282 585.387 29.6442V39.0405C584.889 38.8913 584.202 38.7588 583.323 38.6428C582.445 38.5268 581.641 38.4688 580.912 38.4688C579.354 38.4688 577.962 38.8085 576.736 39.4879C575.526 40.1508 574.565 41.0788 573.853 42.272C573.157 43.4652 572.809 44.8407 572.809 46.3984V68H562.219ZM606.485 68.7457C602.557 68.7457 599.177 67.9503 596.343 66.3594C593.526 64.7519 591.355 62.4815 589.83 59.5483C588.305 56.5985 587.543 53.1101 587.543 49.0831C587.543 45.1555 588.305 41.7086 589.83 38.7422C591.355 35.7758 593.501 33.464 596.268 31.8068C599.052 30.1496 602.317 29.321 606.062 29.321C608.581 29.321 610.926 29.727 613.097 30.5391C615.285 31.3345 617.19 32.536 618.814 34.1435C620.455 35.7509 621.731 37.7727 622.642 40.2088C623.554 42.6283 624.01 45.4621 624.01 48.7102V51.6186H591.769V45.0561H614.042C614.042 43.5315 613.71 42.1809 613.047 41.0043C612.384 39.8277 611.465 38.9079 610.288 38.245C609.128 37.5656 607.777 37.2259 606.236 37.2259C604.629 37.2259 603.204 37.5987 601.961 38.3445C600.734 39.0736 599.773 40.0597 599.077 41.3026C598.381 42.5289 598.025 43.8961 598.008 45.4041V51.6435C598.008 53.5327 598.356 55.165 599.052 56.5405C599.765 57.916 600.767 58.9766 602.06 59.7223C603.353 60.468 604.886 60.8409 606.659 60.8409C607.835 60.8409 608.913 60.6752 609.89 60.3438C610.868 60.0123 611.705 59.5152 612.401 58.8523C613.097 58.1894 613.627 57.3774 613.992 56.4162L623.786 57.0625C623.289 59.4157 622.27 61.4706 620.728 63.2273C619.204 64.9673 617.232 66.3262 614.812 67.304C612.409 68.2652 609.633 68.7457 606.485 68.7457Z" fill="#00A0DC"/>
<path d="M82.3334 152H70.7993L88.3738 101.091H102.245L119.794 152H108.26L95.5081 112.724H95.1104L82.3334 152ZM81.6125 131.989H108.857V140.391H81.6125V131.989ZM136.312 129.926V152H125.723V113.818H135.815V120.555H136.263C137.108 118.334 138.525 116.577 140.513 115.285C142.502 113.976 144.913 113.321 147.747 113.321C150.399 113.321 152.71 113.901 154.682 115.061C156.655 116.221 158.187 117.878 159.281 120.033C160.375 122.17 160.922 124.723 160.922 127.689V152H150.332V129.578C150.349 127.241 149.752 125.419 148.543 124.109C147.333 122.784 145.667 122.121 143.546 122.121C142.121 122.121 140.861 122.427 139.768 123.04C138.69 123.654 137.845 124.549 137.232 125.725C136.636 126.885 136.329 128.286 136.312 129.926ZM174.438 166.318C173.096 166.318 171.836 166.21 170.66 165.995C169.5 165.796 168.539 165.539 167.776 165.224L170.163 157.32C171.406 157.701 172.524 157.908 173.519 157.941C174.529 157.974 175.399 157.742 176.129 157.245C176.874 156.748 177.479 155.903 177.943 154.71L178.565 153.094L164.868 113.818H176.004L183.909 141.858H184.307L192.286 113.818H203.497L188.657 156.126C187.944 158.181 186.975 159.971 185.749 161.496C184.539 163.037 183.006 164.222 181.15 165.05C179.294 165.896 177.057 166.318 174.438 166.318ZM229.225 113.818V121.773H206.232V113.818H229.225ZM211.452 104.67H222.041V140.267C222.041 141.245 222.19 142.007 222.489 142.554C222.787 143.084 223.201 143.457 223.732 143.673C224.278 143.888 224.908 143.996 225.621 143.996C226.118 143.996 226.615 143.954 227.112 143.871C227.609 143.772 227.991 143.697 228.256 143.648L229.921 151.528C229.391 151.693 228.645 151.884 227.684 152.099C226.723 152.331 225.555 152.472 224.179 152.522C221.627 152.621 219.39 152.282 217.467 151.503C215.562 150.724 214.078 149.514 213.018 147.874C211.957 146.233 211.435 144.161 211.452 141.659V104.67ZM236.123 152V113.818H246.713V152H236.123ZM241.443 108.896C239.869 108.896 238.518 108.374 237.391 107.33C236.281 106.27 235.726 105.002 235.726 103.527C235.726 102.069 236.281 100.817 237.391 99.7734C238.518 98.7128 239.869 98.1825 241.443 98.1825C243.017 98.1825 244.36 98.7128 245.47 99.7734C246.597 100.817 247.16 102.069 247.16 103.527C247.16 105.002 246.597 106.27 245.47 107.33C244.36 108.374 243.017 108.896 241.443 108.896ZM255.196 152V113.818H265.288V120.555H265.735C266.531 118.317 267.857 116.553 269.713 115.26C271.569 113.967 273.789 113.321 276.375 113.321C278.993 113.321 281.222 113.976 283.061 115.285C284.901 116.577 286.127 118.334 286.74 120.555H287.138C287.917 118.367 289.326 116.619 291.364 115.31C293.419 113.984 295.847 113.321 298.647 113.321C302.21 113.321 305.102 114.456 307.323 116.727C309.56 118.98 310.679 122.179 310.679 126.322V152H300.114V128.41C300.114 126.289 299.55 124.698 298.424 123.637C297.297 122.576 295.888 122.046 294.198 122.046C292.275 122.046 290.776 122.659 289.698 123.886C288.621 125.095 288.083 126.695 288.083 128.683V152H277.816V128.186C277.816 126.313 277.278 124.822 276.201 123.712C275.14 122.601 273.74 122.046 272 122.046C270.823 122.046 269.762 122.344 268.818 122.941C267.89 123.521 267.152 124.341 266.605 125.402C266.059 126.446 265.785 127.672 265.785 129.081V152H255.196ZM336.444 152.746C332.516 152.746 329.136 151.95 326.302 150.359C323.485 148.752 321.314 146.482 319.789 143.548C318.264 140.598 317.502 137.11 317.502 133.083C317.502 129.156 318.264 125.709 319.789 122.742C321.314 119.776 323.46 117.464 326.227 115.807C329.011 114.15 332.276 113.321 336.021 113.321C338.54 113.321 340.885 113.727 343.056 114.539C345.244 115.335 347.149 116.536 348.773 118.143C350.414 119.751 351.69 121.773 352.601 124.209C353.513 126.628 353.969 129.462 353.969 132.71V135.619H321.728V129.056H344.001C344.001 127.531 343.669 126.181 343.006 125.004C342.343 123.828 341.424 122.908 340.247 122.245C339.087 121.566 337.736 121.226 336.195 121.226C334.588 121.226 333.163 121.599 331.92 122.344C330.693 123.074 329.732 124.06 329.036 125.303C328.34 126.529 327.984 127.896 327.967 129.404V135.643C327.967 137.533 328.315 139.165 329.011 140.54C329.724 141.916 330.726 142.977 332.019 143.722C333.312 144.468 334.845 144.841 336.618 144.841C337.794 144.841 338.872 144.675 339.849 144.344C340.827 144.012 341.664 143.515 342.36 142.852C343.056 142.189 343.586 141.377 343.951 140.416L353.745 141.062C353.248 143.416 352.229 145.471 350.687 147.227C349.163 148.967 347.191 150.326 344.771 151.304C342.368 152.265 339.592 152.746 336.444 152.746ZM372.388 145.04L372.115 147.774C371.9 149.962 371.485 152.141 370.872 154.312C370.275 156.499 369.646 158.48 368.983 160.253C368.337 162.026 367.815 163.418 367.417 164.429H360.556C360.805 163.451 361.144 162.084 361.575 160.327C362.006 158.587 362.412 156.632 362.793 154.461C363.174 152.29 363.415 150.078 363.514 147.824L363.638 145.04H372.388ZM404.853 152H393.319L410.893 101.091H424.764L442.314 152H430.78L418.028 112.724H417.63L404.853 152ZM404.132 131.989H431.376V140.391H404.132V131.989ZM458.832 129.926V152H448.242V113.818H458.335V120.555H458.782C459.627 118.334 461.044 116.577 463.033 115.285C465.022 113.976 467.433 113.321 470.267 113.321C472.918 113.321 475.23 113.901 477.202 115.061C479.174 116.221 480.707 117.878 481.801 120.033C482.894 122.17 483.441 124.723 483.441 127.689V152H472.852V129.578C472.868 127.241 472.272 125.419 471.062 124.109C469.852 122.784 468.187 122.121 466.066 122.121C464.64 122.121 463.381 122.427 462.287 123.04C461.21 123.654 460.365 124.549 459.752 125.725C459.155 126.885 458.849 128.286 458.832 129.926ZM496.958 166.318C495.616 166.318 494.356 166.21 493.179 165.995C492.019 165.796 491.058 165.539 490.296 165.224L492.682 157.32C493.925 157.701 495.044 157.908 496.038 157.941C497.049 157.974 497.919 157.742 498.648 157.245C499.394 156.748 499.999 155.903 500.463 154.71L501.084 153.094L487.388 113.818H498.524L506.429 141.858H506.826L514.806 113.818H526.017L511.177 156.126C510.464 158.181 509.495 159.971 508.268 161.496C507.058 163.037 505.526 164.222 503.669 165.05C501.813 165.896 499.576 166.318 496.958 166.318ZM538.968 152L528.577 113.818H539.291L545.207 139.472H545.555L551.72 113.818H562.235L568.499 139.322H568.822L574.639 113.818H585.328L574.962 152H563.751L557.189 127.987H556.716L550.154 152H538.968ZM601.566 129.926V152H590.977V101.091H601.268V120.555H601.715C602.577 118.301 603.969 116.536 605.892 115.26C607.814 113.967 610.225 113.321 613.125 113.321C615.777 113.321 618.089 113.901 620.061 115.061C622.049 116.205 623.59 117.853 624.684 120.008C625.795 122.146 626.341 124.706 626.325 127.689V152H615.735V129.578C615.752 127.225 615.155 125.394 613.946 124.085C612.752 122.775 611.079 122.121 608.924 122.121C607.483 122.121 606.206 122.427 605.096 123.04C604.002 123.654 603.141 124.549 602.511 125.725C601.898 126.885 601.583 128.286 601.566 129.926ZM652.059 152.746C648.131 152.746 644.751 151.95 641.917 150.359C639.1 148.752 636.929 146.482 635.404 143.548C633.88 140.598 633.117 137.11 633.117 133.083C633.117 129.156 633.88 125.709 635.404 122.742C636.929 119.776 639.075 117.464 641.842 115.807C644.627 114.15 647.891 113.321 651.636 113.321C654.155 113.321 656.5 113.727 658.671 114.539C660.859 115.335 662.765 116.536 664.389 118.143C666.029 119.751 667.305 121.773 668.217 124.209C669.128 126.628 669.584 129.462 669.584 132.71V135.619H637.343V129.056H659.616C659.616 127.531 659.284 126.181 658.622 125.004C657.959 123.828 657.039 122.908 655.862 122.245C654.702 121.566 653.352 121.226 651.81 121.226C650.203 121.226 648.778 121.599 647.535 122.344C646.309 123.074 645.347 124.06 644.651 125.303C643.955 126.529 643.599 127.896 643.582 129.404V135.643C643.582 137.533 643.93 139.165 644.627 140.54C645.339 141.916 646.342 142.977 647.634 143.722C648.927 144.468 650.46 144.841 652.233 144.841C653.41 144.841 654.487 144.675 655.465 144.344C656.442 144.012 657.279 143.515 657.975 142.852C658.671 142.189 659.202 141.377 659.566 140.416L669.36 141.062C668.863 143.416 667.844 145.471 666.303 147.227C664.778 148.967 662.806 150.326 660.386 151.304C657.984 152.265 655.208 152.746 652.059 152.746ZM676.494 152V113.818H686.761V120.48H687.158C687.854 118.11 689.023 116.321 690.663 115.111C692.304 113.884 694.193 113.271 696.331 113.271C696.861 113.271 697.433 113.304 698.046 113.371C698.659 113.437 699.198 113.528 699.662 113.644V123.04C699.165 122.891 698.477 122.759 697.599 122.643C696.72 122.527 695.917 122.469 695.188 122.469C693.63 122.469 692.238 122.808 691.011 123.488C689.802 124.151 688.841 125.079 688.128 126.272C687.432 127.465 687.084 128.841 687.084 130.398V152H676.494ZM720.76 152.746C716.833 152.746 713.452 151.95 710.618 150.359C707.801 148.752 705.63 146.482 704.105 143.548C702.581 140.598 701.818 137.11 701.818 133.083C701.818 129.156 702.581 125.709 704.105 122.742C705.63 119.776 707.776 117.464 710.544 115.807C713.328 114.15 716.592 113.321 720.338 113.321C722.857 113.321 725.201 113.727 727.372 114.539C729.56 115.335 731.466 116.536 733.09 118.143C734.73 119.751 736.006 121.773 736.918 124.209C737.829 126.628 738.285 129.462 738.285 132.71V135.619H706.044V129.056H728.317C728.317 127.531 727.986 126.181 727.323 125.004C726.66 123.828 725.74 122.908 724.563 122.245C723.403 121.566 722.053 121.226 720.512 121.226C718.904 121.226 717.479 121.599 716.236 122.344C715.01 123.074 714.049 124.06 713.353 125.303C712.657 126.529 712.3 127.896 712.284 129.404V135.643C712.284 137.533 712.632 139.165 713.328 140.54C714.04 141.916 715.043 142.977 716.335 143.722C717.628 144.468 719.161 144.841 720.934 144.841C722.111 144.841 723.188 144.675 724.166 144.344C725.143 144.012 725.98 143.515 726.676 142.852C727.372 142.189 727.903 141.377 728.267 140.416L738.061 141.062C737.564 143.416 736.545 145.471 735.004 147.227C733.479 148.967 731.507 150.326 729.088 151.304C726.685 152.265 723.909 152.746 720.76 152.746ZM774.049 101.091L773.08 136.737H763.982L762.988 101.091H774.049ZM768.531 152.646C766.89 152.646 765.482 152.066 764.305 150.906C763.129 149.73 762.549 148.321 762.565 146.68C762.549 145.056 763.129 143.664 764.305 142.504C765.482 141.344 766.89 140.764 768.531 140.764C770.105 140.764 771.489 141.344 772.682 142.504C773.875 143.664 774.48 145.056 774.497 146.68C774.48 147.774 774.19 148.777 773.627 149.688C773.08 150.583 772.359 151.304 771.464 151.851C770.569 152.381 769.592 152.646 768.531 152.646Z" fill="#212427"/>
</svg>
