<svg width="158" height="123" viewBox="0 0 158 123" fill="none" xmlns="http://www.w3.org/2000/svg">
<g opacity="0.5" clip-path="url(#clip0_49_3521)">
<path d="M168.917 84.7048C168.285 85.6361 167.229 86.3345 166.018 86.6191C165.931 86.6363 165.853 86.6536 165.767 86.6708C166.078 87.697 165.948 88.7921 165.273 89.7838C164.866 90.3788 164.321 90.853 163.646 91.2238C164.243 91.793 164.841 92.3707 165.429 92.9485C166.874 94.3713 167.342 96.3029 166.191 98.0102C165.265 99.3727 163.213 100.347 161.335 100.071C161.24 100.563 161.041 101.037 160.764 101.468C161.257 101.891 161.759 102.313 162.253 102.736C163.793 104.064 164.114 106.176 163.014 107.797C162.253 108.918 160.833 109.703 159.328 109.858C160.349 110.669 161.37 111.488 162.391 112.299C162.651 112.506 162.902 112.704 163.162 112.911C164.633 114.084 164.944 116.058 164.148 117.593C164.079 117.723 164.01 117.852 163.923 117.973C163.663 118.361 163.326 118.706 162.936 118.999H18.2655C18.3001 118.568 18.3866 118.085 18.5338 117.55C18.577 117.378 18.629 117.197 18.6895 117.016C19.0011 116.041 19.6589 115.325 20.4724 114.972C20.5936 114.92 20.7147 114.877 20.8359 114.825C20.5503 114.644 20.282 114.437 20.031 114.204C19.3646 113.584 18.7761 112.67 18.9232 111.643C19.0703 110.617 19.8925 109.953 20.7061 109.6C21.8485 109.1 23.138 109.056 24.3324 109.263C24.9382 109.367 25.5527 109.47 26.1585 109.582C25.6738 109.056 25.3103 108.444 25.1113 107.703C24.7651 106.469 24.9469 105.116 25.6046 104.012C25.6219 103.977 25.6479 103.943 25.6652 103.908C25.319 103.727 24.9642 103.555 24.618 103.382C23.5275 102.848 22.7053 101.649 22.3851 100.52C22.0389 99.2864 22.2206 97.9326 22.8784 96.8289C23.4236 95.9062 24.2804 95.1818 25.2844 94.7938C25.3623 94.5955 25.4575 94.3971 25.57 94.2074C25.2325 92.983 25.4142 91.6464 26.0633 90.5426C26.0806 90.5167 26.0979 90.4909 26.1152 90.465C25.769 90.2839 25.4229 90.0942 25.0767 89.9131C22.7399 88.6886 22.0389 85.5412 23.3371 83.3596C23.4929 83.1009 23.666 82.8594 23.865 82.6438C22.6101 81.9195 21.3465 81.2038 20.0743 80.4881C17.7808 79.2032 17.0105 76.1679 18.3347 73.9345C18.9665 72.8652 20.0224 72.0633 21.234 71.7356C22.5668 71.3735 23.7612 71.6408 24.9728 72.2185C25.8469 72.6324 26.7124 73.055 27.5779 73.4861C27.1797 73.1757 26.773 72.8739 26.3749 72.5634C25.769 71.9684 25.3536 71.2613 25.1286 70.4508C24.7824 69.2177 24.9642 67.8638 25.6219 66.7601C26.2018 65.777 27.1278 65.0613 28.1664 64.6905C28.0712 63.6989 28.2962 62.69 28.8068 61.819C29.6636 60.379 31.3253 59.4736 32.9957 59.4304C33.0216 59.3615 33.0476 59.2925 33.0822 59.2235C32.6668 58.8872 32.2514 58.5423 31.8446 58.1973C30.2608 56.8608 30.0617 54.3083 30.9878 52.5665C30.8234 52.2733 30.6935 51.9542 30.5897 51.6007C30.2435 50.3676 30.4252 49.0137 31.083 47.91C31.7148 46.8407 32.7706 46.0388 33.9823 45.7111C35.3065 45.3489 36.5268 45.599 37.7211 46.194C37.9202 46.2888 38.1106 46.3923 38.301 46.4872C38.4048 46.0474 38.5779 45.6162 38.8116 45.2196C39.0539 44.8057 39.3482 44.4521 39.6771 44.1503C39.478 43.7968 39.3309 43.426 39.227 43.081C38.8808 41.8479 39.0626 40.4941 39.7203 39.3903C40.3521 38.3211 41.408 37.5191 42.6196 37.1915C43.9871 36.8207 45.1208 37.1225 46.3584 37.6743C47.7259 38.278 49.0847 38.8988 50.4348 39.5283C50.4521 38.6832 50.6685 37.8382 51.0839 37.1483C51.958 35.6738 53.6024 34.8029 55.2727 34.777C55.3679 34.5097 55.4891 34.251 55.6362 34.0009C56.1901 33.0696 57.0556 32.3711 58.0336 31.9745C58.1201 31.7416 58.2326 31.5174 58.3624 31.3019C58.9942 30.2326 60.0501 29.4307 61.2617 29.103C62.6378 28.7322 63.7543 29.0426 65.0005 29.5859C66.593 30.2757 68.1768 30.9914 69.7433 31.733C70.3837 30.6724 71.4223 29.8791 72.6339 29.5514C73.0667 29.491 73.4907 29.4393 73.9235 29.3789C74.7976 29.3789 75.6111 29.5945 76.3727 30.0343C77.4978 30.5085 78.6143 30.9914 79.7221 31.4916C80.0683 30.3188 80.8645 29.3013 81.9377 28.6891C82.9762 28.0855 84.5081 27.775 85.6765 28.2062C85.9621 28.3097 86.2477 28.4218 86.5419 28.5339C86.1958 28.2493 85.8496 27.9647 85.5034 27.6802C84.9062 27.0852 84.4821 26.3781 84.2571 25.5675C83.9109 24.3344 84.0927 22.9806 84.7504 21.8768C85.3822 20.8075 86.4381 20.0056 87.6497 19.6779C88.8527 19.3502 90.324 19.4796 91.3886 20.1608C94.9716 22.4632 98.5632 24.7483 102.155 27.0593C102.397 26.4384 102.761 25.8866 103.245 25.4037C104.102 24.5586 105.444 23.9119 106.673 23.9981C108.404 24.1188 110.109 24.4293 111.727 25.0415C112.082 25.1795 113.891 26.4212 116.522 28.301C116.539 27.8009 116.66 27.2921 116.92 26.8179C117.699 25.3692 119.594 24.7224 120.936 25.671C122.13 26.516 123.324 27.3611 124.519 28.2062C125.341 26.861 127.15 26.2832 128.448 27.2059C132.602 30.1377 136.54 33.5266 141.127 35.6393C141.785 35.9411 142.295 36.8379 142.477 37.545C142.563 37.8813 142.589 38.2262 142.572 38.5625C142.996 38.597 143.403 38.7177 143.775 38.9419C147.929 41.4944 151.867 44.4521 156.454 46.2975C157.112 46.5648 157.623 47.3408 157.804 47.9617C158.012 48.6774 157.908 49.4621 157.51 50.1089C157.415 50.2555 157.311 50.3934 157.198 50.5228C158.202 51.1264 159.206 51.7214 160.219 52.3164C160.479 52.4716 160.704 52.6527 160.894 52.8596C161.725 53.7392 161.933 55.0499 161.266 56.1278C160.807 56.8694 159.985 57.3609 159.111 57.4816C161.924 59.3356 163.828 60.6204 164.096 60.8533C165.697 62.2243 165.922 64.3887 164.789 65.9926C164.598 66.2686 164.365 66.5186 164.096 66.7515C163.871 66.9412 163.629 67.1136 163.369 67.2602C163.274 67.4672 163.162 67.6655 163.032 67.8638C162.936 68.0104 162.824 68.1484 162.703 68.2778C162.859 68.4071 163.023 68.5451 163.179 68.6744C163.317 68.7865 163.447 68.9159 163.568 69.0452C164.78 70.3645 164.936 72.2789 163.94 73.7362C163.629 74.2018 163.213 74.5899 162.737 74.9089C162.737 74.9348 162.729 74.952 162.729 74.9779C164.624 76.4611 166.45 78.0046 168.181 79.643C168.943 80.3587 169.427 81.2383 169.557 82.1437C169.661 83.006 169.471 83.8942 168.917 84.7048Z" fill="#D0E9ED"/>
<path d="M168.917 84.7048C168.285 85.6361 167.229 86.3346 166.018 86.6191C165.931 86.6364 165.853 86.6536 165.767 86.6709C166.078 87.697 165.948 88.7922 165.273 89.7838C164.867 90.3788 164.321 90.8531 163.646 91.2239C164.243 91.793 164.841 92.3708 165.429 92.9485C166.874 94.3713 167.342 96.3029 166.191 98.0103C165.265 99.3727 163.214 100.347 161.335 100.071C161.24 100.563 161.041 101.037 160.764 101.468C161.258 101.891 161.76 102.313 162.253 102.736C163.793 104.064 164.114 106.176 163.014 107.798C162.253 108.919 160.833 109.703 159.328 109.858C160.349 110.669 161.37 111.488 162.391 112.299C162.651 112.506 162.902 112.704 163.162 112.911C164.633 114.084 164.944 116.058 164.148 117.593C164.079 117.723 164.01 117.852 163.923 117.973C163.664 118.361 163.326 118.706 162.937 118.999H84.4736C84.4822 118.999 84.4822 118.99 84.4909 118.99C84.5774 118.947 84.664 118.913 84.7505 118.887C84.5428 118.749 84.3524 118.594 84.1707 118.421C83.6946 117.956 83.2619 117.266 83.3744 116.498C83.4783 115.731 84.0755 115.231 84.6553 114.963C85.4775 114.584 86.4036 114.558 87.2604 114.713C87.7017 114.791 88.1345 114.868 88.5759 114.946C88.2297 114.549 87.97 114.092 87.8229 113.54C87.5719 112.618 87.7018 111.6 88.1778 110.772C88.1951 110.747 88.2124 110.721 88.221 110.695C87.97 110.557 87.7191 110.428 87.4681 110.298C86.6892 109.893 86.092 109.005 85.867 108.151C85.616 107.228 85.7458 106.211 86.2218 105.383C86.6113 104.693 87.2344 104.15 87.9527 103.857C88.0133 103.71 88.0739 103.564 88.1518 103.417C87.9095 102.494 88.0393 101.494 88.5066 100.675C88.5153 100.649 88.5326 100.632 88.5413 100.614C88.2903 100.476 88.0393 100.339 87.797 100.201C86.1179 99.2865 85.616 96.9238 86.542 95.2854C86.6545 95.0957 86.7757 94.9146 86.9228 94.7421C86.0141 94.1989 85.114 93.6556 84.1966 93.1296C82.5436 92.1638 81.9897 89.8873 82.9417 88.2144C83.4004 87.4125 84.1533 86.8089 85.0275 86.5674C85.9881 86.3001 86.8449 86.4984 87.7191 86.9296C88.3422 87.24 88.9653 87.5591 89.5885 87.8781C89.3029 87.6453 89.0086 87.4125 88.723 87.1796C88.2903 86.7312 87.9874 86.2052 87.8229 85.593C87.5719 84.6703 87.7018 83.6528 88.1778 82.825C88.6018 82.0834 89.2596 81.5574 90.0039 81.2728C89.9346 80.5312 90.0904 79.7724 90.4626 79.1257C91.0771 78.0478 92.2714 77.3666 93.4744 77.3407C93.4917 77.2889 93.509 77.2372 93.535 77.1855C93.2321 76.9354 92.9378 76.6767 92.6435 76.418C91.5011 75.4177 91.3627 73.5034 92.0291 72.1927C91.9079 71.9685 91.8127 71.7357 91.7435 71.4683C91.4925 70.5457 91.6223 69.5281 92.0983 68.7003C92.557 67.8984 93.31 67.2948 94.1841 67.0533C95.1361 66.786 96.0102 66.9757 96.8757 67.4155C97.0141 67.4845 97.1526 67.5621 97.2911 67.6311C97.369 67.3034 97.4902 66.9757 97.6546 66.6825C97.8277 66.3721 98.044 66.1048 98.2777 65.8806C98.1393 65.6133 98.0267 65.3373 97.9575 65.0786C97.7065 64.156 97.8363 63.1384 98.3123 62.3106C98.771 61.5087 99.524 60.905 100.398 60.6636C101.376 60.3877 102.19 60.6119 103.09 61.0258C104.076 61.4742 105.054 61.9398 106.024 62.4141C106.032 61.776 106.197 61.1465 106.491 60.6291C107.123 59.5253 108.3 58.87 109.503 58.8527C109.572 58.6544 109.659 58.4561 109.762 58.275C110.161 57.5765 110.784 57.0505 111.493 56.7573C111.563 56.5849 111.64 56.4124 111.727 56.2572C112.186 55.4552 112.939 54.8516 113.813 54.6102C114.799 54.3342 115.604 54.5671 116.504 54.9723C117.655 55.4897 118.789 56.0244 119.914 56.5849C120.373 55.7915 121.126 55.1965 121.991 54.9465C122.303 54.9034 122.606 54.8602 122.917 54.8171C123.549 54.8171 124.138 54.981 124.674 55.3086C125.479 55.6622 126.284 56.0244 127.08 56.4038C127.323 55.5242 127.903 54.7654 128.673 54.2997C129.417 53.8513 130.525 53.6099 131.364 53.9376C131.572 54.0152 131.78 54.1014 131.988 54.179C131.737 53.9634 131.494 53.7565 131.243 53.5409C130.811 53.0925 130.508 52.5665 130.343 51.9543C130.092 51.0316 130.222 50.0141 130.698 49.1862C131.157 48.3843 131.91 47.7807 132.784 47.5392C133.649 47.2978 134.705 47.3926 135.475 47.9014C138.054 49.626 140.634 51.342 143.213 53.0666C143.386 52.601 143.654 52.1871 144 51.8249C144.615 51.1954 145.575 50.7125 146.467 50.7729C147.713 50.8591 148.933 51.0919 150.102 51.5576C150.361 51.6611 151.651 52.5924 153.546 53.9979C153.555 53.6185 153.65 53.2391 153.832 52.8856C154.394 51.799 155.753 51.3161 156.714 52.0232C157.571 52.6527 158.427 53.2908 159.284 53.9289C159.639 53.3253 160.245 52.9287 160.877 52.8511C161.708 53.7306 161.915 55.0413 161.249 56.1192C160.79 56.8608 159.968 57.3523 159.094 57.473C161.907 59.327 163.811 60.6119 164.079 60.8447C165.68 62.2158 165.905 64.3801 164.771 65.984C164.581 66.26 164.347 66.5101 164.079 66.7429C163.854 66.9326 163.612 67.1051 163.352 67.2516C163.257 67.4586 163.144 67.6569 163.014 67.8553C162.919 68.0019 162.807 68.1398 162.686 68.2692C162.841 68.3985 163.006 68.5365 163.162 68.6658C163.3 68.7779 163.43 68.9073 163.551 69.0366C164.763 70.356 164.918 72.2703 163.923 73.7276C163.612 74.1932 163.196 74.5813 162.72 74.9003C162.72 74.9262 162.712 74.9435 162.712 74.9693C164.607 76.4525 166.433 77.996 168.164 79.6344C168.926 80.3501 169.41 81.2297 169.54 82.1351C169.661 83.0061 169.471 83.8942 168.917 84.7048Z" fill="#E1F7F9"/>
<path d="M24.8319 12.3397C25.1954 11.7274 25.758 11.2532 26.4244 11.0031C26.2253 10.7013 26.0695 10.365 25.983 10.0545C25.7666 9.26122 25.8791 8.39028 26.3032 7.67456C26.71 6.98472 27.385 6.45871 28.164 6.25175C28.6659 6.11378 29.1333 6.12241 29.5833 6.21726C29.4189 5.97581 29.2977 5.69987 29.2112 5.38944C28.9861 4.58749 29.1073 3.71656 29.5227 3.00084C30.3363 1.62114 32.3788 0.931296 33.7808 1.88846C34.8367 2.60418 35.8752 3.33714 36.8965 4.08735C37.736 2.76802 39.7352 2.11266 41.1026 3.05258C41.1026 3.05258 41.1026 3.05258 41.1113 3.05258C41.12 2.25063 41.4488 1.47455 42.02 0.905426C42.6172 0.327678 43.4134 0 44.2356 0C45.1444 0 45.7502 0.379417 46.4339 0.905426C48.8226 2.76802 50.8737 5.02727 53.2365 6.91573C53.4874 7.09682 53.7471 7.26928 54.0154 7.42449C55.478 8.26956 55.9886 10.2184 55.1318 11.6671C55.0712 11.7705 55.002 11.874 54.9241 11.9689C55.2443 12.1068 55.5386 12.3052 55.8155 12.5811C56.3954 13.1589 56.7243 13.9522 56.7243 14.7714C56.7243 15.5906 56.3954 16.3839 55.8155 16.9617C55.3915 17.3842 54.7683 17.7377 54.1452 17.8412C54.5087 18.1258 54.8635 18.419 55.227 18.7035C55.8328 19.1864 56.1358 20.1608 56.1358 20.8938C56.1358 21.713 55.8069 22.5063 55.227 23.0841C54.6472 23.6618 53.8509 23.9895 53.0287 23.9895C52.1806 23.9895 51.5834 23.6618 50.943 23.1703C50.8824 23.3255 50.8132 23.4721 50.7353 23.6187C50.3285 24.3085 49.6534 24.8345 48.8745 25.0415C48.0264 25.2743 47.2388 25.1105 46.4772 24.7311C45.5684 24.274 44.677 23.7653 43.8202 23.222C43.8029 23.4031 43.7683 23.5756 43.725 23.748C43.5086 24.5241 42.9894 25.1967 42.297 25.602C41.6306 25.99 40.644 26.197 39.8997 25.9124C38.8005 25.4985 37.736 25.007 36.7321 24.3948C35.7021 23.7653 34.7415 23.0323 33.7895 22.2994C32.2749 21.1266 30.8296 19.8676 29.3237 18.6863C28.2592 17.8929 27.16 17.1427 25.9657 16.5477C24.4425 15.832 24.0184 13.7366 24.8319 12.3397Z" fill="#D0E9ED"/>
<path d="M14.9325 39.5022C15.0883 39.2349 15.3393 39.028 15.6249 38.9159C15.5383 38.7865 15.4691 38.6399 15.4345 38.502C15.3393 38.157 15.3912 37.769 15.5729 37.4586C15.7547 37.1567 16.0403 36.9325 16.3865 36.8377C16.6028 36.7773 16.8105 36.7773 17.0009 36.8204C16.9317 36.717 16.8798 36.5962 16.8365 36.4583C16.7413 36.1134 16.7932 35.7253 16.975 35.4149C17.3298 34.8113 18.2212 34.5181 18.8271 34.932C19.2858 35.2424 19.7358 35.5615 20.1859 35.8892C20.5493 35.3114 21.4235 35.0268 22.0206 35.4407C22.0293 35.0872 22.1678 34.7509 22.4187 34.5095C22.6697 34.2594 23.0159 34.1128 23.3794 34.1128C23.7775 34.1128 24.0372 34.2766 24.3401 34.5095C25.3786 35.32 26.2701 36.3031 27.3 37.1309C27.4125 37.2085 27.5163 37.2861 27.6375 37.3551C28.2779 37.7259 28.4943 38.5709 28.1222 39.2004C28.0962 39.2435 28.0616 39.2867 28.0356 39.3298C28.1741 39.3901 28.3039 39.4764 28.4251 39.5971C28.6761 39.8472 28.8232 40.1921 28.8232 40.5543C28.8232 40.9078 28.6761 41.2613 28.4251 41.5114C28.2433 41.6925 27.9664 41.8477 27.6981 41.8995C27.8539 42.0288 28.0096 42.1495 28.1741 42.2789C28.4424 42.4858 28.5722 42.9084 28.5722 43.236C28.5722 43.5896 28.4251 43.9431 28.1741 44.1932C27.9231 44.4433 27.5769 44.5899 27.2134 44.5899C26.8413 44.5899 26.5816 44.4433 26.3047 44.2363C26.2787 44.3053 26.2528 44.3657 26.2095 44.4346C26.0364 44.7365 25.7421 44.9607 25.3959 45.0555C25.0238 45.159 24.6863 45.09 24.3487 44.9175C23.9506 44.7192 23.5698 44.495 23.189 44.2622C23.1804 44.3398 23.1717 44.4174 23.1457 44.495C23.0505 44.8313 22.8255 45.1245 22.5226 45.3056C22.237 45.478 21.8043 45.5643 21.4754 45.4436C20.9994 45.2625 20.532 45.0469 20.0993 44.7796C19.6493 44.5036 19.2338 44.1846 18.8184 43.8655C18.1607 43.3568 17.5289 42.8049 16.8711 42.2875C16.4124 41.9426 15.9278 41.6149 15.4085 41.3562C14.7594 41.0199 14.5776 40.1059 14.9325 39.5022Z" fill="#D0E9ED"/>
<path d="M93.8008 123C139.917 123 177.301 121.324 177.301 119.258C177.301 117.191 139.917 115.515 93.8008 115.515C47.685 115.515 10.3008 117.191 10.3008 119.258C10.3008 121.324 47.685 123 93.8008 123Z" fill="#869293"/>
<path d="M107.861 65.6045H105.914V117.843H107.861V65.6045Z" fill="#0A3C5F"/>
<path d="M66.1275 120.145L87.0717 39.2607L84.8648 38.6743L63.7734 120.145H66.1275Z" fill="#0A3C5F"/>
<path d="M148.787 120.145L127.704 38.6743L125.488 39.2607L146.433 120.145H148.787Z" fill="#0A3C5F"/>
<path d="M158.958 6.22559H53.6133V76.1935H158.958V6.22559Z" fill="#F4F4F4"/>
<path d="M158.783 6.22559H53.7852V11.0718H158.783V6.22559Z" fill="#CACCCC"/>
<path d="M162.427 5.52719C162.427 6.48435 161.648 7.26043 160.687 7.26043H51.8724C50.9117 7.26043 50.1328 6.48435 50.1328 5.52719C50.1328 4.57002 50.9117 3.79395 51.8724 3.79395H160.687C161.648 3.79395 162.427 4.57002 162.427 5.52719Z" fill="#0A3C5F"/>
<path d="M162.427 75.5985C162.427 76.5556 161.648 77.3317 160.687 77.3317H51.8724C50.9117 77.3317 50.1328 76.5556 50.1328 75.5985C50.1328 74.6413 50.9117 73.8652 51.8724 73.8652H160.687C161.648 73.8739 162.427 74.6413 162.427 75.5985Z" fill="#0A3C5F"/>
<path d="M151.356 20.402V65.4492C151.356 66.1304 151.131 66.7599 150.741 67.2686C150.187 67.993 149.322 68.4586 148.344 68.4586H66.047C65.1729 68.4586 64.3853 68.0878 63.8314 67.4928C63.3381 66.9582 63.0352 66.2425 63.0352 65.4578V20.402C63.0352 19.35 63.5804 18.4187 64.4026 17.8841C64.8786 17.5737 65.4411 17.3926 66.047 17.3926H148.335C148.733 17.3926 149.106 17.4702 149.452 17.6082C150.568 18.0566 151.356 19.1431 151.356 20.402Z" fill="#CACCCC"/>
<path d="M150.742 67.2687C150.188 67.993 149.323 68.4587 148.345 68.4587H66.0476C65.1735 68.4587 64.3859 68.0879 63.832 67.4929L98.0352 42.1841H126.145L150.742 67.2687Z" fill="#CACCCC"/>
<path d="M149.46 17.6169L125.72 43.4949L98.4843 42.8395L64.4023 17.8929C64.8783 17.5825 65.4409 17.4014 66.0467 17.4014H148.335C148.733 17.4014 149.114 17.479 149.46 17.6169Z" fill="#CACCCC"/>
<path d="M151.356 20.4022V23.6014H63.0352V20.4022C63.0352 18.7466 64.3853 17.4014 66.047 17.4014H148.335C150.006 17.4014 151.356 18.7466 151.356 20.4022Z" fill="#66ADAB"/>
<path d="M117.584 20.5054C117.584 21.385 116.865 22.1007 115.982 22.1007H76.2144C75.3316 22.1007 74.6133 21.385 74.6133 20.5054C74.6133 19.6259 75.3316 18.9102 76.2144 18.9102H115.991C116.874 18.9188 117.584 19.6259 117.584 20.5054Z" fill="white"/>
<path d="M69.9318 20.5054C69.9318 21.4712 69.1442 22.2559 68.1749 22.2559C67.2055 22.2559 66.418 21.4712 66.418 20.5054C66.418 19.5396 67.2055 18.7549 68.1749 18.7549C69.1442 18.7549 69.9318 19.5396 69.9318 20.5054Z" fill="white"/>
<path d="M133.326 20.5054C133.326 21.4712 132.539 22.2559 131.569 22.2559C130.6 22.2559 129.812 21.4712 129.812 20.5054C129.812 19.5396 130.6 18.7549 131.569 18.7549C132.539 18.7549 133.326 19.5396 133.326 20.5054Z" fill="white"/>
<path d="M139.912 20.5054C139.912 21.4712 139.125 22.2559 138.155 22.2559C137.186 22.2559 136.398 21.4712 136.398 20.5054C136.398 19.5396 137.186 18.7549 138.155 18.7549C139.125 18.7549 139.912 19.5396 139.912 20.5054Z" fill="#0A3C5F"/>
<path d="M146.498 20.5054C146.498 21.4712 145.711 22.2559 144.741 22.2559C143.772 22.2559 142.984 21.4712 142.984 20.5054C142.984 19.5396 143.772 18.7549 144.741 18.7549C145.711 18.7549 146.498 19.5396 146.498 20.5054Z" fill="white"/>
<path d="M118.39 28.3955H95.2734V60.3441H118.39V28.3955Z" fill="#F4F4F4"/>
<path d="M118.381 54.4975V60.344H95.2734V51.4449C95.2907 51.2466 95.3081 51.0655 95.3167 50.9017C95.4812 48.3406 98.8738 47.7542 101.401 46.8833C101.756 46.7626 102.102 46.6332 102.414 46.4867C102.708 46.3573 102.985 46.2107 103.218 46.0469L103.279 46.0641L106.602 46.9092L109.917 46.2021C109.926 46.2021 109.926 46.2107 109.934 46.2107C110.203 46.3918 110.514 46.547 110.852 46.6936C111.06 46.7798 111.276 46.8574 111.501 46.9351C114.071 47.8146 117.715 48.263 117.888 50.9017C117.949 51.7036 118.139 52.9971 118.381 54.4975Z" fill="#0C1613"/>
<path d="M106.803 48.5562L105.539 48.6683C105.488 49.1511 105.115 49.453 105.418 49.979C105.635 50.3498 106.145 50.7895 106.491 51.0569C107.037 51.4794 107.34 51.169 107.738 50.6861C108.101 50.2463 108.326 49.7979 108.569 49.2632C108.153 48.8407 107.322 48.7717 106.803 48.5562Z" fill="#0A3C5F"/>
<path d="M108.212 60.3438H105.27L106.23 50.8497L106.308 50.0909L106.689 50.1426L107.407 49.8667L107.485 50.9705L108.212 60.3438Z" fill="#0A3C5F"/>
<path d="M110.335 47.254C109.349 47.6593 107.947 48.7027 107.021 48.5647C105.783 48.3836 104.589 47.711 103.36 47.4092C103.316 46.5727 103.282 45.6759 103.247 44.7791C103.213 43.7099 103.195 42.6492 103.195 41.7266L109.816 42.0974C109.842 42.9597 109.764 43.9341 109.79 44.8912C109.825 45.7363 109.946 46.5641 110.335 47.254Z" fill="#FFB278"/>
<path d="M109.79 44.8912C108.189 46.2106 106.242 46.9522 104.623 46.0812C104.043 45.7622 103.585 45.3138 103.247 44.7791C103.213 43.7099 103.195 42.6492 103.195 41.7266L109.816 42.0974C109.842 42.9597 109.756 43.9427 109.79 44.8912Z" fill="#E5804E"/>
<path d="M110.525 33.6382C109.573 33.4916 108.56 33.2847 107.47 33.5692C107.072 33.6727 106.778 33.8021 106.561 33.9745C106.345 33.8107 106.059 33.6727 105.652 33.5692C104.562 33.2847 103.549 33.4916 102.597 33.6382C102.597 33.6382 101.896 40.3642 101.931 41.1489C101.992 42.4597 101.87 43.1409 102.805 44.0463C106.172 47.3231 109.227 45.4001 110.291 44.0463C111.096 43.0202 111.105 42.451 111.165 41.1489C111.226 40.3642 110.525 33.6382 110.525 33.6382Z" fill="#FFB278"/>
<path d="M110.015 39.028C109.928 39.0194 109.85 39.0107 109.764 39.0021C109.686 38.9935 109.617 38.9935 109.539 38.9849H109.53C109.253 38.9676 108.968 38.9676 108.691 38.9763C108.639 38.9763 108.587 38.9763 108.535 38.9849H108.526C108.353 38.9935 108.189 39.0021 108.016 39.028C108.068 38.7607 108.137 38.4416 108.293 38.1829C108.319 38.1398 108.344 38.1053 108.37 38.0708C108.388 38.045 108.405 38.0277 108.422 38.0105C108.578 37.838 108.803 37.7173 109.115 37.7173C109.219 37.7173 109.322 37.7432 109.426 37.8035C109.547 37.8639 109.66 37.9501 109.747 38.0622C109.798 38.1226 109.85 38.1916 109.894 38.2605C110.058 38.5106 110.11 38.821 110.015 39.028Z" fill="white"/>
<path d="M109.763 39.002C109.755 39.0106 109.755 39.0106 109.755 39.0106C109.4 38.9675 109.054 38.9933 108.699 39.002C108.699 39.002 108.69 38.9933 108.69 38.9761C108.69 38.9588 108.682 38.9502 108.682 38.9502C108.578 38.6657 108.5 38.3207 108.422 38.0017C108.578 37.8292 108.803 37.7085 109.114 37.7085C109.218 37.7085 109.322 37.7344 109.426 37.7947C109.547 37.8551 109.659 37.9413 109.746 38.0534C109.798 38.1138 109.85 38.1828 109.893 38.2518C109.867 38.5191 109.824 38.7778 109.763 39.002Z" fill="#30241B"/>
<path d="M109.478 38.5881C109.461 38.7089 109.487 38.8123 109.521 38.821C109.565 38.8296 109.608 38.7261 109.625 38.6054C109.643 38.4847 109.625 38.3812 109.591 38.3726C109.547 38.3726 109.495 38.4674 109.478 38.5881Z" fill="white"/>
<path d="M110.23 36.8893L110.213 37.6913C110.117 37.8292 108.153 38.0276 107.729 38.0966C107.582 37.8034 107.253 37.0877 107.573 36.9411C107.85 36.6565 109.667 36.6392 110.23 36.8893Z" fill="#5B2A15"/>
<path d="M105.151 39.226C105.073 39.2088 104.986 39.1915 104.908 39.1743C104.83 39.157 104.761 39.1484 104.683 39.1398H104.675C104.398 39.0967 104.121 39.0708 103.835 39.0536C103.783 39.0536 103.731 39.0449 103.679 39.0449H103.671C103.498 39.0363 103.333 39.0363 103.16 39.0363C103.238 38.7776 103.333 38.4672 103.515 38.2257C103.541 38.1912 103.576 38.1568 103.602 38.1223C103.619 38.105 103.636 38.0791 103.662 38.0619C103.835 37.9067 104.069 37.8032 104.38 37.8377C104.484 37.8463 104.588 37.8894 104.683 37.9498C104.796 38.0188 104.9 38.1223 104.978 38.2344C105.03 38.3033 105.073 38.3723 105.107 38.4499C105.237 38.7173 105.263 39.0277 105.151 39.226Z" fill="white"/>
<path d="M104.902 39.1741C104.893 39.1827 104.893 39.1741 104.893 39.1741C104.547 39.0965 104.201 39.0965 103.846 39.0706C103.846 39.0706 103.846 39.062 103.837 39.0448C103.837 39.0275 103.828 39.0189 103.828 39.0189C103.759 38.7257 103.707 38.3808 103.664 38.0531C103.837 37.8979 104.071 37.7944 104.382 37.8289C104.486 37.8375 104.59 37.8807 104.685 37.941C104.798 38.01 104.902 38.1135 104.98 38.2256C105.031 38.2946 105.075 38.3635 105.109 38.4412C105.049 38.6998 104.988 38.9585 104.902 39.1741Z" fill="#30241B"/>
<path d="M104.659 38.7343C104.633 38.855 104.642 38.9585 104.685 38.9671C104.72 38.9757 104.78 38.8809 104.806 38.7602C104.832 38.6394 104.832 38.536 104.789 38.5273C104.746 38.5273 104.685 38.6136 104.659 38.7343Z" fill="white"/>
<path d="M103.055 36.9406L103.072 37.7425C103.167 37.8805 105.132 38.0788 105.556 38.1478C105.703 37.8546 106.032 37.1389 105.712 36.9923C105.443 36.7078 103.617 36.6905 103.055 36.9406Z" fill="#5B2A15"/>
<path d="M106.897 41.1573C106.499 41.1918 106.127 41.1142 105.789 40.9676C105.936 41.4246 106.334 41.8213 106.836 41.8385C107.312 41.8644 107.537 41.4074 107.719 40.959C107.451 41.0625 107.174 41.1401 106.897 41.1573Z" fill="#E5804E"/>
<path d="M111.216 32L109.355 33.5004C110.126 33.8971 110.264 35.8545 110.42 36.622C110.619 37.6223 110.896 38.6225 111.009 39.6228C111.433 38.6312 111.476 37.1135 111.528 36.0097C111.588 34.6818 111.64 33.2504 111.216 32Z" fill="#441D10"/>
<path d="M103.93 42.1235C103.93 42.1235 103.956 42.1321 103.99 42.1494C104.034 42.1666 104.094 42.1925 104.163 42.2183C104.241 42.2442 104.336 42.2787 104.44 42.3132C104.544 42.3477 104.665 42.3822 104.804 42.4253C104.934 42.4598 105.081 42.4943 105.237 42.5288C105.392 42.5633 105.548 42.5978 105.721 42.6236C105.808 42.6409 105.894 42.6495 105.981 42.6581C106.067 42.6667 106.154 42.6754 106.24 42.684C106.414 42.7012 106.595 42.7012 106.777 42.7099C106.959 42.7099 107.132 42.7012 107.314 42.684C107.4 42.6754 107.487 42.6667 107.573 42.6581C107.66 42.6409 107.746 42.6322 107.824 42.615C107.989 42.5805 108.153 42.546 108.3 42.5029C108.378 42.4857 108.447 42.4598 108.517 42.4339C108.586 42.408 108.655 42.3908 108.716 42.3649C108.846 42.3218 108.958 42.2701 109.062 42.227C109.166 42.1838 109.252 42.1407 109.33 42.1062C109.477 42.0286 109.564 41.9941 109.564 41.9941C109.564 41.9941 109.495 42.0631 109.373 42.1666C109.313 42.2183 109.235 42.2787 109.14 42.3477C109.088 42.3822 109.045 42.4167 108.984 42.4512C108.932 42.4857 108.871 42.5201 108.811 42.5546C108.75 42.5891 108.681 42.6236 108.612 42.6581C108.543 42.6926 108.473 42.7271 108.395 42.753C108.24 42.8133 108.075 42.8737 107.902 42.9168C107.816 42.9427 107.729 42.9599 107.634 42.9772C107.539 42.9944 107.452 43.0117 107.357 43.0203C107.167 43.0462 106.976 43.0548 106.786 43.0548C106.595 43.0548 106.405 43.0462 106.215 43.0203C106.024 42.9944 105.842 42.9685 105.669 42.9254C105.496 42.8823 105.332 42.8392 105.176 42.7788C105.02 42.7271 104.882 42.6667 104.752 42.6064C104.492 42.4857 104.293 42.3649 104.155 42.2701C104.085 42.227 104.034 42.1838 103.999 42.158C103.947 42.1407 103.93 42.1235 103.93 42.1235Z" fill="#E5804E"/>
<path d="M105.824 43.3823C105.824 43.3823 105.833 43.3823 105.85 43.3909C105.867 43.3909 105.885 43.3996 105.919 43.4082C105.945 43.4168 105.98 43.4168 106.015 43.4254C106.049 43.434 106.093 43.4427 106.136 43.4513C106.179 43.4599 106.231 43.4685 106.283 43.4772C106.309 43.4772 106.335 43.4858 106.361 43.4858C106.387 43.4858 106.413 43.4944 106.447 43.4944C106.499 43.503 106.56 43.503 106.62 43.5117C106.681 43.5117 106.733 43.5203 106.794 43.5203C106.854 43.5203 106.906 43.5203 106.967 43.5117C107.027 43.503 107.079 43.503 107.131 43.4944C107.157 43.4858 107.183 43.4858 107.209 43.4772C107.235 43.4772 107.261 43.4685 107.287 43.4599C107.313 43.4513 107.339 43.4513 107.356 43.4427C107.382 43.434 107.408 43.434 107.425 43.4254C107.469 43.4082 107.512 43.3996 107.546 43.3909C107.581 43.3823 107.616 43.3651 107.642 43.3564C107.694 43.3392 107.728 43.3306 107.728 43.3306C107.728 43.3306 107.711 43.3564 107.668 43.3996C107.65 43.4168 107.624 43.4513 107.598 43.4772C107.564 43.503 107.529 43.5289 107.495 43.5634C107.451 43.5893 107.408 43.6151 107.356 43.641C107.304 43.6669 107.244 43.6841 107.183 43.71C107.148 43.7186 107.122 43.7272 107.088 43.7359C107.053 43.7445 107.027 43.7531 106.993 43.7531C106.923 43.7617 106.854 43.7703 106.794 43.7703C106.759 43.7703 106.724 43.7703 106.69 43.7703C106.655 43.7703 106.62 43.7617 106.586 43.7617C106.551 43.7617 106.525 43.7531 106.491 43.7445C106.456 43.7359 106.43 43.7359 106.395 43.7186C106.361 43.71 106.335 43.7014 106.309 43.6927C106.283 43.6841 106.248 43.6755 106.222 43.6582C106.17 43.641 106.118 43.6151 106.075 43.5893C106.032 43.5634 105.997 43.5375 105.963 43.5117C105.928 43.4858 105.902 43.4685 105.885 43.4427C105.859 43.4254 105.85 43.4082 105.842 43.3996C105.824 43.3909 105.824 43.3823 105.824 43.3823Z" fill="#E5804E"/>
<path d="M110.777 39.8298C110.215 38.5535 111.816 36.1304 112.699 37.7343C113.027 38.3293 112.906 39.8039 112.387 40.4075C111.833 41.0456 111.141 40.6576 110.786 40.7438L110.777 39.8298Z" fill="#FFB278"/>
<path d="M112.169 38.0446L112.152 38.0878C111.996 37.9757 111.633 38.1481 111.512 38.3896C111.364 38.6828 111.477 38.7949 111.615 38.9759C111.763 39.1743 112.273 40.0107 111.538 39.8124C110.525 39.5192 111.486 37.1392 112.169 38.0446Z" fill="#E5804E"/>
<path d="M112.006 32.1636C111.971 32.362 111.495 32.8362 111.365 33.0173C111.175 33.2933 110.985 33.5778 110.751 33.8106C110.292 34.2763 109.747 34.854 109.107 35.0351C108.181 35.2938 107.211 35.3714 106.259 35.2507C105.645 35.1731 105.039 35.1041 104.45 34.992C103.836 34.8799 103.516 34.8368 103.196 35.4318C102.936 35.9147 102.685 37.165 102.633 37.7255C102.59 38.2084 102.59 39.1828 102.365 39.8382L101.343 38.1653C101.517 37.967 100.478 33.5347 100.513 33.1898C100.521 33.1898 100.521 33.1898 100.53 33.1898C100.686 33.1812 100.841 33.1467 100.98 33.0949C100.893 32.7414 100.686 32.3533 100.651 31.9912C100.963 32.0946 101.317 32.2067 101.655 32.2412C101.681 31.6462 102.088 30.8012 102.581 30.4476C102.486 30.7839 102.486 31.1978 102.512 31.5859C103.931 31.3013 105.325 30.646 106.753 30.3097C107.99 30.0165 109.929 29.913 111.037 30.6287C111.305 30.8012 111.738 31.3013 111.928 31.7238C111.989 31.8963 112.023 32.0429 112.006 32.1636Z" fill="#5B2A15"/>
<path d="M112.006 32.1636C111.971 32.3619 111.495 32.8362 111.365 33.0173C111.175 33.2932 110.985 33.5778 110.751 33.8106C110.292 34.2762 109.747 34.854 109.107 35.0351C108.181 35.2938 107.211 35.3714 106.259 35.2507C105.645 35.173 105.039 35.1041 104.45 34.992C103.836 34.8799 103.516 34.8367 103.196 35.4317C102.936 35.9146 102.685 37.165 102.633 37.7255C102.59 38.2084 102.59 39.1828 102.365 39.8381L101.343 38.1653C101.517 37.9669 100.478 33.5347 100.513 33.1897C100.521 33.1897 100.521 33.1897 100.53 33.1897C100.694 33.7244 100.677 34.4315 101.257 34.7591C101.984 35.1644 102.443 33.9917 102.642 33.457C103.55 33.9572 104.918 33.7675 105.913 33.7589C106.926 33.7502 107.99 33.7502 108.959 33.4915C109.799 33.2673 110.474 32.8448 111.175 32.3533C111.461 32.155 111.694 31.9652 111.919 31.7324C111.989 31.8963 112.023 32.0429 112.006 32.1636Z" fill="#441D10"/>
<path d="M102.147 39.8298C102.71 38.5535 101.109 36.1304 100.226 37.7343C99.897 38.3293 100.018 39.8039 100.537 40.4075C101.091 41.0456 101.784 40.6576 102.139 40.7438L102.147 39.8298Z" fill="#FFB278"/>
<path d="M100.754 38.0446L100.771 38.0878C100.927 37.9757 101.29 38.1481 101.412 38.3896C101.559 38.6828 101.446 38.7949 101.308 38.9759C101.161 39.1743 100.65 40.0107 101.386 39.8124C102.398 39.5192 101.429 37.1392 100.754 38.0446Z" fill="#E5804E"/>
<path d="M106.207 38.1483C106.19 37.8897 106.034 37.6568 105.809 37.5447C105.705 37.493 105.593 37.4585 105.472 37.4585H103.126C103.109 37.4585 103.092 37.4585 103.074 37.4585C102.91 37.4671 102.763 37.5361 102.642 37.6396C102.486 37.7776 102.391 37.9759 102.391 38.1915V40.1144C102.391 40.5197 102.72 40.856 103.126 40.856H105.472C105.878 40.856 106.207 40.5283 106.207 40.1144V38.2001C106.207 38.1828 106.207 38.1656 106.207 38.1483ZM105.965 40.123C105.965 40.3904 105.74 40.6146 105.472 40.6146H103.126C102.858 40.6146 102.633 40.3904 102.633 40.123V38.2001C102.633 37.9414 102.832 37.7344 103.074 37.7086C103.092 37.7086 103.109 37.7086 103.126 37.7086H105.472C105.567 37.7086 105.653 37.7344 105.731 37.7862C105.87 37.8724 105.965 38.0276 105.965 38.2001V40.123Z" fill="black"/>
<path d="M111.003 37.993C110.994 37.9412 110.968 37.8809 110.942 37.8377C110.873 37.6911 110.752 37.5704 110.613 37.5014C110.509 37.4497 110.405 37.4238 110.284 37.4238H107.939C107.774 37.4238 107.627 37.4756 107.506 37.5618C107.342 37.6825 107.229 37.8636 107.203 38.0792C107.203 38.1051 107.203 38.1309 107.203 38.1654V40.0884C107.203 40.4937 107.532 40.83 107.939 40.83H110.284C110.483 40.83 110.656 40.7523 110.795 40.623C110.933 40.485 111.028 40.2953 111.028 40.0884V38.1654C111.02 38.1051 111.011 38.0447 111.003 37.993ZM110.769 40.0797C110.769 40.3471 110.544 40.5713 110.276 40.5713H107.93C107.662 40.5713 107.437 40.3471 107.437 40.0797V38.1568C107.437 38.0188 107.497 37.8895 107.593 37.8032C107.679 37.717 107.8 37.6653 107.93 37.6653H110.276C110.457 37.6653 110.613 37.7601 110.7 37.8981C110.743 37.9757 110.769 38.0619 110.769 38.1482V40.0797Z" fill="black"/>
<path d="M107.202 38.4931C107.107 38.2861 106.899 38.0964 106.674 38.1223C106.571 38.1395 106.467 38.2344 106.38 38.3206C106.302 38.3982 106.233 38.4586 106.155 38.4844L106.086 38.2516C106.112 38.243 106.164 38.1912 106.207 38.1481C106.32 38.0447 106.449 37.9153 106.64 37.8894C106.995 37.8377 107.298 38.1223 107.427 38.3982L107.202 38.4931Z" fill="black"/>
<path d="M103.195 45.9951C103.204 46.0124 103.221 46.0296 103.23 46.0382C103.239 46.021 103.256 46.0037 103.265 45.9951H103.195Z" fill="white"/>
<path d="M103.229 46.0469C102.761 46.6074 101.576 46.5125 101.16 47.1248C102.19 47.3835 102.657 51.2552 103.229 52.1693C104.077 51.4708 105.868 49.065 106.803 48.6252C105.34 47.9008 104.345 47.4266 103.229 46.0469Z" fill="#2A3D37"/>
<path d="M109.96 46.1504C109.951 46.1676 109.934 46.1763 109.925 46.1935C109.917 46.1763 109.899 46.159 109.891 46.1504H109.96Z" fill="white"/>
<path d="M109.918 46.1934C110.385 46.7539 111.501 46.659 111.917 47.2712C110.887 47.5299 110.402 51.0827 109.822 52.0053C108.974 51.3069 107.364 49.1425 106.43 48.6941C107.892 47.9783 108.81 47.5731 109.918 46.1934Z" fill="#2A3D37"/>
<path d="M145.921 28.3955H122.805V60.3441H145.921V28.3955Z" fill="#F4F4F4"/>
<path d="M141.889 51.6093C141.5 50.7901 141.179 49.9019 140.928 49.0309C140.392 47.1425 139.561 38.1141 139.232 36.7775C139.033 35.9842 138.393 37.795 138.28 37.0017C138.185 36.3722 137.917 35.8548 137.718 35.2685L128.777 37.0621C128.699 36.9586 128.708 37.269 128.674 37.4501C128.63 37.6916 128.068 34.5183 128.042 34.7597C127.99 35.2598 127.843 47.7461 127.462 48.8154C127.142 49.7208 126.769 50.4969 126.631 51.4454C126.519 52.2129 126.345 53.515 126.917 54.0927C127.799 54.9723 129.331 55.2396 130.508 55.3172C132.49 55.4379 134.481 55.2741 136.419 54.8257C138.315 54.3859 140.305 53.9375 141.855 52.6785C142.408 52.256 142.175 52.1956 141.889 51.6093Z" fill="#1C1214"/>
<path d="M145.921 58.1109V60.3443H122.805V60.0425C123.09 56.2397 123.592 52.4197 124.492 50.9365C124.804 50.4364 125.981 49.9448 127.21 49.5137C128.136 49.186 129.088 48.9014 129.711 48.66C130.152 48.4962 130.429 48.3496 130.412 48.2461L131.061 48.2547H131.304L136.799 48.3496H137.007L137.812 48.3668C138.011 48.4617 138.21 48.5479 138.426 48.6341C139.257 48.9704 140.201 49.2291 141.049 49.4447C141.092 49.4533 141.135 49.462 141.17 49.4792C142.044 49.6948 143.922 50.9969 143.939 51.0141C144.701 52.1351 145.376 54.9894 145.921 58.1109Z" fill="#FF221D"/>
<path d="M134.046 51.1261C133.38 50.8588 130.922 48.6944 131.077 48.2029C131.173 47.9011 131.484 46.8663 131.64 46.073C131.926 44.6415 132.081 42.891 131.285 42.6582L136.339 43.1583C136.123 44.3914 136.27 46.9008 136.963 47.9614C137.49 48.7806 134.92 50.5656 134.046 51.1261Z" fill="#FFB278"/>
<path d="M136.513 46.8664C136.348 47.0217 136.045 47.2459 135.846 47.3666C134.375 48.2289 132.765 47.5735 131.787 46.2887C131.735 46.2197 131.683 46.1507 131.64 46.0817C131.926 44.6503 132.081 42.8998 131.285 42.667L136.339 43.1671C136.132 44.4002 136.27 45.6161 136.513 46.8664Z" fill="#E5804E"/>
<path d="M138.269 35.622C137.767 35.3115 137.308 34.8286 136.858 34.3544C136.763 34.2509 136.676 34.1474 136.581 34.0267C136.2 33.5352 135.854 32.9488 135.473 32.4745C135.023 32.3969 134.556 32.3969 134.106 32.4659V32.4228C133.656 32.3538 133.188 32.3538 132.738 32.4314C132.349 32.9057 132.011 33.492 131.631 33.9836C131.544 34.0957 131.449 34.2078 131.362 34.3112C130.921 34.7941 130.462 35.2684 129.951 35.5788C129.597 36.8464 129.233 38.3727 129.259 40.6923C129.259 40.8217 129.268 40.9597 129.268 41.0804C129.346 42.3652 129.709 43.2965 130.566 44.3227C133.128 47.4184 135.413 47.2114 137.645 44.3658C138.468 43.3138 138.866 42.4083 138.944 41.1235C138.952 40.9941 138.952 40.8648 138.952 40.7355C138.987 38.4245 138.623 36.8895 138.269 35.622Z" fill="#FFB278"/>
<path d="M132.981 40.5113C132.955 40.4941 132.895 40.4854 132.808 40.4682C132.739 40.4596 132.661 40.4423 132.575 40.4251C132.462 40.4078 132.324 40.3906 132.185 40.382C131.891 40.3561 131.571 40.3388 131.302 40.3561C131.251 40.3561 131.199 40.3647 131.147 40.3647C131.026 40.3733 130.913 40.3992 130.844 40.4251C130.922 40.244 131.008 40.0629 131.103 39.8904C131.155 39.8042 131.199 39.7266 131.259 39.649C131.476 39.3386 131.744 39.1144 132.081 39.0885C132.159 39.0799 132.237 39.123 132.315 39.1834C132.428 39.2782 132.54 39.4334 132.635 39.6059C132.765 39.8387 132.878 40.0888 132.938 40.2785C132.964 40.3906 132.981 40.4682 132.981 40.5113Z" fill="white"/>
<path d="M132.634 39.8303C132.634 40.0458 132.608 40.2442 132.574 40.4252C132.461 40.408 132.323 40.3908 132.184 40.3821C131.89 40.3563 131.57 40.339 131.301 40.3563C131.25 40.3563 131.198 40.3649 131.146 40.3649C131.12 40.2183 131.102 40.0631 131.094 39.8992C131.146 39.813 131.189 39.7354 131.25 39.6578C131.466 39.3474 131.734 39.1232 132.072 39.0973C132.15 39.0887 132.228 39.1318 132.305 39.1921C132.418 39.287 132.53 39.4422 132.626 39.6147C132.626 39.6837 132.634 39.7526 132.634 39.8303Z" fill="#0D1821"/>
<path d="M132.366 39.9249C132.366 40.0628 132.323 40.1749 132.271 40.1749C132.219 40.1749 132.176 40.0628 132.176 39.9249C132.176 39.7869 132.219 39.6748 132.271 39.6748C132.323 39.6662 132.366 39.7783 132.366 39.9249Z" fill="white"/>
<path d="M137.665 40.5113C137.639 40.4941 137.578 40.4854 137.492 40.4682C137.423 40.4596 137.345 40.4423 137.258 40.4251C137.146 40.4078 137.007 40.3906 136.869 40.382C136.575 40.3561 136.254 40.3388 135.986 40.3561C135.934 40.3561 135.882 40.3647 135.83 40.3647C135.709 40.3733 135.605 40.3992 135.527 40.4251C135.605 40.244 135.692 40.0629 135.787 39.8904C135.839 39.8042 135.882 39.7266 135.943 39.649C136.159 39.3386 136.427 39.1144 136.765 39.0885C136.843 39.0799 136.921 39.123 136.999 39.1834C137.111 39.2782 137.224 39.4334 137.319 39.6059C137.449 39.8387 137.561 40.0888 137.622 40.2785C137.648 40.3906 137.665 40.4682 137.665 40.5113Z" fill="white"/>
<path d="M137.318 39.8303C137.318 40.0458 137.292 40.2442 137.257 40.4252C137.145 40.408 137.006 40.3908 136.868 40.3821C136.574 40.3563 136.253 40.339 135.985 40.3563C135.933 40.3563 135.881 40.3649 135.829 40.3649C135.803 40.2183 135.786 40.0631 135.777 39.8992C135.829 39.813 135.873 39.7354 135.933 39.6578C136.15 39.3474 136.418 39.1232 136.755 39.0973C136.833 39.0887 136.911 39.1318 136.989 39.1921C137.102 39.287 137.214 39.4422 137.309 39.6147C137.309 39.6837 137.318 39.7526 137.318 39.8303Z" fill="#0D1821"/>
<path d="M137.05 39.9249C137.05 40.0628 137.007 40.1749 136.955 40.1749C136.903 40.1749 136.859 40.0628 136.859 39.9249C136.859 39.7869 136.903 39.6748 136.955 39.6748C137.007 39.6662 137.05 39.7783 137.05 39.9249Z" fill="white"/>
<path d="M132.911 38.2779C132.28 37.4069 130.453 37.7088 129.848 38.4072C130.254 38.0709 130.852 38.1399 131.414 38.3124C131.674 38.39 133.188 38.7004 132.911 38.2779Z" fill="#301F23"/>
<path d="M135.414 38.1915C136.046 37.3205 137.872 37.6223 138.478 38.3208C138.071 37.9845 137.474 38.0535 136.912 38.226C136.652 38.3036 135.129 38.614 135.414 38.1915Z" fill="#301F23"/>
<path d="M134.36 43.8657C133.953 43.8484 133.547 43.7967 133.148 43.7191C133.157 43.7449 133.062 44.5641 134.369 44.4693C135.676 44.5555 135.572 43.7363 135.58 43.7104C135.182 43.7967 134.776 43.8484 134.36 43.8657Z" fill="#E51F1F"/>
<path d="M135.908 43.5811C135.138 43.788 134.696 43.2706 134.489 43.5035C134.42 43.5725 134.385 43.6328 134.333 43.6501C134.281 43.6328 134.246 43.5725 134.177 43.5035C133.969 43.2706 133.528 43.788 132.758 43.5811C133.191 43.9605 133.822 44.1071 134.333 44.0726C134.844 44.1071 135.484 43.9605 135.908 43.5811Z" fill="#D11919"/>
<path d="M133.672 42.098C133.672 42.098 133.698 42.1066 133.732 42.1325C133.75 42.1411 133.776 42.1583 133.802 42.167C133.828 42.1842 133.854 42.1928 133.888 42.2101C133.906 42.2187 133.923 42.2273 133.94 42.2273C133.957 42.2359 133.975 42.2446 133.992 42.2446C134.009 42.2532 134.027 42.2532 134.053 42.2618C134.07 42.2618 134.096 42.2704 134.113 42.2704C134.131 42.2791 134.157 42.2791 134.174 42.2791C134.191 42.2791 134.217 42.2877 134.243 42.2877H134.278H134.295H134.304C134.304 42.2877 134.312 42.2877 134.295 42.2877H134.373H134.416C134.425 42.2877 134.433 42.2877 134.451 42.2877C134.468 42.2877 134.485 42.2791 134.511 42.2791C134.555 42.2704 134.598 42.2618 134.633 42.2532C134.65 42.2446 134.676 42.2446 134.693 42.2359C134.71 42.2273 134.728 42.2187 134.745 42.2187C134.78 42.2101 134.814 42.1842 134.849 42.1756C134.884 42.1583 134.909 42.1411 134.935 42.1325C134.961 42.1152 134.987 42.1066 135.005 42.098C135.039 42.0721 135.065 42.0635 135.065 42.0635C135.065 42.0635 135.057 42.0807 135.048 42.1238C135.039 42.1411 135.031 42.167 135.013 42.1842C134.996 42.2101 134.979 42.2359 134.953 42.2618C134.927 42.2877 134.901 42.3222 134.858 42.348C134.84 42.3653 134.823 42.3739 134.797 42.3912C134.771 42.3998 134.754 42.417 134.728 42.4256C134.702 42.4429 134.676 42.4515 134.65 42.4601C134.624 42.4688 134.598 42.4774 134.563 42.486C134.529 42.4946 134.503 42.4946 134.468 42.5033C134.451 42.5033 134.433 42.5119 134.416 42.5119H134.373H134.295H134.286H134.278H134.269H134.243L134.2 42.5033C134.174 42.5033 134.139 42.4946 134.113 42.486C134.087 42.4774 134.053 42.4774 134.027 42.4601C134.001 42.4515 133.975 42.4429 133.949 42.4256C133.923 42.417 133.906 42.3998 133.88 42.3912C133.836 42.3653 133.802 42.3394 133.776 42.3135C133.75 42.2877 133.732 42.2618 133.715 42.2359C133.698 42.2101 133.689 42.1928 133.681 42.1756C133.672 42.1152 133.672 42.098 133.672 42.098Z" fill="#E5804E"/>
<path d="M139.465 35.8201C139.465 36.1133 139.448 36.3979 139.413 36.6824C139.344 37.3292 139.223 37.9586 139.153 38.614C139.058 39.5712 139.023 40.5628 138.859 41.5114C138.625 40.0196 138.556 38.2863 137.613 37.0446C137.163 36.4496 136.721 35.9753 136.15 35.4838C135.267 34.7336 135.501 34.2076 135.172 33.2763C135.077 33.5005 135.06 33.7678 134.99 34.0093C134.765 34.9147 134.177 35.3545 133.355 35.777C133.017 35.9495 132.662 36.1133 132.316 36.2426C131.927 36.3892 131.399 36.3547 131.009 36.5186C130.204 36.8635 130.291 38.2173 130.204 38.9244C130.075 40.0541 129.832 40.2265 128.846 40.6059L128.551 39.735C128.543 38.4243 128.274 37.1653 128.084 35.8891C127.989 35.2596 128.015 34.6646 128.153 34.1214C128.499 32.7589 129.538 31.7328 131.087 31.2412C133.182 30.5773 134.869 30.7152 136.505 32.2329C137.197 32.8796 138.167 32.7417 138.816 33.3108C139.482 33.8799 139.465 35.044 139.465 35.8201Z" fill="#301F23"/>
<path d="M139.413 36.6826C139.344 37.3293 139.223 37.9588 139.153 38.6142C139.058 39.5713 139.023 40.563 138.859 41.5115C138.625 40.0197 138.556 38.2865 137.613 37.0448C137.163 36.4498 136.721 35.9755 136.15 35.484C135.267 34.7338 135.501 34.2078 135.172 33.2765C135.077 33.5007 135.06 33.768 134.99 34.0094C134.765 34.9149 134.177 35.3546 133.355 35.7772C133.017 35.9496 132.662 36.1135 132.316 36.2428C131.927 36.3894 131.399 36.3549 131.009 36.5187C130.204 36.8637 130.291 38.2175 130.204 38.9246C130.075 40.0542 129.832 40.2267 128.846 40.6061L128.551 39.7352C128.543 38.4245 128.274 37.1655 128.084 35.8893C127.989 35.2598 128.015 34.6648 128.153 34.1215C128.231 35.0011 128.508 35.9065 128.854 36.6826C128.802 35.1563 130.36 34.5096 131.555 34.2078C133.043 33.837 133.917 33.2765 135.042 32.2158C135.06 33.0091 135.622 34.087 136.124 34.7079C136.721 35.4409 137.561 35.4581 138.331 35.872C138.764 36.0876 139.119 36.3635 139.413 36.6826Z" fill="#1C1214"/>
<path d="M127.641 40.4249C127.711 39.7695 128.213 39.2004 128.689 39.4419C130.099 40.149 129.58 41.8391 129.58 41.8391C129.468 42.4944 128.671 42.4599 128.343 42.2185C127.927 41.8994 127.572 41.063 127.641 40.4249Z" fill="#FFB278"/>
<path d="M128.887 40.1143C129.026 40.4247 129.259 41.1145 129.259 41.1145C129.285 41.6405 128.446 41.5198 128.446 40.8903C128.446 40.6144 128.697 40.3729 128.437 40.1832C128.264 40.0539 128.065 40.2177 127.961 40.4247C127.952 39.8211 128.662 39.6314 128.887 40.1143Z" fill="#E5804E"/>
<path d="M140.339 40.2094C140.148 39.5713 139.551 39.1142 139.127 39.4419C137.872 40.3905 138.694 41.9599 138.694 41.9599C138.928 42.5894 139.707 42.4083 139.984 42.0978C140.33 41.7184 140.52 40.8216 140.339 40.2094Z" fill="#FFB278"/>
<path d="M139.057 40.1317C138.979 40.4594 138.875 41.1838 138.875 41.1838C138.953 41.7098 139.749 41.4252 139.637 40.813C139.585 40.537 139.299 40.3473 139.515 40.1145C139.663 39.9507 139.888 40.08 140.026 40.2697C139.922 39.6747 139.178 39.6144 139.057 40.1317Z" fill="#E5804E"/>
<path d="M134.143 51.0573C131.936 50.0397 131.157 47.9185 131.157 47.9185C130.785 48.0133 129.868 48.1599 129.686 48.729C129.573 49.0912 129.279 50.8848 131.4 52.23C131.85 52.5146 132.828 52.6698 133.364 52.1869C133.78 51.8333 134.394 51.1694 134.143 51.0573Z" fill="#FF5050"/>
<path d="M134.021 51.0573C136.228 50.0397 137.007 47.9185 137.007 47.9185C137.379 48.0133 138.296 48.1599 138.478 48.729C138.591 49.0912 138.885 50.8848 136.764 52.23C136.314 52.5146 135.345 52.6525 134.8 52.1869C134.514 51.9541 133.779 51.1694 134.021 51.0573Z" fill="#FF5050"/>
<path d="M90.8509 28.3955H67.7344V60.3441H90.8509V28.3955Z" fill="#F4F4F4"/>
<path d="M90.8509 51.7123V60.3441H67.7344V51.8676C68.4354 51.1691 69.4307 50.8069 70.4866 50.393C71.9059 49.8239 74.6927 49.0995 75.4284 47.5732L83.2262 48.1165C84.6975 49.3582 87.2766 50.3326 89.371 50.988C90.0028 51.1777 90.4874 51.4192 90.8509 51.7123Z" fill="#5895BA"/>
<path d="M82.9833 48.3842C82.3256 49.0481 79.3137 51.7213 78.4915 52.3853C77.427 52.1525 74.9691 49.4621 74.8653 48.8929C74.8306 48.7032 75.2634 48.0392 75.2114 46.7975C75.2028 46.4957 75.1595 46.1594 75.073 45.7886C74.8306 44.7366 74.8999 43.331 74.3633 42.4256L77.003 42.4083L82.3775 42.3652C82.2996 42.5549 82.2563 42.9775 82.2477 43.5207C82.239 44.3572 82.3082 45.4696 82.4467 46.4267C82.5679 47.3494 82.7583 48.1255 82.9833 48.3842Z" fill="#FFB278"/>
<path d="M82.4381 46.4266C81.3649 48.0305 79.5301 48.9273 77.3491 48.3409C76.501 48.1081 75.774 47.539 75.2114 46.7974C75.2028 46.4956 75.1595 46.1593 75.073 45.7885C74.8306 44.7364 74.8999 43.3309 74.3633 42.4254L77.0029 42.4082L82.2477 43.5206C82.2304 44.3484 82.2996 45.4694 82.4381 46.4266Z" fill="#E5804E"/>
<path d="M81.0973 32.8882C78.9077 31.8707 76.6488 32.1897 75.1169 34.1644C75.1169 34.1644 74.5284 36.3719 74.338 38.9158C74.1736 41.1491 73.8014 43.8137 74.7707 45.3055C75.7833 46.8576 78.1461 48.8755 80.6646 47.2026C81.7031 46.5127 82.5859 45.5038 83.1744 44.3569C83.9533 42.8307 83.5292 40.8301 83.6071 39.0882C83.7283 36.2943 83.9447 34.2162 81.0973 32.8882Z" fill="#FFB278"/>
<path d="M77.754 42.1238C78.178 41.3822 78.1261 39.6489 78.1261 39.6489C77.9184 40.5802 77.6155 41.4425 77.1914 42.3393C77.979 42.5894 78.7579 42.7274 79.3983 42.2531C78.9396 42.529 78.2646 42.2359 77.754 42.1238Z" fill="#E5804E"/>
<path d="M80.8462 43.0811C80.6038 43.5036 80.3182 43.9865 80.0153 44.3659C79.6345 44.8315 79.2277 45.0471 78.5873 45.0989C78.0161 45.1506 77.6007 44.9092 77.2372 44.5642C76.8823 44.2279 76.5967 43.7795 76.2852 43.4087C76.6487 43.4605 77.0121 43.5122 77.3843 43.5467C78.544 43.6674 79.7557 43.6329 80.8462 43.0811Z" fill="#E5804E"/>
<path d="M80.7578 42.8655C80.7751 42.8482 80.7751 42.8482 80.7578 42.8655Z" fill="#E5804E"/>
<path d="M80.8434 43.0811C80.601 43.5036 80.3154 43.9865 80.0125 44.3659C79.6317 44.8315 79.2249 45.0471 78.5845 45.0989C78.0133 45.1506 77.5979 44.9092 77.2344 44.5642C77.3642 44.2279 77.4507 43.8658 77.3902 43.5467C78.5412 43.6674 79.7529 43.6329 80.8434 43.0811Z" fill="white"/>
<path d="M77.7109 46.004C78.0225 45.6764 78.9659 45.7195 79.2774 46.0385C79.0091 45.3918 78.0485 45.4694 77.7109 46.004Z" fill="#E5804E"/>
<path d="M79.2852 46.0471C79.2852 46.0383 79.2852 46.0383 79.2852 46.0471C79.3028 46.0646 79.3028 46.0646 79.2852 46.0471Z" fill="#E5804E"/>
<path d="M77.1574 40.1918C77.1055 40.1573 77.0535 40.1228 77.0016 40.097C76.6295 39.9159 76.1621 39.9073 75.738 39.9676C75.5563 39.9935 75.3745 40.028 75.2188 40.0711C75.2188 40.0711 75.3918 39.3985 75.7294 38.9587C75.9025 38.7345 76.1275 38.5707 76.3871 38.6052C76.742 38.6483 76.9497 38.9587 77.0622 39.3123C77.1574 39.6141 77.1834 39.9504 77.1574 40.1918Z" fill="white"/>
<path d="M77.0636 39.4416C77.0636 39.6744 77.0376 39.8986 76.9943 40.097C76.6222 39.9159 76.1548 39.9073 75.7308 39.9676C75.7048 39.8038 75.6875 39.6227 75.6875 39.4416C75.6875 39.2692 75.6961 39.1053 75.7221 38.9587C75.8952 38.7345 76.1202 38.5707 76.3799 38.6052C76.7347 38.6483 76.9424 38.9587 77.0549 39.3123C77.0636 39.3468 77.0636 39.3899 77.0636 39.4416Z" fill="#16110F"/>
<path d="M76.0833 39.4677C76.0833 39.6229 76.04 39.7522 75.9967 39.7522C75.9534 39.7522 75.9102 39.6229 75.9102 39.4677C75.9102 39.3125 75.9448 39.1831 75.9967 39.1831C76.04 39.1831 76.0833 39.3125 76.0833 39.4677Z" fill="white"/>
<path d="M82.2197 40.2783C82.1678 40.2438 82.1072 40.2093 82.0466 40.1834C81.6399 40.0023 81.1206 39.9937 80.6532 40.0541C80.4455 40.0799 80.2551 40.1144 80.082 40.1575C80.082 40.1575 80.2724 39.4849 80.6446 39.0452C80.835 38.821 81.0773 38.6571 81.3716 38.6916C81.761 38.7347 81.9947 39.0452 82.1159 39.3987C82.2284 39.7005 82.2457 40.0368 82.2197 40.2783Z" fill="white"/>
<path d="M82.1231 39.528C82.1231 39.7609 82.0971 39.9851 82.0539 40.1834C81.6471 40.0023 81.1278 39.9937 80.6605 40.0541C80.6345 39.8902 80.6172 39.7178 80.6172 39.528C80.6172 39.3556 80.6345 39.1917 80.6518 39.0452C80.8422 38.821 81.0845 38.6571 81.3788 38.6916C81.7683 38.7347 82.0019 39.0452 82.1231 39.3987C82.1231 39.4332 82.1231 39.4763 82.1231 39.528Z" fill="#16110F"/>
<path d="M81.0342 39.5541C81.0342 39.7093 80.9909 39.8387 80.939 39.8387C80.887 39.8387 80.8438 39.7093 80.8438 39.5541C80.8438 39.3989 80.887 39.2695 80.939 39.2695C80.9909 39.2782 81.0342 39.3989 81.0342 39.5541Z" fill="white"/>
<path d="M77.1338 37.2086C76.5712 36.8292 74.1826 37.1914 74.5893 38.3814C74.849 38.7349 75.1692 38.6832 75.5327 38.6832C75.8096 38.6832 76.0779 38.6918 76.3462 38.7263C76.5453 38.7522 76.9347 38.8988 77.1251 38.8039C77.5232 38.5883 77.4973 37.4501 77.1338 37.2086Z" fill="#16110F"/>
<path d="M80.3946 37.424C80.9571 37.0445 83.3458 37.4067 82.9391 38.5967C82.6794 38.9503 82.3592 38.8985 81.9957 38.8985C81.7188 38.8985 81.4505 38.9071 81.1822 38.9416C80.9831 38.9675 80.5937 39.1141 80.4032 39.0192C80.0051 38.8037 80.0311 37.6654 80.3946 37.424Z" fill="#16110F"/>
<path d="M83.3877 41.8218C83.2838 41.3734 83.1194 39.8472 83.128 39.3643C83.2146 35.7684 82.5914 35.0268 82.3924 34.656C78.619 37.9759 75.8668 34.7854 75.4254 34.4836C75.235 35.3286 74.1185 39.7868 74.1185 39.7868C73.7724 38.4933 73.6425 36.5531 73.7291 34.7336C73.7291 34.6905 73.7377 34.6474 73.7377 34.5957C73.8243 33.8713 74.283 32.8193 74.984 32.7072C75.1398 32.6814 75.3562 32.7072 75.5033 32.6641C75.7543 32.5951 75.711 32.5692 75.8927 32.3623C76.1264 32.1036 76.4986 31.6897 76.7582 31.4569C77.9439 30.3876 79.9691 29.6891 81.5615 30.0772C83.4483 30.5428 84.608 32.026 84.9195 33.8196C84.9282 33.88 84.9369 33.9489 84.9455 34.0093C85.2484 36.1651 83.6213 41.4769 83.3877 41.8218Z" fill="#281F1C"/>
<path d="M73.6098 39.054C74.3108 39.0109 74.8733 40.0888 74.9512 40.6665L74.908 41.3995C74.9685 41.8134 74.432 42.7188 73.8867 42.6326C73.2722 42.5377 73.0472 41.5374 72.926 41.0201C72.7703 40.4164 72.6664 39.1144 73.6098 39.054Z" fill="#FFB278"/>
<path d="M74.0949 39.6835C74.3891 40.0025 74.5449 40.5889 74.4151 41.0114C74.4151 41.0114 74.1208 41.4857 73.9564 41.4253C73.7141 41.3305 73.7141 40.9166 73.7573 40.7096C73.8093 40.4337 74.0516 40.1577 73.8006 39.9077C73.6015 39.7093 73.3073 39.6921 73.1602 39.9422C73.2467 39.4248 73.7487 39.3127 74.0949 39.6835Z" fill="#E5804E"/>
<path d="M83.3877 41.8216C83.2838 41.3732 83.1194 39.8469 83.128 39.364C83.2146 35.7682 82.5914 35.0266 82.3924 34.6558C78.619 37.9757 75.8668 34.7851 75.4254 34.4833C75.235 35.3284 74.1185 39.7865 74.1185 39.7865C73.7724 38.4931 73.6425 36.5529 73.7291 34.7334C73.7291 34.6903 73.7377 34.6472 73.7377 34.5954C73.7897 34.6644 73.8589 34.7075 73.9368 34.7334C74.5426 34.9145 75.1831 33.8021 75.3994 33.4399C75.3389 34.5954 77.8227 34.8886 78.6103 35.0352C80.0903 35.3112 81.5269 34.6299 82.5222 33.5262C83.0934 34.0608 83.2579 35.1128 84.2445 34.6041C84.5734 34.4316 84.7811 34.147 84.9109 33.8021C84.9195 33.8625 84.9282 33.9315 84.9368 33.9918C85.2484 36.1648 83.6213 41.4767 83.3877 41.8216Z" fill="#0A0807"/>
<path d="M84.6527 39.3644C83.9863 39.3213 83.5622 40.1405 83.493 40.7183L83.4151 41.7185C83.3545 42.1324 83.8651 43.0379 84.3844 42.9516C84.9642 42.8568 85.1806 41.8479 85.3018 41.3391C85.4489 40.7269 85.5528 39.4248 84.6527 39.3644Z" fill="#FFB278"/>
<path d="M84.1867 39.994C83.9011 40.3131 83.7626 40.8994 83.8838 41.322C83.8838 41.322 84.1694 41.7963 84.3165 41.7359C84.5502 41.641 84.5416 41.2271 84.5069 41.0202C84.455 40.7442 84.2213 40.4683 84.4637 40.2182C84.6541 40.0199 84.931 40.0026 85.0781 40.2527C85.0003 39.7353 84.5242 39.6232 84.1867 39.994Z" fill="#E5804E"/>
<path d="M82.6731 47.6685C82.2144 48.4273 79.2285 51.7127 78.2852 52.256C78.666 52.575 80.821 53.9202 81.3056 54.3859C82.6211 52.6785 83.4 50.5917 84.7675 49.2292C84.3434 48.7636 82.6731 47.6685 82.6731 47.6685Z" fill="#BDF3F9"/>
<path d="M75.1415 47.772C74.7607 48.0652 73.2894 49.8415 73.5403 50.4882C73.774 51.1005 74.1462 51.7214 74.5616 52.187C74.9857 52.6613 75.2453 53.3856 75.73 53.7909C76.457 53.2563 77.8504 52.4802 78.8024 52.4802C78.811 52.4802 75.1068 49.7553 75.1415 47.772Z" fill="#BDF3F9"/>
<path d="M26.2104 76.6163C27.8462 89.4906 32.7101 113.282 34.0775 118.292C34.5016 119.844 34.7526 116.377 35.0036 118.016C34.9863 117.869 34.9776 117.714 34.9603 117.559C34.7266 115.067 34.5102 112.264 34.3372 109.367C33.9823 103.564 33.8179 97.3549 34.0948 92.319C34.1035 92.1724 34.1121 92.0344 34.1208 91.8878V91.8706C34.2593 89.4992 34.4237 87.0589 34.6228 84.6013C34.7526 82.9715 34.8997 81.3332 35.0555 79.6948C35.2719 77.4441 35.5142 75.1935 35.7825 72.986C35.9556 71.5632 36.1373 70.1662 36.3277 68.7865C36.5701 67.0619 36.8297 65.3718 37.1066 63.7334L31.6629 64.0438L26.3922 64.3456C26.0633 65.5098 25.8902 66.855 25.7864 68.2002C25.7518 68.7003 25.7171 69.2004 25.6998 69.692C25.6219 71.0975 25.8296 73.5465 26.2104 76.6163Z" fill="#FFB278"/>
<path d="M35.177 120.318C35.1337 119.507 34.9519 118.162 34.8481 117.378L33.8614 117.231C32.8229 118.179 32.745 119.145 32.2344 120.215L35.177 120.318Z" fill="white"/>
<path d="M31.6289 67.8378C31.6376 70.9852 31.7068 74.1585 31.8193 77.306C31.9145 80.2551 32.0357 83.1869 32.1482 86.0843C32.4251 93.345 32.8492 101.218 33.6714 108.694C34.0003 111.729 34.3984 114.696 34.8744 117.541L34.9609 117.567L35.8004 117.8C35.8697 109.289 40.5951 91.8445 43.1309 78.8064C43.8146 75.2968 43.0877 72.7875 43.5723 70.0453C44.0656 67.2514 44.4118 64.9749 44.5243 63.4659C44.7493 60.534 41.8154 46.1852 42.9838 45.2711L34.1128 39.4937C32.4165 44.6589 32.2867 52.0316 31.9145 57.766C31.9145 57.8178 31.9059 57.8609 31.9059 57.9126C31.776 59.939 31.6981 61.9827 31.6635 64.035C31.6376 65.3026 31.6289 66.5702 31.6289 67.8378Z" fill="#FFB278"/>
<path d="M39.3742 120.318C38.9848 119.197 36.8904 118.102 35.7999 117.127L34.8133 117.283C34.7007 118.093 34.519 119.507 34.4844 120.309H39.3742V120.318Z" fill="white"/>
<path d="M34.3367 109.367C34.103 101.166 34.0511 95.7163 34.1203 91.8877V91.8618C34.1896 88.3867 34.3713 86.2482 34.6223 84.6011C34.8213 83.3163 35.2195 79.5307 35.4877 78.4356C36.5869 74.012 41.6325 73.2962 42.3336 76.6593C43.0173 73.1497 43.0952 72.7789 43.5712 70.0367C42.7663 69.6314 41.9008 69.4417 40.9315 69.5969C40.0747 69.7263 39.2266 70.0626 38.4217 70.5196C38.2053 70.6403 37.9976 70.7783 37.7899 70.9163C37.0196 71.4423 36.3619 72.1494 35.782 72.9858C35.2887 73.7015 34.8473 74.5207 34.4492 75.4089C34.0684 76.2453 33.8001 77.7889 33.6183 79.7894C32.7529 89.3525 33.8693 109.41 34.4405 112.868C34.3973 111.652 34.3626 110.488 34.3367 109.367Z" fill="#E5804E"/>
<path d="M26.229 76.4782C26.1857 76.2971 32.6161 72.7099 34.4682 81.0916C34.7538 80.7035 34.8837 80.1689 35.0568 79.6946L38.4234 70.511L38.7177 69.7091C37.9214 69.3469 37.1252 69.0365 36.329 68.7778C34.7625 68.269 33.196 67.9586 31.6295 67.8378C29.6909 67.6826 27.7436 67.812 25.779 68.1828C25.7444 68.6829 25.7097 69.183 25.6924 69.6746C25.5886 71.8476 25.7271 74.3655 26.229 76.4782Z" fill="#E5804E"/>
<path d="M25.6203 31.1724C25.6982 32.9832 24.3827 35.5788 23.8202 37.3293C23.2663 39.0711 22.7643 41.0372 22.6085 43.0464C22.5047 44.3743 23.5692 47.3752 25.404 47.746C27.2128 48.1168 30.0775 47.9702 31.0641 46.8405C31.2632 46.6077 28.7014 43.8483 28.8572 43.6672L25.6203 31.1724Z" fill="#FFB278"/>
<path d="M29.7081 22.6702C24.8702 22.584 24.0826 29.6032 23.295 33.1387C22.7931 35.4238 22.568 37.8641 22.3949 40.1751C22.3084 41.2789 21.9189 42.1843 22.7671 42.8655C23.5287 43.4692 25.1558 43.4605 26.0905 43.3398C27.0079 43.2277 28.4099 42.4085 29.0244 42.5292L29.7081 22.6702Z" fill="#D8A71D"/>
<path d="M50.0794 82.5487C37.3052 89.2402 21.7787 84.1698 21.4758 82.8074C21.0777 81.0483 21.9259 70.1918 22.1682 66.5615C22.1941 66.1476 22.2115 65.8285 22.2201 65.6302C22.4278 60.7322 23.527 55.2566 26.3657 52.0488C28.8496 49.2463 27.785 47.7114 30.3555 45.3228L43.0518 49.9447C42.8009 50.3845 43.2163 52.3678 43.5019 53.7475C43.5105 53.7906 43.5278 53.8079 43.5538 53.8251C43.7615 53.9027 44.4972 52.9628 44.5318 53.1784C44.5924 53.5406 44.6703 53.9545 44.7655 54.4115C45.354 57.1881 46.5137 61.4393 47.0243 64.8196C48.0629 71.6836 49.3611 80.1429 50.0621 82.5228C50.0708 82.5315 50.0708 82.5401 50.0794 82.5487Z" fill="#073149"/>
<path d="M50.0794 82.5489C37.3052 89.2404 21.7787 84.17 21.4758 82.8076C21.0777 81.0485 21.9259 70.192 22.1682 66.5617C24.2713 69.2952 27.7331 70.8215 30.9094 70.9594C35.5396 71.175 40.741 68.4329 41.9354 55.2223C41.97 54.8774 42.6278 54.3341 43.5019 53.7563C43.5105 53.7822 43.5278 53.7995 43.5538 53.834C43.7096 53.9805 44.1856 54.1961 44.7741 54.4203C45.3626 57.197 46.5224 61.4482 47.033 64.8284C48.0715 71.6924 49.3697 80.1517 50.0708 82.5317C50.0708 82.5317 50.0708 82.5403 50.0794 82.5489Z" fill="#031821"/>
<path d="M46.9219 19.4449C46.5843 20.3676 46.2122 21.6956 45.5198 22.463C45.3381 22.67 45.1217 22.8338 44.888 22.9459C44.6717 23.0494 44.4293 23.0925 44.161 23.0839C43.8927 23.0753 43.5206 22.989 43.0965 22.8511C43.0879 22.8511 43.0879 22.8511 43.0792 22.8425C42.9234 22.7907 42.7676 22.7304 42.6032 22.67C42.2051 22.5148 41.7723 22.3251 41.3396 22.1181C40.0587 21.4886 38.8038 20.6867 38.3884 20.0917C36.7527 17.7203 35.5064 13.1242 36.5623 10.4683C38.2066 6.32058 41.4435 6.3292 45.0005 7.55368L47.0344 8.52809C48.2806 9.25243 47.4325 12.969 47.2161 14.2538C46.844 16.3924 47.9518 16.6597 46.9219 19.4449Z" fill="#FFB278"/>
<path d="M46.9649 13.0381L45.5195 18.3154C46.4369 18.9794 47.7784 18.212 48.289 17.4617C46.9129 16.1597 47.4409 14.6506 46.9649 13.0381Z" fill="#FFB278"/>
<path d="M45.3633 14.2799C45.7008 13.6418 47.9943 12.4345 47.8125 13.9005C47.7606 14.254 45.3806 14.5213 45.3633 14.2799Z" fill="#442E23"/>
<path d="M44.8986 22.9458C44.6822 23.0493 44.4399 23.0924 44.1716 23.0838C43.7908 23.0321 43.4359 22.9458 43.107 22.851C43.0984 22.851 43.0984 22.851 43.0897 22.8424C42.9253 22.7906 42.7609 22.7303 42.6137 22.6699C40.1818 21.6782 39.4721 19.488 38.9961 18.7464L40.4501 16.4785C40.7443 17.0218 40.9953 18.6947 41.229 19.3586C41.4367 19.9536 42.7955 22.1611 44.8986 22.9458Z" fill="#E5804E"/>
<path d="M45.9102 15.487C46.04 15.5818 46.8362 15.7543 47.4247 15.8147C47.4074 15.7198 47.3901 15.6163 47.3641 15.5129C47.3641 15.4956 47.3555 15.487 47.3555 15.4698C47.3036 15.2197 47.2949 14.9782 47.3122 14.7454C47.2257 14.6678 47.1218 14.6161 47.0006 14.5816C46.9314 14.5643 46.8535 14.5729 46.767 14.6161C46.6631 14.6592 46.5593 14.7368 46.4554 14.823C46.291 14.9696 46.1352 15.1507 46.0313 15.2887C46.0227 15.2973 46.014 15.3145 46.0054 15.3232C45.9534 15.3921 45.9188 15.4525 45.9102 15.487Z" fill="#E5804E"/>
<path d="M46.0321 15.2886C46.0234 15.2886 46.0234 15.2886 46.0321 15.2886C46.0234 15.2972 46.0234 15.3058 46.0234 15.3145C46.0494 15.3058 46.1013 15.3058 46.1792 15.3145C46.2398 15.3145 46.309 15.3231 46.3869 15.3231C46.4908 15.3317 46.6033 15.3403 46.7245 15.3576C46.9322 15.3835 47.1659 15.4179 47.3563 15.4697C47.3043 15.2196 47.2957 14.9782 47.313 14.7453C47.313 14.6764 47.3216 14.616 47.3303 14.547C47.2524 14.4866 47.1572 14.4349 47.062 14.4004C47.0014 14.3832 46.9235 14.3918 46.8456 14.4349C46.7331 14.4866 46.612 14.5815 46.4994 14.6936C46.3437 14.8402 46.2052 15.0213 46.1186 15.1506C46.0667 15.211 46.0407 15.2541 46.0321 15.2886Z" fill="white"/>
<path d="M46.4906 14.7024C46.4733 14.7455 46.4646 14.78 46.456 14.8231C46.456 14.8317 46.4473 14.849 46.4473 14.8662C46.404 15.0301 46.3867 15.1853 46.3867 15.3319C46.4906 15.3405 46.6031 15.3491 46.7243 15.3664C46.932 15.3922 47.1656 15.4267 47.356 15.4785C47.3041 15.2284 47.2955 14.987 47.3128 14.7541C47.3128 14.6851 47.3214 14.6248 47.3301 14.5558C47.2522 14.4954 47.157 14.4437 47.0618 14.4092C47.0012 14.392 46.9233 14.4006 46.8454 14.4437C46.7243 14.4954 46.6031 14.5903 46.4906 14.7024Z" fill="#0D1821"/>
<path d="M46.645 14.9869C46.619 15.0903 46.6364 15.1852 46.6796 15.1938C46.7229 15.2025 46.7835 15.1248 46.8094 15.0214C46.8354 14.9179 46.8181 14.823 46.7748 14.8144C46.7316 14.7972 46.671 14.8748 46.645 14.9869Z" fill="white"/>
<path d="M42.7665 19.4018L40.6807 15.8491C40.8451 16.2285 37.9285 15.7801 37.7295 16.1337C37.2448 16.996 36.0764 15.4525 36.0245 16.4182C35.9293 18.2119 34.9081 22.1009 34.207 22.5924C34.4494 22.9977 37.7381 25.9295 40.9057 25.7226C40.9057 24.981 41.2259 19.3587 42.7665 19.4018Z" fill="#FFB278"/>
<path d="M45.3816 58.5594C44.1959 59.2924 42.7159 59.7666 41.0975 60.0339C33.4988 61.2843 22.7151 57.9816 23.3469 56.0587C24.922 51.2815 28.1242 50.1691 27.4751 45.7282C26.8347 41.2873 24.8355 34.1732 25.1557 29.7323C25.5019 24.9896 25.0172 20.6953 37.0904 23.2133C38.8646 23.5841 44.5248 24.2222 47.3029 27.3006C49.3194 29.534 46.4028 31.4225 45.5027 34.3629C45.3383 34.889 45.2171 35.4063 45.1566 35.8892C44.9142 37.9157 43.867 45.0383 43.6333 47.0044C43.391 49.1171 46.4288 57.9127 45.3816 58.5594Z" fill="#FFD45C"/>
<path d="M38.822 21.0315C36.7189 20.3934 34.3994 20.471 32.305 20.0312C32.1319 21.2557 31.5174 24.1186 30.8164 24.5239L43.0973 25.6449C41.5741 24.7653 40.7087 21.6093 38.822 21.0315Z" fill="#FFD45C"/>
<path d="M45.3817 58.5595C44.196 59.2925 42.7161 59.7667 41.0977 60.034C41.1409 59.9133 41.1755 59.7926 41.2188 59.6633C41.8679 57.5075 42.4218 55.2223 42.5084 52.9803C42.5776 51.2126 42.2574 49.4449 42.3093 47.772C42.3612 46.0474 41.7641 39.4852 41.9804 37.7778C42.2141 35.9411 42.6468 33.6991 42.9671 31.8968C43.244 30.3274 43.5383 33.449 44.222 32.0434C44.5162 32.5091 45.174 33.6128 45.5029 34.3631C45.3384 34.8891 45.2173 35.4064 45.1567 35.8893C44.9144 37.9158 43.8671 45.0385 43.6335 47.0045C43.3911 49.1172 46.4289 57.9128 45.3817 58.5595Z" fill="#D8A71D"/>
<path d="M40.9047 15.7715C40.4633 16.1164 40.1258 16.4182 39.8661 16.6855C39.8402 16.72 39.8056 16.7459 39.7796 16.7804C39.7623 16.7976 39.7536 16.8063 39.7363 16.8235C39.7104 16.8494 39.6844 16.8839 39.6584 16.9097C39.6238 16.9529 39.5805 16.996 39.5546 17.0305C39.52 17.0736 39.494 17.1081 39.4594 17.1512C39.4334 17.1857 39.3988 17.2288 39.3728 17.2633C39.3469 17.2978 39.3209 17.3323 39.3036 17.3668C39.243 17.4616 39.1997 17.5392 39.1651 17.6255C39.0093 17.9618 39.0353 18.2032 39.0526 18.4102C37.9015 18.1429 36.7245 18.0566 35.5821 18.2463C35.5302 18.1429 35.4782 18.0308 35.4263 17.9187C35.4263 17.9187 34.8984 17.1684 34.8464 17.0563C34.8464 17.0477 34.8378 17.0477 34.8378 17.0477C32.9165 14.6764 32.2241 12.4775 32.4405 10.6149C32.8213 7.226 36.1793 4.94088 40.5931 4.6132C42.9385 4.44074 46.7552 5.66522 47.7246 8.02795C47.8371 8.30389 47.915 8.59707 47.9409 8.9075C48.1573 11.2961 42.1077 20.0744 40.9047 15.7715Z" fill="#442E23"/>
<path d="M36.6738 12.5465C37.02 12.6845 37.47 12.7276 37.8941 12.8052L40.6896 9.37322C40.1097 6.8294 40.2741 3.544 37.3575 2.81103C34.6313 2.12119 31.1089 5.63941 31.2214 8.21772C31.2993 10.0113 33.5149 10.9599 34.8909 12.0809C35.4622 12.5465 36.0074 12.2878 36.6738 12.5465Z" fill="#442E23"/>
<path d="M40.9062 15.7715C40.4649 16.1165 40.1273 16.4183 39.8677 16.6856C39.8417 16.7201 39.8071 16.746 39.7811 16.7805C39.7638 16.7977 39.7552 16.8063 39.7379 16.8236C39.7119 16.8494 39.6859 16.8839 39.66 16.9098C39.6254 16.9529 39.0282 19.514 39.0455 19.7209C37.8944 19.4536 36.7953 19.3415 35.6356 19.2467C35.2201 19.2122 31.1871 14.0642 32.4333 10.6149C32.4333 10.6322 32.442 10.6494 32.442 10.6667C32.5805 11.3134 32.9353 12.2102 33.5238 12.581C34.1383 12.9604 34.9692 12.8224 35.6269 13.107C36.2587 13.3743 36.8039 13.8572 37.4098 14.1677C38.1021 14.5126 38.8118 14.6592 39.5648 14.823C41.7198 15.2973 44.0738 14.7109 45.6144 12.9863C46.9212 11.529 47.4232 9.87334 47.7088 8.03662C47.8213 8.31256 47.8992 8.60575 47.9252 8.91618C48.1588 11.2962 42.1092 20.0745 40.9062 15.7715Z" fill="#2B1C16"/>
<path d="M42.3008 10.7875C40.4574 9.38196 40.9507 7.01923 39.8862 5.45845C39.7477 6.40699 39.2198 7.44176 38.4322 8.01089C37.4109 7.28655 37.4283 5.82062 36.0695 5.3291C37.0388 6.54496 37.2552 8.32132 36.407 9.6579C35.5329 11.0376 33.1269 11.3135 32.7461 10.2615L33.0317 13.3745C33.5164 14.0126 33.6375 15.0387 34.3039 15.6337C35.2906 16.5219 35.7752 15.9959 36.8657 15.8752C38.6572 15.6768 40.2064 16.4357 41.946 15.8838C44.5856 15.0473 46.8185 12.2103 47.5196 9.60616C46.1694 11.2532 44.2135 12.2448 42.3008 10.7875Z" fill="#2B1C16"/>
<path d="M39.5396 15.1508C39.9118 14.504 40.8032 14.254 41.3138 14.8145C42.8284 16.4701 41.4263 17.8929 41.4263 17.8929C40.9936 18.5052 39.981 17.9447 39.6695 17.4704C39.2713 16.8754 39.1848 15.7716 39.5396 15.1508Z" fill="#FFB278"/>
<path d="M41.2803 15.6421C41.3236 16.056 41.3323 16.927 41.3323 16.927C41.1332 17.4875 40.1033 16.8149 40.3803 16.1595C40.5014 15.8663 40.9255 15.7887 40.6832 15.4179C40.5187 15.1679 40.1899 15.211 39.9648 15.3576C40.2072 14.7281 41.2025 14.9954 41.2803 15.6421Z" fill="#E5804E"/>
<path d="M63.0184 43.6157C62.8367 43.3483 62.2135 43.9088 61.8847 43.9864C61.1404 44.1503 59.3835 45.3403 58.8469 46.7286C58.7344 47.0132 59.0892 46.6596 58.8642 46.7286L60.7163 46.5216C60.8807 46.2974 61.0798 46.1164 61.2788 45.9094C61.5904 45.6162 63.3559 44.1158 63.0184 43.6157Z" fill="#FFB278"/>
<path d="M67.5172 36.6738L63.1206 43.3481C62.9129 43.6672 62.9994 44.0897 63.3197 44.3053C63.6399 44.5122 64.064 44.426 64.2803 44.1069L68.6769 37.4327L67.5172 36.6738Z" fill="#998F8F"/>
<path d="M66.0183 38.6831C65.2567 39.5023 58.0906 47.3493 58.3589 50.3415C58.4022 50.8244 59.3196 51.4281 59.7869 51.2728C62.6516 50.3329 67.0395 40.6061 67.4722 39.6316L66.0183 38.6831Z" fill="#0A3C5F"/>
<path d="M60.6109 47.9789C61.6927 47.3321 64.09 43.7966 64.1333 42.6239C64.142 42.4428 63.8996 42.2876 63.7352 42.3652C62.6707 42.874 60.3685 46.4698 60.2127 47.7202C60.1868 47.9099 60.4464 48.0823 60.6109 47.9789Z" fill="#B7ACAC"/>
<path d="M60.1425 51.5313C59.9694 51.7986 59.6579 51.9021 59.4415 51.7642L58.0394 50.8501C57.8317 50.7121 57.7971 50.3845 57.9702 50.1171C58.1433 49.8498 58.4549 49.7463 58.6712 49.8843L60.0733 50.7984C60.2896 50.9363 60.3156 51.264 60.1425 51.5313Z" fill="#998F8F"/>
<path d="M82.7054 24.843C81.9351 23.1011 80.6802 21.6611 79.1397 20.6177C77.7896 19.7036 76.2231 19.0914 74.5787 18.8672C71.1168 18.3843 67.603 19.8502 65.3615 22.4716C64.998 22.9028 64.6691 23.3598 64.3835 23.8427C62.9209 26.3003 62.5401 29.3529 63.3969 32.095C64.4527 35.4839 67.2136 38.1657 70.6668 39.0625C74.0248 39.9334 77.6857 39.028 80.2561 36.6998C80.8879 36.122 81.4505 35.458 81.9265 34.7423C83.8565 31.776 84.1248 28.0594 82.7054 24.843ZM79.7628 34.0439C79.7022 34.1215 79.6416 34.1991 79.5811 34.2767C79.5724 34.2939 79.4859 34.3888 79.4599 34.4233C79.1916 34.7165 78.906 35.001 78.6031 35.2597C78.456 35.3891 78.3088 35.5098 78.153 35.6219C78.0752 35.6822 77.9973 35.734 77.9194 35.7943C77.8934 35.8116 77.8761 35.8202 77.8674 35.8288C77.8588 35.8375 77.8501 35.8375 77.8328 35.8461C77.4866 36.0703 77.1231 36.2686 76.7423 36.4497C76.5692 36.5273 76.3962 36.6049 76.2144 36.6739C76.1538 36.6998 76.0932 36.7256 76.024 36.7429C75.998 36.7515 75.8682 36.7946 75.8509 36.8033C75.4614 36.9326 75.0633 37.0188 74.6566 37.0964C74.4662 37.1309 74.2844 37.1568 74.094 37.174C74.0334 37.1827 73.9642 37.1913 73.895 37.1913C73.895 37.1913 73.7219 37.1999 73.7046 37.1999C73.2891 37.2172 72.8824 37.2085 72.4669 37.1654C72.2765 37.1482 72.0861 37.1223 71.8957 37.0964C71.8784 37.0964 71.7746 37.0706 71.7226 37.0619C71.6534 37.0447 71.5755 37.0275 71.5063 37.0188C71.0909 36.924 70.6927 36.7946 70.2946 36.648C70.1129 36.5791 69.9311 36.5014 69.7494 36.4238C69.7407 36.4238 69.7321 36.4152 69.7234 36.4152C69.7061 36.4066 69.6888 36.398 69.6542 36.3807C69.5676 36.3376 69.4724 36.2859 69.3859 36.2427C68.9964 36.0358 68.6329 35.7943 68.2781 35.527C68.2002 35.4667 68.1223 35.4063 68.0444 35.3459C68.0271 35.3373 67.9319 35.2511 67.8973 35.2252C67.7675 35.1131 67.6463 34.9924 67.5251 34.8717C67.2222 34.5785 66.9539 34.2508 66.6943 33.9231C66.6337 33.8455 66.5818 33.7679 66.5212 33.6903C66.5039 33.6644 66.4952 33.6472 66.4866 33.6386C66.4779 33.6299 66.4779 33.6213 66.4693 33.6041C66.3654 33.4402 66.2702 33.2764 66.175 33.1126C65.9673 32.7504 65.7942 32.3796 65.6384 32.0002C65.6125 31.9398 65.5865 31.8795 65.5692 31.8105C65.5605 31.7846 65.5173 31.6553 65.5086 31.638C65.448 31.4569 65.3961 31.2758 65.3528 31.0948C65.249 30.6981 65.1797 30.2928 65.1365 29.8875C65.1278 29.8272 65.1192 29.7582 65.1192 29.6892C65.1192 29.6978 65.1105 29.5167 65.1105 29.4995C65.1018 29.3098 65.1018 29.1201 65.1018 28.9304C65.1105 28.5164 65.1451 28.1025 65.2057 27.6973C65.2057 27.68 65.2317 27.5679 65.2403 27.5248C65.2576 27.4558 65.2749 27.3782 65.2836 27.3092C65.3269 27.1195 65.3788 26.9384 65.4307 26.7487C65.5519 26.3434 65.7077 25.9468 65.8808 25.5587C65.8808 25.5501 65.8894 25.5415 65.8894 25.5329C65.8981 25.5156 65.9067 25.4897 65.924 25.4552C65.9673 25.369 66.0192 25.2742 66.0625 25.1879C66.0971 25.1189 66.1404 25.0586 66.175 24.9896C66.2356 24.8775 66.3048 24.774 66.3741 24.6705C66.4866 24.4981 66.5991 24.3342 66.7203 24.1704C66.7808 24.0928 66.8414 24.0066 66.902 23.929C66.9193 23.9031 67.0664 23.7306 67.0838 23.7048C67.3261 23.4288 67.5944 23.1701 67.8627 22.9287C68.0098 22.7993 68.1569 22.6786 68.3127 22.5579C68.3906 22.4975 68.4685 22.4372 68.5464 22.3854C68.5983 22.3509 68.6502 22.3078 68.7022 22.2733C68.7022 22.2733 68.7108 22.2733 68.7108 22.2647C69.031 22.0577 69.3686 21.868 69.7148 21.7042C69.8879 21.618 70.061 21.549 70.234 21.4714C70.3206 21.4369 70.4071 21.4024 70.5023 21.3679C70.5456 21.3506 70.5802 21.342 70.5889 21.3334C70.6235 21.3248 70.6581 21.3075 70.6927 21.2989C71.0562 21.1868 71.4197 21.092 71.7919 21.023C71.9736 20.9885 72.164 20.9626 72.3544 20.9367C72.4496 20.9281 72.5448 20.9195 72.64 20.9022H72.6487C72.7093 20.8936 72.7785 20.8936 72.8391 20.8936C73.2199 20.8764 73.6007 20.885 73.9815 20.9195C74.1719 20.9367 74.3623 20.954 74.5527 20.9885C74.6219 20.9971 74.6998 21.0143 74.7691 21.023C74.7171 21.0143 75.0028 21.0747 75.0287 21.0833C75.3749 21.1609 75.7211 21.2644 76.0586 21.3851C76.2144 21.4369 76.3615 21.4972 76.5173 21.5662C76.6125 21.6007 76.6991 21.6438 76.7856 21.6869C76.7943 21.6869 76.8029 21.6956 76.8116 21.6956C76.8289 21.7042 76.8462 21.7128 76.8808 21.7301C77.2097 21.8939 77.5299 22.0922 77.8415 22.2906C77.8761 22.3164 77.9194 22.3423 77.954 22.3682C78.0578 22.4372 78.153 22.5148 78.2569 22.5837C78.3348 22.6441 78.4127 22.7045 78.4906 22.7648C78.5079 22.7735 78.6204 22.8683 78.6377 22.8856C79.1483 23.3426 79.607 23.86 80.0051 24.4205C80.0311 24.455 80.0398 24.4722 80.0484 24.4808C80.0917 24.5412 80.1263 24.6016 80.1609 24.6619C80.2648 24.8258 80.36 24.9896 80.4465 25.1621C80.611 25.4639 80.7581 25.7829 80.8879 26.1106C80.9139 26.171 80.9312 26.2313 80.9571 26.2831C80.9658 26.3089 80.9745 26.3262 80.9831 26.3434C80.9831 26.352 80.9918 26.3607 80.9918 26.3779C81.0524 26.559 81.1043 26.7401 81.1562 26.9212C81.2428 27.2575 81.312 27.5938 81.3639 27.9387C81.3899 28.0939 81.4072 28.2491 81.4158 28.4043C81.4158 28.413 81.4158 28.413 81.4158 28.4216C81.4158 28.4388 81.4158 28.4647 81.4158 28.5078C81.4245 28.6027 81.4245 28.6975 81.4245 28.7924C81.4332 29.1373 81.4158 29.4909 81.3899 29.8358C81.3726 29.991 81.3553 30.1548 81.3293 30.3101C81.3206 30.379 81.312 30.4394 81.2947 30.5084C81.2947 30.5084 81.2601 30.6808 81.2601 30.6981C81.1822 31.043 81.087 31.3879 80.9658 31.7242C80.9139 31.8795 80.8533 32.0347 80.7927 32.1813C80.7581 32.2761 80.7148 32.3624 80.6802 32.4572C80.6715 32.4745 80.6283 32.5607 80.611 32.6124C80.4552 32.9229 80.2734 33.2247 80.083 33.5178C79.9965 33.7162 79.884 33.88 79.7628 34.0439Z" fill="#031821"/>
<path opacity="0.3" d="M81.8844 25.2139C81.1834 23.6272 80.041 22.3165 78.6476 21.368C77.41 20.5229 75.9733 19.971 74.4674 19.7554C71.3084 19.3157 68.0976 20.6522 66.0551 23.0495C65.7089 23.4547 65.406 23.8859 65.1377 24.3343C63.8222 26.5677 63.476 29.3357 64.2549 31.8278C65.2156 34.9149 67.7341 37.3638 70.893 38.183C73.9567 38.9763 77.2974 38.1571 79.6429 36.0272C80.2227 35.5012 80.7333 34.889 81.1661 34.2423C82.9316 31.5432 83.1826 28.1543 81.8844 25.2139ZM79.764 34.0439C79.7034 34.1215 79.6429 34.1991 79.5823 34.2767C79.5736 34.294 79.4871 34.3888 79.4611 34.4233C79.1928 34.7165 78.9072 35.0011 78.6043 35.2598C78.4572 35.3891 78.31 35.5099 78.1543 35.622C78.0764 35.6823 77.9985 35.734 77.9206 35.7944C77.8946 35.8117 77.8773 35.8203 77.8686 35.8289C77.86 35.8375 77.8513 35.8375 77.834 35.8462C77.4878 36.0704 77.1243 36.2687 76.7435 36.4498C76.5704 36.5274 76.3974 36.605 76.2156 36.674C76.155 36.6998 76.0944 36.7257 76.0252 36.743C75.9992 36.7516 75.8694 36.7947 75.8521 36.8033C75.4627 36.9327 75.0645 37.0189 74.6578 37.0965C74.4674 37.131 74.2856 37.1569 74.0952 37.1741C74.0346 37.1827 73.9654 37.1914 73.8962 37.1914C73.8962 37.1914 73.7231 37.2 73.7058 37.2C73.2903 37.2172 72.8836 37.2086 72.4682 37.1655C72.2777 37.1482 72.0873 37.1224 71.8969 37.0965C71.8796 37.0965 71.7758 37.0706 71.7239 37.062C71.6546 37.0448 71.5767 37.0275 71.5075 37.0189C71.0921 36.924 70.6939 36.7947 70.2958 36.6481C70.1141 36.5791 69.9323 36.5015 69.7506 36.4239C69.7419 36.4239 69.7333 36.4153 69.7246 36.4153C69.7073 36.4067 69.69 36.398 69.6554 36.3808C69.5688 36.3377 69.4736 36.2859 69.3871 36.2428C68.9976 36.0359 68.6341 35.7944 68.2793 35.5271C68.2014 35.4667 68.1235 35.4064 68.0456 35.346C68.0283 35.3374 67.9331 35.2512 67.8985 35.2253C67.7687 35.1132 67.6475 34.9925 67.5264 34.8717C67.2234 34.5786 66.9551 34.2509 66.6955 33.9232C66.6349 33.8456 66.583 33.768 66.5224 33.6904C66.5051 33.6645 66.4964 33.6473 66.4878 33.6386C66.4791 33.63 66.4791 33.6214 66.4705 33.6041C66.3666 33.4403 66.2714 33.2765 66.1762 33.1126C65.9685 32.7505 65.7954 32.3797 65.6396 32.0002C65.6137 31.9399 65.5877 31.8795 65.5704 31.8105C65.5617 31.7847 65.5185 31.6553 65.5098 31.6381C65.4492 31.457 65.3973 31.2759 65.354 31.0948C65.2502 30.6982 65.1809 30.2929 65.1377 29.8876C65.129 29.8272 65.1204 29.7582 65.1204 29.6893C65.1204 29.6979 65.1117 29.5168 65.1117 29.4995C65.103 29.3098 65.103 29.1201 65.103 28.9304C65.1117 28.5165 65.1463 28.1026 65.2069 27.6973C65.2069 27.6801 65.2329 27.568 65.2415 27.5249C65.2588 27.4559 65.2761 27.3783 65.2848 27.3093C65.3281 27.1196 65.38 26.9385 65.4319 26.7488C65.5531 26.3435 65.7089 25.9468 65.882 25.5588C65.882 25.5502 65.8906 25.5415 65.8906 25.5329C65.8993 25.5157 65.9079 25.4898 65.9252 25.4553C65.9685 25.3691 66.0204 25.2742 66.0637 25.188C66.0983 25.119 66.1416 25.0586 66.1762 24.9897C66.2368 24.8776 66.306 24.7741 66.3753 24.6706C66.4878 24.4981 66.6003 24.3343 66.7215 24.1705C66.7821 24.0929 66.8426 24.0066 66.9032 23.929C66.9205 23.9031 67.0677 23.7307 67.085 23.7048C67.3273 23.4289 67.5956 23.1702 67.8639 22.9287C68.011 22.7994 68.1581 22.6787 68.3139 22.5579C68.3918 22.4976 68.4697 22.4372 68.5476 22.3855C68.5995 22.351 68.6515 22.3079 68.7034 22.2734C68.7034 22.2734 68.712 22.2734 68.712 22.2648C69.0323 22.0578 69.3698 21.8681 69.716 21.7043C69.8891 21.618 70.0622 21.549 70.2353 21.4714C70.3218 21.4369 70.4083 21.4024 70.5035 21.368C70.5468 21.3507 70.5814 21.3421 70.5901 21.3335C70.6247 21.3248 70.6593 21.3076 70.6939 21.299C71.0574 21.1869 71.4209 21.092 71.7931 21.023C71.9748 20.9885 72.1652 20.9627 72.3556 20.9368C72.4508 20.9282 72.546 20.9196 72.6412 20.9023H72.6499C72.7105 20.8937 72.7797 20.8937 72.8403 20.8937C73.2211 20.8764 73.6019 20.8851 73.9827 20.9196C74.1731 20.9368 74.3635 20.954 74.5539 20.9885C74.6232 20.9972 74.701 21.0144 74.7703 21.023C74.7184 21.0144 75.004 21.0748 75.0299 21.0834C75.3761 21.161 75.7223 21.2645 76.0598 21.3852C76.2156 21.4369 76.3627 21.4973 76.5185 21.5663C76.6137 21.6008 76.7003 21.6439 76.7868 21.687C76.7955 21.687 76.8041 21.6956 76.8128 21.6956C76.8301 21.7043 76.8474 21.7129 76.882 21.7301C77.2109 21.894 77.5311 22.0923 77.8427 22.2906C77.8773 22.3165 77.9206 22.3424 77.9552 22.3682C78.059 22.4372 78.1542 22.5148 78.2581 22.5838C78.336 22.6442 78.4139 22.7045 78.4918 22.7649C78.5091 22.7735 78.6216 22.8684 78.6389 22.8856C79.1495 23.3426 79.6082 23.86 80.0063 24.4205C80.0323 24.455 80.041 24.4723 80.0496 24.4809C80.0929 24.5413 80.1275 24.6016 80.1621 24.662C80.266 24.8258 80.3612 24.9897 80.4477 25.1621C80.6122 25.4639 80.7593 25.783 80.8891 26.1107C80.9151 26.171 80.9324 26.2314 80.9584 26.2831C80.967 26.309 80.9757 26.3262 80.9843 26.3435C80.9843 26.3521 80.993 26.3607 80.993 26.378C81.0536 26.5591 81.1055 26.7401 81.1574 26.9212C81.244 27.2575 81.3132 27.5938 81.3651 27.9388C81.3911 28.094 81.4084 28.2492 81.417 28.4044C81.417 28.413 81.417 28.413 81.417 28.4217C81.417 28.4389 81.417 28.4648 81.417 28.5079C81.4257 28.6027 81.4257 28.6976 81.4257 28.7924C81.4344 29.1374 81.417 29.4909 81.3911 29.8358C81.3738 29.9911 81.3565 30.1549 81.3305 30.3101C81.3218 30.3791 81.3132 30.4395 81.2959 30.5084C81.2959 30.5084 81.2613 30.6809 81.2613 30.6982C81.1834 31.0431 81.0882 31.388 80.967 31.7243C80.9151 31.8795 80.8545 32.0347 80.7939 32.1813C80.7593 32.2762 80.716 32.3624 80.6814 32.4573C80.6728 32.4745 80.6295 32.5607 80.6122 32.6125C80.4564 32.9229 80.2746 33.2247 80.0842 33.5179C79.9977 33.7162 79.8852 33.8801 79.764 34.0439Z" fill="#DDF1F2"/>
<path d="M62.5586 49.1258C62.3855 49.3069 62.3596 49.6087 62.0913 49.7812C61.8922 49.9105 61.6845 49.9795 61.4422 50.0226C61.3729 50.0399 61.2691 50.0399 61.1392 50.0399C60.2392 50.014 58.1707 49.5398 58.0322 49.2811C58.0236 49.2724 57.6168 47.7203 57.7553 47.5392C57.9024 47.3495 59.5122 45.8749 59.7372 45.7887C60.2738 45.5817 62.4288 44.9954 63.9607 44.8402C64.1857 44.8143 64.3847 44.8057 64.5751 44.8057C64.8781 44.8057 64.9906 45.7111 64.8088 46.0215C64.7309 46.1509 64.5492 46.194 64.4886 46.3061C64.3934 46.4699 64.4626 46.4441 64.4367 46.6424C64.3761 47.2374 64.1251 47.772 63.4327 47.8582C63.4587 48.1169 63.3548 48.4532 63.2077 48.6774C63.0433 48.9103 62.7404 48.9361 62.5586 49.1258Z" fill="#FFB278"/>
<path d="M62.56 49.1257C62.3869 49.3068 62.3609 49.6086 62.0926 49.781C61.8936 49.9104 61.6859 49.9794 61.4435 50.0225C61.3743 50.0397 61.2704 50.0397 61.1406 50.0397C61.5301 49.6689 61.8416 49.2291 61.6426 48.6514C62.2484 48.4272 62.8196 47.9702 62.7158 47.289C63.3562 47.4097 64.0572 46.5215 63.5812 45.961C63.9793 45.6851 64.213 45.228 63.962 44.8314C64.1871 44.8055 64.3861 44.7969 64.5765 44.7969C64.8794 44.7969 64.9919 45.7023 64.8102 46.0127C64.7323 46.1421 64.5506 46.1852 64.49 46.2973C64.3948 46.4611 64.464 46.4353 64.438 46.6336C64.3775 47.2286 64.1265 47.7632 63.4341 47.8495C63.4601 48.1081 63.3562 48.4444 63.2091 48.6686C63.0446 48.9101 62.7417 48.936 62.56 49.1257Z" fill="#E5804E"/>
<path opacity="0.6" d="M75.6903 34.2883C78.4295 34.1314 80.5224 31.7917 80.3649 29.0625C80.2075 26.3332 77.8592 24.2479 75.12 24.4049C72.3807 24.5618 70.2878 26.9015 70.4453 29.6307C70.6028 32.36 72.951 34.4453 75.6903 34.2883Z" fill="white"/>
<path d="M58.2681 47.2197C57.9392 47.0818 57.4546 47.168 57.1084 47.1249C56.4246 47.0387 55.7063 46.8834 55.0659 46.642C53.8629 46.1936 52.6772 45.7193 51.4569 45.3485C50.2972 44.995 49.0509 45.0208 47.9258 44.7277L44.5938 44.6069C45.5544 46.047 45.589 48.3149 47.0863 49.5049C48.5489 50.669 51.2146 50.4017 52.9282 50.2292C55.1351 50.0136 57.1776 49.4962 59.2893 49.0909C59.1422 48.4701 58.8047 47.4439 58.2681 47.2197Z" fill="#FFB278"/>
<path d="M50.1569 45.4178C50.3819 43.8743 49.8193 42.3049 49.776 40.6837C49.7328 38.9591 48.7202 34.7079 48.7894 32.966C48.9106 29.7496 48.7981 27.43 45.1631 25.6191L42.9648 31.8968C43.0081 34.4061 43.1812 42.943 44.6352 45.2798C45.215 46.2111 45.8382 47.1338 47.2316 47.4097C48.9365 47.7547 50.0011 46.4439 50.1569 45.4178Z" fill="#FFD45C"/>
</g>
<defs>
<clipPath id="clip0_49_3521">
<rect width="157.547" height="123" fill="white"/>
</clipPath>
</defs>
</svg>
