<svg width="360" height="523" viewBox="0 0 360 523" fill="none" xmlns="http://www.w3.org/2000/svg">
<rect width="360" height="523" rx="3" fill="#F4F4F4"/>
<path d="M102.469 451.05C102.332 450.619 102.147 450.233 101.915 449.892C101.688 449.546 101.416 449.253 101.098 449.011C100.781 448.765 100.419 448.578 100.012 448.45C99.6093 448.322 99.1665 448.259 98.6836 448.259C97.8645 448.259 97.1258 448.469 96.4677 448.891C95.8095 449.312 95.2887 449.93 94.9052 450.744C94.5264 451.554 94.337 452.546 94.337 453.72C94.337 454.899 94.5288 455.896 94.9123 456.71C95.2958 457.525 95.8214 458.143 96.489 458.564C97.1566 458.985 97.9165 459.196 98.7688 459.196C99.5595 459.196 100.248 459.035 100.836 458.713C101.427 458.391 101.884 457.937 102.206 457.349C102.533 456.758 102.696 456.062 102.696 455.261L103.265 455.368H99.1026V453.557H104.82V455.212C104.82 456.433 104.56 457.494 104.039 458.393C103.523 459.288 102.808 459.98 101.894 460.467C100.985 460.955 99.9431 461.199 98.7688 461.199C97.4525 461.199 96.2972 460.896 95.3029 460.29C94.3133 459.684 93.5415 458.824 92.9876 457.712C92.4336 456.594 92.1566 455.268 92.1566 453.734C92.1566 452.574 92.3176 451.533 92.6396 450.609C92.9615 449.686 93.4137 448.902 93.9961 448.259C94.5832 447.61 95.2721 447.115 96.0629 446.774C96.8583 446.429 97.7272 446.256 98.6694 446.256C99.4554 446.256 100.187 446.372 100.864 446.604C101.546 446.836 102.152 447.165 102.682 447.591C103.217 448.017 103.66 448.524 104.01 449.111C104.361 449.693 104.597 450.339 104.721 451.05H102.469ZM112.137 461.22C111.062 461.22 110.137 460.991 109.36 460.531C108.588 460.067 107.992 459.416 107.57 458.578C107.154 457.735 106.945 456.748 106.945 455.616C106.945 454.499 107.154 453.514 107.57 452.662C107.992 451.81 108.579 451.144 109.332 450.666C110.089 450.188 110.975 449.949 111.988 449.949C112.603 449.949 113.2 450.051 113.778 450.254C114.355 450.458 114.874 450.777 115.333 451.213C115.792 451.649 116.155 452.214 116.42 452.911C116.685 453.602 116.817 454.442 116.817 455.432V456.185H108.146V454.594H114.737C114.737 454.035 114.623 453.54 114.396 453.109C114.168 452.674 113.849 452.33 113.437 452.08C113.03 451.829 112.551 451.703 112.002 451.703C111.406 451.703 110.885 451.85 110.44 452.143C109.999 452.432 109.658 452.811 109.417 453.28C109.18 453.744 109.062 454.248 109.062 454.793V456.036C109.062 456.765 109.19 457.385 109.445 457.896C109.706 458.408 110.068 458.798 110.532 459.068C110.996 459.333 111.538 459.466 112.158 459.466C112.561 459.466 112.928 459.409 113.259 459.295C113.591 459.177 113.877 459.002 114.119 458.77C114.36 458.538 114.545 458.251 114.673 457.911L116.683 458.273C116.522 458.865 116.233 459.383 115.816 459.828C115.404 460.268 114.886 460.612 114.261 460.858C113.64 461.099 112.933 461.22 112.137 461.22ZM124.266 450.091V451.795H118.307V450.091H124.266ZM119.905 447.477H122.029V457.797C122.029 458.209 122.09 458.519 122.213 458.727C122.337 458.931 122.495 459.071 122.689 459.146C122.888 459.217 123.104 459.253 123.336 459.253C123.506 459.253 123.655 459.241 123.783 459.217C123.911 459.194 124.01 459.175 124.081 459.161L124.465 460.915C124.342 460.962 124.167 461.009 123.939 461.057C123.712 461.109 123.428 461.137 123.087 461.142C122.528 461.152 122.007 461.052 121.525 460.844C121.042 460.635 120.651 460.313 120.353 459.878C120.054 459.442 119.905 458.895 119.905 458.237V447.477ZM132.078 461V446.455H134.273V452.776H141.525V446.455H143.726V461H141.525V454.658H134.273V461H132.078ZM146.752 461V450.091H148.875V461H146.752ZM147.824 448.408C147.455 448.408 147.138 448.285 146.873 448.038C146.612 447.787 146.482 447.489 146.482 447.143C146.482 446.793 146.612 446.495 146.873 446.249C147.138 445.998 147.455 445.872 147.824 445.872C148.194 445.872 148.508 445.998 148.769 446.249C149.034 446.495 149.167 446.793 149.167 447.143C149.167 447.489 149.034 447.787 148.769 448.038C148.508 448.285 148.194 448.408 147.824 448.408ZM151.732 461V450.091H153.785V451.824H153.898C154.097 451.237 154.448 450.775 154.95 450.439C155.456 450.098 156.029 449.928 156.668 449.928C156.801 449.928 156.957 449.932 157.137 449.942C157.322 449.951 157.466 449.963 157.57 449.977V452.009C157.485 451.985 157.334 451.959 157.116 451.93C156.898 451.897 156.68 451.881 156.462 451.881C155.96 451.881 155.513 451.987 155.12 452.2C154.732 452.409 154.424 452.7 154.197 453.074C153.969 453.443 153.856 453.865 153.856 454.338V461H151.732ZM163.719 461.22C162.644 461.22 161.719 460.991 160.942 460.531C160.17 460.067 159.574 459.416 159.152 458.578C158.736 457.735 158.527 456.748 158.527 455.616C158.527 454.499 158.736 453.514 159.152 452.662C159.574 451.81 160.161 451.144 160.914 450.666C161.671 450.188 162.557 449.949 163.57 449.949C164.185 449.949 164.782 450.051 165.36 450.254C165.937 450.458 166.456 450.777 166.915 451.213C167.374 451.649 167.737 452.214 168.002 452.911C168.267 453.602 168.4 454.442 168.4 455.432V456.185H159.728V454.594H166.319C166.319 454.035 166.205 453.54 165.978 453.109C165.75 452.674 165.431 452.33 165.019 452.08C164.612 451.829 164.133 451.703 163.584 451.703C162.988 451.703 162.467 451.85 162.022 452.143C161.581 452.432 161.24 452.811 160.999 453.28C160.762 453.744 160.644 454.248 160.644 454.793V456.036C160.644 456.765 160.772 457.385 161.027 457.896C161.288 458.408 161.65 458.798 162.114 459.068C162.578 459.333 163.12 459.466 163.74 459.466C164.143 459.466 164.51 459.409 164.841 459.295C165.173 459.177 165.459 459.002 165.701 458.77C165.942 458.538 166.127 458.251 166.255 457.911L168.265 458.273C168.104 458.865 167.815 459.383 167.398 459.828C166.986 460.268 166.468 460.612 165.843 460.858C165.222 461.099 164.515 461.22 163.719 461.22ZM174.839 461.213C173.959 461.213 173.173 460.988 172.482 460.538C171.795 460.084 171.255 459.437 170.862 458.599C170.474 457.757 170.28 456.746 170.28 455.567C170.28 454.388 170.476 453.379 170.869 452.541C171.267 451.703 171.812 451.062 172.503 450.616C173.194 450.171 173.978 449.949 174.854 449.949C175.531 449.949 176.075 450.062 176.487 450.29C176.904 450.512 177.226 450.773 177.453 451.071C177.685 451.369 177.865 451.632 177.993 451.859H178.121V446.455H180.244V461H178.17V459.303H177.993C177.865 459.535 177.68 459.8 177.439 460.098C177.202 460.396 176.875 460.657 176.459 460.879C176.042 461.102 175.502 461.213 174.839 461.213ZM175.308 459.402C175.919 459.402 176.435 459.241 176.857 458.919C177.283 458.592 177.605 458.14 177.822 457.562C178.045 456.985 178.156 456.312 178.156 455.545C178.156 454.788 178.047 454.125 177.83 453.557C177.612 452.989 177.292 452.546 176.871 452.229C176.449 451.911 175.929 451.753 175.308 451.753C174.669 451.753 174.136 451.919 173.71 452.25C173.284 452.581 172.962 453.034 172.744 453.607C172.531 454.179 172.425 454.826 172.425 455.545C172.425 456.275 172.534 456.93 172.751 457.513C172.969 458.095 173.291 458.557 173.717 458.898C174.148 459.234 174.679 459.402 175.308 459.402ZM190.933 446.455V461H188.739V446.455H190.933ZM196.082 454.523V461H193.959V450.091H195.997V451.866H196.132C196.383 451.289 196.776 450.825 197.311 450.474C197.851 450.124 198.53 449.949 199.349 449.949C200.093 449.949 200.744 450.105 201.303 450.418C201.861 450.725 202.295 451.185 202.602 451.795C202.91 452.406 203.064 453.161 203.064 454.061V461H200.94V454.317C200.94 453.526 200.734 452.908 200.322 452.463C199.911 452.013 199.345 451.788 198.625 451.788C198.133 451.788 197.695 451.895 197.311 452.108C196.932 452.321 196.632 452.634 196.409 453.045C196.191 453.453 196.082 453.945 196.082 454.523ZM214.087 452.754L212.162 453.095C212.081 452.849 211.954 452.615 211.778 452.392C211.608 452.17 211.376 451.987 211.082 451.845C210.789 451.703 210.422 451.632 209.982 451.632C209.38 451.632 208.878 451.767 208.476 452.037C208.073 452.302 207.872 452.645 207.872 453.067C207.872 453.431 208.007 453.725 208.277 453.947C208.547 454.17 208.982 454.352 209.584 454.494L211.317 454.892C212.321 455.124 213.069 455.482 213.561 455.964C214.054 456.447 214.3 457.075 214.3 457.847C214.3 458.5 214.11 459.082 213.732 459.594C213.357 460.1 212.834 460.498 212.162 460.787C211.494 461.076 210.72 461.22 209.839 461.22C208.618 461.22 207.621 460.96 206.849 460.439C206.078 459.913 205.604 459.168 205.429 458.202L207.482 457.889C207.609 458.424 207.872 458.829 208.27 459.104C208.668 459.374 209.186 459.509 209.825 459.509C210.521 459.509 211.078 459.364 211.494 459.075C211.911 458.782 212.119 458.424 212.119 458.003C212.119 457.662 211.991 457.375 211.736 457.143C211.485 456.911 211.099 456.736 210.578 456.618L208.732 456.213C207.714 455.981 206.961 455.612 206.473 455.105C205.99 454.598 205.749 453.957 205.749 453.18C205.749 452.536 205.929 451.973 206.288 451.49C206.648 451.007 207.145 450.631 207.78 450.361C208.414 450.086 209.141 449.949 209.96 449.949C211.139 449.949 212.067 450.205 212.744 450.716C213.421 451.223 213.869 451.902 214.087 452.754ZM221.727 450.091V451.795H215.768V450.091H221.727ZM217.366 447.477H219.49V457.797C219.49 458.209 219.551 458.519 219.674 458.727C219.797 458.931 219.956 459.071 220.15 459.146C220.349 459.217 220.565 459.253 220.797 459.253C220.967 459.253 221.116 459.241 221.244 459.217C221.372 459.194 221.471 459.175 221.542 459.161L221.926 460.915C221.803 460.962 221.627 461.009 221.4 461.057C221.173 461.109 220.889 461.137 220.548 461.142C219.989 461.152 219.468 461.052 218.985 460.844C218.502 460.635 218.112 460.313 217.814 459.878C217.515 459.442 217.366 458.895 217.366 458.237V447.477ZM227.251 461.241C226.559 461.241 225.934 461.114 225.376 460.858C224.817 460.598 224.374 460.221 224.048 459.729C223.726 459.236 223.565 458.633 223.565 457.918C223.565 457.302 223.683 456.795 223.92 456.398C224.156 456 224.476 455.685 224.879 455.453C225.281 455.221 225.731 455.046 226.228 454.928C226.725 454.809 227.232 454.719 227.748 454.658C228.401 454.582 228.932 454.52 229.339 454.473C229.746 454.421 230.042 454.338 230.227 454.224C230.411 454.111 230.504 453.926 230.504 453.67V453.621C230.504 453 230.328 452.52 229.978 452.179C229.632 451.838 229.116 451.668 228.43 451.668C227.715 451.668 227.151 451.826 226.739 452.143C226.332 452.456 226.05 452.804 225.894 453.188L223.898 452.733C224.135 452.07 224.481 451.535 224.935 451.128C225.395 450.716 225.923 450.418 226.519 450.233C227.116 450.044 227.743 449.949 228.401 449.949C228.837 449.949 229.299 450.001 229.786 450.105C230.279 450.205 230.738 450.389 231.164 450.659C231.595 450.929 231.948 451.315 232.222 451.817C232.497 452.314 232.634 452.96 232.634 453.756V461H230.56V459.509H230.475C230.338 459.783 230.132 460.053 229.857 460.318C229.583 460.583 229.23 460.804 228.799 460.979C228.368 461.154 227.852 461.241 227.251 461.241ZM227.712 459.537C228.299 459.537 228.801 459.421 229.218 459.189C229.639 458.957 229.959 458.654 230.177 458.28C230.399 457.901 230.511 457.496 230.511 457.065V455.659C230.435 455.735 230.288 455.806 230.07 455.872C229.857 455.934 229.613 455.988 229.339 456.036C229.064 456.078 228.797 456.118 228.536 456.156C228.276 456.189 228.058 456.218 227.883 456.241C227.471 456.294 227.094 456.381 226.754 456.504C226.417 456.627 226.147 456.805 225.944 457.037C225.745 457.264 225.646 457.567 225.646 457.946C225.646 458.472 225.84 458.869 226.228 459.139C226.616 459.404 227.111 459.537 227.712 459.537ZM237.586 454.523V461H235.463V450.091H237.501V451.866H237.636C237.887 451.289 238.28 450.825 238.815 450.474C239.355 450.124 240.034 449.949 240.853 449.949C241.597 449.949 242.248 450.105 242.806 450.418C243.365 450.725 243.798 451.185 244.106 451.795C244.414 452.406 244.568 453.161 244.568 454.061V461H242.444V454.317C242.444 453.526 242.238 452.908 241.826 452.463C241.414 452.013 240.849 451.788 240.129 451.788C239.636 451.788 239.199 451.895 238.815 452.108C238.436 452.321 238.136 452.634 237.913 453.045C237.695 453.453 237.586 453.945 237.586 454.523ZM252.508 450.091V451.795H246.549V450.091H252.508ZM248.147 447.477H250.271V457.797C250.271 458.209 250.333 458.519 250.456 458.727C250.579 458.931 250.737 459.071 250.931 459.146C251.13 459.217 251.346 459.253 251.578 459.253C251.748 459.253 251.897 459.241 252.025 459.217C252.153 459.194 252.252 459.175 252.324 459.161L252.707 460.915C252.584 460.962 252.409 461.009 252.181 461.057C251.954 461.109 251.67 461.137 251.329 461.142C250.77 461.152 250.25 461.052 249.767 460.844C249.284 460.635 248.893 460.313 248.595 459.878C248.297 459.442 248.147 458.895 248.147 458.237V447.477ZM257.215 446.455V461H255.092V446.455H257.215ZM261.414 465.091C261.097 465.091 260.808 465.065 260.548 465.013C260.288 464.965 260.093 464.913 259.966 464.857L260.477 463.116C260.865 463.221 261.211 463.266 261.514 463.251C261.817 463.237 262.084 463.124 262.316 462.911C262.553 462.697 262.761 462.349 262.941 461.866L263.204 461.142L259.213 450.091H261.485L264.248 458.557H264.362L267.125 450.091H269.404L264.909 462.456C264.7 463.024 264.435 463.505 264.113 463.898C263.791 464.295 263.408 464.594 262.963 464.793C262.518 464.991 262.002 465.091 261.414 465.091Z" fill="#212427"/>
<circle cx="181" cy="387" r="45" fill="white"/>
<path d="M168.322 397.3C169.427 396.104 170.425 394.794 171.656 393.765C172.863 392.751 174.31 392.018 175.54 391.236C175.05 390.214 174.306 389.159 174.025 387.993C173.254 384.758 173.82 381.569 176.463 379.465C180.1 376.564 185.872 378.265 187.216 382.719C187.964 385.195 187.922 387.651 186.563 389.956C186.301 390.4 185.955 390.792 185.583 391.293C188.693 392.523 191.157 394.52 192.915 397.448C194.18 395.99 195.083 394.41 195.71 392.679C199.044 383.456 193.493 373.454 183.894 371.525C182.299 371.206 180.613 371.347 178.969 371.286C178.688 371.275 178.403 371.332 178.122 371.332C177.31 371.332 176.729 370.85 176.634 370.117C176.543 369.407 177.002 368.719 177.799 368.59C178.726 368.442 179.675 368.351 180.613 368.347C189.551 368.305 197.312 374.616 199.127 383.372C201.246 393.594 194.529 403.671 184.273 405.653C174.018 407.635 164.145 400.922 162.171 390.624C161.985 389.649 162.376 388.908 163.173 388.722C164.058 388.521 164.757 389.03 164.95 390.085C165.429 392.69 166.511 395.014 168.14 397.091C168.231 397.201 168.326 397.3 168.322 397.3ZM170.57 399.502C176.353 404.514 185.523 404.222 190.8 399.453C188.572 395.458 185.185 393.26 180.598 393.298C176.068 393.332 172.738 395.542 170.57 399.502ZM184.794 385.654C184.794 385.366 184.805 385.104 184.794 384.845C184.683 382.571 182.872 380.805 180.674 380.828C178.479 380.851 176.71 382.571 176.599 384.815C176.569 385.426 176.562 386.045 176.618 386.653C176.903 389.713 180.222 391.403 182.827 389.801C184.372 388.851 184.9 387.378 184.794 385.654Z" fill="#0077B5" fill-opacity="0.45"/>
<path d="M162.247 385.89C155.853 385.867 150.632 380.608 150.666 374.229C150.7 367.831 155.967 362.621 162.346 362.667C168.721 362.716 173.9 367.933 173.889 374.293C173.881 380.688 168.63 385.912 162.247 385.89ZM162.285 365.503C157.455 365.5 153.503 369.445 153.499 374.274C153.495 379.101 157.44 383.057 162.27 383.061C167.1 383.065 171.052 379.119 171.056 374.29C171.064 369.46 167.115 365.507 162.285 365.503Z" fill="#0077B5" fill-opacity="0.45"/>
<path d="M160.687 375.463C162.115 374.035 163.478 372.668 164.848 371.305C165.065 371.089 165.285 370.869 165.532 370.694C166.098 370.299 166.808 370.364 167.286 370.819C167.776 371.286 167.852 372.038 167.453 372.627C167.32 372.82 167.161 372.995 166.994 373.162C165.346 374.817 163.694 376.469 162.039 378.117C161.048 379.108 160.379 379.104 159.385 378.121C158.682 377.422 157.972 376.727 157.285 376.017C156.601 375.307 156.556 374.468 157.14 373.883C157.74 373.283 158.549 373.325 159.274 374.02C159.749 374.472 160.193 374.954 160.687 375.463Z" fill="#0077B5" fill-opacity="0.45"/>
<path d="M87.1067 278.185H84.8908C84.8056 277.711 84.647 277.295 84.415 276.935C84.1829 276.575 83.8989 276.269 83.5627 276.018C83.2265 275.768 82.8501 275.578 82.4334 275.45C82.0215 275.322 81.5835 275.259 81.1195 275.259C80.2814 275.259 79.531 275.469 78.8681 275.891C78.2099 276.312 77.6891 276.93 77.3056 277.744C76.9268 278.559 76.7374 279.553 76.7374 280.727C76.7374 281.911 76.9268 282.91 77.3056 283.724C77.6891 284.539 78.2123 285.154 78.8752 285.571C79.5381 285.988 80.2838 286.196 81.1124 286.196C81.5717 286.196 82.0073 286.134 82.4192 286.011C82.8359 285.884 83.2123 285.696 83.5485 285.45C83.8846 285.204 84.1687 284.903 84.4007 284.548C84.6375 284.188 84.8008 283.777 84.8908 283.312L87.1067 283.32C86.9883 284.035 86.7587 284.693 86.4178 285.294C86.0816 285.891 85.6484 286.407 85.1181 286.842C84.5925 287.273 83.9912 287.607 83.3141 287.844C82.637 288.08 81.8984 288.199 81.0982 288.199C79.8387 288.199 78.7166 287.901 77.7317 287.304C76.7469 286.703 75.9703 285.843 75.4022 284.726C74.8387 283.608 74.557 282.276 74.557 280.727C74.557 279.174 74.8411 277.841 75.4093 276.729C75.9775 275.611 76.754 274.754 77.7388 274.158C78.7237 273.556 79.8435 273.256 81.0982 273.256C81.87 273.256 82.5897 273.367 83.2573 273.589C83.9296 273.807 84.5333 274.129 85.0684 274.555C85.6034 274.977 86.0461 275.493 86.3965 276.104C86.7469 276.71 86.9836 277.403 87.1067 278.185ZM91.6859 281.523V288H89.5623V273.455H91.6575V278.866H91.7924C92.0481 278.279 92.4387 277.813 92.9643 277.467C93.4899 277.122 94.1764 276.949 95.024 276.949C95.7721 276.949 96.4255 277.103 96.9842 277.411C97.5476 277.718 97.9833 278.178 98.291 278.788C98.6035 279.394 98.7598 280.152 98.7598 281.061V288H96.6362V281.317C96.6362 280.517 96.4302 279.896 96.0183 279.456C95.6064 279.011 95.0334 278.788 94.2995 278.788C93.7976 278.788 93.3478 278.895 92.9501 279.108C92.5571 279.321 92.247 279.634 92.0197 280.045C91.7972 280.453 91.6859 280.945 91.6859 281.523ZM104.768 288.241C104.077 288.241 103.452 288.114 102.893 287.858C102.335 287.598 101.892 287.221 101.565 286.729C101.243 286.236 101.082 285.633 101.082 284.918C101.082 284.302 101.201 283.795 101.437 283.398C101.674 283 101.994 282.685 102.396 282.453C102.799 282.221 103.248 282.046 103.746 281.928C104.243 281.809 104.749 281.719 105.265 281.658C105.919 281.582 106.449 281.52 106.856 281.473C107.264 281.421 107.559 281.338 107.744 281.224C107.929 281.111 108.021 280.926 108.021 280.67V280.621C108.021 280 107.846 279.52 107.496 279.179C107.15 278.838 106.634 278.668 105.947 278.668C105.232 278.668 104.669 278.826 104.257 279.143C103.85 279.456 103.568 279.804 103.412 280.188L101.416 279.733C101.653 279.07 101.998 278.535 102.453 278.128C102.912 277.716 103.44 277.418 104.037 277.233C104.633 277.044 105.261 276.949 105.919 276.949C106.354 276.949 106.816 277.001 107.304 277.105C107.796 277.205 108.256 277.389 108.682 277.659C109.113 277.929 109.465 278.315 109.74 278.817C110.015 279.314 110.152 279.96 110.152 280.756V288H108.078V286.509H107.993C107.855 286.783 107.649 287.053 107.375 287.318C107.1 287.583 106.747 287.804 106.317 287.979C105.886 288.154 105.37 288.241 104.768 288.241ZM105.23 286.537C105.817 286.537 106.319 286.421 106.736 286.189C107.157 285.957 107.477 285.654 107.694 285.28C107.917 284.901 108.028 284.496 108.028 284.065V282.659C107.952 282.735 107.806 282.806 107.588 282.872C107.375 282.934 107.131 282.988 106.856 283.036C106.582 283.078 106.314 283.118 106.054 283.156C105.793 283.189 105.576 283.218 105.4 283.241C104.988 283.294 104.612 283.381 104.271 283.504C103.935 283.627 103.665 283.805 103.461 284.037C103.263 284.264 103.163 284.567 103.163 284.946C103.163 285.472 103.357 285.869 103.746 286.139C104.134 286.404 104.629 286.537 105.23 286.537ZM118.073 277.091V278.795H112.114V277.091H118.073ZM113.712 274.477H115.835V284.797C115.835 285.209 115.897 285.519 116.02 285.727C116.143 285.931 116.302 286.071 116.496 286.146C116.695 286.217 116.91 286.253 117.142 286.253C117.313 286.253 117.462 286.241 117.59 286.217C117.718 286.194 117.817 286.175 117.888 286.161L118.271 287.915C118.148 287.962 117.973 288.009 117.746 288.057C117.519 288.109 117.235 288.137 116.894 288.142C116.335 288.152 115.814 288.052 115.331 287.844C114.848 287.635 114.458 287.313 114.159 286.878C113.861 286.442 113.712 285.895 113.712 285.237V274.477ZM130.594 288H125.885V273.455H130.743C132.168 273.455 133.392 273.746 134.415 274.328C135.438 274.906 136.221 275.737 136.766 276.821C137.315 277.901 137.59 279.196 137.59 280.706C137.59 282.221 137.313 283.523 136.759 284.612C136.209 285.701 135.414 286.539 134.372 287.126C133.331 287.709 132.071 288 130.594 288ZM128.08 286.082H130.473C131.581 286.082 132.502 285.874 133.236 285.457C133.97 285.036 134.519 284.428 134.884 283.632C135.248 282.832 135.431 281.857 135.431 280.706C135.431 279.565 135.248 278.597 134.884 277.801C134.524 277.006 133.986 276.402 133.271 275.99C132.557 275.578 131.669 275.372 130.608 275.372H128.08V286.082ZM140.148 288V277.091H142.272V288H140.148ZM141.221 275.408C140.851 275.408 140.534 275.285 140.269 275.038C140.009 274.787 139.878 274.489 139.878 274.143C139.878 273.793 140.009 273.495 140.269 273.249C140.534 272.998 140.851 272.872 141.221 272.872C141.59 272.872 141.905 272.998 142.165 273.249C142.43 273.495 142.563 273.793 142.563 274.143C142.563 274.489 142.43 274.787 142.165 275.038C141.905 275.285 141.59 275.408 141.221 275.408ZM145.129 288V277.091H147.181V278.824H147.295C147.494 278.237 147.844 277.775 148.346 277.439C148.853 277.098 149.426 276.928 150.065 276.928C150.197 276.928 150.354 276.932 150.534 276.942C150.718 276.951 150.863 276.963 150.967 276.977V279.009C150.882 278.985 150.73 278.959 150.512 278.93C150.294 278.897 150.077 278.881 149.859 278.881C149.357 278.881 148.91 278.987 148.517 279.2C148.128 279.409 147.82 279.7 147.593 280.074C147.366 280.443 147.252 280.865 147.252 281.338V288H145.129ZM157.116 288.22C156.041 288.22 155.115 287.991 154.339 287.531C153.567 287.067 152.97 286.416 152.549 285.578C152.132 284.735 151.924 283.748 151.924 282.616C151.924 281.499 152.132 280.514 152.549 279.662C152.97 278.81 153.557 278.144 154.31 277.666C155.068 277.188 155.953 276.949 156.966 276.949C157.582 276.949 158.179 277.051 158.756 277.254C159.334 277.458 159.852 277.777 160.312 278.213C160.771 278.649 161.133 279.214 161.398 279.911C161.663 280.602 161.796 281.442 161.796 282.432V283.185H153.124V281.594H159.715C159.715 281.035 159.601 280.54 159.374 280.109C159.147 279.674 158.827 279.33 158.415 279.08C158.008 278.829 157.53 278.703 156.981 278.703C156.384 278.703 155.863 278.85 155.418 279.143C154.978 279.432 154.637 279.811 154.395 280.28C154.159 280.744 154.04 281.248 154.04 281.793V283.036C154.04 283.765 154.168 284.385 154.424 284.896C154.684 285.408 155.046 285.798 155.51 286.068C155.974 286.333 156.517 286.466 157.137 286.466C157.539 286.466 157.906 286.409 158.238 286.295C158.569 286.177 158.856 286.002 159.097 285.77C159.339 285.538 159.523 285.251 159.651 284.911L161.661 285.273C161.5 285.865 161.211 286.383 160.795 286.828C160.383 287.268 159.864 287.612 159.239 287.858C158.619 288.099 157.911 288.22 157.116 288.22ZM168.747 288.22C167.691 288.22 166.782 287.981 166.02 287.503C165.262 287.02 164.68 286.355 164.273 285.507C163.866 284.66 163.662 283.689 163.662 282.595C163.662 281.487 163.87 280.509 164.287 279.662C164.704 278.81 165.291 278.144 166.048 277.666C166.806 277.188 167.699 276.949 168.726 276.949C169.555 276.949 170.293 277.103 170.942 277.411C171.591 277.714 172.114 278.14 172.512 278.689C172.914 279.238 173.153 279.88 173.229 280.614H171.162C171.048 280.102 170.788 279.662 170.381 279.293C169.978 278.923 169.439 278.739 168.762 278.739C168.17 278.739 167.651 278.895 167.206 279.207C166.766 279.515 166.423 279.955 166.176 280.528C165.93 281.097 165.807 281.769 165.807 282.545C165.807 283.341 165.928 284.027 166.169 284.605C166.411 285.183 166.752 285.63 167.192 285.947C167.637 286.265 168.16 286.423 168.762 286.423C169.164 286.423 169.529 286.35 169.855 286.203C170.187 286.052 170.464 285.836 170.686 285.557C170.914 285.277 171.072 284.941 171.162 284.548H173.229C173.153 285.254 172.923 285.884 172.54 286.438C172.156 286.991 171.643 287.427 170.999 287.744C170.36 288.062 169.609 288.22 168.747 288.22ZM180.592 277.091V278.795H174.633V277.091H180.592ZM176.231 274.477H178.355V284.797C178.355 285.209 178.416 285.519 178.54 285.727C178.663 285.931 178.821 286.071 179.015 286.146C179.214 286.217 179.43 286.253 179.662 286.253C179.832 286.253 179.981 286.241 180.109 286.217C180.237 286.194 180.336 286.175 180.407 286.161L180.791 287.915C180.668 287.962 180.493 288.009 180.265 288.057C180.038 288.109 179.754 288.137 179.413 288.142C178.854 288.152 178.334 288.052 177.851 287.844C177.368 287.635 176.977 287.313 176.679 286.878C176.381 286.442 176.231 285.895 176.231 285.237V274.477ZM185.299 273.455V288H183.176V273.455H185.299ZM189.498 292.091C189.181 292.091 188.892 292.065 188.632 292.013C188.372 291.965 188.177 291.913 188.05 291.857L188.561 290.116C188.949 290.221 189.295 290.266 189.598 290.251C189.901 290.237 190.168 290.124 190.4 289.911C190.637 289.697 190.845 289.349 191.025 288.866L191.288 288.142L187.297 277.091H189.569L192.332 285.557H192.446L195.209 277.091H197.488L192.993 289.456C192.784 290.024 192.519 290.505 192.197 290.898C191.875 291.295 191.492 291.594 191.047 291.793C190.602 291.991 190.086 292.091 189.498 292.091ZM207.142 288L203.932 277.091H206.127L208.264 285.102H208.371L210.516 277.091H212.71L214.841 285.067H214.948L217.071 277.091H219.266L216.063 288H213.896L211.681 280.124H211.517L209.301 288H207.142ZM221.281 288V277.091H223.405V288H221.281ZM222.354 275.408C221.984 275.408 221.667 275.285 221.402 275.038C221.141 274.787 221.011 274.489 221.011 274.143C221.011 273.793 221.141 273.495 221.402 273.249C221.667 272.998 221.984 272.872 222.354 272.872C222.723 272.872 223.038 272.998 223.298 273.249C223.563 273.495 223.696 273.793 223.696 274.143C223.696 274.489 223.563 274.787 223.298 275.038C223.038 275.285 222.723 275.408 222.354 275.408ZM231.354 277.091V278.795H225.395V277.091H231.354ZM226.993 274.477H229.117V284.797C229.117 285.209 229.178 285.519 229.301 285.727C229.424 285.931 229.583 286.071 229.777 286.146C229.976 286.217 230.191 286.253 230.423 286.253C230.594 286.253 230.743 286.241 230.871 286.217C230.999 286.194 231.098 286.175 231.169 286.161L231.553 287.915C231.43 287.962 231.254 288.009 231.027 288.057C230.8 288.109 230.516 288.137 230.175 288.142C229.616 288.152 229.095 288.052 228.612 287.844C228.129 287.635 227.739 287.313 227.441 286.878C227.142 286.442 226.993 285.895 226.993 285.237V274.477ZM236.061 281.523V288H233.937V273.455H236.032V278.866H236.167C236.423 278.279 236.814 277.813 237.339 277.467C237.865 277.122 238.551 276.949 239.399 276.949C240.147 276.949 240.8 277.103 241.359 277.411C241.923 277.718 242.358 278.178 242.666 278.788C242.979 279.394 243.135 280.152 243.135 281.061V288H241.011V281.317C241.011 280.517 240.805 279.896 240.393 279.456C239.981 279.011 239.408 278.788 238.675 278.788C238.173 278.788 237.723 278.895 237.325 279.108C236.932 279.321 236.622 279.634 236.395 280.045C236.172 280.453 236.061 280.945 236.061 281.523ZM256.354 277.091V278.795H250.395V277.091H256.354ZM251.993 274.477H254.117V284.797C254.117 285.209 254.178 285.519 254.301 285.727C254.424 285.931 254.583 286.071 254.777 286.146C254.976 286.217 255.191 286.253 255.423 286.253C255.594 286.253 255.743 286.241 255.871 286.217C255.999 286.194 256.098 286.175 256.169 286.161L256.553 287.915C256.43 287.962 256.254 288.009 256.027 288.057C255.8 288.109 255.516 288.137 255.175 288.142C254.616 288.152 254.095 288.052 253.612 287.844C253.129 287.635 252.739 287.313 252.441 286.878C252.142 286.442 251.993 285.895 251.993 285.237V274.477ZM261.061 281.523V288H258.937V273.455H261.032V278.866H261.167C261.423 278.279 261.814 277.813 262.339 277.467C262.865 277.122 263.551 276.949 264.399 276.949C265.147 276.949 265.8 277.103 266.359 277.411C266.923 277.718 267.358 278.178 267.666 278.788C267.979 279.394 268.135 280.152 268.135 281.061V288H266.011V281.317C266.011 280.517 265.805 279.896 265.393 279.456C264.981 279.011 264.408 278.788 263.675 278.788C263.173 278.788 262.723 278.895 262.325 279.108C261.932 279.321 261.622 279.634 261.395 280.045C261.172 280.453 261.061 280.945 261.061 281.523ZM275.67 288.22C274.595 288.22 273.67 287.991 272.893 287.531C272.122 287.067 271.525 286.416 271.104 285.578C270.687 284.735 270.479 283.748 270.479 282.616C270.479 281.499 270.687 280.514 271.104 279.662C271.525 278.81 272.112 278.144 272.865 277.666C273.622 277.188 274.508 276.949 275.521 276.949C276.137 276.949 276.733 277.051 277.311 277.254C277.889 277.458 278.407 277.777 278.866 278.213C279.326 278.649 279.688 279.214 279.953 279.911C280.218 280.602 280.351 281.442 280.351 282.432V283.185H271.679V281.594H278.27C278.27 281.035 278.156 280.54 277.929 280.109C277.702 279.674 277.382 279.33 276.97 279.08C276.563 278.829 276.085 278.703 275.535 278.703C274.939 278.703 274.418 278.85 273.973 279.143C273.532 279.432 273.192 279.811 272.95 280.28C272.713 280.744 272.595 281.248 272.595 281.793V283.036C272.595 283.765 272.723 284.385 272.979 284.896C273.239 285.408 273.601 285.798 274.065 286.068C274.529 286.333 275.071 286.466 275.692 286.466C276.094 286.466 276.461 286.409 276.792 286.295C277.124 286.177 277.41 286.002 277.652 285.77C277.893 285.538 278.078 285.251 278.206 284.911L280.216 285.273C280.055 285.865 279.766 286.383 279.349 286.828C278.937 287.268 278.419 287.612 277.794 287.858C277.174 288.099 276.466 288.22 275.67 288.22ZM132.672 312V297.455H137.857C138.984 297.455 139.919 297.649 140.662 298.037C141.41 298.425 141.969 298.963 142.338 299.649C142.708 300.331 142.892 301.119 142.892 302.014C142.892 302.904 142.705 303.688 142.331 304.365C141.962 305.037 141.403 305.561 140.655 305.935C139.912 306.309 138.977 306.496 137.85 306.496H133.922V304.607H137.651C138.361 304.607 138.939 304.505 139.384 304.301C139.834 304.098 140.163 303.802 140.371 303.413C140.579 303.025 140.684 302.559 140.684 302.014C140.684 301.465 140.577 300.989 140.364 300.587C140.156 300.184 139.827 299.876 139.377 299.663C138.932 299.446 138.347 299.337 137.623 299.337H134.867V312H132.672ZM139.853 305.438L143.446 312H140.946L137.424 305.438H139.853ZM149.957 312.22C148.883 312.22 147.957 311.991 147.18 311.531C146.409 311.067 145.812 310.416 145.391 309.578C144.974 308.735 144.766 307.748 144.766 306.616C144.766 305.499 144.974 304.514 145.391 303.662C145.812 302.81 146.399 302.144 147.152 301.666C147.91 301.188 148.795 300.949 149.808 300.949C150.424 300.949 151.02 301.051 151.598 301.254C152.176 301.458 152.694 301.777 153.153 302.213C153.613 302.649 153.975 303.214 154.24 303.911C154.505 304.602 154.638 305.442 154.638 306.432V307.185H145.966V305.594H152.557C152.557 305.035 152.443 304.54 152.216 304.109C151.989 303.674 151.669 303.33 151.257 303.08C150.85 302.829 150.372 302.703 149.822 302.703C149.226 302.703 148.705 302.85 148.26 303.143C147.82 303.432 147.479 303.811 147.237 304.28C147 304.744 146.882 305.248 146.882 305.793V307.036C146.882 307.765 147.01 308.385 147.266 308.896C147.526 309.408 147.888 309.798 148.352 310.068C148.816 310.333 149.358 310.466 149.979 310.466C150.381 310.466 150.748 310.409 151.08 310.295C151.411 310.177 151.697 310.002 151.939 309.77C152.18 309.538 152.365 309.251 152.493 308.911L154.503 309.273C154.342 309.865 154.053 310.383 153.636 310.828C153.224 311.268 152.706 311.612 152.081 311.858C151.461 312.099 150.753 312.22 149.957 312.22ZM161.589 312.22C160.533 312.22 159.624 311.981 158.862 311.503C158.104 311.02 157.522 310.355 157.115 309.507C156.708 308.66 156.504 307.689 156.504 306.595C156.504 305.487 156.712 304.509 157.129 303.662C157.546 302.81 158.133 302.144 158.89 301.666C159.648 301.188 160.54 300.949 161.568 300.949C162.396 300.949 163.135 301.103 163.784 301.411C164.432 301.714 164.956 302.14 165.353 302.689C165.756 303.238 165.995 303.88 166.071 304.614H164.004C163.89 304.102 163.63 303.662 163.223 303.293C162.82 302.923 162.28 302.739 161.603 302.739C161.011 302.739 160.493 302.895 160.048 303.207C159.608 303.515 159.264 303.955 159.018 304.528C158.772 305.097 158.649 305.769 158.649 306.545C158.649 307.341 158.77 308.027 159.011 308.605C159.252 309.183 159.593 309.63 160.034 309.947C160.479 310.265 161.002 310.423 161.603 310.423C162.006 310.423 162.37 310.35 162.697 310.203C163.029 310.052 163.306 309.836 163.528 309.557C163.755 309.277 163.914 308.941 164.004 308.548H166.071C165.995 309.254 165.765 309.884 165.382 310.438C164.998 310.991 164.484 311.427 163.841 311.744C163.201 312.062 162.451 312.22 161.589 312.22ZM168.342 312V301.091H170.394V302.824H170.508C170.707 302.237 171.057 301.775 171.559 301.439C172.066 301.098 172.638 300.928 173.278 300.928C173.41 300.928 173.567 300.932 173.746 300.942C173.931 300.951 174.076 300.963 174.18 300.977V303.009C174.094 302.985 173.943 302.959 173.725 302.93C173.507 302.897 173.29 302.881 173.072 302.881C172.57 302.881 172.122 302.987 171.729 303.2C171.341 303.409 171.033 303.7 170.806 304.074C170.579 304.443 170.465 304.865 170.465 305.338V312H168.342ZM182.928 307.476V301.091H185.059V312H182.971V310.111H182.857C182.606 310.693 182.203 311.179 181.65 311.567C181.1 311.95 180.416 312.142 179.597 312.142C178.896 312.142 178.276 311.988 177.736 311.68C177.201 311.368 176.78 310.906 176.472 310.295C176.169 309.685 176.017 308.929 176.017 308.03V301.091H178.141V307.774C178.141 308.518 178.347 309.109 178.759 309.55C179.171 309.99 179.706 310.21 180.364 310.21C180.762 310.21 181.157 310.111 181.55 309.912C181.948 309.713 182.277 309.412 182.537 309.01C182.802 308.607 182.933 308.096 182.928 307.476ZM187.912 312V301.091H190.036V312H187.912ZM188.984 299.408C188.615 299.408 188.298 299.285 188.033 299.038C187.772 298.787 187.642 298.489 187.642 298.143C187.642 297.793 187.772 297.495 188.033 297.249C188.298 296.998 188.615 296.872 188.984 296.872C189.354 296.872 189.669 296.998 189.929 297.249C190.194 297.495 190.327 297.793 190.327 298.143C190.327 298.489 190.194 298.787 189.929 299.038C189.669 299.285 189.354 299.408 188.984 299.408ZM197.985 301.091V302.795H192.026V301.091H197.985ZM193.624 298.477H195.748V308.797C195.748 309.209 195.809 309.519 195.932 309.727C196.055 309.931 196.214 310.071 196.408 310.146C196.607 310.217 196.822 310.253 197.054 310.253C197.225 310.253 197.374 310.241 197.502 310.217C197.63 310.194 197.729 310.175 197.8 310.161L198.184 311.915C198.06 311.962 197.885 312.009 197.658 312.057C197.431 312.109 197.147 312.137 196.806 312.142C196.247 312.152 195.726 312.052 195.243 311.844C194.76 311.635 194.37 311.313 194.071 310.878C193.773 310.442 193.624 309.895 193.624 309.237V298.477ZM204.918 312.22C203.844 312.22 202.918 311.991 202.141 311.531C201.37 311.067 200.773 310.416 200.352 309.578C199.935 308.735 199.727 307.748 199.727 306.616C199.727 305.499 199.935 304.514 200.352 303.662C200.773 302.81 201.36 302.144 202.113 301.666C202.871 301.188 203.756 300.949 204.769 300.949C205.385 300.949 205.981 301.051 206.559 301.254C207.137 301.458 207.655 301.777 208.114 302.213C208.574 302.649 208.936 303.214 209.201 303.911C209.466 304.602 209.599 305.442 209.599 306.432V307.185H200.927V305.594H207.518C207.518 305.035 207.404 304.54 207.177 304.109C206.95 303.674 206.63 303.33 206.218 303.08C205.811 302.829 205.333 302.703 204.783 302.703C204.187 302.703 203.666 302.85 203.221 303.143C202.781 303.432 202.44 303.811 202.198 304.28C201.961 304.744 201.843 305.248 201.843 305.793V307.036C201.843 307.765 201.971 308.385 202.227 308.896C202.487 309.408 202.849 309.798 203.313 310.068C203.777 310.333 204.319 310.466 204.94 310.466C205.342 310.466 205.709 310.409 206.04 310.295C206.372 310.177 206.658 310.002 206.9 309.77C207.141 309.538 207.326 309.251 207.454 308.911L209.464 309.273C209.303 309.865 209.014 310.383 208.597 310.828C208.185 311.268 207.667 311.612 207.042 311.858C206.422 312.099 205.714 312.22 204.918 312.22ZM211.955 312V301.091H214.007V302.824H214.121C214.32 302.237 214.67 301.775 215.172 301.439C215.679 301.098 216.252 300.928 216.891 300.928C217.024 300.928 217.18 300.932 217.36 300.942C217.544 300.951 217.689 300.963 217.793 300.977V303.009C217.708 302.985 217.556 302.959 217.338 302.93C217.121 302.897 216.903 302.881 216.685 302.881C216.183 302.881 215.736 302.987 215.343 303.2C214.954 303.409 214.647 303.7 214.419 304.074C214.192 304.443 214.078 304.865 214.078 305.338V312H211.955ZM227.805 303.754L225.881 304.095C225.8 303.849 225.672 303.615 225.497 303.392C225.327 303.17 225.095 302.987 224.801 302.845C224.508 302.703 224.141 302.632 223.7 302.632C223.099 302.632 222.597 302.767 222.195 303.037C221.792 303.302 221.591 303.645 221.591 304.067C221.591 304.431 221.726 304.725 221.996 304.947C222.266 305.17 222.701 305.352 223.303 305.494L225.036 305.892C226.039 306.124 226.787 306.482 227.28 306.964C227.772 307.447 228.018 308.075 228.018 308.847C228.018 309.5 227.829 310.082 227.45 310.594C227.076 311.1 226.553 311.498 225.881 311.787C225.213 312.076 224.439 312.22 223.558 312.22C222.337 312.22 221.34 311.96 220.568 311.439C219.796 310.913 219.323 310.168 219.148 309.202L221.2 308.889C221.328 309.424 221.591 309.829 221.989 310.104C222.386 310.374 222.905 310.509 223.544 310.509C224.24 310.509 224.796 310.364 225.213 310.075C225.63 309.782 225.838 309.424 225.838 309.003C225.838 308.662 225.71 308.375 225.455 308.143C225.204 307.911 224.818 307.736 224.297 307.618L222.45 307.213C221.432 306.981 220.679 306.612 220.192 306.105C219.709 305.598 219.467 304.957 219.467 304.18C219.467 303.536 219.647 302.973 220.007 302.49C220.367 302.007 220.864 301.631 221.499 301.361C222.133 301.086 222.86 300.949 223.679 300.949C224.858 300.949 225.786 301.205 226.463 301.716C227.14 302.223 227.588 302.902 227.805 303.754Z" fill="#212427"/>
<circle cx="180" cy="214" r="45" fill="white"/>
<path d="M165.175 227.318C163.807 227.318 162.484 227.318 161.161 227.318C158.968 227.318 157.666 226.02 157.666 223.836C157.666 214.497 157.666 205.155 157.666 195.816C157.666 193.632 158.968 192.333 161.161 192.333C173.681 192.333 186.206 192.333 198.726 192.333C200.885 192.333 202.196 193.636 202.196 195.791C202.196 205.146 202.196 214.506 202.196 223.861C202.196 226.012 200.885 227.318 198.722 227.318C193.208 227.318 187.689 227.323 182.175 227.31C181.726 227.31 181.359 227.417 180.984 227.673C177.39 230.129 173.788 232.569 170.186 235.021C169.383 235.569 168.517 235.8 167.553 235.59C166.16 235.285 165.125 234.081 165.113 232.655C165.101 231.147 165.15 229.643 165.171 228.135C165.179 227.887 165.175 227.64 165.175 227.318ZM160.872 224.137C162.249 224.137 163.605 224.137 164.956 224.137C167.079 224.141 168.418 225.522 168.373 227.652C168.344 229.074 168.319 230.5 168.295 231.922C168.291 232.058 168.315 232.19 168.328 232.371C168.472 232.285 168.554 232.235 168.637 232.182C172.243 229.742 175.849 227.306 179.447 224.854C180.156 224.368 180.906 224.129 181.771 224.133C187.318 224.145 192.87 224.141 198.417 224.141C198.61 224.141 198.8 224.141 198.99 224.141C198.99 214.567 198.99 205.056 198.99 195.556C186.259 195.556 173.566 195.556 160.881 195.556C160.872 205.089 160.872 214.588 160.872 224.137Z" fill="#0077B5" fill-opacity="0.45"/>
<path d="M179.957 201.874C183.617 201.874 187.28 201.87 190.94 201.874C192.164 201.874 192.963 202.929 192.551 204.004C192.312 204.635 191.834 204.977 191.163 205.043C190.998 205.059 190.833 205.047 190.664 205.047C183.493 205.047 176.318 205.047 169.147 205.047C168.916 205.047 168.677 205.055 168.455 205.006C167.651 204.829 167.119 204.07 167.214 203.271C167.309 202.471 167.972 201.874 168.821 201.87C171.587 201.861 174.352 201.865 177.121 201.865C178.065 201.874 179.013 201.874 179.957 201.874Z" fill="#0077B5" fill-opacity="0.45"/>
<path d="M177.539 214.596C174.658 214.596 171.773 214.6 168.893 214.592C167.681 214.588 166.902 213.5 167.318 212.428C167.557 211.81 168.122 211.427 168.831 211.419C169.857 211.411 170.883 211.415 171.913 211.415C176.669 211.415 181.421 211.411 186.177 211.415C187.413 211.415 188.225 212.527 187.764 213.599C187.475 214.275 186.927 214.592 186.189 214.592C183.304 214.592 180.424 214.596 177.539 214.596Z" fill="#0077B5" fill-opacity="0.45"/>
<path d="M128.837 129.185H126.621C126.536 128.711 126.377 128.295 126.145 127.935C125.913 127.575 125.629 127.269 125.293 127.018C124.957 126.768 124.581 126.578 124.164 126.45C123.752 126.322 123.314 126.259 122.85 126.259C122.012 126.259 121.261 126.469 120.599 126.891C119.94 127.312 119.42 127.93 119.036 128.744C118.657 129.559 118.468 130.553 118.468 131.727C118.468 132.911 118.657 133.91 119.036 134.724C119.42 135.539 119.943 136.154 120.606 136.571C121.269 136.988 122.014 137.196 122.843 137.196C123.302 137.196 123.738 137.134 124.15 137.011C124.566 136.884 124.943 136.696 125.279 136.45C125.615 136.204 125.899 135.903 126.131 135.548C126.368 135.188 126.531 134.777 126.621 134.312L128.837 134.32C128.719 135.035 128.489 135.693 128.148 136.294C127.812 136.891 127.379 137.407 126.849 137.842C126.323 138.273 125.722 138.607 125.045 138.844C124.367 139.08 123.629 139.199 122.829 139.199C121.569 139.199 120.447 138.901 119.462 138.304C118.477 137.703 117.701 136.843 117.133 135.726C116.569 134.608 116.287 133.276 116.287 131.727C116.287 130.174 116.572 128.841 117.14 127.729C117.708 126.611 118.484 125.754 119.469 125.158C120.454 124.556 121.574 124.256 122.829 124.256C123.6 124.256 124.32 124.367 124.988 124.589C125.66 124.807 126.264 125.129 126.799 125.555C127.334 125.977 127.777 126.493 128.127 127.104C128.477 127.71 128.714 128.403 128.837 129.185ZM131.293 139V128.091H133.345V129.824H133.459C133.658 129.237 134.008 128.775 134.51 128.439C135.017 128.098 135.59 127.928 136.229 127.928C136.361 127.928 136.518 127.932 136.698 127.942C136.882 127.951 137.027 127.963 137.131 127.977V130.009C137.046 129.985 136.894 129.959 136.676 129.93C136.459 129.897 136.241 129.881 136.023 129.881C135.521 129.881 135.074 129.987 134.681 130.2C134.292 130.409 133.985 130.7 133.757 131.074C133.53 131.443 133.416 131.865 133.416 132.338V139H131.293ZM143.28 139.22C142.205 139.22 141.279 138.991 140.503 138.531C139.731 138.067 139.134 137.416 138.713 136.578C138.296 135.735 138.088 134.748 138.088 133.616C138.088 132.499 138.296 131.514 138.713 130.662C139.134 129.81 139.721 129.144 140.474 128.666C141.232 128.188 142.117 127.949 143.131 127.949C143.746 127.949 144.343 128.051 144.92 128.254C145.498 128.458 146.016 128.777 146.476 129.213C146.935 129.649 147.297 130.214 147.562 130.911C147.827 131.602 147.96 132.442 147.96 133.432V134.185H139.288V132.594H145.879C145.879 132.035 145.765 131.54 145.538 131.109C145.311 130.674 144.991 130.33 144.579 130.08C144.172 129.829 143.694 129.703 143.145 129.703C142.548 129.703 142.027 129.85 141.582 130.143C141.142 130.432 140.801 130.811 140.559 131.28C140.323 131.744 140.204 132.248 140.204 132.793V134.036C140.204 134.765 140.332 135.385 140.588 135.896C140.848 136.408 141.211 136.798 141.675 137.068C142.139 137.333 142.681 137.466 143.301 137.466C143.703 137.466 144.07 137.409 144.402 137.295C144.733 137.177 145.02 137.002 145.261 136.77C145.503 136.538 145.687 136.251 145.815 135.911L147.825 136.273C147.664 136.865 147.375 137.383 146.959 137.828C146.547 138.268 146.028 138.612 145.403 138.858C144.783 139.099 144.075 139.22 143.28 139.22ZM153.491 139.241C152.8 139.241 152.175 139.114 151.616 138.858C151.057 138.598 150.615 138.221 150.288 137.729C149.966 137.236 149.805 136.633 149.805 135.918C149.805 135.302 149.923 134.795 150.16 134.398C150.397 134 150.716 133.685 151.119 133.453C151.521 133.221 151.971 133.046 152.468 132.928C152.965 132.809 153.472 132.719 153.988 132.658C154.642 132.582 155.172 132.52 155.579 132.473C155.986 132.421 156.282 132.338 156.467 132.224C156.651 132.111 156.744 131.926 156.744 131.67V131.621C156.744 131 156.569 130.52 156.218 130.179C155.873 129.838 155.356 129.668 154.67 129.668C153.955 129.668 153.392 129.826 152.98 130.143C152.572 130.456 152.291 130.804 152.134 131.188L150.139 130.733C150.375 130.07 150.721 129.535 151.176 129.128C151.635 128.716 152.163 128.418 152.759 128.233C153.356 128.044 153.983 127.949 154.642 127.949C155.077 127.949 155.539 128.001 156.026 128.105C156.519 128.205 156.978 128.389 157.404 128.659C157.835 128.929 158.188 129.315 158.463 129.817C158.737 130.314 158.874 130.96 158.874 131.756V139H156.801V137.509H156.715C156.578 137.783 156.372 138.053 156.097 138.318C155.823 138.583 155.47 138.804 155.039 138.979C154.608 139.154 154.092 139.241 153.491 139.241ZM153.953 137.537C154.54 137.537 155.042 137.421 155.458 137.189C155.88 136.957 156.199 136.654 156.417 136.28C156.64 135.901 156.751 135.496 156.751 135.065V133.659C156.675 133.735 156.528 133.806 156.311 133.872C156.097 133.934 155.854 133.988 155.579 134.036C155.304 134.078 155.037 134.118 154.776 134.156C154.516 134.189 154.298 134.218 154.123 134.241C153.711 134.294 153.335 134.381 152.994 134.504C152.658 134.627 152.388 134.805 152.184 135.037C151.985 135.264 151.886 135.567 151.886 135.946C151.886 136.472 152.08 136.869 152.468 137.139C152.856 137.404 153.351 137.537 153.953 137.537ZM166.795 128.091V129.795H160.836V128.091H166.795ZM162.434 125.477H164.558V135.797C164.558 136.209 164.62 136.519 164.743 136.727C164.866 136.931 165.024 137.071 165.219 137.146C165.417 137.217 165.633 137.253 165.865 137.253C166.035 137.253 166.184 137.241 166.312 137.217C166.44 137.194 166.54 137.175 166.611 137.161L166.994 138.915C166.871 138.962 166.696 139.009 166.469 139.057C166.241 139.109 165.957 139.137 165.616 139.142C165.058 139.152 164.537 139.052 164.054 138.844C163.571 138.635 163.18 138.313 162.882 137.878C162.584 137.442 162.434 136.895 162.434 136.237V125.477ZM173.729 139.22C172.654 139.22 171.728 138.991 170.952 138.531C170.18 138.067 169.584 137.416 169.162 136.578C168.745 135.735 168.537 134.748 168.537 133.616C168.537 132.499 168.745 131.514 169.162 130.662C169.584 129.81 170.171 129.144 170.923 128.666C171.681 128.188 172.566 127.949 173.58 127.949C174.195 127.949 174.792 128.051 175.369 128.254C175.947 128.458 176.466 128.777 176.925 129.213C177.384 129.649 177.746 130.214 178.012 130.911C178.277 131.602 178.409 132.442 178.409 133.432V134.185H169.737V132.594H176.328C176.328 132.035 176.215 131.54 175.987 131.109C175.76 130.674 175.441 130.33 175.029 130.08C174.621 129.829 174.143 129.703 173.594 129.703C172.997 129.703 172.477 129.85 172.031 130.143C171.591 130.432 171.25 130.811 171.009 131.28C170.772 131.744 170.654 132.248 170.654 132.793V134.036C170.654 134.765 170.781 135.385 171.037 135.896C171.298 136.408 171.66 136.798 172.124 137.068C172.588 137.333 173.13 137.466 173.75 137.466C174.153 137.466 174.52 137.409 174.851 137.295C175.182 137.177 175.469 137.002 175.71 136.77C175.952 136.538 176.137 136.251 176.264 135.911L178.274 136.273C178.113 136.865 177.825 137.383 177.408 137.828C176.996 138.268 176.477 138.612 175.852 138.858C175.232 139.099 174.524 139.22 173.729 139.22ZM186.229 139V124.455H191.414C192.545 124.455 193.483 124.661 194.226 125.072C194.969 125.484 195.526 126.048 195.895 126.763C196.264 127.473 196.449 128.273 196.449 129.163C196.449 130.058 196.262 130.863 195.888 131.578C195.519 132.288 194.96 132.852 194.212 133.268C193.468 133.68 192.533 133.886 191.406 133.886H187.841V132.026H191.208C191.923 132.026 192.503 131.902 192.948 131.656C193.393 131.405 193.719 131.064 193.928 130.634C194.136 130.203 194.24 129.713 194.24 129.163C194.24 128.614 194.136 128.126 193.928 127.7C193.719 127.274 193.39 126.94 192.941 126.699C192.495 126.457 191.908 126.337 191.179 126.337H188.423V139H186.229ZM198.851 139V128.091H200.904V129.824H201.018C201.216 129.237 201.567 128.775 202.069 128.439C202.575 128.098 203.148 127.928 203.787 127.928C203.92 127.928 204.076 127.932 204.256 127.942C204.441 127.951 204.585 127.963 204.689 127.977V130.009C204.604 129.985 204.453 129.959 204.235 129.93C204.017 129.897 203.799 129.881 203.581 129.881C203.08 129.881 202.632 129.987 202.239 130.2C201.851 130.409 201.543 130.7 201.316 131.074C201.089 131.443 200.975 131.865 200.975 132.338V139H198.851ZM210.732 139.22C209.709 139.22 208.816 138.986 208.054 138.517C207.292 138.048 206.7 137.393 206.279 136.55C205.857 135.707 205.646 134.722 205.646 133.595C205.646 132.464 205.857 131.474 206.279 130.626C206.7 129.779 207.292 129.121 208.054 128.652C208.816 128.183 209.709 127.949 210.732 127.949C211.754 127.949 212.647 128.183 213.409 128.652C214.172 129.121 214.763 129.779 215.185 130.626C215.606 131.474 215.817 132.464 215.817 133.595C215.817 134.722 215.606 135.707 215.185 136.55C214.763 137.393 214.172 138.048 213.409 138.517C212.647 138.986 211.754 139.22 210.732 139.22ZM210.739 137.438C211.402 137.438 211.951 137.262 212.387 136.912C212.822 136.562 213.144 136.095 213.352 135.513C213.566 134.93 213.672 134.289 213.672 133.588C213.672 132.892 213.566 132.253 213.352 131.67C213.144 131.083 212.822 130.612 212.387 130.257C211.951 129.902 211.402 129.724 210.739 129.724C210.071 129.724 209.517 129.902 209.077 130.257C208.641 130.612 208.317 131.083 208.104 131.67C207.896 132.253 207.791 132.892 207.791 133.588C207.791 134.289 207.896 134.93 208.104 135.513C208.317 136.095 208.641 136.562 209.077 136.912C209.517 137.262 210.071 137.438 210.739 137.438ZM223.379 128.091V129.795H217.214V128.091H223.379ZM218.905 139V126.827C218.905 126.145 219.054 125.579 219.352 125.129C219.65 124.675 220.046 124.336 220.538 124.114C221.031 123.886 221.566 123.773 222.143 123.773C222.569 123.773 222.934 123.808 223.237 123.879C223.54 123.946 223.765 124.007 223.912 124.064L223.415 125.783C223.315 125.754 223.187 125.721 223.031 125.683C222.875 125.641 222.685 125.619 222.463 125.619C221.947 125.619 221.577 125.747 221.355 126.003C221.137 126.259 221.028 126.628 221.028 127.111V139H218.905ZM225.57 139V128.091H227.694V139H225.57ZM226.643 126.408C226.273 126.408 225.956 126.285 225.691 126.038C225.43 125.787 225.3 125.489 225.3 125.143C225.3 124.793 225.43 124.495 225.691 124.249C225.956 123.998 226.273 123.872 226.643 123.872C227.012 123.872 227.327 123.998 227.587 124.249C227.852 124.495 227.985 124.793 227.985 125.143C227.985 125.489 227.852 125.787 227.587 126.038C227.327 126.285 227.012 126.408 226.643 126.408ZM232.674 124.455V139H230.551V124.455H232.674ZM240.233 139.22C239.158 139.22 238.232 138.991 237.456 138.531C236.684 138.067 236.087 137.416 235.666 136.578C235.249 135.735 235.041 134.748 235.041 133.616C235.041 132.499 235.249 131.514 235.666 130.662C236.087 129.81 236.675 129.144 237.427 128.666C238.185 128.188 239.07 127.949 240.084 127.949C240.699 127.949 241.296 128.051 241.873 128.254C242.451 128.458 242.97 128.777 243.429 129.213C243.888 129.649 244.25 130.214 244.515 130.911C244.781 131.602 244.913 132.442 244.913 133.432V134.185H236.241V132.594H242.832C242.832 132.035 242.719 131.54 242.491 131.109C242.264 130.674 241.944 130.33 241.532 130.08C241.125 129.829 240.647 129.703 240.098 129.703C239.501 129.703 238.98 129.85 238.535 130.143C238.095 130.432 237.754 130.811 237.513 131.28C237.276 131.744 237.157 132.248 237.157 132.793V134.036C237.157 134.765 237.285 135.385 237.541 135.896C237.801 136.408 238.164 136.798 238.628 137.068C239.092 137.333 239.634 137.466 240.254 137.466C240.657 137.466 241.023 137.409 241.355 137.295C241.686 137.177 241.973 137.002 242.214 136.77C242.456 136.538 242.64 136.251 242.768 135.911L244.778 136.273C244.617 136.865 244.328 137.383 243.912 137.828C243.5 138.268 242.981 138.612 242.356 138.858C241.736 139.099 241.028 139.22 240.233 139.22Z" fill="#212427"/>
<circle cx="181" cy="65" r="45" fill="white"/>
<path d="M177.005 86.6631C174.452 86.6631 171.904 86.6747 169.351 86.6593C167.969 86.6516 166.621 86.416 165.358 85.8213C163.235 84.8212 161.987 83.1067 161.59 80.8401C160.867 76.689 161.64 72.8545 164.362 69.553C166.239 67.2747 168.772 66.1201 171.656 65.7456C172.888 65.5834 174.147 65.568 175.394 65.5564C178.101 65.5293 180.808 65.5255 183.515 65.5448C186.338 65.5641 188.902 66.402 191.188 68.0779C191.775 68.5104 192.037 69.0896 191.894 69.8001C191.755 70.4875 191.315 70.9933 190.616 71.0667C190.188 71.113 189.643 71.0319 189.303 70.7887C187.357 69.414 185.218 68.8309 182.843 68.8656C179.754 68.912 176.665 68.8772 173.576 68.8579C168.513 68.827 164.505 72.8854 164.636 77.9478C164.656 78.639 164.694 79.3379 164.818 80.0176C165.158 81.9058 166.297 82.9716 168.204 83.2187C168.772 83.2921 169.343 83.3268 169.915 83.3268C174.966 83.3346 180.017 83.3307 185.067 83.3346C186.318 83.3346 187.125 84.3308 186.813 85.4584C186.604 86.2075 185.955 86.6631 185.071 86.6631C182.384 86.6709 179.692 86.667 177.005 86.6631C177.005 86.667 177.005 86.667 177.005 86.6631Z" fill="#0077B5" fill-opacity="0.45"/>
<path d="M188.006 52.7599C188.06 57.9149 183.874 62.1432 178.642 62.2127C173.487 62.2822 169.174 58.0617 169.124 52.9027C169.07 47.7091 173.259 43.3881 178.395 43.334C183.716 43.28 187.948 47.431 188.006 52.7599ZM184.674 52.7908C184.681 49.4081 181.947 46.6703 178.557 46.6665C175.24 46.6626 172.475 49.4004 172.452 52.7097C172.429 56.0962 175.155 58.8648 178.526 58.8764C181.94 58.888 184.666 56.185 184.674 52.7908Z" fill="#0077B5" fill-opacity="0.45"/>
<path d="M193.241 82.207C192.272 82.207 191.342 82.2263 190.411 82.1993C189.643 82.18 189.002 81.6047 188.87 80.8903C188.731 80.1257 189.075 79.3766 189.766 79.0754C190.06 78.948 190.399 78.8978 190.724 78.8862C191.55 78.8591 192.38 78.8785 193.272 78.8785C193.272 77.9478 193.261 77.0674 193.276 76.1909C193.296 75.2216 193.925 74.5227 194.798 74.4609C195.782 74.3914 196.566 75.071 196.593 76.0557C196.62 76.9709 196.597 77.8861 196.597 78.8785C197.057 78.8785 197.466 78.8746 197.875 78.8785C198.481 78.89 199.095 78.8514 199.69 78.9364C200.544 79.0561 201.119 79.8515 201.045 80.6933C200.976 81.5158 200.308 82.1723 199.462 82.1993C198.717 82.2263 197.972 82.207 197.227 82.2109C197.041 82.2109 196.856 82.2109 196.593 82.2109C196.593 83.1994 196.605 84.1301 196.589 85.0607C196.578 85.7789 196.192 86.2732 195.547 86.5435C194.91 86.8099 194.265 86.7095 193.828 86.1998C193.539 85.86 193.346 85.3619 193.288 84.9101C193.199 84.2111 193.265 83.489 193.265 82.7785C193.265 82.6086 193.253 82.4387 193.241 82.207Z" fill="#0077B5" fill-opacity="0.45"/>
</svg>
