<svg width="1440" height="280" viewBox="0 0 1440 280" fill="none" xmlns="http://www.w3.org/2000/svg">
<rect width="1440" height="280" fill="#F4F4F4"/>
<line x1="272" y1="96.5" x2="1170" y2="96.4999" stroke="#C0C0C0" stroke-dasharray="5 5"/>
<path d="M420.544 95.6857L400.116 86.2574C399.791 86.1097 399.403 86.1977 399.177 86.4774C399.066 86.6128 399.004 86.7816 399 86.9565C398.997 87.1315 399.052 87.3025 399.158 87.4422L405.875 96.3991L399.158 105.356C398.941 105.644 398.949 106.043 399.175 106.321C399.327 106.511 399.555 106.613 399.786 106.613C399.898 106.613 400.009 106.59 400.115 106.541L420.543 97.1125C420.822 96.9837 421 96.7055 421 96.3991C421 96.0927 420.822 95.8146 420.544 95.6857Z" fill="#C0C0C0"/>
<path d="M1042.54 95.6857L1022.12 86.2574C1021.79 86.1097 1021.4 86.1977 1021.18 86.4774C1021.07 86.6128 1021 86.7816 1021 86.9565C1021 87.1315 1021.05 87.3025 1021.16 87.4422L1027.88 96.3991L1021.16 105.356C1020.94 105.644 1020.95 106.043 1021.17 106.321C1021.33 106.511 1021.56 106.613 1021.79 106.613C1021.9 106.613 1022.01 106.59 1022.11 106.541L1042.54 97.1125C1042.82 96.9837 1043 96.7055 1043 96.3991C1043 96.0927 1042.82 95.8146 1042.54 95.6857Z" fill="#C0C0C0"/>
<path d="M147.838 202.24H144.958C144.847 201.625 144.641 201.083 144.339 200.615C144.037 200.147 143.668 199.75 143.231 199.424C142.794 199.098 142.305 198.852 141.763 198.685C141.228 198.519 140.658 198.436 140.055 198.436C138.965 198.436 137.99 198.71 137.128 199.258C136.273 199.806 135.595 200.609 135.097 201.668C134.604 202.726 134.358 204.019 134.358 205.545C134.358 207.084 134.604 208.383 135.097 209.442C135.595 210.5 136.276 211.301 137.137 211.842C137.999 212.384 138.969 212.655 140.046 212.655C140.643 212.655 141.209 212.575 141.745 212.415C142.286 212.249 142.776 212.005 143.213 211.685C143.65 211.365 144.019 210.974 144.321 210.513C144.628 210.045 144.841 209.509 144.958 208.906L147.838 208.915C147.684 209.845 147.386 210.701 146.943 211.482C146.506 212.258 145.943 212.929 145.253 213.495C144.57 214.055 143.788 214.489 142.908 214.797C142.028 215.105 141.068 215.259 140.027 215.259C138.39 215.259 136.931 214.871 135.651 214.095C134.371 213.313 133.361 212.196 132.622 210.744C131.89 209.291 131.524 207.558 131.524 205.545C131.524 203.527 131.893 201.794 132.632 200.347C133.37 198.895 134.38 197.781 135.66 197.005C136.94 196.223 138.396 195.832 140.027 195.832C141.031 195.832 141.966 195.977 142.834 196.266C143.708 196.549 144.493 196.968 145.188 197.522C145.884 198.07 146.46 198.741 146.915 199.535C147.371 200.323 147.678 201.224 147.838 202.24ZM151.031 215V200.818H153.699V203.071H153.847C154.105 202.308 154.561 201.708 155.213 201.271C155.872 200.827 156.617 200.606 157.448 200.606C157.62 200.606 157.823 200.612 158.057 200.624C158.297 200.637 158.485 200.652 158.62 200.67V203.311C158.509 203.28 158.312 203.246 158.029 203.21C157.746 203.166 157.463 203.145 157.18 203.145C156.527 203.145 155.946 203.283 155.435 203.56C154.93 203.831 154.53 204.21 154.234 204.696C153.939 205.176 153.791 205.724 153.791 206.339V215H151.031ZM166.614 215.286C165.216 215.286 164.013 214.988 163.003 214.391C162 213.787 161.225 212.941 160.677 211.852C160.135 210.756 159.864 209.473 159.864 208.001C159.864 206.549 160.135 205.268 160.677 204.161C161.225 203.053 161.988 202.188 162.967 201.566C163.951 200.944 165.102 200.634 166.42 200.634C167.22 200.634 167.995 200.766 168.746 201.031C169.497 201.295 170.171 201.711 170.768 202.277C171.365 202.843 171.836 203.579 172.181 204.484C172.526 205.382 172.698 206.475 172.698 207.761V208.74H161.425V206.672H169.993C169.993 205.946 169.845 205.302 169.55 204.742C169.254 204.176 168.839 203.73 168.303 203.403C167.774 203.077 167.152 202.914 166.438 202.914C165.663 202.914 164.985 203.105 164.407 203.487C163.834 203.862 163.391 204.354 163.077 204.964C162.77 205.567 162.616 206.223 162.616 206.93V208.546C162.616 209.494 162.782 210.3 163.114 210.965C163.453 211.63 163.924 212.138 164.527 212.489C165.13 212.833 165.835 213.006 166.641 213.006C167.164 213.006 167.641 212.932 168.072 212.784C168.503 212.63 168.876 212.402 169.19 212.101C169.503 211.799 169.744 211.427 169.91 210.984L172.523 211.455C172.313 212.224 171.938 212.898 171.396 213.477C170.861 214.049 170.187 214.495 169.374 214.815C168.568 215.129 167.648 215.286 166.614 215.286ZM179.888 215.314C178.99 215.314 178.177 215.148 177.451 214.815C176.724 214.477 176.149 213.987 175.724 213.347C175.306 212.707 175.096 211.922 175.096 210.993C175.096 210.193 175.25 209.534 175.558 209.017C175.866 208.5 176.281 208.091 176.804 207.789C177.328 207.487 177.912 207.26 178.559 207.106C179.205 206.952 179.864 206.835 180.535 206.755C181.384 206.656 182.073 206.576 182.603 206.515C183.132 206.447 183.517 206.339 183.757 206.192C183.997 206.044 184.117 205.804 184.117 205.472V205.407C184.117 204.601 183.889 203.976 183.434 203.533C182.984 203.089 182.313 202.868 181.421 202.868C180.491 202.868 179.759 203.074 179.223 203.487C178.694 203.893 178.328 204.345 178.125 204.844L175.53 204.253C175.838 203.391 176.287 202.696 176.878 202.166C177.475 201.631 178.162 201.243 178.937 201.003C179.713 200.757 180.528 200.634 181.384 200.634C181.95 200.634 182.55 200.701 183.184 200.837C183.825 200.966 184.422 201.206 184.976 201.557C185.536 201.908 185.994 202.409 186.351 203.062C186.708 203.708 186.887 204.548 186.887 205.582V215H184.191V213.061H184.08C183.901 213.418 183.634 213.769 183.277 214.114C182.92 214.458 182.461 214.745 181.901 214.972C181.341 215.2 180.67 215.314 179.888 215.314ZM180.488 213.098C181.252 213.098 181.904 212.947 182.446 212.646C182.994 212.344 183.409 211.95 183.692 211.464C183.982 210.971 184.126 210.445 184.126 209.885V208.057C184.028 208.155 183.837 208.248 183.554 208.334C183.277 208.414 182.96 208.485 182.603 208.546C182.246 208.602 181.898 208.654 181.559 208.703C181.221 208.746 180.938 208.783 180.71 208.814C180.174 208.882 179.685 208.996 179.242 209.156C178.805 209.316 178.454 209.546 178.189 209.848C177.931 210.143 177.802 210.537 177.802 211.03C177.802 211.713 178.054 212.23 178.559 212.581C179.063 212.926 179.707 213.098 180.488 213.098ZM197.184 200.818V203.034H189.437V200.818H197.184ZM191.515 197.42H194.275V210.836C194.275 211.371 194.355 211.775 194.516 212.045C194.676 212.31 194.882 212.492 195.134 212.59C195.393 212.683 195.673 212.729 195.974 212.729C196.196 212.729 196.39 212.713 196.556 212.683C196.722 212.652 196.851 212.627 196.944 212.609L197.442 214.889C197.282 214.951 197.055 215.012 196.759 215.074C196.464 215.142 196.094 215.179 195.651 215.185C194.925 215.197 194.248 215.068 193.62 214.797C192.992 214.526 192.484 214.107 192.097 213.541C191.709 212.975 191.515 212.264 191.515 211.408V197.42ZM206.198 215.286C204.8 215.286 203.597 214.988 202.587 214.391C201.584 213.787 200.809 212.941 200.261 211.852C199.719 210.756 199.448 209.473 199.448 208.001C199.448 206.549 199.719 205.268 200.261 204.161C200.809 203.053 201.572 202.188 202.551 201.566C203.535 200.944 204.686 200.634 206.004 200.634C206.804 200.634 207.579 200.766 208.33 201.031C209.081 201.295 209.755 201.711 210.352 202.277C210.949 202.843 211.42 203.579 211.765 204.484C212.11 205.382 212.282 206.475 212.282 207.761V208.74H201.009V206.672H209.577C209.577 205.946 209.429 205.302 209.134 204.742C208.838 204.176 208.423 203.73 207.887 203.403C207.358 203.077 206.736 202.914 206.022 202.914C205.247 202.914 204.569 203.105 203.991 203.487C203.418 203.862 202.975 204.354 202.661 204.964C202.354 205.567 202.2 206.223 202.2 206.93V208.546C202.2 209.494 202.366 210.3 202.698 210.965C203.037 211.63 203.508 212.138 204.111 212.489C204.714 212.833 205.419 213.006 206.225 213.006C206.748 213.006 207.225 212.932 207.656 212.784C208.087 212.63 208.46 212.402 208.774 212.101C209.087 211.799 209.328 211.427 209.494 210.984L212.107 211.455C211.897 212.224 211.522 212.898 210.98 213.477C210.445 214.049 209.771 214.495 208.958 214.815C208.152 215.129 207.232 215.286 206.198 215.286ZM222.448 215V196.091H229.188C230.659 196.091 231.877 196.359 232.844 196.894C233.81 197.43 234.533 198.162 235.014 199.092C235.494 200.015 235.734 201.055 235.734 202.212C235.734 203.376 235.491 204.422 235.004 205.352C234.524 206.275 233.798 207.007 232.825 207.549C231.859 208.085 230.643 208.352 229.178 208.352H224.543V205.933H228.92C229.849 205.933 230.603 205.773 231.182 205.453C231.761 205.127 232.185 204.684 232.456 204.124C232.727 203.563 232.862 202.926 232.862 202.212C232.862 201.498 232.727 200.864 232.456 200.31C232.185 199.756 231.757 199.322 231.173 199.009C230.594 198.695 229.831 198.538 228.883 198.538H225.301V215H222.448ZM238.857 215V200.818H241.525V203.071H241.673C241.931 202.308 242.387 201.708 243.039 201.271C243.698 200.827 244.443 200.606 245.274 200.606C245.446 200.606 245.649 200.612 245.883 200.624C246.123 200.637 246.311 200.652 246.446 200.67V203.311C246.335 203.28 246.139 203.246 245.855 203.21C245.572 203.166 245.289 203.145 245.006 203.145C244.353 203.145 243.772 203.283 243.261 203.56C242.756 203.831 242.356 204.21 242.061 204.696C241.765 205.176 241.617 205.724 241.617 206.339V215H238.857ZM254.301 215.286C252.972 215.286 251.811 214.982 250.82 214.372C249.829 213.763 249.06 212.91 248.512 211.815C247.964 210.719 247.69 209.439 247.69 207.974C247.69 206.503 247.964 205.216 248.512 204.114C249.06 203.013 249.829 202.157 250.82 201.548C251.811 200.938 252.972 200.634 254.301 200.634C255.631 200.634 256.791 200.938 257.782 201.548C258.773 202.157 259.542 203.013 260.09 204.114C260.638 205.216 260.912 206.503 260.912 207.974C260.912 209.439 260.638 210.719 260.09 211.815C259.542 212.91 258.773 213.763 257.782 214.372C256.791 214.982 255.631 215.286 254.301 215.286ZM254.31 212.969C255.172 212.969 255.886 212.741 256.453 212.286C257.019 211.83 257.437 211.224 257.708 210.467C257.985 209.71 258.124 208.875 258.124 207.964C258.124 207.06 257.985 206.229 257.708 205.472C257.437 204.708 257.019 204.096 256.453 203.634C255.886 203.173 255.172 202.942 254.31 202.942C253.443 202.942 252.722 203.173 252.15 203.634C251.584 204.096 251.162 204.708 250.885 205.472C250.614 206.229 250.479 207.06 250.479 207.964C250.479 208.875 250.614 209.71 250.885 210.467C251.162 211.224 251.584 211.83 252.15 212.286C252.722 212.741 253.443 212.969 254.31 212.969ZM270.743 200.818V203.034H262.729V200.818H270.743ZM264.926 215V199.175C264.926 198.288 265.12 197.553 265.508 196.968C265.896 196.377 266.409 195.937 267.05 195.648C267.69 195.352 268.385 195.205 269.136 195.205C269.69 195.205 270.164 195.251 270.558 195.343C270.952 195.429 271.244 195.509 271.435 195.583L270.789 197.817C270.66 197.781 270.494 197.737 270.29 197.688C270.087 197.633 269.841 197.605 269.552 197.605C268.881 197.605 268.401 197.771 268.111 198.104C267.828 198.436 267.687 198.916 267.687 199.544V215H264.926ZM273.591 215V200.818H276.352V215H273.591ZM274.985 198.63C274.505 198.63 274.093 198.47 273.748 198.15C273.41 197.824 273.24 197.436 273.24 196.987C273.24 196.531 273.41 196.143 273.748 195.823C274.093 195.497 274.505 195.334 274.985 195.334C275.465 195.334 275.875 195.497 276.213 195.823C276.558 196.143 276.73 196.531 276.73 196.987C276.73 197.436 276.558 197.824 276.213 198.15C275.875 198.47 275.465 198.63 274.985 198.63ZM282.826 196.091V215H280.066V196.091H282.826ZM292.653 215.286C291.255 215.286 290.052 214.988 289.043 214.391C288.039 213.787 287.264 212.941 286.716 211.852C286.174 210.756 285.903 209.473 285.903 208.001C285.903 206.549 286.174 205.268 286.716 204.161C287.264 203.053 288.027 202.188 289.006 201.566C289.99 200.944 291.141 200.634 292.459 200.634C293.259 200.634 294.034 200.766 294.785 201.031C295.536 201.295 296.21 201.711 296.807 202.277C297.405 202.843 297.875 203.579 298.22 204.484C298.565 205.382 298.737 206.475 298.737 207.761V208.74H287.464V206.672H296.032C296.032 205.946 295.884 205.302 295.589 204.742C295.293 204.176 294.878 203.73 294.342 203.403C293.813 203.077 293.191 202.914 292.477 202.914C291.702 202.914 291.025 203.105 290.446 203.487C289.873 203.862 289.43 204.354 289.116 204.964C288.809 205.567 288.655 206.223 288.655 206.93V208.546C288.655 209.494 288.821 210.3 289.153 210.965C289.492 211.63 289.963 212.138 290.566 212.489C291.169 212.833 291.874 213.006 292.68 213.006C293.204 213.006 293.681 212.932 294.111 212.784C294.542 212.63 294.915 212.402 295.229 212.101C295.543 211.799 295.783 211.427 295.949 210.984L298.562 211.455C298.352 212.224 297.977 212.898 297.435 213.477C296.9 214.049 296.226 214.495 295.413 214.815C294.607 215.129 293.687 215.286 292.653 215.286Z" fill="#212427"/>
<circle cx="215.5" cy="97.5" r="67.5" fill="white"/>
<path d="M209.506 129.995C205.677 129.995 201.854 130.012 198.026 129.989C195.952 129.977 193.931 129.624 192.037 128.732C188.851 127.232 186.98 124.66 186.383 121.26C185.3 115.033 186.459 109.282 190.542 104.329C193.357 100.912 197.157 99.1802 201.484 98.6184C203.331 98.3751 205.22 98.3519 207.091 98.3345C211.151 98.294 215.211 98.2882 219.272 98.3172C223.506 98.3461 227.352 99.603 230.781 102.117C231.661 102.766 232.055 103.634 231.841 104.7C231.632 105.731 230.972 106.49 229.923 106.6C229.28 106.67 228.464 106.548 227.954 106.183C225.035 104.121 221.826 103.246 218.264 103.298C213.63 103.368 208.996 103.316 204.362 103.287C196.769 103.241 190.757 109.328 190.953 116.922C190.982 117.959 191.04 119.007 191.226 120.026C191.735 122.859 193.444 124.457 196.305 124.828C197.157 124.938 198.014 124.99 198.871 124.99C206.448 125.002 214.024 124.996 221.6 125.002C223.477 125.002 224.687 126.496 224.218 128.188C223.905 129.311 222.932 129.995 221.606 129.995C217.574 130.006 213.537 130.001 209.506 129.995C209.506 130.001 209.506 130.001 209.506 129.995Z" fill="#0077B5" fill-opacity="0.45"/>
<path d="M226.008 79.1395C226.089 86.8721 219.811 93.2146 211.962 93.3189C204.23 93.4231 197.76 87.0922 197.684 79.3539C197.603 71.5633 203.888 65.0819 211.591 65.0008C219.573 64.9197 225.921 71.1463 226.008 79.1395ZM221.01 79.1859C221.021 74.1119 216.92 70.0052 211.835 69.9995C206.859 69.9937 202.712 74.1003 202.677 79.0642C202.642 84.144 206.732 88.297 211.788 88.3144C216.909 88.3318 220.998 84.2772 221.01 79.1859Z" fill="#0077B5" fill-opacity="0.45"/>
<path d="M233.862 123.31C232.408 123.31 231.012 123.339 229.617 123.299C228.464 123.27 227.502 122.407 227.305 121.335C227.097 120.188 227.612 119.065 228.649 118.613C229.089 118.422 229.599 118.346 230.086 118.329C231.325 118.288 232.571 118.317 233.909 118.317C233.909 116.922 233.891 115.601 233.914 114.286C233.943 112.832 234.887 111.784 236.196 111.691C237.673 111.587 238.849 112.606 238.89 114.083C238.93 115.456 238.896 116.829 238.896 118.317C239.585 118.317 240.199 118.312 240.813 118.317C241.722 118.335 242.643 118.277 243.535 118.404C244.815 118.584 245.678 119.777 245.568 121.04C245.464 122.274 244.462 123.258 243.193 123.299C242.076 123.339 240.958 123.31 239.84 123.316C239.562 123.316 239.284 123.316 238.89 123.316C238.89 124.799 238.907 126.195 238.884 127.591C238.867 128.668 238.287 129.41 237.32 129.815C236.364 130.215 235.397 130.064 234.743 129.299C234.308 128.79 234.019 128.043 233.932 127.365C233.798 126.316 233.897 125.233 233.897 124.168C233.897 123.913 233.88 123.658 233.862 123.31Z" fill="#0077B5" fill-opacity="0.45"/>
<path d="M599.239 202.24H596.358C596.247 201.625 596.041 201.083 595.739 200.615C595.438 200.147 595.069 199.75 594.631 199.424C594.194 199.098 593.705 198.852 593.163 198.685C592.628 198.519 592.059 198.436 591.455 198.436C590.366 198.436 589.39 198.71 588.528 199.258C587.673 199.806 586.996 200.609 586.497 201.668C586.005 202.726 585.759 204.019 585.759 205.545C585.759 207.084 586.005 208.383 586.497 209.442C586.996 210.5 587.676 211.301 588.538 211.842C589.399 212.384 590.369 212.655 591.446 212.655C592.043 212.655 592.609 212.575 593.145 212.415C593.687 212.249 594.176 212.005 594.613 211.685C595.05 211.365 595.419 210.974 595.721 210.513C596.029 210.045 596.241 209.509 596.358 208.906L599.239 208.915C599.085 209.845 598.786 210.701 598.343 211.482C597.906 212.258 597.343 212.929 596.653 213.495C595.97 214.055 595.189 214.489 594.308 214.797C593.428 215.105 592.468 215.259 591.428 215.259C589.79 215.259 588.332 214.871 587.051 214.095C585.771 213.313 584.761 212.196 584.023 210.744C583.29 209.291 582.924 207.558 582.924 205.545C582.924 203.527 583.293 201.794 584.032 200.347C584.771 198.895 585.78 197.781 587.06 197.005C588.341 196.223 589.796 195.832 591.428 195.832C592.431 195.832 593.367 195.977 594.234 196.266C595.109 196.549 595.893 196.968 596.589 197.522C597.284 198.07 597.86 198.741 598.315 199.535C598.771 200.323 599.079 201.224 599.239 202.24ZM605.192 206.58V215H602.431V196.091H605.155V203.126H605.33C605.663 202.363 606.17 201.757 606.854 201.308C607.537 200.858 608.429 200.634 609.531 200.634C610.504 200.634 611.353 200.834 612.079 201.234C612.812 201.634 613.378 202.231 613.778 203.025C614.185 203.813 614.388 204.798 614.388 205.979V215H611.627V206.312C611.627 205.272 611.359 204.465 610.824 203.893C610.288 203.314 609.543 203.025 608.589 203.025C607.937 203.025 607.352 203.163 606.835 203.44C606.324 203.717 605.921 204.124 605.626 204.659C605.336 205.188 605.192 205.829 605.192 206.58ZM622.199 215.314C621.3 215.314 620.488 215.148 619.761 214.815C619.035 214.477 618.459 213.987 618.035 213.347C617.616 212.707 617.407 211.922 617.407 210.993C617.407 210.193 617.561 209.534 617.869 209.017C618.176 208.5 618.592 208.091 619.115 207.789C619.638 207.487 620.223 207.26 620.869 207.106C621.516 206.952 622.174 206.835 622.845 206.755C623.695 206.656 624.384 206.576 624.913 206.515C625.443 206.447 625.827 206.339 626.067 206.192C626.307 206.044 626.427 205.804 626.427 205.472V205.407C626.427 204.601 626.2 203.976 625.744 203.533C625.295 203.089 624.624 202.868 623.731 202.868C622.802 202.868 622.07 203.074 621.534 203.487C621.005 203.893 620.638 204.345 620.435 204.844L617.841 204.253C618.149 203.391 618.598 202.696 619.189 202.166C619.786 201.631 620.472 201.243 621.248 201.003C622.023 200.757 622.839 200.634 623.695 200.634C624.261 200.634 624.861 200.701 625.495 200.837C626.135 200.966 626.732 201.206 627.286 201.557C627.846 201.908 628.305 202.409 628.662 203.062C629.019 203.708 629.197 204.548 629.197 205.582V215H626.501V213.061H626.391C626.212 213.418 625.944 213.769 625.587 214.114C625.23 214.458 624.772 214.745 624.212 214.972C623.651 215.2 622.98 215.314 622.199 215.314ZM622.799 213.098C623.562 213.098 624.215 212.947 624.756 212.646C625.304 212.344 625.72 211.95 626.003 211.464C626.292 210.971 626.437 210.445 626.437 209.885V208.057C626.338 208.155 626.147 208.248 625.864 208.334C625.587 208.414 625.27 208.485 624.913 208.546C624.556 208.602 624.208 208.654 623.87 208.703C623.531 208.746 623.248 208.783 623.021 208.814C622.485 208.882 621.996 208.996 621.552 209.156C621.115 209.316 620.765 209.546 620.5 209.848C620.241 210.143 620.112 210.537 620.112 211.03C620.112 211.713 620.364 212.23 620.869 212.581C621.374 212.926 622.017 213.098 622.799 213.098ZM639.494 200.818V203.034H631.748V200.818H639.494ZM633.825 197.42H636.586V210.836C636.586 211.371 636.666 211.775 636.826 212.045C636.986 212.31 637.192 212.492 637.445 212.59C637.703 212.683 637.983 212.729 638.285 212.729C638.506 212.729 638.7 212.713 638.867 212.683C639.033 212.652 639.162 212.627 639.254 212.609L639.753 214.889C639.593 214.951 639.365 215.012 639.07 215.074C638.774 215.142 638.405 215.179 637.962 215.185C637.235 215.197 636.558 215.068 635.93 214.797C635.303 214.526 634.795 214.107 634.407 213.541C634.019 212.975 633.825 212.264 633.825 211.408V197.42ZM655.772 215H649.651V196.091H655.966C657.819 196.091 659.41 196.469 660.739 197.227C662.069 197.978 663.088 199.058 663.796 200.467C664.51 201.871 664.867 203.554 664.867 205.518C664.867 207.487 664.506 209.18 663.786 210.596C663.072 212.012 662.038 213.101 660.684 213.864C659.33 214.621 657.693 215 655.772 215ZM652.504 212.507H655.615C657.055 212.507 658.253 212.236 659.207 211.695C660.161 211.147 660.875 210.356 661.349 209.322C661.823 208.281 662.06 207.013 662.06 205.518C662.06 204.034 661.823 202.776 661.349 201.741C660.881 200.707 660.182 199.923 659.253 199.387C658.323 198.852 657.169 198.584 655.791 198.584H652.504V212.507ZM668.193 215V200.818H670.953V215H668.193ZM669.587 198.63C669.107 198.63 668.694 198.47 668.35 198.15C668.011 197.824 667.842 197.436 667.842 196.987C667.842 196.531 668.011 196.143 668.35 195.823C668.694 195.497 669.107 195.334 669.587 195.334C670.067 195.334 670.476 195.497 670.815 195.823C671.16 196.143 671.332 196.531 671.332 196.987C671.332 197.436 671.16 197.824 670.815 198.15C670.476 198.47 670.067 198.63 669.587 198.63ZM674.667 215V200.818H677.336V203.071H677.483C677.742 202.308 678.197 201.708 678.85 201.271C679.508 200.827 680.253 200.606 681.084 200.606C681.257 200.606 681.46 200.612 681.694 200.624C681.934 200.637 682.121 200.652 682.257 200.67V203.311C682.146 203.28 681.949 203.246 681.666 203.21C681.383 203.166 681.1 203.145 680.816 203.145C680.164 203.145 679.582 203.283 679.071 203.56C678.567 203.831 678.167 204.21 677.871 204.696C677.576 205.176 677.428 205.724 677.428 206.339V215H674.667ZM690.25 215.286C688.853 215.286 687.65 214.988 686.64 214.391C685.637 213.787 684.861 212.941 684.313 211.852C683.772 210.756 683.501 209.473 683.501 208.001C683.501 206.549 683.772 205.268 684.313 204.161C684.861 203.053 685.625 202.188 686.603 201.566C687.588 200.944 688.739 200.634 690.056 200.634C690.857 200.634 691.632 200.766 692.383 201.031C693.134 201.295 693.808 201.711 694.405 202.277C695.002 202.843 695.473 203.579 695.818 204.484C696.162 205.382 696.335 206.475 696.335 207.761V208.74H685.061V206.672H693.63C693.63 205.946 693.482 205.302 693.186 204.742C692.891 204.176 692.475 203.73 691.94 203.403C691.411 203.077 690.789 202.914 690.075 202.914C689.299 202.914 688.622 203.105 688.044 203.487C687.471 203.862 687.028 204.354 686.714 204.964C686.406 205.567 686.252 206.223 686.252 206.93V208.546C686.252 209.494 686.419 210.3 686.751 210.965C687.09 211.63 687.56 212.138 688.164 212.489C688.767 212.833 689.472 213.006 690.278 213.006C690.801 213.006 691.278 212.932 691.709 212.784C692.14 212.63 692.512 212.402 692.826 212.101C693.14 211.799 693.38 211.427 693.546 210.984L696.159 211.455C695.95 212.224 695.575 212.898 695.033 213.477C694.497 214.049 693.823 214.495 693.011 214.815C692.205 215.129 691.284 215.286 690.25 215.286ZM705.372 215.286C703.999 215.286 702.817 214.975 701.826 214.354C700.841 213.726 700.084 212.861 699.555 211.759C699.025 210.657 698.761 209.396 698.761 207.974C698.761 206.533 699.032 205.262 699.573 204.161C700.115 203.053 700.878 202.188 701.863 201.566C702.848 200.944 704.008 200.634 705.344 200.634C706.421 200.634 707.381 200.834 708.225 201.234C709.068 201.628 709.748 202.182 710.265 202.896C710.788 203.61 711.099 204.444 711.198 205.398H708.511C708.363 204.733 708.024 204.161 707.495 203.68C706.972 203.2 706.27 202.96 705.39 202.96C704.621 202.96 703.947 203.163 703.368 203.57C702.796 203.97 702.349 204.542 702.029 205.287C701.709 206.026 701.549 206.9 701.549 207.909C701.549 208.943 701.706 209.836 702.02 210.587C702.334 211.338 702.777 211.919 703.35 212.332C703.928 212.744 704.608 212.95 705.39 212.95C705.913 212.95 706.387 212.855 706.812 212.664C707.243 212.467 707.603 212.187 707.892 211.824C708.188 211.461 708.394 211.024 708.511 210.513H711.198C711.099 211.43 710.801 212.249 710.302 212.969C709.803 213.689 709.136 214.255 708.298 214.668C707.467 215.08 706.492 215.286 705.372 215.286ZM720.77 200.818V203.034H713.023V200.818H720.77ZM715.101 197.42H717.861V210.836C717.861 211.371 717.941 211.775 718.101 212.045C718.262 212.31 718.468 212.492 718.72 212.59C718.979 212.683 719.259 212.729 719.56 212.729C719.782 212.729 719.976 212.713 720.142 212.683C720.308 212.652 720.437 212.627 720.53 212.609L721.028 214.889C720.868 214.951 720.641 215.012 720.345 215.074C720.05 215.142 719.68 215.179 719.237 215.185C718.511 215.197 717.834 215.068 717.206 214.797C716.578 214.526 716.07 214.107 715.682 213.541C715.295 212.975 715.101 212.264 715.101 211.408V197.42ZM726.889 196.091V215H724.128V196.091H726.889ZM732.348 220.318C731.936 220.318 731.56 220.284 731.222 220.217C730.883 220.155 730.631 220.087 730.464 220.013L731.129 217.751C731.634 217.887 732.083 217.945 732.477 217.927C732.871 217.908 733.219 217.761 733.521 217.484C733.828 217.207 734.099 216.754 734.333 216.126L734.675 215.185L729.486 200.818H732.44L736.032 211.824H736.18L739.771 200.818H742.735L736.891 216.893C736.62 217.631 736.275 218.256 735.856 218.767C735.438 219.284 734.939 219.672 734.361 219.93C733.782 220.189 733.111 220.318 732.348 220.318ZM755.285 215L751.112 200.818H753.965L756.744 211.233H756.882L759.671 200.818H762.524L765.293 211.187H765.432L768.193 200.818H771.046L766.881 215H764.065L761.185 204.761H760.972L758.092 215H755.285ZM773.665 215V200.818H776.426V215H773.665ZM775.06 198.63C774.579 198.63 774.167 198.47 773.822 198.15C773.484 197.824 773.315 197.436 773.315 196.987C773.315 196.531 773.484 196.143 773.822 195.823C774.167 195.497 774.579 195.334 775.06 195.334C775.54 195.334 775.949 195.497 776.288 195.823C776.632 196.143 776.805 196.531 776.805 196.987C776.805 197.436 776.632 197.824 776.288 198.15C775.949 198.47 775.54 198.63 775.06 198.63ZM786.76 200.818V203.034H779.014V200.818H786.76ZM781.091 197.42H783.852V210.836C783.852 211.371 783.932 211.775 784.092 212.045C784.252 212.31 784.458 212.492 784.71 212.59C784.969 212.683 785.249 212.729 785.551 212.729C785.772 212.729 785.966 212.713 786.132 212.683C786.298 212.652 786.428 212.627 786.52 212.609L787.019 214.889C786.859 214.951 786.631 215.012 786.335 215.074C786.04 215.142 785.671 215.179 785.227 215.185C784.501 215.197 783.824 215.068 783.196 214.797C782.568 214.526 782.06 214.107 781.673 213.541C781.285 212.975 781.091 212.264 781.091 211.408V197.42ZM792.879 206.58V215H790.119V196.091H792.842V203.126H793.018C793.35 202.363 793.858 201.757 794.541 201.308C795.224 200.858 796.117 200.634 797.219 200.634C798.191 200.634 799.041 200.834 799.767 201.234C800.499 201.634 801.066 202.231 801.466 203.025C801.872 203.813 802.075 204.798 802.075 205.979V215H799.315V206.312C799.315 205.272 799.047 204.465 798.511 203.893C797.976 203.314 797.231 203.025 796.277 203.025C795.624 203.025 795.04 203.163 794.523 203.44C794.012 203.717 793.609 204.124 793.313 204.659C793.024 205.188 792.879 205.829 792.879 206.58ZM819.26 200.818V203.034H811.514V200.818H819.26ZM813.591 197.42H816.352V210.836C816.352 211.371 816.432 211.775 816.592 212.045C816.752 212.31 816.958 212.492 817.21 212.59C817.469 212.683 817.749 212.729 818.051 212.729C818.272 212.729 818.466 212.713 818.632 212.683C818.798 212.652 818.928 212.627 819.02 212.609L819.519 214.889C819.359 214.951 819.131 215.012 818.835 215.074C818.54 215.142 818.171 215.179 817.727 215.185C817.001 215.197 816.324 215.068 815.696 214.797C815.068 214.526 814.56 214.107 814.173 213.541C813.785 212.975 813.591 212.264 813.591 211.408V197.42ZM825.379 206.58V215H822.619V196.091H825.342V203.126H825.518C825.85 202.363 826.358 201.757 827.041 201.308C827.724 200.858 828.617 200.634 829.719 200.634C830.691 200.634 831.541 200.834 832.267 201.234C832.999 201.634 833.566 202.231 833.966 203.025C834.372 203.813 834.575 204.798 834.575 205.979V215H831.815V206.312C831.815 205.272 831.547 204.465 831.011 203.893C830.476 203.314 829.731 203.025 828.777 203.025C828.124 203.025 827.54 203.163 827.023 203.44C826.512 203.717 826.109 204.124 825.813 204.659C825.524 205.188 825.379 205.829 825.379 206.58ZM844.371 215.286C842.974 215.286 841.771 214.988 840.761 214.391C839.758 213.787 838.982 212.941 838.435 211.852C837.893 210.756 837.622 209.473 837.622 208.001C837.622 206.549 837.893 205.268 838.435 204.161C838.982 203.053 839.746 202.188 840.724 201.566C841.709 200.944 842.86 200.634 844.177 200.634C844.978 200.634 845.753 200.766 846.504 201.031C847.255 201.295 847.929 201.711 848.526 202.277C849.123 202.843 849.594 203.579 849.939 204.484C850.284 205.382 850.456 206.475 850.456 207.761V208.74H839.182V206.672H847.751C847.751 205.946 847.603 205.302 847.307 204.742C847.012 204.176 846.597 203.73 846.061 203.403C845.532 203.077 844.91 202.914 844.196 202.914C843.42 202.914 842.743 203.105 842.165 203.487C841.592 203.862 841.149 204.354 840.835 204.964C840.527 205.567 840.373 206.223 840.373 206.93V208.546C840.373 209.494 840.54 210.3 840.872 210.965C841.211 211.63 841.681 212.138 842.285 212.489C842.888 212.833 843.593 213.006 844.399 213.006C844.922 213.006 845.399 212.932 845.83 212.784C846.261 212.63 846.633 212.402 846.947 212.101C847.261 211.799 847.501 211.427 847.668 210.984L850.28 211.455C850.071 212.224 849.696 212.898 849.154 213.477C848.619 214.049 847.945 214.495 847.132 214.815C846.326 215.129 845.405 215.286 844.371 215.286ZM658.474 246V227.091H665.214C666.679 227.091 667.895 227.343 668.861 227.848C669.834 228.353 670.56 229.051 671.04 229.944C671.52 230.83 671.76 231.855 671.76 233.018C671.76 234.176 671.517 235.194 671.031 236.075C670.551 236.949 669.824 237.629 668.852 238.115C667.885 238.601 666.67 238.844 665.205 238.844H660.099V236.388H664.946C665.869 236.388 666.62 236.256 667.199 235.991C667.784 235.727 668.212 235.342 668.482 234.837C668.753 234.333 668.889 233.726 668.889 233.018C668.889 232.304 668.75 231.686 668.473 231.163C668.202 230.639 667.775 230.239 667.19 229.962C666.611 229.679 665.851 229.538 664.909 229.538H661.327V246H658.474ZM667.808 237.469L672.48 246H669.23L664.651 237.469H667.808ZM680.945 246.286C679.547 246.286 678.344 245.988 677.335 245.391C676.331 244.787 675.556 243.941 675.008 242.852C674.466 241.756 674.195 240.473 674.195 239.001C674.195 237.549 674.466 236.268 675.008 235.161C675.556 234.053 676.319 233.188 677.298 232.566C678.282 231.944 679.433 231.634 680.751 231.634C681.551 231.634 682.326 231.766 683.077 232.031C683.828 232.295 684.502 232.711 685.099 233.277C685.696 233.843 686.167 234.579 686.512 235.484C686.857 236.382 687.029 237.475 687.029 238.761V239.74H675.756V237.672H684.324C684.324 236.946 684.176 236.302 683.881 235.742C683.585 235.176 683.17 234.73 682.634 234.403C682.105 234.077 681.483 233.914 680.769 233.914C679.994 233.914 679.317 234.105 678.738 234.487C678.165 234.862 677.722 235.354 677.408 235.964C677.101 236.567 676.947 237.223 676.947 237.93V239.546C676.947 240.494 677.113 241.3 677.445 241.965C677.784 242.63 678.255 243.138 678.858 243.489C679.461 243.833 680.166 244.006 680.972 244.006C681.496 244.006 681.973 243.932 682.403 243.784C682.834 243.63 683.207 243.402 683.521 243.101C683.835 242.799 684.075 242.427 684.241 241.984L686.854 242.455C686.644 243.224 686.269 243.898 685.727 244.477C685.192 245.049 684.518 245.495 683.705 245.815C682.899 246.129 681.979 246.286 680.945 246.286ZM696.066 246.286C694.693 246.286 693.511 245.975 692.52 245.354C691.536 244.726 690.778 243.861 690.249 242.759C689.72 241.657 689.455 240.396 689.455 238.974C689.455 237.533 689.726 236.262 690.268 235.161C690.809 234.053 691.573 233.188 692.557 232.566C693.542 231.944 694.702 231.634 696.038 231.634C697.115 231.634 698.076 231.834 698.919 232.234C699.762 232.628 700.442 233.182 700.959 233.896C701.483 234.61 701.793 235.444 701.892 236.398H699.205C699.057 235.733 698.719 235.161 698.189 234.68C697.666 234.2 696.965 233.96 696.084 233.96C695.315 233.96 694.641 234.163 694.062 234.57C693.49 234.97 693.044 235.542 692.724 236.287C692.403 237.026 692.243 237.9 692.243 238.909C692.243 239.943 692.4 240.836 692.714 241.587C693.028 242.338 693.471 242.919 694.044 243.332C694.622 243.744 695.303 243.95 696.084 243.95C696.608 243.95 697.081 243.855 697.506 243.664C697.937 243.467 698.297 243.187 698.586 242.824C698.882 242.461 699.088 242.024 699.205 241.513H701.892C701.793 242.43 701.495 243.249 700.996 243.969C700.498 244.689 699.83 245.255 698.993 245.668C698.162 246.08 697.186 246.286 696.066 246.286ZM704.844 246V231.818H707.512V234.071H707.66C707.919 233.308 708.374 232.708 709.027 232.271C709.685 231.827 710.43 231.606 711.261 231.606C711.433 231.606 711.636 231.612 711.87 231.624C712.11 231.637 712.298 231.652 712.434 231.67V234.311C712.323 234.28 712.126 234.246 711.843 234.21C711.56 234.166 711.276 234.145 710.993 234.145C710.341 234.145 709.759 234.283 709.248 234.56C708.743 234.831 708.343 235.21 708.048 235.696C707.752 236.176 707.605 236.724 707.605 237.339V246H704.844ZM723.806 240.119V231.818H726.576V246H723.862V243.544H723.714C723.388 244.301 722.865 244.932 722.144 245.437C721.43 245.935 720.541 246.185 719.476 246.185C718.565 246.185 717.759 245.985 717.057 245.585C716.361 245.178 715.814 244.578 715.414 243.784C715.02 242.99 714.823 242.008 714.823 240.839V231.818H717.583V240.506C717.583 241.473 717.851 242.242 718.387 242.815C718.922 243.387 719.618 243.673 720.473 243.673C720.99 243.673 721.504 243.544 722.015 243.286C722.532 243.027 722.96 242.636 723.298 242.113C723.643 241.59 723.812 240.925 723.806 240.119ZM730.286 246V231.818H733.046V246H730.286ZM731.68 229.63C731.2 229.63 730.787 229.47 730.442 229.15C730.104 228.824 729.935 228.436 729.935 227.987C729.935 227.531 730.104 227.143 730.442 226.823C730.787 226.497 731.2 226.334 731.68 226.334C732.16 226.334 732.569 226.497 732.908 226.823C733.252 227.143 733.425 227.531 733.425 227.987C733.425 228.436 733.252 228.824 732.908 229.15C732.569 229.47 732.16 229.63 731.68 229.63ZM743.38 231.818V234.034H735.634V231.818H743.38ZM737.711 228.42H740.472V241.836C740.472 242.371 740.552 242.775 740.712 243.045C740.872 243.31 741.078 243.492 741.33 243.59C741.589 243.683 741.869 243.729 742.171 243.729C742.392 243.729 742.586 243.713 742.752 243.683C742.919 243.652 743.048 243.627 743.14 243.609L743.639 245.889C743.479 245.951 743.251 246.012 742.955 246.074C742.66 246.142 742.291 246.179 741.847 246.185C741.121 246.197 740.444 246.068 739.816 245.797C739.188 245.526 738.681 245.107 738.293 244.541C737.905 243.975 737.711 243.264 737.711 242.408V228.42ZM752.394 246.286C750.997 246.286 749.793 245.988 748.784 245.391C747.78 244.787 747.005 243.941 746.457 242.852C745.915 241.756 745.645 240.473 745.645 239.001C745.645 237.549 745.915 236.268 746.457 235.161C747.005 234.053 747.768 233.188 748.747 232.566C749.732 231.944 750.883 231.634 752.2 231.634C753 231.634 753.776 231.766 754.527 232.031C755.278 232.295 755.952 232.711 756.549 233.277C757.146 233.843 757.617 234.579 757.961 235.484C758.306 236.382 758.478 237.475 758.478 238.761V239.74H747.205V237.672H755.773C755.773 236.946 755.625 236.302 755.33 235.742C755.034 235.176 754.619 234.73 754.083 234.403C753.554 234.077 752.932 233.914 752.218 233.914C751.443 233.914 750.766 234.105 750.187 234.487C749.615 234.862 749.172 235.354 748.858 235.964C748.55 236.567 748.396 237.223 748.396 237.93V239.546C748.396 240.494 748.562 241.3 748.895 241.965C749.233 242.63 749.704 243.138 750.307 243.489C750.91 243.833 751.615 244.006 752.422 244.006C752.945 244.006 753.422 243.932 753.853 243.784C754.283 243.63 754.656 243.402 754.97 243.101C755.284 242.799 755.524 242.427 755.69 241.984L758.303 242.455C758.094 243.224 757.718 243.898 757.176 244.477C756.641 245.049 755.967 245.495 755.154 245.815C754.348 246.129 753.428 246.286 752.394 246.286ZM761.541 246V231.818H764.21V234.071H764.357C764.616 233.308 765.071 232.708 765.724 232.271C766.383 231.827 767.127 231.606 767.958 231.606C768.131 231.606 768.334 231.612 768.568 231.624C768.808 231.637 768.995 231.652 769.131 231.67V234.311C769.02 234.28 768.823 234.246 768.54 234.21C768.257 234.166 767.974 234.145 767.691 234.145C767.038 234.145 766.456 234.283 765.945 234.56C765.441 234.831 765.041 235.21 764.745 235.696C764.45 236.176 764.302 236.724 764.302 237.339V246H761.541ZM782.147 235.281L779.645 235.724C779.54 235.404 779.374 235.099 779.146 234.81C778.925 234.52 778.623 234.283 778.241 234.099C777.86 233.914 777.383 233.822 776.81 233.822C776.029 233.822 775.376 233.997 774.853 234.348C774.33 234.693 774.068 235.139 774.068 235.687C774.068 236.161 774.244 236.542 774.594 236.832C774.945 237.121 775.512 237.358 776.293 237.543L778.546 238.06C779.851 238.361 780.824 238.826 781.464 239.454C782.104 240.082 782.424 240.897 782.424 241.901C782.424 242.75 782.178 243.507 781.685 244.172C781.199 244.83 780.519 245.348 779.645 245.723C778.777 246.098 777.771 246.286 776.626 246.286C775.038 246.286 773.742 245.948 772.739 245.271C771.735 244.587 771.12 243.618 770.892 242.362L773.56 241.956C773.727 242.652 774.068 243.178 774.585 243.535C775.102 243.886 775.776 244.061 776.607 244.061C777.512 244.061 778.235 243.873 778.777 243.498C779.319 243.116 779.589 242.652 779.589 242.104C779.589 241.661 779.423 241.288 779.091 240.987C778.765 240.685 778.263 240.457 777.586 240.303L775.185 239.777C773.862 239.475 772.883 238.995 772.249 238.337C771.621 237.678 771.308 236.844 771.308 235.835C771.308 234.997 771.541 234.265 772.009 233.637C772.477 233.009 773.123 232.52 773.948 232.169C774.773 231.812 775.718 231.634 776.783 231.634C778.315 231.634 779.522 231.966 780.402 232.631C781.282 233.289 781.864 234.173 782.147 235.281Z" fill="#212427"/>
<circle cx="720.5" cy="97.5" r="67.5" fill="white"/>
<path d="M698.263 117.478C696.211 117.478 694.227 117.478 692.242 117.478C688.953 117.478 687 115.53 687 112.254C687 98.246 687 84.2317 687 70.2237C687 66.9473 688.953 65 692.242 65C711.023 65 729.809 65 748.59 65C751.829 65 753.795 66.9535 753.795 70.1866C753.795 84.2194 753.795 98.2583 753.795 112.291C753.795 115.518 751.829 117.478 748.584 117.478C740.312 117.478 732.035 117.484 723.763 117.465C723.09 117.465 722.539 117.626 721.977 118.009C716.586 121.694 711.183 125.353 705.78 129.032C704.575 129.854 703.277 130.2 701.83 129.885C699.741 129.427 698.189 127.622 698.171 125.483C698.152 123.221 698.226 120.964 698.257 118.702C698.27 118.331 698.263 117.96 698.263 117.478ZM691.809 112.705C693.874 112.705 695.908 112.705 697.936 112.705C701.119 112.711 703.128 114.782 703.06 117.978C703.017 120.111 702.98 122.25 702.943 124.383C702.937 124.587 702.974 124.785 702.992 125.057C703.209 124.927 703.332 124.853 703.456 124.772C708.865 121.113 714.274 117.459 719.671 113.781C720.734 113.051 721.859 112.693 723.158 112.699C731.478 112.718 739.805 112.711 748.126 112.711C748.417 112.711 748.701 112.711 748.985 112.711C748.985 98.3511 748.985 84.0834 748.985 69.8342C729.89 69.8342 710.85 69.8342 691.822 69.8342C691.809 84.1328 691.809 98.382 691.809 112.705Z" fill="#0077B5" fill-opacity="0.45"/>
<path d="M720.437 79.3108C725.927 79.3108 731.422 79.3046 736.912 79.3108C738.748 79.3108 739.947 80.8933 739.329 82.5068C738.97 83.4526 738.253 83.9657 737.246 84.0646C736.998 84.0894 736.751 84.0708 736.498 84.0708C725.741 84.0708 714.979 84.0708 704.222 84.0708C703.876 84.0708 703.518 84.0832 703.184 84.009C701.978 83.7432 701.181 82.6057 701.323 81.4064C701.465 80.2072 702.46 79.3108 703.734 79.3046C707.882 79.2922 712.03 79.2984 716.184 79.2984C717.6 79.3108 719.022 79.3108 720.437 79.3108Z" fill="#0077B5" fill-opacity="0.45"/>
<path d="M716.809 98.3945C712.488 98.3945 708.161 98.4007 703.84 98.3883C702.022 98.3822 700.854 96.7501 701.478 95.1429C701.837 94.2156 702.684 93.6407 703.747 93.6283C705.286 93.6159 706.826 93.6221 708.371 93.6221C715.505 93.6221 722.633 93.616 729.766 93.6221C731.621 93.6221 732.839 95.2912 732.146 96.8985C731.714 97.9123 730.892 98.3883 729.785 98.3883C725.458 98.3883 721.137 98.3945 716.809 98.3945Z" fill="#0077B5" fill-opacity="0.45"/>
<path d="M1124.06 202.065C1123.88 201.504 1123.64 201.003 1123.34 200.56C1123.04 200.11 1122.69 199.729 1122.28 199.415C1121.87 199.095 1121.39 198.852 1120.87 198.685C1120.34 198.519 1119.77 198.436 1119.14 198.436C1118.07 198.436 1117.11 198.71 1116.26 199.258C1115.4 199.806 1114.73 200.609 1114.23 201.668C1113.73 202.72 1113.49 204.01 1113.49 205.536C1113.49 207.069 1113.74 208.365 1114.24 209.423C1114.73 210.482 1115.42 211.285 1116.29 211.833C1117.15 212.381 1118.14 212.655 1119.25 212.655C1120.28 212.655 1121.17 212.446 1121.94 212.027C1122.71 211.608 1123.3 211.018 1123.72 210.254C1124.14 209.485 1124.36 208.58 1124.36 207.54L1125.09 207.678H1119.68V205.324H1127.12V207.475C1127.12 209.063 1126.78 210.442 1126.1 211.612C1125.43 212.775 1124.5 213.674 1123.31 214.308C1122.13 214.942 1120.78 215.259 1119.25 215.259C1117.54 215.259 1116.04 214.865 1114.74 214.077C1113.46 213.289 1112.45 212.172 1111.73 210.725C1111.01 209.272 1110.65 207.549 1110.65 205.555C1110.65 204.047 1110.86 202.692 1111.28 201.492C1111.7 200.292 1112.29 199.273 1113.04 198.436C1113.81 197.593 1114.7 196.95 1115.73 196.506C1116.77 196.057 1117.9 195.832 1119.12 195.832C1120.14 195.832 1121.09 195.983 1121.97 196.285C1122.86 196.586 1123.65 197.014 1124.34 197.568C1125.03 198.122 1125.61 198.781 1126.06 199.544C1126.52 200.301 1126.83 201.141 1126.99 202.065H1124.06ZM1136.63 215.286C1135.23 215.286 1134.03 214.988 1133.02 214.391C1132.01 213.787 1131.24 212.941 1130.69 211.852C1130.15 210.756 1129.88 209.473 1129.88 208.001C1129.88 206.549 1130.15 205.268 1130.69 204.161C1131.24 203.053 1132 202.188 1132.98 201.566C1133.97 200.944 1135.12 200.634 1136.43 200.634C1137.23 200.634 1138.01 200.766 1138.76 201.031C1139.51 201.295 1140.19 201.711 1140.78 202.277C1141.38 202.843 1141.85 203.579 1142.2 204.484C1142.54 205.382 1142.71 206.475 1142.71 207.761V208.74H1131.44V206.672H1140.01C1140.01 205.946 1139.86 205.302 1139.56 204.742C1139.27 204.176 1138.85 203.73 1138.32 203.403C1137.79 203.077 1137.17 202.914 1136.45 202.914C1135.68 202.914 1135 203.105 1134.42 203.487C1133.85 203.862 1133.41 204.354 1133.09 204.964C1132.78 205.567 1132.63 206.223 1132.63 206.93V208.546C1132.63 209.494 1132.8 210.3 1133.13 210.965C1133.47 211.63 1133.94 212.138 1134.54 212.489C1135.14 212.833 1135.85 213.006 1136.66 213.006C1137.18 213.006 1137.66 212.932 1138.09 212.784C1138.52 212.63 1138.89 212.402 1139.2 212.101C1139.52 211.799 1139.76 211.427 1139.92 210.984L1142.54 211.455C1142.33 212.224 1141.95 212.898 1141.41 213.477C1140.88 214.049 1140.2 214.495 1139.39 214.815C1138.58 215.129 1137.66 215.286 1136.63 215.286ZM1152.4 200.818V203.034H1144.65V200.818H1152.4ZM1146.73 197.42H1149.49V210.836C1149.49 211.371 1149.57 211.775 1149.73 212.045C1149.89 212.31 1150.09 212.492 1150.35 212.59C1150.6 212.683 1150.88 212.729 1151.19 212.729C1151.41 212.729 1151.6 212.713 1151.77 212.683C1151.93 212.652 1152.06 212.627 1152.16 212.609L1152.65 214.889C1152.49 214.951 1152.27 215.012 1151.97 215.074C1151.68 215.142 1151.31 215.179 1150.86 215.185C1150.14 215.197 1149.46 215.068 1148.83 214.797C1148.2 214.526 1147.7 214.107 1147.31 213.541C1146.92 212.975 1146.73 212.264 1146.73 211.408V197.42ZM1162.55 215V196.091H1165.41V204.308H1174.83V196.091H1177.69V215H1174.83V206.755H1165.41V215H1162.55ZM1181.63 215V200.818H1184.39V215H1181.63ZM1183.02 198.63C1182.54 198.63 1182.13 198.47 1181.78 198.15C1181.45 197.824 1181.28 197.436 1181.28 196.987C1181.28 196.531 1181.45 196.143 1181.78 195.823C1182.13 195.497 1182.54 195.334 1183.02 195.334C1183.5 195.334 1183.91 195.497 1184.25 195.823C1184.59 196.143 1184.77 196.531 1184.77 196.987C1184.77 197.436 1184.59 197.824 1184.25 198.15C1183.91 198.47 1183.5 198.63 1183.02 198.63ZM1188.1 215V200.818H1190.77V203.071H1190.92C1191.18 202.308 1191.63 201.708 1192.28 201.271C1192.94 200.827 1193.69 200.606 1194.52 200.606C1194.69 200.606 1194.89 200.612 1195.13 200.624C1195.37 200.637 1195.56 200.652 1195.69 200.67V203.311C1195.58 203.28 1195.38 203.246 1195.1 203.21C1194.82 203.166 1194.53 203.145 1194.25 203.145C1193.6 203.145 1193.02 203.283 1192.51 203.56C1192 203.831 1191.6 204.21 1191.31 204.696C1191.01 205.176 1190.86 205.724 1190.86 206.339V215H1188.1ZM1203.68 215.286C1202.29 215.286 1201.08 214.988 1200.07 214.391C1199.07 213.787 1198.3 212.941 1197.75 211.852C1197.21 210.756 1196.94 209.473 1196.94 208.001C1196.94 206.549 1197.21 205.268 1197.75 204.161C1198.3 203.053 1199.06 202.188 1200.04 201.566C1201.02 200.944 1202.17 200.634 1203.49 200.634C1204.29 200.634 1205.07 200.766 1205.82 201.031C1206.57 201.295 1207.24 201.711 1207.84 202.277C1208.44 202.843 1208.91 203.579 1209.25 204.484C1209.6 205.382 1209.77 206.475 1209.77 207.761V208.74H1198.5V206.672H1207.06C1207.06 205.946 1206.92 205.302 1206.62 204.742C1206.33 204.176 1205.91 203.73 1205.37 203.403C1204.85 203.077 1204.22 202.914 1203.51 202.914C1202.73 202.914 1202.06 203.105 1201.48 203.487C1200.91 203.862 1200.46 204.354 1200.15 204.964C1199.84 205.567 1199.69 206.223 1199.69 206.93V208.546C1199.69 209.494 1199.85 210.3 1200.19 210.965C1200.52 211.63 1200.99 212.138 1201.6 212.489C1202.2 212.833 1202.91 213.006 1203.71 213.006C1204.24 213.006 1204.71 212.932 1205.14 212.784C1205.57 212.63 1205.95 212.402 1206.26 212.101C1206.57 211.799 1206.81 211.427 1206.98 210.984L1209.59 211.455C1209.38 212.224 1209.01 212.898 1208.47 213.477C1207.93 214.049 1207.26 214.495 1206.45 214.815C1205.64 215.129 1204.72 215.286 1203.68 215.286ZM1218.14 215.277C1217 215.277 1215.97 214.985 1215.08 214.4C1214.18 213.809 1213.48 212.969 1212.97 211.879C1212.47 210.784 1212.21 209.469 1212.21 207.937C1212.21 206.404 1212.47 205.093 1212.98 204.004C1213.5 202.914 1214.21 202.08 1215.1 201.501C1216 200.923 1217.02 200.634 1218.16 200.634C1219.04 200.634 1219.75 200.781 1220.28 201.077C1220.83 201.366 1221.24 201.705 1221.54 202.092C1221.84 202.48 1222.07 202.822 1222.24 203.117H1222.41V196.091H1225.17V215H1222.47V212.793H1222.24C1222.07 213.095 1221.83 213.44 1221.52 213.827C1221.21 214.215 1220.79 214.554 1220.25 214.843C1219.7 215.132 1219 215.277 1218.14 215.277ZM1218.75 212.923C1219.54 212.923 1220.22 212.713 1220.76 212.295C1221.32 211.87 1221.74 211.282 1222.02 210.531C1222.31 209.78 1222.45 208.906 1222.45 207.909C1222.45 206.924 1222.31 206.062 1222.03 205.324C1221.75 204.585 1221.33 204.01 1220.78 203.597C1220.23 203.185 1219.56 202.979 1218.75 202.979C1217.92 202.979 1217.23 203.194 1216.67 203.625C1216.12 204.056 1215.7 204.644 1215.42 205.388C1215.14 206.133 1215 206.973 1215 207.909C1215 208.857 1215.14 209.71 1215.43 210.467C1215.71 211.224 1216.13 211.824 1216.68 212.267C1217.24 212.704 1217.93 212.923 1218.75 212.923ZM1239.06 196.091V215H1236.21V196.091H1239.06ZM1245.76 206.58V215H1243V200.818H1245.65V203.126H1245.82C1246.15 202.375 1246.66 201.772 1247.35 201.317C1248.06 200.861 1248.94 200.634 1250 200.634C1250.97 200.634 1251.82 200.837 1252.54 201.243C1253.27 201.643 1253.83 202.24 1254.23 203.034C1254.63 203.828 1254.83 204.81 1254.83 205.979V215H1252.07V206.312C1252.07 205.284 1251.8 204.481 1251.27 203.902C1250.73 203.317 1250 203.025 1249.06 203.025C1248.42 203.025 1247.85 203.163 1247.35 203.44C1246.86 203.717 1246.47 204.124 1246.18 204.659C1245.9 205.188 1245.76 205.829 1245.76 206.58ZM1269.16 204.281L1266.66 204.724C1266.56 204.404 1266.39 204.099 1266.16 203.81C1265.94 203.52 1265.64 203.283 1265.26 203.099C1264.88 202.914 1264.4 202.822 1263.83 202.822C1263.04 202.822 1262.39 202.997 1261.87 203.348C1261.35 203.693 1261.08 204.139 1261.08 204.687C1261.08 205.161 1261.26 205.542 1261.61 205.832C1261.96 206.121 1262.53 206.358 1263.31 206.543L1265.56 207.06C1266.87 207.361 1267.84 207.826 1268.48 208.454C1269.12 209.082 1269.44 209.897 1269.44 210.901C1269.44 211.75 1269.19 212.507 1268.7 213.172C1268.21 213.83 1267.53 214.348 1266.66 214.723C1265.79 215.098 1264.79 215.286 1263.64 215.286C1262.05 215.286 1260.76 214.948 1259.75 214.271C1258.75 213.587 1258.14 212.618 1257.91 211.362L1260.58 210.956C1260.74 211.652 1261.08 212.178 1261.6 212.535C1262.12 212.886 1262.79 213.061 1263.62 213.061C1264.53 213.061 1265.25 212.873 1265.79 212.498C1266.33 212.116 1266.61 211.652 1266.61 211.104C1266.61 210.661 1266.44 210.288 1266.11 209.987C1265.78 209.685 1265.28 209.457 1264.6 209.303L1262.2 208.777C1260.88 208.475 1259.9 207.995 1259.26 207.337C1258.64 206.678 1258.32 205.844 1258.32 204.835C1258.32 203.997 1258.56 203.265 1259.02 202.637C1259.49 202.009 1260.14 201.52 1260.96 201.169C1261.79 200.812 1262.73 200.634 1263.8 200.634C1265.33 200.634 1266.54 200.966 1267.42 201.631C1268.3 202.289 1268.88 203.173 1269.16 204.281ZM1279.09 200.818V203.034H1271.35V200.818H1279.09ZM1273.43 197.42H1276.19V210.836C1276.19 211.371 1276.27 211.775 1276.43 212.045C1276.59 212.31 1276.79 212.492 1277.05 212.59C1277.3 212.683 1277.58 212.729 1277.89 212.729C1278.11 212.729 1278.3 212.713 1278.47 212.683C1278.63 212.652 1278.76 212.627 1278.85 212.609L1279.35 214.889C1279.19 214.951 1278.97 215.012 1278.67 215.074C1278.37 215.142 1278.01 215.179 1277.56 215.185C1276.84 215.197 1276.16 215.068 1275.53 214.797C1274.9 214.526 1274.4 214.107 1274.01 213.541C1273.62 212.975 1273.43 212.264 1273.43 211.408V197.42ZM1286.28 215.314C1285.38 215.314 1284.56 215.148 1283.84 214.815C1283.11 214.477 1282.54 213.987 1282.11 213.347C1281.69 212.707 1281.48 211.922 1281.48 210.993C1281.48 210.193 1281.64 209.534 1281.95 209.017C1282.25 208.5 1282.67 208.091 1283.19 207.789C1283.72 207.487 1284.3 207.26 1284.95 207.106C1285.59 206.952 1286.25 206.835 1286.92 206.755C1287.77 206.656 1288.46 206.576 1288.99 206.515C1289.52 206.447 1289.9 206.339 1290.14 206.192C1290.38 206.044 1290.5 205.804 1290.5 205.472V205.407C1290.5 204.601 1290.28 203.976 1289.82 203.533C1289.37 203.089 1288.7 202.868 1287.81 202.868C1286.88 202.868 1286.15 203.074 1285.61 203.487C1285.08 203.893 1284.72 204.345 1284.51 204.844L1281.92 204.253C1282.23 203.391 1282.68 202.696 1283.27 202.166C1283.86 201.631 1284.55 201.243 1285.32 201.003C1286.1 200.757 1286.92 200.634 1287.77 200.634C1288.34 200.634 1288.94 200.701 1289.57 200.837C1290.21 200.966 1290.81 201.206 1291.36 201.557C1291.92 201.908 1292.38 202.409 1292.74 203.062C1293.1 203.708 1293.27 204.548 1293.27 205.582V215H1290.58V213.061H1290.47C1290.29 213.418 1290.02 213.769 1289.66 214.114C1289.31 214.458 1288.85 214.745 1288.29 214.972C1287.73 215.2 1287.06 215.314 1286.28 215.314ZM1286.88 213.098C1287.64 213.098 1288.29 212.947 1288.83 212.646C1289.38 212.344 1289.8 211.95 1290.08 211.464C1290.37 210.971 1290.51 210.445 1290.51 209.885V208.057C1290.42 208.155 1290.22 208.248 1289.94 208.334C1289.66 208.414 1289.35 208.485 1288.99 208.546C1288.63 208.602 1288.29 208.654 1287.95 208.703C1287.61 208.746 1287.33 208.783 1287.1 208.814C1286.56 208.882 1286.07 208.996 1285.63 209.156C1285.19 209.316 1284.84 209.546 1284.58 209.848C1284.32 210.143 1284.19 210.537 1284.19 211.03C1284.19 211.713 1284.44 212.23 1284.95 212.581C1285.45 212.926 1286.09 213.098 1286.88 213.098ZM1299.71 206.58V215H1296.95V200.818H1299.6V203.126H1299.78C1300.1 202.375 1300.61 201.772 1301.31 201.317C1302.01 200.861 1302.89 200.634 1303.96 200.634C1304.93 200.634 1305.77 200.837 1306.5 201.243C1307.22 201.643 1307.79 202.24 1308.19 203.034C1308.59 203.828 1308.79 204.81 1308.79 205.979V215H1306.03V206.312C1306.03 205.284 1305.76 204.481 1305.22 203.902C1304.69 203.317 1303.95 203.025 1303.02 203.025C1302.38 203.025 1301.81 203.163 1301.31 203.44C1300.82 203.717 1300.43 204.124 1300.14 204.659C1299.85 205.188 1299.71 205.829 1299.71 206.58ZM1319.11 200.818V203.034H1311.36V200.818H1319.11ZM1313.44 197.42H1316.2V210.836C1316.2 211.371 1316.28 211.775 1316.44 212.045C1316.6 212.31 1316.81 212.492 1317.06 212.59C1317.32 212.683 1317.6 212.729 1317.9 212.729C1318.12 212.729 1318.32 212.713 1318.48 212.683C1318.65 212.652 1318.78 212.627 1318.87 212.609L1319.37 214.889C1319.21 214.951 1318.98 215.012 1318.69 215.074C1318.39 215.142 1318.02 215.179 1317.58 215.185C1316.85 215.197 1316.17 215.068 1315.55 214.797C1314.92 214.526 1314.41 214.107 1314.02 213.541C1313.64 212.975 1313.44 212.264 1313.44 211.408V197.42ZM1325.23 196.091V215H1322.47V196.091H1325.23ZM1330.69 220.318C1330.28 220.318 1329.9 220.284 1329.56 220.217C1329.22 220.155 1328.97 220.087 1328.81 220.013L1329.47 217.751C1329.97 217.887 1330.42 217.945 1330.82 217.927C1331.21 217.908 1331.56 217.761 1331.86 217.484C1332.17 217.207 1332.44 216.754 1332.67 216.126L1333.02 215.185L1327.83 200.818H1330.78L1334.37 211.824H1334.52L1338.11 200.818H1341.08L1335.23 216.893C1334.96 217.631 1334.62 218.256 1334.2 218.767C1333.78 219.284 1333.28 219.672 1332.7 219.93C1332.12 220.189 1331.45 220.318 1330.69 220.318Z" fill="#212427"/>
<circle cx="1225.5" cy="97.5" r="67.5" fill="white"/>
<path d="M1206.48 112.949C1208.14 111.155 1209.64 109.19 1211.49 107.647C1213.3 106.126 1215.47 105.027 1217.31 103.854C1216.58 102.322 1215.46 100.738 1215.04 98.9896C1213.88 94.137 1214.73 89.3528 1218.7 86.1974C1224.15 81.846 1232.81 84.3976 1234.83 91.0785C1235.95 94.792 1235.89 98.477 1233.85 101.934C1233.45 102.601 1232.94 103.187 1232.38 103.939C1237.04 105.784 1240.74 108.78 1243.38 113.172C1245.27 110.984 1246.63 108.615 1247.57 106.018C1252.57 92.1835 1244.24 77.1813 1229.84 74.288C1227.45 73.8096 1224.92 74.0203 1222.46 73.9292C1222.03 73.9121 1221.61 73.9975 1221.19 73.9975C1219.97 73.9975 1219.09 73.2742 1218.95 72.1749C1218.82 71.1099 1219.5 70.079 1220.7 69.8853C1222.09 69.6632 1223.51 69.5265 1224.92 69.5208C1238.33 69.4582 1249.97 78.9242 1252.69 92.0582C1255.87 107.391 1245.8 122.507 1230.41 125.48C1215.03 128.453 1200.22 118.383 1197.26 102.937C1196.98 101.473 1197.57 100.362 1198.76 100.083C1200.09 99.7813 1201.14 100.545 1201.43 102.128C1202.14 106.035 1203.77 109.521 1206.21 112.636C1206.35 112.801 1206.49 112.949 1206.48 112.949ZM1209.86 116.253C1218.53 123.771 1232.29 123.332 1240.2 116.179C1236.86 110.187 1231.78 106.889 1224.9 106.946C1218.1 106.998 1213.11 110.312 1209.86 116.253ZM1231.19 95.4812C1231.19 95.0483 1231.21 94.6553 1231.19 94.268C1231.03 90.8564 1228.31 88.208 1225.01 88.2421C1221.72 88.2763 1219.07 90.8564 1218.9 94.2225C1218.86 95.1394 1218.84 96.0678 1218.93 96.9791C1219.36 101.57 1224.33 104.104 1228.24 101.701C1230.56 100.277 1231.35 98.067 1231.19 95.4812Z" fill="#0077B5" fill-opacity="0.45"/>
<path d="M1197.37 95.8345C1187.78 95.8003 1179.95 87.912 1180 78.3434C1180.05 68.7464 1187.95 60.9321 1197.52 61.0004C1207.08 61.0745 1214.85 68.9002 1214.83 78.4403C1214.82 88.0316 1206.95 95.8687 1197.37 95.8345ZM1197.43 65.255C1190.18 65.2493 1184.25 71.167 1184.25 78.4118C1184.24 85.6508 1190.16 91.5856 1197.41 91.5913C1204.65 91.597 1210.58 85.6793 1210.59 78.4346C1210.6 71.1898 1204.67 65.2607 1197.43 65.255Z" fill="#0077B5" fill-opacity="0.45"/>
<path d="M1195.03 80.1944C1197.17 78.0529 1199.22 76.0025 1201.27 73.9578C1201.6 73.6331 1201.93 73.3028 1202.3 73.0408C1203.15 72.4484 1204.21 72.5453 1204.93 73.2287C1205.66 73.9293 1205.78 75.057 1205.18 75.9398C1204.98 76.2303 1204.74 76.4923 1204.49 76.7429C1202.02 79.2262 1199.54 81.7037 1197.06 84.1756C1195.57 85.6621 1194.57 85.6564 1193.08 84.1813C1192.02 83.1333 1190.96 82.091 1189.93 81.026C1188.9 79.9609 1188.83 78.7022 1189.71 77.8251C1190.61 76.9252 1191.82 76.9878 1192.91 78.0301C1193.62 78.7079 1194.29 79.4312 1195.03 80.1944Z" fill="#0077B5" fill-opacity="0.45"/>
</svg>
