<svg width="328" height="713" viewBox="0 0 328 713" fill="none" xmlns="http://www.w3.org/2000/svg">
<g opacity="0.7" filter="url(#filter0_d_31_1340)">
<rect x="11" y="289.778" width="303.505" height="52" rx="9" fill="#F8F1F1"/>
</g>
<path d="M29.8109 325.778H24.8819V311.232H29.9103C31.3545 311.232 32.595 311.524 33.6319 312.106C34.6736 312.684 35.4738 313.515 36.0325 314.599C36.5912 315.683 36.8706 316.98 36.8706 318.491C36.8706 320.006 36.5888 321.308 36.0254 322.397C35.4667 323.486 34.6594 324.322 33.6035 324.904C32.5524 325.487 31.2882 325.778 29.8109 325.778ZM27.5169 323.498H29.6831C30.6963 323.498 31.5415 323.313 32.2186 322.944C32.8957 322.57 33.4047 322.014 33.7456 321.275C34.0865 320.532 34.2569 319.604 34.2569 318.491C34.2569 317.378 34.0865 316.455 33.7456 315.721C33.4047 314.982 32.9004 314.431 32.2328 314.066C31.5699 313.697 30.746 313.512 29.7612 313.512H27.5169V323.498ZM39.2605 325.778V314.869H41.8315V325.778H39.2605ZM40.5531 313.32C40.1459 313.32 39.7955 313.186 39.502 312.916C39.2084 312.641 39.0616 312.312 39.0616 311.928C39.0616 311.54 39.2084 311.211 39.502 310.941C39.7955 310.667 40.1459 310.529 40.5531 310.529C40.965 310.529 41.3154 310.667 41.6042 310.941C41.8978 311.211 42.0446 311.54 42.0446 311.928C42.0446 312.312 41.8978 312.641 41.6042 312.916C41.3154 313.186 40.965 313.32 40.5531 313.32ZM44.4753 325.778V314.869H46.9682V316.687H47.0819C47.2807 316.057 47.6216 315.572 48.1046 315.231C48.5923 314.885 49.1486 314.712 49.7736 314.712C49.9157 314.712 50.0743 314.72 50.2495 314.734C50.4294 314.743 50.5785 314.76 50.6969 314.784V317.149C50.588 317.111 50.4152 317.078 50.1784 317.049C49.9464 317.016 49.7215 316.999 49.5037 316.999C49.035 316.999 48.6136 317.101 48.2395 317.305C47.8702 317.504 47.579 317.781 47.3659 318.136C47.1529 318.491 47.0463 318.9 47.0463 319.364V325.778H44.4753ZM56.7853 325.991C55.6916 325.991 54.747 325.764 53.9515 325.309C53.1608 324.85 52.5524 324.201 52.1262 323.363C51.7001 322.52 51.487 321.528 51.487 320.387C51.487 319.265 51.7001 318.28 52.1262 317.433C52.5571 316.58 53.1584 315.918 53.9302 315.444C54.702 314.966 55.6087 314.727 56.6504 314.727C57.3227 314.727 57.9572 314.836 58.5538 315.053C59.1551 315.266 59.6854 315.598 60.1447 316.048C60.6087 316.498 60.9733 317.07 61.2385 317.766C61.5036 318.458 61.6362 319.282 61.6362 320.238V321.026H52.6944V319.293H59.1717C59.167 318.801 59.0604 318.363 58.8521 317.98C58.6438 317.591 58.3526 317.286 57.9785 317.063C57.6092 316.841 57.1783 316.73 56.6859 316.73C56.1603 316.73 55.6987 316.857 55.301 317.113C54.9032 317.364 54.5931 317.695 54.3706 318.107C54.1528 318.515 54.0415 318.962 54.0368 319.45V320.962C54.0368 321.597 54.1528 322.141 54.3848 322.596C54.6168 323.046 54.9411 323.391 55.3578 323.633C55.7744 323.87 56.2621 323.988 56.8208 323.988C57.1949 323.988 57.5334 323.936 57.8365 323.832C58.1395 323.723 58.4023 323.564 58.6248 323.356C58.8474 323.148 59.0154 322.89 59.1291 322.582L61.5297 322.852C61.3781 323.486 61.0893 324.04 60.6632 324.514C60.2418 324.982 59.702 325.347 59.0439 325.607C58.3857 325.863 57.6329 325.991 56.7853 325.991ZM68.5698 325.991C67.4808 325.991 66.5456 325.752 65.7644 325.274C64.9879 324.795 64.3889 324.135 63.9675 323.292C63.5508 322.444 63.3425 321.469 63.3425 320.366C63.3425 319.258 63.5556 318.28 63.9817 317.433C64.4078 316.58 65.0092 315.918 65.7857 315.444C66.5669 314.966 67.4902 314.727 68.5556 314.727C69.441 314.727 70.2246 314.89 70.9064 315.217C71.593 315.539 72.1399 315.996 72.5471 316.587C72.9542 317.175 73.1863 317.861 73.2431 318.647H70.7857C70.6863 318.122 70.4495 317.684 70.0755 317.333C69.7061 316.978 69.2114 316.801 68.5911 316.801C68.0655 316.801 67.6039 316.943 67.2061 317.227C66.8084 317.506 66.4983 317.909 66.2757 318.434C66.0579 318.96 65.949 319.589 65.949 320.323C65.949 321.067 66.0579 321.706 66.2757 322.241C66.4935 322.771 66.7989 323.181 67.1919 323.47C67.5897 323.754 68.056 323.896 68.5911 323.896C68.9699 323.896 69.3084 323.825 69.6067 323.683C69.9097 323.536 70.1631 323.325 70.3667 323.051C70.5703 322.776 70.7099 322.442 70.7857 322.049H73.2431C73.1815 322.821 72.9542 323.505 72.5613 324.102C72.1683 324.694 71.6332 325.158 70.9561 325.494C70.2791 325.825 69.4836 325.991 68.5698 325.991ZM80.8017 314.869V316.857H74.5304V314.869H80.8017ZM76.0787 312.255H78.6497V322.497C78.6497 322.842 78.7018 323.107 78.8059 323.292C78.9148 323.472 79.0569 323.595 79.2321 323.661C79.4073 323.728 79.6014 323.761 79.8145 323.761C79.9754 323.761 80.1222 323.749 80.2548 323.725C80.3921 323.702 80.4963 323.68 80.5673 323.661L81.0005 325.671C80.8632 325.719 80.6667 325.771 80.411 325.828C80.1601 325.884 79.8523 325.918 79.4877 325.927C78.8438 325.946 78.2638 325.849 77.7477 325.636C77.2316 325.418 76.822 325.082 76.519 324.627C76.2207 324.173 76.0739 323.605 76.0787 322.923V312.255ZM85.7573 311.232V325.778H83.1863V311.232H85.7573ZM89.9991 329.869C89.6487 329.869 89.3244 329.84 89.0261 329.784C88.7325 329.731 88.4982 329.67 88.323 329.599L88.9196 327.596C89.2936 327.705 89.6274 327.757 89.921 327.752C90.2145 327.748 90.4726 327.655 90.6951 327.475C90.9224 327.3 91.1142 327.007 91.2704 326.595L91.4906 326.005L87.5346 314.869H90.2619L92.7761 323.107H92.8897L95.411 314.869H98.1454L93.7775 327.099C93.5739 327.677 93.304 328.171 92.9679 328.583C92.6317 329 92.2198 329.317 91.7321 329.535C91.2491 329.757 90.6715 329.869 89.9991 329.869ZM117.449 316.14H114.793C114.717 315.704 114.578 315.319 114.374 314.982C114.171 314.641 113.917 314.353 113.614 314.116C113.311 313.879 112.965 313.702 112.577 313.583C112.194 313.46 111.779 313.399 111.334 313.399C110.544 313.399 109.843 313.597 109.232 313.995C108.621 314.388 108.143 314.966 107.797 315.728C107.452 316.486 107.279 317.411 107.279 318.505C107.279 319.618 107.452 320.555 107.797 321.318C108.148 322.075 108.626 322.648 109.232 323.036C109.843 323.42 110.541 323.612 111.327 323.612C111.763 323.612 112.17 323.555 112.549 323.441C112.932 323.323 113.276 323.15 113.579 322.923C113.886 322.695 114.144 322.416 114.353 322.085C114.566 321.753 114.713 321.374 114.793 320.948L117.449 320.962C117.35 321.654 117.135 322.302 116.803 322.909C116.476 323.515 116.048 324.05 115.518 324.514C114.987 324.973 114.367 325.333 113.657 325.593C112.947 325.849 112.158 325.977 111.292 325.977C110.013 325.977 108.872 325.681 107.868 325.089C106.865 324.497 106.074 323.642 105.496 322.525C104.919 321.408 104.63 320.068 104.63 318.505C104.63 316.938 104.921 315.598 105.503 314.485C106.086 313.368 106.879 312.513 107.883 311.921C108.886 311.329 110.023 311.034 111.292 311.034C112.101 311.034 112.854 311.147 113.55 311.374C114.246 311.602 114.867 311.936 115.411 312.376C115.956 312.811 116.403 313.346 116.753 313.981C117.108 314.611 117.34 315.33 117.449 316.14ZM122.32 319.386V325.778H119.749V311.232H122.263V316.722H122.391C122.646 316.107 123.042 315.622 123.577 315.266C124.117 314.907 124.803 314.727 125.637 314.727C126.394 314.727 127.055 314.885 127.618 315.203C128.182 315.52 128.617 315.984 128.925 316.595C129.237 317.205 129.394 317.951 129.394 318.832V325.778H126.823V319.23C126.823 318.496 126.633 317.925 126.254 317.518C125.88 317.106 125.355 316.9 124.678 316.9C124.223 316.9 123.816 316.999 123.456 317.198C123.101 317.392 122.822 317.674 122.618 318.043C122.419 318.413 122.32 318.86 122.32 319.386ZM135.154 325.998C134.462 325.998 133.84 325.875 133.286 325.629C132.736 325.378 132.301 325.008 131.979 324.521C131.662 324.033 131.503 323.432 131.503 322.717C131.503 322.101 131.617 321.592 131.844 321.19C132.071 320.787 132.381 320.465 132.774 320.224C133.167 319.982 133.61 319.8 134.102 319.677C134.6 319.549 135.113 319.457 135.644 319.4C136.283 319.334 136.801 319.275 137.199 319.222C137.597 319.166 137.886 319.08 138.066 318.967C138.25 318.848 138.343 318.666 138.343 318.42V318.377C138.343 317.842 138.184 317.428 137.867 317.134C137.549 316.841 137.093 316.694 136.496 316.694C135.866 316.694 135.367 316.831 134.997 317.106C134.633 317.381 134.387 317.705 134.259 318.079L131.858 317.738C132.048 317.075 132.36 316.521 132.796 316.076C133.231 315.626 133.764 315.29 134.394 315.068C135.023 314.84 135.719 314.727 136.482 314.727C137.007 314.727 137.53 314.788 138.051 314.911C138.572 315.034 139.048 315.238 139.479 315.522C139.91 315.802 140.255 316.183 140.516 316.666C140.781 317.149 140.914 317.752 140.914 318.477V325.778H138.442V324.279H138.357C138.2 324.582 137.98 324.866 137.696 325.132C137.417 325.392 137.064 325.603 136.638 325.764C136.217 325.92 135.722 325.998 135.154 325.998ZM135.821 324.109C136.337 324.109 136.785 324.007 137.164 323.803C137.542 323.595 137.834 323.32 138.037 322.98C138.245 322.639 138.35 322.267 138.35 321.864V320.579C138.269 320.645 138.132 320.707 137.938 320.764C137.748 320.82 137.535 320.87 137.298 320.913C137.062 320.955 136.827 320.993 136.595 321.026C136.363 321.06 136.162 321.088 135.992 321.112C135.608 321.164 135.265 321.249 134.962 321.367C134.659 321.486 134.42 321.651 134.244 321.864C134.069 322.073 133.982 322.343 133.982 322.674C133.982 323.148 134.155 323.505 134.5 323.747C134.846 323.988 135.286 324.109 135.821 324.109ZM148.946 314.869V316.857H142.675V314.869H148.946ZM144.223 312.255H146.794V322.497C146.794 322.842 146.846 323.107 146.95 323.292C147.059 323.472 147.201 323.595 147.377 323.661C147.552 323.728 147.746 323.761 147.959 323.761C148.12 323.761 148.267 323.749 148.399 323.725C148.537 323.702 148.641 323.68 148.712 323.661L149.145 325.671C149.008 325.719 148.811 325.771 148.556 325.828C148.305 325.884 147.997 325.918 147.632 325.927C146.988 325.946 146.408 325.849 145.892 325.636C145.376 325.418 144.967 325.082 144.664 324.627C144.365 324.173 144.218 323.605 144.223 322.923V312.255ZM158.309 325.778L155.226 314.869H157.847L159.765 322.539H159.864L161.824 314.869H164.417L166.377 322.497H166.483L168.373 314.869H171.001L167.911 325.778H165.233L163.188 318.406H163.039L160.993 325.778H158.309ZM172.796 325.778V314.869H175.367V325.778H172.796ZM174.088 313.32C173.681 313.32 173.331 313.186 173.037 312.916C172.744 312.641 172.597 312.312 172.597 311.928C172.597 311.54 172.744 311.211 173.037 310.941C173.331 310.667 173.681 310.529 174.088 310.529C174.5 310.529 174.851 310.667 175.139 310.941C175.433 311.211 175.58 311.54 175.58 311.928C175.58 312.312 175.433 312.641 175.139 312.916C174.851 313.186 174.5 313.32 174.088 313.32ZM183.458 314.869V316.857H177.187V314.869H183.458ZM178.735 312.255H181.306V322.497C181.306 322.842 181.358 323.107 181.462 323.292C181.571 323.472 181.713 323.595 181.888 323.661C182.064 323.728 182.258 323.761 182.471 323.761C182.632 323.761 182.778 323.749 182.911 323.725C183.048 323.702 183.153 323.68 183.224 323.661L183.657 325.671C183.519 325.719 183.323 325.771 183.067 325.828C182.816 325.884 182.509 325.918 182.144 325.927C181.5 325.946 180.92 325.849 180.404 325.636C179.888 325.418 179.478 325.082 179.175 324.627C178.877 324.173 178.73 323.605 178.735 322.923V312.255ZM188.414 319.386V325.778H185.843V311.232H188.357V316.722H188.485C188.74 316.107 189.136 315.622 189.671 315.266C190.21 314.907 190.897 314.727 191.73 314.727C192.488 314.727 193.148 314.885 193.712 315.203C194.275 315.52 194.711 315.984 195.019 316.595C195.331 317.205 195.487 317.951 195.487 318.832V325.778H192.916V319.23C192.916 318.496 192.727 317.925 192.348 317.518C191.974 317.106 191.449 316.9 190.771 316.9C190.317 316.9 189.91 316.999 189.55 317.198C189.195 317.392 188.915 317.674 188.712 318.043C188.513 318.413 188.414 318.86 188.414 319.386ZM203.183 325.778V311.232H208.637C209.755 311.232 210.692 311.427 211.45 311.815C212.212 312.203 212.787 312.748 213.176 313.448C213.569 314.144 213.765 314.956 213.765 315.884C213.765 316.817 213.566 317.627 213.169 318.313C212.776 318.995 212.195 319.523 211.428 319.897C210.661 320.266 209.719 320.451 208.602 320.451H204.717V318.264H208.247C208.9 318.264 209.435 318.174 209.852 317.994C210.268 317.809 210.576 317.542 210.775 317.191C210.979 316.836 211.08 316.4 211.08 315.884C211.08 315.368 210.979 314.928 210.775 314.563C210.571 314.194 210.261 313.915 209.845 313.725C209.428 313.531 208.891 313.434 208.232 313.434H205.818V325.778H203.183ZM210.697 319.187L214.298 325.778H211.357L207.82 319.187H210.697ZM220.75 325.991C219.656 325.991 218.712 325.764 217.916 325.309C217.126 324.85 216.517 324.201 216.091 323.363C215.665 322.52 215.452 321.528 215.452 320.387C215.452 319.265 215.665 318.28 216.091 317.433C216.522 316.58 217.123 315.918 217.895 315.444C218.667 314.966 219.574 314.727 220.615 314.727C221.288 314.727 221.922 314.836 222.519 315.053C223.12 315.266 223.65 315.598 224.11 316.048C224.574 316.498 224.938 317.07 225.203 317.766C225.468 318.458 225.601 319.282 225.601 320.238V321.026H216.659V319.293H223.137C223.132 318.801 223.025 318.363 222.817 317.98C222.609 317.591 222.317 317.286 221.943 317.063C221.574 316.841 221.143 316.73 220.651 316.73C220.125 316.73 219.664 316.857 219.266 317.113C218.868 317.364 218.558 317.695 218.335 318.107C218.118 318.515 218.006 318.962 218.002 319.45V320.962C218.002 321.597 218.118 322.141 218.35 322.596C218.582 323.046 218.906 323.391 219.323 323.633C219.739 323.87 220.227 323.988 220.786 323.988C221.16 323.988 221.498 323.936 221.801 323.832C222.104 323.723 222.367 323.564 222.59 323.356C222.812 323.148 222.98 322.89 223.094 322.582L225.494 322.852C225.343 323.486 225.054 324.04 224.628 324.514C224.207 324.982 223.667 325.347 223.009 325.607C222.351 325.863 221.598 325.991 220.75 325.991ZM232.535 325.991C231.446 325.991 230.51 325.752 229.729 325.274C228.953 324.795 228.354 324.135 227.932 323.292C227.516 322.444 227.307 321.469 227.307 320.366C227.307 319.258 227.52 318.28 227.947 317.433C228.373 316.58 228.974 315.918 229.751 315.444C230.532 314.966 231.455 314.727 232.52 314.727C233.406 314.727 234.189 314.89 234.871 315.217C235.558 315.539 236.105 315.996 236.512 316.587C236.919 317.175 237.151 317.861 237.208 318.647H234.751C234.651 318.122 234.414 317.684 234.04 317.333C233.671 316.978 233.176 316.801 232.556 316.801C232.03 316.801 231.569 316.943 231.171 317.227C230.773 317.506 230.463 317.909 230.241 318.434C230.023 318.96 229.914 319.589 229.914 320.323C229.914 321.067 230.023 321.706 230.241 322.241C230.458 322.771 230.764 323.181 231.157 323.47C231.555 323.754 232.021 323.896 232.556 323.896C232.935 323.896 233.273 323.825 233.572 323.683C233.875 323.536 234.128 323.325 234.331 323.051C234.535 322.776 234.675 322.442 234.751 322.049H237.208C237.146 322.821 236.919 323.505 236.526 324.102C236.133 324.694 235.598 325.158 234.921 325.494C234.244 325.825 233.448 325.991 232.535 325.991ZM239.319 325.778V314.869H241.812V316.687H241.926C242.124 316.057 242.465 315.572 242.948 315.231C243.436 314.885 243.992 314.712 244.617 314.712C244.759 314.712 244.918 314.72 245.093 314.734C245.273 314.743 245.422 314.76 245.541 314.784V317.149C245.432 317.111 245.259 317.078 245.022 317.049C244.79 317.016 244.565 316.999 244.347 316.999C243.879 316.999 243.457 317.101 243.083 317.305C242.714 317.504 242.423 317.781 242.21 318.136C241.997 318.491 241.89 318.9 241.89 319.364V325.778H239.319ZM254.202 321.19V314.869H256.773V325.778H254.28V323.839H254.166C253.92 324.45 253.515 324.949 252.952 325.337C252.393 325.726 251.704 325.92 250.885 325.92C250.17 325.92 249.538 325.761 248.989 325.444C248.444 325.122 248.018 324.656 247.71 324.045C247.403 323.429 247.249 322.686 247.249 321.815V314.869H249.82V321.417C249.82 322.108 250.009 322.658 250.388 323.065C250.767 323.472 251.264 323.676 251.879 323.676C252.258 323.676 252.625 323.583 252.98 323.399C253.335 323.214 253.627 322.939 253.854 322.575C254.086 322.205 254.202 321.744 254.202 321.19ZM259.417 325.778V314.869H261.988V325.778H259.417ZM260.709 313.32C260.302 313.32 259.952 313.186 259.658 312.916C259.365 312.641 259.218 312.312 259.218 311.928C259.218 311.54 259.365 311.211 259.658 310.941C259.952 310.667 260.302 310.529 260.709 310.529C261.121 310.529 261.472 310.667 261.76 310.941C262.054 311.211 262.201 311.54 262.201 311.928C262.201 312.312 262.054 312.641 261.76 312.916C261.472 313.186 261.121 313.32 260.709 313.32ZM270.079 314.869V316.857H263.808V314.869H270.079ZM265.356 312.255H267.927V322.497C267.927 322.842 267.979 323.107 268.083 323.292C268.192 323.472 268.334 323.595 268.509 323.661C268.685 323.728 268.879 323.761 269.092 323.761C269.253 323.761 269.4 323.749 269.532 323.725C269.669 323.702 269.774 323.68 269.845 323.661L270.278 325.671C270.141 325.719 269.944 325.771 269.688 325.828C269.437 325.884 269.13 325.918 268.765 325.927C268.121 325.946 267.541 325.849 267.025 325.636C266.509 325.418 266.099 325.082 265.796 324.627C265.498 324.173 265.351 323.605 265.356 322.923V312.255ZM276.942 325.991C275.848 325.991 274.903 325.764 274.108 325.309C273.317 324.85 272.709 324.201 272.282 323.363C271.856 322.52 271.643 321.528 271.643 320.387C271.643 319.265 271.856 318.28 272.282 317.433C272.713 316.58 273.315 315.918 274.086 315.444C274.858 314.966 275.765 314.727 276.807 314.727C277.479 314.727 278.113 314.836 278.71 315.053C279.311 315.266 279.842 315.598 280.301 316.048C280.765 316.498 281.13 317.07 281.395 317.766C281.66 318.458 281.792 319.282 281.792 320.238V321.026H272.851V319.293H279.328C279.323 318.801 279.217 318.363 279.008 317.98C278.8 317.591 278.509 317.286 278.135 317.063C277.765 316.841 277.335 316.73 276.842 316.73C276.317 316.73 275.855 316.857 275.457 317.113C275.059 317.364 274.749 317.695 274.527 318.107C274.309 318.515 274.198 318.962 274.193 319.45V320.962C274.193 321.597 274.309 322.141 274.541 322.596C274.773 323.046 275.097 323.391 275.514 323.633C275.931 323.87 276.418 323.988 276.977 323.988C277.351 323.988 277.69 323.936 277.993 323.832C278.296 323.723 278.559 323.564 278.781 323.356C279.004 323.148 279.172 322.89 279.285 322.582L281.686 322.852C281.534 323.486 281.246 324.04 280.819 324.514C280.398 324.982 279.858 325.347 279.2 325.607C278.542 325.863 277.789 325.991 276.942 325.991ZM283.968 325.778V314.869H286.46V316.687H286.574C286.773 316.057 287.114 315.572 287.597 315.231C288.084 314.885 288.641 314.712 289.266 314.712C289.408 314.712 289.566 314.72 289.742 314.734C289.922 314.743 290.071 314.76 290.189 314.784V317.149C290.08 317.111 289.907 317.078 289.671 317.049C289.439 317.016 289.214 316.999 288.996 316.999C288.527 316.999 288.106 317.101 287.732 317.305C287.362 317.504 287.071 317.781 286.858 318.136C286.645 318.491 286.539 318.9 286.539 319.364V325.778H283.968ZM300.519 317.752L298.176 318.008C298.109 317.771 297.993 317.549 297.828 317.34C297.667 317.132 297.449 316.964 297.174 316.836C296.9 316.708 296.563 316.644 296.166 316.644C295.631 316.644 295.181 316.76 294.816 316.992C294.456 317.224 294.279 317.525 294.284 317.894C294.279 318.212 294.395 318.47 294.632 318.668C294.873 318.867 295.271 319.031 295.825 319.159L297.686 319.556C298.718 319.779 299.485 320.132 299.987 320.614C300.493 321.097 300.749 321.73 300.754 322.511C300.749 323.197 300.548 323.803 300.15 324.329C299.757 324.85 299.21 325.257 298.509 325.551C297.809 325.844 297.004 325.991 296.095 325.991C294.759 325.991 293.685 325.712 292.87 325.153C292.056 324.589 291.57 323.806 291.414 322.802L293.921 322.561C294.035 323.053 294.276 323.425 294.646 323.676C295.015 323.927 295.496 324.052 296.088 324.052C296.698 324.052 297.188 323.927 297.558 323.676C297.932 323.425 298.119 323.114 298.119 322.745C298.119 322.433 297.998 322.175 297.757 321.971C297.52 321.767 297.151 321.611 296.649 321.502L294.788 321.112C293.741 320.894 292.967 320.527 292.465 320.011C291.963 319.49 291.715 318.832 291.72 318.036C291.715 317.364 291.897 316.782 292.267 316.289C292.641 315.792 293.159 315.409 293.822 315.139C294.49 314.864 295.259 314.727 296.13 314.727C297.409 314.727 298.415 314.999 299.149 315.543C299.887 316.088 300.344 316.824 300.519 317.752Z" fill="#212427"/>
<g opacity="0.7" filter="url(#filter1_d_31_1340)">
<rect x="115" y="183.747" width="96.0306" height="96.0306" rx="15" fill="#F8F1F1"/>
</g>
<path d="M196.797 222.307C196.48 223.181 196.276 224.119 195.824 224.917C194.379 227.469 192.108 228.728 189.175 228.8C188.086 228.827 186.997 228.805 185.824 228.805C185.824 229.09 185.824 229.317 185.824 229.543C185.824 231.25 185.82 232.957 185.825 234.664C185.827 235.615 185.504 236.393 184.593 236.798C183.653 237.216 182.857 236.914 182.133 236.243C179.589 233.89 177.039 231.544 174.467 229.22C174.214 228.992 173.803 228.828 173.462 228.823C170.975 228.79 168.487 228.824 165.998 228.801C161.221 228.756 157.743 224.721 158.405 219.959C161.646 219.959 164.893 219.959 168.054 219.959C168.468 220.743 168.78 221.553 169.273 222.232C171.435 225.211 175.804 225.588 178.402 222.947C180.123 221.197 181.737 219.329 183.275 217.415C185.014 215.25 184.924 212.081 183.147 209.947C181.711 208.222 180.25 206.513 178.716 204.876C175.407 201.344 169.877 202.569 168.327 207.141C168.28 207.281 168.225 207.418 168.166 207.576C164.914 207.576 161.665 207.576 158.421 207.576C157.747 202.503 161.526 198.761 165.859 198.753C173.666 198.74 181.473 198.745 189.28 198.757C189.832 198.758 190.4 198.817 190.932 198.955C194.103 199.774 196.008 201.806 196.683 204.99C196.704 205.09 196.757 205.183 196.796 205.279C196.797 210.955 196.797 216.63 196.797 222.307Z" fill="#00A0DC"/>
<path d="M132.437 264.303C131.241 263.788 130.879 262.876 130.866 261.602C130.833 258.49 131.961 256.047 134.663 254.404C135.8 253.713 137.055 253.388 138.392 253.389C140.705 253.391 143.019 253.365 145.332 253.394C149.52 253.445 152.738 256.624 152.868 260.804C152.876 261.06 152.853 261.317 152.876 261.571C152.989 262.824 152.542 263.764 151.36 264.303C145.051 264.303 138.744 264.303 132.437 264.303Z" fill="#00A0DC"/>
<path d="M176.329 264.303C175.006 263.716 174.778 262.63 174.798 261.313C174.848 258.025 176.224 255.58 179.2 254.091C180.229 253.576 181.341 253.379 182.497 253.385C184.683 253.399 186.87 253.382 189.057 253.391C192.979 253.405 195.912 255.819 196.685 259.655C196.707 259.756 196.758 259.853 196.796 259.951C196.796 260.891 196.796 261.829 196.796 262.768C196.49 263.488 195.975 264 195.251 264.304C188.943 264.303 182.636 264.303 176.329 264.303Z" fill="#00A0DC"/>
<path d="M157.048 198.761C154.828 201.387 154.042 204.347 154.235 207.489C153.316 207.87 152.483 208.228 151.637 208.553C151.511 208.602 151.306 208.538 151.173 208.464C149.193 207.365 147.075 207.369 144.983 207.887C142.04 208.614 140.175 211.559 140.562 214.607C140.927 217.488 143.439 219.772 146.383 219.889C148.063 219.957 149.736 219.984 151.243 219.04C151.359 218.968 151.574 218.974 151.71 219.027C152.521 219.34 153.323 219.675 154.235 220.048C154.043 223.163 154.817 226.132 157.072 228.803C156.122 228.803 155.324 228.839 154.531 228.792C153.906 228.755 153.456 228.957 153 229.384C150.499 231.721 147.973 234.033 145.441 236.338C144.323 237.355 142.741 237.137 142.129 235.876C141.95 235.508 141.886 235.055 141.879 234.64C141.852 232.955 141.868 231.268 141.868 229.583C141.868 229.353 141.868 229.122 141.868 228.803C140.943 228.803 140.071 228.781 139.201 228.808C137.014 228.875 135.037 228.339 133.391 226.847C131.806 225.411 130.927 223.612 130.911 221.483C130.872 216.341 130.871 211.199 130.908 206.056C130.935 202.243 134.093 198.858 137.913 198.79C144.235 198.679 150.564 198.761 157.048 198.761Z" fill="#00A0DC"/>
<path d="M172.084 211.711C172.084 210.817 172.079 209.991 172.085 209.165C172.092 208.146 172.562 207.408 173.394 207.087C174.24 206.761 175.093 206.976 175.77 207.736C177.121 209.252 178.464 210.776 179.792 212.315C180.622 213.276 180.607 214.291 179.768 215.256C178.45 216.773 177.121 218.282 175.791 219.788C175.118 220.549 174.282 220.781 173.421 220.466C172.588 220.162 172.094 219.408 172.084 218.407C172.076 217.617 172.079 216.829 172.076 216.039C172.076 215.997 172.058 215.956 172.026 215.811C171.803 215.811 171.556 215.811 171.31 215.811C165.947 215.811 160.584 215.805 155.222 215.816C154.472 215.817 153.822 215.653 153.331 215.059C152.38 213.907 152.957 212.152 154.413 211.803C154.722 211.729 155.05 211.717 155.37 211.717C160.668 211.711 165.966 211.713 171.265 211.713C171.516 211.711 171.768 211.711 172.084 211.711Z" fill="#00A0DC"/>
<path d="M141.879 250.632C138.84 250.634 136.408 248.223 136.4 245.199C136.394 242.177 138.821 239.735 141.844 239.723C144.894 239.71 147.374 242.168 147.368 245.197C147.361 248.206 144.913 250.628 141.879 250.632Z" fill="#00A0DC"/>
<path d="M191.289 245.172C191.295 248.199 188.878 250.62 185.838 250.632C182.803 250.644 180.34 248.228 180.322 245.224C180.305 242.193 182.773 239.721 185.818 239.723C188.844 239.723 191.284 242.153 191.289 245.172Z" fill="#00A0DC"/>
<path d="M147.336 215.796C147.057 215.796 146.779 215.814 146.501 215.793C145.522 215.72 144.729 214.941 144.647 213.991C144.557 212.924 145.166 211.973 146.19 211.814C146.938 211.698 147.73 211.696 148.48 211.8C149.535 211.946 150.181 212.912 150.086 213.992C150 214.971 149.192 215.738 148.167 215.798C147.89 215.815 147.612 215.801 147.333 215.801C147.336 215.8 147.336 215.798 147.336 215.796Z" fill="#00A0DC"/>
<g opacity="0.7" filter="url(#filter2_d_31_1340)">
<rect x="3" y="106.747" width="320" height="52" rx="9" fill="#F1F8F1"/>
</g>
<path d="M80.3026 139.747H77.4901L82.6108 125.202H85.8636L90.9915 139.747H88.179L84.294 128.185H84.1804L80.3026 139.747ZM80.3949 134.044H88.0653V136.161H80.3949V134.044ZM95.5423 125.202V139.747H92.9073V125.202H95.5423ZM104.894 131.416V133.533H98.3459V131.416H104.894ZM107.712 125.202H110.936L115.255 135.742H115.425L119.743 125.202H122.968V139.747H120.439V129.754H120.304L116.284 139.705H114.395L110.375 129.733H110.24V139.747H107.712V125.202ZM128.863 139.967C128.171 139.967 127.549 139.844 126.995 139.598C126.445 139.347 126.01 138.978 125.688 138.49C125.371 138.003 125.212 137.401 125.212 136.686C125.212 136.071 125.326 135.562 125.553 135.159C125.78 134.757 126.09 134.435 126.483 134.193C126.876 133.952 127.319 133.77 127.811 133.646C128.309 133.519 128.822 133.426 129.353 133.369C129.992 133.303 130.51 133.244 130.908 133.192C131.306 133.135 131.595 133.05 131.775 132.936C131.959 132.818 132.051 132.636 132.051 132.389V132.347C132.051 131.812 131.893 131.397 131.576 131.104C131.258 130.81 130.801 130.664 130.205 130.664C129.575 130.664 129.076 130.801 128.706 131.075C128.342 131.35 128.096 131.674 127.968 132.048L125.567 131.708C125.757 131.045 126.069 130.491 126.505 130.046C126.94 129.596 127.473 129.26 128.103 129.037C128.732 128.81 129.428 128.696 130.191 128.696C130.716 128.696 131.239 128.758 131.76 128.881C132.281 129.004 132.757 129.208 133.188 129.492C133.619 129.771 133.964 130.152 134.225 130.635C134.49 131.118 134.623 131.722 134.623 132.446V139.747H132.151V138.249H132.066C131.909 138.552 131.689 138.836 131.405 139.101C131.126 139.361 130.773 139.572 130.347 139.733C129.926 139.889 129.431 139.967 128.863 139.967ZM129.53 138.078C130.046 138.078 130.494 137.976 130.873 137.773C131.251 137.565 131.542 137.29 131.746 136.949C131.954 136.608 132.059 136.236 132.059 135.834V134.548C131.978 134.615 131.841 134.676 131.647 134.733C131.457 134.79 131.244 134.84 131.007 134.882C130.771 134.925 130.536 134.963 130.304 134.996C130.072 135.029 129.871 135.057 129.701 135.081C129.317 135.133 128.974 135.218 128.671 135.337C128.368 135.455 128.129 135.621 127.953 135.834C127.778 136.042 127.691 136.312 127.691 136.644C127.691 137.117 127.864 137.475 128.209 137.716C128.555 137.958 128.995 138.078 129.53 138.078ZM142.655 128.838V130.827H136.384V128.838H142.655ZM137.932 126.225H140.503V136.466C140.503 136.812 140.555 137.077 140.659 137.262C140.768 137.441 140.91 137.565 141.086 137.631C141.261 137.697 141.455 137.73 141.668 137.73C141.829 137.73 141.976 137.718 142.108 137.695C142.246 137.671 142.35 137.65 142.421 137.631L142.854 139.641C142.717 139.688 142.52 139.74 142.265 139.797C142.014 139.854 141.706 139.887 141.341 139.896C140.697 139.915 140.117 139.818 139.601 139.605C139.085 139.387 138.676 139.051 138.373 138.597C138.074 138.142 137.927 137.574 137.932 136.892V126.225ZM149.447 139.96C148.358 139.96 147.423 139.721 146.641 139.243C145.865 138.765 145.266 138.104 144.844 137.262C144.428 136.414 144.219 135.439 144.219 134.335C144.219 133.227 144.433 132.25 144.859 131.402C145.285 130.55 145.886 129.887 146.663 129.414C147.444 128.935 148.367 128.696 149.433 128.696C150.318 128.696 151.102 128.86 151.783 129.186C152.47 129.508 153.017 129.965 153.424 130.557C153.831 131.144 154.063 131.831 154.12 132.617H151.663C151.563 132.091 151.326 131.653 150.952 131.303C150.583 130.948 150.088 130.77 149.468 130.77C148.942 130.77 148.481 130.912 148.083 131.196C147.685 131.476 147.375 131.878 147.153 132.404C146.935 132.929 146.826 133.559 146.826 134.293C146.826 135.036 146.935 135.675 147.153 136.21C147.371 136.741 147.676 137.15 148.069 137.439C148.467 137.723 148.933 137.865 149.468 137.865C149.847 137.865 150.185 137.794 150.484 137.652C150.787 137.505 151.04 137.295 151.244 137.02C151.447 136.745 151.587 136.412 151.663 136.019H154.12C154.058 136.79 153.831 137.475 153.438 138.071C153.045 138.663 152.51 139.127 151.833 139.463C151.156 139.795 150.361 139.96 149.447 139.96ZM158.802 133.355V139.747H156.231V125.202H158.745V130.692H158.873C159.129 130.076 159.524 129.591 160.059 129.236C160.599 128.876 161.286 128.696 162.119 128.696C162.877 128.696 163.537 128.855 164.1 129.172C164.664 129.489 165.1 129.953 165.407 130.564C165.72 131.175 165.876 131.921 165.876 132.801V139.747H163.305V133.199C163.305 132.465 163.116 131.895 162.737 131.487C162.363 131.075 161.837 130.869 161.16 130.869C160.706 130.869 160.298 130.969 159.939 131.168C159.583 131.362 159.304 131.644 159.1 132.013C158.902 132.382 158.802 132.83 158.802 133.355ZM168.497 139.747V128.838H171.068V139.747H168.497ZM169.789 127.29C169.382 127.29 169.032 127.155 168.738 126.885C168.445 126.61 168.298 126.281 168.298 125.898C168.298 125.51 168.445 125.181 168.738 124.911C169.032 124.636 169.382 124.499 169.789 124.499C170.201 124.499 170.552 124.636 170.841 124.911C171.134 125.181 171.281 125.51 171.281 125.898C171.281 126.281 171.134 126.61 170.841 126.885C170.552 127.155 170.201 127.29 169.789 127.29ZM176.283 133.355V139.747H173.712V128.838H176.169V130.692H176.297C176.548 130.081 176.948 129.596 177.497 129.236C178.051 128.876 178.735 128.696 179.55 128.696C180.303 128.696 180.958 128.857 181.517 129.179C182.08 129.501 182.516 129.967 182.824 130.578C183.136 131.189 183.29 131.93 183.286 132.801V139.747H180.714V133.199C180.714 132.47 180.525 131.899 180.146 131.487C179.772 131.075 179.254 130.869 178.591 130.869C178.141 130.869 177.741 130.969 177.391 131.168C177.045 131.362 176.773 131.644 176.574 132.013C176.38 132.382 176.283 132.83 176.283 133.355ZM190.643 144.065C189.72 144.065 188.927 143.94 188.264 143.689C187.601 143.443 187.069 143.111 186.666 142.695C186.264 142.278 185.984 141.816 185.828 141.31L188.143 140.749C188.248 140.962 188.399 141.173 188.598 141.381C188.797 141.594 189.064 141.769 189.401 141.906C189.741 142.048 190.17 142.119 190.686 142.119C191.415 142.119 192.019 141.942 192.497 141.587C192.975 141.236 193.214 140.659 193.214 139.854V137.787H193.087C192.954 138.052 192.76 138.324 192.504 138.604C192.253 138.883 191.92 139.118 191.503 139.307C191.091 139.496 190.572 139.591 189.947 139.591C189.109 139.591 188.349 139.395 187.668 139.002C186.991 138.604 186.451 138.012 186.048 137.226C185.651 136.435 185.452 135.446 185.452 134.257C185.452 133.059 185.651 132.048 186.048 131.225C186.451 130.396 186.993 129.769 187.675 129.342C188.357 128.912 189.116 128.696 189.955 128.696C190.594 128.696 191.119 128.805 191.531 129.023C191.948 129.236 192.279 129.494 192.526 129.797C192.772 130.095 192.959 130.377 193.087 130.642H193.229V128.838H195.764V139.925C195.764 140.858 195.542 141.629 195.097 142.24C194.652 142.851 194.043 143.308 193.271 143.611C192.5 143.914 191.624 144.065 190.643 144.065ZM190.665 137.574C191.209 137.574 191.673 137.441 192.057 137.176C192.44 136.911 192.732 136.53 192.93 136.033C193.129 135.536 193.229 134.939 193.229 134.243C193.229 133.556 193.129 132.955 192.93 132.439C192.736 131.923 192.447 131.523 192.064 131.239C191.685 130.95 191.219 130.806 190.665 130.806C190.092 130.806 189.614 130.955 189.23 131.253C188.847 131.551 188.558 131.961 188.364 132.482C188.17 132.998 188.072 133.585 188.072 134.243C188.072 134.911 188.17 135.495 188.364 135.997C188.563 136.494 188.854 136.883 189.237 137.162C189.625 137.437 190.101 137.574 190.665 137.574ZM209.212 125.202H211.826V135.429C211.821 136.367 211.622 137.174 211.229 137.851C210.836 138.523 210.287 139.042 209.582 139.406C208.881 139.766 208.064 139.946 207.131 139.946C206.279 139.946 205.512 139.795 204.83 139.492C204.153 139.184 203.616 138.729 203.218 138.128C202.82 137.527 202.621 136.779 202.621 135.884H205.242C205.247 136.277 205.332 136.615 205.498 136.899C205.668 137.183 205.903 137.401 206.201 137.553C206.499 137.704 206.843 137.78 207.231 137.78C207.652 137.78 208.01 137.692 208.303 137.517C208.597 137.337 208.819 137.072 208.971 136.722C209.127 136.371 209.208 135.94 209.212 135.429V125.202ZM219.33 139.96C218.264 139.96 217.341 139.726 216.56 139.257C215.778 138.789 215.172 138.133 214.741 137.29C214.315 136.447 214.102 135.462 214.102 134.335C214.102 133.208 214.315 132.221 214.741 131.374C215.172 130.526 215.778 129.868 216.56 129.399C217.341 128.931 218.264 128.696 219.33 128.696C220.395 128.696 221.318 128.931 222.099 129.399C222.881 129.868 223.484 130.526 223.911 131.374C224.341 132.221 224.557 133.208 224.557 134.335C224.557 135.462 224.341 136.447 223.911 137.29C223.484 138.133 222.881 138.789 222.099 139.257C221.318 139.726 220.395 139.96 219.33 139.96ZM219.344 137.901C219.921 137.901 220.404 137.742 220.793 137.425C221.181 137.103 221.47 136.672 221.659 136.132C221.853 135.592 221.95 134.991 221.95 134.328C221.95 133.661 221.853 133.057 221.659 132.517C221.47 131.973 221.181 131.539 220.793 131.217C220.404 130.896 219.921 130.735 219.344 130.735C218.752 130.735 218.259 130.896 217.866 131.217C217.478 131.539 217.187 131.973 216.993 132.517C216.804 133.057 216.709 133.661 216.709 134.328C216.709 134.991 216.804 135.592 216.993 136.132C217.187 136.672 217.478 137.103 217.866 137.425C218.259 137.742 218.752 137.901 219.344 137.901ZM226.853 139.747V125.202H229.424V130.642H229.53C229.663 130.377 229.85 130.095 230.091 129.797C230.333 129.494 230.659 129.236 231.071 129.023C231.483 128.805 232.009 128.696 232.648 128.696C233.491 128.696 234.251 128.912 234.928 129.342C235.61 129.769 236.15 130.401 236.547 131.239C236.95 132.072 237.151 133.095 237.151 134.307C237.151 135.505 236.954 136.523 236.561 137.361C236.168 138.199 235.633 138.838 234.956 139.279C234.279 139.719 233.512 139.939 232.655 139.939C232.03 139.939 231.512 139.835 231.1 139.627C230.688 139.418 230.356 139.167 230.105 138.874C229.859 138.575 229.667 138.294 229.53 138.029H229.381V139.747H226.853ZM229.374 134.293C229.374 134.998 229.473 135.616 229.672 136.146C229.876 136.677 230.167 137.091 230.546 137.389C230.929 137.683 231.393 137.83 231.938 137.83C232.506 137.83 232.982 137.678 233.365 137.375C233.749 137.067 234.038 136.648 234.232 136.118C234.431 135.583 234.53 134.975 234.53 134.293C234.53 133.616 234.433 133.014 234.239 132.489C234.045 131.963 233.756 131.551 233.373 131.253C232.989 130.955 232.511 130.806 231.938 130.806C231.389 130.806 230.922 130.95 230.539 131.239C230.155 131.528 229.864 131.932 229.665 132.453C229.471 132.974 229.374 133.587 229.374 134.293ZM247.959 131.722L245.615 131.977C245.549 131.741 245.433 131.518 245.267 131.31C245.106 131.101 244.888 130.933 244.614 130.806C244.339 130.678 244.003 130.614 243.605 130.614C243.07 130.614 242.62 130.73 242.256 130.962C241.896 131.194 241.718 131.494 241.723 131.864C241.718 132.181 241.834 132.439 242.071 132.638C242.313 132.837 242.71 133 243.264 133.128L245.125 133.526C246.157 133.748 246.924 134.101 247.426 134.584C247.933 135.067 248.188 135.699 248.193 136.48C248.188 137.167 247.987 137.773 247.589 138.298C247.196 138.819 246.65 139.226 245.949 139.52C245.248 139.814 244.443 139.96 243.534 139.96C242.199 139.96 241.124 139.681 240.31 139.122C239.495 138.559 239.01 137.775 238.854 136.771L241.361 136.53C241.474 137.022 241.716 137.394 242.085 137.645C242.455 137.896 242.935 138.021 243.527 138.021C244.138 138.021 244.628 137.896 244.997 137.645C245.371 137.394 245.558 137.084 245.558 136.715C245.558 136.402 245.438 136.144 245.196 135.94C244.959 135.737 244.59 135.581 244.088 135.472L242.227 135.081C241.181 134.863 240.407 134.496 239.905 133.98C239.403 133.459 239.154 132.801 239.159 132.006C239.154 131.333 239.337 130.751 239.706 130.259C240.08 129.762 240.598 129.378 241.261 129.108C241.929 128.833 242.698 128.696 243.57 128.696C244.848 128.696 245.854 128.968 246.588 129.513C247.327 130.057 247.784 130.794 247.959 131.722Z" fill="#212427"/>
<g opacity="0.7" filter="url(#filter3_d_31_1340)">
<rect x="115" width="96.7472" height="96.7472" rx="15" fill="#F1F8F1"/>
</g>
<path d="M162.795 28.6541C162.803 28.6541 162.812 28.6567 162.817 28.6593V28.6567C162.817 28.6567 162.809 28.6567 162.795 28.6541Z" fill="#00A0DC"/>
<path d="M164.915 43.6503L174.65 33.9151C174.65 33.9151 169.941 29.9018 162.817 28.6604L158.791 33.1301L154.594 28.6577C150.956 29.3001 147.024 30.8756 142.973 33.9151L152.853 43.6503C152.855 43.6503 159.83 40.1626 164.915 43.6503Z" fill="#00A0DC"/>
<path d="M191.259 78.2898L179.435 68.2599C182.358 64.1366 184.078 59.102 184.078 53.6748C184.078 47.5224 181.841 41.5928 177.781 36.9778L174.072 40.2414C177.338 43.9532 179.138 48.7244 179.138 53.6748C179.138 64.8917 170.013 74.0185 158.794 74.0185C147.576 74.0185 138.451 64.8931 138.451 53.6748C138.451 48.723 140.25 43.9532 143.517 40.2414L139.807 36.9778C135.747 41.5914 133.51 47.5224 133.51 53.6762C133.51 67.6175 144.852 78.9594 158.793 78.9594C163.968 78.9594 168.784 77.3962 172.794 74.7179L182.92 86.637C185.159 89.2718 189.171 89.4348 191.615 86.9901C194.063 84.5427 193.898 80.5281 191.259 78.2898Z" fill="#00A0DC"/>
<path d="M160.157 25.7425C164.716 24.9912 167.803 20.6863 167.052 16.1272C166.301 11.5682 161.996 8.48138 157.437 9.23268C152.878 9.98397 149.791 14.2889 150.542 18.8479C151.293 23.407 155.598 26.4938 160.157 25.7425Z" fill="#00A0DC"/>
<g opacity="0.7" filter="url(#filter4_d_31_1340)">
<rect x="3" y="473.525" width="320" height="51" rx="9" fill="#F1F8F1"/>
</g>
<path d="M91.3878 490.98V505.525H89.044L82.1903 495.617H82.0696V505.525H79.4347V490.98H81.7926L88.6392 500.894H88.767V490.98H91.3878ZM98.9038 505.738C97.8384 505.738 96.9151 505.504 96.1339 505.035C95.3526 504.566 94.7466 503.911 94.3157 503.068C93.8896 502.225 93.6765 501.24 93.6765 500.113C93.6765 498.986 93.8896 497.999 94.3157 497.152C94.7466 496.304 95.3526 495.646 96.1339 495.177C96.9151 494.708 97.8384 494.474 98.9038 494.474C99.9691 494.474 100.892 494.708 101.674 495.177C102.455 495.646 103.059 496.304 103.485 497.152C103.916 497.999 104.131 498.986 104.131 500.113C104.131 501.24 103.916 502.225 103.485 503.068C103.059 503.911 102.455 504.566 101.674 505.035C100.892 505.504 99.9691 505.738 98.9038 505.738ZM98.918 503.679C99.4956 503.679 99.9786 503.52 100.367 503.203C100.755 502.881 101.044 502.45 101.233 501.91C101.427 501.37 101.525 500.769 101.525 500.106C101.525 499.438 101.427 498.835 101.233 498.295C101.044 497.751 100.755 497.317 100.367 496.995C99.9786 496.673 99.4956 496.512 98.918 496.512C98.3261 496.512 97.8337 496.673 97.4407 496.995C97.0524 497.317 96.7612 497.751 96.5671 498.295C96.3777 498.835 96.283 499.438 96.283 500.106C96.283 500.769 96.3777 501.37 96.5671 501.91C96.7612 502.45 97.0524 502.881 97.4407 503.203C97.8337 503.52 98.3261 503.679 98.918 503.679ZM119.293 494.978C119.226 494.358 118.947 493.875 118.455 493.529C117.967 493.184 117.332 493.011 116.551 493.011C116.002 493.011 115.531 493.094 115.138 493.26C114.745 493.425 114.444 493.65 114.236 493.934C114.027 494.218 113.921 494.543 113.916 494.907C113.916 495.21 113.985 495.473 114.122 495.696C114.264 495.918 114.456 496.108 114.697 496.264C114.939 496.415 115.206 496.543 115.5 496.647C115.794 496.751 116.089 496.839 116.388 496.91L117.751 497.251C118.301 497.379 118.829 497.552 119.335 497.769C119.847 497.987 120.304 498.262 120.706 498.593C121.113 498.925 121.435 499.325 121.672 499.794C121.909 500.262 122.027 500.812 122.027 501.441C122.027 502.294 121.809 503.044 121.374 503.693C120.938 504.337 120.308 504.841 119.484 505.206C118.665 505.565 117.673 505.745 116.509 505.745C115.377 505.745 114.394 505.57 113.561 505.22C112.732 504.869 112.084 504.358 111.615 503.686C111.151 503.013 110.9 502.194 110.862 501.228H113.455C113.492 501.735 113.649 502.156 113.923 502.492C114.198 502.829 114.555 503.08 114.996 503.245C115.441 503.411 115.938 503.494 116.487 503.494C117.06 503.494 117.562 503.409 117.993 503.238C118.429 503.063 118.769 502.822 119.016 502.514C119.262 502.201 119.387 501.837 119.392 501.42C119.387 501.041 119.276 500.729 119.058 500.483C118.84 500.232 118.535 500.023 118.142 499.858C117.754 499.687 117.299 499.536 116.778 499.403L115.124 498.977C113.926 498.669 112.979 498.203 112.283 497.578C111.591 496.948 111.246 496.112 111.246 495.071C111.246 494.214 111.478 493.463 111.942 492.819C112.411 492.175 113.047 491.676 113.852 491.321C114.657 490.961 115.569 490.781 116.587 490.781C117.619 490.781 118.523 490.961 119.3 491.321C120.081 491.676 120.694 492.171 121.139 492.805C121.584 493.435 121.814 494.159 121.828 494.978H119.293ZM124.262 509.616V494.616H126.791V496.42H126.94C127.073 496.155 127.26 495.873 127.501 495.575C127.743 495.272 128.069 495.014 128.481 494.801C128.893 494.583 129.419 494.474 130.058 494.474C130.901 494.474 131.661 494.689 132.338 495.12C133.02 495.546 133.559 496.179 133.957 497.017C134.359 497.85 134.561 498.873 134.561 500.085C134.561 501.283 134.364 502.301 133.971 503.139C133.578 503.977 133.043 504.616 132.366 505.056C131.689 505.497 130.922 505.717 130.065 505.717C129.44 505.717 128.922 505.613 128.51 505.404C128.098 505.196 127.766 504.945 127.515 504.652C127.269 504.353 127.077 504.072 126.94 503.806H126.833V509.616H124.262ZM126.784 500.071C126.784 500.776 126.883 501.394 127.082 501.924C127.286 502.455 127.577 502.869 127.956 503.167C128.339 503.461 128.803 503.608 129.348 503.608C129.916 503.608 130.392 503.456 130.775 503.153C131.159 502.845 131.448 502.426 131.642 501.896C131.841 501.361 131.94 500.752 131.94 500.071C131.94 499.394 131.843 498.792 131.649 498.267C131.455 497.741 131.166 497.329 130.782 497.031C130.399 496.733 129.921 496.583 129.348 496.583C128.798 496.583 128.332 496.728 127.949 497.017C127.565 497.305 127.274 497.71 127.075 498.231C126.881 498.752 126.784 499.365 126.784 500.071ZM139.902 505.745C139.21 505.745 138.588 505.622 138.034 505.376C137.484 505.125 137.049 504.756 136.727 504.268C136.41 503.78 136.251 503.179 136.251 502.464C136.251 501.849 136.365 501.34 136.592 500.937C136.819 500.535 137.129 500.213 137.522 499.971C137.915 499.73 138.358 499.547 138.85 499.424C139.348 499.296 139.861 499.204 140.392 499.147C141.031 499.081 141.549 499.022 141.947 498.97C142.345 498.913 142.634 498.828 142.814 498.714C142.998 498.596 143.091 498.413 143.091 498.167V498.125C143.091 497.59 142.932 497.175 142.615 496.882C142.297 496.588 141.841 496.441 141.244 496.441C140.614 496.441 140.115 496.579 139.745 496.853C139.381 497.128 139.135 497.452 139.007 497.826L136.606 497.485C136.796 496.822 137.108 496.269 137.544 495.823C137.979 495.374 138.512 495.037 139.142 494.815C139.771 494.588 140.467 494.474 141.23 494.474C141.755 494.474 142.279 494.536 142.799 494.659C143.32 494.782 143.796 494.985 144.227 495.269C144.658 495.549 145.003 495.93 145.264 496.413C145.529 496.896 145.662 497.5 145.662 498.224V505.525H143.19V504.027H143.105C142.949 504.33 142.728 504.614 142.444 504.879C142.165 505.139 141.812 505.35 141.386 505.511C140.965 505.667 140.47 505.745 139.902 505.745ZM140.569 503.856C141.085 503.856 141.533 503.754 141.912 503.551C142.29 503.342 142.582 503.068 142.785 502.727C142.993 502.386 143.098 502.014 143.098 501.612V500.326C143.017 500.393 142.88 500.454 142.686 500.511C142.496 500.568 142.283 500.617 142.047 500.66C141.81 500.703 141.575 500.741 141.343 500.774C141.111 500.807 140.91 500.835 140.74 500.859C140.356 500.911 140.013 500.996 139.71 501.115C139.407 501.233 139.168 501.399 138.993 501.612C138.817 501.82 138.73 502.09 138.73 502.421C138.73 502.895 138.903 503.252 139.248 503.494C139.594 503.735 140.034 503.856 140.569 503.856ZM148.247 505.525V494.616H150.704V496.47H150.832C151.059 495.845 151.436 495.357 151.961 495.007C152.487 494.652 153.114 494.474 153.843 494.474C154.582 494.474 155.205 494.654 155.711 495.014C156.223 495.369 156.583 495.854 156.791 496.47H156.904C157.146 495.864 157.553 495.381 158.126 495.021C158.704 494.656 159.388 494.474 160.179 494.474C161.182 494.474 162.002 494.791 162.636 495.426C163.27 496.06 163.588 496.986 163.588 498.203V505.525H161.01V498.6C161.01 497.923 160.83 497.429 160.47 497.116C160.11 496.799 159.67 496.64 159.149 496.64C158.529 496.64 158.043 496.834 157.693 497.223C157.347 497.606 157.174 498.106 157.174 498.721V505.525H154.653V498.494C154.653 497.93 154.483 497.481 154.142 497.144C153.806 496.808 153.365 496.64 152.821 496.64C152.451 496.64 152.115 496.735 151.812 496.924C151.509 497.109 151.268 497.372 151.088 497.713C150.908 498.049 150.818 498.442 150.818 498.892V505.525H148.247ZM175.915 505.738C174.85 505.738 173.927 505.504 173.146 505.035C172.364 504.566 171.758 503.911 171.327 503.068C170.901 502.225 170.688 501.24 170.688 500.113C170.688 498.986 170.901 497.999 171.327 497.152C171.758 496.304 172.364 495.646 173.146 495.177C173.927 494.708 174.85 494.474 175.915 494.474C176.981 494.474 177.904 494.708 178.685 495.177C179.467 495.646 180.07 496.304 180.496 497.152C180.927 497.999 181.143 498.986 181.143 500.113C181.143 501.24 180.927 502.225 180.496 503.068C180.07 503.911 179.467 504.566 178.685 505.035C177.904 505.504 176.981 505.738 175.915 505.738ZM175.93 503.679C176.507 503.679 176.99 503.52 177.379 503.203C177.767 502.881 178.056 502.45 178.245 501.91C178.439 501.37 178.536 500.769 178.536 500.106C178.536 499.438 178.439 498.835 178.245 498.295C178.056 497.751 177.767 497.317 177.379 496.995C176.99 496.673 176.507 496.512 175.93 496.512C175.338 496.512 174.845 496.673 174.452 496.995C174.064 497.317 173.773 497.751 173.579 498.295C173.389 498.835 173.295 499.438 173.295 500.106C173.295 500.769 173.389 501.37 173.579 501.91C173.773 502.45 174.064 502.881 174.452 503.203C174.845 503.52 175.338 503.679 175.93 503.679ZM183.325 505.525V494.616H185.818V496.434H185.931C186.13 495.805 186.471 495.319 186.954 494.978C187.442 494.633 187.998 494.46 188.623 494.46C188.765 494.46 188.924 494.467 189.099 494.481C189.279 494.491 189.428 494.507 189.547 494.531V496.896C189.438 496.858 189.265 496.825 189.028 496.796C188.796 496.763 188.571 496.747 188.353 496.747C187.885 496.747 187.463 496.849 187.089 497.052C186.72 497.251 186.429 497.528 186.216 497.883C186.002 498.238 185.896 498.648 185.896 499.112V505.525H183.325ZM204.234 494.978C204.168 494.358 203.888 493.875 203.396 493.529C202.908 493.184 202.274 493.011 201.493 493.011C200.943 493.011 200.472 493.094 200.079 493.26C199.686 493.425 199.386 493.65 199.177 493.934C198.969 494.218 198.862 494.543 198.858 494.907C198.858 495.21 198.926 495.473 199.064 495.696C199.206 495.918 199.397 496.108 199.639 496.264C199.88 496.415 200.148 496.543 200.441 496.647C200.735 496.751 201.031 496.839 201.329 496.91L202.693 497.251C203.242 497.379 203.77 497.552 204.277 497.769C204.788 497.987 205.245 498.262 205.647 498.593C206.055 498.925 206.377 499.325 206.613 499.794C206.85 500.262 206.968 500.812 206.968 501.441C206.968 502.294 206.751 503.044 206.315 503.693C205.879 504.337 205.25 504.841 204.426 505.206C203.607 505.565 202.615 505.745 201.45 505.745C200.318 505.745 199.336 505.57 198.502 505.22C197.674 504.869 197.025 504.358 196.556 503.686C196.092 503.013 195.842 502.194 195.804 501.228H198.396C198.434 501.735 198.59 502.156 198.865 502.492C199.139 502.829 199.497 503.08 199.937 503.245C200.382 503.411 200.879 503.494 201.429 503.494C202.002 503.494 202.503 503.409 202.934 503.238C203.37 503.063 203.711 502.822 203.957 502.514C204.203 502.201 204.329 501.837 204.333 501.42C204.329 501.041 204.217 500.729 204 500.483C203.782 500.232 203.476 500.023 203.083 499.858C202.695 499.687 202.241 499.536 201.72 499.403L200.065 498.977C198.867 498.669 197.92 498.203 197.224 497.578C196.533 496.948 196.187 496.112 196.187 495.071C196.187 494.214 196.419 493.463 196.883 492.819C197.352 492.175 197.989 491.676 198.794 491.321C199.599 490.961 200.51 490.781 201.528 490.781C202.56 490.781 203.465 490.961 204.241 491.321C205.022 491.676 205.636 492.171 206.081 492.805C206.526 493.435 206.755 494.159 206.77 494.978H204.234ZM213.962 505.738C212.873 505.738 211.938 505.499 211.157 505.021C210.38 504.543 209.781 503.882 209.36 503.039C208.943 502.192 208.735 501.216 208.735 500.113C208.735 499.005 208.948 498.028 209.374 497.18C209.8 496.328 210.402 495.665 211.178 495.191C211.96 494.713 212.883 494.474 213.948 494.474C214.834 494.474 215.617 494.637 216.299 494.964C216.986 495.286 217.532 495.743 217.94 496.335C218.347 496.922 218.579 497.608 218.636 498.394H216.178C216.079 497.869 215.842 497.431 215.468 497.081C215.099 496.725 214.604 496.548 213.984 496.548C213.458 496.548 212.996 496.69 212.599 496.974C212.201 497.253 211.891 497.656 211.668 498.181C211.451 498.707 211.342 499.337 211.342 500.071C211.342 500.814 211.451 501.453 211.668 501.988C211.886 502.519 212.192 502.928 212.585 503.217C212.982 503.501 213.449 503.643 213.984 503.643C214.362 503.643 214.701 503.572 214.999 503.43C215.302 503.283 215.556 503.072 215.759 502.798C215.963 502.523 216.103 502.189 216.178 501.796H218.636C218.574 502.568 218.347 503.252 217.954 503.849C217.561 504.441 217.026 504.905 216.349 505.241C215.672 505.572 214.876 505.738 213.962 505.738ZM223.886 505.745C223.195 505.745 222.572 505.622 222.018 505.376C221.469 505.125 221.033 504.756 220.711 504.268C220.394 503.78 220.235 503.179 220.235 502.464C220.235 501.849 220.349 501.34 220.576 500.937C220.804 500.535 221.114 500.213 221.507 499.971C221.9 499.73 222.342 499.547 222.835 499.424C223.332 499.296 223.846 499.204 224.376 499.147C225.015 499.081 225.534 499.022 225.931 498.97C226.329 498.913 226.618 498.828 226.798 498.714C226.983 498.596 227.075 498.413 227.075 498.167V498.125C227.075 497.59 226.916 497.175 226.599 496.882C226.282 496.588 225.825 496.441 225.228 496.441C224.599 496.441 224.099 496.579 223.73 496.853C223.365 497.128 223.119 497.452 222.991 497.826L220.591 497.485C220.78 496.822 221.092 496.269 221.528 495.823C221.964 495.374 222.496 495.037 223.126 494.815C223.756 494.588 224.452 494.474 225.214 494.474C225.74 494.474 226.263 494.536 226.784 494.659C227.305 494.782 227.78 494.985 228.211 495.269C228.642 495.549 228.988 495.93 229.248 496.413C229.513 496.896 229.646 497.5 229.646 498.224V505.525H227.174V504.027H227.089C226.933 504.33 226.713 504.614 226.429 504.879C226.149 505.139 225.797 505.35 225.37 505.511C224.949 505.667 224.454 505.745 223.886 505.745ZM224.554 503.856C225.07 503.856 225.517 503.754 225.896 503.551C226.275 503.342 226.566 503.068 226.77 502.727C226.978 502.386 227.082 502.014 227.082 501.612V500.326C227.002 500.393 226.864 500.454 226.67 500.511C226.481 500.568 226.268 500.617 226.031 500.66C225.794 500.703 225.56 500.741 225.328 500.774C225.096 500.807 224.895 500.835 224.724 500.859C224.341 500.911 223.997 500.996 223.694 501.115C223.391 501.233 223.152 501.399 222.977 501.612C222.802 501.82 222.714 502.09 222.714 502.421C222.714 502.895 222.887 503.252 223.233 503.494C223.578 503.735 224.019 503.856 224.554 503.856ZM232.231 505.525V494.616H234.689V496.47H234.816C235.044 495.845 235.42 495.357 235.946 495.007C236.471 494.652 237.099 494.474 237.828 494.474C238.566 494.474 239.189 494.654 239.696 495.014C240.207 495.369 240.567 495.854 240.775 496.47H240.889C241.13 495.864 241.538 495.381 242.11 495.021C242.688 494.656 243.372 494.474 244.163 494.474C245.167 494.474 245.986 494.791 246.62 495.426C247.255 496.06 247.572 496.986 247.572 498.203V505.525H244.994V498.6C244.994 497.923 244.814 497.429 244.454 497.116C244.094 496.799 243.654 496.64 243.133 496.64C242.513 496.64 242.028 496.834 241.677 497.223C241.332 497.606 241.159 498.106 241.159 498.721V505.525H238.637V498.494C238.637 497.93 238.467 497.481 238.126 497.144C237.79 496.808 237.35 496.64 236.805 496.64C236.436 496.64 236.1 496.735 235.797 496.924C235.493 497.109 235.252 497.372 235.072 497.713C234.892 498.049 234.802 498.442 234.802 498.892V505.525H232.231Z" fill="#212427"/>
<g opacity="0.7" filter="url(#filter5_d_31_1340)">
<rect x="115" y="366.778" width="96.0306" height="96.7472" rx="15" fill="#F1F8F1"/>
</g>
<path d="M191.865 432.176C189.488 431.614 187.521 432.137 186.209 434.222C185.158 435.892 185.192 437.664 186.278 439.297C187.56 441.222 189.437 441.788 191.751 441.266C191.184 442.675 190.38 443.842 189.378 444.87C187.081 447.226 184.272 448.55 180.986 448.563C168.753 448.609 156.519 448.625 144.287 448.564C138.294 448.535 133.069 443.513 132.66 437.6C132.215 431.166 136.521 425.6 142.706 424.637C143.426 424.524 144.162 424.478 144.892 424.478C156.747 424.469 168.603 424.476 180.458 424.466C182.109 424.465 183.691 424.749 185.232 425.337C185.735 425.529 185.975 425.766 185.965 426.351C185.948 427.364 186.033 428.378 186.087 429.391C186.152 430.646 186.961 431.423 188.236 431.444C189.156 431.46 190.079 431.477 190.998 431.436C191.515 431.412 191.818 431.551 191.865 432.176Z" fill="#00A0DC"/>
<path d="M162.716 416.949C152.795 416.99 144.712 408.959 144.637 398.986C144.562 389.082 152.647 380.917 162.566 380.881C172.571 380.845 180.682 388.87 180.714 398.835C180.744 408.817 172.705 416.908 162.716 416.949Z" fill="#00A0DC"/>
<path d="M193.328 415.336C193.131 419.907 192.929 424.479 192.743 429.05C192.723 429.549 192.553 429.768 192.023 429.756C190.844 429.728 189.663 429.728 188.482 429.756C187.963 429.768 187.788 429.586 187.766 429.066C187.551 423.882 187.314 418.698 187.082 413.514C186.914 409.744 186.747 405.974 186.571 402.204C186.476 400.147 187.789 398.494 189.779 398.195C191.583 397.925 193.377 399.153 193.807 400.994C193.908 401.422 193.911 401.883 193.893 402.327C193.714 406.663 193.522 410.999 193.333 415.334C193.332 415.336 193.33 415.336 193.328 415.336Z" fill="#00A0DC"/>
<path d="M187.197 436.692C187.203 434.989 188.548 433.654 190.261 433.651C191.936 433.648 193.328 435.049 193.312 436.721C193.297 438.397 191.898 439.784 190.231 439.777C188.545 439.768 187.191 438.393 187.197 436.692Z" fill="#00A0DC"/>
<g opacity="0.7" filter="url(#filter6_d_31_1340)">
<rect x="3" y="656.272" width="320" height="51" rx="9" fill="#F8F1F1"/>
</g>
<path d="M17.3026 688.272H14.4901L19.6108 673.727H22.8636L27.9915 688.272H25.179L21.294 676.71H21.1804L17.3026 688.272ZM17.3949 682.569H25.0653V684.686H17.3949V682.569ZM34.5575 677.363V679.352H28.2862V677.363H34.5575ZM29.8345 674.75H32.4055V684.991C32.4055 685.337 32.4576 685.602 32.5618 685.787C32.6707 685.967 32.8127 686.09 32.9879 686.156C33.1631 686.222 33.3572 686.255 33.5703 686.255C33.7313 686.255 33.8781 686.244 34.0107 686.22C34.148 686.196 34.2521 686.175 34.3232 686.156L34.7564 688.166C34.6191 688.213 34.4226 688.265 34.1669 688.322C33.916 688.379 33.6082 688.412 33.2436 688.422C32.5997 688.441 32.0196 688.343 31.5036 688.13C30.9875 687.913 30.5779 687.576 30.2749 687.122C29.9766 686.667 29.8298 686.099 29.8345 685.417V674.75ZM42.1552 677.363V679.352H35.8839V677.363H42.1552ZM37.4322 674.75H40.0032V684.991C40.0032 685.337 40.0553 685.602 40.1594 685.787C40.2683 685.967 40.4104 686.09 40.5856 686.156C40.7608 686.222 40.9549 686.255 41.168 686.255C41.329 686.255 41.4757 686.244 41.6083 686.22C41.7456 686.196 41.8498 686.175 41.9208 686.156L42.354 688.166C42.2167 688.213 42.0202 688.265 41.7646 688.322C41.5136 688.379 41.2058 688.412 40.8413 688.422C40.1973 688.441 39.6173 688.343 39.1012 688.13C38.5851 687.913 38.1755 687.576 37.8725 687.122C37.5742 686.667 37.4274 686.099 37.4322 685.417V674.75ZM49.0178 688.486C47.924 688.486 46.9794 688.258 46.1839 687.804C45.3932 687.344 44.7848 686.696 44.3587 685.858C43.9325 685.015 43.7195 684.023 43.7195 682.882C43.7195 681.76 43.9325 680.775 44.3587 679.927C44.7895 679.075 45.3909 678.412 46.1626 677.939C46.9344 677.46 47.8411 677.221 48.8828 677.221C49.5552 677.221 50.1896 677.33 50.7862 677.548C51.3875 677.761 51.9179 678.093 52.3771 678.542C52.8411 678.992 53.2057 679.565 53.4709 680.261C53.736 680.952 53.8686 681.776 53.8686 682.733V683.521H44.9268V681.788H51.4041C51.3994 681.296 51.2929 680.858 51.0845 680.474C50.8762 680.086 50.585 679.781 50.2109 679.558C49.8416 679.335 49.4107 679.224 48.9183 679.224C48.3928 679.224 47.9311 679.352 47.5334 679.608C47.1357 679.859 46.8255 680.19 46.603 680.602C46.3852 681.009 46.2739 681.457 46.2692 681.944V683.457C46.2692 684.092 46.3852 684.636 46.6172 685.091C46.8492 685.54 47.1735 685.886 47.5902 686.128C48.0069 686.364 48.4946 686.483 49.0533 686.483C49.4273 686.483 49.7659 686.431 50.0689 686.326C50.3719 686.218 50.6347 686.059 50.8572 685.851C51.0798 685.642 51.2479 685.384 51.3615 685.076L53.7621 685.346C53.6106 685.981 53.3217 686.535 52.8956 687.008C52.4742 687.477 51.9344 687.842 51.2763 688.102C50.6181 688.358 49.8653 688.486 49.0178 688.486ZM58.6147 681.88V688.272H56.0437V677.363H58.5011V679.217H58.6289C58.8799 678.606 59.2799 678.121 59.8292 677.761C60.3832 677.401 61.0674 677.221 61.8817 677.221C62.6346 677.221 63.2904 677.382 63.8491 677.704C64.4125 678.026 64.8481 678.493 65.1559 679.103C65.4684 679.714 65.6223 680.455 65.6175 681.326V688.272H63.0465V681.724C63.0465 680.995 62.8571 680.424 62.4783 680.013C62.1043 679.601 61.5858 679.395 60.9229 679.395C60.4731 679.395 60.073 679.494 59.7227 679.693C59.377 679.887 59.1048 680.169 58.9059 680.538C58.7118 680.907 58.6147 681.355 58.6147 681.88ZM72.2795 688.464C71.4225 688.464 70.6554 688.244 69.9783 687.804C69.3013 687.363 68.7662 686.724 68.3732 685.886C67.9802 685.048 67.7837 684.03 67.7837 682.832C67.7837 681.62 67.9826 680.597 68.3803 679.764C68.7828 678.926 69.3249 678.294 70.0067 677.868C70.6886 677.437 71.4485 677.221 72.2866 677.221C72.9258 677.221 73.4513 677.33 73.8633 677.548C74.2752 677.761 74.6019 678.019 74.8434 678.322C75.0849 678.62 75.2719 678.902 75.4045 679.167H75.511V673.727H78.0891V688.272H75.5607V686.554H75.4045C75.2719 686.819 75.0801 687.101 74.8292 687.399C74.5782 687.692 74.2468 687.943 73.8349 688.152C73.4229 688.36 72.9045 688.464 72.2795 688.464ZM72.9968 686.355C73.5413 686.355 74.0053 686.208 74.3888 685.915C74.7724 685.616 75.0636 685.202 75.2624 684.672C75.4613 684.141 75.5607 683.523 75.5607 682.818C75.5607 682.112 75.4613 681.499 75.2624 680.978C75.0683 680.458 74.7795 680.053 74.396 679.764C74.0172 679.475 73.5508 679.331 72.9968 679.331C72.4239 679.331 71.9457 679.48 71.5621 679.778C71.1786 680.076 70.8898 680.488 70.6957 681.014C70.5015 681.54 70.4045 682.141 70.4045 682.818C70.4045 683.5 70.5015 684.108 70.6957 684.643C70.8945 685.174 71.1857 685.593 71.5692 685.9C71.9575 686.203 72.4334 686.355 72.9968 686.355ZM88.5384 673.727V688.272H85.9034V673.727H88.5384ZM93.8491 681.88V688.272H91.2781V677.363H93.7354V679.217H93.8633C94.1142 678.606 94.5143 678.121 95.0636 677.761C95.6175 677.401 96.3017 677.221 97.1161 677.221C97.869 677.221 98.5247 677.382 99.0835 677.704C99.6469 678.026 100.083 678.493 100.39 679.103C100.703 679.714 100.857 680.455 100.852 681.326V688.272H98.2809V681.724C98.2809 680.995 98.0915 680.424 97.7127 680.013C97.3387 679.601 96.8202 679.395 96.1573 679.395C95.7075 679.395 95.3074 679.494 94.957 679.693C94.6114 679.887 94.3391 680.169 94.1403 680.538C93.9461 680.907 93.8491 681.355 93.8491 681.88ZM108.913 677.363V679.352H102.642V677.363H108.913ZM104.19 674.75H106.761V684.991C106.761 685.337 106.813 685.602 106.917 685.787C107.026 685.967 107.168 686.09 107.343 686.156C107.519 686.222 107.713 686.255 107.926 686.255C108.087 686.255 108.234 686.244 108.366 686.22C108.503 686.196 108.608 686.175 108.679 686.156L109.112 688.166C108.975 688.213 108.778 688.265 108.522 688.322C108.271 688.379 107.964 688.412 107.599 688.422C106.955 688.441 106.375 688.343 105.859 688.13C105.343 687.913 104.933 687.576 104.63 687.122C104.332 686.667 104.185 686.099 104.19 685.417V674.75ZM115.776 688.486C114.682 688.486 113.737 688.258 112.942 687.804C112.151 687.344 111.543 686.696 111.116 685.858C110.69 685.015 110.477 684.023 110.477 682.882C110.477 681.76 110.69 680.775 111.116 679.927C111.547 679.075 112.149 678.412 112.92 677.939C113.692 677.46 114.599 677.221 115.641 677.221C116.313 677.221 116.947 677.33 117.544 677.548C118.145 677.761 118.676 678.093 119.135 678.542C119.599 678.992 119.964 679.565 120.229 680.261C120.494 680.952 120.626 681.776 120.626 682.733V683.521H111.685V681.788H118.162C118.157 681.296 118.051 680.858 117.842 680.474C117.634 680.086 117.343 679.781 116.969 679.558C116.599 679.335 116.169 679.224 115.676 679.224C115.151 679.224 114.689 679.352 114.291 679.608C113.893 679.859 113.583 680.19 113.361 680.602C113.143 681.009 113.032 681.457 113.027 681.944V683.457C113.027 684.092 113.143 684.636 113.375 685.091C113.607 685.54 113.931 685.886 114.348 686.128C114.765 686.364 115.252 686.483 115.811 686.483C116.185 686.483 116.524 686.431 116.827 686.326C117.13 686.218 117.393 686.059 117.615 685.851C117.838 685.642 118.006 685.384 118.119 685.076L120.52 685.346C120.368 685.981 120.08 686.535 119.653 687.008C119.232 687.477 118.692 687.842 118.034 688.102C117.376 688.358 116.623 688.486 115.776 688.486ZM122.801 688.272V677.363H125.294V679.182H125.408C125.607 678.552 125.948 678.066 126.431 677.726C126.918 677.38 127.475 677.207 128.1 677.207C128.242 677.207 128.4 677.214 128.576 677.228C128.756 677.238 128.905 677.254 129.023 677.278V679.643C128.914 679.605 128.741 679.572 128.505 679.544C128.273 679.511 128.048 679.494 127.83 679.494C127.361 679.494 126.94 679.596 126.566 679.799C126.196 679.998 125.905 680.275 125.692 680.63C125.479 680.986 125.373 681.395 125.373 681.859V688.272H122.801ZM140.808 677.363L136.923 688.272H134.082L130.197 677.363H132.938L135.445 685.467H135.559L138.073 677.363H140.808ZM142.587 688.272V677.363H145.158V688.272H142.587ZM143.879 675.815C143.472 675.815 143.122 675.68 142.828 675.41C142.535 675.136 142.388 674.807 142.388 674.423C142.388 674.035 142.535 673.706 142.828 673.436C143.122 673.161 143.472 673.024 143.879 673.024C144.291 673.024 144.642 673.161 144.93 673.436C145.224 673.706 145.371 674.035 145.371 674.423C145.371 674.807 145.224 675.136 144.93 675.41C144.642 675.68 144.291 675.815 143.879 675.815ZM152.631 688.486C151.537 688.486 150.593 688.258 149.797 687.804C149.007 687.344 148.398 686.696 147.972 685.858C147.546 685.015 147.333 684.023 147.333 682.882C147.333 681.76 147.546 680.775 147.972 679.927C148.403 679.075 149.004 678.412 149.776 677.939C150.548 677.46 151.454 677.221 152.496 677.221C153.168 677.221 153.803 677.33 154.4 677.548C155.001 677.761 155.531 678.093 155.99 678.542C156.454 678.992 156.819 679.565 157.084 680.261C157.349 680.952 157.482 681.776 157.482 682.733V683.521H148.54V681.788H155.017C155.013 681.296 154.906 680.858 154.698 680.474C154.489 680.086 154.198 679.781 153.824 679.558C153.455 679.335 153.024 679.224 152.532 679.224C152.006 679.224 151.544 679.352 151.147 679.608C150.749 679.859 150.439 680.19 150.216 680.602C149.998 681.009 149.887 681.457 149.882 681.944V683.457C149.882 684.092 149.998 684.636 150.23 685.091C150.462 685.54 150.787 685.886 151.203 686.128C151.62 686.364 152.108 686.483 152.667 686.483C153.041 686.483 153.379 686.431 153.682 686.326C153.985 686.218 154.248 686.059 154.471 685.851C154.693 685.642 154.861 685.384 154.975 685.076L157.375 685.346C157.224 685.981 156.935 686.535 156.509 687.008C156.087 687.477 155.548 687.842 154.89 688.102C154.231 688.358 153.479 688.486 152.631 688.486ZM161.85 688.272L158.767 677.363H161.388L163.306 685.034H163.405L165.365 677.363H167.958L169.918 684.991H170.025L171.914 677.363H174.542L171.452 688.272H168.775L166.729 680.9H166.58L164.534 688.272H161.85ZM191.042 677.363L187.157 688.272H184.316L180.431 677.363H183.173L185.68 685.467H185.793L188.308 677.363H191.042ZM192.821 688.272V677.363H195.392V688.272H192.821ZM194.114 675.815C193.706 675.815 193.356 675.68 193.062 675.41C192.769 675.136 192.622 674.807 192.622 674.423C192.622 674.035 192.769 673.706 193.062 673.436C193.356 673.161 193.706 673.024 194.114 673.024C194.526 673.024 194.876 673.161 195.165 673.436C195.458 673.706 195.605 674.035 195.605 674.423C195.605 674.807 195.458 675.136 195.165 675.41C194.876 675.68 194.526 675.815 194.114 675.815ZM201.175 688.493C200.484 688.493 199.861 688.37 199.307 688.123C198.758 687.872 198.322 687.503 198 687.015C197.683 686.528 197.525 685.926 197.525 685.211C197.525 684.596 197.638 684.087 197.865 683.684C198.093 683.282 198.403 682.96 198.796 682.718C199.189 682.477 199.632 682.295 200.124 682.172C200.621 682.044 201.135 681.951 201.665 681.895C202.304 681.828 202.823 681.769 203.221 681.717C203.618 681.66 203.907 681.575 204.087 681.461C204.272 681.343 204.364 681.161 204.364 680.915V680.872C204.364 680.337 204.205 679.923 203.888 679.629C203.571 679.335 203.114 679.189 202.517 679.189C201.888 679.189 201.388 679.326 201.019 679.601C200.654 679.875 200.408 680.2 200.28 680.574L197.88 680.233C198.069 679.57 198.382 679.016 198.817 678.571C199.253 678.121 199.785 677.785 200.415 677.562C201.045 677.335 201.741 677.221 202.503 677.221C203.029 677.221 203.552 677.283 204.073 677.406C204.594 677.529 205.069 677.733 205.5 678.017C205.931 678.296 206.277 678.677 206.537 679.16C206.802 679.643 206.935 680.247 206.935 680.971V688.272H204.463V686.774H204.378C204.222 687.077 204.002 687.361 203.718 687.626C203.438 687.887 203.086 688.097 202.659 688.258C202.238 688.415 201.743 688.493 201.175 688.493ZM201.843 686.603C202.359 686.603 202.806 686.502 203.185 686.298C203.564 686.09 203.855 685.815 204.059 685.474C204.267 685.133 204.371 684.762 204.371 684.359V683.074C204.291 683.14 204.153 683.201 203.959 683.258C203.77 683.315 203.557 683.365 203.32 683.407C203.083 683.45 202.849 683.488 202.617 683.521C202.385 683.554 202.184 683.583 202.013 683.606C201.63 683.658 201.286 683.744 200.983 683.862C200.68 683.98 200.441 684.146 200.266 684.359C200.091 684.567 200.003 684.837 200.003 685.169C200.003 685.642 200.176 686 200.522 686.241C200.867 686.483 201.308 686.603 201.843 686.603ZM216.541 673.727L220.326 685.176H220.475L224.254 673.727H227.152L222.024 688.272H218.771L213.65 673.727H216.541ZM228.954 688.272V677.363H231.525V688.272H228.954ZM230.246 675.815C229.839 675.815 229.489 675.68 229.195 675.41C228.902 675.136 228.755 674.807 228.755 674.423C228.755 674.035 228.902 673.706 229.195 673.436C229.489 673.161 229.839 673.024 230.246 673.024C230.658 673.024 231.009 673.161 231.298 673.436C231.591 673.706 231.738 674.035 231.738 674.423C231.738 674.807 231.591 675.136 231.298 675.41C231.009 675.68 230.658 675.815 230.246 675.815ZM238.217 688.464C237.36 688.464 236.593 688.244 235.916 687.804C235.239 687.363 234.704 686.724 234.311 685.886C233.918 685.048 233.721 684.03 233.721 682.832C233.721 681.62 233.92 680.597 234.318 679.764C234.72 678.926 235.262 678.294 235.944 677.868C236.626 677.437 237.386 677.221 238.224 677.221C238.863 677.221 239.389 677.33 239.801 677.548C240.213 677.761 240.539 678.019 240.781 678.322C241.022 678.62 241.209 678.902 241.342 679.167H241.449V673.727H244.027V688.272H241.498V686.554H241.342C241.209 686.819 241.018 687.101 240.767 687.399C240.516 687.692 240.184 687.943 239.772 688.152C239.36 688.36 238.842 688.464 238.217 688.464ZM238.934 686.355C239.479 686.355 239.943 686.208 240.326 685.915C240.71 685.616 241.001 685.202 241.2 684.672C241.399 684.141 241.498 683.523 241.498 682.818C241.498 682.112 241.399 681.499 241.2 680.978C241.006 680.458 240.717 680.053 240.333 679.764C239.955 679.475 239.488 679.331 238.934 679.331C238.361 679.331 237.883 679.48 237.5 679.778C237.116 680.076 236.827 680.488 236.633 681.014C236.439 681.54 236.342 682.141 236.342 682.818C236.342 683.5 236.439 684.108 236.633 684.643C236.832 685.174 237.123 685.593 237.507 685.9C237.895 686.203 238.371 686.355 238.934 686.355ZM251.596 688.486C250.502 688.486 249.558 688.258 248.762 687.804C247.971 687.344 247.363 686.696 246.937 685.858C246.511 685.015 246.298 684.023 246.298 682.882C246.298 681.76 246.511 680.775 246.937 679.927C247.368 679.075 247.969 678.412 248.741 677.939C249.513 677.46 250.419 677.221 251.461 677.221C252.133 677.221 252.768 677.33 253.364 677.548C253.966 677.761 254.496 678.093 254.955 678.542C255.419 678.992 255.784 679.565 256.049 680.261C256.314 680.952 256.447 681.776 256.447 682.733V683.521H247.505V681.788H253.982C253.978 681.296 253.871 680.858 253.663 680.474C253.454 680.086 253.163 679.781 252.789 679.558C252.42 679.335 251.989 679.224 251.496 679.224C250.971 679.224 250.509 679.352 250.112 679.608C249.714 679.859 249.404 680.19 249.181 680.602C248.963 681.009 248.852 681.457 248.847 681.944V683.457C248.847 684.092 248.963 684.636 249.195 685.091C249.427 685.54 249.752 685.886 250.168 686.128C250.585 686.364 251.073 686.483 251.631 686.483C252.005 686.483 252.344 686.431 252.647 686.326C252.95 686.218 253.213 686.059 253.435 685.851C253.658 685.642 253.826 685.384 253.94 685.076L256.34 685.346C256.189 685.981 255.9 686.535 255.474 687.008C255.052 687.477 254.513 687.842 253.854 688.102C253.196 688.358 252.443 688.486 251.596 688.486ZM263.38 688.486C262.315 688.486 261.392 688.251 260.61 687.782C259.829 687.314 259.223 686.658 258.792 685.815C258.366 684.972 258.153 683.987 258.153 682.861C258.153 681.734 258.366 680.746 258.792 679.899C259.223 679.051 259.829 678.393 260.61 677.924C261.392 677.456 262.315 677.221 263.38 677.221C264.446 677.221 265.369 677.456 266.15 677.924C266.931 678.393 267.535 679.051 267.961 679.899C268.392 680.746 268.608 681.734 268.608 682.861C268.608 683.987 268.392 684.972 267.961 685.815C267.535 686.658 266.931 687.314 266.15 687.782C265.369 688.251 264.446 688.486 263.38 688.486ZM263.395 686.426C263.972 686.426 264.455 686.267 264.843 685.95C265.232 685.628 265.52 685.197 265.71 684.657C265.904 684.118 266.001 683.516 266.001 682.853C266.001 682.186 265.904 681.582 265.71 681.042C265.52 680.498 265.232 680.065 264.843 679.743C264.455 679.421 263.972 679.26 263.395 679.26C262.803 679.26 262.31 679.421 261.917 679.743C261.529 680.065 261.238 680.498 261.044 681.042C260.854 681.582 260.76 682.186 260.76 682.853C260.76 683.516 260.854 684.118 261.044 684.657C261.238 685.197 261.529 685.628 261.917 685.95C262.31 686.267 262.803 686.426 263.395 686.426ZM288.315 678.635H285.658C285.583 678.199 285.443 677.813 285.239 677.477C285.036 677.136 284.782 676.847 284.479 676.611C284.176 676.374 283.831 676.196 283.442 676.078C283.059 675.955 282.645 675.893 282.2 675.893C281.409 675.893 280.708 676.092 280.097 676.49C279.487 676.883 279.008 677.46 278.663 678.223C278.317 678.98 278.144 679.906 278.144 681C278.144 682.112 278.317 683.05 278.663 683.812C279.013 684.57 279.491 685.143 280.097 685.531C280.708 685.915 281.406 686.106 282.192 686.106C282.628 686.106 283.035 686.049 283.414 685.936C283.798 685.817 284.141 685.645 284.444 685.417C284.752 685.19 285.01 684.911 285.218 684.579C285.431 684.248 285.578 683.869 285.658 683.443L288.315 683.457C288.215 684.148 288 684.797 287.668 685.403C287.342 686.009 286.913 686.544 286.383 687.008C285.853 687.468 285.232 687.827 284.522 688.088C283.812 688.343 283.023 688.471 282.157 688.471C280.879 688.471 279.737 688.175 278.734 687.584C277.73 686.992 276.939 686.137 276.362 685.02C275.784 683.902 275.495 682.562 275.495 681C275.495 679.432 275.786 678.093 276.369 676.98C276.951 675.862 277.744 675.008 278.748 674.416C279.752 673.824 280.888 673.528 282.157 673.528C282.967 673.528 283.719 673.642 284.415 673.869C285.112 674.096 285.732 674.43 286.276 674.87C286.821 675.306 287.268 675.841 287.619 676.476C287.974 677.105 288.206 677.825 288.315 678.635ZM293.753 688.493C293.062 688.493 292.439 688.37 291.885 688.123C291.336 687.872 290.9 687.503 290.578 687.015C290.261 686.528 290.103 685.926 290.103 685.211C290.103 684.596 290.216 684.087 290.444 683.684C290.671 683.282 290.981 682.96 291.374 682.718C291.767 682.477 292.21 682.295 292.702 682.172C293.199 682.044 293.713 681.951 294.243 681.895C294.882 681.828 295.401 681.769 295.799 681.717C296.196 681.66 296.485 681.575 296.665 681.461C296.85 681.343 296.942 681.161 296.942 680.915V680.872C296.942 680.337 296.783 679.923 296.466 679.629C296.149 679.335 295.692 679.189 295.096 679.189C294.466 679.189 293.966 679.326 293.597 679.601C293.232 679.875 292.986 680.2 292.858 680.574L290.458 680.233C290.647 679.57 290.96 679.016 291.395 678.571C291.831 678.121 292.364 677.785 292.993 677.562C293.623 677.335 294.319 677.221 295.081 677.221C295.607 677.221 296.13 677.283 296.651 677.406C297.172 677.529 297.648 677.733 298.078 678.017C298.509 678.296 298.855 678.677 299.115 679.16C299.381 679.643 299.513 680.247 299.513 680.971V688.272H297.042V686.774H296.956C296.8 687.077 296.58 687.361 296.296 687.626C296.016 687.887 295.664 688.097 295.238 688.258C294.816 688.415 294.321 688.493 293.753 688.493ZM294.421 686.603C294.937 686.603 295.384 686.502 295.763 686.298C296.142 686.09 296.433 685.815 296.637 685.474C296.845 685.133 296.949 684.762 296.949 684.359V683.074C296.869 683.14 296.731 683.201 296.537 683.258C296.348 683.315 296.135 683.365 295.898 683.407C295.661 683.45 295.427 683.488 295.195 683.521C294.963 683.554 294.762 683.583 294.591 683.606C294.208 683.658 293.864 683.744 293.561 683.862C293.258 683.98 293.019 684.146 292.844 684.359C292.669 684.567 292.581 684.837 292.581 685.169C292.581 685.642 292.754 686 293.1 686.241C293.445 686.483 293.886 686.603 294.421 686.603ZM304.669 673.727V688.272H302.098V673.727H304.669ZM309.884 673.727V688.272H307.313V673.727H309.884Z" fill="#212427"/>
<g opacity="0.7" filter="url(#filter7_d_31_1340)">
<rect x="114" y="549.525" width="97.1082" height="96.7472" rx="15" fill="#F8F1F1"/>
</g>
<path d="M181.246 601.39C174.69 599.781 171.429 593.892 172.134 588.203C172.851 582.419 177.522 578.137 183.099 578.06C188.754 577.983 193.465 582.116 194.337 588.058C195.151 593.605 191.974 599.769 185.138 601.33C186.215 601.488 187.236 601.566 188.224 601.795C195.385 603.452 200.326 609.711 200.494 617.412C200.574 621.034 200.542 624.66 200.504 628.283C200.469 631.527 198.284 633.769 195.162 633.777C187.214 633.797 179.264 633.797 171.316 633.777C168.334 633.769 166.086 631.658 166.025 628.597C165.942 624.386 165.884 620.162 166.128 615.963C166.561 608.524 172.833 602.105 179.967 601.517C180.394 601.481 180.82 601.432 181.246 601.39Z" fill="#00A0DC"/>
<path d="M166.888 605.034C164.873 607.677 163.549 610.42 162.982 613.506C162.735 614.85 162.591 616.232 162.567 617.6C162.508 620.858 162.548 624.119 162.548 627.38C162.548 627.682 162.548 627.985 162.548 628.389C162.19 628.389 161.903 628.389 161.615 628.389C152.531 628.389 143.448 628.351 134.364 628.416C132.194 628.431 131.182 626.936 131.587 624.873C132.221 621.654 134.698 619.437 137.868 619.414C140.883 619.393 143.898 619.409 146.967 619.409C146.967 618.221 146.967 617.087 146.967 615.826C146.657 615.826 146.346 615.826 146.036 615.826C141.858 615.826 137.68 615.845 133.502 615.821C129.118 615.795 125.693 612.978 124.794 608.663C124.64 607.928 124.589 607.158 124.589 606.404C124.577 594.685 124.574 582.967 124.585 571.247C124.589 566.465 127.396 562.849 131.744 562.006C132.374 561.884 133.031 561.872 133.675 561.872C148.904 561.865 164.134 561.862 179.362 561.87C184.788 561.872 188.418 565.685 188.424 571.352C188.425 572.671 188.424 573.99 188.424 575.269C186.712 574.938 185.033 574.614 183.248 574.27C183.248 573.295 183.253 572.206 183.246 571.117C183.234 568.751 181.84 567.268 179.567 567.267C164.203 567.259 148.839 567.259 133.475 567.267C131.167 567.268 129.762 568.746 129.759 571.173C129.751 581.15 129.751 591.126 129.759 601.102C129.762 603.568 131.218 605.031 133.645 605.031C144.346 605.034 155.046 605.033 165.747 605.033C166.063 605.034 166.377 605.034 166.888 605.034ZM153.942 610.391C153.937 611.886 155.047 613.083 156.465 613.112C157.893 613.141 159.109 611.888 159.097 610.397C159.086 608.925 157.937 607.744 156.511 607.738C155.074 607.733 153.946 608.897 153.942 610.391Z" fill="#00A0DC"/>
<path d="M154.911 586.903C149.918 585.596 148.344 581.146 148.84 577.706C149.414 573.718 152.765 570.796 156.653 570.851C160.383 570.904 163.685 573.9 164.167 577.667C164.74 582.158 162.414 585.581 157.845 586.97C165.779 586.378 170.575 593.082 169.354 601.365C160.806 601.365 152.252 601.365 143.702 601.365C142.96 595.205 144.61 589.675 151.031 587.504C152.324 587.067 153.755 587.071 154.911 586.903Z" fill="#00A0DC"/>
<defs>
<filter id="filter0_d_31_1340" x="8" y="286.778" width="311.506" height="60" filterUnits="userSpaceOnUse" color-interpolation-filters="sRGB">
<feFlood flood-opacity="0" result="BackgroundImageFix"/>
<feColorMatrix in="SourceAlpha" type="matrix" values="0 0 0 0 0 0 0 0 0 0 0 0 0 0 0 0 0 0 127 0" result="hardAlpha"/>
<feOffset dx="1" dy="1"/>
<feGaussianBlur stdDeviation="2"/>
<feComposite in2="hardAlpha" operator="out"/>
<feColorMatrix type="matrix" values="0 0 0 0 0 0 0 0 0 0 0 0 0 0 0 0 0 0 0.15 0"/>
<feBlend mode="normal" in2="BackgroundImageFix" result="effect1_dropShadow_31_1340"/>
<feBlend mode="normal" in="SourceGraphic" in2="effect1_dropShadow_31_1340" result="shape"/>
</filter>
<filter id="filter1_d_31_1340" x="111" y="183.747" width="104.031" height="104.031" filterUnits="userSpaceOnUse" color-interpolation-filters="sRGB">
<feFlood flood-opacity="0" result="BackgroundImageFix"/>
<feColorMatrix in="SourceAlpha" type="matrix" values="0 0 0 0 0 0 0 0 0 0 0 0 0 0 0 0 0 0 127 0" result="hardAlpha"/>
<feOffset dy="4"/>
<feGaussianBlur stdDeviation="2"/>
<feComposite in2="hardAlpha" operator="out"/>
<feColorMatrix type="matrix" values="0 0 0 0 0 0 0 0 0 0 0 0 0 0 0 0 0 0 0.1 0"/>
<feBlend mode="normal" in2="BackgroundImageFix" result="effect1_dropShadow_31_1340"/>
<feBlend mode="normal" in="SourceGraphic" in2="effect1_dropShadow_31_1340" result="shape"/>
</filter>
<filter id="filter2_d_31_1340" x="0" y="103.747" width="328" height="60" filterUnits="userSpaceOnUse" color-interpolation-filters="sRGB">
<feFlood flood-opacity="0" result="BackgroundImageFix"/>
<feColorMatrix in="SourceAlpha" type="matrix" values="0 0 0 0 0 0 0 0 0 0 0 0 0 0 0 0 0 0 127 0" result="hardAlpha"/>
<feOffset dx="1" dy="1"/>
<feGaussianBlur stdDeviation="2"/>
<feComposite in2="hardAlpha" operator="out"/>
<feColorMatrix type="matrix" values="0 0 0 0 0 0 0 0 0 0 0 0 0 0 0 0 0 0 0.15 0"/>
<feBlend mode="normal" in2="BackgroundImageFix" result="effect1_dropShadow_31_1340"/>
<feBlend mode="normal" in="SourceGraphic" in2="effect1_dropShadow_31_1340" result="shape"/>
</filter>
<filter id="filter3_d_31_1340" x="111" y="0" width="104.748" height="104.747" filterUnits="userSpaceOnUse" color-interpolation-filters="sRGB">
<feFlood flood-opacity="0" result="BackgroundImageFix"/>
<feColorMatrix in="SourceAlpha" type="matrix" values="0 0 0 0 0 0 0 0 0 0 0 0 0 0 0 0 0 0 127 0" result="hardAlpha"/>
<feOffset dy="4"/>
<feGaussianBlur stdDeviation="2"/>
<feComposite in2="hardAlpha" operator="out"/>
<feColorMatrix type="matrix" values="0 0 0 0 0 0 0 0 0 0 0 0 0 0 0 0 0 0 0.1 0"/>
<feBlend mode="normal" in2="BackgroundImageFix" result="effect1_dropShadow_31_1340"/>
<feBlend mode="normal" in="SourceGraphic" in2="effect1_dropShadow_31_1340" result="shape"/>
</filter>
<filter id="filter4_d_31_1340" x="0" y="470.525" width="328" height="59" filterUnits="userSpaceOnUse" color-interpolation-filters="sRGB">
<feFlood flood-opacity="0" result="BackgroundImageFix"/>
<feColorMatrix in="SourceAlpha" type="matrix" values="0 0 0 0 0 0 0 0 0 0 0 0 0 0 0 0 0 0 127 0" result="hardAlpha"/>
<feOffset dx="1" dy="1"/>
<feGaussianBlur stdDeviation="2"/>
<feComposite in2="hardAlpha" operator="out"/>
<feColorMatrix type="matrix" values="0 0 0 0 0 0 0 0 0 0 0 0 0 0 0 0 0 0 0.15 0"/>
<feBlend mode="normal" in2="BackgroundImageFix" result="effect1_dropShadow_31_1340"/>
<feBlend mode="normal" in="SourceGraphic" in2="effect1_dropShadow_31_1340" result="shape"/>
</filter>
<filter id="filter5_d_31_1340" x="111" y="366.778" width="104.031" height="104.747" filterUnits="userSpaceOnUse" color-interpolation-filters="sRGB">
<feFlood flood-opacity="0" result="BackgroundImageFix"/>
<feColorMatrix in="SourceAlpha" type="matrix" values="0 0 0 0 0 0 0 0 0 0 0 0 0 0 0 0 0 0 127 0" result="hardAlpha"/>
<feOffset dy="4"/>
<feGaussianBlur stdDeviation="2"/>
<feComposite in2="hardAlpha" operator="out"/>
<feColorMatrix type="matrix" values="0 0 0 0 0 0 0 0 0 0 0 0 0 0 0 0 0 0 0.1 0"/>
<feBlend mode="normal" in2="BackgroundImageFix" result="effect1_dropShadow_31_1340"/>
<feBlend mode="normal" in="SourceGraphic" in2="effect1_dropShadow_31_1340" result="shape"/>
</filter>
<filter id="filter6_d_31_1340" x="0" y="653.272" width="328" height="59" filterUnits="userSpaceOnUse" color-interpolation-filters="sRGB">
<feFlood flood-opacity="0" result="BackgroundImageFix"/>
<feColorMatrix in="SourceAlpha" type="matrix" values="0 0 0 0 0 0 0 0 0 0 0 0 0 0 0 0 0 0 127 0" result="hardAlpha"/>
<feOffset dx="1" dy="1"/>
<feGaussianBlur stdDeviation="2"/>
<feComposite in2="hardAlpha" operator="out"/>
<feColorMatrix type="matrix" values="0 0 0 0 0 0 0 0 0 0 0 0 0 0 0 0 0 0 0.15 0"/>
<feBlend mode="normal" in2="BackgroundImageFix" result="effect1_dropShadow_31_1340"/>
<feBlend mode="normal" in="SourceGraphic" in2="effect1_dropShadow_31_1340" result="shape"/>
</filter>
<filter id="filter7_d_31_1340" x="110" y="549.525" width="105.107" height="104.747" filterUnits="userSpaceOnUse" color-interpolation-filters="sRGB">
<feFlood flood-opacity="0" result="BackgroundImageFix"/>
<feColorMatrix in="SourceAlpha" type="matrix" values="0 0 0 0 0 0 0 0 0 0 0 0 0 0 0 0 0 0 127 0" result="hardAlpha"/>
<feOffset dy="4"/>
<feGaussianBlur stdDeviation="2"/>
<feComposite in2="hardAlpha" operator="out"/>
<feColorMatrix type="matrix" values="0 0 0 0 0 0 0 0 0 0 0 0 0 0 0 0 0 0 0.1 0"/>
<feBlend mode="normal" in2="BackgroundImageFix" result="effect1_dropShadow_31_1340"/>
<feBlend mode="normal" in="SourceGraphic" in2="effect1_dropShadow_31_1340" result="shape"/>
</filter>
</defs>
</svg>
