<svg width="1131" height="927" viewBox="0 0 1131 927" fill="none" xmlns="http://www.w3.org/2000/svg">
<path d="M457.478 26.6364C457.478 30.1626 456.818 33.1829 455.497 35.6971C454.187 38.2006 452.397 40.1183 450.128 41.4499C447.869 42.7816 445.307 43.4474 442.441 43.4474C439.575 43.4474 437.008 42.7816 434.739 41.4499C432.48 40.1076 430.69 38.1847 429.369 35.6811C428.059 33.1669 427.404 30.152 427.404 26.6364C427.404 23.1101 428.059 20.0952 429.369 17.5916C430.69 15.0774 432.48 13.1545 434.739 11.8228C437.008 10.4911 439.575 9.82528 442.441 9.82528C445.307 9.82528 447.869 10.4911 450.128 11.8228C452.397 13.1545 454.187 15.0774 455.497 17.5916C456.818 20.0952 457.478 23.1101 457.478 26.6364ZM451.518 26.6364C451.518 24.1541 451.129 22.0607 450.351 20.3562C449.584 18.641 448.519 17.3466 447.155 16.473C445.792 15.5888 444.22 15.1467 442.441 15.1467C440.662 15.1467 439.091 15.5888 437.727 16.473C436.363 17.3466 435.293 18.641 434.515 20.3562C433.748 22.0607 433.364 24.1541 433.364 26.6364C433.364 29.1186 433.748 31.2173 434.515 32.9325C435.293 34.6371 436.363 35.9315 437.727 36.8157C439.091 37.6893 440.662 38.1261 442.441 38.1261C444.22 38.1261 445.792 37.6893 447.155 36.8157C448.519 35.9315 449.584 34.6371 450.351 32.9325C451.129 31.2173 451.518 29.1186 451.518 26.6364ZM478.472 32.6768V18.4545H484.257V43H478.648V38.6374H478.392C477.838 40.0117 476.928 41.1357 475.66 42.0092C474.403 42.8828 472.853 43.3196 471.01 43.3196C469.401 43.3196 467.979 42.9627 466.743 42.2489C465.518 41.5245 464.559 40.4751 463.866 39.1009C463.174 37.7159 462.828 36.0433 462.828 34.0831V18.4545H468.613V33.1882C468.613 34.7436 469.039 35.9794 469.891 36.8956C470.743 37.8118 471.862 38.2699 473.247 38.2699C474.099 38.2699 474.925 38.0621 475.724 37.6467C476.523 37.2312 477.178 36.6133 477.689 35.793C478.211 34.962 478.472 33.9233 478.472 32.6768ZM490.206 43V18.4545H495.815V22.5455H496.07C496.518 21.1286 497.285 20.0366 498.372 19.2695C499.469 18.4918 500.721 18.103 502.127 18.103C502.446 18.103 502.803 18.119 503.198 18.1509C503.602 18.1722 503.938 18.2095 504.204 18.2628V23.5842C503.959 23.4989 503.57 23.4244 503.038 23.3604C502.516 23.2859 502.01 23.2486 501.52 23.2486C500.465 23.2486 499.517 23.4776 498.675 23.9357C497.844 24.3832 497.189 25.0064 496.71 25.8054C496.23 26.6044 495.991 27.5259 495.991 28.57V43H490.206ZM519.465 43V10.2727H540.431V15.2425H525.394V24.1275H538.993V29.0973H525.394V43H519.465ZM554.642 43.4794C552.181 43.4794 550.055 42.968 548.265 41.9453C546.486 40.9119 545.117 39.4524 544.159 37.5668C543.2 35.6705 542.72 33.4386 542.72 30.8711C542.72 28.3462 543.2 26.1303 544.159 24.2234C545.128 22.3058 546.481 20.8143 548.218 19.7489C549.954 18.6729 551.994 18.1349 554.338 18.1349C555.851 18.1349 557.278 18.38 558.621 18.87C559.974 19.3494 561.167 20.0952 562.2 21.1072C563.244 22.1193 564.064 23.4084 564.661 24.9744C565.258 26.5298 565.556 28.3835 565.556 30.5355V32.3093H545.437V28.4102H560.011C560 27.3022 559.76 26.3168 559.292 25.4538C558.823 24.5803 558.168 23.8931 557.326 23.3924C556.495 22.8917 555.526 22.6413 554.418 22.6413C553.235 22.6413 552.197 22.929 551.302 23.5043C550.407 24.0689 549.709 24.8146 549.208 25.7415C548.718 26.6577 548.468 27.6644 548.457 28.7617V32.1655C548.457 33.593 548.718 34.8182 549.24 35.8409C549.762 36.853 550.492 37.6307 551.43 38.174C552.367 38.7067 553.464 38.973 554.721 38.973C555.563 38.973 556.325 38.8558 557.007 38.6214C557.688 38.3764 558.28 38.0195 558.78 37.5508C559.281 37.082 559.659 36.5014 559.915 35.8089L565.316 36.4162C564.975 37.8437 564.325 39.0902 563.367 40.1555C562.419 41.2102 561.204 42.0305 559.723 42.6165C558.242 43.1918 556.548 43.4794 554.642 43.4794ZM577.513 43.4954C575.958 43.4954 574.557 43.2184 573.31 42.6644C572.074 42.0998 571.094 41.2688 570.37 40.1715C569.656 39.0742 569.299 37.7212 569.299 36.1126C569.299 34.7276 569.555 33.5824 570.066 32.6768C570.578 31.7713 571.275 31.0469 572.16 30.5036C573.044 29.9602 574.04 29.5501 575.148 29.2731C576.267 28.9854 577.422 28.7777 578.616 28.6499C580.054 28.5007 581.22 28.3675 582.115 28.2504C583.01 28.1225 583.66 27.9308 584.065 27.6751C584.48 27.4087 584.688 26.9986 584.688 26.4446V26.3487C584.688 25.1449 584.331 24.2127 583.617 23.5522C582.904 22.8917 581.876 22.5614 580.533 22.5614C579.116 22.5614 577.992 22.8704 577.161 23.4883C576.341 24.1062 575.787 24.8359 575.5 25.6776L570.098 24.9105C570.524 23.419 571.228 22.1726 572.208 21.1712C573.188 20.1591 574.386 19.4027 575.803 18.902C577.22 18.3906 578.786 18.1349 580.501 18.1349C581.684 18.1349 582.861 18.2734 584.033 18.5504C585.205 18.8274 586.275 19.2855 587.245 19.9247C588.214 20.5533 588.992 21.4109 589.578 22.4975C590.175 23.5842 590.473 24.9425 590.473 26.5724V43H584.912V39.6282H584.72C584.369 40.31 583.873 40.9492 583.234 41.5458C582.605 42.1317 581.812 42.6058 580.853 42.968C579.905 43.3196 578.791 43.4954 577.513 43.4954ZM579.015 39.2447C580.176 39.2447 581.183 39.0156 582.035 38.5575C582.888 38.0888 583.543 37.4709 584.001 36.7038C584.47 35.9368 584.704 35.1005 584.704 34.195V31.3026C584.523 31.4517 584.214 31.5902 583.777 31.718C583.351 31.8459 582.872 31.9577 582.339 32.0536C581.806 32.1495 581.279 32.2347 580.757 32.3093C580.235 32.3839 579.782 32.4478 579.399 32.5011C578.536 32.6183 577.763 32.81 577.082 33.0763C576.4 33.3427 575.862 33.7156 575.468 34.195C575.073 34.6637 574.876 35.271 574.876 36.0167C574.876 37.082 575.265 37.8864 576.043 38.4297C576.821 38.973 577.811 39.2447 579.015 39.2447ZM608.546 18.4545V22.929H594.436V18.4545H608.546ZM597.92 12.5739H603.704V35.6172C603.704 36.3949 603.822 36.9915 604.056 37.407C604.301 37.8118 604.621 38.0888 605.015 38.2379C605.409 38.3871 605.846 38.4616 606.325 38.4616C606.687 38.4616 607.018 38.435 607.316 38.3817C607.625 38.3285 607.859 38.2805 608.019 38.2379L608.994 42.7603C608.685 42.8668 608.243 42.984 607.668 43.1119C607.103 43.2397 606.41 43.3143 605.59 43.3356C604.141 43.3782 602.836 43.1598 601.675 42.6804C600.514 42.1903 599.592 41.4339 598.91 40.4112C598.239 39.3885 597.909 38.1101 597.92 36.576V12.5739ZM629.029 32.6768V18.4545H634.814V43H629.205V38.6374H628.949C628.395 40.0117 627.484 41.1357 626.216 42.0092C624.959 42.8828 623.409 43.3196 621.566 43.3196C619.958 43.3196 618.535 42.9627 617.3 42.2489C616.074 41.5245 615.116 40.4751 614.423 39.1009C613.731 37.7159 613.384 36.0433 613.384 34.0831V18.4545H619.169V33.1882C619.169 34.7436 619.595 35.9794 620.448 36.8956C621.3 37.8118 622.419 38.2699 623.803 38.2699C624.656 38.2699 625.481 38.0621 626.28 37.6467C627.079 37.2312 627.735 36.6133 628.246 35.793C628.768 34.962 629.029 33.9233 629.029 32.6768ZM640.762 43V18.4545H646.371V22.5455H646.627C647.074 21.1286 647.842 20.0366 648.928 19.2695C650.025 18.4918 651.277 18.103 652.684 18.103C653.003 18.103 653.36 18.119 653.754 18.1509C654.159 18.1722 654.495 18.2095 654.761 18.2628V23.5842C654.516 23.4989 654.127 23.4244 653.594 23.3604C653.072 23.2859 652.566 23.2486 652.076 23.2486C651.022 23.2486 650.073 23.4776 649.232 23.9357C648.401 24.3832 647.746 25.0064 647.266 25.8054C646.787 26.6044 646.547 27.5259 646.547 28.57V43H640.762ZM668.46 43.4794C665.999 43.4794 663.874 42.968 662.084 41.9453C660.305 40.9119 658.936 39.4524 657.977 37.5668C657.018 35.6705 656.539 33.4386 656.539 30.8711C656.539 28.3462 657.018 26.1303 657.977 24.2234C658.946 22.3058 660.299 20.8143 662.036 19.7489C663.772 18.6729 665.812 18.1349 668.156 18.1349C669.669 18.1349 671.097 18.38 672.439 18.87C673.792 19.3494 674.985 20.0952 676.018 21.1072C677.063 22.1193 677.883 23.4084 678.479 24.9744C679.076 26.5298 679.374 28.3835 679.374 30.5355V32.3093H659.255V28.4102H673.829C673.819 27.3022 673.579 26.3168 673.11 25.4538C672.641 24.5803 671.986 23.8931 671.145 23.3924C670.314 22.8917 669.344 22.6413 668.236 22.6413C667.054 22.6413 666.015 22.929 665.12 23.5043C664.225 24.0689 663.527 24.8146 663.027 25.7415C662.537 26.6577 662.286 27.6644 662.276 28.7617V32.1655C662.276 33.593 662.537 34.8182 663.059 35.8409C663.581 36.853 664.31 37.6307 665.248 38.174C666.185 38.7067 667.283 38.973 668.54 38.973C669.381 38.973 670.143 38.8558 670.825 38.6214C671.507 38.3764 672.098 38.0195 672.599 37.5508C673.099 37.082 673.478 36.5014 673.733 35.8089L679.135 36.4162C678.794 37.8437 678.144 39.0902 677.185 40.1555C676.237 41.2102 675.022 42.0305 673.542 42.6165C672.061 43.1918 670.367 43.4794 668.46 43.4794ZM703.668 24.9425L698.395 25.5178C698.245 24.9851 697.984 24.4844 697.612 24.0156C697.249 23.5469 696.759 23.1687 696.141 22.881C695.524 22.5934 694.767 22.4496 693.872 22.4496C692.668 22.4496 691.656 22.7106 690.836 23.2326C690.026 23.7546 689.627 24.4311 689.638 25.2621C689.627 25.9759 689.888 26.5565 690.421 27.0039C690.964 27.4513 691.859 27.8189 693.105 28.1065L697.292 29.0014C699.614 29.5021 701.34 30.2958 702.47 31.3825C703.609 32.4691 704.185 33.8913 704.195 35.6491C704.185 37.1939 703.732 38.5575 702.837 39.7401C701.953 40.9119 700.722 41.8281 699.146 42.4886C697.569 43.1491 695.758 43.4794 693.712 43.4794C690.708 43.4794 688.29 42.8509 686.457 41.5938C684.625 40.326 683.533 38.5629 683.182 36.3043L688.823 35.761C689.078 36.869 689.622 37.7053 690.453 38.2699C691.283 38.8345 692.365 39.1168 693.696 39.1168C695.071 39.1168 696.173 38.8345 697.004 38.2699C697.846 37.7053 698.267 37.0075 698.267 36.1765C698.267 35.4734 697.995 34.8928 697.452 34.4347C696.919 33.9766 696.088 33.625 694.959 33.38L690.772 32.5011C688.418 32.011 686.676 31.1854 685.547 30.0241C684.417 28.8523 683.858 27.3714 683.869 25.5817C683.858 24.0689 684.268 22.7585 685.099 21.6506C685.941 20.532 687.107 19.669 688.599 19.0618C690.101 18.4439 691.832 18.1349 693.792 18.1349C696.669 18.1349 698.933 18.7475 700.584 19.9727C702.246 21.1978 703.274 22.8544 703.668 24.9425Z" fill="#212427"/>
<g opacity="0.7" filter="url(#filter0_d_31_1094)">
<rect x="235.457" y="142" width="589" height="110" rx="20" fill="#F1F8F1"/>
</g>
<path d="M271.614 210H266.833L275.538 185.273H281.068L289.786 210H285.004L278.4 190.344H278.207L271.614 210ZM271.771 200.305H284.811V203.903H271.771V200.305ZM297.522 185.273V210H293.042V185.273H297.522ZM313.42 195.837V199.435H302.288V195.837H313.42ZM318.21 185.273H323.692L331.033 203.19H331.323L338.664 185.273H344.145V210H339.847V193.012H339.617L332.784 209.928H329.572L322.738 192.976H322.509V210H318.21V185.273ZM354.166 210.374C352.991 210.374 351.933 210.165 350.991 209.746C350.057 209.32 349.317 208.692 348.769 207.863C348.23 207.034 347.96 206.012 347.96 204.796C347.96 203.75 348.154 202.884 348.54 202.2C348.926 201.516 349.454 200.969 350.122 200.558C350.79 200.148 351.542 199.838 352.379 199.629C353.225 199.411 354.098 199.254 354.999 199.158C356.086 199.045 356.968 198.944 357.644 198.856C358.32 198.759 358.811 198.614 359.117 198.421C359.431 198.22 359.588 197.91 359.588 197.491V197.419C359.588 196.509 359.318 195.805 358.779 195.306C358.239 194.807 357.463 194.558 356.448 194.558C355.378 194.558 354.529 194.791 353.901 195.258C353.281 195.725 352.862 196.276 352.645 196.912L348.564 196.332C348.886 195.205 349.417 194.264 350.158 193.507C350.898 192.742 351.804 192.171 352.874 191.793C353.945 191.406 355.128 191.213 356.424 191.213C357.318 191.213 358.207 191.318 359.093 191.527C359.978 191.736 360.787 192.082 361.519 192.565C362.252 193.04 362.839 193.688 363.282 194.509C363.733 195.33 363.958 196.357 363.958 197.588V210H359.757V207.452H359.612C359.346 207.968 358.972 208.451 358.489 208.901C358.014 209.344 357.414 209.702 356.69 209.976C355.973 210.241 355.132 210.374 354.166 210.374ZM355.301 207.163C356.179 207.163 356.939 206.99 357.583 206.643C358.227 206.289 358.722 205.822 359.068 205.243C359.423 204.663 359.6 204.031 359.6 203.347V201.162C359.463 201.275 359.229 201.379 358.899 201.476C358.577 201.572 358.215 201.657 357.813 201.729C357.41 201.802 357.012 201.866 356.617 201.923C356.223 201.979 355.881 202.027 355.591 202.067C354.939 202.156 354.356 202.301 353.84 202.502C353.325 202.703 352.919 202.985 352.621 203.347C352.323 203.701 352.174 204.16 352.174 204.724C352.174 205.529 352.468 206.136 353.056 206.547C353.643 206.957 354.392 207.163 355.301 207.163ZM377.614 191.455V194.835H366.953V191.455H377.614ZM369.585 187.011H373.955V204.422C373.955 205.009 374.044 205.46 374.221 205.774C374.406 206.08 374.648 206.289 374.945 206.402C375.243 206.515 375.573 206.571 375.936 206.571C376.209 206.571 376.459 206.551 376.684 206.511C376.918 206.47 377.095 206.434 377.215 206.402L377.952 209.819C377.718 209.899 377.384 209.988 376.95 210.085C376.523 210.181 376 210.237 375.38 210.254C374.285 210.286 373.299 210.121 372.422 209.759C371.545 209.388 370.848 208.817 370.333 208.044C369.826 207.271 369.577 206.305 369.585 205.146V187.011ZM389.159 210.362C387.308 210.362 385.718 209.956 384.39 209.143C383.07 208.33 382.052 207.207 381.336 205.774C380.627 204.333 380.273 202.675 380.273 200.8C380.273 198.916 380.635 197.254 381.36 195.813C382.084 194.364 383.106 193.237 384.426 192.433C385.755 191.62 387.324 191.213 389.135 191.213C390.641 191.213 391.973 191.491 393.132 192.046C394.299 192.594 395.229 193.37 395.921 194.376C396.613 195.375 397.007 196.542 397.104 197.878H392.926C392.757 196.984 392.355 196.24 391.719 195.644C391.091 195.04 390.25 194.739 389.196 194.739C388.302 194.739 387.517 194.98 386.841 195.463C386.165 195.938 385.638 196.622 385.26 197.516C384.889 198.409 384.704 199.48 384.704 200.727C384.704 201.991 384.889 203.078 385.26 203.987C385.63 204.889 386.149 205.585 386.817 206.076C387.493 206.559 388.286 206.8 389.196 206.8C389.84 206.8 390.415 206.68 390.922 206.438C391.437 206.189 391.868 205.83 392.214 205.364C392.56 204.897 392.798 204.329 392.926 203.661H397.104C396.999 204.973 396.613 206.136 395.945 207.151C395.277 208.157 394.367 208.946 393.216 209.517C392.065 210.08 390.713 210.362 389.159 210.362ZM405.064 199.134V210H400.693V185.273H404.967V194.606H405.184C405.619 193.559 406.291 192.734 407.201 192.131C408.118 191.519 409.286 191.213 410.702 191.213C411.99 191.213 413.113 191.483 414.071 192.022C415.029 192.561 415.769 193.35 416.292 194.388C416.824 195.427 417.089 196.695 417.089 198.192V210H412.719V198.868C412.719 197.62 412.397 196.65 411.753 195.958C411.117 195.258 410.223 194.908 409.072 194.908C408.3 194.908 407.607 195.077 406.996 195.415C406.392 195.745 405.917 196.224 405.571 196.852C405.233 197.479 405.064 198.24 405.064 199.134ZM421.545 210V191.455H425.915V210H421.545ZM423.742 188.822C423.05 188.822 422.454 188.593 421.955 188.134C421.456 187.667 421.206 187.108 421.206 186.456C421.206 185.796 421.456 185.237 421.955 184.778C422.454 184.311 423.05 184.077 423.742 184.077C424.442 184.077 425.038 184.311 425.529 184.778C426.028 185.237 426.278 185.796 426.278 186.456C426.278 187.108 426.028 187.667 425.529 188.134C425.038 188.593 424.442 188.822 423.742 188.822ZM434.781 199.134V210H430.41V191.455H434.587V194.606H434.805C435.231 193.567 435.911 192.742 436.845 192.131C437.787 191.519 438.95 191.213 440.335 191.213C441.614 191.213 442.729 191.487 443.679 192.034C444.637 192.581 445.377 193.374 445.901 194.413C446.432 195.451 446.693 196.711 446.685 198.192V210H442.315V198.868C442.315 197.628 441.993 196.658 441.349 195.958C440.713 195.258 439.831 194.908 438.705 194.908C437.94 194.908 437.26 195.077 436.664 195.415C436.076 195.745 435.614 196.224 435.276 196.852C434.946 197.479 434.781 198.24 434.781 199.134ZM459.194 217.341C457.624 217.341 456.276 217.128 455.149 216.701C454.022 216.282 453.117 215.719 452.433 215.011C451.748 214.302 451.273 213.518 451.008 212.656L454.944 211.702C455.121 212.065 455.379 212.423 455.717 212.777C456.055 213.139 456.509 213.437 457.081 213.67C457.661 213.912 458.389 214.033 459.266 214.033C460.506 214.033 461.532 213.731 462.345 213.127C463.158 212.531 463.565 211.549 463.565 210.181V206.668H463.347C463.122 207.118 462.792 207.581 462.357 208.056C461.931 208.531 461.363 208.929 460.655 209.251C459.955 209.573 459.073 209.734 458.011 209.734C456.586 209.734 455.294 209.4 454.135 208.732C452.984 208.056 452.066 207.05 451.382 205.714C450.706 204.37 450.368 202.687 450.368 200.667C450.368 198.63 450.706 196.912 451.382 195.511C452.066 194.103 452.988 193.036 454.147 192.312C455.306 191.579 456.598 191.213 458.023 191.213C459.109 191.213 460.003 191.398 460.703 191.768C461.411 192.131 461.975 192.569 462.393 193.085C462.812 193.592 463.13 194.071 463.347 194.521H463.589V191.455H467.899V210.302C467.899 211.888 467.521 213.2 466.764 214.238C466.008 215.276 464.973 216.053 463.661 216.568C462.349 217.083 460.86 217.341 459.194 217.341ZM459.23 206.305C460.156 206.305 460.945 206.08 461.597 205.629C462.249 205.179 462.744 204.531 463.082 203.685C463.42 202.84 463.589 201.826 463.589 200.643C463.589 199.476 463.42 198.453 463.082 197.576C462.752 196.699 462.261 196.018 461.609 195.536C460.965 195.045 460.172 194.799 459.23 194.799C458.256 194.799 457.443 195.053 456.791 195.56C456.139 196.067 455.648 196.763 455.318 197.648C454.988 198.526 454.823 199.524 454.823 200.643C454.823 201.778 454.988 202.772 455.318 203.625C455.656 204.47 456.151 205.13 456.803 205.605C457.463 206.072 458.272 206.305 459.23 206.305ZM490.761 185.273H495.204V202.659C495.196 204.253 494.858 205.625 494.19 206.776C493.522 207.919 492.588 208.801 491.389 209.42C490.198 210.032 488.809 210.338 487.223 210.338C485.775 210.338 484.471 210.08 483.311 209.565C482.16 209.042 481.247 208.269 480.571 207.247C479.895 206.225 479.556 204.953 479.556 203.432H484.012C484.02 204.1 484.165 204.675 484.446 205.158C484.736 205.641 485.135 206.012 485.642 206.269C486.149 206.527 486.732 206.656 487.392 206.656C488.109 206.656 488.717 206.507 489.216 206.209C489.715 205.903 490.093 205.452 490.35 204.857C490.616 204.261 490.753 203.528 490.761 202.659V185.273ZM507.96 210.362C506.149 210.362 504.58 209.964 503.251 209.167C501.923 208.37 500.893 207.255 500.161 205.822C499.436 204.39 499.074 202.715 499.074 200.8C499.074 198.884 499.436 197.206 500.161 195.765C500.893 194.324 501.923 193.205 503.251 192.408C504.58 191.612 506.149 191.213 507.96 191.213C509.771 191.213 511.341 191.612 512.669 192.408C513.997 193.205 515.023 194.324 515.748 195.765C516.48 197.206 516.847 198.884 516.847 200.8C516.847 202.715 516.48 204.39 515.748 205.822C515.023 207.255 513.997 208.37 512.669 209.167C511.341 209.964 509.771 210.362 507.96 210.362ZM507.984 206.861C508.966 206.861 509.787 206.591 510.447 206.052C511.107 205.504 511.598 204.772 511.92 203.854C512.25 202.937 512.415 201.915 512.415 200.788C512.415 199.653 512.25 198.626 511.92 197.709C511.598 196.783 511.107 196.047 510.447 195.499C509.787 194.952 508.966 194.678 507.984 194.678C506.978 194.678 506.141 194.952 505.473 195.499C504.813 196.047 504.318 196.783 503.988 197.709C503.666 198.626 503.505 199.653 503.505 200.788C503.505 201.915 503.666 202.937 503.988 203.854C504.318 204.772 504.813 205.504 505.473 206.052C506.141 206.591 506.978 206.861 507.984 206.861ZM520.749 210V185.273H525.12V194.521H525.301C525.527 194.071 525.845 193.592 526.255 193.085C526.666 192.569 527.221 192.131 527.921 191.768C528.622 191.398 529.515 191.213 530.602 191.213C532.035 191.213 533.326 191.579 534.477 192.312C535.637 193.036 536.554 194.111 537.23 195.536C537.914 196.952 538.257 198.691 538.257 200.751C538.257 202.788 537.923 204.518 537.254 205.943C536.586 207.368 535.677 208.455 534.526 209.203C533.375 209.952 532.071 210.326 530.614 210.326C529.551 210.326 528.67 210.149 527.97 209.795C527.269 209.441 526.706 209.014 526.279 208.515C525.861 208.008 525.535 207.529 525.301 207.078H525.048V210H520.749ZM525.036 200.727C525.036 201.927 525.205 202.977 525.543 203.879C525.889 204.78 526.384 205.484 527.028 205.991C527.68 206.491 528.469 206.74 529.394 206.74C530.36 206.74 531.169 206.482 531.821 205.967C532.473 205.444 532.964 204.732 533.294 203.83C533.632 202.921 533.801 201.886 533.801 200.727C533.801 199.576 533.636 198.554 533.306 197.661C532.976 196.767 532.485 196.067 531.833 195.56C531.181 195.053 530.368 194.799 529.394 194.799C528.461 194.799 527.668 195.045 527.016 195.536C526.364 196.027 525.869 196.715 525.531 197.6C525.201 198.486 525.036 199.528 525.036 200.727ZM556.63 196.357L552.646 196.791C552.533 196.389 552.336 196.01 552.054 195.656C551.78 195.302 551.41 195.016 550.943 194.799C550.476 194.582 549.905 194.473 549.229 194.473C548.319 194.473 547.554 194.67 546.935 195.065C546.323 195.459 546.021 195.97 546.029 196.598C546.021 197.137 546.218 197.576 546.621 197.914C547.031 198.252 547.707 198.53 548.649 198.747L551.812 199.423C553.567 199.802 554.871 200.401 555.724 201.222C556.586 202.043 557.02 203.118 557.028 204.446C557.02 205.613 556.678 206.643 556.002 207.537C555.334 208.422 554.404 209.115 553.213 209.614C552.022 210.113 550.653 210.362 549.108 210.362C546.838 210.362 545.011 209.887 543.626 208.938C542.242 207.98 541.417 206.647 541.151 204.941L545.413 204.531C545.607 205.368 546.017 206 546.645 206.426C547.273 206.853 548.09 207.066 549.096 207.066C550.134 207.066 550.967 206.853 551.595 206.426C552.231 206 552.549 205.472 552.549 204.844C552.549 204.313 552.344 203.875 551.933 203.528C551.531 203.182 550.903 202.917 550.05 202.732L546.886 202.067C545.107 201.697 543.791 201.073 542.938 200.196C542.085 199.311 541.662 198.192 541.67 196.839C541.662 195.696 541.972 194.706 542.6 193.869C543.236 193.024 544.117 192.372 545.244 191.913C546.379 191.446 547.687 191.213 549.168 191.213C551.342 191.213 553.052 191.676 554.3 192.602C555.555 193.527 556.332 194.779 556.63 196.357Z" fill="#212427"/>
<g opacity="0.7" filter="url(#filter1_d_31_1094)">
<rect x="4" y="94" width="206.456" height="206.456" rx="30" fill="#F1F8F1"/>
</g>
<path d="M107.02 149.817C107.037 149.817 107.058 149.823 107.069 149.829V149.823C107.069 149.823 107.052 149.823 107.02 149.817Z" fill="#00A0DC"/>
<path d="M111.547 181.819L132.321 161.045C132.321 161.045 122.273 152.48 107.069 149.831L98.4786 159.37L89.523 149.826C81.7586 151.196 73.3681 154.558 64.7227 161.045L85.8074 181.819C85.8103 181.819 100.696 174.377 111.547 181.819Z" fill="#00A0DC"/>
<path d="M167.764 255.739L142.532 234.336C148.769 225.537 152.438 214.793 152.438 203.211C152.438 190.082 147.664 177.429 139.002 167.58L131.086 174.545C138.057 182.466 141.897 192.647 141.897 203.211C141.897 227.148 122.424 246.624 98.4841 246.624C74.5445 246.624 55.0712 227.151 55.0712 203.211C55.0712 192.644 58.9113 182.466 65.8816 174.545L57.9665 167.58C49.3008 177.426 44.5273 190.082 44.5273 203.214C44.5273 232.965 68.7306 257.168 98.4812 257.168C109.523 257.168 119.801 253.832 128.359 248.117L149.969 273.552C154.745 279.174 163.306 279.522 168.523 274.305C173.746 269.083 173.395 260.515 167.764 255.739Z" fill="#00A0DC"/>
<path d="M101.392 143.604C111.121 142.001 117.708 132.814 116.105 123.086C114.502 113.357 105.315 106.769 95.5865 108.373C85.8576 109.976 79.2704 119.162 80.8736 128.891C82.4769 138.62 91.6634 145.207 101.392 143.604Z" fill="#00A0DC"/>
<g opacity="0.7" filter="url(#filter2_d_31_1094)">
<rect x="233.928" y="553" width="589" height="110" rx="20" fill="#F1F8F1"/>
</g>
<path d="M286.759 598.273V623H282.775L271.124 606.157H270.918V623H266.439V598.273H270.447L282.087 615.128H282.304V598.273H286.759ZM299.536 623.362C297.725 623.362 296.156 622.964 294.828 622.167C293.499 621.37 292.469 620.255 291.737 618.822C291.012 617.39 290.65 615.715 290.65 613.8C290.65 611.884 291.012 610.206 291.737 608.765C292.469 607.324 293.499 606.205 294.828 605.408C296.156 604.612 297.725 604.213 299.536 604.213C301.347 604.213 302.917 604.612 304.245 605.408C305.573 606.205 306.6 607.324 307.324 608.765C308.057 610.206 308.423 611.884 308.423 613.8C308.423 615.715 308.057 617.39 307.324 618.822C306.6 620.255 305.573 621.37 304.245 622.167C302.917 622.964 301.347 623.362 299.536 623.362ZM299.561 619.861C300.543 619.861 301.364 619.591 302.024 619.052C302.684 618.504 303.175 617.772 303.497 616.854C303.827 615.937 303.992 614.915 303.992 613.788C303.992 612.653 303.827 611.626 303.497 610.709C303.175 609.783 302.684 609.047 302.024 608.499C301.364 607.952 300.543 607.678 299.561 607.678C298.554 607.678 297.717 607.952 297.049 608.499C296.389 609.047 295.894 609.783 295.564 610.709C295.242 611.626 295.081 612.653 295.081 613.788C295.081 614.915 295.242 615.937 295.564 616.854C295.894 617.772 296.389 618.504 297.049 619.052C297.717 619.591 298.554 619.861 299.561 619.861ZM334.197 605.07C334.085 604.016 333.61 603.195 332.773 602.607C331.944 602.02 330.865 601.726 329.537 601.726C328.603 601.726 327.802 601.867 327.134 602.148C326.466 602.43 325.955 602.812 325.601 603.295C325.247 603.778 325.066 604.33 325.058 604.95C325.058 605.465 325.174 605.911 325.408 606.29C325.649 606.668 325.975 606.99 326.386 607.256C326.796 607.513 327.251 607.731 327.75 607.908C328.249 608.085 328.752 608.234 329.259 608.354L331.577 608.934C332.511 609.151 333.409 609.445 334.27 609.815C335.139 610.186 335.916 610.652 336.6 611.216C337.292 611.779 337.84 612.46 338.242 613.256C338.645 614.053 338.846 614.987 338.846 616.058C338.846 617.506 338.476 618.782 337.735 619.885C336.995 620.98 335.924 621.837 334.523 622.457C333.131 623.068 331.445 623.374 329.464 623.374C327.541 623.374 325.871 623.076 324.454 622.481C323.045 621.885 321.942 621.016 321.146 619.873C320.357 618.73 319.93 617.337 319.866 615.695H324.273C324.337 616.557 324.603 617.273 325.07 617.844C325.536 618.416 326.144 618.843 326.893 619.124C327.649 619.406 328.495 619.547 329.428 619.547C330.402 619.547 331.255 619.402 331.988 619.112C332.728 618.814 333.308 618.404 333.727 617.881C334.145 617.349 334.358 616.73 334.366 616.021C334.358 615.377 334.169 614.846 333.799 614.428C333.429 614.001 332.91 613.647 332.241 613.365C331.581 613.075 330.809 612.818 329.923 612.592L327.11 611.868C325.074 611.345 323.464 610.552 322.281 609.489C321.105 608.419 320.518 606.998 320.518 605.227C320.518 603.77 320.912 602.495 321.701 601.4C322.498 600.305 323.58 599.456 324.949 598.852C326.317 598.241 327.867 597.935 329.597 597.935C331.352 597.935 332.889 598.241 334.21 598.852C335.538 599.456 336.58 600.297 337.337 601.376C338.093 602.446 338.484 603.678 338.508 605.07H334.197ZM342.646 629.955V604.455H346.944V607.521H347.198C347.423 607.071 347.741 606.592 348.152 606.085C348.562 605.569 349.118 605.131 349.818 604.768C350.518 604.398 351.412 604.213 352.498 604.213C353.931 604.213 355.223 604.579 356.374 605.312C357.533 606.036 358.451 607.111 359.127 608.536C359.811 609.952 360.153 611.691 360.153 613.751C360.153 615.788 359.819 617.518 359.151 618.943C358.483 620.368 357.573 621.455 356.422 622.203C355.271 622.952 353.967 623.326 352.51 623.326C351.448 623.326 350.567 623.149 349.866 622.795C349.166 622.441 348.603 622.014 348.176 621.515C347.757 621.008 347.431 620.529 347.198 620.078H347.017V629.955H342.646ZM346.932 613.727C346.932 614.927 347.101 615.977 347.439 616.879C347.786 617.78 348.281 618.484 348.925 618.991C349.577 619.491 350.365 619.74 351.291 619.74C352.257 619.74 353.066 619.482 353.718 618.967C354.37 618.444 354.861 617.732 355.191 616.83C355.529 615.921 355.698 614.886 355.698 613.727C355.698 612.576 355.533 611.554 355.203 610.661C354.873 609.767 354.382 609.067 353.73 608.56C353.078 608.053 352.265 607.799 351.291 607.799C350.357 607.799 349.564 608.045 348.912 608.536C348.26 609.027 347.765 609.715 347.427 610.6C347.097 611.486 346.932 612.528 346.932 613.727ZM369.233 623.374C368.058 623.374 366.999 623.165 366.057 622.746C365.124 622.32 364.383 621.692 363.836 620.863C363.296 620.034 363.027 619.012 363.027 617.796C363.027 616.75 363.22 615.884 363.606 615.2C363.993 614.516 364.52 613.969 365.188 613.558C365.856 613.148 366.609 612.838 367.446 612.629C368.291 612.411 369.164 612.254 370.066 612.158C371.153 612.045 372.034 611.944 372.71 611.856C373.386 611.759 373.877 611.614 374.183 611.421C374.497 611.22 374.654 610.91 374.654 610.491V610.419C374.654 609.509 374.384 608.805 373.845 608.306C373.306 607.807 372.529 607.558 371.515 607.558C370.444 607.558 369.595 607.791 368.967 608.258C368.347 608.725 367.929 609.276 367.711 609.912L363.631 609.332C363.952 608.205 364.484 607.264 365.224 606.507C365.965 605.742 366.87 605.171 367.941 604.793C369.011 604.406 370.195 604.213 371.491 604.213C372.384 604.213 373.273 604.318 374.159 604.527C375.044 604.736 375.853 605.082 376.586 605.565C377.318 606.04 377.906 606.688 378.349 607.509C378.799 608.33 379.025 609.357 379.025 610.588V623H374.823V620.452H374.678C374.412 620.968 374.038 621.451 373.555 621.901C373.08 622.344 372.481 622.702 371.756 622.976C371.04 623.241 370.199 623.374 369.233 623.374ZM370.368 620.163C371.245 620.163 372.006 619.99 372.65 619.643C373.294 619.289 373.789 618.822 374.135 618.243C374.489 617.663 374.666 617.031 374.666 616.347V614.162C374.529 614.275 374.296 614.379 373.966 614.476C373.644 614.572 373.282 614.657 372.879 614.729C372.477 614.802 372.078 614.866 371.684 614.923C371.289 614.979 370.947 615.027 370.657 615.067C370.006 615.156 369.422 615.301 368.907 615.502C368.392 615.703 367.985 615.985 367.687 616.347C367.39 616.701 367.241 617.16 367.241 617.724C367.241 618.529 367.534 619.136 368.122 619.547C368.71 619.957 369.458 620.163 370.368 620.163ZM383.42 623V604.455H387.597V607.606H387.814C388.201 606.543 388.841 605.714 389.734 605.119C390.628 604.515 391.694 604.213 392.934 604.213C394.189 604.213 395.248 604.519 396.109 605.131C396.979 605.734 397.59 606.559 397.944 607.606H398.138C398.548 606.576 399.24 605.754 400.214 605.143C401.196 604.523 402.359 604.213 403.704 604.213C405.41 604.213 406.803 604.752 407.881 605.831C408.96 606.91 409.499 608.483 409.499 610.552V623H405.116V611.228C405.116 610.077 404.81 609.236 404.199 608.705C403.587 608.165 402.838 607.896 401.953 607.896C400.898 607.896 400.073 608.226 399.478 608.886C398.89 609.538 398.596 610.387 398.596 611.433V623H394.31V611.047C394.31 610.089 394.02 609.324 393.441 608.753C392.869 608.181 392.121 607.896 391.195 607.896C390.567 607.896 389.996 608.057 389.481 608.379C388.965 608.692 388.555 609.139 388.249 609.719C387.943 610.29 387.79 610.958 387.79 611.723V623H383.42ZM430.456 623.362C428.645 623.362 427.076 622.964 425.748 622.167C424.419 621.37 423.389 620.255 422.657 618.822C421.932 617.39 421.57 615.715 421.57 613.8C421.57 611.884 421.932 610.206 422.657 608.765C423.389 607.324 424.419 606.205 425.748 605.408C427.076 604.612 428.645 604.213 430.456 604.213C432.267 604.213 433.837 604.612 435.165 605.408C436.493 606.205 437.52 607.324 438.244 608.765C438.976 610.206 439.343 611.884 439.343 613.8C439.343 615.715 438.976 617.39 438.244 618.822C437.52 620.255 436.493 621.37 435.165 622.167C433.837 622.964 432.267 623.362 430.456 623.362ZM430.48 619.861C431.462 619.861 432.283 619.591 432.944 619.052C433.604 618.504 434.095 617.772 434.417 616.854C434.747 615.937 434.912 614.915 434.912 613.788C434.912 612.653 434.747 611.626 434.417 610.709C434.095 609.783 433.604 609.047 432.944 608.499C432.283 607.952 431.462 607.678 430.48 607.678C429.474 607.678 428.637 607.952 427.969 608.499C427.309 609.047 426.814 609.783 426.484 610.709C426.162 611.626 426.001 612.653 426.001 613.788C426.001 614.915 426.162 615.937 426.484 616.854C426.814 617.772 427.309 618.504 427.969 619.052C428.637 619.591 429.474 619.861 430.48 619.861ZM443.052 623V604.455H447.29V607.545H447.483C447.822 606.475 448.401 605.65 449.222 605.07C450.051 604.483 450.997 604.189 452.059 604.189C452.301 604.189 452.571 604.201 452.868 604.225C453.174 604.241 453.428 604.269 453.629 604.31V608.33C453.444 608.266 453.15 608.21 452.748 608.161C452.353 608.105 451.971 608.077 451.601 608.077C450.804 608.077 450.087 608.25 449.452 608.596C448.824 608.934 448.329 609.405 447.966 610.009C447.604 610.612 447.423 611.308 447.423 612.097V623H443.052ZM478.598 605.07C478.485 604.016 478.01 603.195 477.173 602.607C476.344 602.02 475.265 601.726 473.937 601.726C473.004 601.726 472.203 601.867 471.535 602.148C470.867 602.43 470.355 602.812 470.001 603.295C469.647 603.778 469.466 604.33 469.458 604.95C469.458 605.465 469.575 605.911 469.808 606.29C470.05 606.668 470.376 606.99 470.786 607.256C471.197 607.513 471.651 607.731 472.15 607.908C472.649 608.085 473.153 608.234 473.66 608.354L475.978 608.934C476.912 609.151 477.809 609.445 478.67 609.815C479.54 610.186 480.316 610.652 481.001 611.216C481.693 611.779 482.24 612.46 482.643 613.256C483.045 614.053 483.246 614.987 483.246 616.058C483.246 617.506 482.876 618.782 482.135 619.885C481.395 620.98 480.324 621.837 478.924 622.457C477.531 623.068 475.845 623.374 473.865 623.374C471.941 623.374 470.271 623.076 468.854 622.481C467.446 621.885 466.343 621.016 465.546 619.873C464.757 618.73 464.331 617.337 464.266 615.695H468.673C468.738 616.557 469.003 617.273 469.47 617.844C469.937 618.416 470.545 618.843 471.293 619.124C472.05 619.406 472.895 619.547 473.829 619.547C474.803 619.547 475.656 619.402 476.388 619.112C477.129 618.814 477.708 618.404 478.127 617.881C478.546 617.349 478.759 616.73 478.767 616.021C478.759 615.377 478.57 614.846 478.199 614.428C477.829 614.001 477.31 613.647 476.642 613.365C475.982 613.075 475.209 612.818 474.324 612.592L471.51 611.868C469.474 611.345 467.864 610.552 466.681 609.489C465.506 608.419 464.918 606.998 464.918 605.227C464.918 603.77 465.313 602.495 466.101 601.4C466.898 600.305 467.981 599.456 469.349 598.852C470.718 598.241 472.267 597.935 473.998 597.935C475.752 597.935 477.29 598.241 478.61 598.852C479.938 599.456 480.98 600.297 481.737 601.376C482.494 602.446 482.884 603.678 482.908 605.07H478.598ZM495.136 623.362C493.285 623.362 491.695 622.956 490.367 622.143C489.047 621.33 488.029 620.207 487.312 618.774C486.604 617.333 486.25 615.675 486.25 613.8C486.25 611.916 486.612 610.254 487.336 608.813C488.061 607.364 489.083 606.237 490.403 605.433C491.731 604.62 493.301 604.213 495.112 604.213C496.617 604.213 497.949 604.491 499.108 605.046C500.275 605.594 501.205 606.37 501.897 607.376C502.59 608.375 502.984 609.542 503.081 610.878H498.903C498.734 609.984 498.332 609.24 497.696 608.644C497.068 608.04 496.227 607.739 495.172 607.739C494.279 607.739 493.494 607.98 492.818 608.463C492.142 608.938 491.614 609.622 491.236 610.516C490.866 611.409 490.681 612.48 490.681 613.727C490.681 614.991 490.866 616.078 491.236 616.987C491.606 617.889 492.126 618.585 492.794 619.076C493.47 619.559 494.263 619.8 495.172 619.8C495.816 619.8 496.392 619.68 496.899 619.438C497.414 619.189 497.845 618.83 498.191 618.364C498.537 617.897 498.774 617.329 498.903 616.661H503.081C502.976 617.973 502.59 619.136 501.922 620.151C501.253 621.157 500.344 621.946 499.193 622.517C498.042 623.08 496.69 623.362 495.136 623.362ZM512.006 623.374C510.831 623.374 509.773 623.165 508.831 622.746C507.897 622.32 507.157 621.692 506.609 620.863C506.07 620.034 505.8 619.012 505.8 617.796C505.8 616.75 505.993 615.884 506.38 615.2C506.766 614.516 507.293 613.969 507.961 613.558C508.63 613.148 509.382 612.838 510.219 612.629C511.064 612.411 511.938 612.254 512.839 612.158C513.926 612.045 514.807 611.944 515.483 611.856C516.16 611.759 516.651 611.614 516.956 611.421C517.27 611.22 517.427 610.91 517.427 610.491V610.419C517.427 609.509 517.158 608.805 516.618 608.306C516.079 607.807 515.302 607.558 514.288 607.558C513.218 607.558 512.368 607.791 511.741 608.258C511.121 608.725 510.702 609.276 510.485 609.912L506.404 609.332C506.726 608.205 507.257 607.264 507.998 606.507C508.738 605.742 509.644 605.171 510.714 604.793C511.785 604.406 512.968 604.213 514.264 604.213C515.157 604.213 516.047 604.318 516.932 604.527C517.818 604.736 518.627 605.082 519.359 605.565C520.092 606.04 520.679 606.688 521.122 607.509C521.573 608.33 521.798 609.357 521.798 610.588V623H517.596V620.452H517.452C517.186 620.968 516.812 621.451 516.329 621.901C515.854 622.344 515.254 622.702 514.53 622.976C513.813 623.241 512.972 623.374 512.006 623.374ZM513.141 620.163C514.019 620.163 514.779 619.99 515.423 619.643C516.067 619.289 516.562 618.822 516.908 618.243C517.262 617.663 517.439 617.031 517.439 616.347V614.162C517.303 614.275 517.069 614.379 516.739 614.476C516.417 614.572 516.055 614.657 515.653 614.729C515.25 614.802 514.852 614.866 514.457 614.923C514.063 614.979 513.721 615.027 513.431 615.067C512.779 615.156 512.195 615.301 511.68 615.502C511.165 615.703 510.759 615.985 510.461 616.347C510.163 616.701 510.014 617.16 510.014 617.724C510.014 618.529 510.308 619.136 510.895 619.547C511.483 619.957 512.232 620.163 513.141 620.163ZM526.193 623V604.455H530.371V607.606H530.588C530.974 606.543 531.614 605.714 532.508 605.119C533.401 604.515 534.468 604.213 535.707 604.213C536.963 604.213 538.021 604.519 538.883 605.131C539.752 605.734 540.364 606.559 540.718 607.606H540.911C541.322 606.576 542.014 605.754 542.988 605.143C543.97 604.523 545.133 604.213 546.477 604.213C548.184 604.213 549.576 604.752 550.655 605.831C551.733 606.91 552.273 608.483 552.273 610.552V623H547.89V611.228C547.89 610.077 547.584 609.236 546.972 608.705C546.36 608.165 545.612 607.896 544.726 607.896C543.672 607.896 542.847 608.226 542.251 608.886C541.664 609.538 541.37 610.387 541.37 611.433V623H537.084V611.047C537.084 610.089 536.794 609.324 536.214 608.753C535.643 608.181 534.894 607.896 533.969 607.896C533.341 607.896 532.769 608.057 532.254 608.379C531.739 608.692 531.328 609.139 531.023 609.719C530.717 610.29 530.564 610.958 530.564 611.723V623H526.193Z" fill="#212427"/>
<g opacity="0.7" filter="url(#filter3_d_31_1094)">
<rect x="4" y="505" width="204.927" height="206.456" rx="30" fill="#F1F8F1"/>
</g>
<path d="M158.702 645.048C153.628 643.849 149.432 644.966 146.631 649.416C144.388 652.978 144.461 656.759 146.778 660.244C149.514 664.353 153.52 665.56 158.457 664.446C157.249 667.454 155.533 669.943 153.393 672.138C148.492 677.165 142.499 679.99 135.487 680.018C109.381 680.116 83.2744 680.15 57.1709 680.021C44.3823 679.959 33.2327 669.241 32.3603 656.623C31.4106 642.895 40.5987 631.016 53.7976 628.96C55.3332 628.72 56.905 628.622 58.4613 628.622C83.7597 628.602 109.061 628.617 134.359 628.597C137.882 628.594 141.258 629.2 144.546 630.454C145.619 630.864 146.133 631.37 146.11 632.618C146.074 634.78 146.257 636.944 146.371 639.105C146.51 641.783 148.237 643.441 150.957 643.488C152.921 643.521 154.89 643.558 156.852 643.47C157.954 643.418 158.602 643.715 158.702 645.048Z" fill="#00A0DC"/>
<path d="M96.4969 612.555C75.3255 612.643 58.0771 595.505 57.9171 574.222C57.7571 553.088 75.0106 535.664 96.1769 535.586C117.526 535.509 134.837 552.634 134.904 573.899C134.968 595.2 117.813 612.467 96.4969 612.555Z" fill="#00A0DC"/>
<path d="M161.825 609.111C161.404 618.867 160.973 628.623 160.575 638.378C160.532 639.443 160.17 639.91 159.04 639.885C156.523 639.825 154.002 639.825 151.483 639.885C150.376 639.91 150.001 639.521 149.955 638.412C149.496 627.348 148.99 616.288 148.494 605.224C148.135 597.179 147.779 589.133 147.405 581.088C147.201 576.7 150.004 573.172 154.25 572.535C158.1 571.957 161.928 574.578 162.847 578.506C163.061 579.419 163.069 580.405 163.03 581.351C162.648 590.604 162.238 599.856 161.835 609.109C161.832 609.111 161.827 609.111 161.825 609.111Z" fill="#00A0DC"/>
<path d="M148.742 654.685C148.755 651.051 151.625 648.203 155.28 648.195C158.854 648.19 161.825 651.18 161.791 654.747C161.758 658.325 158.774 661.284 155.215 661.268C151.617 661.25 148.729 658.315 148.742 654.685Z" fill="#00A0DC"/>
<g opacity="0.7" filter="url(#filter4_d_31_1094)">
<rect x="308" y="348" width="589" height="110" rx="20" fill="#F8F1F1"/>
</g>
<path d="M404.929 416H396.549V391.273H405.098C407.553 391.273 409.661 391.768 411.424 392.758C413.195 393.74 414.555 395.152 415.505 396.996C416.455 398.839 416.93 401.045 416.93 403.612C416.93 406.188 416.451 408.402 415.493 410.253C414.543 412.104 413.171 413.525 411.376 414.515C409.589 415.505 407.44 416 404.929 416ZM401.029 412.124H404.711C406.434 412.124 407.871 411.81 409.022 411.183C410.173 410.547 411.038 409.601 411.617 408.345C412.197 407.081 412.487 405.504 412.487 403.612C412.487 401.721 412.197 400.151 411.617 398.903C411.038 397.648 410.181 396.71 409.046 396.09C407.919 395.462 406.518 395.148 404.844 395.148H401.029V412.124ZM420.993 416V397.455H425.364V416H420.993ZM423.19 394.822C422.498 394.822 421.902 394.593 421.403 394.134C420.904 393.667 420.655 393.108 420.655 392.456C420.655 391.796 420.904 391.237 421.403 390.778C421.902 390.311 422.498 390.077 423.19 390.077C423.891 390.077 424.486 390.311 424.977 390.778C425.476 391.237 425.726 391.796 425.726 392.456C425.726 393.108 425.476 393.667 424.977 394.134C424.486 394.593 423.891 394.822 423.19 394.822ZM429.858 416V397.455H434.096V400.545H434.289C434.627 399.475 435.207 398.65 436.028 398.07C436.857 397.483 437.803 397.189 438.865 397.189C439.107 397.189 439.376 397.201 439.674 397.225C439.98 397.241 440.234 397.269 440.435 397.31V401.33C440.25 401.266 439.956 401.21 439.553 401.161C439.159 401.105 438.777 401.077 438.406 401.077C437.609 401.077 436.893 401.25 436.257 401.596C435.629 401.934 435.134 402.405 434.772 403.009C434.41 403.612 434.229 404.308 434.229 405.097V416H429.858ZM450.785 416.362C448.926 416.362 447.32 415.976 445.968 415.203C444.623 414.422 443.589 413.32 442.865 411.895C442.14 410.462 441.778 408.776 441.778 406.836C441.778 404.928 442.14 403.254 442.865 401.813C443.597 400.364 444.619 399.237 445.931 398.433C447.243 397.62 448.785 397.213 450.556 397.213C451.699 397.213 452.777 397.398 453.791 397.768C454.814 398.131 455.715 398.694 456.496 399.459C457.285 400.223 457.905 401.197 458.355 402.381C458.806 403.556 459.032 404.956 459.032 406.582V407.923H443.831V404.977H454.842C454.834 404.139 454.653 403.395 454.299 402.743C453.944 402.083 453.449 401.564 452.813 401.185C452.186 400.807 451.453 400.618 450.616 400.618C449.723 400.618 448.938 400.835 448.262 401.27C447.585 401.696 447.058 402.26 446.68 402.96C446.31 403.652 446.121 404.413 446.112 405.242V407.814C446.112 408.893 446.31 409.818 446.704 410.591C447.099 411.356 447.65 411.943 448.358 412.354C449.067 412.756 449.896 412.957 450.845 412.957C451.481 412.957 452.057 412.869 452.572 412.692C453.087 412.507 453.534 412.237 453.912 411.883C454.291 411.529 454.576 411.09 454.769 410.567L458.85 411.026C458.593 412.104 458.102 413.046 457.377 413.851C456.661 414.648 455.743 415.268 454.625 415.71C453.506 416.145 452.226 416.362 450.785 416.362ZM470.819 416.362C468.967 416.362 467.378 415.956 466.049 415.143C464.729 414.33 463.711 413.207 462.995 411.774C462.286 410.333 461.932 408.675 461.932 406.8C461.932 404.916 462.294 403.254 463.019 401.813C463.743 400.364 464.766 399.237 466.086 398.433C467.414 397.62 468.983 397.213 470.794 397.213C472.3 397.213 473.632 397.491 474.791 398.046C475.958 398.594 476.888 399.37 477.58 400.376C478.272 401.375 478.667 402.542 478.763 403.878H474.586C474.417 402.984 474.014 402.24 473.378 401.644C472.75 401.04 471.909 400.739 470.855 400.739C469.961 400.739 469.177 400.98 468.5 401.463C467.824 401.938 467.297 402.622 466.919 403.516C466.549 404.409 466.363 405.48 466.363 406.727C466.363 407.991 466.549 409.078 466.919 409.987C467.289 410.889 467.808 411.585 468.476 412.076C469.152 412.559 469.945 412.8 470.855 412.8C471.499 412.8 472.074 412.68 472.581 412.438C473.097 412.189 473.527 411.83 473.873 411.364C474.219 410.897 474.457 410.329 474.586 409.661H478.763C478.659 410.973 478.272 412.136 477.604 413.151C476.936 414.157 476.026 414.946 474.875 415.517C473.724 416.08 472.372 416.362 470.819 416.362ZM491.613 397.455V400.835H480.952V397.455H491.613ZM483.584 393.011H487.954V410.422C487.954 411.009 488.043 411.46 488.22 411.774C488.405 412.08 488.647 412.289 488.945 412.402C489.242 412.515 489.572 412.571 489.935 412.571C490.208 412.571 490.458 412.551 490.683 412.511C490.917 412.47 491.094 412.434 491.214 412.402L491.951 415.819C491.717 415.899 491.383 415.988 490.949 416.085C490.522 416.181 489.999 416.237 489.379 416.254C488.284 416.286 487.298 416.121 486.421 415.759C485.544 415.388 484.847 414.817 484.332 414.044C483.825 413.271 483.576 412.305 483.584 411.146V393.011ZM500.037 391.273V416H495.667V391.273H500.037ZM507.248 422.955C506.653 422.955 506.101 422.906 505.594 422.81C505.095 422.721 504.697 422.616 504.399 422.496L505.413 419.091C506.049 419.276 506.617 419.365 507.116 419.357C507.615 419.348 508.053 419.192 508.432 418.886C508.818 418.588 509.144 418.089 509.41 417.388L509.784 416.386L503.059 397.455H507.695L511.969 411.46H512.163L516.449 397.455H521.097L513.672 418.246C513.326 419.228 512.867 420.069 512.295 420.769C511.724 421.478 511.024 422.017 510.195 422.387C509.373 422.765 508.391 422.955 507.248 422.955ZM553.914 399.616H549.398C549.27 398.875 549.032 398.219 548.686 397.648C548.34 397.068 547.909 396.577 547.394 396.175C546.879 395.772 546.291 395.47 545.631 395.269C544.979 395.06 544.275 394.955 543.518 394.955C542.174 394.955 540.983 395.293 539.945 395.969C538.906 396.638 538.093 397.62 537.506 398.915C536.918 400.203 536.624 401.777 536.624 403.636C536.624 405.528 536.918 407.122 537.506 408.418C538.101 409.705 538.914 410.679 539.945 411.339C540.983 411.991 542.17 412.317 543.506 412.317C544.247 412.317 544.939 412.221 545.583 412.028C546.235 411.826 546.819 411.533 547.334 411.146C547.857 410.76 548.296 410.285 548.65 409.722C549.012 409.158 549.262 408.514 549.398 407.79L553.914 407.814C553.745 408.989 553.379 410.092 552.815 411.122C552.26 412.152 551.531 413.062 550.63 413.851C549.728 414.632 548.674 415.243 547.467 415.686C546.259 416.121 544.919 416.338 543.446 416.338C541.273 416.338 539.333 415.835 537.626 414.829C535.92 413.823 534.576 412.37 533.594 410.47C532.612 408.571 532.121 406.293 532.121 403.636C532.121 400.972 532.616 398.694 533.606 396.803C534.596 394.903 535.944 393.45 537.65 392.444C539.357 391.438 541.289 390.935 543.446 390.935C544.822 390.935 546.102 391.128 547.285 391.514C548.469 391.901 549.523 392.468 550.449 393.217C551.374 393.957 552.135 394.867 552.731 395.945C553.334 397.016 553.729 398.239 553.914 399.616ZM562.194 405.134V416H557.823V391.273H562.097V400.606H562.314C562.749 399.559 563.421 398.734 564.331 398.131C565.248 397.519 566.415 397.213 567.832 397.213C569.12 397.213 570.243 397.483 571.201 398.022C572.159 398.561 572.899 399.35 573.422 400.388C573.954 401.427 574.219 402.695 574.219 404.192V416H569.848V404.868C569.848 403.62 569.526 402.65 568.883 401.958C568.247 401.258 567.353 400.908 566.202 400.908C565.429 400.908 564.737 401.077 564.125 401.415C563.522 401.745 563.047 402.224 562.701 402.852C562.363 403.479 562.194 404.24 562.194 405.134ZM584.011 416.374C582.836 416.374 581.777 416.165 580.836 415.746C579.902 415.32 579.161 414.692 578.614 413.863C578.075 413.034 577.805 412.012 577.805 410.796C577.805 409.75 577.998 408.884 578.385 408.2C578.771 407.516 579.298 406.969 579.966 406.558C580.634 406.148 581.387 405.838 582.224 405.629C583.069 405.411 583.943 405.254 584.844 405.158C585.931 405.045 586.812 404.944 587.488 404.856C588.165 404.759 588.656 404.614 588.961 404.421C589.275 404.22 589.432 403.91 589.432 403.491V403.419C589.432 402.509 589.163 401.805 588.623 401.306C588.084 400.807 587.307 400.558 586.293 400.558C585.223 400.558 584.373 400.791 583.745 401.258C583.126 401.725 582.707 402.276 582.49 402.912L578.409 402.332C578.731 401.205 579.262 400.264 580.003 399.507C580.743 398.742 581.649 398.171 582.719 397.793C583.79 397.406 584.973 397.213 586.269 397.213C587.162 397.213 588.052 397.318 588.937 397.527C589.823 397.736 590.632 398.082 591.364 398.565C592.097 399.04 592.684 399.688 593.127 400.509C593.578 401.33 593.803 402.357 593.803 403.588V416H589.601V413.452H589.456C589.191 413.968 588.816 414.451 588.334 414.901C587.859 415.344 587.259 415.702 586.535 415.976C585.818 416.241 584.977 416.374 584.011 416.374ZM585.146 413.163C586.023 413.163 586.784 412.99 587.428 412.643C588.072 412.289 588.567 411.822 588.913 411.243C589.267 410.663 589.444 410.031 589.444 409.347V407.162C589.307 407.275 589.074 407.379 588.744 407.476C588.422 407.572 588.06 407.657 587.657 407.729C587.255 407.802 586.857 407.866 586.462 407.923C586.068 407.979 585.726 408.027 585.436 408.067C584.784 408.156 584.2 408.301 583.685 408.502C583.17 408.703 582.763 408.985 582.466 409.347C582.168 409.701 582.019 410.16 582.019 410.724C582.019 411.529 582.313 412.136 582.9 412.547C583.488 412.957 584.236 413.163 585.146 413.163ZM607.459 397.455V400.835H596.797V397.455H607.459ZM599.429 393.011H603.8V410.422C603.8 411.009 603.889 411.46 604.066 411.774C604.251 412.08 604.492 412.289 604.79 412.402C605.088 412.515 605.418 412.571 605.78 412.571C606.054 412.571 606.303 412.551 606.529 412.511C606.762 412.47 606.939 412.434 607.06 412.402L607.797 415.819C607.563 415.899 607.229 415.988 606.794 416.085C606.368 416.181 605.845 416.237 605.225 416.254C604.13 416.286 603.144 416.121 602.267 415.759C601.389 415.388 600.693 414.817 600.178 414.044C599.671 413.271 599.421 412.305 599.429 411.146V393.011ZM623.375 416L618.135 397.455H622.59L625.85 410.494H626.019L629.351 397.455H633.758L637.091 410.422H637.272L640.484 397.455H644.951L639.699 416H635.147L631.67 403.467H631.416L627.939 416H623.375ZM648.003 416V397.455H652.373V416H648.003ZM650.2 394.822C649.508 394.822 648.912 394.593 648.413 394.134C647.914 393.667 647.665 393.108 647.665 392.456C647.665 391.796 647.914 391.237 648.413 390.778C648.912 390.311 649.508 390.077 650.2 390.077C650.9 390.077 651.496 390.311 651.987 390.778C652.486 391.237 652.736 391.796 652.736 392.456C652.736 393.108 652.486 393.667 651.987 394.134C651.496 394.593 650.9 394.822 650.2 394.822ZM666.128 397.455V400.835H655.467V397.455H666.128ZM658.099 393.011H662.47V410.422C662.47 411.009 662.559 411.46 662.736 411.774C662.921 412.08 663.162 412.289 663.46 412.402C663.758 412.515 664.088 412.571 664.45 412.571C664.724 412.571 664.973 412.551 665.199 412.511C665.432 412.47 665.609 412.434 665.73 412.402L666.467 415.819C666.233 415.899 665.899 415.988 665.464 416.085C665.038 416.181 664.515 416.237 663.895 416.254C662.8 416.286 661.814 416.121 660.937 415.759C660.059 415.388 659.363 414.817 658.848 414.044C658.341 413.271 658.091 412.305 658.099 411.146V393.011ZM674.553 405.134V416H670.182V391.273H674.456V400.606H674.674C675.108 399.559 675.781 398.734 676.69 398.131C677.608 397.519 678.775 397.213 680.191 397.213C681.479 397.213 682.602 397.483 683.56 398.022C684.518 398.561 685.258 399.35 685.782 400.388C686.313 401.427 686.579 402.695 686.579 404.192V416H682.208V404.868C682.208 403.62 681.886 402.65 681.242 401.958C680.606 401.258 679.713 400.908 678.562 400.908C677.789 400.908 677.097 401.077 676.485 401.415C675.881 401.745 675.406 402.224 675.06 402.852C674.722 403.479 674.553 404.24 674.553 405.134ZM699.661 416V391.273H708.933C710.833 391.273 712.427 391.603 713.715 392.263C715.011 392.923 715.988 393.848 716.649 395.04C717.317 396.223 717.651 397.603 717.651 399.181C717.651 400.767 717.313 402.143 716.636 403.31C715.968 404.469 714.982 405.367 713.678 406.003C712.374 406.631 710.773 406.945 708.873 406.945H702.269V403.226H708.269C709.38 403.226 710.29 403.073 710.998 402.767C711.706 402.453 712.229 401.998 712.568 401.403C712.914 400.799 713.087 400.058 713.087 399.181C713.087 398.304 712.914 397.555 712.568 396.935C712.221 396.308 711.694 395.833 710.986 395.511C710.278 395.181 709.364 395.016 708.245 395.016H704.14V416H699.661ZM712.435 404.795L718.556 416H713.558L707.545 404.795H712.435ZM729.525 416.362C727.666 416.362 726.06 415.976 724.708 415.203C723.364 414.422 722.329 413.32 721.605 411.895C720.88 410.462 720.518 408.776 720.518 406.836C720.518 404.928 720.88 403.254 721.605 401.813C722.337 400.364 723.36 399.237 724.672 398.433C725.984 397.62 727.525 397.213 729.296 397.213C730.439 397.213 731.517 397.398 732.532 397.768C733.554 398.131 734.455 398.694 735.236 399.459C736.025 400.223 736.645 401.197 737.096 402.381C737.546 403.556 737.772 404.956 737.772 406.582V407.923H722.571V404.977H733.582C733.574 404.139 733.393 403.395 733.039 402.743C732.685 402.083 732.19 401.564 731.554 401.185C730.926 400.807 730.193 400.618 729.356 400.618C728.463 400.618 727.678 400.835 727.002 401.27C726.326 401.696 725.799 402.26 725.42 402.96C725.05 403.652 724.861 404.413 724.853 405.242V407.814C724.853 408.893 725.05 409.818 725.444 410.591C725.839 411.356 726.39 411.943 727.098 412.354C727.807 412.756 728.636 412.957 729.586 412.957C730.222 412.957 730.797 412.869 731.312 412.692C731.827 412.507 732.274 412.237 732.652 411.883C733.031 411.529 733.316 411.09 733.51 410.567L737.591 411.026C737.333 412.104 736.842 413.046 736.118 413.851C735.401 414.648 734.484 415.268 733.365 415.71C732.246 416.145 730.966 416.362 729.525 416.362ZM749.559 416.362C747.708 416.362 746.118 415.956 744.79 415.143C743.47 414.33 742.451 413.207 741.735 411.774C741.027 410.333 740.672 408.675 740.672 406.8C740.672 404.916 741.035 403.254 741.759 401.813C742.484 400.364 743.506 399.237 744.826 398.433C746.154 397.62 747.724 397.213 749.535 397.213C751.04 397.213 752.372 397.491 753.531 398.046C754.698 398.594 755.628 399.37 756.32 400.376C757.012 401.375 757.407 402.542 757.503 403.878H753.326C753.157 402.984 752.754 402.24 752.119 401.644C751.491 401.04 750.65 400.739 749.595 400.739C748.702 400.739 747.917 400.98 747.241 401.463C746.565 401.938 746.037 402.622 745.659 403.516C745.289 404.409 745.104 405.48 745.104 406.727C745.104 407.991 745.289 409.078 745.659 409.987C746.029 410.889 746.548 411.585 747.217 412.076C747.893 412.559 748.686 412.8 749.595 412.8C750.239 412.8 750.815 412.68 751.322 412.438C751.837 412.189 752.267 411.83 752.614 411.364C752.96 410.897 753.197 410.329 753.326 409.661H757.503C757.399 410.973 757.012 412.136 756.344 413.151C755.676 414.157 754.767 414.946 753.616 415.517C752.465 416.08 751.112 416.362 749.559 416.362ZM761.092 416V397.455H765.33V400.545H765.524C765.862 399.475 766.441 398.65 767.262 398.07C768.091 397.483 769.037 397.189 770.1 397.189C770.341 397.189 770.611 397.201 770.908 397.225C771.214 397.241 771.468 397.269 771.669 397.31V401.33C771.484 401.266 771.19 401.21 770.788 401.161C770.393 401.105 770.011 401.077 769.641 401.077C768.844 401.077 768.127 401.25 767.492 401.596C766.864 401.934 766.369 402.405 766.006 403.009C765.644 403.612 765.463 404.308 765.463 405.097V416H761.092ZM786.393 408.2V397.455H790.764V416H786.526V412.704H786.333C785.914 413.742 785.226 414.591 784.268 415.251C783.318 415.911 782.147 416.241 780.755 416.241C779.539 416.241 778.465 415.972 777.531 415.433C776.605 414.885 775.881 414.092 775.358 413.054C774.834 412.008 774.573 410.744 774.573 409.263V397.455H778.944V408.587C778.944 409.762 779.266 410.696 779.91 411.388C780.553 412.08 781.399 412.426 782.445 412.426C783.089 412.426 783.713 412.269 784.316 411.955C784.92 411.641 785.415 411.174 785.802 410.555C786.196 409.927 786.393 409.142 786.393 408.2ZM795.258 416V397.455H799.629V416H795.258ZM797.456 394.822C796.764 394.822 796.168 394.593 795.669 394.134C795.17 393.667 794.92 393.108 794.92 392.456C794.92 391.796 795.17 391.237 795.669 390.778C796.168 390.311 796.764 390.077 797.456 390.077C798.156 390.077 798.752 390.311 799.243 390.778C799.742 391.237 799.991 391.796 799.991 392.456C799.991 393.108 799.742 393.667 799.243 394.134C798.752 394.593 798.156 394.822 797.456 394.822ZM813.384 397.455V400.835H802.723V397.455H813.384ZM805.355 393.011H809.726V410.422C809.726 411.009 809.814 411.46 809.992 411.774C810.177 412.08 810.418 412.289 810.716 412.402C811.014 412.515 811.344 412.571 811.706 412.571C811.98 412.571 812.229 412.551 812.455 412.511C812.688 412.47 812.865 412.434 812.986 412.402L813.722 415.819C813.489 415.899 813.155 415.988 812.72 416.085C812.294 416.181 811.77 416.237 811.151 416.254C810.056 416.286 809.07 416.121 808.193 415.759C807.315 415.388 806.619 414.817 806.104 414.044C805.597 413.271 805.347 412.305 805.355 411.146V393.011ZM825.051 416.362C823.191 416.362 821.585 415.976 820.233 415.203C818.889 414.422 817.855 413.32 817.13 411.895C816.406 410.462 816.044 408.776 816.044 406.836C816.044 404.928 816.406 403.254 817.13 401.813C817.863 400.364 818.885 399.237 820.197 398.433C821.509 397.62 823.05 397.213 824.821 397.213C825.964 397.213 827.043 397.398 828.057 397.768C829.079 398.131 829.981 398.694 830.762 399.459C831.55 400.223 832.17 401.197 832.621 402.381C833.072 403.556 833.297 404.956 833.297 406.582V407.923H818.096V404.977H829.108C829.099 404.139 828.918 403.395 828.564 402.743C828.21 402.083 827.715 401.564 827.079 401.185C826.451 400.807 825.719 400.618 824.882 400.618C823.988 400.618 823.203 400.835 822.527 401.27C821.851 401.696 821.324 402.26 820.946 402.96C820.575 403.652 820.386 404.413 820.378 405.242V407.814C820.378 408.893 820.575 409.818 820.97 410.591C821.364 411.356 821.916 411.943 822.624 412.354C823.332 412.756 824.161 412.957 825.111 412.957C825.747 412.957 826.322 412.869 826.838 412.692C827.353 412.507 827.8 412.237 828.178 411.883C828.556 411.529 828.842 411.09 829.035 410.567L833.116 411.026C832.858 412.104 832.367 413.046 831.643 413.851C830.927 414.648 830.009 415.268 828.89 415.71C827.771 416.145 826.492 416.362 825.051 416.362ZM836.995 416V397.455H841.233V400.545H841.426C841.764 399.475 842.343 398.65 843.165 398.07C843.994 397.483 844.939 397.189 846.002 397.189C846.243 397.189 846.513 397.201 846.811 397.225C847.117 397.241 847.37 397.269 847.571 397.31V401.33C847.386 401.266 847.093 401.21 846.69 401.161C846.296 401.105 845.913 401.077 845.543 401.077C844.746 401.077 844.03 401.25 843.394 401.596C842.766 401.934 842.271 402.405 841.909 403.009C841.547 403.612 841.366 404.308 841.366 405.097V416H836.995ZM865.133 402.357L861.149 402.791C861.036 402.389 860.839 402.01 860.557 401.656C860.283 401.302 859.913 401.016 859.446 400.799C858.979 400.582 858.408 400.473 857.732 400.473C856.822 400.473 856.057 400.67 855.438 401.065C854.826 401.459 854.524 401.97 854.532 402.598C854.524 403.137 854.721 403.576 855.124 403.914C855.534 404.252 856.21 404.53 857.152 404.747L860.315 405.423C862.07 405.802 863.374 406.401 864.227 407.222C865.089 408.043 865.523 409.118 865.531 410.446C865.523 411.613 865.181 412.643 864.505 413.537C863.837 414.422 862.907 415.115 861.716 415.614C860.525 416.113 859.156 416.362 857.611 416.362C855.341 416.362 853.514 415.887 852.129 414.938C850.745 413.98 849.92 412.647 849.654 410.941L853.916 410.531C854.109 411.368 854.52 412 855.148 412.426C855.776 412.853 856.593 413.066 857.599 413.066C858.637 413.066 859.47 412.853 860.098 412.426C860.734 412 861.052 411.472 861.052 410.844C861.052 410.313 860.847 409.875 860.436 409.528C860.034 409.182 859.406 408.917 858.553 408.732L855.389 408.067C853.61 407.697 852.294 407.073 851.441 406.196C850.588 405.311 850.165 404.192 850.173 402.839C850.165 401.696 850.475 400.706 851.103 399.869C851.739 399.024 852.62 398.372 853.747 397.913C854.882 397.446 856.19 397.213 857.671 397.213C859.845 397.213 861.555 397.676 862.803 398.602C864.058 399.527 864.835 400.779 865.133 402.357Z" fill="#212427"/>
<g opacity="0.7" filter="url(#filter5_d_31_1094)">
<rect x="922" y="300" width="204.927" height="204.927" rx="30" fill="#F8F1F1"/>
</g>
<path d="M1096.34 383.954C1095.66 385.819 1095.23 387.821 1094.26 389.523C1091.18 394.969 1086.33 397.657 1080.08 397.81C1077.75 397.867 1075.43 397.82 1072.92 397.82C1072.92 398.43 1072.92 398.914 1072.92 399.396C1072.92 403.039 1072.92 406.681 1072.93 410.324C1072.93 412.354 1072.24 414.013 1070.3 414.879C1068.29 415.77 1066.59 415.124 1065.05 413.694C1059.62 408.671 1054.18 403.665 1048.69 398.706C1048.15 398.219 1047.27 397.869 1046.54 397.86C1041.24 397.789 1035.93 397.862 1030.62 397.813C1020.42 397.716 1013 389.105 1014.41 378.943C1021.33 378.943 1028.26 378.943 1035 378.943C1035.89 380.617 1036.55 382.345 1037.61 383.794C1042.22 390.152 1051.54 390.956 1057.09 385.321C1060.76 381.586 1064.2 377.598 1067.48 373.514C1071.2 368.895 1071 362.133 1067.21 357.578C1064.15 353.898 1061.03 350.25 1057.76 346.757C1050.69 339.219 1038.89 341.833 1035.59 351.591C1035.49 351.888 1035.37 352.182 1035.24 352.52C1028.3 352.52 1021.37 352.52 1014.45 352.52C1013.01 341.694 1021.07 333.707 1030.32 333.69C1046.98 333.662 1063.64 333.674 1080.3 333.7C1081.48 333.702 1082.69 333.828 1083.83 334.121C1090.59 335.87 1094.66 340.205 1096.1 347C1096.14 347.213 1096.26 347.412 1096.34 347.617C1096.34 359.729 1096.34 371.84 1096.34 383.954Z" fill="#00A0DC"/>
<path d="M958.999 473.574C956.447 472.475 955.675 470.527 955.646 467.809C955.575 461.169 957.982 455.955 963.749 452.45C966.175 450.975 968.853 450.28 971.707 450.282C976.642 450.287 981.58 450.232 986.516 450.294C995.453 450.403 1002.32 457.186 1002.6 466.107C1002.61 466.653 1002.56 467.201 1002.61 467.743C1002.86 470.416 1001.9 472.423 999.381 473.574C985.917 473.574 972.458 473.574 958.999 473.574Z" fill="#00A0DC"/>
<path d="M1052.66 473.574C1049.84 472.321 1049.35 470.002 1049.4 467.192C1049.5 460.176 1052.44 454.957 1058.79 451.78C1060.99 450.681 1063.36 450.261 1065.83 450.275C1070.49 450.303 1075.16 450.268 1079.82 450.287C1088.19 450.317 1094.45 455.468 1096.1 463.653C1096.15 463.871 1096.26 464.076 1096.34 464.287C1096.34 466.291 1096.34 468.293 1096.34 470.298C1095.69 471.834 1094.59 472.926 1093.04 473.576C1079.58 473.574 1066.12 473.574 1052.66 473.574Z" fill="#00A0DC"/>
<path d="M1011.52 333.707C1006.78 339.311 1005.1 345.627 1005.51 352.333C1003.55 353.146 1001.78 353.909 999.971 354.604C999.702 354.708 999.265 354.571 998.98 354.413C994.755 352.068 990.235 352.078 985.77 353.181C979.49 354.734 975.512 361.017 976.337 367.522C977.116 373.67 982.477 378.544 988.76 378.794C992.343 378.939 995.915 378.998 999.13 376.981C999.377 376.828 999.835 376.842 1000.13 376.955C1001.86 377.622 1003.57 378.338 1005.51 379.132C1005.11 385.781 1006.76 392.116 1011.57 397.817C1009.54 397.817 1007.84 397.893 1006.15 397.794C1004.81 397.713 1003.85 398.146 1002.88 399.056C997.542 404.043 992.153 408.976 986.749 413.895C984.364 416.065 980.987 415.602 979.68 412.91C979.3 412.125 979.162 411.158 979.148 410.272C979.091 406.677 979.124 403.077 979.124 399.481C979.124 398.99 979.124 398.498 979.124 397.817C977.149 397.817 975.289 397.77 973.433 397.827C968.766 397.971 964.546 396.827 961.034 393.643C957.652 390.577 955.775 386.739 955.742 382.196C955.659 371.224 955.656 360.249 955.735 349.274C955.794 341.138 962.533 333.915 970.684 333.768C984.176 333.532 997.68 333.707 1011.52 333.707Z" fill="#00A0DC"/>
<path d="M1043.6 361.343C1043.6 359.436 1043.59 357.673 1043.6 355.909C1043.62 353.735 1044.62 352.16 1046.4 351.475C1048.2 350.78 1050.02 351.239 1051.47 352.86C1054.35 356.096 1057.22 359.348 1060.05 362.632C1061.82 364.683 1061.79 366.848 1060 368.907C1057.19 372.145 1054.35 375.365 1051.51 378.579C1050.08 380.203 1048.29 380.697 1046.46 380.026C1044.68 379.376 1043.62 377.769 1043.6 375.632C1043.59 373.947 1043.59 372.264 1043.59 370.578C1043.59 370.489 1043.55 370.401 1043.48 370.091C1043 370.091 1042.48 370.091 1041.95 370.091C1030.51 370.091 1019.06 370.08 1007.62 370.103C1006.02 370.106 1004.63 369.756 1003.58 368.486C1001.55 366.028 1002.79 362.284 1005.89 361.54C1006.55 361.381 1007.25 361.355 1007.93 361.355C1019.24 361.343 1030.55 361.348 1041.86 361.348C1042.39 361.343 1042.93 361.343 1043.6 361.343Z" fill="#00A0DC"/>
<path d="M979.146 444.399C972.661 444.404 967.472 439.258 967.455 432.805C967.441 426.357 972.621 421.145 979.073 421.119C985.581 421.093 990.873 426.338 990.859 432.8C990.844 439.222 985.621 444.392 979.146 444.399Z" fill="#00A0DC"/>
<path d="M1084.59 432.748C1084.6 439.208 1079.44 444.373 1072.95 444.399C1066.48 444.425 1061.22 439.27 1061.18 432.859C1061.15 426.39 1066.41 421.116 1072.91 421.119C1079.37 421.119 1084.58 426.305 1084.59 432.748Z" fill="#00A0DC"/>
<path d="M990.792 370.061C990.198 370.061 989.604 370.098 989.012 370.053C986.921 369.897 985.229 368.236 985.056 366.208C984.863 363.932 986.163 361.901 988.347 361.563C989.944 361.315 991.633 361.31 993.235 361.532C995.485 361.844 996.863 363.906 996.661 366.21C996.478 368.3 994.753 369.935 992.567 370.065C991.975 370.101 991.381 370.07 990.787 370.07C990.792 370.068 990.792 370.065 990.792 370.061Z" fill="#00A0DC"/>
<g opacity="0.7" filter="url(#filter6_d_31_1094)">
<rect x="257" y="760" width="589" height="110" rx="20" fill="#F8F1F1"/>
</g>
<path d="M314.423 828H309.642L318.347 803.273H323.877L332.594 828H327.813L321.208 808.344H321.015L314.423 828ZM314.58 818.305H327.62V821.903H314.58V818.305ZM343.756 809.455V812.835H333.095V809.455H343.756ZM335.727 805.011H340.098V822.422C340.098 823.009 340.187 823.46 340.364 823.774C340.549 824.08 340.79 824.289 341.088 824.402C341.386 824.515 341.716 824.571 342.078 824.571C342.352 824.571 342.601 824.551 342.827 824.511C343.06 824.47 343.237 824.434 343.358 824.402L344.094 827.819C343.861 827.899 343.527 827.988 343.092 828.085C342.666 828.181 342.143 828.237 341.523 828.254C340.428 828.286 339.442 828.121 338.565 827.759C337.687 827.388 336.991 826.817 336.476 826.044C335.969 825.271 335.719 824.305 335.727 823.146V805.011ZM356.672 809.455V812.835H346.011V809.455H356.672ZM348.643 805.011H353.014V822.422C353.014 823.009 353.103 823.46 353.28 823.774C353.465 824.08 353.706 824.289 354.004 824.402C354.302 824.515 354.632 824.571 354.994 824.571C355.268 824.571 355.517 824.551 355.743 824.511C355.976 824.47 356.153 824.434 356.274 824.402L357.01 827.819C356.777 827.899 356.443 827.988 356.008 828.085C355.582 828.181 355.059 828.237 354.439 828.254C353.344 828.286 352.358 828.121 351.481 827.759C350.603 827.388 349.907 826.817 349.392 826.044C348.885 825.271 348.635 824.305 348.643 823.146V805.011ZM368.339 828.362C366.479 828.362 364.874 827.976 363.521 827.203C362.177 826.422 361.143 825.32 360.418 823.895C359.694 822.462 359.332 820.776 359.332 818.836C359.332 816.928 359.694 815.254 360.418 813.813C361.151 812.364 362.173 811.237 363.485 810.433C364.797 809.62 366.339 809.213 368.109 809.213C369.252 809.213 370.331 809.398 371.345 809.768C372.367 810.131 373.269 810.694 374.05 811.459C374.839 812.223 375.458 813.197 375.909 814.381C376.36 815.556 376.585 816.956 376.585 818.582V819.923H361.384V816.977H372.396C372.388 816.139 372.206 815.395 371.852 814.743C371.498 814.083 371.003 813.564 370.367 813.185C369.739 812.807 369.007 812.618 368.17 812.618C367.276 812.618 366.491 812.835 365.815 813.27C365.139 813.696 364.612 814.26 364.234 814.96C363.863 815.652 363.674 816.413 363.666 817.242V819.814C363.666 820.893 363.863 821.818 364.258 822.591C364.652 823.356 365.204 823.943 365.912 824.354C366.62 824.756 367.449 824.957 368.399 824.957C369.035 824.957 369.611 824.869 370.126 824.692C370.641 824.507 371.088 824.237 371.466 823.883C371.844 823.529 372.13 823.09 372.323 822.567L376.404 823.026C376.147 824.104 375.656 825.046 374.931 825.851C374.215 826.648 373.297 827.268 372.178 827.71C371.059 828.145 369.78 828.362 368.339 828.362ZM384.654 817.134V828H380.283V809.455H384.46V812.606H384.678C385.104 811.567 385.785 810.742 386.718 810.131C387.66 809.519 388.823 809.213 390.208 809.213C391.487 809.213 392.602 809.487 393.552 810.034C394.51 810.581 395.25 811.374 395.774 812.413C396.305 813.451 396.566 814.711 396.558 816.192V828H392.188V816.868C392.188 815.628 391.866 814.658 391.222 813.958C390.586 813.258 389.704 812.908 388.578 812.908C387.813 812.908 387.133 813.077 386.537 813.415C385.95 813.745 385.487 814.224 385.149 814.852C384.819 815.479 384.654 816.24 384.654 817.134ZM407.884 828.326C406.427 828.326 405.123 827.952 403.972 827.203C402.821 826.455 401.911 825.368 401.243 823.943C400.575 822.518 400.241 820.788 400.241 818.751C400.241 816.691 400.579 814.952 401.255 813.536C401.939 812.111 402.861 811.036 404.02 810.312C405.179 809.579 406.471 809.213 407.896 809.213C408.982 809.213 409.876 809.398 410.576 809.768C411.276 810.131 411.832 810.569 412.242 811.085C412.653 811.592 412.971 812.071 413.196 812.521H413.377V803.273H417.76V828H413.462V825.078H413.196C412.971 825.529 412.645 826.008 412.218 826.515C411.792 827.014 411.228 827.441 410.528 827.795C409.828 828.149 408.946 828.326 407.884 828.326ZM409.103 824.74C410.029 824.74 410.818 824.491 411.47 823.991C412.122 823.484 412.617 822.78 412.955 821.879C413.293 820.977 413.462 819.927 413.462 818.727C413.462 817.528 413.293 816.486 412.955 815.6C412.625 814.715 412.134 814.027 411.482 813.536C410.838 813.045 410.045 812.799 409.103 812.799C408.129 812.799 407.316 813.053 406.664 813.56C406.012 814.067 405.521 814.767 405.191 815.661C404.861 816.554 404.696 817.576 404.696 818.727C404.696 819.886 404.861 820.921 405.191 821.83C405.529 822.732 406.024 823.444 406.676 823.967C407.336 824.482 408.145 824.74 409.103 824.74ZM435.524 803.273V828H431.044V803.273H435.524ZM444.552 817.134V828H440.181V809.455H444.359V812.606H444.576C445.003 811.567 445.683 810.742 446.617 810.131C447.558 809.519 448.722 809.213 450.106 809.213C451.386 809.213 452.501 809.487 453.45 810.034C454.408 810.581 455.149 811.374 455.672 812.413C456.203 813.451 456.465 814.711 456.457 816.192V828H452.086V816.868C452.086 815.628 451.764 814.658 451.12 813.958C450.484 813.258 449.603 812.908 448.476 812.908C447.711 812.908 447.031 813.077 446.436 813.415C445.848 813.745 445.385 814.224 445.047 814.852C444.717 815.479 444.552 816.24 444.552 817.134ZM470.161 809.455V812.835H459.499V809.455H470.161ZM462.132 805.011H466.502V822.422C466.502 823.009 466.591 823.46 466.768 823.774C466.953 824.08 467.195 824.289 467.492 824.402C467.79 824.515 468.12 824.571 468.482 824.571C468.756 824.571 469.006 824.551 469.231 824.511C469.464 824.47 469.642 824.434 469.762 824.402L470.499 827.819C470.265 827.899 469.931 827.988 469.497 828.085C469.07 828.181 468.547 828.237 467.927 828.254C466.832 828.286 465.846 828.121 464.969 827.759C464.092 827.388 463.395 826.817 462.88 826.044C462.373 825.271 462.124 824.305 462.132 823.146V805.011ZM481.827 828.362C479.968 828.362 478.362 827.976 477.01 827.203C475.665 826.422 474.631 825.32 473.907 823.895C473.182 822.462 472.82 820.776 472.82 818.836C472.82 816.928 473.182 815.254 473.907 813.813C474.639 812.364 475.661 811.237 476.973 810.433C478.285 809.62 479.827 809.213 481.598 809.213C482.741 809.213 483.819 809.398 484.833 809.768C485.856 810.131 486.757 810.694 487.538 811.459C488.327 812.223 488.947 813.197 489.397 814.381C489.848 815.556 490.074 816.956 490.074 818.582V819.923H474.873V816.977H485.884C485.876 816.139 485.695 815.395 485.341 814.743C484.986 814.083 484.491 813.564 483.855 813.185C483.228 812.807 482.495 812.618 481.658 812.618C480.765 812.618 479.98 812.835 479.304 813.27C478.627 813.696 478.1 814.26 477.722 814.96C477.352 815.652 477.163 816.413 477.154 817.242V819.814C477.154 820.893 477.352 821.818 477.746 822.591C478.141 823.356 478.692 823.943 479.4 824.354C480.109 824.756 480.938 824.957 481.887 824.957C482.523 824.957 483.099 824.869 483.614 824.692C484.129 824.507 484.576 824.237 484.954 823.883C485.333 823.529 485.618 823.09 485.811 822.567L489.892 823.026C489.635 824.104 489.144 825.046 488.419 825.851C487.703 826.648 486.785 827.268 485.667 827.71C484.548 828.145 483.268 828.362 481.827 828.362ZM493.771 828V809.455H498.009V812.545H498.202C498.54 811.475 499.12 810.65 499.941 810.07C500.77 809.483 501.716 809.189 502.778 809.189C503.02 809.189 503.289 809.201 503.587 809.225C503.893 809.241 504.147 809.269 504.348 809.31V813.33C504.163 813.266 503.869 813.21 503.466 813.161C503.072 813.105 502.69 813.077 502.319 813.077C501.523 813.077 500.806 813.25 500.17 813.596C499.542 813.934 499.047 814.405 498.685 815.009C498.323 815.612 498.142 816.308 498.142 817.097V828H493.771ZM524.381 809.455L517.777 828H512.947L506.343 809.455H511.004L515.266 823.231H515.459L519.733 809.455H524.381ZM527.406 828V809.455H531.777V828H527.406ZM529.603 806.822C528.911 806.822 528.315 806.593 527.816 806.134C527.317 805.667 527.068 805.108 527.068 804.456C527.068 803.796 527.317 803.237 527.816 802.778C528.315 802.311 528.911 802.077 529.603 802.077C530.304 802.077 530.899 802.311 531.39 802.778C531.889 803.237 532.139 803.796 532.139 804.456C532.139 805.108 531.889 805.667 531.39 806.134C530.899 806.593 530.304 806.822 529.603 806.822ZM544.481 828.362C542.622 828.362 541.016 827.976 539.664 827.203C538.32 826.422 537.285 825.32 536.561 823.895C535.836 822.462 535.474 820.776 535.474 818.836C535.474 816.928 535.836 815.254 536.561 813.813C537.293 812.364 538.316 811.237 539.628 810.433C540.94 809.62 542.481 809.213 544.252 809.213C545.395 809.213 546.474 809.398 547.488 809.768C548.51 810.131 549.412 810.694 550.192 811.459C550.981 812.223 551.601 813.197 552.052 814.381C552.502 815.556 552.728 816.956 552.728 818.582V819.923H537.527V816.977H548.538C548.53 816.139 548.349 815.395 547.995 814.743C547.641 814.083 547.146 813.564 546.51 813.185C545.882 812.807 545.149 812.618 544.312 812.618C543.419 812.618 542.634 812.835 541.958 813.27C541.282 813.696 540.755 814.26 540.376 814.96C540.006 815.652 539.817 816.413 539.809 817.242V819.814C539.809 820.893 540.006 821.818 540.4 822.591C540.795 823.356 541.346 823.943 542.055 824.354C542.763 824.756 543.592 824.957 544.542 824.957C545.178 824.957 545.753 824.869 546.268 824.692C546.783 824.507 547.23 824.237 547.608 823.883C547.987 823.529 548.273 823.09 548.466 822.567L552.547 823.026C552.289 824.104 551.798 825.046 551.074 825.851C550.357 826.648 549.44 827.268 548.321 827.71C547.202 828.145 545.922 828.362 544.481 828.362ZM560.153 828L554.913 809.455H559.368L562.628 822.494H562.797L566.13 809.455H570.537L573.869 822.422H574.05L577.262 809.455H581.729L576.477 828H571.925L568.448 815.467H568.194L564.717 828H560.153ZM609.78 809.455L603.175 828H598.346L591.741 809.455H596.402L600.664 823.231H600.857L605.131 809.455H609.78ZM612.804 828V809.455H617.175V828H612.804ZM615.002 806.822C614.31 806.822 613.714 806.593 613.215 806.134C612.716 805.667 612.466 805.108 612.466 804.456C612.466 803.796 612.716 803.237 613.215 802.778C613.714 802.311 614.31 802.077 615.002 802.077C615.702 802.077 616.298 802.311 616.789 802.778C617.288 803.237 617.537 803.796 617.537 804.456C617.537 805.108 617.288 805.667 616.789 806.134C616.298 806.593 615.702 806.822 615.002 806.822ZM627.006 828.374C625.831 828.374 624.773 828.165 623.831 827.746C622.897 827.32 622.157 826.692 621.609 825.863C621.07 825.034 620.8 824.012 620.8 822.796C620.8 821.75 620.993 820.884 621.38 820.2C621.766 819.516 622.293 818.969 622.961 818.558C623.63 818.148 624.382 817.838 625.219 817.629C626.064 817.411 626.938 817.254 627.839 817.158C628.926 817.045 629.807 816.944 630.483 816.856C631.16 816.759 631.651 816.614 631.956 816.421C632.27 816.22 632.427 815.91 632.427 815.491V815.419C632.427 814.509 632.158 813.805 631.618 813.306C631.079 812.807 630.302 812.558 629.288 812.558C628.218 812.558 627.368 812.791 626.741 813.258C626.121 813.725 625.702 814.276 625.485 814.912L621.404 814.332C621.726 813.205 622.257 812.264 622.998 811.507C623.738 810.742 624.644 810.171 625.714 809.793C626.785 809.406 627.968 809.213 629.264 809.213C630.157 809.213 631.047 809.318 631.932 809.527C632.818 809.736 633.627 810.082 634.359 810.565C635.092 811.04 635.679 811.688 636.122 812.509C636.573 813.33 636.798 814.357 636.798 815.588V828H632.596V825.452H632.452C632.186 825.968 631.812 826.451 631.329 826.901C630.854 827.344 630.254 827.702 629.53 827.976C628.813 828.241 627.972 828.374 627.006 828.374ZM628.141 825.163C629.019 825.163 629.779 824.99 630.423 824.643C631.067 824.289 631.562 823.822 631.908 823.243C632.262 822.663 632.439 822.031 632.439 821.347V819.162C632.303 819.275 632.069 819.379 631.739 819.476C631.417 819.572 631.055 819.657 630.653 819.729C630.25 819.802 629.852 819.866 629.457 819.923C629.063 819.979 628.721 820.027 628.431 820.067C627.779 820.156 627.195 820.301 626.68 820.502C626.165 820.703 625.759 820.985 625.461 821.347C625.163 821.701 625.014 822.16 625.014 822.724C625.014 823.529 625.308 824.136 625.895 824.547C626.483 824.957 627.232 825.163 628.141 825.163ZM653.128 803.273L659.563 822.736H659.817L666.24 803.273H671.166L662.449 828H656.919L648.214 803.273H653.128ZM674.23 828V809.455H678.601V828H674.23ZM676.428 806.822C675.735 806.822 675.14 806.593 674.641 806.134C674.142 805.667 673.892 805.108 673.892 804.456C673.892 803.796 674.142 803.237 674.641 802.778C675.14 802.311 675.735 802.077 676.428 802.077C677.128 802.077 677.723 802.311 678.214 802.778C678.714 803.237 678.963 803.796 678.963 804.456C678.963 805.108 678.714 805.667 678.214 806.134C677.723 806.593 677.128 806.822 676.428 806.822ZM689.977 828.326C688.521 828.326 687.217 827.952 686.066 827.203C684.914 826.455 684.005 825.368 683.337 823.943C682.669 822.518 682.335 820.788 682.335 818.751C682.335 816.691 682.673 814.952 683.349 813.536C684.033 812.111 684.955 811.036 686.114 810.312C687.273 809.579 688.565 809.213 689.99 809.213C691.076 809.213 691.97 809.398 692.67 809.768C693.37 810.131 693.926 810.569 694.336 811.085C694.747 811.592 695.065 812.071 695.29 812.521H695.471V803.273H699.854V828H695.556V825.078H695.29C695.065 825.529 694.739 826.008 694.312 826.515C693.885 827.014 693.322 827.441 692.622 827.795C691.921 828.149 691.04 828.326 689.977 828.326ZM691.197 824.74C692.123 824.74 692.911 824.491 693.563 823.991C694.215 823.484 694.71 822.78 695.048 821.879C695.387 820.977 695.556 819.927 695.556 818.727C695.556 817.528 695.387 816.486 695.048 815.6C694.718 814.715 694.227 814.027 693.575 813.536C692.932 813.045 692.139 812.799 691.197 812.799C690.223 812.799 689.41 813.053 688.758 813.56C688.106 814.067 687.615 814.767 687.285 815.661C686.955 816.554 686.79 817.576 686.79 818.727C686.79 819.886 686.955 820.921 687.285 821.83C687.623 822.732 688.118 823.444 688.77 823.967C689.43 824.482 690.239 824.74 691.197 824.74ZM712.722 828.362C710.862 828.362 709.256 827.976 707.904 827.203C706.56 826.422 705.526 825.32 704.801 823.895C704.077 822.462 703.714 820.776 703.714 818.836C703.714 816.928 704.077 815.254 704.801 813.813C705.534 812.364 706.556 811.237 707.868 810.433C709.18 809.62 710.721 809.213 712.492 809.213C713.635 809.213 714.714 809.398 715.728 809.768C716.75 810.131 717.652 810.694 718.433 811.459C719.221 812.223 719.841 813.197 720.292 814.381C720.743 815.556 720.968 816.956 720.968 818.582V819.923H705.767V816.977H716.778C716.77 816.139 716.589 815.395 716.235 814.743C715.881 814.083 715.386 813.564 714.75 813.185C714.122 812.807 713.39 812.618 712.553 812.618C711.659 812.618 710.874 812.835 710.198 813.27C709.522 813.696 708.995 814.26 708.616 814.96C708.246 815.652 708.057 816.413 708.049 817.242V819.814C708.049 820.893 708.246 821.818 708.641 822.591C709.035 823.356 709.586 823.943 710.295 824.354C711.003 824.756 711.832 824.957 712.782 824.957C713.418 824.957 713.993 824.869 714.509 824.692C715.024 824.507 715.47 824.237 715.849 823.883C716.227 823.529 716.513 823.09 716.706 822.567L720.787 823.026C720.529 824.104 720.038 825.046 719.314 825.851C718.598 826.648 717.68 827.268 716.561 827.71C715.442 828.145 714.162 828.362 712.722 828.362ZM732.755 828.362C730.944 828.362 729.374 827.964 728.046 827.167C726.718 826.37 725.688 825.255 724.955 823.822C724.231 822.39 723.869 820.715 723.869 818.8C723.869 816.884 724.231 815.206 724.955 813.765C725.688 812.324 726.718 811.205 728.046 810.408C729.374 809.612 730.944 809.213 732.755 809.213C734.566 809.213 736.136 809.612 737.464 810.408C738.792 811.205 739.818 812.324 740.543 813.765C741.275 815.206 741.642 816.884 741.642 818.8C741.642 820.715 741.275 822.39 740.543 823.822C739.818 825.255 738.792 826.37 737.464 827.167C736.136 827.964 734.566 828.362 732.755 828.362ZM732.779 824.861C733.761 824.861 734.582 824.591 735.242 824.052C735.902 823.504 736.393 822.772 736.715 821.854C737.045 820.937 737.21 819.915 737.21 818.788C737.21 817.653 737.045 816.626 736.715 815.709C736.393 814.783 735.902 814.047 735.242 813.499C734.582 812.952 733.761 812.678 732.779 812.678C731.773 812.678 730.936 812.952 730.268 813.499C729.608 814.047 729.113 814.783 728.783 815.709C728.461 816.626 728.3 817.653 728.3 818.788C728.3 819.915 728.461 820.937 728.783 821.854C729.113 822.772 729.608 823.504 730.268 824.052C730.936 824.591 731.773 824.861 732.779 824.861ZM775.143 811.616H770.628C770.499 810.875 770.262 810.219 769.915 809.648C769.569 809.068 769.139 808.577 768.624 808.175C768.108 807.772 767.521 807.47 766.861 807.269C766.209 807.06 765.504 806.955 764.748 806.955C763.404 806.955 762.212 807.293 761.174 807.969C760.136 808.638 759.323 809.62 758.735 810.915C758.147 812.203 757.854 813.777 757.854 815.636C757.854 817.528 758.147 819.122 758.735 820.418C759.331 821.705 760.144 822.679 761.174 823.339C762.212 823.991 763.4 824.317 764.736 824.317C765.476 824.317 766.169 824.221 766.812 824.028C767.464 823.826 768.048 823.533 768.563 823.146C769.086 822.76 769.525 822.285 769.879 821.722C770.241 821.158 770.491 820.514 770.628 819.79L775.143 819.814C774.974 820.989 774.608 822.092 774.045 823.122C773.489 824.152 772.761 825.062 771.859 825.851C770.958 826.632 769.903 827.243 768.696 827.686C767.489 828.121 766.148 828.338 764.675 828.338C762.502 828.338 760.562 827.835 758.856 826.829C757.149 825.823 755.805 824.37 754.823 822.47C753.841 820.571 753.35 818.293 753.35 815.636C753.35 812.972 753.845 810.694 754.835 808.803C755.825 806.903 757.174 805.45 758.88 804.444C760.586 803.438 762.518 802.935 764.675 802.935C766.052 802.935 767.332 803.128 768.515 803.514C769.698 803.901 770.753 804.468 771.678 805.217C772.604 805.957 773.365 806.867 773.96 807.945C774.564 809.016 774.958 810.239 775.143 811.616ZM784.389 828.374C783.214 828.374 782.155 828.165 781.214 827.746C780.28 827.32 779.539 826.692 778.992 825.863C778.453 825.034 778.183 824.012 778.183 822.796C778.183 821.75 778.376 820.884 778.763 820.2C779.149 819.516 779.676 818.969 780.344 818.558C781.012 818.148 781.765 817.838 782.602 817.629C783.447 817.411 784.321 817.254 785.222 817.158C786.309 817.045 787.19 816.944 787.866 816.856C788.542 816.759 789.033 816.614 789.339 816.421C789.653 816.22 789.81 815.91 789.81 815.491V815.419C789.81 814.509 789.541 813.805 789.001 813.306C788.462 812.807 787.685 812.558 786.671 812.558C785.6 812.558 784.751 812.791 784.123 813.258C783.504 813.725 783.085 814.276 782.868 814.912L778.787 814.332C779.109 813.205 779.64 812.264 780.381 811.507C781.121 810.742 782.027 810.171 783.097 809.793C784.168 809.406 785.351 809.213 786.647 809.213C787.54 809.213 788.43 809.318 789.315 809.527C790.201 809.736 791.01 810.082 791.742 810.565C792.474 811.04 793.062 811.688 793.505 812.509C793.956 813.33 794.181 814.357 794.181 815.588V828H789.979V825.452H789.834C789.569 825.968 789.194 826.451 788.711 826.901C788.237 827.344 787.637 827.702 786.912 827.976C786.196 828.241 785.355 828.374 784.389 828.374ZM785.524 825.163C786.401 825.163 787.162 824.99 787.806 824.643C788.45 824.289 788.945 823.822 789.291 823.243C789.645 822.663 789.822 822.031 789.822 821.347V819.162C789.685 819.275 789.452 819.379 789.122 819.476C788.8 819.572 788.438 819.657 788.035 819.729C787.633 819.802 787.234 819.866 786.84 819.923C786.446 819.979 786.104 820.027 785.814 820.067C785.162 820.156 784.578 820.301 784.063 820.502C783.548 820.703 783.141 820.985 782.844 821.347C782.546 821.701 782.397 822.16 782.397 822.724C782.397 823.529 782.691 824.136 783.278 824.547C783.866 824.957 784.614 825.163 785.524 825.163ZM802.947 803.273V828H798.576V803.273H802.947ZM811.812 803.273V828H807.441V803.273H811.812Z" fill="#212427"/>
<g opacity="0.7" filter="url(#filter7_d_31_1094)">
<rect x="871" y="712" width="207.227" height="206.456" rx="30" fill="#F8F1F1"/>
</g>
<path d="M1014.86 833.049C1000.87 829.616 993.915 817.047 995.42 804.908C996.95 792.565 1006.92 783.427 1018.82 783.263C1030.89 783.099 1040.94 791.917 1042.8 804.599C1044.54 816.436 1037.76 829.589 1023.17 832.92C1025.47 833.256 1027.65 833.423 1029.76 833.913C1045.04 837.449 1055.58 850.806 1055.94 867.239C1056.11 874.967 1056.04 882.706 1055.96 890.436C1055.89 897.36 1051.22 902.144 1044.56 902.16C1027.6 902.204 1010.64 902.204 993.675 902.16C987.312 902.144 982.513 897.64 982.384 891.106C982.206 882.122 982.082 873.108 982.604 864.147C983.528 848.271 996.912 834.575 1012.14 833.318C1013.05 833.243 1013.96 833.138 1014.86 833.049Z" fill="#00A0DC"/>
<path d="M984.227 840.826C979.927 846.466 977.103 852.318 975.893 858.903C975.366 861.771 975.059 864.72 975.007 867.64C974.881 874.593 974.966 881.551 974.966 888.51C974.966 889.156 974.966 889.802 974.966 890.663C974.202 890.663 973.59 890.663 972.976 890.663C953.591 890.663 934.208 890.582 914.823 890.722C910.192 890.754 908.031 887.563 908.896 883.161C910.249 876.291 915.535 871.56 922.301 871.512C928.733 871.466 935.168 871.501 941.717 871.501C941.717 868.966 941.717 866.545 941.717 863.854C941.056 863.854 940.393 863.854 939.729 863.854C930.814 863.854 921.898 863.894 912.982 863.843C903.628 863.789 896.318 857.778 894.4 848.57C894.072 847.001 893.964 845.357 893.964 843.748C893.938 818.739 893.93 793.733 893.953 768.725C893.964 758.518 899.952 750.804 909.232 749.004C910.577 748.743 911.978 748.718 913.351 748.718C945.849 748.702 978.35 748.697 1010.85 748.713C1022.42 748.718 1030.17 756.856 1030.18 768.948C1030.19 771.763 1030.18 774.577 1030.18 777.306C1026.53 776.601 1022.95 775.909 1019.14 775.175C1019.14 773.095 1019.15 770.77 1019.14 768.448C1019.11 763.397 1016.13 760.233 1011.28 760.23C978.497 760.214 945.713 760.214 912.926 760.23C908 760.233 905.001 763.386 904.996 768.566C904.978 789.856 904.978 811.146 904.996 832.433C905.001 837.696 908.109 840.818 913.287 840.818C936.123 840.826 958.957 840.823 981.793 840.823C982.467 840.826 983.138 840.826 984.227 840.826ZM956.6 852.256C956.59 855.448 958.96 858.001 961.985 858.063C965.033 858.125 967.627 855.45 967.602 852.27C967.578 849.127 965.126 846.608 962.083 846.595C959.016 846.584 956.611 849.068 956.6 852.256Z" fill="#00A0DC"/>
<path d="M958.668 802.134C948.012 799.344 944.654 789.848 945.713 782.507C946.939 773.996 954.089 767.761 962.385 767.88C970.345 767.993 977.392 774.386 978.42 782.424C979.643 792.009 974.679 799.311 964.93 802.277C981.86 801.012 992.095 815.319 989.488 832.995C971.249 832.995 952.994 832.995 934.747 832.995C933.165 819.851 936.686 808.049 950.387 803.415C953.147 802.484 956.2 802.492 958.668 802.134Z" fill="#00A0DC"/>
<defs>
<filter id="filter0_d_31_1094" x="232.457" y="139" width="597" height="118" filterUnits="userSpaceOnUse" color-interpolation-filters="sRGB">
<feFlood flood-opacity="0" result="BackgroundImageFix"/>
<feColorMatrix in="SourceAlpha" type="matrix" values="0 0 0 0 0 0 0 0 0 0 0 0 0 0 0 0 0 0 127 0" result="hardAlpha"/>
<feOffset dx="1" dy="1"/>
<feGaussianBlur stdDeviation="2"/>
<feComposite in2="hardAlpha" operator="out"/>
<feColorMatrix type="matrix" values="0 0 0 0 0 0 0 0 0 0 0 0 0 0 0 0 0 0 0.15 0"/>
<feBlend mode="normal" in2="BackgroundImageFix" result="effect1_dropShadow_31_1094"/>
<feBlend mode="normal" in="SourceGraphic" in2="effect1_dropShadow_31_1094" result="shape"/>
</filter>
<filter id="filter1_d_31_1094" x="0" y="94" width="214.457" height="214.456" filterUnits="userSpaceOnUse" color-interpolation-filters="sRGB">
<feFlood flood-opacity="0" result="BackgroundImageFix"/>
<feColorMatrix in="SourceAlpha" type="matrix" values="0 0 0 0 0 0 0 0 0 0 0 0 0 0 0 0 0 0 127 0" result="hardAlpha"/>
<feOffset dy="4"/>
<feGaussianBlur stdDeviation="2"/>
<feComposite in2="hardAlpha" operator="out"/>
<feColorMatrix type="matrix" values="0 0 0 0 0 0 0 0 0 0 0 0 0 0 0 0 0 0 0.1 0"/>
<feBlend mode="normal" in2="BackgroundImageFix" result="effect1_dropShadow_31_1094"/>
<feBlend mode="normal" in="SourceGraphic" in2="effect1_dropShadow_31_1094" result="shape"/>
</filter>
<filter id="filter2_d_31_1094" x="230.928" y="550" width="597" height="118" filterUnits="userSpaceOnUse" color-interpolation-filters="sRGB">
<feFlood flood-opacity="0" result="BackgroundImageFix"/>
<feColorMatrix in="SourceAlpha" type="matrix" values="0 0 0 0 0 0 0 0 0 0 0 0 0 0 0 0 0 0 127 0" result="hardAlpha"/>
<feOffset dx="1" dy="1"/>
<feGaussianBlur stdDeviation="2"/>
<feComposite in2="hardAlpha" operator="out"/>
<feColorMatrix type="matrix" values="0 0 0 0 0 0 0 0 0 0 0 0 0 0 0 0 0 0 0.15 0"/>
<feBlend mode="normal" in2="BackgroundImageFix" result="effect1_dropShadow_31_1094"/>
<feBlend mode="normal" in="SourceGraphic" in2="effect1_dropShadow_31_1094" result="shape"/>
</filter>
<filter id="filter3_d_31_1094" x="0" y="505" width="212.928" height="214.456" filterUnits="userSpaceOnUse" color-interpolation-filters="sRGB">
<feFlood flood-opacity="0" result="BackgroundImageFix"/>
<feColorMatrix in="SourceAlpha" type="matrix" values="0 0 0 0 0 0 0 0 0 0 0 0 0 0 0 0 0 0 127 0" result="hardAlpha"/>
<feOffset dy="4"/>
<feGaussianBlur stdDeviation="2"/>
<feComposite in2="hardAlpha" operator="out"/>
<feColorMatrix type="matrix" values="0 0 0 0 0 0 0 0 0 0 0 0 0 0 0 0 0 0 0.1 0"/>
<feBlend mode="normal" in2="BackgroundImageFix" result="effect1_dropShadow_31_1094"/>
<feBlend mode="normal" in="SourceGraphic" in2="effect1_dropShadow_31_1094" result="shape"/>
</filter>
<filter id="filter4_d_31_1094" x="305" y="345" width="597" height="118" filterUnits="userSpaceOnUse" color-interpolation-filters="sRGB">
<feFlood flood-opacity="0" result="BackgroundImageFix"/>
<feColorMatrix in="SourceAlpha" type="matrix" values="0 0 0 0 0 0 0 0 0 0 0 0 0 0 0 0 0 0 127 0" result="hardAlpha"/>
<feOffset dx="1" dy="1"/>
<feGaussianBlur stdDeviation="2"/>
<feComposite in2="hardAlpha" operator="out"/>
<feColorMatrix type="matrix" values="0 0 0 0 0 0 0 0 0 0 0 0 0 0 0 0 0 0 0.15 0"/>
<feBlend mode="normal" in2="BackgroundImageFix" result="effect1_dropShadow_31_1094"/>
<feBlend mode="normal" in="SourceGraphic" in2="effect1_dropShadow_31_1094" result="shape"/>
</filter>
<filter id="filter5_d_31_1094" x="918" y="300" width="212.928" height="212.927" filterUnits="userSpaceOnUse" color-interpolation-filters="sRGB">
<feFlood flood-opacity="0" result="BackgroundImageFix"/>
<feColorMatrix in="SourceAlpha" type="matrix" values="0 0 0 0 0 0 0 0 0 0 0 0 0 0 0 0 0 0 127 0" result="hardAlpha"/>
<feOffset dy="4"/>
<feGaussianBlur stdDeviation="2"/>
<feComposite in2="hardAlpha" operator="out"/>
<feColorMatrix type="matrix" values="0 0 0 0 0 0 0 0 0 0 0 0 0 0 0 0 0 0 0.1 0"/>
<feBlend mode="normal" in2="BackgroundImageFix" result="effect1_dropShadow_31_1094"/>
<feBlend mode="normal" in="SourceGraphic" in2="effect1_dropShadow_31_1094" result="shape"/>
</filter>
<filter id="filter6_d_31_1094" x="254" y="757" width="597" height="118" filterUnits="userSpaceOnUse" color-interpolation-filters="sRGB">
<feFlood flood-opacity="0" result="BackgroundImageFix"/>
<feColorMatrix in="SourceAlpha" type="matrix" values="0 0 0 0 0 0 0 0 0 0 0 0 0 0 0 0 0 0 127 0" result="hardAlpha"/>
<feOffset dx="1" dy="1"/>
<feGaussianBlur stdDeviation="2"/>
<feComposite in2="hardAlpha" operator="out"/>
<feColorMatrix type="matrix" values="0 0 0 0 0 0 0 0 0 0 0 0 0 0 0 0 0 0 0.15 0"/>
<feBlend mode="normal" in2="BackgroundImageFix" result="effect1_dropShadow_31_1094"/>
<feBlend mode="normal" in="SourceGraphic" in2="effect1_dropShadow_31_1094" result="shape"/>
</filter>
<filter id="filter7_d_31_1094" x="867" y="712" width="215.227" height="214.456" filterUnits="userSpaceOnUse" color-interpolation-filters="sRGB">
<feFlood flood-opacity="0" result="BackgroundImageFix"/>
<feColorMatrix in="SourceAlpha" type="matrix" values="0 0 0 0 0 0 0 0 0 0 0 0 0 0 0 0 0 0 127 0" result="hardAlpha"/>
<feOffset dy="4"/>
<feGaussianBlur stdDeviation="2"/>
<feComposite in2="hardAlpha" operator="out"/>
<feColorMatrix type="matrix" values="0 0 0 0 0 0 0 0 0 0 0 0 0 0 0 0 0 0 0.1 0"/>
<feBlend mode="normal" in2="BackgroundImageFix" result="effect1_dropShadow_31_1094"/>
<feBlend mode="normal" in="SourceGraphic" in2="effect1_dropShadow_31_1094" result="shape"/>
</filter>
</defs>
</svg>
