<svg width="6" height="6" viewBox="0 0 6 6" fill="none" xmlns="http://www.w3.org/2000/svg">
<g clip-path="url(#clip0_61_2190)">
<path d="M5.94845 2.86658L4.14855 0.866689C4.11015 0.824292 4.05656 0.800293 3.99976 0.800293H2.79982C2.76119 0.800335 2.72339 0.811529 2.69097 0.832531C2.65854 0.853533 2.63287 0.883449 2.61703 0.918687C2.58504 0.991083 2.59823 1.07548 2.65103 1.13387L4.33054 3.00017L2.65103 4.86607C2.59823 4.92487 2.58464 5.00927 2.61703 5.08126C2.64943 5.15366 2.72103 5.20006 2.79982 5.20006H3.99976C4.05656 5.20006 4.11015 5.17566 4.14855 5.13406L5.94845 3.13417C6.01685 3.05817 6.01685 2.94218 5.94845 2.86658Z" fill="white"/>
<path d="M3.34884 2.86658L1.54894 0.866689C1.51054 0.824292 1.45695 0.800293 1.40015 0.800293H0.200214C0.161582 0.800335 0.123783 0.811529 0.0913576 0.832531C0.0589325 0.853533 0.0332601 0.883449 0.017424 0.918687C-0.0145743 0.991083 -0.00137502 1.07548 0.0514221 1.13387L1.73093 3.00017L0.0514221 4.86607C-0.00137502 4.92487 -0.0149743 5.00927 0.017424 5.08126C0.0498222 5.15366 0.121418 5.20006 0.200214 5.20006H1.40015C1.45695 5.20006 1.51054 5.17566 1.54894 5.13406L3.34884 3.13417C3.41724 3.05817 3.41724 2.94218 3.34884 2.86658Z" fill="white"/>
</g>
<defs>
<clipPath id="clip0_61_2190">
<rect width="6" height="6" fill="white"/>
</clipPath>
</defs>
</svg>
