<svg width="12" height="10" viewBox="0 0 12 10" fill="none" xmlns="http://www.w3.org/2000/svg">
<path d="M6.00014 1.92773L1.7204 5.45593C1.7204 5.46091 1.71915 5.46823 1.71664 5.47822C1.71419 5.48812 1.71289 5.49532 1.71289 5.50043V9.0731C1.71289 9.20209 1.76005 9.31388 1.85435 9.40802C1.94862 9.50221 2.06025 9.54961 2.18927 9.54961H5.04733V6.69139H6.95297V9.54971H9.81101C9.94 9.54971 10.0518 9.50242 10.1459 9.40802C10.2402 9.31398 10.2875 9.20212 10.2875 9.0731V5.50043C10.2875 5.48062 10.2848 5.46565 10.28 5.45593L6.00014 1.92773Z" fill="black"/>
<path d="M11.9172 4.65205L10.2873 3.29739V0.26057C10.2873 0.191146 10.2649 0.134052 10.2202 0.0893682C10.1757 0.0447363 10.1186 0.0224203 10.0491 0.0224203H8.62C8.5505 0.0224203 8.49343 0.0447363 8.44872 0.0893682C8.40412 0.134052 8.38183 0.191172 8.38183 0.26057V1.71197L6.56574 0.193518C6.40713 0.0644974 6.21853 0 6.00017 0C5.78183 0 5.59327 0.0644974 5.4345 0.193518L0.0827088 4.65205C0.0330974 4.69167 0.00590637 4.74501 0.000848775 4.81201C-0.00418275 4.87896 0.0131538 4.93744 0.0529107 4.98702L0.514377 5.53783C0.554134 5.58246 0.60617 5.60976 0.670693 5.61974C0.730263 5.62475 0.789833 5.60733 0.849403 5.56765L6.00002 1.27282L11.1507 5.56763C11.1905 5.60225 11.2425 5.61953 11.307 5.61953H11.3294C11.3938 5.60973 11.4457 5.58225 11.4857 5.53773L11.9472 4.987C11.9869 4.93731 12.0043 4.87894 11.9991 4.81191C11.994 4.74509 11.9667 4.69175 11.9172 4.65205Z" fill="black"/>
</svg>
