<svg width="21" height="15" viewBox="0 0 21 15" fill="none" xmlns="http://www.w3.org/2000/svg">
<rect x="0.25" y="13.6384" width="19.86" height="1.324" rx="0.2" fill="#212427"/>
<path d="M2.07617 6.36938C2.07617 5.54096 2.74774 4.86938 3.57617 4.86938H16.7882C17.6166 4.86938 18.2882 5.54096 18.2882 6.36938V14.4614H2.07617V6.36938Z" stroke="#212427"/>
<path d="M5.54736 2.38283C5.54736 2.01721 5.84375 1.72083 6.20936 1.72083C6.57498 1.72083 6.87136 2.01721 6.87136 2.38283V4.36883H5.54736V2.38283Z" fill="#212427"/>
<path d="M6.20936 0L6.35799 0.457431H6.83896L6.44985 0.740139L6.59848 1.19757L6.20936 0.914862L5.82025 1.19757L5.96888 0.740139L5.57976 0.457431H6.06074L6.20936 0Z" fill="#212427"/>
<path d="M9.12109 2.38283C9.12109 2.01721 9.41748 1.72083 9.78309 1.72083C10.1487 1.72083 10.4451 2.01721 10.4451 2.38283V4.36883H9.12109V2.38283Z" fill="#212427"/>
<path d="M9.78309 0L9.93172 0.457431H10.4127L10.0236 0.740139L10.1722 1.19757L9.78309 0.914862L9.39398 1.19757L9.54261 0.740139L9.15349 0.457431H9.63447L9.78309 0Z" fill="#212427"/>
<path d="M12.6978 2.38283C12.6978 2.01721 12.9941 1.72083 13.3598 1.72083C13.7254 1.72083 14.0218 2.01721 14.0218 2.38283V4.36883H12.6978V2.38283Z" fill="#212427"/>
<path d="M13.3598 0L13.5084 0.457431H13.9894L13.6002 0.740139L13.7489 1.19757L13.3598 0.914862L12.9706 1.19757L13.1193 0.740139L12.7302 0.457431H13.2111L13.3598 0Z" fill="#212427"/>
</svg>
