<svg width="15" height="19" viewBox="0 0 15 19" fill="none" xmlns="http://www.w3.org/2000/svg">
<path d="M7.10986 0C3.24998 0 0.109863 3.14012 0.109863 7C0.109863 8.27071 0.679746 9.63735 0.703628 9.695C0.887687 10.1319 1.25086 10.8105 1.51275 11.2082L6.31227 18.4804C6.50869 18.7785 6.79939 18.9494 7.10986 18.9494C7.42033 18.9494 7.71104 18.7785 7.90745 18.4808L12.7074 11.2082C12.9697 10.8105 13.3325 10.1319 13.5165 9.695C13.5404 9.63777 14.1099 8.27112 14.1099 7C14.1099 3.14012 10.9697 0 7.10986 0ZM12.7572 9.37547C12.5929 9.76706 12.2549 10.3983 12.0197 10.7549L7.2198 18.0275C7.1251 18.1712 7.09504 18.1712 7.00033 18.0275L2.20039 10.7549C1.96527 10.3983 1.62722 9.76665 1.46292 9.37506C1.45592 9.35818 0.933393 8.10024 0.933393 7C0.933393 3.59429 3.70416 0.823529 7.10986 0.823529C10.5156 0.823529 13.2863 3.59429 13.2863 7C13.2863 8.10188 12.7626 9.36312 12.7572 9.37547Z" fill="#212427"/>
<path d="M7.11018 3.29468C5.06659 3.29468 3.4043 4.95738 3.4043 7.00056C3.4043 9.04374 5.06659 10.7064 7.11018 10.7064C9.15377 10.7064 10.8161 9.04374 10.8161 7.00056C10.8161 4.95738 9.15377 3.29468 7.11018 3.29468ZM7.11018 9.88291C5.52118 9.88291 4.22783 8.58997 4.22783 7.00056C4.22783 5.41115 5.52118 4.11821 7.11018 4.11821C8.69918 4.11821 9.99253 5.41115 9.99253 7.00056C9.99253 8.58997 8.69918 9.88291 7.11018 9.88291Z" fill="#212427"/>
</svg>
