<svg width="246" height="248" viewBox="0 0 246 248" fill="none" xmlns="http://www.w3.org/2000/svg">
<g opacity="0.5">
<path d="M208.436 9.95862C173.054 -14.0141 137.092 7.17962 112.703 53.3423C88.3136 99.5034 37.1285 21.4802 9.98172 67.5668C-8.54419 99.0185 -0.0587769 179.883 25.3439 214.906C59.8715 262.511 164.873 238.357 187.587 230.254C213.755 220.921 232.885 192.603 240.658 158.232C259.387 75.4157 224.071 20.5524 208.436 9.95862Z" fill="#E7F3FE"/>
<path d="M101.29 117.086C101.18 116.109 101.123 115.116 101.123 114.111C101.123 113.58 101.14 113.053 101.171 112.53L106.085 110.94C106.387 108.867 106.982 106.89 107.824 105.049L104.566 101.038C105.319 99.7107 106.183 98.4551 107.147 97.2842L112.062 98.8886C113.495 97.4249 115.131 96.1623 116.927 95.1468L116.647 89.9808C118.019 89.3561 119.453 88.8449 120.937 88.4595L123.972 92.6497C125.154 92.4508 126.369 92.3451 127.608 92.3451C128.453 92.3451 129.286 92.3948 130.106 92.4888L132.915 88.1433C134.42 88.4494 135.879 88.8838 137.28 89.4338L137.274 94.6076C139.124 95.5275 140.825 96.7023 142.33 98.0876L147.152 96.226C148.176 97.3464 149.106 98.5538 149.928 99.8381L146.885 104.017C147.827 105.814 148.525 107.758 148.936 109.807L153.926 111.136C154.036 112.112 154.093 113.105 154.093 114.111C154.093 114.641 154.076 115.168 154.045 115.691L149.131 117.282C148.828 119.355 148.234 121.332 147.391 123.172L150.65 127.184C149.897 128.511 149.032 129.767 148.069 130.937L143.154 129.333C141.722 130.797 140.085 132.06 138.289 133.075L138.568 138.241C137.197 138.865 135.763 139.377 134.279 139.762L131.244 135.572C130.061 135.771 128.847 135.877 127.607 135.877C126.763 135.877 125.929 135.827 125.109 135.733L122.3 140.078C120.795 139.771 119.336 139.337 117.935 138.787L117.941 133.613C116.091 132.693 114.39 131.519 112.885 130.133L108.063 131.995C107.039 130.874 106.109 129.667 105.287 128.383L108.33 124.204C107.388 122.406 106.689 120.462 106.278 118.414L101.29 117.086ZM127.608 124.504C133.345 124.504 137.997 119.851 137.997 114.111C137.997 108.371 133.346 103.717 127.608 103.717C121.871 103.717 117.22 108.37 117.22 114.111C117.22 119.851 121.87 124.504 127.608 124.504Z" fill="#9EC8FF"/>
<path d="M113.439 125.965C113.527 125.965 113.615 125.936 113.687 125.875C113.852 125.737 113.874 125.493 113.738 125.328C111.127 122.187 109.689 118.203 109.689 114.111C109.689 112.151 110.009 110.227 110.641 108.392C110.711 108.189 110.603 107.968 110.4 107.898C110.197 107.828 109.976 107.936 109.906 108.138C109.246 110.055 108.911 112.065 108.911 114.111C108.911 118.384 110.413 122.545 113.14 125.825C113.217 125.917 113.328 125.965 113.439 125.965Z" fill="white"/>
<path d="M114.944 101.433C115.039 101.433 115.135 101.398 115.21 101.328C116.964 99.6751 118.996 98.4218 121.25 97.6037C121.452 97.5307 121.556 97.3077 121.483 97.1057C121.41 96.9036 121.187 96.7995 120.985 96.8733C118.631 97.728 116.509 99.0356 114.677 100.761C114.521 100.908 114.513 101.154 114.661 101.311C114.737 101.392 114.84 101.433 114.944 101.433Z" fill="white"/>
<path d="M131.637 97.1008C131.811 97.1008 131.969 96.9835 132.013 96.8071C132.066 96.5989 131.939 96.3875 131.732 96.3355C130.269 95.9664 128.756 95.7792 127.234 95.7792C127.02 95.7792 126.846 95.9532 126.846 96.1677C126.846 96.3821 127.02 96.5561 127.234 96.5561C128.692 96.5561 130.141 96.7356 131.541 97.0891C131.574 97.0969 131.606 97.1008 131.637 97.1008Z" fill="white"/>
<path d="M184.783 182.897C184.707 182.221 184.667 181.534 184.667 180.837C184.667 180.469 184.68 180.104 184.701 179.742L188.104 178.64C188.314 177.205 188.725 175.835 189.309 174.561L187.053 171.782C187.574 170.863 188.173 169.994 188.84 169.183L192.244 170.294C193.236 169.28 194.37 168.405 195.613 167.702L195.42 164.125C196.37 163.692 197.363 163.338 198.391 163.071L200.493 165.973C201.312 165.835 202.153 165.762 203.012 165.762C203.598 165.762 204.175 165.797 204.742 165.862L206.688 162.853C207.731 163.065 208.741 163.365 209.711 163.746L209.707 167.329C210.988 167.967 212.166 168.78 213.209 169.74L216.548 168.451C217.258 169.227 217.902 170.063 218.472 170.952L216.364 173.847C217.016 175.091 217.5 176.438 217.785 177.857L221.242 178.776C221.317 179.453 221.357 180.141 221.357 180.837C221.357 181.204 221.345 181.57 221.324 181.932L217.92 183.033C217.711 184.469 217.299 185.839 216.715 187.113L218.972 189.892C218.45 190.811 217.851 191.68 217.184 192.491L213.78 191.38C212.788 192.394 211.654 193.269 210.411 193.971L210.604 197.549C209.655 197.982 208.662 198.336 207.633 198.603L205.531 195.701C204.712 195.839 203.871 195.911 203.012 195.911C202.427 195.911 201.85 195.877 201.282 195.812L199.336 198.821C198.293 198.609 197.283 198.308 196.313 197.928L196.318 194.344C195.036 193.707 193.858 192.894 192.815 191.934L189.476 193.223C188.766 192.447 188.123 191.611 187.553 190.721L189.66 187.827C189.008 186.583 188.524 185.236 188.239 183.817L184.783 182.897ZM203.012 188.035C206.986 188.035 210.208 184.813 210.208 180.836C210.208 176.86 206.987 173.637 203.012 173.637C199.039 173.637 195.817 176.86 195.817 180.836C195.817 184.813 199.038 188.035 203.012 188.035Z" fill="#9EC8FF"/>
<path d="M193.198 189.167C193.286 189.167 193.374 189.137 193.446 189.077C193.611 188.939 193.633 188.694 193.496 188.53C191.706 186.375 190.719 183.643 190.719 180.836C190.719 179.492 190.939 178.172 191.373 176.913C191.442 176.71 191.335 176.489 191.132 176.419C190.929 176.349 190.708 176.457 190.638 176.66C190.177 178 189.943 179.405 189.943 180.835C189.943 183.824 190.993 186.732 192.899 189.025C192.976 189.119 193.087 189.167 193.198 189.167Z" fill="white"/>
<path d="M194.24 172.174C194.336 172.174 194.431 172.14 194.507 172.069C195.71 170.935 197.103 170.076 198.65 169.515C198.851 169.442 198.955 169.219 198.882 169.017C198.809 168.815 198.587 168.711 198.385 168.784C196.739 169.381 195.255 170.296 193.975 171.502C193.819 171.649 193.811 171.896 193.958 172.052C194.034 172.134 194.137 172.174 194.24 172.174Z" fill="white"/>
<path d="M205.803 169.174C205.977 169.174 206.135 169.057 206.179 168.88C206.232 168.672 206.105 168.461 205.898 168.409C204.875 168.151 203.817 168.019 202.753 168.019C202.538 168.019 202.365 168.193 202.365 168.408C202.365 168.622 202.538 168.796 202.753 168.796C203.753 168.796 204.747 168.919 205.708 169.161C205.739 169.171 205.771 169.174 205.803 169.174Z" fill="white"/>
<path d="M85.4288 136.88C85.4288 136.68 85.435 136.48 85.4451 136.282L82.8949 134.233C83.0945 133.211 83.4075 132.229 83.8214 131.303L87.1139 131.053C87.8625 129.871 88.8316 128.844 89.9638 128.027L89.9747 124.744C90.8918 124.263 91.8695 123.882 92.8945 123.618L95.1449 126.041C95.5332 125.999 95.9269 125.977 96.326 125.977C97.3177 125.977 98.2783 126.111 99.1915 126.359L101.772 124.313C102.746 124.736 103.661 125.269 104.501 125.896L104.013 129.151C104.975 130.109 105.759 131.246 106.312 132.508L109.522 133.252C109.793 134.243 109.956 135.28 109.996 136.348L107.169 137.984C107.025 139.416 106.604 140.767 105.96 141.981L107.375 144.948C106.768 145.778 106.07 146.539 105.295 147.212L102.263 146.024C101.071 146.801 99.7188 147.35 98.2658 147.611L96.837 150.555C96.6669 150.561 96.4961 150.566 96.3237 150.566C95.4672 150.566 94.6293 150.486 93.8163 150.336L92.8526 147.218C91.4486 146.746 90.1735 145.996 89.0902 145.033L85.9041 145.749C85.2502 144.982 84.6802 144.141 84.2065 143.241L86.0532 140.527C85.6494 139.386 85.4288 138.159 85.4288 136.88ZM96.4456 141.684C98.9803 141.684 101.036 139.628 101.036 137.092C101.036 134.556 98.981 132.499 96.4456 132.499C93.911 132.499 91.8555 134.555 91.8555 137.092C91.8555 139.628 93.9102 141.684 96.4456 141.684Z" fill="#9EC8FF"/>
<g opacity="0.8">
<path d="M42.9993 136.866H46.9441C48.4677 136.866 49.7071 135.626 49.7071 134.102V130.155C49.7071 128.631 48.4677 127.391 46.9441 127.391H42.9993C41.4757 127.391 40.2364 128.631 40.2364 130.155V134.102C40.2364 135.626 41.4757 136.866 42.9993 136.866ZM46.9441 128.478C47.8682 128.478 48.6199 129.23 48.6199 130.155V134.102C48.6199 135.027 47.8682 135.779 46.9441 135.779H42.9993C42.0752 135.779 41.3235 135.027 41.3235 134.102V130.155C41.3235 129.23 42.0752 128.478 42.9993 128.478H46.9441Z" fill="#9EC8FF"/>
</g>
<g opacity="0.8">
<path d="M61.561 136.866H65.5059C67.0294 136.866 68.2688 135.626 68.2688 134.102V130.155C68.2688 128.631 67.0294 127.391 65.5059 127.391H61.561C60.0374 127.391 58.7981 128.631 58.7981 130.155V134.102C58.7989 135.626 60.0382 136.866 61.561 136.866ZM65.5066 128.478C66.4307 128.478 67.1824 129.23 67.1824 130.155V134.102C67.1824 135.027 66.4307 135.779 65.5066 135.779H61.5618C60.6377 135.779 59.886 135.027 59.886 134.102V130.155C59.886 129.23 60.6377 128.478 61.5618 128.478H65.5066Z" fill="#9EC8FF"/>
</g>
<path d="M63.2872 134.568C63.295 134.568 63.302 134.568 63.3098 134.567C63.4464 134.56 63.5738 134.494 63.6569 134.386L66.492 130.685C66.6489 130.481 66.6101 130.188 66.4058 130.031C66.2016 129.875 65.9096 129.913 65.7528 130.118L63.2523 133.381L56.7239 126.383C56.5484 126.195 56.2533 126.185 56.0654 126.36C55.8775 126.536 55.8674 126.831 56.0429 127.019L62.9463 134.42C63.0349 134.515 63.1583 134.568 63.2872 134.568Z" fill="#F37168"/>
<path d="M29.9596 238.799C46.1093 238.009 101.049 239.347 117.758 239.869C134.467 240.39 153.862 239.18 163.937 237.401C174.011 235.622 232.247 237.553 229.604 242.337C226.961 247.122 203.657 244.478 177.23 246.401C150.803 248.324 91.3678 246.161 77.9616 246.401C64.5546 246.641 52.2611 245.92 34.9838 244.959C17.7065 243.997 20.5976 239.256 29.9596 238.799Z" fill="#CCE2FF"/>
<g opacity="0.5">
<path d="M136.964 16.5375H170.724V71.9012H136.964V16.5375Z" fill="#99BBEB"/>
<path d="M138.074 17.6655H168.956V69.7909H138.074V17.6655Z" fill="white"/>
<path d="M159.719 38.5682C158.556 36.0664 156.589 35.2654 153.359 35.2654C149.513 35.2654 147.515 36.6592 146.949 38.6894C153.837 38.7834 159.719 38.5682 159.719 38.5682Z" fill="#9BD6E8"/>
<path d="M154.701 23.0974C156.33 23.555 156.258 24.4703 156.801 25.3195C157.344 26.1695 158.524 26.7359 158.665 27.3023C158.806 27.8687 158.301 29.0489 158.901 29.7101C159.5 30.3713 159.703 30.7015 159.467 31.3619C159.231 32.0231 158.712 33.0611 158.665 33.2025C158.618 33.3439 157.957 34.3353 157.155 34.4767C156.353 34.6182 154.844 34.8544 154.089 35.1846C153.334 35.5148 150.906 34.7619 149.559 34.8085C148.212 34.8559 147.295 33.863 147.389 33.2018C147.483 32.5406 146.396 31.219 146.398 30.0862C146.401 28.8694 147.813 27.962 148.191 27.1594C148.568 26.3568 148.144 24.9404 149.559 24.102C150.454 23.5721 151.069 23.6188 151.777 23.3833C152.484 23.1479 153.664 22.8053 154.701 23.0974Z" fill="#3A384D"/>
<path d="M152.72 37.2619C153.089 37.8058 153.359 37.8283 153.759 37.2619C154.076 36.8113 154.702 35.788 154.702 35.269V30.0867C154.702 29.5677 154.277 29.1427 153.759 29.1427H152.72C152.202 29.1427 151.777 29.5677 151.777 30.0867V35.269C151.777 35.7888 152.39 36.7748 152.72 37.2619Z" fill="#F09959"/>
<path d="M152.72 29.1427H153.759C154.277 29.1427 154.702 29.5677 154.702 30.0867V34.7104C153.537 35.0818 152.473 34.3437 151.777 33.5123V30.0867C151.777 29.5677 152.201 29.1427 152.72 29.1427Z" fill="#E38540"/>
<path d="M153.239 33.4728C151.507 33.4728 150.102 31.5578 150.102 29.1956C150.102 26.8334 151.507 24.9185 153.239 24.9185C154.972 24.9185 156.376 26.8334 156.376 29.1956C156.376 31.5578 154.972 33.4728 153.239 33.4728Z" fill="#F09959"/>
<path d="M151.777 25.7918C153.759 29.1436 156.684 28.8126 156.684 28.8126C156.684 28.8126 156.613 24.3754 154.29 24.1392C151.966 23.903 150.598 24.8361 150.126 26.376C149.654 27.916 150.126 28.9307 150.126 28.9307C150.126 28.9307 150.881 28.341 151.258 27.3962C151.635 26.4522 151.777 25.7918 151.777 25.7918Z" fill="#3A384D"/>
<path d="M156.27 30.6039C155.859 30.4082 155.763 29.7484 156.056 29.1301C156.349 28.5119 156.921 28.1694 157.333 28.365C157.745 28.5607 157.841 29.2205 157.547 29.8388C157.254 30.457 156.682 30.7996 156.27 30.6039Z" fill="#F09959"/>
<path d="M150.565 29.1295C150.858 29.748 150.762 30.4076 150.35 30.6034C149.939 30.7992 149.367 30.4566 149.073 29.8389C148.779 29.2204 148.876 28.5608 149.287 28.365C149.699 28.1692 150.271 28.511 150.565 29.1295Z" fill="#F09959"/>
<path d="M152.06 31.5156C152.06 31.5156 152.588 32.2009 153.239 32.2009C153.891 32.2009 154.419 31.5156 154.419 31.5156H152.06Z" fill="white"/>
<path d="M149.504 45.3539H157.428C157.934 45.3539 158.349 44.939 158.349 44.4325C158.349 43.9251 157.934 43.511 157.428 43.511H149.505C148.998 43.511 148.584 43.9259 148.584 44.4325C148.583 44.939 148.998 45.3539 149.504 45.3539Z" fill="#99BBEB"/>
<path d="M148.053 48.186H158.878C159.385 48.186 159.799 47.7711 159.799 47.2645C159.799 46.7571 159.385 46.343 158.878 46.343H148.054C147.548 46.343 147.133 46.7579 147.133 47.2645C147.132 47.7711 147.547 48.186 148.053 48.186Z" fill="#99BBEB"/>
<path d="M140.3 58.3712H166.631C166.926 58.3712 167.166 58.1304 167.166 57.8367C167.166 57.543 166.925 57.3021 166.631 57.3021H140.3C140.006 57.3021 139.766 57.543 139.766 57.8367C139.766 58.1304 140.007 58.3712 140.3 58.3712Z" fill="#99BBEB"/>
<path d="M140.3 60.8573H166.631C166.926 60.8573 167.166 60.6164 167.166 60.3228C167.166 60.0283 166.925 59.7882 166.631 59.7882H140.3C140.006 59.7882 139.766 60.0291 139.766 60.3228C139.766 60.6164 140.007 60.8573 140.3 60.8573Z" fill="#99BBEB"/>
<path d="M140.3 63.3436H166.631C166.926 63.3436 167.166 63.1028 167.166 62.8091C167.166 62.5146 166.925 62.2745 166.631 62.2745H140.3C140.006 62.2745 139.766 62.5154 139.766 62.8091C139.766 63.1028 140.007 63.3436 140.3 63.3436Z" fill="#99BBEB"/>
<path d="M143.984 39.1835H162.948C163.475 39.1835 163.903 38.7554 163.903 38.2286V20.74C163.903 20.2133 163.475 19.7852 162.948 19.7852H143.983C143.456 19.7852 143.028 20.2133 143.028 20.74V38.2286C143.029 38.7546 143.457 39.1835 143.984 39.1835ZM162.948 20.5613C163.045 20.5613 163.126 20.6429 163.126 20.7393V38.2278C163.126 38.3242 163.045 38.4057 162.948 38.4057H143.983C143.886 38.4057 143.805 38.3242 143.805 38.2278V20.74C143.805 20.6437 143.886 20.5621 143.983 20.5621H162.948V20.5613Z" fill="#99BBEB"/>
<path d="M160.212 50.5907L159.663 51.7041L158.435 51.882L159.323 52.7491L159.114 53.972L160.212 53.3947L161.31 53.972L161.1 52.7491L161.988 51.882L160.761 51.7041L160.212 50.5907Z" fill="#99BBEB"/>
<path d="M155.715 50.5907L155.166 51.7041L153.938 51.882L154.826 52.7491L154.617 53.972L155.715 53.3947L156.813 53.972L156.603 52.7491L157.492 51.882L156.264 51.7041L155.715 50.5907Z" fill="#99BBEB"/>
<path d="M151.217 50.5907L150.668 51.7041L149.44 51.882L150.329 52.7491L150.119 53.972L151.217 53.3947L152.315 53.972L152.105 52.7491L152.994 51.882L151.766 51.7041L151.217 50.5907Z" fill="#99BBEB"/>
<path d="M146.72 50.5907L146.171 51.7041L144.943 51.882L145.832 52.7491L145.622 53.972L146.72 53.3947L147.818 53.972L147.608 52.7491L148.497 51.882L147.269 51.7041L146.72 50.5907Z" fill="#99BBEB"/>
</g>
<g opacity="0.5">
<path d="M61.7003 16.5375H95.4598V71.9012H61.7003V16.5375Z" fill="#99BBEB"/>
<path d="M62.8108 17.6655H93.6924V69.7909H62.8108V17.6655Z" fill="white"/>
<path d="M82.9885 28.9127C82.9885 31.3928 81.496 35.3933 77.9759 35.2651C74.4558 35.1369 73.677 31.3228 73.5411 30.2468C73.4044 29.1707 82.9885 28.9127 82.9885 28.9127Z" fill="#7A4E34"/>
<path d="M84.4546 38.568C83.2921 36.0662 81.3251 35.2651 78.0947 35.2651C74.2485 35.2651 72.2512 36.659 71.6851 38.6892C78.5731 38.7832 84.4546 38.568 84.4546 38.568Z" fill="#D54A41"/>
<path d="M77.4564 37.2619C77.8245 37.8058 78.0947 37.8283 78.4947 37.2619C78.8123 36.8113 79.4382 35.788 79.4382 35.269V30.0867C79.4382 29.5677 79.0134 29.1427 78.4947 29.1427H77.4564C76.9377 29.1427 76.5129 29.5677 76.5129 30.0867V35.269C76.5129 35.7888 77.1264 36.7748 77.4564 37.2619Z" fill="#F09959"/>
<path d="M77.4564 29.1427H78.4947C79.0134 29.1427 79.4382 29.5677 79.4382 30.0867V34.7104C78.2726 35.0818 77.2087 34.3437 76.5129 33.5123V30.0867C76.5129 29.5677 76.9377 29.1427 77.4564 29.1427Z" fill="#E38540"/>
<path d="M77.9759 33.4726C76.2432 33.4726 74.8387 31.5577 74.8387 29.1955C74.8387 26.8333 76.2432 24.9183 77.9759 24.9183C79.7085 24.9183 81.1131 26.8333 81.1131 29.1955C81.1131 31.5577 79.7085 33.4726 77.9759 33.4726Z" fill="#F09959"/>
<path d="M76.2512 25.9439C76.6239 27.2593 77.4409 27.2438 78.5801 27.6758C79.7192 28.1077 80.2636 28.5421 80.6363 29.3835C81.1116 30.4565 80.4205 33.5853 80.4205 33.5853C80.4205 33.5853 83.3053 31.4254 82.9714 28.0293C82.6375 24.6324 80.6363 23.317 78.7524 23.317C76.8685 23.317 76.1526 24.4654 76.1526 24.4654C76.1526 24.4654 75.1493 24.4692 74.2003 25.5943C72.9245 27.1062 73.3174 30.7774 74.2003 32.0928C75.0833 33.4082 75.6719 33.8207 75.6525 33.7617C75.6331 33.7026 74.8286 30.6818 75.2603 28.814C75.6913 26.947 76.2512 25.9439 76.2512 25.9439Z" fill="#7A4E34"/>
<path d="M76.7963 31.5154C76.7963 31.5154 77.3244 32.2007 77.9759 32.2007C78.6274 32.2007 79.1555 31.5154 79.1555 31.5154H76.7963Z" fill="white"/>
<path d="M74.2407 45.3539H82.1638C82.6709 45.3539 83.0848 44.939 83.0848 44.4325C83.0848 43.9251 82.6701 43.511 82.1638 43.511H74.2407C73.7336 43.511 73.3197 43.9259 73.3197 44.4325C73.3197 44.939 73.7344 45.3539 74.2407 45.3539Z" fill="#99BBEB"/>
<path d="M72.7901 48.186H83.6144C84.1215 48.186 84.5354 47.7711 84.5354 47.2645C84.5354 46.7571 84.1207 46.343 83.6144 46.343H72.7901C72.2831 46.343 71.8692 46.7579 71.8692 47.2645C71.8692 47.7711 72.2831 48.186 72.7901 48.186Z" fill="#99BBEB"/>
<path d="M65.0371 58.3712H91.3674C91.6617 58.3712 91.9016 58.1304 91.9016 57.8367C91.9016 57.543 91.6609 57.3021 91.3674 57.3021H65.0364C64.7421 57.3021 64.5021 57.543 64.5021 57.8367C64.5021 58.1304 64.7428 58.3712 65.0371 58.3712Z" fill="#99BBEB"/>
<path d="M65.0371 60.8573H91.3674C91.6617 60.8573 91.9016 60.6164 91.9016 60.3228C91.9016 60.0283 91.6609 59.7882 91.3674 59.7882H65.0364C64.7421 59.7882 64.5021 60.0291 64.5021 60.3228C64.5021 60.6164 64.7428 60.8573 65.0371 60.8573Z" fill="#99BBEB"/>
<path d="M65.0371 63.3436H91.3674C91.6617 63.3436 91.9016 63.1028 91.9016 62.8091C91.9016 62.5146 91.6609 62.2745 91.3674 62.2745H65.0364C64.7421 62.2745 64.5021 62.5154 64.5021 62.8091C64.5021 63.1028 64.7428 63.3436 65.0371 63.3436Z" fill="#99BBEB"/>
<path d="M68.7195 39.1835H87.685C88.2115 39.1835 88.6394 38.7554 88.6394 38.2286V20.74C88.6394 20.2133 88.2115 19.7852 87.685 19.7852H68.7195C68.193 19.7852 67.7651 20.2133 67.7651 20.74V38.2286C67.7651 38.7546 68.1938 39.1835 68.7195 39.1835ZM87.685 20.5613C87.7813 20.5613 87.8628 20.6429 87.8628 20.7393V38.2278C87.8628 38.3242 87.7813 38.4057 87.685 38.4057H68.7195C68.6232 38.4057 68.5417 38.3242 68.5417 38.2278V20.74C68.5417 20.6437 68.6232 20.5621 68.7195 20.5621H87.685V20.5613Z" fill="#99BBEB"/>
<path d="M84.9485 50.5907L84.3995 51.7041L83.1717 51.882L84.0601 52.7491L83.8504 53.972L84.9485 53.3947L86.0465 53.972L85.8368 52.7491L86.7252 51.882L85.4975 51.7041L84.9485 50.5907Z" fill="#99BBEB"/>
<path d="M80.4507 50.5907L79.9017 51.7041L78.674 51.882L79.5624 52.7491L79.3527 53.972L80.4507 53.3947L81.5495 53.972L81.3391 52.7491L82.2282 51.882L80.9997 51.7041L80.4507 50.5907Z" fill="#99BBEB"/>
<path d="M75.9538 50.5907L75.4047 51.7041L74.177 51.882L75.0654 52.7491L74.8557 53.972L75.9538 53.3947L77.0518 53.972L76.8421 52.7491L77.7305 51.882L76.5028 51.7041L75.9538 50.5907Z" fill="#99BBEB"/>
<path d="M71.4568 50.5907L70.907 51.7041L69.6793 51.882L70.5677 52.7491L70.358 53.972L71.4568 53.3947L72.5548 53.972L72.3452 52.7491L73.2335 51.882L72.0058 51.7041L71.4568 50.5907Z" fill="#99BBEB"/>
</g>
<path opacity="0.2" d="M149.734 193.562H203.012L199.244 138.958H147.813L149.734 193.562Z" fill="#99BBEB"/>
<g opacity="0.5">
<path d="M93.2365 6.4104H139.347V82.0286H93.2365V6.4104Z" fill="#99BBEB"/>
<path d="M94.7515 7.95117H136.932V79.147H94.7515V7.95117Z" fill="white"/>
<path d="M119.773 22.9054C119.802 22.8169 120.541 18.5762 120.629 16.9267C120.718 15.2773 117.98 15.0418 117.98 15.0418C117.98 15.0418 115.743 13.8344 114.124 14.4529C112.505 15.0714 111.403 16.1117 110.668 17.4077C109.931 18.7036 111.315 22.7423 111.315 22.7423L119.773 22.9054Z" fill="#2E2D3D"/>
<path d="M124.848 36.5309C124.858 36.4609 124.659 34.792 124.652 34.7244C124.279 31.2103 119.949 30.2212 115.628 30.2212C110.552 30.2212 107.108 31.1504 106.559 34.8029C106.543 34.9101 106.25 36.5829 106.265 36.6956C115.673 36.8253 124.848 36.5309 124.848 36.5309Z" fill="#D5E1E8"/>
<path d="M114.757 32.95C115.26 33.6928 115.629 33.7239 116.175 32.95C116.609 32.3347 118.059 30.9315 118.059 30.2221L117.464 23.1495C117.464 22.4401 116.884 21.8597 116.175 21.8597H114.757C114.048 21.8597 113.468 22.4401 113.468 23.1495L113.191 30.2221C113.191 30.9315 114.306 32.2842 114.757 32.95Z" fill="#F09959"/>
<path d="M114.757 21.8602H116.175C116.884 21.8602 117.464 22.4406 117.464 23.15L117.98 29.4239C116.388 29.9313 114.239 28.9002 113.288 27.7651L113.469 23.15C113.468 22.4406 114.048 21.8602 114.757 21.8602Z" fill="#E38540"/>
<path d="M120.331 30.7378L118.058 34.9411C118.058 34.9411 116.841 33.9396 116.724 34.1362C116.606 34.3328 116.94 36.8105 116.94 36.8105C116.94 36.8105 114.232 36.847 114.114 36.7297C113.996 36.6116 114.664 34.0383 114.389 34.0383C114.114 34.0383 113.288 34.7842 113.288 34.7842L110.75 30.7378L111.307 30.6018L115.465 32.8402L119.912 30.6508L120.331 30.7378Z" fill="#BDCCD4"/>
<path d="M117.732 32.6749L116.044 33.8077L116.567 36.8154L114.291 36.6887L114.859 33.953L113.46 32.6749L114.118 32.0549H117.075L117.732 32.6749Z" fill="#D54A41"/>
<path d="M117.941 28.6775L120.028 30.665C120.028 30.665 117.901 34.4496 117.783 34.4496C117.665 34.4496 115.978 32.3626 115.978 32.3626L114.898 32.344L113.191 34.1357L111.208 30.6254L113.23 28.481C113.23 28.481 114.957 31.8188 115.271 31.8972C115.585 31.9757 115.587 32.0153 115.841 31.8188C116.095 31.6222 117.941 28.6775 117.941 28.6775Z" fill="#D5E1E8"/>
<path d="M115.466 27.7737C113.099 27.7737 111.181 25.1582 111.181 21.9318C111.181 18.7054 113.099 16.0898 115.466 16.0898C117.832 16.0898 119.751 18.7054 119.751 21.9318C119.751 25.1582 117.832 27.7737 115.466 27.7737Z" fill="#F09959"/>
<path d="M119.312 21.8418C118.911 22.6863 119.043 23.5876 119.605 23.8549C120.167 24.1221 120.948 23.6544 121.349 22.8099C121.75 21.9653 121.618 21.064 121.056 20.7968C120.494 20.5295 119.713 20.9972 119.312 21.8418Z" fill="#F09959"/>
<path d="M111.812 21.8418C112.213 22.6863 112.082 23.5876 111.519 23.8549C110.957 24.1221 110.176 23.6544 109.775 22.8099C109.375 21.9653 109.506 21.064 110.068 20.7968C110.63 20.5295 111.411 20.9972 111.812 21.8418Z" fill="#F09959"/>
<path d="M113.565 24.3289C113.565 24.3289 114.416 25.708 115.466 25.708C116.516 25.708 117.367 24.3289 117.367 24.3289H113.565Z" fill="white"/>
<path d="M117.979 17.9577C116.214 16.7208 115.418 16.9267 114.094 18.9592C112.77 20.9909 111.18 21.0275 111.18 21.0275L110.974 18.9204C110.974 18.9204 112.947 15.1016 115.596 15.602C118.245 16.1023 119.752 18.4884 119.752 18.4884C119.752 18.4884 119.88 22.9598 119.511 23.112C119.141 23.2643 119.098 21.6692 118.834 21.3452C118.569 21.0213 119.098 19.4899 118.745 18.7828C118.392 18.0758 117.979 17.9577 117.979 17.9577Z" fill="#2E2D3D"/>
<path d="M112.299 20.2554C111.682 20.9305 111.916 23.6126 111.592 23.5831C111.269 23.5536 111.151 21.0207 111.239 20.7557C111.328 20.4908 112.299 20.2554 112.299 20.2554Z" fill="#2E2D3D"/>
<path d="M105.934 45.7688H125.618C126.309 45.7688 126.876 45.2024 126.876 44.5101C126.876 43.8179 126.309 43.2515 125.618 43.2515H105.934C105.242 43.2515 104.676 43.8179 104.676 44.5101C104.675 45.2016 105.241 45.7688 105.934 45.7688Z" fill="#99BBEB"/>
<path d="M108.383 49.6367H123.168C123.859 49.6367 124.426 49.0703 124.426 48.3781C124.426 47.6858 123.859 47.1194 123.168 47.1194H108.383C107.691 47.1194 107.125 47.6858 107.125 48.3781C107.125 49.0703 107.691 49.6367 108.383 49.6367Z" fill="#99BBEB"/>
<path d="M97.7933 63.5488H133.757C134.159 63.5488 134.487 63.2202 134.487 62.8185C134.487 62.4168 134.159 62.0881 133.757 62.0881H97.7933C97.3918 62.0881 97.0633 62.4168 97.0633 62.8185C97.0633 63.2202 97.3918 63.5488 97.7933 63.5488Z" fill="#99BBEB"/>
<path d="M97.7933 66.9442H133.757C134.159 66.9442 134.487 66.6156 134.487 66.2139C134.487 65.8122 134.159 65.4835 133.757 65.4835H97.7933C97.3918 65.4835 97.0633 65.8122 97.0633 66.2139C97.0633 66.6156 97.3918 66.9442 97.7933 66.9442Z" fill="#99BBEB"/>
<path d="M97.7933 70.3395H133.757C134.159 70.3395 134.487 70.0108 134.487 69.6091C134.487 69.2074 134.159 68.8788 133.757 68.8788H97.7933C97.3918 68.8788 97.0633 69.2074 97.0633 69.6091C97.0633 70.0108 97.3918 70.3395 97.7933 70.3395Z" fill="#99BBEB"/>
<path d="M102.824 37.1984H128.728C129.368 37.1984 129.889 36.677 129.889 36.036V12.15C129.889 11.509 129.368 10.9877 128.728 10.9877H102.824C102.183 10.9877 101.662 11.509 101.662 12.15V36.0368C101.662 36.677 102.183 37.1984 102.824 37.1984ZM128.728 11.7646C128.94 11.7646 129.113 11.9371 129.113 12.15V36.0368C129.113 36.2489 128.94 36.4222 128.728 36.4222H102.824C102.612 36.4222 102.439 36.2497 102.439 36.0368V12.15C102.439 11.9379 102.611 11.7646 102.824 11.7646H128.728Z" fill="#99BBEB"/>
<path d="M128.109 52.9216L127.359 54.4421L125.683 54.6853L126.896 55.8694L126.609 57.5399L128.109 56.7513L129.609 57.5399L129.323 55.8694L130.536 54.6853L128.86 54.4421L128.109 52.9216Z" fill="#99BBEB"/>
<path d="M121.967 52.9216L121.217 54.4421L119.54 54.6853L120.753 55.8694L120.467 57.5399L121.967 56.7513L123.467 57.5399L123.18 55.8694L124.394 54.6853L122.716 54.4421L121.967 52.9216Z" fill="#99BBEB"/>
<path d="M115.825 52.9216L115.074 54.4421L113.397 54.6853L114.611 55.8694L114.324 57.5399L115.825 56.7513L117.324 57.5399L117.038 55.8694L118.251 54.6853L116.574 54.4421L115.825 52.9216Z" fill="#99BBEB"/>
<path d="M109.681 52.9216L108.932 54.4421L107.255 54.6853L108.468 55.8694L108.182 57.5399L109.681 56.7513L111.182 57.5399L110.895 55.8694L112.109 54.6853L110.431 54.4421L109.681 52.9216Z" fill="#99BBEB"/>
<path d="M103.441 52.9216L102.692 54.4421L101.014 54.6853L102.228 55.8694L101.942 57.5399L103.441 56.7513L104.941 57.5399L104.655 55.8694L105.869 54.6853L104.191 54.4421L103.441 52.9216Z" fill="#99BBEB"/>
</g>
<path d="M77.2495 201.813H136.419C136.775 201.813 137.063 201.525 137.063 201.169V200.203C137.063 199.847 136.775 199.559 136.419 199.559H77.2495C76.8938 199.559 76.6057 199.847 76.6057 200.203V201.169C76.6057 201.525 76.8938 201.813 77.2495 201.813Z" fill="#2E5B9A"/>
<path d="M62.0137 169.349C61.2123 172.178 63.17 175.092 65.3272 175.704C67.4845 176.316 69.0236 174.395 69.825 171.567C70.6264 168.739 69.5283 165.95 67.3711 165.338C65.2139 164.726 62.8159 166.522 62.0137 169.349Z" fill="#F09959"/>
<path d="M74.1076 224.149C74.1076 224.149 68.5794 232.74 67.8331 233.114C67.0869 233.487 65.2201 233.581 65.9197 234.982C66.6194 236.382 66.8997 241.892 67.5528 242.171C68.2059 242.452 73.8055 243.105 72.9661 242.171C72.1258 241.238 71.6095 241.705 71.1855 240.024C70.7615 238.343 70.1658 235.168 70.9595 234.515C71.7531 233.861 76.6057 227.978 76.6057 227.978L74.1076 224.149Z" fill="#F09959"/>
<path d="M101.931 227.838C101.931 227.838 108.651 238.919 109.895 239.916C111.14 240.912 115.247 242.406 111.886 242.655C108.526 242.904 106.909 241.535 104.793 240.912C102.678 240.289 100.064 239.916 101.06 238.297C102.055 236.679 101.641 233.145 99.4959 230.904C97.3495 228.662 101.931 227.838 101.931 227.838Z" fill="#F09959"/>
<path d="M67.6382 202.142C67.6382 202.142 84.2733 201.707 90.8685 207.122C94.7263 212.974 104.059 230.24 104.784 232.143C104.286 232.641 101.486 233.54 100.242 233.415C96.5714 229.035 91.7188 225.249 89.7891 221.814C87.4113 217.58 86.6782 215.463 82.8204 215.09C78.9625 214.716 70.2513 213.471 67.6382 213.471C65.0251 213.471 67.6382 202.142 67.6382 202.142Z" fill="#6791C9"/>
<path d="M53.1316 242.685H54.0037L60.2564 216.582H58.3383L53.1316 242.685Z" fill="#2E5B9A"/>
<path d="M79.2529 242.685H78.3809L71.2056 215.659H73.1237L79.2529 242.685Z" fill="#2E5B9A"/>
<path d="M58.1613 201.002L67.8331 202.672C67.8331 202.672 80.6857 202.791 86.5602 203.885C91.9052 204.881 92.6926 210.958 86.5602 219.324C83.0767 224.077 80.1312 227.868 74.1076 232.143C72.5755 231.017 71.9892 230.592 71.566 227.884C72.0016 227.286 73.1307 223.543 73.4809 222.81C76.8123 215.843 81.2595 213.308 81.3209 212.623C80.5739 211.409 61.5439 218.95 57.7598 214.514C54.1466 210.279 58.1613 201.002 58.1613 201.002Z" fill="#75A1DE"/>
<path d="M57.7598 179.095C60.3069 178.737 62.9013 179.221 65.3272 180.979C67.4472 183.141 69.8467 186.707 69.6991 192.589C69.5128 200.059 70.8546 200.539 69.4545 202.593C63.6157 205.006 53.6294 215.37 55.9815 204.258C57.6845 196.212 52.2471 190.215 56.633 181.29C56.9902 180.564 57.4368 179.859 57.7598 179.095Z" fill="#F37168"/>
<path d="M69.7007 195.4C69.8141 199.294 70.3639 200.442 69.9438 201.662C67.5637 201.906 63.2096 202.859 62.1217 204.382C60.8769 206.125 59.6328 206.375 60.2137 205.088C60.7946 203.801 62.329 201.975 59.9644 195.708C57.5999 189.442 56.4801 185.208 58.8027 180.851L69.7007 195.4Z" fill="#D54A41"/>
<path d="M57.7598 179.095C59.3284 175.38 59.7135 171.206 59.7135 171.206L63.8199 172.419C63.8199 172.419 61.4864 177.648 63.7267 179.516C64.2027 179.913 64.7549 180.395 65.3279 180.979C62.9005 179.222 60.3068 178.737 57.7598 179.095Z" fill="#F09959"/>
<path d="M59.5893 172.195C59.8324 171.978 60.1368 171.707 60.4567 171.425L63.806 172.415C63.8083 172.421 63.8106 172.428 63.813 172.433C63.7322 172.618 62.8788 174.61 62.767 176.526C61.7691 175.92 60.6757 174.933 59.4263 173.207C59.4938 172.824 59.5474 172.482 59.5893 172.195Z" fill="#E38540"/>
<path d="M60.6462 180.263C64.8753 181.743 64.4062 186.201 68.299 192.775C70.3134 196.178 72.1849 196.127 72.1849 196.127C72.1849 196.127 76.9093 196.165 82.6239 195.466C86.2022 195.029 86.4298 196.094 83.9409 196.984C78.9214 198.78 73.7131 200.712 69.5136 200.245C65.314 199.778 58.131 189.057 57.7606 186.266C57.2473 182.407 58.5162 179.517 60.6462 180.263Z" fill="#F09959"/>
<path d="M62.8244 217.67C63.0876 217.67 63.3563 217.667 63.6328 217.66C67.0799 217.575 69.4258 217.097 71.3112 216.714C73.5127 216.267 74.7249 216.021 76.1367 216.695C76.6787 216.954 77.3271 216.725 77.5865 216.182C77.8458 215.64 77.616 214.991 77.0739 214.732C75.006 213.743 73.2743 214.095 70.8787 214.582C69.0771 214.949 66.8345 215.404 63.5792 215.485C59.9356 215.576 57.714 215.035 56.588 213.786C55.5847 212.673 55.2911 210.803 55.6639 207.901C55.7912 206.908 55.9194 206.081 56.032 205.352C56.3496 203.296 56.56 201.937 56.2999 199.837C56.0584 197.887 55.4131 195.289 53.9182 190.252C53.7474 189.676 53.1425 189.348 52.5663 189.519C51.9908 189.689 51.6624 190.295 51.8332 190.871C54.6187 200.258 54.4773 201.172 53.8833 205.02C53.7684 205.762 53.6387 206.602 53.5074 207.623C53.0477 211.203 53.5129 213.624 54.9728 215.244C56.4769 216.91 58.9168 217.67 62.8244 217.67Z" fill="#2E5B9A"/>
<path d="M101.475 237.178C105.933 239.36 108.333 240.61 109.763 240.491C110.1 240.463 110.38 240.428 110.614 240.391C112.205 241.331 114.743 242.443 111.887 242.655C108.527 242.903 106.91 241.534 104.794 240.911C102.679 240.288 100.065 239.915 101.061 238.297C101.251 237.987 101.389 237.606 101.475 237.178Z" fill="#D54A41"/>
<path d="M67.3462 233.295C67.4549 236.827 67.9403 240.328 70.0998 240.989C70.6721 241.164 71.194 241.189 71.6553 241.128C71.9946 241.548 72.4093 241.553 72.9653 242.171C73.8055 243.105 68.2059 242.451 67.552 242.171C66.8982 241.89 66.6186 236.381 65.9189 234.981C65.3443 233.83 66.5013 233.561 67.3462 233.295Z" fill="#D54A41"/>
<path d="M84.5218 199.868H98.6867C99.1099 199.868 99.4943 199.622 99.6729 199.238L105.398 186.912C105.651 186.367 105.414 185.72 104.87 185.467C104.324 185.213 103.678 185.45 103.425 185.995L97.9933 197.692H84.5218C83.9215 197.692 83.4346 198.179 83.4346 198.78C83.4346 199.381 83.9208 199.868 84.5218 199.868Z" fill="#75A1DE"/>
<path d="M81.5577 195.59C84.4201 195.549 87.2583 193.842 88.6693 194.09C90.0795 194.34 94.6844 197.535 94.1036 197.66C93.5227 197.784 89.8722 195.891 89.7479 195.862C89.6237 195.834 88.8355 197.173 86.8856 197.666C84.9357 198.158 86.8716 196.203 80.8286 198.03C76.8985 199.217 81.5577 195.59 81.5577 195.59Z" fill="#F09959"/>
<path d="M58.1807 175.704L57.7598 179.095C57.7598 179.095 61.4639 179.316 63.3066 180.353C65.1494 181.39 67.8696 184.388 67.8696 184.388L65.6472 180.56L65.3272 178.111L58.1807 175.704Z" fill="#F2E5DE"/>
<path d="M59.757 179.855C62.5083 179.339 63.7803 181.806 65.564 185.831C67.3478 189.857 70.3926 194.747 70.9983 195.377C71.604 196.007 81.2028 195.377 81.2028 195.377C81.2028 195.377 81.4933 198.158 81.2028 198.489C80.9124 198.821 79.2529 198.78 79.2529 198.78C79.2529 198.78 78.589 199.31 77.967 199.73C77.345 200.15 72.0769 200.938 69.6292 200.814C67.1816 200.69 64.942 200.482 64.6104 200.108C64.2789 199.735 57.5998 189.442 57.1852 185.748C56.7705 182.054 58.3531 180.118 59.757 179.855Z" fill="#F2E5DE"/>
<path d="M67.8696 162.921C73.0724 163.17 72.2563 171.001 72.2563 171.001C72.2563 171.001 70.9051 171.418 68.0738 170.952C68.2913 170.111 68.1981 167.963 68.1981 167.963C68.1981 167.963 67.8688 169.707 67.4511 170.765C66.8523 171.039 66.1752 170.796 65.0244 170.518C64.4334 173.007 62.7631 174.058 61.6192 174.418C60.3558 174.815 59.0178 175.289 57.5245 174.542C56.0312 173.794 56.852 166.158 57.6456 164.622C58.8361 162.317 60.8139 160.254 64.2362 161.344C65.9531 161.891 67.8696 162.921 67.8696 162.921Z" fill="#303C60"/>
<path d="M58.8213 172.222L56.6944 175.33C56.6944 175.33 59.052 181.224 52.1951 183.894C46.8253 185.985 47.4582 189.67 49.8841 193.375C52.3108 197.081 48.432 200.317 48.432 200.317C48.432 200.317 47.8402 196.212 42.6234 195.437C35.5095 194.381 33.4952 184.825 38.809 180.047C43.2058 176.093 44.5438 179.367 47.5203 175.818C50.4968 172.27 56.1151 174.667 56.1151 174.667L58.1745 171.662L58.8213 172.222Z" fill="#303C60"/>
<path d="M36.3614 189.672C36.3925 189.672 36.4235 189.665 36.4523 189.649C36.5439 189.599 36.5773 189.484 36.5276 189.392C34.7384 186.121 36.1983 182.159 36.9322 181.086C37.0098 180.972 37.0836 180.856 37.162 180.734C37.8834 179.608 38.7811 178.206 43.5708 177.343C44.7248 177.135 45.6582 176.449 46.6475 175.723C48.6898 174.223 51.0055 172.522 56.0351 174.839C56.1307 174.882 56.2425 174.841 56.286 174.746C56.3294 174.652 56.2883 174.539 56.1936 174.495C50.9612 172.086 48.55 173.856 46.4239 175.418C45.471 176.118 44.5718 176.779 43.5041 176.972C38.5513 177.863 37.6047 179.343 36.8436 180.531C36.7668 180.65 36.6946 180.763 36.62 180.873C35.8512 181.997 34.3214 186.149 36.1952 189.575C36.2302 189.638 36.2946 189.672 36.3614 189.672Z" fill="#303C60"/>
<path d="M59.9574 175.407C60.2976 175.407 60.6656 175.378 61.0625 175.318C62.8827 175.045 65.3249 174.01 65.5159 168.198C65.519 168.094 65.4375 168.006 65.3334 168.003C65.2271 168.001 65.1416 168.081 65.1385 168.186C65.0593 170.581 64.5849 172.354 63.7268 173.454C63.0753 174.29 62.211 174.763 61.0065 174.944C59.3222 175.196 58.2056 174.884 57.6884 174.018C57.6348 173.929 57.5183 173.899 57.429 173.953C57.3397 174.007 57.3102 174.123 57.3638 174.212C57.8375 175.007 58.708 175.407 59.9574 175.407Z" fill="#303C60"/>
<path d="M130.721 242.685H129.323L123.885 201.094H126.96L130.721 242.685Z" fill="#2E5B9A"/>
<path d="M83.2856 242.685H84.6833L90.1215 201.094H87.0456L83.2856 242.685Z" fill="#2E5B9A"/>
<path d="M28.4647 207.578C26.0466 209.788 27.098 211.997 28.8856 216.1C30.6732 220.203 30.9885 235.354 30.9885 235.354L29.5162 235.143C29.5162 235.143 29.7266 219.572 27.7286 215.363C25.7305 211.154 24.8895 209.05 23.1019 210.419C21.3143 211.787 28.4647 207.578 28.4647 207.578Z" fill="#74B570"/>
<path d="M29.7934 204.717C29.4999 203.408 27.755 201.991 25.423 200.789C25.7701 202.721 26.8821 205.878 25.7313 206.525C24.179 207.399 25.5799 202.99 24.9812 200.567C22.7905 199.497 20.1565 198.622 17.7298 198.187C17.7329 198.196 17.736 198.205 17.7399 198.213C19.1066 201.686 20.8942 203.053 20.1581 203.579C19.6044 203.975 17.8005 199.964 15.4188 197.908C13.6312 197.813 12.1185 198.055 11.2239 198.764C9.84091 199.86 8.91295 200.832 10.3037 204.167C11.0981 204.735 12.1278 205.142 13.3237 205.262C16.478 205.577 17.9503 205.683 15.7426 206.735C14.6609 207.25 12.8485 206.706 11.3792 206.375C11.856 207.253 12.4423 208.249 13.1544 209.381C13.6064 210.1 14.1034 210.724 14.6322 211.263C15.6487 211.458 16.5355 211.461 17.0045 211.259C18.4768 210.628 22.2625 208.629 23.2083 209.471C24.1347 210.294 16.1977 210.816 16.7475 212.91C20.5945 215.127 24.9967 214.072 25.7748 212.036C26.8192 209.302 30.6779 208.659 29.7934 204.717Z" fill="#9CD499"/>
<path d="M21.84 219.677C26.0466 216.521 30.358 219.466 32.5657 222.833C34.7742 226.2 33.1962 233.775 33.1962 233.775C33.1962 233.775 32.3552 233.775 32.3552 233.459C32.3552 233.144 34.6685 224.517 29.2009 220.623C25.7802 218.188 23.3124 219.361 22.9971 220.518C22.6818 221.676 24.3638 223.78 24.3638 223.78L21.84 219.677Z" fill="#74B570"/>
<path d="M31.5142 213.189C27.3077 213.189 25.941 219.713 27.098 223.5C28.2551 227.288 29.8323 234.337 29.8323 234.337L30.8837 233.285C30.8837 233.285 26.8876 223.395 27.8342 218.977C28.7808 214.558 31.0941 213.822 31.515 213.822C31.9351 213.82 31.5142 213.189 31.5142 213.189Z" fill="#9CD499"/>
<path d="M27.9864 223.529C27.6905 223.137 27.3248 222.813 26.8791 222.598C26.9373 222.911 27.0103 223.214 27.0973 223.5C27.6245 225.225 28.2388 227.628 28.7513 229.732C28.7979 229.463 28.8693 229.048 28.9804 228.407C29.0068 228.255 29.027 228.091 29.0417 227.917C28.6301 226.516 28.2411 224.989 27.9864 223.529Z" fill="#74B570"/>
<path d="M26.8363 223.561C18.8449 220.194 23.0554 215.575 16.0098 218.625C15.5136 218.84 14.9087 219.382 14.3029 220.129C14.9304 220.307 15.6906 220.435 16.5355 220.309C18.6384 219.993 17.9022 221.676 14.4326 222.097C13.7788 222.176 13.2476 222.286 12.8065 222.441C11.1533 225.618 10.4086 229.798 13.9069 231.251C14.5965 231.537 15.4483 231.7 16.3965 231.762C17.4759 230.903 16.1333 225.935 17.7974 226.621C19.3955 227.279 17.2965 230.88 17.5838 231.787C19.161 231.759 20.9074 231.501 22.5762 231.087C23.2363 230.717 23.741 230.22 23.8963 229.568C24.4221 227.358 20.9517 225.991 20.8469 224.096C20.7498 222.355 22.1188 227.927 25.7445 228.746C29.0231 227.214 30.5723 225.134 26.8363 223.561Z" fill="#9CD499"/>
<path d="M32.5307 217.608C31.6897 215.82 33.8975 215.398 33.7926 216.767C33.6994 217.979 33.6893 220.925 34.9318 221.727C37.0743 221.494 39.9894 220.63 42.1933 219.314C42.2212 219.136 42.194 218.953 42.1009 218.766C41.1542 216.872 35.0553 215.294 36.9485 214.663C38.4558 214.16 41.0976 217.127 43.2261 218.622C44.5043 217.652 45.3608 216.495 45.3608 215.203C45.3608 213.455 43.2385 211.477 40.4934 210.532C39.2579 210.656 38.1102 211.332 36.3179 212.348C33.6699 213.849 34.2826 211.422 36.7862 209.981C34.6251 210.093 32.4702 211.017 30.8806 213.224C30.8806 213.224 31.0312 214.168 30.0326 215.628C27.31 219.61 30.4519 221.933 34.2081 221.783C33.9945 220.732 33.1124 218.844 32.5307 217.608Z" fill="#9CD499"/>
<path d="M22.0932 219.499C20.0369 221.089 17.7523 222.948 14.9482 224.21C12.1441 225.473 12.7048 229.588 12.7048 229.588C12.7048 229.588 12.2839 226.034 14.6213 224.818C16.9579 223.602 18.5009 222.152 20.2769 221.872C22.0528 221.591 23.0344 221.311 23.0344 221.311C23.0344 221.311 22.4737 220.188 22.8006 219.768C23.1275 219.347 22.0932 219.499 22.0932 219.499Z" fill="#74B570"/>
<path d="M11.957 200.829C19.4817 202.84 24.9967 207.656 26.0249 208.825C27.053 209.995 27.053 210.322 27.053 210.322L26.2586 211.818L25.8851 211.631C25.8851 211.631 26.4924 210.368 24.9035 208.731C22.1631 205.908 18.8279 203.681 16.5378 202.699C14.247 201.718 11.957 200.829 11.957 200.829Z" fill="#74B570"/>
<path d="M32.7279 242.502H29.8532C27.8085 242.502 26.1514 240.844 26.1514 238.799V232.19H36.4289V238.799C36.4297 240.844 34.7725 242.502 32.7279 242.502Z" fill="#75A1DE"/>
<path d="M26.1522 233.372H36.4297V234.096H26.1522V233.372Z" fill="white"/>
<path d="M26.1522 234.692H36.4297V235.117H26.1522V234.692Z" fill="white"/>
<path d="M220.213 233.505H217.761C217.243 233.505 216.823 233.085 216.823 232.567V230.546C216.823 230.028 217.243 229.607 217.761 229.607H220.213C220.731 229.607 221.151 230.028 221.151 230.546V232.567C221.151 233.086 220.731 233.505 220.213 233.505Z" fill="#9EC8FF"/>
<path d="M228.082 233.505H225.63C225.112 233.505 224.692 233.085 224.692 232.567V230.546C224.692 230.028 225.112 229.607 225.63 229.607H228.082C228.6 229.607 229.02 230.028 229.02 230.546V232.567C229.02 233.086 228.6 233.505 228.082 233.505Z" fill="#9EC8FF"/>
<path d="M235.951 233.505H233.498C232.98 233.505 232.56 233.085 232.56 232.567V230.546C232.56 230.028 232.98 229.607 233.498 229.607H235.951C236.469 229.607 236.889 230.028 236.889 230.546V232.567C236.889 233.086 236.469 233.505 235.951 233.505Z" fill="#9EC8FF"/>
<path d="M12.0191 160.882V158.429C12.0191 157.91 12.4392 157.49 12.9564 157.49H14.9762C15.4941 157.49 15.9142 157.91 15.9142 158.429V160.882C15.9142 161.4 15.4941 161.821 14.9762 161.821H12.9564C12.4384 161.82 12.0191 161.4 12.0191 160.882Z" fill="#9EC8FF"/>
<path d="M12.0191 168.755V166.301C12.0191 165.782 12.4392 165.362 12.9564 165.362H14.9762C15.4941 165.362 15.9142 165.782 15.9142 166.301V168.754C15.9142 169.272 15.4941 169.693 14.9762 169.693H12.9564C12.4384 169.693 12.0191 169.272 12.0191 168.755Z" fill="#9EC8FF"/>
<path d="M12.0191 176.628V174.174C12.0191 173.656 12.4392 173.237 12.9564 173.237H14.9762C15.4941 173.237 15.9142 173.657 15.9142 174.174V176.628C15.9142 177.146 15.4941 177.566 14.9762 177.566H12.9564C12.4384 177.566 12.0191 177.146 12.0191 176.628Z" fill="#9EC8FF"/>
</g>
</svg>
